                                                                        S      1
,,19HCorner Structure v3,19HCorner Structure v3,7Hunknown,7Hunknown,32, G      1
38,7,99,15,,1.,2,2HMM,1,0.08,15H20201205.174850,0.01,10000.,7Hunknown,7HG      2
unknown,11,0,15H20201115.142515;                                        G      3
     186       1                                                00000000D      1
     186            -119       1       0                               0D      2
     514       2                                                00010000D      3
     514                       1       1                               0D      4
     510       3                                                00010000D      5
     510            -119       1       1                               0D      6
     510       4                                                00010000D      7
     510            -119       1       1                               0D      8
     510       5                                                00010000D      9
     510            -119       1       1                               0D     10
     510       6                                                00010000D     11
     510            -119       1       1                               0D     12
     510       7                                                00010000D     13
     510            -119       1       1                               0D     14
     510       8                                                00010000D     15
     510            -119       1       1                               0D     16
     510       9                                                00010000D     17
     510            -119       1       1                               0D     18
     510      10                                                00010000D     19
     510            -119       1       1                               0D     20
     510      11                                                00010000D     21
     510            -119       1       1                               0D     22
     510      12                                                00010000D     23
     510            -119       1       1                               0D     24
     508      13                                                00010000D     25
     508                       1       1                               0D     26
     508      14                                                00010000D     27
     508                       1       1                               0D     28
     508      15                                                00010000D     29
     508                       1       1                               0D     30
     508      16                                                00010000D     31
     508                       1       1                               0D     32
     508      17                                                00010000D     33
     508                       1       1                               0D     34
     508      18                                                00010000D     35
     508                       1       1                               0D     36
     508      19                                                00010000D     37
     508                       1       1                               0D     38
     508      20                                                00010000D     39
     508                       2       1                               0D     40
     508      22                                                00010000D     41
     508                       2       1                               0D     42
     508      24                                                00010000D     43
     508                       2       1                               0D     44
     126      26                                                00010000D     45
     126       0               4       0                               0D     46
     126      30                                                00010000D     47
     126       0               2       0                               0D     48
     126      32                                                00010000D     49
     126       0               2       0                               0D     50
     126      34                                                00010000D     51
     126       0               2       0                               0D     52
     126      36                                                00010000D     53
     126       0               2       0                               0D     54
     126      38                                                00010000D     55
     126       0               2       0                               0D     56
     126      40                                                00010000D     57
     126       0               2       0                               0D     58
     126      42                                                00010000D     59
     126       0               2       0                               0D     60
     126      44                                                00010000D     61
     126       0               2       0                               0D     62
     126      46                                                00010000D     63
     126       0               2       0                               0D     64
     126      48                                                00010000D     65
     126       0               2       0                               0D     66
     126      50                                                00010000D     67
     126       0               2       0                               0D     68
     126      52                                                00010000D     69
     126       0               2       0                               0D     70
     126      54                                                00010000D     71
     126       0               2       0                               0D     72
     126      56                                                00010000D     73
     126       0               2       0                               0D     74
     126      58                                                00010000D     75
     126       0               2       0                               0D     76
     126      60                                                00010000D     77
     126       0               2       0                               0D     78
     126      62                                                00010000D     79
     126       0               2       0                               0D     80
     126      64                                                00010000D     81
     126       0               2       0                               0D     82
     126      66                                                00010000D     83
     126       0               2       0                               0D     84
     126      68                                                00010000D     85
     126       0               2       0                               0D     86
     126      70                                                00010000D     87
     126       0               3       0                               0D     88
     126      73                                                00010000D     89
     126       0               4       0                               0D     90
     126      77                                                00010000D     91
     126       0               4       0                               0D     92
     128      81                                                00010000D     93
     128       0    -119       4       0                               0D     94
     128      85                                                00010000D     95
     128       0    -119       3       0                               0D     96
     128      88                                                00010000D     97
     128       0    -119       3       0                               0D     98
     128      91                                                00010000D     99
     128       0    -119       3       0                               0D    100
     128      94                                                00010000D    101
     128       0    -119       3       0                               0D    102
     128      97                                                00010000D    103
     128       0    -119       4       0                               0D    104
     128     101                                                00010000D    105
     128       0    -119       3       0                               0D    106
     128     104                                                00010000D    107
     128       0    -119       6       0                               0D    108
     128     110                                                00010000D    109
     128       0    -119       4       0                               0D    110
     128     114                                                00010000D    111
     128       0    -119       4       0                               0D    112
     502     118                                                00010000D    113
     502                       3       1                               0D    114
     504     121                                                00010001D    115
     504                       7       1                               0D    116
     406     128                                                00000000D    117
     406                       1      15                               0D    118
     314     129                                                00000200D    119
     314                       2       0                               0D    120
186,3,1,0,0,1,117;                                                     1P      1
514,10,5,1,7,1,9,1,11,1,13,1,15,1,17,1,19,1,21,1,23,1;                 3P      2
510,93,1,1,25;                                                         5P      3
510,95,1,1,27;                                                         7P      4
510,97,1,1,29;                                                         9P      5
510,99,1,1,31;                                                        11P      6
510,101,1,1,33;                                                       13P      7
510,103,1,1,35;                                                       15P      8
510,105,1,1,37;                                                       17P      9
510,107,1,1,39;                                                       19P     10
510,109,1,1,41;                                                       21P     11
510,111,1,1,43;                                                       23P     12
508,3,0,115,1,1,0,0,115,2,0,0,0,115,3,0,0;                            25P     13
508,4,0,115,3,1,0,0,115,4,1,0,0,115,5,0,0,0,115,6,0,0;                27P     14
508,4,0,115,2,1,0,0,115,7,1,0,0,115,8,0,0,0,115,4,0,0;                29P     15
508,4,0,115,9,0,0,0,115,10,1,0,0,115,11,0,0,0,115,12,0,0;             31P     16
508,4,0,115,13,1,0,0,115,12,1,0,0,115,14,0,0,0,115,15,0,0;            33P     17
508,4,0,115,16,0,0,0,115,15,1,0,0,115,17,0,0,0,115,18,0,0;            35P     18
508,4,0,115,19,1,0,0,115,18,1,0,0,115,20,0,0,0,115,21,0,0;            37P     19
508,8,0,115,22,1,0,0,115,21,1,0,0,115,23,0,0,0,115,7,0,0,0,115,       39P     20
1,0,0,0,115,6,1,0,0,115,24,0,0,0,115,10,0,0;                          39P     21
508,8,0,115,24,1,0,0,115,5,1,0,0,115,8,1,0,0,115,23,1,0,0,115,        41P     22
20,1,0,0,115,17,1,0,0,115,14,1,0,0,115,11,1,0;                        41P     23
508,5,0,115,22,0,0,0,115,9,1,0,0,115,13,0,0,0,115,16,1,0,0,115,       43P     24
19,0,0;                                                               43P     25
126,1,1,0,0,1,0,0.707106781186547,0.707106781186547,                  45P     26
5.65685424949238,5.65685424949238,1.,1.,-4.99999999999999,40.,        45P     27
5.,-40.,4.99999999999999,5.,0.707106781186547,5.65685424949238,       45P     28
0.,0.,0.;                                                             45P     29
126,1,1,0,0,1,0,-0.875,-0.875,2.625,2.625,1.,1.,-5.,5.,5.,-40.,       47P     30
5.,5.,-0.875,2.625,0.,0.,0.;                                          47P     31
126,1,1,0,0,1,0,-0.875,-0.875,2.625,2.625,1.,1.,-5.,40.,5.,-5.,       49P     32
5.,5.,-0.875,2.625,0.,0.,0.;                                          49P     33
126,1,1,0,0,1,0,0.5,0.5,2.,2.,1.,1.,-5.,5.,5.,-5.,5.,20.,0.5,2.,      51P     34
0.,0.,0.;                                                             51P     35
126,1,1,0,0,1,0,0.,0.,3.5,3.5,1.,1.,-5.,40.,20.,-5.,5.,20.,0.,        53P     36
3.5,0.,0.,0.;                                                         53P     37
126,1,1,0,0,1,0,0.5,0.5,2.,2.,1.,1.,-5.,40.,5.,-5.,40.,20.,0.5,       55P     38
2.,0.,0.,0.;                                                          55P     39
126,1,1,0,0,1,0,0.5,0.5,2.,2.,1.,1.,-40.,5.,5.,-40.,5.,20.,0.5,       57P     40
2.,0.,0.,0.;                                                          57P     41
126,1,1,0,0,1,0,0.,0.,3.5,3.5,1.,1.,-5.,5.,20.,-40.,5.,20.,0.,        59P     42
3.5,0.,0.,0.;                                                         59P     43
126,1,1,0,0,1,0,0.,0.,0.2,0.2,1.,1.,-2.,43.,0.,0.,43.,0.,0.,0.2,      61P     44
0.,0.,0.;                                                             61P     45
126,1,1,0,0,1,0,0.,0.,2.,2.,1.,1.,-2.,43.,0.,-2.,43.,20.,0.,2.,       63P     46
0.,0.,0.;                                                             63P     47
126,1,1,0,0,1,0,-0.2,-0.2,0.,0.,1.,1.,0.,43.,20.,-2.,43.,20.,         65P     48
-0.2,0.,0.,0.,0.;                                                     65P     49
126,1,1,0,0,1,0,0.,0.,2.,2.,1.,1.,0.,43.,0.,0.,43.,20.,0.,2.,0.,      67P     50
0.,0.;                                                                67P     51
126,1,1,0,0,1,0,0.,0.,4.3,4.3,1.,1.,0.,0.,0.,0.,43.,0.,0.,4.3,        69P     52
0.,0.,0.;                                                             69P     53
126,1,1,0,0,1,0,0.,0.,4.3,4.3,1.,1.,0.,0.,20.,0.,43.,20.,0.,4.3,      71P     54
0.,0.,0.;                                                             71P     55
126,1,1,0,0,1,0,0.,0.,2.,2.,1.,1.,0.,0.,0.,0.,0.,20.,0.,2.,0.,        73P     56
0.,0.;                                                                73P     57
126,1,1,0,0,1,0,0.,0.,4.3,4.3,1.,1.,0.,0.,0.,-43.,0.,0.,0.,4.3,       75P     58
0.,0.,0.;                                                             75P     59
126,1,1,0,0,1,0,-4.3,-4.3,0.,0.,1.,1.,-43.,0.,20.,0.,0.,20.,          77P     60
-4.3,0.,0.,0.,0.;                                                     77P     61
126,1,1,0,0,1,0,0.,0.,2.,2.,1.,1.,-43.,0.,0.,-43.,0.,20.,0.,2.,       79P     62
0.,0.,0.;                                                             79P     63
126,1,1,0,0,1,0,0.,0.,0.2,0.2,1.,1.,-43.,2.,0.,-43.,0.,0.,0.,         81P     64
0.2,0.,0.,0.;                                                         81P     65
126,1,1,0,0,1,0,0.,0.,0.2,0.2,1.,1.,-43.,2.,20.,-43.,0.,20.,0.,       83P     66
0.2,0.,0.,0.;                                                         83P     67
126,1,1,0,0,1,0,0.,0.,2.,2.,1.,1.,-43.,2.,0.,-43.,2.,20.,0.,2.,       85P     68
0.,0.,0.;                                                             85P     69
126,1,1,0,0,1,0,0.282842712474619,0.282842712474619,                  87P     70
6.08111831820431,6.08111831820431,1.,1.,-2.,43.,0.,-43.,              87P     71
1.99999999999999,0.,0.282842712474619,6.08111831820431,0.,0.,0.;      87P     72
126,1,1,0,0,1,0,5.65685424949238,5.65685424949238,                    89P     73
6.08111831820431,6.08111831820431,1.,1.,-40.,4.99999999999999,        89P     74
20.,-43.,1.99999999999999,20.,5.65685424949238,6.08111831820431,      89P     75
0.,0.,0.;                                                             89P     76
126,1,1,0,0,1,0,0.282842712474619,0.282842712474619,                  91P     77
0.707106781186547,0.707106781186547,1.,1.,-2.,43.,20.,                91P     78
-4.99999999999999,40.,20.,0.282842712474619,0.707106781186547,        91P     79
0.,0.,0.;                                                             91P     80
128,1,1,1,1,0,0,1,0,0,-1.751,-1.751,1.751,1.751,-1.751,-1.751,        93P     81
1.751,1.751,1.,1.,1.,1.,-40.01,4.98999999999999,5.,-4.99,             93P     82
4.98999999999999,5.,-40.01,40.01,5.,-4.99,40.01,5.,-1.751,1.751,      93P     83
-1.751,1.751;                                                         93P     84
128,1,1,1,1,0,0,1,0,0,-0.001,-0.001,3.501,3.501,0.499,0.499,          95P     85
2.001,2.001,1.,1.,1.,1.,-5.,40.01,4.99,-5.,4.99,4.99,-5.,40.01,       95P     86
20.01,-5.,4.99000000000001,20.01,-0.001,3.501,0.499,2.001;            95P     87
128,1,1,1,1,0,0,1,0,0,-0.001,-0.001,3.501,3.501,0.499,0.499,          97P     88
2.001,2.001,1.,1.,1.,1.,-4.99,5.,4.99,-40.01,5.,4.99,-4.99,5.,        97P     89
20.01,-40.01,5.,20.01,-0.001,3.501,0.499,2.001;                       97P     90
128,1,1,1,1,0,0,1,0,0,-0.001,-0.001,0.201,0.201,-0.001,-0.001,        99P     91
2.001,2.001,1.,1.,1.,1.,0.01,43.,-0.01,-2.01,43.,-0.01,0.01,43.,      99P     92
20.01,-2.01,43.,20.01,-0.001,0.201,-0.001,2.001;                      99P     93
128,1,1,1,1,0,0,1,0,0,-0.001,-0.001,4.301,4.301,-0.001,-0.001,       101P     94
2.001,2.001,1.,1.,1.,1.,0.,-0.01,-0.01,0.,43.01,-0.01,0.,-0.01,      101P     95
20.01,0.,43.01,20.01,-0.001,4.301,-0.001,2.001;                      101P     96
128,1,1,1,1,0,0,1,0,0,-0.001,-0.001,4.301,4.301,-0.001,-0.001,       103P     97
2.001,2.001,1.,1.,1.,1.,-43.01,0.,-0.01,0.0100000000000033,0.,       103P     98
-0.01,-43.01,0.,20.01,0.0100000000000033,0.,20.01,-0.001,4.301,      103P     99
-0.001,2.001;                                                        103P    100
128,1,1,1,1,0,0,1,0,0,-0.001,-0.001,0.201,0.201,-0.001,-0.001,       105P    101
2.001,2.001,1.,1.,1.,1.,-43.,2.01,-0.01,-43.,-0.01,-0.01,-43.,       105P    102
2.01,20.01,-43.,-0.01,20.01,-0.001,0.201,-0.001,2.001;               105P    103
128,1,1,1,1,0,0,1,0,0,-0.00100000000000044,-0.00100000000000044,     107P    104
5.79927560572969,5.79927560572969,-0.001,-0.001,2.001,2.001,1.,      107P    105
1.,1.,1.,-1.99292893218813,43.0070710678119,-0.01,                   107P    106
-43.0070710678119,1.99292893218812,-0.01,-1.99292893218813,          107P    107
43.0070710678119,20.01,-43.0070710678119,1.99292893218812,20.01,     107P    108
-0.00100000000000044,5.79927560572969,-0.001,2.001;                  107P    109
128,1,1,1,1,0,0,1,0,0,-2.151,-2.151,2.151,2.151,-2.151,-2.151,       109P    110
2.151,2.151,1.,1.,1.,1.,-43.01,-0.0099999999999989,20.,              109P    111
0.0099999999999989,-0.0099999999999989,20.,-43.01,43.01,20.,         109P    112
0.00999999999999446,43.01,20.,-2.151,2.151,-2.151,2.151;             109P    113
128,1,1,1,1,0,0,1,0,0,-2.151,-2.151,2.151,2.151,-2.151,-2.151,       111P    114
2.151,2.151,1.,1.,1.,1.,0.0099999999999989,-0.0099999999999989,      111P    115
0.,-43.01,-0.0099999999999989,0.,0.00999999999999446,43.01,0.,       111P    116
-43.01,43.01,0.,-2.151,2.151,-2.151,2.151;                           111P    117
502,16,-5.,40.,5.,-40.,5.,5.,-5.,5.,5.,-5.,5.,20.,-5.,40.,20.,       113P    118
-40.,5.,20.,-2.,43.,0.,0.,43.,0.,-2.,43.,20.,0.,43.,20.,0.,0.,       113P    119
0.,0.,0.,20.,-43.,0.,0.,-43.,0.,20.,-43.,2.,0.,-43.,2.,20.;          113P    120
504,24,45,113,1,113,2,47,113,3,113,2,49,113,1,113,3,51,113,3,        115P    121
113,4,53,113,5,113,4,55,113,1,113,5,57,113,2,113,6,59,113,4,113,     115P    122
6,61,113,7,113,8,63,113,7,113,9,65,113,10,113,9,67,113,8,113,10,     115P    123
69,113,11,113,8,71,113,12,113,10,73,113,11,113,12,75,113,11,113,     115P    124
13,77,113,14,113,12,79,113,13,113,14,81,113,15,113,13,83,113,16,     115P    125
113,14,85,113,15,113,16,87,113,7,113,15,89,113,6,113,16,91,113,      115P    126
9,113,5;                                                             115P    127
406,1,5HBody2;                                                       117P    128
314,62.7450980392157,62.7450980392157,62.7450980392157,13HSteel      119P    129
- Satin;                                                             119P    130
S      1G      3D    120P    130                                        T      1
