                                                                        S      1
,,9HAxe 3 v14,9HAxe 3 v14,7Hunknown,7Hunknown,32,38,7,99,15,,1.,2,2HMM, G      1
1,0.08,15H20201211.162842,0.01,10000.,7Hunknown,7Hunknown,11,0,15H202006G      2
16.162107;                                                              G      3
     186       1                                                00000000D      1
     186            -171       1       0                               0D      2
     514       2                                                00010000D      3
     514                       2       1                               0D      4
     510       4                                                00010000D      5
     510            -171       1       1                               0D      6
     510       5                                                00010000D      7
     510            -171       1       1                               0D      8
     510       6                                                00010000D      9
     510            -171       1       1                               0D     10
     510       7                                                00010000D     11
     510            -171       1       1                               0D     12
     510       8                                                00010000D     13
     510            -171       1       1                               0D     14
     510       9                                                00010000D     15
     510            -171       1       1                               0D     16
     510      10                                                00010000D     17
     510            -171       1       1                               0D     18
     510      11                                                00010000D     19
     510            -171       1       1                               0D     20
     510      12                                                00010000D     21
     510            -171       1       1                               0D     22
     510      13                                                00010000D     23
     510            -171       1       1                               0D     24
     510      14                                                00010000D     25
     510            -171       1       1                               0D     26
     510      15                                                00010000D     27
     510            -171       1       1                               0D     28
     510      16                                                00010000D     29
     510            -171       1       1                               0D     30
     510      17                                                00010000D     31
     510            -171       1       1                               0D     32
     510      18                                                00010000D     33
     510            -171       1       1                               0D     34
     508      19                                                00010000D     35
     508                       1       1                               0D     36
     508      20                                                00010000D     37
     508                       1       1                               0D     38
     508      21                                                00010000D     39
     508                       1       1                               0D     40
     508      22                                                00010000D     41
     508                       1       1                               0D     42
     508      23                                                00010000D     43
     508                       1       1                               0D     44
     508      24                                                00010000D     45
     508                       1       1                               0D     46
     508      25                                                00010000D     47
     508                       2       1                               0D     48
     508      27                                                00010000D     49
     508                       1       1                               0D     50
     508      28                                                00010000D     51
     508                       1       1                               0D     52
     508      29                                                00010000D     53
     508                       1       1                               0D     54
     508      30                                                00010000D     55
     508                       2       1                               0D     56
     508      32                                                00010000D     57
     508                       1       1                               0D     58
     508      33                                                00010000D     59
     508                       1       1                               0D     60
     508      34                                                00010000D     61
     508                       1       1                               0D     62
     508      35                                                00010000D     63
     508                       1       1                               0D     64
     508      36                                                00010000D     65
     508                       1       1                               0D     66
     508      37                                                00010000D     67
     508                       1       1                               0D     68
     508      38                                                00010000D     69
     508                       1       1                               0D     70
     508      39                                                00010000D     71
     508                       1       1                               0D     72
     508      40                                                00010000D     73
     508                       1       1                               0D     74
     126      41                                                00010000D     75
     126       0               4       0                               0D     76
     126      45                                                00010000D     77
     126       0               2       0                               0D     78
     126      47                                                00010000D     79
     126       0               3       0                               0D     80
     126      50                                                00010000D     81
     126       0               3       0                               0D     82
     126      53                                                00010000D     83
     126       0               4       0                               0D     84
     126      57                                                00010000D     85
     126       0               3       0                               0D     86
     126      60                                                00010000D     87
     126       0               2       0                               0D     88
     126      62                                                00010000D     89
     126       0               4       0                               0D     90
     126      66                                                00010000D     91
     126       0               3       0                               0D     92
     126      69                                                00010000D     93
     126       0               2       0                               0D     94
     126      71                                                00010000D     95
     126       0               4       0                               0D     96
     126      75                                                00010000D     97
     126       0               3       0                               0D     98
     126      78                                                00010000D     99
     126       0               3       0                               0D    100
     126      81                                                00010000D    101
     126       0               4       0                               0D    102
     126      85                                                00010000D    103
     126       0               3       0                               0D    104
     126      88                                                00010000D    105
     126       0               2       0                               0D    106
     126      90                                                00010000D    107
     126       0               4       0                               0D    108
     126      94                                                00010000D    109
     126       0               3       0                               0D    110
     126      97                                                00010000D    111
     126       0              10       0                               0D    112
     126     107                                                00010000D    113
     126       0               9       0                               0D    114
     126     116                                                00010000D    115
     126       0               2       0                               0D    116
     126     118                                                00010000D    117
     126       0               9       0                               0D    118
     126     127                                                00010000D    119
     126       0               9       0                               0D    120
     126     136                                                00010000D    121
     126       0               2       0                               0D    122
     126     138                                                00010000D    123
     126       0              10       0                               0D    124
     126     148                                                00010000D    125
     126       0               2       0                               0D    126
     126     150                                                00010000D    127
     126       0               9       0                               0D    128
     126     159                                                00010000D    129
     126       0               9       0                               0D    130
     126     168                                                00010000D    131
     126       0               2       0                               0D    132
     126     170                                                00010000D    133
     126       0               9       0                               0D    134
     128     179                                                00010000D    135
     128       0    -171       6       0                               0D    136
     128     185                                                00010000D    137
     128       0    -171       6       0                               0D    138
     128     191                                                00010000D    139
     128       0    -171       5       0                               0D    140
     128     196                                                00010000D    141
     128       0    -171       6       0                               0D    142
     128     202                                                00010000D    143
     128       0    -171       6       0                               0D    144
     128     208                                                00010000D    145
     128       0    -171       5       0                               0D    146
     128     213                                                00010000D    147
     128       0    -171       5       0                               0D    148
     128     218                                                00010000D    149
     128       0    -171      12       0                               0D    150
     128     230                                                00010000D    151
     128       0    -171       3       0                               0D    152
     128     233                                                00010000D    153
     128       0    -171      11       0                               0D    154
     128     244                                                00010000D    155
     128       0    -171       3       0                               0D    156
     128     247                                                00010000D    157
     128       0    -171      12       0                               0D    158
     128     259                                                00010000D    159
     128       0    -171      12       0                               0D    160
     128     271                                                00010000D    161
     128       0    -171       3       0                               0D    162
     128     274                                                00010000D    163
     128       0    -171       3       0                               0D    164
     502     277                                                00010000D    165
     502                      12       1                               0D    166
     504     289                                                00010001D    167
     504                       9       1                               0D    168
     406     298                                                00000000D    169
     406                       1      15                               0D    170
     314     299                                                00000200D    171
     314                       2       0                               0D    172
     314     301                                                00000200D    173
     314                       2       0                               0D    174
186,3,1,0,0,1,169;                                                     1P      1
514,15,5,1,7,1,9,1,11,1,13,1,15,1,17,1,19,1,21,1,23,1,25,1,27,1,       3P      2
29,1,31,1,33,1;                                                        3P      3
510,135,1,1,35;                                                        5P      4
510,137,1,1,37;                                                        7P      5
510,139,1,1,39;                                                        9P      6
510,141,1,1,41;                                                       11P      7
510,143,1,1,43;                                                       13P      8
510,145,1,1,45;                                                       15P      9
510,147,2,1,47,49;                                                    17P     10
510,149,1,1,51;                                                       19P     11
510,151,2,1,53,55;                                                    21P     12
510,153,1,1,57;                                                       23P     13
510,155,2,1,59,61;                                                    25P     14
510,157,1,1,63;                                                       27P     15
510,159,1,1,65;                                                       29P     16
510,161,2,1,67,69;                                                    31P     17
510,163,2,1,71,73;                                                    33P     18
508,4,0,167,1,0,0,0,167,2,1,0,0,167,3,0,0,0,167,4,0,0;                35P     19
508,4,0,167,5,0,0,0,167,4,1,0,0,167,6,0,0,0,167,7,0,0;                37P     20
508,4,0,167,8,0,0,0,167,7,1,0,0,167,9,0,0,0,167,10,0,0;               39P     21
508,4,0,167,11,0,0,0,167,10,1,0,0,167,12,0,0,0,167,13,0,0;            41P     22
508,4,0,167,14,0,0,0,167,13,1,0,0,167,15,0,0,0,167,16,0,0;            43P     23
508,4,0,167,17,0,0,0,167,16,1,0,0,167,18,0,0,0,167,2,0,0;             45P     24
508,6,0,167,18,1,0,0,167,15,1,0,0,167,12,1,0,0,167,9,1,0,0,167,       47P     25
6,1,0,0,167,3,1,0;                                                    47P     26
508,1,0,167,19,1,0;                                                   49P     27
508,4,0,167,20,0,0,0,167,21,1,0,0,167,22,0,0,0,167,21,0,0;            51P     28
508,1,0,167,20,1,0;                                                   53P     29
508,6,0,167,1,1,0,0,167,5,1,0,0,167,8,1,0,0,167,11,1,0,0,167,14,      55P     30
1,0,0,167,17,1,0;                                                     55P     31
508,4,0,167,23,0,0,0,167,24,1,0,0,167,25,0,0,0,167,24,0,0;            57P     32
508,1,0,167,23,1,0;                                                   59P     33
508,1,0,167,22,1,0;                                                   61P     34
508,4,0,167,19,0,0,0,167,26,1,0,0,167,27,0,0,0,167,26,0,0;            63P     35
508,4,0,167,28,0,0,0,167,29,1,0,0,167,30,0,0,0,167,29,0,0;            65P     36
508,1,0,167,30,1,0;                                                   67P     37
508,1,0,167,27,1,0;                                                   69P     38
508,1,0,167,28,1,0;                                                   71P     39
508,1,0,167,25,1,0;                                                   73P     40
126,1,1,0,0,1,0,-0.294448637286709,-0.294448637286709,                75P     41
0.0981495457622364,0.0981495457622364,1.,1.,1.96299091524473,         75P     42
-3.4,-5.5,3.92598183048946,2.22044604925031D-15,-5.5,                 75P     43
-0.294448637286709,0.0981495457622364,0.,0.,0.;                       75P     44
126,1,1,0,0,1,0,0.,0.,1.6,1.6,1.,1.,1.96299091524473,-3.4,-5.5,       77P     45
1.96299091524473,-3.4,-21.5,0.,1.6,0.,0.,0.;                          77P     46
126,1,1,0,0,1,0,0.,0.,0.392598183048945,0.392598183048945,1.,1.,      79P     47
3.92598183048946,2.18141477104083D-15,-21.5,1.96299091524473,         79P     48
-3.4,-21.5,0.,0.392598183048945,0.,0.,0.;                             79P     49
126,1,1,0,0,1,0,0.,0.,1.6,1.6,1.,1.,3.92598183048946,                 81P     50
2.18141477104083D-15,-5.5,3.92598183048946,2.18141477104083D-15,      81P     51
-21.5,0.,1.6,0.,0.,0.;                                                81P     52
126,1,1,0,0,1,0,-0.294448637286709,-0.294448637286709,                83P     53
0.0981495457622363,0.0981495457622363,1.,1.,3.92598183048946,         83P     54
1.66533453693773D-15,-5.5,1.96299091524473,3.4,-5.5,                  83P     55
-0.294448637286709,0.0981495457622363,0.,0.,0.;                       83P     56
126,1,1,0,0,1,0,0.,0.,0.392598183048945,0.392598183048945,1.,1.,      85P     57
1.96299091524473,3.4,-21.5,3.92598183048946,                          85P     58
2.22044604925031D-15,-21.5,0.,0.392598183048945,0.,0.,0.;             85P     59
126,1,1,0,0,1,0,0.,0.,1.6,1.6,1.,1.,1.96299091524473,3.4,-5.5,        87P     60
1.96299091524473,3.4,-21.5,0.,1.6,0.,0.,0.;                           87P     61
126,1,1,0,0,1,0,-0.294448637286709,-0.294448637286709,                89P     62
0.0981495457622364,0.0981495457622364,1.,1.,1.96299091524473,         89P     63
3.4,-5.5,-1.96299091524473,3.4,-5.5,-0.294448637286709,               89P     64
0.0981495457622364,0.,0.,0.;                                          89P     65
126,1,1,0,0,1,0,0.,0.,0.392598183048946,0.392598183048946,1.,1.,      91P     66
-1.96299091524473,3.4,-21.5,1.96299091524473,3.4,-21.5,0.,            91P     67
0.392598183048946,0.,0.,0.;                                           91P     68
126,1,1,0,0,1,0,0.,0.,1.6,1.6,1.,1.,-1.96299091524473,3.4,-5.5,       93P     69
-1.96299091524473,3.4,-21.5,0.,1.6,0.,0.,0.;                          93P     70
126,1,1,0,0,1,0,-0.294448637286709,-0.294448637286709,                95P     71
0.0981495457622363,0.0981495457622363,1.,1.,-1.96299091524473,        95P     72
3.4,-5.5,-3.92598183048945,-8.32667268468867D-16,-5.5,                95P     73
-0.294448637286709,0.0981495457622363,0.,0.,0.;                       95P     74
126,1,1,0,0,1,0,0.,0.,0.392598183048946,0.392598183048946,1.,1.,      97P     75
-3.92598183048945,-8.95550994473027D-16,-21.5,-1.96299091524473,      97P     76
3.4,-21.5,0.,0.392598183048946,0.,0.,0.;                              97P     77
126,1,1,0,0,1,0,0.,0.,1.6,1.6,1.,1.,-3.92598183048945,                99P     78
-8.95550994473027D-16,-5.5,-3.92598183048945,                         99P     79
-8.95550994473027D-16,-21.5,0.,1.6,0.,0.,0.;                          99P     80
126,1,1,0,0,1,0,-0.294448637286709,-0.294448637286709,               101P     81
0.0981495457622364,0.0981495457622364,1.,1.,-3.92598183048945,       101P     82
-1.11022302462516D-15,-5.5,-1.96299091524473,-3.4,-5.5,              101P     83
-0.294448637286709,0.0981495457622364,0.,0.,0.;                      101P     84
126,1,1,0,0,1,0,0.,0.,0.392598183048945,0.392598183048945,1.,1.,     103P     85
-1.96299091524473,-3.4,-21.5,-3.92598183048945,                      103P     86
-1.11022302462516D-15,-21.5,0.,0.392598183048945,0.,0.,0.;           103P     87
126,1,1,0,0,1,0,0.,0.,1.6,1.6,1.,1.,-1.96299091524473,-3.4,-5.5,     105P     88
-1.96299091524473,-3.4,-21.5,0.,1.6,0.,0.,0.;                        105P     89
126,1,1,0,0,1,0,-0.294448637286709,-0.294448637286709,               107P     90
0.0981495457622364,0.0981495457622364,1.,1.,-1.96299091524473,       107P     91
-3.4,-5.5,1.96299091524473,-3.4,-5.5,-0.294448637286709,             107P     92
0.0981495457622364,0.,0.,0.;                                         107P     93
126,1,1,0,0,1,0,0.,0.,0.392598183048946,0.392598183048946,1.,1.,     109P     94
1.96299091524473,-3.4,-21.5,-1.96299091524473,-3.4,-21.5,0.,         109P     95
0.392598183048946,0.,0.,0.;                                          109P     96
126,8,2,0,1,0,0,-3.14159265358979,-3.14159265358979,                 111P     97
-3.14159265358979,-1.5707963267949,-1.5707963267949,0.,0.,           111P     98
1.5707963267949,1.5707963267949,3.14159265358979,                    111P     99
3.14159265358979,3.14159265358979,1.,0.707106781186547,1.,           111P    100
0.707106781186548,1.,0.707106781186548,1.,0.707106781186547,1.,      111P    101
-2.1,-2.57175827820944D-16,-21.5,-2.1,-2.1,-21.5,                    111P    102
1.28587913910472D-16,-2.1,-21.5,2.1,-2.1,-21.5,2.1,0.,-21.5,2.1,     111P    103
2.1,-21.5,1.28587913910472D-16,2.1,-21.5,-2.1,2.1,-21.5,-2.1,        111P    104
2.57175827820944D-16,-21.5,-3.14159265358979,3.14159265358979,       111P    105
0.,0.,0.;                                                            111P    106
126,8,2,0,1,0,0,-3.14159265358979,-3.14159265358979,                 113P    107
-3.14159265358979,-1.5707963267949,-1.5707963267949,0.,0.,           113P    108
1.5707963267949,1.5707963267949,3.14159265358979,                    113P    109
3.14159265358979,3.14159265358979,1.,0.707106781186548,1.,           113P    110
0.707106781186548,1.,0.707106781186548,1.,0.707106781186548,1.,      113P    111
-6.,7.34788079488412D-16,-5.5,-6.,6.,-5.5,3.67394039744206D-16,      113P    112
6.,-5.5,6.,6.,-5.5,6.,0.,-5.5,6.,-6.,-5.5,3.67394039744206D-16,      113P    113
-6.,-5.5,-6.,-6.,-5.5,-6.,-7.34788079488412D-16,-5.5,                113P    114
-3.14159265358979,3.14159265358979,0.,0.,0.;                         113P    115
126,1,1,0,0,1,0,-0.583333333333333,-0.583333333333333,0.,0.,1.,      115P    116
1.,-6.,0.,-5.5,-6.,0.,-2.,-0.583333333333333,0.,0.,0.,0.;            115P    117
126,8,2,0,1,0,0,-3.14159265358979,-3.14159265358979,                 117P    118
-3.14159265358979,-1.5707963267949,-1.5707963267949,0.,0.,           117P    119
1.5707963267949,1.5707963267949,3.14159265358979,                    117P    120
3.14159265358979,3.14159265358979,1.,0.707106781186548,1.,           117P    121
0.707106781186548,1.,0.707106781186548,1.,0.707106781186548,1.,      117P    122
-6.,-7.34788079488412D-16,-2.,-6.,-6.,-2.,3.67394039744206D-16,      117P    123
-6.,-2.,6.,-6.,-2.,6.,0.,-2.,6.,6.,-2.,3.67394039744206D-16,6.,      117P    124
-2.,-6.,6.,-2.,-6.,7.34788079488412D-16,-2.,-3.14159265358979,       117P    125
3.14159265358979,0.,0.,0.;                                           117P    126
126,8,2,0,1,0,0,-3.14159265358979,-3.14159265358979,                 119P    127
-3.14159265358979,-1.5707963267949,-1.5707963267949,0.,0.,           119P    128
1.5707963267949,1.5707963267949,3.14159265358979,                    119P    129
3.14159265358979,3.14159265358979,1.,0.707106781186548,1.,           119P    130
0.707106781186548,1.,0.707106781186548,1.,0.707106781186548,1.,      119P    131
-8.,9.79717439317883D-16,-2.,-8.,8.,-2.,4.89858719658941D-16,8.,     119P    132
-2.,8.,8.,-2.,8.,0.,-2.,8.,-8.,-2.,4.89858719658941D-16,-8.,-2.,     119P    133
-8.,-8.,-2.,-8.,-9.79717439317883D-16,-2.,-3.14159265358979,         119P    134
3.14159265358979,0.,0.,0.;                                           119P    135
126,1,1,0,0,1,0,-0.0625,-0.0625,0.,0.,1.,1.,-8.,0.,-2.,-8.,0.,       121P    136
-1.5,-0.0625,0.,0.,0.,0.;                                            121P    137
126,8,2,0,1,0,0,-3.14159265358979,-3.14159265358979,                 123P    138
-3.14159265358979,-1.5707963267949,-1.5707963267949,0.,0.,           123P    139
1.5707963267949,1.5707963267949,3.14159265358979,                    123P    140
3.14159265358979,3.14159265358979,1.,0.707106781186548,1.,           123P    141
0.707106781186548,1.,0.707106781186548,1.,0.707106781186548,1.,      123P    142
-8.,-9.79717439317883D-16,-1.5,-8.,-8.,-1.5,                         123P    143
4.89858719658941D-16,-8.,-1.5,8.,-8.,-1.5,8.,0.,-1.5,8.,8.,-1.5,     123P    144
4.89858719658941D-16,8.,-1.5,-8.,8.,-1.5,-8.,                        123P    145
9.79717439317883D-16,-1.5,-3.14159265358979,3.14159265358979,0.,     123P    146
0.,0.;                                                               123P    147
126,1,1,0,0,1,0,-10.2380952380952,-10.2380952380952,0.,0.,1.,1.,     125P    148
-2.1,0.,-21.5,-2.1,0.,0.,-10.2380952380952,0.,0.,0.,0.;              125P    149
126,8,2,0,1,0,0,-3.14159265358979,-3.14159265358979,                 127P    150
-3.14159265358979,-1.5707963267949,-1.5707963267949,0.,0.,           127P    151
1.5707963267949,1.5707963267949,3.14159265358979,                    127P    152
3.14159265358979,3.14159265358979,1.,0.707106781186547,1.,           127P    153
0.707106781186548,1.,0.707106781186548,1.,0.707106781186547,1.,      127P    154
-2.1,2.57175827820944D-16,0.,-2.1,2.1,0.,1.28587913910472D-16,       127P    155
2.1,0.,2.1,2.1,0.,2.1,0.,0.,2.1,-2.1,0.,1.28587913910472D-16,        127P    156
-2.1,0.,-2.1,-2.1,0.,-2.1,-2.57175827820944D-16,0.,                  127P    157
-3.14159265358979,3.14159265358979,0.,0.,0.;                         127P    158
126,8,2,0,1,0,0,-3.14159265358979,-3.14159265358979,                 129P    159
-3.14159265358979,-1.5707963267949,-1.5707963267949,0.,0.,           129P    160
1.5707963267949,1.5707963267949,3.14159265358979,                    129P    161
3.14159265358979,3.14159265358979,1.,0.707106781186548,1.,           129P    162
0.707106781186548,1.,0.707106781186548,1.,0.707106781186548,1.,      129P    163
-9.,1.10218211923262D-15,-1.5,-9.,9.,-1.5,5.51091059616309D-16,      129P    164
9.,-1.5,9.,9.,-1.5,9.,0.,-1.5,9.,-9.,-1.5,5.51091059616309D-16,      129P    165
-9.,-1.5,-9.,-9.,-1.5,-9.,-1.10218211923262D-15,-1.5,                129P    166
-3.14159265358979,3.14159265358979,0.,0.,0.;                         129P    167
126,1,1,0,0,1,0,-0.166666666666667,-0.166666666666667,0.,0.,1.,      131P    168
1.,-9.,0.,-1.5,-9.,0.,0.,-0.166666666666667,0.,0.,0.,0.;             131P    169
126,8,2,0,1,0,0,-3.14159265358979,-3.14159265358979,                 133P    170
-3.14159265358979,-1.5707963267949,-1.5707963267949,0.,0.,           133P    171
1.5707963267949,1.5707963267949,3.14159265358979,                    133P    172
3.14159265358979,3.14159265358979,1.,0.707106781186548,1.,           133P    173
0.707106781186548,1.,0.707106781186548,1.,0.707106781186548,1.,      133P    174
-9.,-1.10218211923262D-15,0.,-9.,-9.,0.,5.51091059616309D-16,        133P    175
-9.,0.,9.,-9.,0.,9.,0.,0.,9.,9.,0.,5.51091059616309D-16,9.,0.,       133P    176
-9.,9.,0.,-9.,1.10218211923262D-15,0.,-3.14159265358979,             133P    177
3.14159265358979,0.,0.,0.;                                           133P    178
128,1,1,1,1,0,0,1,0,0,-0.001,-0.001,0.393598183048946,               135P    179
0.393598183048946,-0.001,-0.001,1.601,1.601,1.,1.,1.,1.,             135P    180
3.93098183048946,0.00866025403784659,-5.49,1.95799091524473,         135P    181
-3.40866025403784,-5.49,3.93098183048946,0.00866025403784659,        135P    182
-21.51,1.95799091524473,-3.40866025403784,-21.51,-0.001,             135P    183
0.393598183048946,-0.001,1.601;                                      135P    184
128,1,1,1,1,0,0,1,0,0,-0.001,-0.001,0.393598183048946,               137P    185
0.393598183048946,-0.001,-0.001,1.601,1.601,1.,1.,1.,1.,             137P    186
1.95799091524473,3.40866025403785,-5.49,3.93098183048946,            137P    187
-0.00866025403784332,-5.49,1.95799091524473,3.40866025403785,        137P    188
-21.51,3.93098183048946,-0.00866025403784332,-21.51,-0.001,          137P    189
0.393598183048946,-0.001,1.601;                                      137P    190
128,1,1,1,1,0,0,1,0,0,-0.001,-0.001,0.393598183048946,               139P    191
0.393598183048946,-0.001,-0.001,1.601,1.601,1.,1.,1.,1.,             139P    192
-1.97299091524473,3.4,-5.49,1.97299091524473,3.4,-5.49,              139P    193
-1.97299091524473,3.4,-21.51,1.97299091524473,3.4,-21.51,-0.001,     139P    194
0.393598183048946,-0.001,1.601;                                      139P    195
128,1,1,1,1,0,0,1,0,0,-0.001,-0.001,0.393598183048946,               141P    196
0.393598183048946,-0.001,-0.001,1.601,1.601,1.,1.,1.,1.,             141P    197
-3.93098183048945,-0.00866025403784529,-5.49,-1.95799091524473,      141P    198
3.40866025403785,-5.49,-3.93098183048945,-0.00866025403784529,       141P    199
-21.51,-1.95799091524473,3.40866025403785,-21.51,-0.001,             141P    200
0.393598183048946,-0.001,1.601;                                      141P    201
128,1,1,1,1,0,0,1,0,0,-0.00100000000000003,-0.00100000000000003,     143P    202
0.393598183048945,0.393598183048945,-0.001,-0.001,1.601,1.601,       143P    203
1.,1.,1.,1.,-1.95799091524473,-3.40866025403785,-5.49,               143P    204
-3.93098183048945,0.00866025403784332,-5.49,-1.95799091524473,       143P    205
-3.40866025403785,-21.51,-3.93098183048946,0.00866025403784332,      143P    206
-21.51,-0.00100000000000003,0.393598183048945,-0.001,1.601;          143P    207
128,1,1,1,1,0,0,1,0,0,-0.001,-0.001,0.393598183048946,               145P    208
0.393598183048946,-0.001,-0.001,1.601,1.601,1.,1.,1.,1.,             145P    209
1.97299091524473,-3.4,-5.49,-1.97299091524473,-3.4,-5.49,            145P    210
1.97299091524473,-3.4,-21.51,-1.97299091524473,-3.4,-21.51,          145P    211
-0.001,0.393598183048946,-0.001,1.601;                               145P    212
128,1,1,1,1,0,0,1,0,0,-0.393598183048946,-0.393598183048946,         147P    213
0.393598183048946,0.393598183048946,-0.341,-0.341,0.341,0.341,       147P    214
1.,1.,1.,1.,-3.93598183048945,3.41,-21.5,3.93598183048946,3.41,      147P    215
-21.5,-3.93598183048945,-3.41,-21.5,3.93598183048946,-3.41,          147P    216
-21.5,-0.393598183048946,0.393598183048946,-0.341,0.341;             147P    217
128,1,8,1,2,0,1,0,0,1,0.,0.,0.583333333333333,0.583333333333333,     149P    218
-3.14159265358979,-3.14159265358979,-3.14159265358979,               149P    219
-1.5707963267949,-1.5707963267949,0.,0.,1.5707963267949,             149P    220
1.5707963267949,3.14159265358979,3.14159265358979,                   149P    221
3.14159265358979,1.,1.,0.707106781186548,0.707106781186548,1.,       149P    222
1.,0.707106781186548,0.707106781186548,1.,1.,0.707106781186548,      149P    223
0.707106781186548,1.,1.,0.707106781186548,0.707106781186548,1.,      149P    224
1.,-6.,0.,-5.5,-6.,0.,-2.,-6.,6.,-5.5,-6.,6.,-2.,0.,6.,-5.5,0.,      149P    225
6.,-2.,6.,6.,-5.5,6.,6.,-2.,6.,0.,-5.5,6.,0.,-2.,6.,-6.,-5.5,6.,     149P    226
-6.,-2.,0.,-6.,-5.5,0.,-6.,-2.,-6.,-6.,-5.5,-6.,-6.,-2.,-6.,0.,      149P    227
-5.5,-6.,0.,-2.,0.,0.583333333333333,-3.14159265358979,              149P    228
3.14159265358979;                                                    149P    229
128,1,1,1,1,0,0,1,0,0,-0.601,-0.601,0.601,0.601,-0.601,-0.601,       151P    230
0.601,0.601,1.,1.,1.,1.,-6.01,6.01,-5.5,6.01,6.01,-5.5,-6.01,        151P    231
-6.01,-5.5,6.01,-6.01,-5.5,-0.601,0.601,-0.601,0.601;                151P    232
128,1,8,1,2,0,1,0,0,1,0.,0.,0.0625,0.0625,-3.14159265358979,         153P    233
-3.14159265358979,-3.14159265358979,-1.5707963267949,                153P    234
-1.5707963267949,0.,0.,1.5707963267949,1.5707963267949,              153P    235
3.14159265358979,3.14159265358979,3.14159265358979,1.,1.,            153P    236
0.707106781186548,0.707106781186548,1.,1.,0.707106781186548,         153P    237
0.707106781186548,1.,1.,0.707106781186548,0.707106781186548,1.,      153P    238
1.,0.707106781186548,0.707106781186548,1.,1.,-8.,0.,-2.,-8.,0.,      153P    239
-1.5,-8.,8.,-2.,-8.,8.,-1.5,0.,8.,-2.,0.,8.,-1.5,8.,8.,-2.,8.,       153P    240
8.,-1.5,8.,0.,-2.,8.,0.,-1.5,8.,-8.,-2.,8.,-8.,-1.5,0.,-8.,-2.,      153P    241
0.,-8.,-1.5,-8.,-8.,-2.,-8.,-8.,-1.5,-8.,0.,-2.,-8.,0.,-1.5,0.,      153P    242
0.0625,-3.14159265358979,3.14159265358979;                           153P    243
128,1,1,1,1,0,0,1,0,0,-0.801,-0.801,0.801,0.801,-0.801,-0.801,       155P    244
0.801,0.801,1.,1.,1.,1.,-8.01,8.01,-2.,8.01,8.01,-2.,-8.01,          155P    245
-8.01,-2.,8.01,-8.01,-2.,-0.801,0.801,-0.801,0.801;                  155P    246
128,1,8,1,2,0,1,0,0,1,0.,0.,10.2380952380952,10.2380952380952,       157P    247
-3.14159265358979,-3.14159265358979,-3.14159265358979,               157P    248
-1.5707963267949,-1.5707963267949,0.,0.,1.5707963267949,             157P    249
1.5707963267949,3.14159265358979,3.14159265358979,                   157P    250
3.14159265358979,1.,1.,0.707106781186548,0.707106781186548,1.,       157P    251
1.,0.707106781186548,0.707106781186548,1.,1.,0.707106781186548,      157P    252
0.707106781186548,1.,1.,0.707106781186548,0.707106781186548,1.,      157P    253
1.,-2.1,0.,0.,-2.1,0.,-21.5,-2.1,2.1,0.,-2.1,2.1,-21.5,0.,2.1,       157P    254
0.,0.,2.1,-21.5,2.1,2.1,0.,2.1,2.1,-21.5,2.1,0.,0.,2.1,0.,-21.5,     157P    255
2.1,-2.1,0.,2.1,-2.1,-21.5,0.,-2.1,0.,0.,-2.1,-21.5,-2.1,-2.1,       157P    256
0.,-2.1,-2.1,-21.5,-2.1,0.,0.,-2.1,0.,-21.5,0.,10.2380952380952,     157P    257
-3.14159265358979,3.14159265358979;                                  157P    258
128,1,8,1,2,0,1,0,0,1,0.,0.,0.166666666666667,0.166666666666667,     159P    259
-3.14159265358979,-3.14159265358979,-3.14159265358979,               159P    260
-1.5707963267949,-1.5707963267949,0.,0.,1.5707963267949,             159P    261
1.5707963267949,3.14159265358979,3.14159265358979,                   159P    262
3.14159265358979,1.,1.,0.707106781186548,0.707106781186548,1.,       159P    263
1.,0.707106781186548,0.707106781186548,1.,1.,0.707106781186548,      159P    264
0.707106781186548,1.,1.,0.707106781186548,0.707106781186548,1.,      159P    265
1.,-9.,0.,-1.5,-9.,0.,0.,-9.,9.,-1.5,-9.,9.,0.,0.,9.,-1.5,0.,9.,     159P    266
0.,9.,9.,-1.5,9.,9.,0.,9.,0.,-1.5,9.,0.,0.,9.,-9.,-1.5,9.,-9.,       159P    267
0.,0.,-9.,-1.5,0.,-9.,0.,-9.,-9.,-1.5,-9.,-9.,0.,-9.,0.,-1.5,        159P    268
-9.,0.,0.,0.,0.166666666666667,-3.14159265358979,                    159P    269
3.14159265358979;                                                    159P    270
128,1,1,1,1,0,0,1,0,0,-0.901,-0.901,0.901,0.901,-0.901,-0.901,       161P    271
0.901,0.901,1.,1.,1.,1.,-9.01,-9.01,0.,9.01,-9.01,0.,-9.01,9.01,     161P    272
0.,9.01,9.01,0.,-0.901,0.901,-0.901,0.901;                           161P    273
128,1,1,1,1,0,0,1,0,0,-0.901,-0.901,0.901,0.901,-0.901,-0.901,       163P    274
0.901,0.901,1.,1.,1.,1.,9.01,-9.01,-1.5,-9.01,-9.01,-1.5,9.01,       163P    275
9.01,-1.5,-9.01,9.01,-1.5,-0.901,0.901,-0.901,0.901;                 163P    276
502,20,1.96299091524473,-3.4,-5.5,3.92598183048946,                  165P    277
2.18141477104083D-15,-5.5,1.96299091524473,-3.4,-21.5,               165P    278
3.92598183048946,2.18141477104083D-15,-21.5,1.96299091524473,        165P    279
3.4,-5.5,1.96299091524473,3.4,-21.5,-1.96299091524473,3.4,-5.5,      165P    280
-1.96299091524473,3.4,-21.5,-3.92598183048945,                       165P    281
-8.95550994473027D-16,-5.5,-3.92598183048945,                        165P    282
-8.95550994473027D-16,-21.5,-1.96299091524473,-3.4,-5.5,             165P    283
-1.96299091524473,-3.4,-21.5,-2.1,2.57175827820944D-16,-21.5,        165P    284
-6.,7.34788079488412D-16,-5.5,-6.,7.34788079488412D-16,-2.,-8.,      165P    285
9.79717439317883D-16,-2.,-8.,9.79717439317883D-16,-1.5,-2.1,         165P    286
-2.57175827820944D-16,0.,-9.,-1.10218211923262D-15,-1.5,-9.,         165P    287
-1.10218211923262D-15,0.;                                            165P    288
504,30,75,165,1,165,2,77,165,1,165,3,79,165,4,165,3,81,165,2,        167P    289
165,4,83,165,2,165,5,85,165,6,165,4,87,165,5,165,6,89,165,5,165,     167P    290
7,91,165,8,165,6,93,165,7,165,8,95,165,7,165,9,97,165,10,165,8,      167P    291
99,165,9,165,10,101,165,9,165,11,103,165,12,165,10,105,165,11,       167P    292
165,12,107,165,11,165,1,109,165,3,165,12,111,165,13,165,13,113,      167P    293
165,14,165,14,115,165,14,165,15,117,165,15,165,15,119,165,16,        167P    294
165,16,121,165,16,165,17,123,165,17,165,17,125,165,13,165,18,        167P    295
127,165,18,165,18,129,165,19,165,19,131,165,19,165,20,133,165,       167P    296
20,165,20;                                                           167P    297
406,1,4HAxe3;                                                        169P    298
314,76.8627450980392,20.7843137254902,15.2941176470588,27HPaint      171P    299
- Enamel Glossy (Red);                                               171P    300
314,62.7450980392157,62.7450980392157,62.7450980392157,13HSteel      173P    301
- Satin;                                                             173P    302
S      1G      3D    174P    302                                        T      1
