                                                                        S      1
,,14HCale Nema14 v6,14HCale Nema14 v6,7Hunknown,7Hunknown,32,38,7,99,15,G      1
,1.,2,2HMM,1,0.08,15H20201205.175843,0.01,10000.,7Hunknown,7Hunknown,11,G      2
0,15H20191218.115737;                                                   G      3
     186       1                                                00000000D      1
     186            -211       1       0                               0D      2
     514       2                                                00010000D      3
     514                       2       1                               0D      4
     510       4                                                00010000D      5
     510            -211       1       1                               0D      6
     510       5                                                00010000D      7
     510            -211       1       1                               0D      8
     510       6                                                00010000D      9
     510            -211       1       1                               0D     10
     510       7                                                00010000D     11
     510            -211       1       1                               0D     12
     510       8                                                00010000D     13
     510            -211       1       1                               0D     14
     510       9                                                00010000D     15
     510            -211       1       1                               0D     16
     510      10                                                00010000D     17
     510            -211       1       1                               0D     18
     510      11                                                00010000D     19
     510            -211       1       1                               0D     20
     510      12                                                00010000D     21
     510            -211       1       1                               0D     22
     510      13                                                00010000D     23
     510            -211       1       1                               0D     24
     510      14                                                00010000D     25
     510            -211       1       1                               0D     26
     510      15                                                00010000D     27
     510            -211       1       1                               0D     28
     510      16                                                00010000D     29
     510            -211       1       1                               0D     30
     510      17                                                00010000D     31
     510            -211       1       1                               0D     32
     510      18                                                00010000D     33
     510            -211       1       1                               0D     34
     510      19                                                00010000D     35
     510            -211       1       1                               0D     36
     510      20                                                00010000D     37
     510            -211       1       1                               0D     38
     510      21                                                00010000D     39
     510            -211       1       1                               0D     40
     508      22                                                00010000D     41
     508                       1       1                               0D     42
     508      23                                                00010000D     43
     508                       1       1                               0D     44
     508      24                                                00010000D     45
     508                       3       1                               0D     46
     508      27                                                00010000D     47
     508                       2       1                               0D     48
     508      29                                                00010000D     49
     508                       1       1                               0D     50
     508      30                                                00010000D     51
     508                       1       1                               0D     52
     508      31                                                00010000D     53
     508                       1       1                               0D     54
     508      32                                                00010000D     55
     508                       1       1                               0D     56
     508      33                                                00010000D     57
     508                       1       1                               0D     58
     508      34                                                00010000D     59
     508                       2       1                               0D     60
     508      36                                                00010000D     61
     508                       1       1                               0D     62
     508      37                                                00010000D     63
     508                       2       1                               0D     64
     508      39                                                00010000D     65
     508                       2       1                               0D     66
     508      41                                                00010000D     67
     508                       1       1                               0D     68
     508      42                                                00010000D     69
     508                       1       1                               0D     70
     508      43                                                00010000D     71
     508                       2       1                               0D     72
     508      45                                                00010000D     73
     508                       2       1                               0D     74
     508      47                                                00010000D     75
     508                       1       1                               0D     76
     126      48                                                00010000D     77
     126       0               4       0                               0D     78
     126      52                                                00010000D     79
     126       0               4       0                               0D     80
     126      56                                                00010000D     81
     126       0               4       0                               0D     82
     126      60                                                00010000D     83
     126       0               3       0                               0D     84
     126      63                                                00010000D     85
     126       0               3       0                               0D     86
     126      66                                                00010000D     87
     126       0               4       0                               0D     88
     126      70                                                00010000D     89
     126       0               4       0                               0D     90
     126      74                                                00010000D     91
     126       0               4       0                               0D     92
     126      78                                                00010000D     93
     126       0               3       0                               0D     94
     126      81                                                00010000D     95
     126       0               3       0                               0D     96
     126      84                                                00010000D     97
     126       0               3       0                               0D     98
     126      87                                                00010000D     99
     126       0               3       0                               0D    100
     126      90                                                00010000D    101
     126       0               4       0                               0D    102
     126      94                                                00010000D    103
     126       0               4       0                               0D    104
     126      98                                                00010000D    105
     126       0               2       0                               0D    106
     126     100                                                00010000D    107
     126       0               4       0                               0D    108
     126     104                                                00010000D    109
     126       0               3       0                               0D    110
     126     107                                                00010000D    111
     126       0               4       0                               0D    112
     126     111                                                00010000D    113
     126       0               3       0                               0D    114
     126     114                                                00010000D    115
     126       0               3       0                               0D    116
     126     117                                                00010000D    117
     126       0               3       0                               0D    118
     126     120                                                00010000D    119
     126       0               3       0                               0D    120
     126     123                                                00010000D    121
     126       0               4       0                               0D    122
     126     127                                                00010000D    123
     126       0               3       0                               0D    124
     126     130                                                00010000D    125
     126       0               4       0                               0D    126
     126     134                                                00010000D    127
     126       0               3       0                               0D    128
     126     137                                                00010000D    129
     126       0               4       0                               0D    130
     126     141                                                00010000D    131
     126       0               4       0                               0D    132
     126     145                                                00010000D    133
     126       0               3       0                               0D    134
     126     148                                                00010000D    135
     126       0               3       0                               0D    136
     126     151                                                00010000D    137
     126       0               3       0                               0D    138
     126     154                                                00010000D    139
     126       0               3       0                               0D    140
     126     157                                                00010000D    141
     126       0               3       0                               0D    142
     126     160                                                00010000D    143
     126       0               3       0                               0D    144
     126     163                                                00010000D    145
     126       0               3       0                               0D    146
     126     166                                                00010000D    147
     126       0               2       0                               0D    148
     126     168                                                00010000D    149
     126       0               3       0                               0D    150
     126     171                                                00010000D    151
     126       0               3       0                               0D    152
     126     174                                                00010000D    153
     126       0               3       0                               0D    154
     126     177                                                00010000D    155
     126       0               3       0                               0D    156
     126     180                                                00010000D    157
     126       0               3       0                               0D    158
     126     183                                                00010000D    159
     126       0               3       0                               0D    160
     126     186                                                00010000D    161
     126       0               3       0                               0D    162
     126     189                                                00010000D    163
     126       0               2       0                               0D    164
     126     191                                                00010000D    165
     126       0               2       0                               0D    166
     126     193                                                00010000D    167
     126       0               3       0                               0D    168
     128     196                                                00010000D    169
     128       0    -211       5       0                               0D    170
     128     201                                                00010000D    171
     128       0    -211       5       0                               0D    172
     128     206                                                00010000D    173
     128       0    -211       5       0                               0D    174
     128     211                                                00010000D    175
     128       0    -211       6       0                               0D    176
     128     217                                                00010000D    177
     128       0    -211       6       0                               0D    178
     128     223                                                00010000D    179
     128       0    -211       7       0                               0D    180
     128     230                                                00010000D    181
     128       0    -211       7       0                               0D    182
     128     237                                                00010000D    183
     128       0    -211       6       0                               0D    184
     128     243                                                00010000D    185
     128       0    -211       6       0                               0D    186
     128     249                                                00010000D    187
     128       0    -211       6       0                               0D    188
     128     255                                                00010000D    189
     128       0    -211       6       0                               0D    190
     128     261                                                00010000D    191
     128       0    -211       7       0                               0D    192
     128     268                                                00010000D    193
     128       0    -211       6       0                               0D    194
     128     274                                                00010000D    195
     128       0    -211       6       0                               0D    196
     128     280                                                00010000D    197
     128       0    -211       5       0                               0D    198
     128     285                                                00010000D    199
     128       0    -211       6       0                               0D    200
     128     291                                                00010000D    201
     128       0    -211       7       0                               0D    202
     128     298                                                00010000D    203
     128       0    -211       6       0                               0D    204
     502     304                                                00010000D    205
     502                      19       1                               0D    206
     504     323                                                00010001D    207
     504                      13       1                               0D    208
     406     336                                                00000000D    209
     406                       1      15                               0D    210
     314     337                                                00000200D    211
     314                       2       0                               0D    212
     314     339                                                00000200D    213
     314                       2       0                               0D    214
186,3,1,0,0,1,209;                                                     1P      1
514,18,5,1,7,1,9,1,11,1,13,1,15,1,17,1,19,1,21,1,23,1,25,1,27,1,       3P      2
29,1,31,1,33,1,35,1,37,1,39,1;                                         3P      3
510,169,1,1,41;                                                        5P      4
510,171,1,1,43;                                                        7P      5
510,173,1,1,45;                                                        9P      6
510,175,1,1,47;                                                       11P      7
510,177,1,1,49;                                                       13P      8
510,179,1,1,51;                                                       15P      9
510,181,1,1,53;                                                       17P     10
510,183,1,1,55;                                                       19P     11
510,185,1,1,57;                                                       21P     12
510,187,1,1,59;                                                       23P     13
510,189,1,1,61;                                                       25P     14
510,191,1,1,63;                                                       27P     15
510,193,1,1,65;                                                       29P     16
510,195,1,1,67;                                                       31P     17
510,197,1,1,69;                                                       33P     18
510,199,1,1,71;                                                       35P     19
510,201,1,1,73;                                                       37P     20
510,203,1,1,75;                                                       39P     21
508,4,0,207,1,0,0,0,207,2,0,0,0,207,3,0,0,0,207,4,0,0;                41P     22
508,4,0,207,5,0,0,0,207,6,0,0,0,207,7,0,0,0,207,8,0,0;                43P     23
508,12,0,207,1,1,0,0,207,9,1,0,0,207,10,0,0,0,207,11,0,0,0,207,       45P     24
12,1,0,0,207,13,1,0,0,207,5,1,0,0,207,14,0,0,0,207,15,0,0,0,207,      45P     25
16,0,0,0,207,17,1,0,0,207,18,0,0;                                     45P     26
508,6,0,207,8,1,0,0,207,19,1,0,0,207,20,1,0,0,207,21,1,0,0,207,       47P     27
22,1,0,0,207,14,1,0;                                                  47P     28
508,4,0,207,7,1,0,0,207,23,0,0,0,207,24,1,0,0,207,19,0,0;             49P     29
508,4,0,207,6,1,0,0,207,13,0,0,0,207,25,0,0,0,207,23,1,0;             51P     30
508,4,0,207,4,1,0,0,207,26,1,0,0,207,27,0,0,0,207,9,0,0;              53P     31
508,4,0,207,3,1,0,0,207,28,0,0,0,207,29,0,0,0,207,26,0,0;             55P     32
508,4,0,207,27,1,0,0,207,30,0,0,0,207,31,0,0,0,207,10,1,0;            57P     33
508,5,0,207,32,0,0,0,207,30,1,0,0,207,29,1,0,0,207,33,0,0,0,207,      59P     34
34,0,0;                                                               59P     35
508,4,0,207,35,1,0,0,207,36,1,0,0,207,37,0,0,0,207,17,0,0;            61P     36
508,6,0,207,2,1,0,0,207,18,1,0,0,207,37,1,0,0,207,38,1,0,0,207,       63P     37
33,1,0,0,207,28,1,0;                                                  63P     38
508,5,0,207,39,0,0,0,207,40,1,0,0,207,20,0,0,0,207,24,0,0,0,207,      65P     39
41,0,0;                                                               65P     40
508,4,0,207,25,1,0,0,207,12,0,0,0,207,42,0,0,0,207,41,1,0;            67P     41
508,4,0,207,43,1,0,0,207,15,1,0,0,207,22,0,0,0,207,44,0,0;            69P     42
508,8,0,207,45,1,0,0,207,44,1,0,0,207,21,0,0,0,207,40,0,0,0,207,      71P     43
46,0,0,0,207,34,1,0,0,207,38,0,0,0,207,36,0,0;                        71P     44
508,6,0,207,46,1,0,0,207,39,1,0,0,207,42,1,0,0,207,11,1,0,0,207,      73P     45
31,1,0,0,207,32,1,0;                                                  73P     46
508,4,0,207,45,0,0,0,207,35,0,0,0,207,16,1,0,0,207,43,0,0;            75P     47
126,1,1,0,0,1,0,-1.43,-1.43,-0.570000000000002,                       77P     48
-0.570000000000002,1.,1.,-17.0999999999999,22.0000000000004,20.,      77P     49
-17.0999999999999,22.0000000000004,11.4,-1.43,                        77P     50
-0.570000000000002,0.,0.,0.;                                          77P     51
126,1,1,0,0,1,0,2.1094237467878D-14,2.1094237467878D-14,              79P     52
1.09999999999999,1.09999999999999,1.,1.,-17.1,11.0000000000007,       79P     53
20.,-17.0999999999999,22.0000000000004,20.,2.1094237467878D-14,       79P     54
1.09999999999999,0.,0.,0.;                                            79P     55
126,1,1,0,0,1,0,-0.214999999999999,-0.214999999999999,                81P     56
0.645000000000001,0.645000000000001,1.,1.,-17.1,                      81P     57
11.0000000000007,11.4,-17.1,11.0000000000007,20.,                     81P     58
-0.214999999999999,0.645000000000001,0.,0.,0.;                        81P     59
126,1,1,0,0,1,0,-1.1,-1.1,0.,0.,1.,1.,-17.0999999999999,              83P     60
22.0000000000007,11.4,-17.1,11.0000000000007,11.4,-1.1,0.,0.,0.,      83P     61
0.;                                                                   83P     62
126,1,1,0,0,1,0,0.14,0.14,1.,1.,1.,1.,17.1000000000002,               85P     63
22.0000000000017,11.4,17.1000000000002,22.0000000000017,20.,          85P     64
0.14,1.,0.,0.,0.;                                                     85P     65
126,1,1,0,0,1,0,-2.97452717361177D-30,-2.97452717361177D-30,          87P     66
1.10000000000015,1.10000000000015,1.,1.,17.1,11.0000000000003,        87P     67
11.4,17.1000000000002,22.0000000000017,11.4,                          87P     68
-2.97452717361177D-30,1.10000000000015,0.,0.,0.;                      87P     69
126,1,1,0,0,1,0,-0.214999999999999,-0.214999999999999,                89P     70
0.645000000000001,0.645000000000001,1.,1.,17.1,11.0000000000003,      89P     71
20.,17.1,11.0000000000003,11.4,-0.214999999999999,                    89P     72
0.645000000000001,0.,0.,0.;                                           89P     73
126,1,1,0,0,1,0,-1.10000000000017,-1.10000000000017,                  91P     74
-2.1316282072803D-14,-2.1316282072803D-14,1.,1.,                      91P     75
17.1000000000002,22.0000000000017,20.,17.1,11.0000000000003,20.,      91P     76
-1.10000000000017,-2.1316282072803D-14,0.,0.,0.;                      91P     77
126,1,1,0,0,1,0,4.41,4.41,5.01778990702662,5.01778990702662,1.,       93P     78
1.,-17.0999999999999,22.0000000000007,11.4,-23.177899070266,          93P     79
22.0000000000008,11.4,4.41,5.01778990702662,0.,0.,0.;                 93P     80
126,1,1,0,0,1,0,0.3,0.3,1.14,1.14,1.,1.,-23.1778990702661,            95P     81
22.0000000000002,3.,-23.1778990702661,22.0000000000002,11.4,0.3,      95P     82
1.14,0.,0.,0.;                                                        95P     83
126,1,1,0,0,1,0,-4.63557981405322,-4.63557981405322,0.,0.,1.,1.,      97P     84
23.1778990702661,22.000000000002,3.,-23.1778990702661,                97P     85
22.0000000000002,3.,-4.63557981405322,0.,0.,0.,0.;                    97P     86
126,1,1,0,0,1,0,0.3,0.3,1.14,1.14,1.,1.,23.1778990702661,             99P     87
22.000000000002,3.,23.1778990702661,22.000000000002,11.4,0.3,         99P     88
1.14,0.,0.,0.;                                                        99P     89
126,1,1,0,0,1,0,0.382210092973391,0.382210092973391,                 101P     90
0.990000000000001,0.990000000000001,1.,1.,23.1778990702663,          101P     91
22.0000000000002,11.4,17.1000000000002,22.0000000000002,11.4,        101P     92
0.382210092973391,0.990000000000001,0.,0.,0.;                        101P     93
126,1,1,0,0,1,0,-5.01778990702661,-5.01778990702661,                 103P     94
-4.02778990702662,-4.02778990702662,1.,1.,27.,21.999999999992,       103P     95
20.,17.1000000000001,21.9999999999936,20.,-5.01778990702661,         103P     96
-4.02778990702662,0.,0.,0.;                                          103P     97
126,1,1,0,0,1,0,0.,0.,2.,2.,1.,1.,27.,22.000000000002,0.,27.,        105P     98
22.000000000002,20.,0.,2.,0.,0.,0.;                                  105P     99
126,1,1,0,0,1,0,-5.01778990702625,-5.01778990702625,                 107P    100
0.382210092973393,0.382210092973393,1.,1.,-26.9999999999964,         107P    101
22.000000000002,0.,27.,22.000000000002,0.,-5.01778990702625,         107P    102
0.382210092973393,0.,0.,0.;                                          107P    103
126,1,1,0,0,1,0,0.,0.,2.,2.,1.,1.,-26.9999999999964,                 109P    104
22.0000000000008,0.,-26.9999999999964,22.0000000000008,20.,0.,       109P    105
2.,0.,0.,0.;                                                         109P    106
126,1,1,0,0,1,0,-0.607789907026622,-0.607789907026622,               111P    107
0.382210092973035,0.382210092973035,1.,1.,-17.0999999999999,         111P    108
21.9999999999992,20.,-26.9999999999964,22.0000000000008,20.,         111P    109
-0.607789907026622,0.382210092973035,0.,0.,0.;                       111P    110
126,1,1,0,0,1,0,4.41,4.41,5.11505852951807,5.11505852951807,1.,      113P    111
1.,17.1,11.0000000000003,20.,24.1505852951807,11.0000000000002,      113P    112
20.,4.41,5.11505852951807,0.,0.,0.;                                  113P    113
126,1,1,0,0,1,0,-1.1,-1.1,0.,0.,1.,1.,24.1505852951804,              115P    114
11.0000000000002,20.,24.1505852951807,1.58206781009085D-13,20.,      115P    115
-1.1,0.,0.,0.,0.;                                                    115P    116
126,1,1,0,0,1,0,0.0150585295180647,0.0150585295180647,0.3,0.3,       117P    117
1.,1.,24.1505852951807,-1.10837888662774D-14,20.,27.,                117P    118
-1.07348362065074D-14,20.,0.0150585295180647,0.3,0.,0.,0.;           117P    119
126,1,1,0,0,1,0,0.,0.,2.2000000000002,2.2000000000002,1.,1.,27.,     119P    120
-1.07348362065074D-14,20.,27.,22.000000000002,20.,0.,                119P    121
2.2000000000002,0.,0.,0.;                                            119P    122
126,1,1,0,0,1,0,0.284941470481936,0.284941470481936,                 121P    123
0.990000000000001,0.990000000000001,1.,1.,24.1505852951807,          121P    124
11.0000000000002,11.4,17.1,11.0000000000003,11.4,                    121P    125
0.284941470481936,0.990000000000001,0.,0.,0.;                        121P    126
126,1,1,0,0,1,0,1.14,1.14,2.,2.,1.,1.,24.1505852951804,              123P    127
11.0000000000002,11.4,24.1505852951804,11.0000000000002,20.,         123P    128
1.14,2.,0.,0.,0.;                                                    123P    129
126,1,1,0,0,1,0,-0.55214608232826,-0.55214608232826,                 125P    130
0.552146082328079,0.552146082328079,1.,1.,24.1505852951804,          125P    131
11.0000000000001,11.4,23.1778990702663,22.0000000000002,11.4,        125P    132
-0.55214608232826,0.552146082328079,0.,0.,0.;                        125P    133
126,1,1,0,0,1,0,4.41,4.41,5.11505852951806,5.11505852951806,1.,      127P    134
1.,-17.1,11.0000000000007,11.4,-24.1505852951805,                    127P    135
11.0000000000008,11.4,4.41,5.11505852951806,0.,0.,0.;                127P    136
126,1,1,0,0,1,0,-0.891568191851995,-0.891568191851995,               129P    137
0.212723972804344,0.212723972804344,1.,1.,-23.177899070266,          129P    138
22.0000000000008,11.4,-24.1505852951805,11.0000000000008,11.4,       129P    139
-0.891568191851995,0.212723972804344,0.,0.,0.;                       129P    140
126,1,1,0,0,1,0,0.284941470481949,0.284941470481949,                 131P    141
0.990000000000001,0.990000000000001,1.,1.,-24.1505852951805,         131P    142
11.0000000000008,20.,-17.1,11.0000000000007,20.,                     131P    143
0.284941470481949,0.990000000000001,0.,0.,0.;                        131P    144
126,1,1,0,0,1,0,1.14,1.14,2.,2.,1.,1.,-24.1505852951805,             133P    145
11.0000000000008,11.4,-24.1505852951805,11.0000000000008,20.,        133P    146
1.14,2.,0.,0.,0.;                                                    133P    147
126,1,1,0,0,1,0,0.3,0.3,1.14,1.14,1.,1.,-24.1505852951805,           135P    148
11.0000000000008,3.,-24.1505852951805,11.0000000000008,11.4,0.3,     135P    149
1.14,0.,0.,0.;                                                       135P    150
126,1,1,0,0,1,0,0.,0.,1.10429216465627,1.10429216465627,1.,1.,       137P    151
-23.1778990702661,22.0000000000002,3.,-24.1505852951805,             137P    152
11.0000000000008,3.,0.,1.10429216465627,0.,0.,0.;                    137P    153
126,1,1,0,0,1,0,-1.1,-1.1,0.,0.,1.,1.,-24.1505852951805,             139P    154
11.0000000000008,3.,-24.1505852951805,8.02682056507726D-13,3.,       139P    155
-1.1,0.,0.,0.,0.;                                                    139P    156
126,1,1,0,0,1,0,0.,0.,1.1,1.1,1.,1.,-24.1505852951805,               141P    157
8.02682056507726D-13,20.,-24.1505852951805,11.0000000000008,20.,     141P    158
0.,1.1,0.,0.,0.;                                                     141P    159
126,1,1,0,0,1,0,0.3,0.3,2.,2.,1.,1.,-24.1505852951805,               143P    160
1.11022302462516D-14,3.,-24.1505852951805,1.11022302462516D-14,      143P    161
20.,0.3,2.,0.,0.,0.;                                                 143P    162
126,1,1,0,0,1,0,0.,0.,2.20000000000008,2.20000000000008,1.,1.,       145P    163
-26.9999999999964,22.0000000000008,0.,-27.,1.33226762955019D-14,     145P    164
0.,0.,2.20000000000008,0.,0.,0.;                                     145P    165
126,1,1,0,0,1,0,0.,0.,2.,2.,1.,1.,-27.,1.11022302462516D-14,0.,      147P    166
-27.,1.11022302462516D-14,20.,0.,2.,0.,0.,0.;                        147P    167
126,1,1,0,0,1,0,0.,0.,2.20000000000008,2.20000000000008,1.,1.,       149P    168
-26.9999999999964,22.0000000000008,20.,-27.,                         149P    169
1.33226762955019D-14,20.,0.,2.20000000000008,0.,0.,0.;               149P    170
126,1,1,0,0,1,0,0.,0.,0.284941470481949,0.284941470481949,1.,1.,     151P    171
-27.,1.11022302462516D-14,20.,-24.1505852951805,                     151P    172
1.11022302462516D-14,20.,0.,0.284941470481949,0.,0.,0.;              151P    173
126,1,1,0,0,1,0,0.,0.,1.1,1.1,1.,1.,24.1505852951807,                153P    174
1.58206781009085D-13,3.,24.1505852951804,11.0000000000002,3.,0.,     153P    175
1.1,0.,0.,0.;                                                        153P    176
126,1,1,0,0,1,0,0.3,0.3,2.,2.,1.,1.,24.1505852951807,                155P    177
-1.10837888662774D-14,3.,24.1505852951807,-1.10837888662774D-14,     155P    178
20.,0.3,2.,0.,0.,0.;                                                 155P    179
126,1,1,0,0,1,0,0.3,0.3,1.14,1.14,1.,1.,24.1505852951804,            157P    180
11.0000000000002,3.,24.1505852951804,11.0000000000002,11.4,0.3,      157P    181
1.14,0.,0.,0.;                                                       157P    182
126,1,1,0,0,1,0,0.,0.,1.10429216465652,1.10429216465652,1.,1.,       159P    183
24.1505852951804,11.0000000000002,3.,23.1778990702661,               159P    184
22.000000000002,3.,0.,1.10429216465652,0.,0.,0.;                     159P    185
126,1,1,0,0,1,0,0.,0.,2.2000000000002,2.2000000000002,1.,1.,27.,     161P    186
-1.07348362065074D-14,0.,27.,22.000000000002,0.,0.,                  161P    187
2.2000000000002,0.,0.,0.;                                            161P    188
126,1,1,0,0,1,0,0.,0.,2.,2.,1.,1.,27.,-1.07348362065074D-14,0.,      163P    189
27.,-1.07348362065074D-14,20.,0.,2.,0.,0.,0.;                        163P    190
126,1,1,0,0,1,0,0.,0.,5.4,5.4,1.,1.,-27.,1.11022302462516D-14,       165P    191
0.,27.,1.11022302462516D-14,0.,0.,5.4,0.,0.,0.;                      165P    192
126,1,1,0,0,1,0,0.,0.,4.83011705903612,4.83011705903612,1.,1.,       167P    193
-24.1505852951805,8.02682056507726D-13,3.,24.1505852951807,          167P    194
1.58206781009085D-13,3.,0.,4.83011705903612,0.,0.,0.;                167P    195
128,1,1,1,1,0,0,1,0,0,-0.001,-0.001,0.861,0.861,-0.001,-0.001,       169P    196
1.101,1.101,1.,1.,1.,1.,-17.1,10.9900000000007,20.01,-17.1,          169P    197
10.9900000000007,11.39,-17.0999999999999,22.0100000000007,20.01,     169P    198
-17.0999999999999,22.0100000000007,11.39,-0.001,0.861,-0.001,        169P    199
1.101;                                                               169P    200
128,1,1,1,1,0,0,1,0,0,-0.001,-0.001,0.861,0.861,-0.001,-0.001,       171P    201
1.10100000000015,1.10100000000015,1.,1.,1.,1.,17.1,                  171P    202
10.9900000000003,11.39,17.1,10.9900000000003,20.01,                  171P    203
17.1000000000002,22.0100000000017,11.39,17.1000000000001,            171P    204
22.0100000000017,20.01,-0.001,0.861,-0.001,1.10100000000015;         171P    205
128,1,1,1,1,0,0,1,0,0,-0.383210092973393,-0.383210092973393,         173P    206
5.01878990702625,5.01878990702625,-0.001,-0.001,2.001,2.001,1.,      173P    207
1.,1.,1.,27.01,22.0000000000021,-0.01,-27.0099999999964,22.,         173P    208
-0.01,27.01,22.0000000000021,20.01,-27.0099999999964,22.,20.01,      173P    209
-0.383210092973393,5.01878990702625,-0.001,2.001;                    173P    210
128,1,1,1,1,0,0,1,0,0,4.21789495351331,4.21789495351331,             175P    211
5.20989495351331,5.20989495351331,-1.10100000000004,                 175P    212
-1.10100000000004,1.10100000000016,1.10100000000016,1.,1.,1.,1.,     175P    213
17.09,-0.01000000000001,20.,27.01,-0.01000000000001,20.,17.09,       175P    214
22.010000000002,20.,27.01,22.010000000002,20.,4.21789495351331,      175P    215
5.20989495351331,-1.10100000000004,1.10100000000016;                 175P    216
128,1,1,1,1,0,0,1,0,0,1.70899999999999,1.70899999999999,             177P    217
2.41605852951806,2.41605852951806,-0.431,-0.431,0.431,0.431,1.,      177P    218
1.,1.,1.,17.09,11.0000000000003,11.39,24.1605852951807,              177P    219
11.0000000000002,11.39,17.09,11.0000000000003,20.01,                 177P    220
24.1605852951807,11.0000000000002,20.01,1.70899999999999,            177P    221
2.41605852951806,-0.431,0.431;                                       177P    222
128,1,1,1,1,0,0,1,0,0,-0.001,-0.001,0.706058529518065,               179P    223
0.706058529518065,-0.001000000000002,-0.001000000000002,             179P    224
1.10100000000015,1.10100000000015,1.,1.,1.,1.,24.1605852951807,      179P    225
10.9900000000001,11.4,17.09,10.9900000000002,11.4,                   179P    226
24.1605852951808,22.0100000000016,11.4,17.0900000000002,             179P    227
22.0100000000017,11.4,-0.001,0.706058529518065,                      179P    228
-0.001000000000002,1.10100000000015;                                 179P    229
128,1,1,1,1,0,0,1,0,0,4.12405852951807,4.12405852951807,             181P    230
4.83111705903612,4.83111705903612,-0.0010000000000005,               181P    231
-0.0010000000000005,1.101,1.101,1.,1.,1.,1.,-17.09,                  181P    232
10.9900000000007,11.4,-24.1605852951805,10.9900000000008,11.4,       181P    233
-17.0899999999999,22.0100000000007,11.4,-24.1605852951804,           181P    234
22.0100000000008,11.4,4.12405852951807,4.83111705903612,             181P    235
-0.0010000000000005,1.101;                                           181P    236
128,1,1,1,1,0,0,1,0,0,-2.41605852951806,-2.41605852951806,           183P    237
-1.70900000000001,-1.70900000000001,-0.431,-0.431,0.431,0.431,       183P    238
1.,1.,1.,1.,-24.1605852951805,11.0000000000008,11.39,-17.09,         183P    239
11.0000000000007,11.39,-24.1605852951805,11.0000000000008,20.01,     183P    240
-17.09,11.0000000000007,20.01,-2.41605852951806,                     183P    241
-1.70900000000001,-0.431,0.431;                                      183P    242
128,1,1,1,1,0,0,1,0,0,-0.00100000000000067,-0.00100000000000067,     185P    243
1.10529216465634,1.10529216465634,0.299,0.299,1.141,1.141,1.,1.,     185P    244
1.,1.,-24.1514661184409,10.9900388680177,2.99,-23.1770182470056,     185P    245
22.0099611319839,2.99,-24.1514661184409,10.9900388680177,11.41,      185P    246
-23.1770182470056,22.0099611319839,11.41,-0.00100000000000067,       185P    247
1.10529216465634,0.299,1.141;                                        185P    248
128,1,1,1,1,0,0,1,0,0,-0.00100000000007916,-0.00100000000007916,     187P    249
1.101,1.101,0.299,0.299,2.001,2.001,1.,1.,1.,1.,                     187P    250
-24.1505852951805,-0.0099999999999889,2.99,-24.1505852951805,        187P    251
11.0100000000008,2.99,-24.1505852951805,-0.0099999999999889,         187P    252
20.01,-24.1505852951805,11.0100000000008,20.01,                      187P    253
-0.00100000000007916,1.101,0.299,2.001;                              187P    254
128,1,1,1,1,0,0,1,0,0,-0.001,-0.001,2.20100000000008,                189P    255
2.20100000000008,-0.001,-0.001,2.001,2.001,1.,1.,1.,1.,              189P    256
-26.9999999999964,22.0100000000008,-0.01,-27.,                       189P    257
-0.00999999999999002,-0.01,-26.9999999999964,22.0100000000008,       189P    258
20.01,-27.,-0.00999999999999002,20.01,-0.001,2.20100000000008,       189P    259
-0.001,2.001;                                                        189P    260
128,1,1,1,1,0,0,1,0,0,-0.192105046486697,-0.192105046486697,         191P    261
0.799894953513319,0.799894953513319,-1.10100000000004,               191P    262
-1.10100000000004,1.10100000000004,1.10100000000004,1.,1.,1.,1.,     191P    263
-27.01,-0.0099999999999878,20.,-17.0899999999999,                    191P    264
-0.0099999999999878,20.,-27.01,22.0100000000008,20.,                 191P    265
-17.0899999999999,22.0100000000008,20.,-0.192105046486697,           191P    266
0.799894953513319,-1.10100000000004,1.10100000000004;                191P    267
128,1,1,1,1,0,0,1,0,0,-0.001,-0.001,1.10100000000002,                193P    268
1.10100000000002,0.299,0.299,2.001,2.001,1.,1.,1.,1.,                193P    269
24.1505852951804,11.0100000000002,2.99,24.1505852951807,             193P    270
-0.01000000000001,2.99,24.1505852951804,11.0100000000002,20.01,      193P    271
24.1505852951807,-0.01000000000001,20.01,-0.001,                     193P    272
1.10100000000002,0.299,2.001;                                        193P    273
128,1,1,1,1,0,0,1,0,0,-0.001,-0.001,1.10529216465652,                195P    274
1.10529216465652,0.299,0.299,1.141,1.141,1.,1.,1.,1.,                195P    275
23.1770182470057,22.009961131985,2.99,24.1514661184408,              195P    276
10.9900388680171,2.99,23.1770182470057,22.009961131985,11.41,        195P    277
24.1514661184408,10.9900388680171,11.41,-0.001,1.10529216465652,     195P    278
0.299,1.141;                                                         195P    279
128,1,1,1,1,0,0,1,0,0,-0.001,-0.001,2.2010000000002,                 197P    280
2.2010000000002,-0.001,-0.001,2.001,2.001,1.,1.,1.,1.,27.,           197P    281
-0.0100000000000107,-0.01,27.,22.010000000002,-0.01,27.,             197P    282
-0.0100000000000107,20.01,27.,22.010000000002,20.01,-0.001,          197P    283
2.2010000000002,-0.001,2.001;                                        197P    284
128,1,1,1,1,0,0,1,0,0,-0.285941470481949,-0.285941470481949,         199P    285
5.11605852951806,5.11605852951806,-0.001,-0.001,2.001,2.001,1.,      199P    286
1.,1.,1.,-27.01,8.40834798089959D-13,-0.01,27.01,                    199P    287
1.20054039426853D-13,-0.01,-27.01,8.40834798089959D-13,20.01,        199P    288
27.01,1.20054039426853D-13,20.01,-0.285941470481949,                 199P    289
5.11605852951806,-0.001,2.001;                                       199P    290
128,1,1,1,1,0,0,1,0,0,-2.41605852951806,-2.41605852951806,           201P    291
2.41605852951806,2.41605852951806,-1.10100000000008,                 201P    292
-1.10100000000008,1.1010000000001,1.1010000000001,1.,1.,1.,1.,       201P    293
-24.1605852951805,-0.00999999999984125,3.,24.1605852951807,          201P    294
-0.00999999999984125,3.,-24.1605852951805,22.010000000002,3.,        201P    295
24.1605852951807,22.010000000002,3.,-2.41605852951806,               201P    296
2.41605852951806,-1.10100000000008,1.1010000000001;                  201P    297
128,1,1,1,1,0,0,1,0,0,-2.70100000000001,-2.70100000000001,2.701,     203P    298
2.701,-1.1010000000001,-1.1010000000001,1.1010000000001,             203P    299
1.1010000000001,1.,1.,1.,1.,27.01,-0.01000000000001,0.,-27.01,       203P    300
-0.01000000000001,0.,27.01,22.010000000002,0.,-27.01,                203P    301
22.010000000002,0.,-2.70100000000001,2.701,-1.1010000000001,         203P    302
1.1010000000001;                                                     203P    303
502,30,-17.0999999999999,22.0000000000004,20.,-17.0999999999999,     205P    304
22.0000000000007,11.4,-17.1,11.0000000000007,20.,-17.1,              205P    305
11.0000000000007,11.4,17.1000000000002,22.0000000000017,11.4,        205P    306
17.1000000000001,22.0000000000017,20.,17.1,11.0000000000003,         205P    307
11.4,17.1,11.0000000000003,20.,-23.177899070266,                     205P    308
22.0000000000008,11.4,-23.1778990702661,22.0000000000002,3.,         205P    309
23.1778990702661,22.000000000002,3.,23.1778990702663,                205P    310
22.0000000000002,11.4,27.,22.000000000002,20.,27.,                   205P    311
22.000000000002,0.,-26.9999999999964,22.0000000000008,0.,            205P    312
-26.9999999999964,22.0000000000008,20.,24.1505852951804,             205P    313
11.0000000000002,20.,24.1505852951807,-1.10837888662774D-14,20.,     205P    314
27.,-1.07348362065074D-14,20.,24.1505852951807,11.0000000000002,     205P    315
11.4,-24.1505852951805,11.0000000000008,11.4,-24.1505852951805,      205P    316
11.0000000000008,20.,-24.1505852951805,11.0000000000008,3.,          205P    317
-24.1505852951805,1.11022302462516D-14,3.,-24.1505852951805,         205P    318
1.33226762955019D-14,20.,-27.,1.11022302462516D-14,0.,-27.,          205P    319
1.33226762955019D-14,20.,24.1505852951807,-1.10837888662774D-14,     205P    320
3.,24.1505852951804,11.0000000000002,3.,27.,                         205P    321
-1.07348362065074D-14,0.;                                            205P    322
504,46,77,205,1,205,2,79,205,3,205,1,81,205,4,205,3,83,205,2,        207P    323
205,4,85,205,5,205,6,87,205,7,205,5,89,205,8,205,7,91,205,6,205,     207P    324
8,93,205,2,205,9,95,205,10,205,9,97,205,11,205,10,99,205,11,205,     207P    325
12,101,205,12,205,5,103,205,13,205,6,105,205,14,205,13,107,205,      207P    326
15,205,14,109,205,15,205,16,111,205,1,205,16,113,205,8,205,17,       207P    327
115,205,17,205,18,117,205,18,205,19,119,205,19,205,13,121,205,       207P    328
20,205,7,123,205,20,205,17,125,205,20,205,12,127,205,4,205,21,       207P    329
129,205,9,205,21,131,205,22,205,3,133,205,21,205,22,135,205,23,      207P    330
205,21,137,205,10,205,23,139,205,23,205,24,141,205,25,205,22,        207P    331
143,205,24,205,25,145,205,15,205,26,147,205,26,205,27,149,205,       207P    332
16,205,27,151,205,27,205,25,153,205,28,205,29,155,205,28,205,18,     207P    333
157,205,29,205,20,159,205,29,205,11,161,205,30,205,14,163,205,       207P    334
30,205,19,165,205,26,205,30,167,205,24,205,28;                       207P    335
406,1,5HBody1;                                                       209P    336
314,34.9019607843137,58.4313725490196,85.4901960784314,32HAlumin     211P    337
um - Anodized Rough (Blue);                                          211P    338
314,62.7450980392157,62.7450980392157,62.7450980392157,13HSteel      213P    339
- Satin;                                                             213P    340
S      1G      3D    214P    340                                        T      1
