0
SECTION
2
HEADER
9
$INSUNITS
70
4
9
$ACADVER
1
AC1014
9
$HANDSEED
5
FFFF
0
ENDSEC
0
SECTION
2
TABLES
0
TABLE
2
VPORT
5
8
100
AcDbSymbolTable
0
ENDTAB
0
TABLE
2
LTYPE
5
5
100
AcDbSymbolTable
0
LTYPE
5
14
100
AcDbSymbolTableRecord
100
AcDbLinetypeTableRecord
2
BYBLOCK
70
0
0
LTYPE
5
15
100
AcDbSymbolTableRecord
100
AcDbLinetypeTableRecord
2
BYLAYER
70
0
0
ENDTAB
0
TABLE
2
LAYER
5
2
100
AcDbSymbolTable
70
2
0
LAYER
5
50
100
AcDbSymbolTableRecord
100
AcDbLayerTableRecord
2
0
70
0
6
CONTINUOUS
0
ENDTAB
0
TABLE
2
STYLE
5
3
100
AcDbSymbolTable
70
1
0
STYLE
5
11
100
AcDbSymbolTableRecord
100
AcDbTextStyleTableRecord
2
STANDARD
70
0
0
ENDTAB
0
TABLE
2
VIEW
5
6
100
AcDbSymbolTable
70
0
0
ENDTAB
0
TABLE
2
UCS
5
7
100
AcDbSymbolTable
70
0
0
ENDTAB
0
TABLE
2
APPID
5
9
100
AcDbSymbolTable
70
2
0
APPID
5
12
100
AcDbSymbolTableRecord
100
AcDbRegAppTableRecord
2
ACAD
70
0
0
ENDTAB
0
TABLE
2
DIMSTYLE
5
A
100
AcDbSymbolTable
70
1
0
ENDTAB
0
TABLE
2
BLOCK_RECORD
5
1
100
AcDbSymbolTable
70
1
0
BLOCK_RECORD
5
1F
100
AcDbSymbolTableRecord
100
AcDbBlockTableRecord
2
*MODEL_SPACE
0
BLOCK_RECORD
5
1B
100
AcDbSymbolTableRecord
100
AcDbBlockTableRecord
2
*PAPER_SPACE
0
ENDTAB
0
ENDSEC
0
SECTION
2
BLOCKS
0
BLOCK
5
20
100
AcDbEntity
100
AcDbBlockBegin
2
*MODEL_SPACE
0
ENDBLK
5
21
100
AcDbEntity
100
AcDbBlockEnd
0
BLOCK
5
1C
100
AcDbEntity
100
AcDbBlockBegin
2
*PAPER_SPACE
0
ENDBLK
5
1D
100
AcDbEntity
100
AcDbBlockEnd
0
ENDSEC
0
SECTION
2
ENTITIES
0
LINE
5
100
100
AcDbEntity
8
0
100
AcDbLine
10
12.000000000000004
20
0
30
0
11
12.000000000000004
21
45
31
0
0
LINE
5
101
100
AcDbEntity
8
0
100
AcDbLine
10
60
20
60
30
0
11
60
21
0
31
0
0
SPLINE
5
102
100
AcDbEntity
8
0
100
AcDbSpline
70
12
71
2
41
1
41
1.255877448766306
41
1
72
6
73
3
74
0
42
0.000000001
43
0.0000000001
44
0.0000000001
40
0
40
0
40
0
40
5.7457279899543829
40
5.7457279899543829
40
5.7457279899543829
10
60.000000000000007
20
42.708395746514952
30
0
10
38.678323557033387
20
72.037841577444112
30
0
10
12.000000000000004
20
45
30
0
0
SPLINE
5
103
100
AcDbEntity
8
0
100
AcDbSpline
70
4
71
5
72
36
73
30
74
0
42
0.000000001
43
0.0000000001
44
0.0000000001
40
0
40
0
40
0
40
0
40
0
40
0
40
0.040000000000000001
40
0.080000000000000002
40
0.12
40
0.16
40
0.20000000000000001
40
0.24000000000000002
40
0.28000000000000003
40
0.32000000000000001
40
0.35999999999999999
40
0.39999999999999997
40
0.43999999999999995
40
0.47999999999999993
40
0.51999999999999991
40
0.55999999999999994
40
0.59999999999999998
40
0.64000000000000001
40
0.68000000000000005
40
0.72000000000000008
40
0.76000000000000012
40
0.80000000000000016
40
0.84000000000000019
40
0.88000000000000023
40
0.92000000000000026
40
0.9600000000000003
40
1
40
1
40
1
40
1
40
1
40
1
41
1
41
1
41
1
41
1
41
1
41
1
41
1
41
1
41
1
41
1
41
1
41
1
41
1
41
1
41
1
41
1
41
1
41
1
41
1
41
1
41
1
41
1
41
1
41
1
41
1
41
1
41
1
41
1
41
1
41
1
10
12.000000000000004
20
0
30
0
10
12.073643532258316
20
1.4072463902613699
30
0
10
12.225744764960984
20
4.1702869032161134
30
0
10
12.46833943611372
20
8.1604916409598012
30
0
10
12.820757165708969
20
13.171240469925623
30
0
10
13.312967009164097
20
18.916349005910412
30
0
10
13.86633896272067
20
24.143886207445785
30
0
10
14.499389917675984
20
28.861947741294163
30
0
10
15.242380502483719
20
33.089648411875118
30
0
10
16.14088907000432
20
36.862638503311175
30
0
10
17.257096204508699
20
40.234242256700661
30
0
10
18.66330632905397
20
43.261591028233155
30
0
10
20.436334270210374
20
45.993473049266825
30
0
10
22.652407034035377
20
48.459622945526988
30
0
10
25.37801552419301
20
50.651521060918334
30
0
10
28.653909205923412
20
52.490561484405625
30
0
10
32.483019222702886
20
53.802129122802242
30
0
10
36.810764651889713
20
54.277950310921057
30
0
10
41.515701186094169
20
53.561937063782096
30
0
10
46.358126025098947
20
51.412723964910384
30
0
10
51.021138747768518
20
47.745775844584244
30
0
10
54.929789213405286
20
42.946995500066961
30
0
10
57.700541261351326
20
37.429403833969822
30
0
10
59.345321000253072
20
31.318024574838649
30
0
10
60.05952567107677
20
24.638379813423281
30
0
10
60.175058945035062
20
17.307757105749829
30
0
10
60.071055921088721
20
10.829340739228023
30
0
10
60.01292493524226
20
5.574760572354533
30
0
10
60
20
1.8887503580193086
30
0
10
60
20
0
30
0
0
LWPOLYLINE
5
104
100
AcDbEntity
8
0
100
AcDbPolyline
90
4
70
1
43
0.0
10
60
20
0
10
12.000000000000004
20
0
10
12.000000000000002
20
10
10
60
20
10
0
ENDSEC
0
SECTION
2
OBJECTS
0
DICTIONARY
5
C
100
AcDbDictionary
3
ACAD_GROUP
350
D
3
ACAD_MLINESTYLE
350
17
0
DICTIONARY
5
D
100
AcDbDictionary
0
DICTIONARY
5
1A
330
C
100
AcDbDictionary
0
DICTIONARY
5
17
100
AcDbDictionary
0
ENDSEC
0
EOF
