                                                                        S      1
,,15HConnexionMoteur,15HConnexionMoteur,7Hunknown,7Hunknown,32,38,7,99, G      1
15,,1.,2,2HMM,1,0.08,15H20201205.175938,0.01,10000.,7Hunknown,7Hunknown,G      2
11,0,;                                                                  G      3
     186       1                                                00000000D      1
     186             -83       1       0                               0D      2
     514       2                                                00010000D      3
     514                       1       1                               0D      4
     510       3                                                00010000D      5
     510             -83       1       1                               0D      6
     510       4                                                00010000D      7
     510             -83       1       1                               0D      8
     510       5                                                00010000D      9
     510             -83       1       1                               0D     10
     510       6                                                00010000D     11
     510             -83       1       1                               0D     12
     510       7                                                00010000D     13
     510             -83       1       1                               0D     14
     510       8                                                00010000D     15
     510             -83       1       1                               0D     16
     510       9                                                00010000D     17
     510             -83       1       1                               0D     18
     508      10                                                00010000D     19
     508                       1       1                               0D     20
     508      11                                                00010000D     21
     508                       1       1                               0D     22
     508      12                                                00010000D     23
     508                       1       1                               0D     24
     508      13                                                00010000D     25
     508                       1       1                               0D     26
     508      14                                                00010000D     27
     508                       1       1                               0D     28
     508      15                                                00010000D     29
     508                       1       1                               0D     30
     508      16                                                00010000D     31
     508                       1       1                               0D     32
     508      17                                                00010000D     33
     508                       1       1                               0D     34
     508      18                                                00010000D     35
     508                       1       1                               0D     36
     508      19                                                00010000D     37
     508                       1       1                               0D     38
     126      20                                                00010000D     39
     126       0               3       0                               0D     40
     126      23                                                00010000D     41
     126       0              12       0                               0D     42
     126      35                                                00010000D     43
     126       0               9       0                               0D     44
     126      44                                                00010000D     45
     126       0              10       0                               0D     46
     126      54                                                00010000D     47
     126       0               2       0                               0D     48
     126      56                                                00010000D     49
     126       0               9       0                               0D     50
     126      65                                                00010000D     51
     126       0               2       0                               0D     52
     126      67                                                00010000D     53
     126       0               3       0                               0D     54
     126      70                                                00010000D     55
     126       0               2       0                               0D     56
     126      72                                                00010000D     57
     126       0              12       0                               0D     58
     126      84                                                00010000D     59
     126       0               9       0                               0D     60
     126      93                                                00010000D     61
     126       0               2       0                               0D     62
     128      95                                                00010000D     63
     128       0     -83       5       0                               0D     64
     128     100                                                00010000D     65
     128       0     -83      12       0                               0D     66
     128     112                                                00010000D     67
     128       0     -83       3       0                               0D     68
     128     115                                                00010000D     69
     128       0     -83       5       0                               0D     70
     128     120                                                00010000D     71
     128       0     -83      19       0                               0D     72
     128     139                                                00010000D     73
     128       0     -83      11       0                               0D     74
     128     150                                                00010000D     75
     128       0     -83       3       0                               0D     76
     502     153                                                00010000D     77
     502                       4       1                               0D     78
     504     157                                                00010001D     79
     504                       3       1                               0D     80
     406     160                                                00000000D     81
     406                       1      15                               0D     82
     314     161                                                00000200D     83
     314                       2       0                               0D     84
     314     163                                                00000200D     85
     314                       2       0                               0D     86
186,3,1,0,0,1,81;                                                      1P      1
514,7,5,1,7,1,9,1,11,1,13,1,15,1,17,1;                                 3P      2
510,63,2,1,19,21;                                                      5P      3
510,65,1,1,23;                                                         7P      4
510,67,2,1,25,27;                                                      9P      5
510,69,1,1,29;                                                        11P      6
510,71,1,1,31;                                                        13P      7
510,73,1,1,33;                                                        15P      8
510,75,2,1,35,37;                                                     17P      9
508,2,0,79,1,1,0,0,79,2,1,0;                                          19P     10
508,1,0,79,3,0,0;                                                     21P     11
508,4,0,79,4,0,0,0,79,5,1,0,0,79,3,1,0,0,79,5,0,0;                    23P     12
508,1,0,79,6,1,0;                                                     25P     13
508,1,0,79,4,1,0;                                                     27P     14
508,4,0,79,1,0,0,0,79,7,1,0,0,79,8,0,0,0,79,9,0,0;                    29P     15
508,4,0,79,2,0,0,0,79,9,1,0,0,79,10,0,0,0,79,7,0,0;                   31P     16
508,4,0,79,11,0,0,0,79,12,1,0,0,79,6,0,0,0,79,12,0,0;                 33P     17
508,1,0,79,11,1,0;                                                    35P     18
508,2,0,79,10,1,0,0,79,8,1,0;                                         37P     19
126,1,1,0,0,1,0,0.,0.,0.224722050542442,0.224722050542442,1.,1.,      39P     20
-1.12361025271221,2.4,0.,1.12361025271221,2.4,0.,0.,                  39P     21
0.224722050542442,0.,0.,0.;                                           39P     22
126,8,2,0,0,0,0,-7.41611992662511,-7.41611992662511,                  41P     23
-7.41611992662511,-6.0642544535049,-6.0642544535049,                  41P     24
-4.71238898038469,-4.71238898038469,-3.36052350726448,                41P     25
-3.36052350726448,-2.00865803414427,-2.00865803414427,                41P     26
-2.00865803414427,1.,0.780123747036819,1.,0.78012374703682,1.,        41P     27
0.78012374703682,1.,0.78012374703682,1.,1.12361025271221,2.4,0.,      41P     28
3.04830563418719,1.49891355667787,0.,2.58674505894957,                41P     29
-0.575543221661067,0.,2.12518448371195,-2.65,0.,                      41P     30
-4.86797102661073D-16,-2.65,0.,-2.12518448371195,-2.65,0.,            41P     31
-2.58674505894957,-0.575543221661066,0.,-3.04830563418718,            41P     32
1.49891355667787,0.,-1.12361025271221,2.4,0.,-7.41611992662511,       41P     33
-2.00865803414427,0.,0.,0.;                                           41P     34
126,8,2,0,1,0,0,-3.14159265358979,-3.14159265358979,                  43P     35
-3.14159265358979,-1.5707963267949,-1.5707963267949,0.,0.,            43P     36
1.5707963267949,1.5707963267949,3.14159265358979,                     43P     37
3.14159265358979,3.14159265358979,1.,0.707106781186548,1.,            43P     38
0.707106781186548,1.,0.707106781186548,1.,0.707106781186548,1.,       43P     39
-2.1,2.57175827820944D-16,0.,-2.1,2.1,0.,1.28587913910472D-16,        43P     40
2.1,0.,2.1,2.1,0.,2.1,0.,0.,2.1,-2.1,0.,1.28587913910472D-16,         43P     41
-2.1,0.,-2.1,-2.1,0.,-2.1,-2.57175827820944D-16,0.,                   43P     42
-3.14159265358979,3.14159265358979,0.,0.,0.;                          43P     43
126,8,2,0,1,0,0,-3.14159265358979,-3.14159265358979,                  45P     44
-3.14159265358979,-1.5707963267949,-1.5707963267949,0.,0.,            45P     45
1.5707963267949,1.5707963267949,3.14159265358979,                     45P     46
3.14159265358979,3.14159265358979,1.,0.707106781186548,1.,            45P     47
0.707106781186548,1.,0.707106781186548,1.,0.707106781186548,1.,       45P     48
-2.1,2.57175827820944D-16,15.,-2.1,2.1,15.,1.28587913910472D-16,      45P     49
2.1,15.,2.1,2.1,15.,2.1,0.,15.,2.1,-2.1,15.,                          45P     50
1.28587913910472D-16,-2.1,15.,-2.1,-2.1,15.,-2.1,                     45P     51
-2.57175827820944D-16,15.,-3.14159265358979,3.14159265358979,0.,      45P     52
0.,0.;                                                                45P     53
126,1,1,0,0,1,0,-7.14285714285714,-7.14285714285714,0.,0.,1.,1.,      47P     54
-2.1,0.,15.,-2.1,0.,0.,-7.14285714285714,0.,0.,0.,0.;                 47P     55
126,8,2,0,1,0,0,-3.14159265358979,-3.14159265358979,                  49P     56
-3.14159265358979,-1.5707963267949,-1.5707963267949,0.,0.,            49P     57
1.5707963267949,1.5707963267949,3.14159265358979,                     49P     58
3.14159265358979,3.14159265358979,1.,0.707106781186548,1.,            49P     59
0.707106781186548,1.,0.707106781186548,1.,0.707106781186548,1.,       49P     60
-4.,-4.89858719658941D-16,15.,-4.,-4.,15.,2.44929359829471D-16,       49P     61
-4.,15.,4.,-4.,15.,4.,0.,15.,4.,4.,15.,2.44929359829471D-16,4.,       49P     62
15.,-4.,4.,15.,-4.,4.89858719658941D-16,15.,-3.14159265358979,        49P     63
3.14159265358979,0.,0.,0.;                                            49P     64
126,1,1,0,0,1,0,0.,0.,1.5,1.5,1.,1.,-1.12361025271221,2.4,0.,         51P     65
-1.12361025271221,2.4,-15.,0.,1.5,0.,0.,0.;                           51P     66
126,1,1,0,0,1,0,-0.224722050542442,-0.224722050542442,0.,0.,1.,       53P     67
1.,1.12361025271221,2.4,-15.,-1.12361025271221,2.4,-15.,              53P     68
-0.224722050542442,0.,0.,0.,0.;                                       53P     69
126,1,1,0,0,1,0,0.,0.,1.5,1.5,1.,1.,1.12361025271221,2.4,0.,          55P     70
1.12361025271221,2.4,-15.,0.,1.5,0.,0.,0.;                            55P     71
126,8,2,0,0,0,0,2.00865803414427,2.00865803414427,                    57P     72
2.00865803414427,3.36052350726448,3.36052350726448,                   57P     73
4.71238898038469,4.71238898038469,6.0642544535049,                    57P     74
6.0642544535049,7.41611992662511,7.41611992662511,                    57P     75
7.41611992662511,1.,0.78012374703682,1.,0.78012374703682,1.,          57P     76
0.78012374703682,1.,0.780123747036819,1.,-1.12361025271221,2.4,       57P     77
-15.,-3.04830563418718,1.49891355667787,-15.,-2.58674505894957,       57P     78
-0.575543221661066,-15.,-2.12518448371195,-2.65,-15.,                 57P     79
-4.86797102661073D-16,-2.65,-15.,2.12518448371195,-2.65,-15.,         57P     80
2.58674505894957,-0.575543221661067,-15.,3.04830563418719,            57P     81
1.49891355667787,-15.,1.12361025271221,2.4,-15.,                      57P     82
2.00865803414427,7.41611992662511,0.,0.,0.;                           57P     83
126,8,2,0,1,0,0,-3.14159265358979,-3.14159265358979,                  59P     84
-3.14159265358979,-1.5707963267949,-1.5707963267949,0.,0.,            59P     85
1.5707963267949,1.5707963267949,3.14159265358979,                     59P     86
3.14159265358979,3.14159265358979,1.,0.707106781186548,1.,            59P     87
0.707106781186548,1.,0.707106781186548,1.,0.707106781186548,1.,       59P     88
-4.,4.89858719658941D-16,-15.,-4.,4.,-15.,2.44929359829471D-16,       59P     89
4.,-15.,4.,4.,-15.,4.,0.,-15.,4.,-4.,-15.,2.44929359829471D-16,       59P     90
-4.,-15.,-4.,-4.,-15.,-4.,-4.89858719658941D-16,-15.,                 59P     91
-3.14159265358979,3.14159265358979,0.,0.,0.;                          59P     92
126,1,1,0,0,1,0,-3.75,-3.75,3.75,3.75,1.,1.,-4.,0.,-15.,-4.,0.,       61P     93
15.,-3.75,3.75,0.,0.,0.;                                              61P     94
128,1,1,1,1,0,0,1,0,0,-0.305830563418718,-0.305830563418718,          63P     95
0.305830563418719,0.305830563418719,-0.266,-0.266,0.241,0.241,        63P     96
1.,1.,1.,1.,3.05830563418719,-2.66,0.,-3.05830563418718,-2.66,        63P     97
0.,3.05830563418719,2.41,0.,-3.05830563418718,2.41,0.,                63P     98
-0.305830563418718,0.305830563418719,-0.266,0.241;                    63P     99
128,1,8,1,2,0,1,0,0,1,0.,0.,7.14285714285714,7.14285714285714,        65P    100
-3.14159265358979,-3.14159265358979,-3.14159265358979,                65P    101
-1.5707963267949,-1.5707963267949,0.,0.,1.5707963267949,              65P    102
1.5707963267949,3.14159265358979,3.14159265358979,                    65P    103
3.14159265358979,1.,1.,0.707106781186548,0.707106781186548,1.,        65P    104
1.,0.707106781186548,0.707106781186548,1.,1.,0.707106781186548,       65P    105
0.707106781186548,1.,1.,0.707106781186548,0.707106781186548,1.,       65P    106
1.,-2.1,0.,0.,-2.1,0.,15.,-2.1,-2.1,0.,-2.1,-2.1,15.,0.,-2.1,0.,      65P    107
0.,-2.1,15.,2.1,-2.1,0.,2.1,-2.1,15.,2.1,0.,0.,2.1,0.,15.,2.1,        65P    108
2.1,0.,2.1,2.1,15.,0.,2.1,0.,0.,2.1,15.,-2.1,2.1,0.,-2.1,2.1,         65P    109
15.,-2.1,0.,0.,-2.1,0.,15.,0.,7.14285714285714,                       65P    110
-3.14159265358979,3.14159265358979;                                   65P    111
128,1,1,1,1,0,0,1,0,0,-0.401,-0.401,0.401,0.401,-0.401,-0.401,        67P    112
0.401,0.401,1.,1.,1.,1.,-4.01,-4.01,15.,4.01,-4.01,15.,-4.01,         67P    113
4.01,15.,4.01,4.01,15.,-0.401,0.401,-0.401,0.401;                     67P    114
128,1,1,1,1,0,0,1,0,0,-0.001,-0.001,0.225722050542442,                69P    115
0.225722050542442,-0.001,-0.001,1.501,1.501,1.,1.,1.,1.,              69P    116
1.13361025271221,2.4,0.01,-1.13361025271221,2.4,0.01,                 69P    117
1.13361025271221,2.4,-15.01,-1.13361025271221,2.4,-15.01,-0.001,      69P    118
0.225722050542442,-0.001,1.501;                                       69P    119
128,1,8,1,2,0,0,0,0,0,0.,0.,5.66037735849057,5.66037735849057,        71P    120
-1.13293461944552,-1.13293461944552,-1.13293461944552,                71P    121
0.218930853674688,0.218930853674688,1.5707963267949,                  71P    122
1.5707963267949,2.92266179991511,2.92266179991511,                    71P    123
4.27452727303531,4.27452727303531,4.27452727303531,1.,1.,             71P    124
0.780123747036819,0.780123747036819,1.,1.,0.780123747036819,          71P    125
0.780123747036819,1.,1.,0.780123747036819,0.780123747036819,1.,       71P    126
1.,0.780123747036819,0.780123747036819,1.,1.,1.12361025271221,        71P    127
2.4,0.,1.12361025271221,2.4,-15.,3.04830563418719,                    71P    128
1.49891355667787,0.,3.04830563418719,1.49891355667787,-15.,           71P    129
2.58674505894957,-0.575543221661067,0.,2.58674505894957,              71P    130
-0.575543221661067,-15.,2.12518448371195,-2.65,0.,                    71P    131
2.12518448371195,-2.65,-15.,0.,-2.65,0.,0.,-2.65,-15.,                71P    132
-2.12518448371195,-2.65,0.,-2.12518448371195,-2.65,-15.,              71P    133
-2.58674505894957,-0.575543221661067,0.,-2.58674505894957,            71P    134
-0.575543221661067,-15.,-3.04830563418719,1.49891355667787,0.,        71P    135
-3.04830563418719,1.49891355667787,-15.,-1.12361025271221,2.4,        71P    136
0.,-1.12361025271221,2.4,-15.,0.,5.66037735849057,                    71P    137
-1.13293461944552,4.27452727303531;                                   71P    138
128,1,8,1,2,0,1,0,0,1,-3.75,-3.75,3.75,3.75,-3.14159265358979,        73P    139
-3.14159265358979,-3.14159265358979,-1.5707963267949,                 73P    140
-1.5707963267949,0.,0.,1.5707963267949,1.5707963267949,               73P    141
3.14159265358979,3.14159265358979,3.14159265358979,1.,1.,             73P    142
0.707106781186548,0.707106781186548,1.,1.,0.707106781186548,          73P    143
0.707106781186548,1.,1.,0.707106781186548,0.707106781186548,1.,       73P    144
1.,0.707106781186548,0.707106781186548,1.,1.,-4.,0.,-15.,-4.,0.,      73P    145
15.,-4.,4.,-15.,-4.,4.,15.,0.,4.,-15.,0.,4.,15.,4.,4.,-15.,4.,        73P    146
4.,15.,4.,0.,-15.,4.,0.,15.,4.,-4.,-15.,4.,-4.,15.,0.,-4.,-15.,       73P    147
0.,-4.,15.,-4.,-4.,-15.,-4.,-4.,15.,-4.,0.,-15.,-4.,0.,15.,           73P    148
-3.75,3.75,-3.14159265358979,3.14159265358979;                        73P    149
128,1,1,1,1,0,0,1,0,0,-0.401,-0.401,0.401,0.401,-0.401,-0.401,        75P    150
0.401,0.401,1.,1.,1.,1.,4.01,-4.01,-15.,-4.01,-4.01,-15.,4.01,        75P    151
4.01,-15.,-4.01,4.01,-15.,-0.401,0.401,-0.401,0.401;                  75P    152
502,8,-1.12361025271221,2.4,0.,1.12361025271221,2.4,0.,-2.1,          77P    153
-2.57175827820944D-16,0.,-2.1,-2.57175827820944D-16,15.,-4.,          77P    154
-4.89858719658941D-16,15.,-1.12361025271221,2.4,-15.,                 77P    155
1.12361025271221,2.4,-15.,-4.,-5.55111512312578D-16,-15.;             77P    156
504,12,39,77,1,77,2,41,77,2,77,1,43,77,3,77,3,45,77,4,77,4,47,        79P    157
77,4,77,3,49,77,5,77,5,51,77,1,77,6,53,77,7,77,6,55,77,2,77,7,        79P    158
57,77,6,77,7,59,77,8,77,8,61,77,8,77,5;                               79P    159
406,1,16HConnexion_Moteur;                                            81P    160
314,85.4901960784314,34.9019607843137,34.9019607843137,32HAlumin      83P    161
um - Anodized Glossy (Red);                                           83P    162
314,62.7450980392157,62.7450980392157,62.7450980392157,13HSteel       85P    163
- Satin;                                                              85P    164
S      1G      3D     86P    164                                        T      1
