0
SECTION
2
HEADER
9
$INSUNITS
70
4
9
$ACADVER
1
AC1014
9
$HANDSEED
5
FFFF
0
ENDSEC
0
SECTION
2
TABLES
0
TABLE
2
VPORT
5
8
100
AcDbSymbolTable
0
ENDTAB
0
TABLE
2
LTYPE
5
5
100
AcDbSymbolTable
0
LTYPE
5
14
100
AcDbSymbolTableRecord
100
AcDbLinetypeTableRecord
2
BYBLOCK
70
0
0
LTYPE
5
15
100
AcDbSymbolTableRecord
100
AcDbLinetypeTableRecord
2
BYLAYER
70
0
0
ENDTAB
0
TABLE
2
LAYER
5
2
100
AcDbSymbolTable
70
2
0
LAYER
5
50
100
AcDbSymbolTableRecord
100
AcDbLayerTableRecord
2
0
70
0
6
CONTINUOUS
0
ENDTAB
0
TABLE
2
STYLE
5
3
100
AcDbSymbolTable
70
1
0
STYLE
5
11
100
AcDbSymbolTableRecord
100
AcDbTextStyleTableRecord
2
STANDARD
70
0
0
ENDTAB
0
TABLE
2
VIEW
5
6
100
AcDbSymbolTable
70
0
0
ENDTAB
0
TABLE
2
UCS
5
7
100
AcDbSymbolTable
70
0
0
ENDTAB
0
TABLE
2
APPID
5
9
100
AcDbSymbolTable
70
2
0
APPID
5
12
100
AcDbSymbolTableRecord
100
AcDbRegAppTableRecord
2
ACAD
70
0
0
ENDTAB
0
TABLE
2
DIMSTYLE
5
A
100
AcDbSymbolTable
70
1
0
ENDTAB
0
TABLE
2
BLOCK_RECORD
5
1
100
AcDbSymbolTable
70
1
0
BLOCK_RECORD
5
1F
100
AcDbSymbolTableRecord
100
AcDbBlockTableRecord
2
*MODEL_SPACE
0
BLOCK_RECORD
5
1B
100
AcDbSymbolTableRecord
100
AcDbBlockTableRecord
2
*PAPER_SPACE
0
ENDTAB
0
ENDSEC
0
SECTION
2
BLOCKS
0
BLOCK
5
20
100
AcDbEntity
100
AcDbBlockBegin
2
*MODEL_SPACE
0
ENDBLK
5
21
100
AcDbEntity
100
AcDbBlockEnd
0
BLOCK
5
1C
100
AcDbEntity
100
AcDbBlockBegin
2
*PAPER_SPACE
0
ENDBLK
5
1D
100
AcDbEntity
100
AcDbBlockEnd
0
ENDSEC
0
SECTION
2
ENTITIES
0
LINE
5
100
100
AcDbEntity
8
0
100
AcDbLine
10
-35.000000000000007
20
60.899999999999999
30
0
11
35.000000000000007
21
60.899999999999999
31
0
0
LINE
5
101
100
AcDbEntity
8
0
100
AcDbLine
10
35.000000000000007
20
60.899999999999999
30
0
11
35.000000000000014
21
-60.899999999999999
31
0
0
LINE
5
102
100
AcDbEntity
8
0
100
AcDbLine
10
35.000000000000014
20
-60.899999999999999
30
0
11
-35.000000000000007
21
-60.899999999999999
31
0
0
LINE
5
103
100
AcDbEntity
8
0
100
AcDbLine
10
-35.000000000000007
20
-60.899999999999999
30
0
11
-35.000000000000007
21
60.899999999999999
31
0
0
LINE
5
104
100
AcDbEntity
8
0
100
AcDbLine
10
-35.000000000000007
20
60.899999999999999
30
0
11
35.000000000000014
21
-60.899999999999999
31
0
0
LINE
5
105
100
AcDbEntity
8
0
100
AcDbLine
10
35.000000000000007
20
60.899999999999999
30
0
11
-35.000000000000007
21
-60.899999999999999
31
0
0
LINE
5
106
100
AcDbEntity
8
0
100
AcDbLine
10
35.000000000000014
20
-40.899999999999977
30
0
11
-35.000000000000007
21
-40.899999999999977
31
0
0
LINE
5
107
100
AcDbEntity
8
0
100
AcDbLine
10
-35.000000000000007
20
-40.899999999999977
30
0
11
-35.000000000000014
21
40.900000000000006
31
0
0
LINE
5
108
100
AcDbEntity
8
0
100
AcDbLine
10
-35.000000000000014
20
40.900000000000006
30
0
11
35.000000000000014
21
40.900000000000006
31
0
0
LINE
5
109
100
AcDbEntity
8
0
100
AcDbLine
10
35.000000000000014
20
40.900000000000006
30
0
11
35.000000000000014
21
-40.899999999999977
31
0
0
LINE
5
110
100
AcDbEntity
8
0
100
AcDbLine
10
35.000000000000014
20
-40.899999999999977
30
0
11
-35.000000000000014
21
40.900000000000006
31
0
0
LINE
5
111
100
AcDbEntity
8
0
100
AcDbLine
10
-35.000000000000007
20
-40.899999999999977
30
0
11
35.000000000000014
21
40.900000000000006
31
0
0
LINE
5
112
100
AcDbEntity
8
0
100
AcDbLine
10
-35.000000000000014
20
-3.3000000000000007
30
0
11
35.000000000000014
21
-3.2999999999999874
31
0
0
CIRCLE
5
113
100
AcDbEntity
8
0
100
AcDbCircle
10
0
20
-3.299999999999994
30
0
40
4.0000000000000018
210
0
220
0
230
1
0
CIRCLE
5
114
100
AcDbEntity
8
0
100
AcDbCircle
10
0
20
-3.299999999999994
30
0
40
22.5
210
0
220
0
230
1
0
LINE
5
115
100
AcDbEntity
8
0
100
AcDbLine
10
0
20
0
30
0
11
-4.4408920985006262e-15
21
2.2401022408970483
31
0
0
LINE
5
116
100
AcDbEntity
8
0
100
AcDbLine
10
-4.4408920985006262e-15
20
2.2401022408970483
30
0
11
0
21
60.899999999999999
31
0
0
CIRCLE
5
117
100
AcDbEntity
8
0
100
AcDbCircle
10
-3.1569301615214407e-15
20
19.200000000000006
30
0
40
2.1000000000000001
210
0
220
0
230
1
0
CIRCLE
5
118
100
AcDbEntity
8
0
100
AcDbCircle
10
-19.48557158514987
20
7.9500000000000064
30
0
40
2.1000000000000001
210
0
220
0
230
1
0
CIRCLE
5
119
100
AcDbEntity
8
0
100
AcDbCircle
10
-19.485571585149874
20
-14.549999999999992
30
0
40
2.1000000000000001
210
0
220
0
230
1
0
CIRCLE
5
120
100
AcDbEntity
8
0
100
AcDbCircle
10
4.0147486343989607e-16
20
-25.79999999999999
30
0
40
2.1000000000000001
210
0
220
0
230
1
0
CIRCLE
5
121
100
AcDbEntity
8
0
100
AcDbCircle
10
19.485571585149867
20
-14.549999999999997
30
0
40
2.1000000000000001
210
0
220
0
230
1
0
CIRCLE
5
122
100
AcDbEntity
8
0
100
AcDbCircle
10
19.485571585149877
20
7.9499999999999922
30
0
40
2.1000000000000001
210
0
220
0
230
1
0
LINE
5
123
100
AcDbEntity
8
0
100
AcDbLine
10
-35.000000000000007
20
60.899999999999999
30
0
11
35.000000000000014
21
40.900000000000006
31
0
0
LINE
5
124
100
AcDbEntity
8
0
100
AcDbLine
10
4.4408920985006262e-15
20
50.899999999999999
30
0
11
-35.000000000000007
21
50.899999999999999
31
0
0
LINE
5
125
100
AcDbEntity
8
0
100
AcDbLine
10
4.4408920985006262e-15
20
50.899999999999999
30
0
11
35.000000000000007
21
50.899999999999999
31
0
0
LWPOLYLINE
5
126
100
AcDbEntity
8
0
100
AcDbPolyline
90
4
70
1
43
0.0
10
-19.599999999999987
20
48.40000000000002
10
-19.599999999999987
20
53.40000000000002
42
-0.99999999999999989
10
-15.39999999999999
20
53.40000000000002
10
-15.39999999999999
20
48.40000000000002
42
-0.99999999999999989
0
LINE
5
127
100
AcDbEntity
8
0
100
AcDbLine
10
-17.499999999999989
20
53.40000000000002
30
0
11
-17.499999999999989
21
48.40000000000002
31
0
0
LWPOLYLINE
5
128
100
AcDbEntity
8
0
100
AcDbPolyline
90
4
70
1
43
0.0
10
15.39999999999999
20
53.40000000000002
42
-0.99999999999999989
10
19.599999999999987
20
53.40000000000002
10
19.599999999999987
20
48.40000000000002
42
-0.99999999999999989
10
15.39999999999999
20
48.40000000000002
0
LINE
5
129
100
AcDbEntity
8
0
100
AcDbLine
10
-35
20
0
30
0
11
35.000000000000014
21
8.8817841970012523e-15
31
0
0
LWPOLYLINE
5
130
100
AcDbEntity
8
0
100
AcDbPolyline
90
4
70
1
43
0.0
10
19.600000000000009
20
-53.399999999999999
42
-0.99999999999999989
10
15.400000000000009
20
-53.399999999999999
10
15.4
20
-48.399999999999999
42
-0.99999999999999989
10
19.600000000000001
20
-48.399999999999999
0
LWPOLYLINE
5
131
100
AcDbEntity
8
0
100
AcDbPolyline
90
4
70
1
43
0.0
10
-19.599999999999977
20
-48.40000000000002
42
-0.99999999999999989
10
-15.399999999999975
20
-48.40000000000002
10
-15.399999999999975
20
-53.40000000000002
42
-0.99999999999999989
10
-19.599999999999977
20
-53.40000000000002
0
LINE
5
132
100
AcDbEntity
8
0
100
AcDbLine
10
-17.499999999999975
20
-53.40000000000002
30
0
11
-17.499999999999975
21
-48.40000000000002
31
0
0
LINE
5
133
100
AcDbEntity
8
0
100
AcDbLine
10
1.7763568394002505e-14
20
-50.899999999999999
30
0
11
-34.999999999999993
21
-50.899999999999999
31
0
0
ENDSEC
0
SECTION
2
OBJECTS
0
DICTIONARY
5
C
100
AcDbDictionary
3
ACAD_GROUP
350
D
3
ACAD_MLINESTYLE
350
17
0
DICTIONARY
5
D
100
AcDbDictionary
0
DICTIONARY
5
1A
330
C
100
AcDbDictionary
0
DICTIONARY
5
17
100
AcDbDictionary
0
ENDSEC
0
EOF
