<?xml version="1.0" encoding="UTF-8" standalone="no"?>
<svg
   xmlns:dc="http://purl.org/dc/elements/1.1/"
   xmlns:cc="http://creativecommons.org/ns#"
   xmlns:rdf="http://www.w3.org/1999/02/22-rdf-syntax-ns#"
   xmlns:svg="http://www.w3.org/2000/svg"
   xmlns="http://www.w3.org/2000/svg"
   xmlns:sodipodi="http://sodipodi.sourceforge.net/DTD/sodipodi-0.dtd"
   xmlns:inkscape="http://www.inkscape.org/namespaces/inkscape"
   width="500mm"
   height="250mm"
   version="1.1"
   id="svg914"
   sodipodi:docname="Habillage v11.svg"
   inkscape:version="0.92.4 (5da689c313, 2019-01-14)">
  <metadata
     id="metadata918">
    <rdf:RDF>
      <cc:Work
         rdf:about="">
        <dc:format>image/svg+xml</dc:format>
        <dc:type
           rdf:resource="http://purl.org/dc/dcmitype/StillImage" />
        <dc:title></dc:title>
      </cc:Work>
    </rdf:RDF>
  </metadata>
  <sodipodi:namedview
     pagecolor="#ffffff"
     bordercolor="#666666"
     borderopacity="1"
     objecttolerance="10"
     gridtolerance="10"
     guidetolerance="10"
     inkscape:pageopacity="0"
     inkscape:pageshadow="2"
     inkscape:window-width="1920"
     inkscape:window-height="1016"
     id="namedview916"
     showgrid="true"
     showborder="true"
     units="mm"
     inkscape:zoom="0.51"
     inkscape:cx="967.65902"
     inkscape:cy="460.94891"
     inkscape:window-x="0"
     inkscape:window-y="27"
     inkscape:window-maximized="1"
     inkscape:current-layer="g912">
    <inkscape:grid
       type="xygrid"
       id="grid4609"
       units="mm"
       spacingx="3.7795276"
       spacingy="3.7795276"
       empspacing="10"
       empcolor="#ff743f"
       empopacity="0.25098039" />
  </sodipodi:namedview>
  <desc
     id="desc815">E:\Mes_Documents\JELMONI\DEV\0_FABLAB\202000 [ PROJET] Mars Rover\2D Decoupe Laser\Habillage v11.dxf - scale = 10.000000, origin = (0.000000, 0.000000), method = manual</desc>
  <defs
     id="defs830">
    <marker
       id="DistanceX"
       orient="auto"
       refX="0"
       refY="0"
       style="overflow:visible">
      <path
         d="M 3,-3 -3,3 M 0,-5 V 5"
         style="stroke:#000000;stroke-width:0.5"
         id="path817"
         inkscape:connector-curvature="0" />
    </marker>
    <pattern
       height="8"
       id="Hatch"
       patternUnits="userSpaceOnUse"
       width="8"
       x="0"
       y="0">
      <path
         d="M8 4 l-4,4"
         linecap="square"
         stroke="#000000"
         stroke-width="0.25"
         id="path820" />
      <path
         d="M6 2 l-4,4"
         linecap="square"
         stroke="#000000"
         stroke-width="0.25"
         id="path822" />
      <path
         d="M4 0 l-4,4"
         linecap="square"
         stroke="#000000"
         stroke-width="0.25"
         id="path824" />
    </pattern>
    <symbol
       id="*Model_Space" />
    <symbol
       id="*Paper_Space" />
    <symbol
       id="*Paper_Space0" />
  </defs>
  <g
     inkscape:groupmode="layer"
     inkscape:label="Habillage v12_Sketch2"
     id="g912"
     style="display:inline"
     transform="translate(0,-177.6378)">
    <g
       id="g1179">
      <path
         inkscape:connector-curvature="0"
         id="path844"
         style="fill:none;stroke:#ff0000;stroke-width:3.77952766;stroke-miterlimit:4;stroke-dasharray:none"
         d="m 1103.6221,434.89761 a 15.496063,15.496063 0 1 0 -30.9921,0 15.496063,15.496063 0 1 0 30.9921,0 z" />
      <path
         inkscape:connector-curvature="0"
         d="M 116.78744,191.87401 H 1738.2048 m 0,461.1024 H 116.78744 M 1738.2048,191.87401 v 461.1024 m -1621.41736,0 v -461.1024"
         style="fill:none;stroke:#0000ff;stroke-width:3.77952766;stroke-miterlimit:4;stroke-dasharray:none"
         id="path852" />
      <path
         inkscape:connector-curvature="0"
         id="path856"
         style="fill:none;stroke:#ff0000;stroke-width:3.77952766;stroke-miterlimit:4;stroke-dasharray:none"
         d="m 1096.063,615.18111 a 7.93701,7.93701 0 1 0 -15.874,0 7.93701,7.93701 0 1 0 15.874,0 z" />
      <path
         inkscape:connector-curvature="0"
         id="path858"
         style="fill:none;stroke:#ff0000;stroke-width:3.77952766;stroke-miterlimit:4;stroke-dasharray:none"
         d="m 1360.63,615.18111 a 7.93705,7.93705 0 1 0 -15.8741,0 7.93705,7.93705 0 1 0 15.8741,0 z" />
      <path
         inkscape:connector-curvature="0"
         id="path860"
         style="fill:none;stroke:#ff0000;stroke-width:3.77952766;stroke-miterlimit:4;stroke-dasharray:none"
         d="m 566.92917,229.66929 a 7.937008,7.937008 0 1 0 -15.87401,0 7.937008,7.937008 0 1 0 15.87401,0 z" />
      <path
         inkscape:connector-curvature="0"
         id="path862"
         style="fill:none;stroke:#ff0000;stroke-width:3.77952766;stroke-miterlimit:4;stroke-dasharray:none"
         d="m 1022.4168,392.37791 a 7.937008,7.937008 0 1 0 -15.874,0 7.937008,7.937008 0 1 0 15.874,0 z" />
      <path
         inkscape:connector-curvature="0"
         id="path864"
         style="fill:none;stroke:#ff0000;stroke-width:3.77952766;stroke-miterlimit:4;stroke-dasharray:none"
         d="m 1360.63,229.66929 a 7.93705,7.93705 0 1 0 -15.8741,0 7.93705,7.93705 0 1 0 15.8741,0 z" />
      <path
         inkscape:connector-curvature="0"
         id="path868"
         style="fill:none;stroke:#ff0000;stroke-width:3.77952766;stroke-miterlimit:4;stroke-dasharray:none"
         d="m 1096.063,229.66929 a 7.93701,7.93701 0 1 0 -15.874,0 7.93701,7.93701 0 1 0 15.874,0 z" />
      <path
         inkscape:connector-curvature="0"
         id="path870"
         style="fill:none;stroke:#ff0000;stroke-width:3.77952766;stroke-miterlimit:4;stroke-dasharray:none"
         d="m 1022.4168,477.41731 a 7.937008,7.937008 0 1 0 -15.874,0 7.937008,7.937008 0 1 0 15.874,0 z" />
      <path
         inkscape:connector-curvature="0"
         id="path876"
         style="fill:none;stroke:#ff0000;stroke-width:3.77952766;stroke-miterlimit:4;stroke-dasharray:none"
         d="m 1625.1969,615.18111 a 7.93701,7.93701 0 1 0 -15.874,0 7.93701,7.93701 0 1 0 15.874,0 z" />
      <path
         inkscape:connector-curvature="0"
         id="path882"
         style="fill:none;stroke:#ff0000;stroke-width:3.77952766;stroke-miterlimit:4;stroke-dasharray:none"
         d="m 302.36224,615.18111 a 7.937008,7.937008 0 1 0 -15.87401,0 7.937008,7.937008 0 1 0 15.87401,0 z" />
      <path
         inkscape:connector-curvature="0"
         id="path884"
         style="fill:none;stroke:#ff0000;stroke-width:3.77952766;stroke-miterlimit:4;stroke-dasharray:none"
         d="m 1708.3465,422.42521 a 7.937008,7.937008 0 1 0 -15.874,0 7.937008,7.937008 0 1 0 15.874,0 z" />
      <path
         inkscape:connector-curvature="0"
         id="path888"
         style="fill:none;stroke:#ff0000;stroke-width:3.77952766;stroke-miterlimit:4;stroke-dasharray:none"
         d="m 1096.063,349.85831 a 7.93701,7.93701 0 1 0 -15.874,0 7.93701,7.93701 0 1 0 15.874,0 z" />
      <path
         inkscape:connector-curvature="0"
         id="path890"
         style="fill:none;stroke:#ff0000;stroke-width:3.77952766;stroke-miterlimit:4;stroke-dasharray:none"
         d="m 566.92917,615.18111 a 7.937008,7.937008 0 1 0 -15.87401,0 7.937008,7.937008 0 1 0 15.87401,0 z" />
      <path
         inkscape:connector-curvature="0"
         id="path896"
         style="fill:none;stroke:#ff0000;stroke-width:3.77952766;stroke-miterlimit:4;stroke-dasharray:none"
         d="m 1096.063,519.93701 a 7.93701,7.93701 0 1 0 -15.874,0 7.93701,7.93701 0 1 0 15.874,0 z" />
      <path
         inkscape:connector-curvature="0"
         id="path898"
         style="fill:none;stroke:#ff0000;stroke-width:3.77952766;stroke-miterlimit:4;stroke-dasharray:none"
         d="m 831.4961,615.18111 a 7.93701,7.93701 0 1 0 -15.87402,0 7.93701,7.93701 0 1 0 15.87402,0 z" />
      <path
         inkscape:connector-curvature="0"
         id="path900"
         style="fill:none;stroke:#ff0000;stroke-width:3.77952766;stroke-miterlimit:4;stroke-dasharray:none"
         d="m 1169.7093,392.37791 a 7.937008,7.937008 0 1 0 -15.874,0 7.937008,7.937008 0 1 0 15.874,0 z" />
      <path
         inkscape:connector-curvature="0"
         id="path902"
         style="fill:none;stroke:#ff0000;stroke-width:3.77952766;stroke-miterlimit:4;stroke-dasharray:none"
         d="m 302.36224,229.66929 a 7.937008,7.937008 0 1 0 -15.87401,0 7.937008,7.937008 0 1 0 15.87401,0 z" />
      <path
         inkscape:connector-curvature="0"
         id="path904"
         style="fill:none;stroke:#ff0000;stroke-width:3.77952766;stroke-miterlimit:4;stroke-dasharray:none"
         d="m 831.4961,229.66929 a 7.93701,7.93701 0 1 0 -15.87402,0 7.93701,7.93701 0 1 0 15.87402,0 z" />
      <path
         inkscape:connector-curvature="0"
         id="path906"
         style="fill:none;stroke:#ff0000;stroke-width:3.77952766;stroke-miterlimit:4;stroke-dasharray:none"
         d="m 162.51972,422.42521 a 7.937008,7.937008 0 1 0 -15.87401,0 7.937008,7.937008 0 1 0 15.87401,0 z" />
      <path
         inkscape:connector-curvature="0"
         id="path908"
         style="fill:none;stroke:#ff0000;stroke-width:3.77952766;stroke-miterlimit:4;stroke-dasharray:none"
         d="m 1625.1969,229.66929 a 7.93701,7.93701 0 1 0 -15.874,0 7.93701,7.93701 0 1 0 15.874,0 z" />
      <path
         inkscape:connector-curvature="0"
         id="path910"
         style="fill:none;stroke:#ff0000;stroke-width:3.77952766;stroke-miterlimit:4;stroke-dasharray:none"
         d="m 1169.7093,477.41731 a 7.937008,7.937008 0 1 0 -15.874,0 7.937008,7.937008 0 1 0 15.874,0 z" />
    </g>
    <g
       id="g1204"
       transform="translate(24.81889,-53.66926)">
      <g
         id="g1155">
        <path
           d="m 1078.8032,949.66927 a 15.496063,15.496063 0 1 0 -30.9921,0 15.496063,15.496063 0 1 0 30.9921,0 z"
           style="display:inline;fill:none;stroke:#ff0000;stroke-width:3.77952766;stroke-miterlimit:4;stroke-dasharray:none"
           id="path844-7"
           inkscape:connector-curvature="0" />
        <path
           sodipodi:nodetypes="cccccc"
           id="path852-9"
           style="display:inline;fill:none;stroke:#0000ff;stroke-width:3.77952766;stroke-miterlimit:4;stroke-dasharray:none"
           d="M 1713.3859,1167.7481 H 91.96855 M 1713.3859,706.64567 v 461.10243 m -1621.41735,0 V 706.64567"
           inkscape:connector-curvature="0" />
        <path
           d="m 1071.2441,1129.9528 a 7.93701,7.93701 0 1 0 -15.874,0 7.93701,7.93701 0 1 0 15.874,0 z"
           style="display:inline;fill:none;stroke:#ff0000;stroke-width:3.77952766;stroke-miterlimit:4;stroke-dasharray:none"
           id="path856-2"
           inkscape:connector-curvature="0" />
        <path
           d="m 1335.8111,1129.9528 a 7.93705,7.93705 0 1 0 -15.8741,0 7.93705,7.93705 0 1 0 15.8741,0 z"
           style="display:inline;fill:none;stroke:#ff0000;stroke-width:3.77952766;stroke-miterlimit:4;stroke-dasharray:none"
           id="path858-0"
           inkscape:connector-curvature="0" />
        <path
           d="m 542.11027,744.44095 a 7.937008,7.937008 0 1 0 -15.87401,0 7.937008,7.937008 0 1 0 15.87401,0 z"
           style="display:inline;fill:none;stroke:#ff0000;stroke-width:3.77952766;stroke-miterlimit:4;stroke-dasharray:none"
           id="path860-2"
           inkscape:connector-curvature="0" />
        <path
           d="m 997.5979,907.14957 a 7.937008,7.937008 0 1 0 -15.874,0 7.937008,7.937008 0 1 0 15.874,0 z"
           style="display:inline;fill:none;stroke:#ff0000;stroke-width:3.77952766;stroke-miterlimit:4;stroke-dasharray:none"
           id="path862-3"
           inkscape:connector-curvature="0" />
        <path
           d="m 1335.8111,744.44095 a 7.93705,7.93705 0 1 0 -15.8741,0 7.93705,7.93705 0 1 0 15.8741,0 z"
           style="display:inline;fill:none;stroke:#ff0000;stroke-width:3.77952766;stroke-miterlimit:4;stroke-dasharray:none"
           id="path864-7"
           inkscape:connector-curvature="0" />
        <path
           d="m 1071.2441,744.44095 a 7.93701,7.93701 0 1 0 -15.874,0 7.93701,7.93701 0 1 0 15.874,0 z"
           style="display:inline;fill:none;stroke:#ff0000;stroke-width:3.77952766;stroke-miterlimit:4;stroke-dasharray:none"
           id="path868-5"
           inkscape:connector-curvature="0" />
        <path
           d="m 997.5979,992.18897 a 7.937008,7.937008 0 1 0 -15.874,0 7.937008,7.937008 0 1 0 15.874,0 z"
           style="display:inline;fill:none;stroke:#ff0000;stroke-width:3.77952766;stroke-miterlimit:4;stroke-dasharray:none"
           id="path870-9"
           inkscape:connector-curvature="0" />
        <path
           d="m 1600.378,1129.9528 a 7.93701,7.93701 0 1 0 -15.874,0 7.93701,7.93701 0 1 0 15.874,0 z"
           style="display:inline;fill:none;stroke:#ff0000;stroke-width:3.77952766;stroke-miterlimit:4;stroke-dasharray:none"
           id="path876-2"
           inkscape:connector-curvature="0" />
        <path
           d="m 277.54334,1129.9528 a 7.937008,7.937008 0 1 0 -15.87401,0 7.937008,7.937008 0 1 0 15.87401,0 z"
           style="display:inline;fill:none;stroke:#ff0000;stroke-width:3.77952766;stroke-miterlimit:4;stroke-dasharray:none"
           id="path882-2"
           inkscape:connector-curvature="0" />
        <path
           d="m 1683.5276,937.19687 a 7.937008,7.937008 0 1 0 -15.874,0 7.937008,7.937008 0 1 0 15.874,0 z"
           style="display:inline;fill:none;stroke:#ff0000;stroke-width:3.77952766;stroke-miterlimit:4;stroke-dasharray:none"
           id="path884-8"
           inkscape:connector-curvature="0" />
        <path
           d="m 1071.2441,864.62997 a 7.93701,7.93701 0 1 0 -15.874,0 7.93701,7.93701 0 1 0 15.874,0 z"
           style="display:inline;fill:none;stroke:#ff0000;stroke-width:3.77952766;stroke-miterlimit:4;stroke-dasharray:none"
           id="path888-9"
           inkscape:connector-curvature="0" />
        <path
           d="m 542.11027,1129.9528 a 7.937008,7.937008 0 1 0 -15.87401,0 7.937008,7.937008 0 1 0 15.87401,0 z"
           style="display:inline;fill:none;stroke:#ff0000;stroke-width:3.77952766;stroke-miterlimit:4;stroke-dasharray:none"
           id="path890-7"
           inkscape:connector-curvature="0" />
        <path
           d="m 1071.2441,1034.7087 a 7.93701,7.93701 0 1 0 -15.874,0 7.93701,7.93701 0 1 0 15.874,0 z"
           style="display:inline;fill:none;stroke:#ff0000;stroke-width:3.77952766;stroke-miterlimit:4;stroke-dasharray:none"
           id="path896-3"
           inkscape:connector-curvature="0" />
        <path
           d="m 806.6772,1129.9528 a 7.93701,7.93701 0 1 0 -15.87402,0 7.93701,7.93701 0 1 0 15.87402,0 z"
           style="display:inline;fill:none;stroke:#ff0000;stroke-width:3.77952766;stroke-miterlimit:4;stroke-dasharray:none"
           id="path898-6"
           inkscape:connector-curvature="0" />
        <path
           d="m 1144.8904,907.14957 a 7.937008,7.937008 0 1 0 -15.874,0 7.937008,7.937008 0 1 0 15.874,0 z"
           style="display:inline;fill:none;stroke:#ff0000;stroke-width:3.77952766;stroke-miterlimit:4;stroke-dasharray:none"
           id="path900-1"
           inkscape:connector-curvature="0" />
        <path
           d="m 277.54334,744.44095 a 7.937008,7.937008 0 1 0 -15.87401,0 7.937008,7.937008 0 1 0 15.87401,0 z"
           style="display:inline;fill:none;stroke:#ff0000;stroke-width:3.77952766;stroke-miterlimit:4;stroke-dasharray:none"
           id="path902-2"
           inkscape:connector-curvature="0" />
        <path
           d="m 806.6772,744.44095 a 7.93701,7.93701 0 1 0 -15.87402,0 7.93701,7.93701 0 1 0 15.87402,0 z"
           style="display:inline;fill:none;stroke:#ff0000;stroke-width:3.77952766;stroke-miterlimit:4;stroke-dasharray:none"
           id="path904-9"
           inkscape:connector-curvature="0" />
        <path
           d="m 137.70083,937.19687 a 7.937008,7.937008 0 1 0 -15.87401,0 7.937008,7.937008 0 1 0 15.87401,0 z"
           style="display:inline;fill:none;stroke:#ff0000;stroke-width:3.77952766;stroke-miterlimit:4;stroke-dasharray:none"
           id="path906-3"
           inkscape:connector-curvature="0" />
        <path
           d="m 1600.378,744.44095 a 7.93701,7.93701 0 1 0 -15.874,0 7.93701,7.93701 0 1 0 15.874,0 z"
           style="display:inline;fill:none;stroke:#ff0000;stroke-width:3.77952766;stroke-miterlimit:4;stroke-dasharray:none"
           id="path908-1"
           inkscape:connector-curvature="0" />
        <path
           d="m 1144.8904,992.18897 a 7.937008,7.937008 0 1 0 -15.874,0 7.937008,7.937008 0 1 0 15.874,0 z"
           style="display:inline;fill:none;stroke:#ff0000;stroke-width:3.77952766;stroke-miterlimit:4;stroke-dasharray:none"
           id="path910-9"
           inkscape:connector-curvature="0" />
      </g>
    </g>
  </g>
</svg>
