  0
SECTION
  2
HEADER
  9
$ACADVER
  1
AC1014
  9
$HANDSEED
  5
FFFF
  9
$MEASUREMENT
 70
     1
  0
ENDSEC
  0
SECTION
  2
TABLES
  0
TABLE
  2
VPORT
  5
8
330
0
100
AcDbSymbolTable
 70
     4
  0
VPORT
  5
2E
330
8
100
AcDbSymbolTableRecord
100
AcDbViewportTableRecord
  2
*ACTIVE
 70
     0
 10
0.0
 20
0.0
 11
1.0
 21
1.0
 12
210.0
 22
148.5
 13
0.0
 23
0.0
 14
10.0
 24
10.0
 15
10.0
 25
10.0
 16
0.0
 26
0.0
 36
1.0
 17
0.0
 27
0.0
 37
0.0
 40
341.0
 41
1.24
 42
50.0
 43
0.0
 44
0.0
 50
0.0
 51
0.0
 71
     0
 72
   100
 73
     1
 74
     3
 75
     0
 76
     0
 77
     0
 78
     0
  0
ENDTAB
  0
TABLE
  2
LTYPE
  5
5
330
0
100
AcDbSymbolTable
 70
     1
  0
LTYPE
  5
14
330
5
100
AcDbSymbolTableRecord
100
AcDbLinetypeTableRecord
  2
BYBLOCK
 70
     0
  3

 72
    65
 73
     0
 40
0.0
  0
LTYPE
  5
15
330
5
100
AcDbSymbolTableRecord
100
AcDbLinetypeTableRecord
  2
BYLAYER
 70
     0
  3

 72
    65
 73
     0
 40
0.0
  0
LTYPE
  5
16
330
5
100
AcDbSymbolTableRecord
100
AcDbLinetypeTableRecord
  2
CONTINUOUS
 70
     0
  3
Solid line
 72
    65
 73
     0
 40
0.0
  0
ENDTAB
  0
TABLE
  2
LAYER
  5
2
100
AcDbSymbolTable
 70
2
  0
LAYER
  5
50
100
AcDbSymbolTableRecord
100
AcDbLayerTableRecord
  2
0
 70
0
  6
CONTINUOUS
  0
LAYER
  5
51
100
AcDbSymbolTableRecord
100
AcDbLayerTableRecord
  2
Habillage_v12_Sketch2
 70
0
  6
CONTINUOUS
  0
ENDTAB
  0
TABLE
  2
STYLE
  5
3
330
0
100
AcDbSymbolTable
 70
     1
  0
STYLE
  5
11
330
3
100
AcDbSymbolTableRecord
100
AcDbTextStyleTableRecord
  2
STANDARD
 70
     0
 40
0.0
 41
1.0
 50
0.0
 71
     0
 42
2.5
  3
txt
  4

  0
ENDTAB
  0
TABLE
  2
VIEW
  5
6
330
0
100
AcDbSymbolTable
 70
     0
  0
ENDTAB
  0
TABLE
  2
UCS
  5
7
330
0
100
AcDbSymbolTable
 70
     0
  0
ENDTAB
  0
TABLE
  2
APPID
  5
9
330
0
100
AcDbSymbolTable
 70
     2
  0
APPID
  5
12
330
9
100
AcDbSymbolTableRecord
100
AcDbRegAppTableRecord
  2
ACAD
 70
     0
  0
ENDTAB
  0
TABLE
  2
DIMSTYLE
  5
A
330
0
100
AcDbSymbolTable
 70
     1
  0
DIMSTYLE
105
27
330
A
100
AcDbSymbolTableRecord
100
AcDbDimStyleTableRecord
  2
ISO-25
 70
     0
  3

  4

  5

  6

  7

 40
1.0
 41
2.5
 42
0.625
 43
3.75
 44
1.25
 45
0.0
 46
0.0
 47
0.0
 48
0.0
140
2.5
141
2.5
142
0.0
143
0.03937007874016
144
1.0
145
0.0
146
1.0
147
0.625
 71
     0
 72
     0
 73
     0
 74
     0
 75
     0
 76
     0
 77
     1
 78
     8
170
     0
171
     3
172
     1
173
     0
174
     0
175
     0
176
     0
177
     0
178
     0
270
     2
271
     2
272
     2
273
     2
274
     3
340
11
275
     0
280
     0
281
     0
282
     0
283
     0
284
     8
285
     0
286
     0
287
     3
288
     0
  0
ENDTAB
  0
TABLE
  2
BLOCK_RECORD
  5
1
330
0
100
AcDbSymbolTable
 70
     1
  0
BLOCK_RECORD
  5
1F
330
1
100
AcDbSymbolTableRecord
100
AcDbBlockTableRecord
  2
*MODEL_SPACE
  0
BLOCK_RECORD
  5
1B
330
1
100
AcDbSymbolTableRecord
100
AcDbBlockTableRecord
  2
*PAPER_SPACE
  0
ENDTAB
  0
ENDSEC
  0
SECTION
  2
BLOCKS
  0
BLOCK
  5
20
330
1F
100
AcDbEntity
  8
0
100
AcDbBlockBegin
  2
*MODEL_SPACE
 70
     0
 10
0.0
 20
0.0
 30
0.0
  3
*MODEL_SPACE
  1

  0
ENDBLK
  5
21
330
1F
100
AcDbEntity
  8
0
100
AcDbBlockEnd
  0
BLOCK
  5
1C
330
1B
100
AcDbEntity
 67
     1
  8
0
100
AcDbBlockBegin
  2
*PAPER_SPACE
  1

  0
ENDBLK
  5
1D
330
1B
100
AcDbEntity
 67
     1
  8
0
100
AcDbBlockEnd
  0
ENDSEC
  0
SECTION
  2
ENTITIES
  0
SPLINE
  5
100
100
AcDbEntity
  8
Habillage_v12_Sketch2
 62
1
100
AcDbSpline
 70
8
 71
3
 72
8
 73
4
 74
0
 40
0
 40
0
 40
0
 40
0
 40
1
 40
1
 40
1
 40
1
 10
46.599999
 20
-3.299993
 30
0.0
 10
46.600911
 20
-1.834597
 30
0.0
 10
45.819655
 20
-0.480125
 30
0.0
 10
44.550736
 20
0.252837
 30
0.0
  0
SPLINE
  5
101
100
AcDbEntity
  8
Habillage_v12_Sketch2
 62
1
100
AcDbSpline
 70
8
 71
3
 72
8
 73
4
 74
0
 40
0
 40
0
 40
0
 40
0
 40
1
 40
1
 40
1
 40
1
 10
44.550736
 20
0.252837
 30
0.0
 10
43.281817
 20
0.985798
 30
0.0
 10
41.718182
 20
0.985798
 30
0.0
 10
40.449263
 20
0.252837
 30
0.0
  0
SPLINE
  5
102
100
AcDbEntity
  8
Habillage_v12_Sketch2
 62
1
100
AcDbSpline
 70
8
 71
3
 72
8
 73
4
 74
0
 40
0
 40
0
 40
0
 40
0
 40
1
 40
1
 40
1
 40
1
 10
40.449263
 20
0.252837
 30
0.0
 10
39.180345
 20
-0.480125
 30
0.0
 10
38.399089
 20
-1.834597
 30
0.0
 10
38.400000
 20
-3.299993
 30
0.0
  0
SPLINE
  5
103
100
AcDbEntity
  8
Habillage_v12_Sketch2
 62
1
100
AcDbSpline
 70
8
 71
3
 72
8
 73
4
 74
0
 40
0
 40
0
 40
0
 40
0
 40
1
 40
1
 40
1
 40
1
 10
38.400000
 20
-3.299993
 30
0.0
 10
38.399089
 20
-4.765389
 30
0.0
 10
39.180345
 20
-6.119862
 30
0.0
 10
40.449263
 20
-6.852823
 30
0.0
  0
SPLINE
  5
104
100
AcDbEntity
  8
Habillage_v12_Sketch2
 62
1
100
AcDbSpline
 70
8
 71
3
 72
8
 73
4
 74
0
 40
0
 40
0
 40
0
 40
0
 40
1
 40
1
 40
1
 40
1
 10
40.449263
 20
-6.852823
 30
0.0
 10
41.718182
 20
-7.585785
 30
0.0
 10
43.281817
 20
-7.585785
 30
0.0
 10
44.550736
 20
-6.852823
 30
0.0
  0
SPLINE
  5
105
100
AcDbEntity
  8
Habillage_v12_Sketch2
 62
1
100
AcDbSpline
 70
8
 71
3
 72
8
 73
4
 74
0
 40
0
 40
0
 40
0
 40
0
 40
1
 40
1
 40
1
 40
1
 10
44.550736
 20
-6.852823
 30
0.0
 10
45.819655
 20
-6.119862
 30
0.0
 10
46.600911
 20
-4.765389
 30
0.0
 10
46.599999
 20
-3.299993
 30
0.0
  0
LINE
  5
106
100
AcDbEntity
  8
Habillage_v12_Sketch2
 62
1
100
AcDbLine
 10
46.599999
 20
-3.299993
 30
0.0
 11
46.599999
 21
-3.299993
 31
0.0
  0
LINE
  5
107
100
AcDbEntity
  8
Habillage_v12_Sketch2
 62
5
100
AcDbLine
 10
-214.500000
 20
61.000001
 30
0.0
 11
214.500000
 21
61.000001
 31
0.0
  0
LINE
  5
108
100
AcDbEntity
  8
Habillage_v12_Sketch2
 62
5
100
AcDbLine
 10
214.500000
 20
-61.000009
 30
0.0
 11
-214.500000
 21
-61.000009
 31
0.0
  0
LINE
  5
109
100
AcDbEntity
  8
Habillage_v12_Sketch2
 62
5
100
AcDbLine
 10
214.500000
 20
61.000001
 30
0.0
 11
214.500000
 21
-61.000009
 31
0.0
  0
LINE
  5
10a
100
AcDbEntity
  8
Habillage_v12_Sketch2
 62
5
100
AcDbLine
 10
-214.500000
 20
-61.000009
 30
0.0
 11
-214.500000
 21
61.000001
 31
0.0
  0
SPLINE
  5
10b
100
AcDbEntity
  8
Habillage_v12_Sketch2
 62
1
100
AcDbSpline
 70
8
 71
3
 72
8
 73
4
 74
0
 40
0
 40
0
 40
0
 40
0
 40
1
 40
1
 40
1
 40
1
 10
44.600000
 20
-51.000002
 30
0.0
 10
44.600000
 20
-50.249745
 30
0.0
 10
44.199742
 20
-49.556478
 30
0.0
 10
43.550000
 20
-49.181349
 30
0.0
  0
SPLINE
  5
10c
100
AcDbEntity
  8
Habillage_v12_Sketch2
 62
1
100
AcDbSpline
 70
8
 71
3
 72
8
 73
4
 74
0
 40
0
 40
0
 40
0
 40
0
 40
1
 40
1
 40
1
 40
1
 10
43.550000
 20
-49.181349
 30
0.0
 10
42.900258
 20
-48.806220
 30
0.0
 10
42.099742
 20
-48.806220
 30
0.0
 10
41.449999
 20
-49.181349
 30
0.0
  0
SPLINE
  5
10d
100
AcDbEntity
  8
Habillage_v12_Sketch2
 62
1
100
AcDbSpline
 70
8
 71
3
 72
8
 73
4
 74
0
 40
0
 40
0
 40
0
 40
0
 40
1
 40
1
 40
1
 40
1
 10
41.449999
 20
-49.181349
 30
0.0
 10
40.800257
 20
-49.556478
 30
0.0
 10
40.399999
 20
-50.249745
 30
0.0
 10
40.399999
 20
-51.000002
 30
0.0
  0
SPLINE
  5
10e
100
AcDbEntity
  8
Habillage_v12_Sketch2
 62
1
100
AcDbSpline
 70
8
 71
3
 72
8
 73
4
 74
0
 40
0
 40
0
 40
0
 40
0
 40
1
 40
1
 40
1
 40
1
 10
40.399999
 20
-51.000002
 30
0.0
 10
40.399999
 20
-51.750260
 30
0.0
 10
40.800257
 20
-52.443527
 30
0.0
 10
41.449999
 20
-52.818656
 30
0.0
  0
SPLINE
  5
10f
100
AcDbEntity
  8
Habillage_v12_Sketch2
 62
1
100
AcDbSpline
 70
8
 71
3
 72
8
 73
4
 74
0
 40
0
 40
0
 40
0
 40
0
 40
1
 40
1
 40
1
 40
1
 10
41.449999
 20
-52.818656
 30
0.0
 10
42.099742
 20
-53.193785
 30
0.0
 10
42.900258
 20
-53.193785
 30
0.0
 10
43.550000
 20
-52.818656
 30
0.0
  0
SPLINE
  5
110
100
AcDbEntity
  8
Habillage_v12_Sketch2
 62
1
100
AcDbSpline
 70
8
 71
3
 72
8
 73
4
 74
0
 40
0
 40
0
 40
0
 40
0
 40
1
 40
1
 40
1
 40
1
 10
43.550000
 20
-52.818656
 30
0.0
 10
44.199742
 20
-52.443527
 30
0.0
 10
44.600000
 20
-51.750260
 30
0.0
 10
44.600000
 20
-51.000002
 30
0.0
  0
LINE
  5
111
100
AcDbEntity
  8
Habillage_v12_Sketch2
 62
1
100
AcDbLine
 10
44.600000
 20
-51.000002
 30
0.0
 11
44.600000
 21
-51.000002
 31
0.0
  0
SPLINE
  5
112
100
AcDbEntity
  8
Habillage_v12_Sketch2
 62
1
100
AcDbSpline
 70
8
 71
3
 72
8
 73
4
 74
0
 40
0
 40
0
 40
0
 40
0
 40
1
 40
1
 40
1
 40
1
 10
114.600000
 20
-51.000002
 30
0.0
 10
114.600000
 20
-50.249745
 30
0.0
 10
114.199743
 20
-49.556478
 30
0.0
 10
113.550000
 20
-49.181349
 30
0.0
  0
SPLINE
  5
113
100
AcDbEntity
  8
Habillage_v12_Sketch2
 62
1
100
AcDbSpline
 70
8
 71
3
 72
8
 73
4
 74
0
 40
0
 40
0
 40
0
 40
0
 40
1
 40
1
 40
1
 40
1
 10
113.550000
 20
-49.181349
 30
0.0
 10
112.900258
 20
-48.806220
 30
0.0
 10
112.099742
 20
-48.806220
 30
0.0
 10
111.450000
 20
-49.181349
 30
0.0
  0
SPLINE
  5
114
100
AcDbEntity
  8
Habillage_v12_Sketch2
 62
1
100
AcDbSpline
 70
8
 71
3
 72
8
 73
4
 74
0
 40
0
 40
0
 40
0
 40
0
 40
1
 40
1
 40
1
 40
1
 10
111.450000
 20
-49.181349
 30
0.0
 10
110.800257
 20
-49.556478
 30
0.0
 10
110.399999
 20
-50.249745
 30
0.0
 10
110.399999
 20
-51.000002
 30
0.0
  0
SPLINE
  5
115
100
AcDbEntity
  8
Habillage_v12_Sketch2
 62
1
100
AcDbSpline
 70
8
 71
3
 72
8
 73
4
 74
0
 40
0
 40
0
 40
0
 40
0
 40
1
 40
1
 40
1
 40
1
 10
110.399999
 20
-51.000002
 30
0.0
 10
110.399999
 20
-51.750260
 30
0.0
 10
110.800257
 20
-52.443527
 30
0.0
 10
111.450000
 20
-52.818656
 30
0.0
  0
SPLINE
  5
116
100
AcDbEntity
  8
Habillage_v12_Sketch2
 62
1
100
AcDbSpline
 70
8
 71
3
 72
8
 73
4
 74
0
 40
0
 40
0
 40
0
 40
0
 40
1
 40
1
 40
1
 40
1
 10
111.450000
 20
-52.818656
 30
0.0
 10
112.099742
 20
-53.193785
 30
0.0
 10
112.900258
 20
-53.193785
 30
0.0
 10
113.550000
 20
-52.818656
 30
0.0
  0
SPLINE
  5
117
100
AcDbEntity
  8
Habillage_v12_Sketch2
 62
1
100
AcDbSpline
 70
8
 71
3
 72
8
 73
4
 74
0
 40
0
 40
0
 40
0
 40
0
 40
1
 40
1
 40
1
 40
1
 10
113.550000
 20
-52.818656
 30
0.0
 10
114.199743
 20
-52.443527
 30
0.0
 10
114.600000
 20
-51.750260
 30
0.0
 10
114.600000
 20
-51.000002
 30
0.0
  0
LINE
  5
118
100
AcDbEntity
  8
Habillage_v12_Sketch2
 62
1
100
AcDbLine
 10
114.600000
 20
-51.000002
 30
0.0
 11
114.600000
 21
-51.000002
 31
0.0
  0
SPLINE
  5
119
100
AcDbEntity
  8
Habillage_v12_Sketch2
 62
1
100
AcDbSpline
 70
8
 71
3
 72
8
 73
4
 74
0
 40
0
 40
0
 40
0
 40
0
 40
1
 40
1
 40
1
 40
1
 10
-95.400000
 20
51.000000
 30
0.0
 10
-95.399348
 20
51.750692
 30
0.0
 10
-95.799462
 20
52.444640
 30
0.0
 10
-96.449472
 20
52.820175
 30
0.0
  0
SPLINE
  5
11a
100
AcDbEntity
  8
Habillage_v12_Sketch2
 62
1
100
AcDbSpline
 70
8
 71
3
 72
8
 73
4
 74
0
 40
0
 40
0
 40
0
 40
0
 40
1
 40
1
 40
1
 40
1
 10
-96.449472
 20
52.820175
 30
0.0
 10
-97.099483
 20
53.195709
 30
0.0
 10
-97.900516
 20
53.195709
 30
0.0
 10
-98.550527
 20
52.820175
 30
0.0
  0
SPLINE
  5
11b
100
AcDbEntity
  8
Habillage_v12_Sketch2
 62
1
100
AcDbSpline
 70
8
 71
3
 72
8
 73
4
 74
0
 40
0
 40
0
 40
0
 40
0
 40
1
 40
1
 40
1
 40
1
 10
-98.550527
 20
52.820175
 30
0.0
 10
-99.200537
 20
52.444640
 30
0.0
 10
-99.600651
 20
51.750692
 30
0.0
 10
-99.599999
 20
51.000000
 30
0.0
  0
SPLINE
  5
11c
100
AcDbEntity
  8
Habillage_v12_Sketch2
 62
1
100
AcDbSpline
 70
8
 71
3
 72
8
 73
4
 74
0
 40
0
 40
0
 40
0
 40
0
 40
1
 40
1
 40
1
 40
1
 10
-99.599999
 20
51.000000
 30
0.0
 10
-99.600651
 20
50.249308
 30
0.0
 10
-99.200537
 20
49.555360
 30
0.0
 10
-98.550527
 20
49.179825
 30
0.0
  0
SPLINE
  5
11d
100
AcDbEntity
  8
Habillage_v12_Sketch2
 62
1
100
AcDbSpline
 70
8
 71
3
 72
8
 73
4
 74
0
 40
0
 40
0
 40
0
 40
0
 40
1
 40
1
 40
1
 40
1
 10
-98.550527
 20
49.179825
 30
0.0
 10
-97.900516
 20
48.804290
 30
0.0
 10
-97.099483
 20
48.804290
 30
0.0
 10
-96.449472
 20
49.179825
 30
0.0
  0
SPLINE
  5
11e
100
AcDbEntity
  8
Habillage_v12_Sketch2
 62
1
100
AcDbSpline
 70
8
 71
3
 72
8
 73
4
 74
0
 40
0
 40
0
 40
0
 40
0
 40
1
 40
1
 40
1
 40
1
 10
-96.449472
 20
49.179825
 30
0.0
 10
-95.799462
 20
49.555360
 30
0.0
 10
-95.399348
 20
50.249308
 30
0.0
 10
-95.400000
 20
51.000000
 30
0.0
  0
LINE
  5
11f
100
AcDbEntity
  8
Habillage_v12_Sketch2
 62
1
100
AcDbLine
 10
-95.400000
 20
51.000000
 30
0.0
 11
-95.400000
 21
51.000000
 31
0.0
  0
SPLINE
  5
120
100
AcDbEntity
  8
Habillage_v12_Sketch2
 62
1
100
AcDbSpline
 70
8
 71
3
 72
8
 73
4
 74
0
 40
0
 40
0
 40
0
 40
0
 40
1
 40
1
 40
1
 40
1
 10
25.114428
 20
7.950011
 30
0.0
 10
25.114695
 20
8.700446
 30
0.0
 10
24.714495
 20
9.393991
 30
0.0
 10
24.064644
 20
9.769285
 30
0.0
  0
SPLINE
  5
121
100
AcDbEntity
  8
Habillage_v12_Sketch2
 62
1
100
AcDbSpline
 70
8
 71
3
 72
8
 73
4
 74
0
 40
0
 40
0
 40
0
 40
0
 40
1
 40
1
 40
1
 40
1
 10
24.064644
 20
9.769285
 30
0.0
 10
23.414792
 20
10.144580
 30
0.0
 10
22.614065
 20
10.144580
 30
0.0
 10
21.964213
 20
9.769285
 30
0.0
  0
SPLINE
  5
122
100
AcDbEntity
  8
Habillage_v12_Sketch2
 62
1
100
AcDbSpline
 70
8
 71
3
 72
8
 73
4
 74
0
 40
0
 40
0
 40
0
 40
0
 40
1
 40
1
 40
1
 40
1
 10
21.964213
 20
9.769285
 30
0.0
 10
21.314362
 20
9.393991
 30
0.0
 10
20.914162
 20
8.700446
 30
0.0
 10
20.914429
 20
7.950011
 30
0.0
  0
SPLINE
  5
123
100
AcDbEntity
  8
Habillage_v12_Sketch2
 62
1
100
AcDbSpline
 70
8
 71
3
 72
8
 73
4
 74
0
 40
0
 40
0
 40
0
 40
0
 40
1
 40
1
 40
1
 40
1
 10
20.914429
 20
7.950011
 30
0.0
 10
20.914162
 20
7.199576
 30
0.0
 10
21.314362
 20
6.506031
 30
0.0
 10
21.964213
 20
6.130736
 30
0.0
  0
SPLINE
  5
124
100
AcDbEntity
  8
Habillage_v12_Sketch2
 62
1
100
AcDbSpline
 70
8
 71
3
 72
8
 73
4
 74
0
 40
0
 40
0
 40
0
 40
0
 40
1
 40
1
 40
1
 40
1
 10
21.964213
 20
6.130736
 30
0.0
 10
22.614065
 20
5.755442
 30
0.0
 10
23.414792
 20
5.755442
 30
0.0
 10
24.064644
 20
6.130736
 30
0.0
  0
SPLINE
  5
125
100
AcDbEntity
  8
Habillage_v12_Sketch2
 62
1
100
AcDbSpline
 70
8
 71
3
 72
8
 73
4
 74
0
 40
0
 40
0
 40
0
 40
0
 40
1
 40
1
 40
1
 40
1
 10
24.064644
 20
6.130736
 30
0.0
 10
24.714495
 20
6.506031
 30
0.0
 10
25.114695
 20
7.199576
 30
0.0
 10
25.114428
 20
7.950011
 30
0.0
  0
LINE
  5
126
100
AcDbEntity
  8
Habillage_v12_Sketch2
 62
1
100
AcDbLine
 10
25.114428
 20
7.950011
 30
0.0
 11
25.114428
 21
7.950011
 31
0.0
  0
SPLINE
  5
127
100
AcDbEntity
  8
Habillage_v12_Sketch2
 62
1
100
AcDbSpline
 70
8
 71
3
 72
8
 73
4
 74
0
 40
0
 40
0
 40
0
 40
0
 40
1
 40
1
 40
1
 40
1
 10
114.600000
 20
51.000000
 30
0.0
 10
114.600000
 20
51.750258
 30
0.0
 10
114.199743
 20
52.443525
 30
0.0
 10
113.550000
 20
52.818654
 30
0.0
  0
SPLINE
  5
128
100
AcDbEntity
  8
Habillage_v12_Sketch2
 62
1
100
AcDbSpline
 70
8
 71
3
 72
8
 73
4
 74
0
 40
0
 40
0
 40
0
 40
0
 40
1
 40
1
 40
1
 40
1
 10
113.550000
 20
52.818654
 30
0.0
 10
112.900258
 20
53.193783
 30
0.0
 10
112.099742
 20
53.193783
 30
0.0
 10
111.450000
 20
52.818654
 30
0.0
  0
SPLINE
  5
129
100
AcDbEntity
  8
Habillage_v12_Sketch2
 62
1
100
AcDbSpline
 70
8
 71
3
 72
8
 73
4
 74
0
 40
0
 40
0
 40
0
 40
0
 40
1
 40
1
 40
1
 40
1
 10
111.450000
 20
52.818654
 30
0.0
 10
110.800257
 20
52.443525
 30
0.0
 10
110.399999
 20
51.750258
 30
0.0
 10
110.399999
 20
51.000000
 30
0.0
  0
SPLINE
  5
12a
100
AcDbEntity
  8
Habillage_v12_Sketch2
 62
1
100
AcDbSpline
 70
8
 71
3
 72
8
 73
4
 74
0
 40
0
 40
0
 40
0
 40
0
 40
1
 40
1
 40
1
 40
1
 10
110.399999
 20
51.000000
 30
0.0
 10
110.399999
 20
50.249742
 30
0.0
 10
110.800257
 20
49.556475
 30
0.0
 10
111.450000
 20
49.181346
 30
0.0
  0
SPLINE
  5
12b
100
AcDbEntity
  8
Habillage_v12_Sketch2
 62
1
100
AcDbSpline
 70
8
 71
3
 72
8
 73
4
 74
0
 40
0
 40
0
 40
0
 40
0
 40
1
 40
1
 40
1
 40
1
 10
111.450000
 20
49.181346
 30
0.0
 10
112.099742
 20
48.806217
 30
0.0
 10
112.900258
 20
48.806217
 30
0.0
 10
113.550000
 20
49.181346
 30
0.0
  0
SPLINE
  5
12c
100
AcDbEntity
  8
Habillage_v12_Sketch2
 62
1
100
AcDbSpline
 70
8
 71
3
 72
8
 73
4
 74
0
 40
0
 40
0
 40
0
 40
0
 40
1
 40
1
 40
1
 40
1
 10
113.550000
 20
49.181346
 30
0.0
 10
114.199743
 20
49.556475
 30
0.0
 10
114.600000
 20
50.249742
 30
0.0
 10
114.600000
 20
51.000000
 30
0.0
  0
LINE
  5
12d
100
AcDbEntity
  8
Habillage_v12_Sketch2
 62
1
100
AcDbLine
 10
114.600000
 20
51.000000
 30
0.0
 11
114.600000
 21
51.000000
 31
0.0
  0
SPLINE
  5
12e
100
AcDbEntity
  8
Habillage_v12_Sketch2
 62
1
100
AcDbSpline
 70
8
 71
3
 72
8
 73
4
 74
0
 40
0
 40
0
 40
0
 40
0
 40
1
 40
1
 40
1
 40
1
 10
44.600000
 20
51.000000
 30
0.0
 10
44.600000
 20
51.750258
 30
0.0
 10
44.199742
 20
52.443525
 30
0.0
 10
43.550000
 20
52.818654
 30
0.0
  0
SPLINE
  5
12f
100
AcDbEntity
  8
Habillage_v12_Sketch2
 62
1
100
AcDbSpline
 70
8
 71
3
 72
8
 73
4
 74
0
 40
0
 40
0
 40
0
 40
0
 40
1
 40
1
 40
1
 40
1
 10
43.550000
 20
52.818654
 30
0.0
 10
42.900258
 20
53.193783
 30
0.0
 10
42.099742
 20
53.193783
 30
0.0
 10
41.449999
 20
52.818654
 30
0.0
  0
SPLINE
  5
130
100
AcDbEntity
  8
Habillage_v12_Sketch2
 62
1
100
AcDbSpline
 70
8
 71
3
 72
8
 73
4
 74
0
 40
0
 40
0
 40
0
 40
0
 40
1
 40
1
 40
1
 40
1
 10
41.449999
 20
52.818654
 30
0.0
 10
40.800257
 20
52.443525
 30
0.0
 10
40.399999
 20
51.750258
 30
0.0
 10
40.399999
 20
51.000000
 30
0.0
  0
SPLINE
  5
131
100
AcDbEntity
  8
Habillage_v12_Sketch2
 62
1
100
AcDbSpline
 70
8
 71
3
 72
8
 73
4
 74
0
 40
0
 40
0
 40
0
 40
0
 40
1
 40
1
 40
1
 40
1
 10
40.399999
 20
51.000000
 30
0.0
 10
40.399999
 20
50.249742
 30
0.0
 10
40.800257
 20
49.556475
 30
0.0
 10
41.449999
 20
49.181346
 30
0.0
  0
SPLINE
  5
132
100
AcDbEntity
  8
Habillage_v12_Sketch2
 62
1
100
AcDbSpline
 70
8
 71
3
 72
8
 73
4
 74
0
 40
0
 40
0
 40
0
 40
0
 40
1
 40
1
 40
1
 40
1
 10
41.449999
 20
49.181346
 30
0.0
 10
42.099742
 20
48.806217
 30
0.0
 10
42.900258
 20
48.806217
 30
0.0
 10
43.550000
 20
49.181346
 30
0.0
  0
SPLINE
  5
133
100
AcDbEntity
  8
Habillage_v12_Sketch2
 62
1
100
AcDbSpline
 70
8
 71
3
 72
8
 73
4
 74
0
 40
0
 40
0
 40
0
 40
0
 40
1
 40
1
 40
1
 40
1
 10
43.550000
 20
49.181346
 30
0.0
 10
44.199742
 20
49.556475
 30
0.0
 10
44.600000
 20
50.249742
 30
0.0
 10
44.600000
 20
51.000000
 30
0.0
  0
LINE
  5
134
100
AcDbEntity
  8
Habillage_v12_Sketch2
 62
1
100
AcDbLine
 10
44.600000
 20
51.000000
 30
0.0
 11
44.600000
 21
51.000000
 31
0.0
  0
SPLINE
  5
135
100
AcDbEntity
  8
Habillage_v12_Sketch2
 62
1
100
AcDbSpline
 70
8
 71
3
 72
8
 73
4
 74
0
 40
0
 40
0
 40
0
 40
0
 40
1
 40
1
 40
1
 40
1
 10
25.114428
 20
-14.549997
 30
0.0
 10
25.114695
 20
-13.799562
 30
0.0
 10
24.714495
 20
-13.106017
 30
0.0
 10
24.064644
 20
-12.730723
 30
0.0
  0
SPLINE
  5
136
100
AcDbEntity
  8
Habillage_v12_Sketch2
 62
1
100
AcDbSpline
 70
8
 71
3
 72
8
 73
4
 74
0
 40
0
 40
0
 40
0
 40
0
 40
1
 40
1
 40
1
 40
1
 10
24.064644
 20
-12.730723
 30
0.0
 10
23.414792
 20
-12.355428
 30
0.0
 10
22.614065
 20
-12.355428
 30
0.0
 10
21.964213
 20
-12.730723
 30
0.0
  0
SPLINE
  5
137
100
AcDbEntity
  8
Habillage_v12_Sketch2
 62
1
100
AcDbSpline
 70
8
 71
3
 72
8
 73
4
 74
0
 40
0
 40
0
 40
0
 40
0
 40
1
 40
1
 40
1
 40
1
 10
21.964213
 20
-12.730723
 30
0.0
 10
21.314362
 20
-13.106017
 30
0.0
 10
20.914162
 20
-13.799562
 30
0.0
 10
20.914429
 20
-14.549997
 30
0.0
  0
SPLINE
  5
138
100
AcDbEntity
  8
Habillage_v12_Sketch2
 62
1
100
AcDbSpline
 70
8
 71
3
 72
8
 73
4
 74
0
 40
0
 40
0
 40
0
 40
0
 40
1
 40
1
 40
1
 40
1
 10
20.914429
 20
-14.549997
 30
0.0
 10
20.914162
 20
-15.300432
 30
0.0
 10
21.314362
 20
-15.993977
 30
0.0
 10
21.964213
 20
-16.369272
 30
0.0
  0
SPLINE
  5
139
100
AcDbEntity
  8
Habillage_v12_Sketch2
 62
1
100
AcDbSpline
 70
8
 71
3
 72
8
 73
4
 74
0
 40
0
 40
0
 40
0
 40
0
 40
1
 40
1
 40
1
 40
1
 10
21.964213
 20
-16.369272
 30
0.0
 10
22.614065
 20
-16.744566
 30
0.0
 10
23.414792
 20
-16.744566
 30
0.0
 10
24.064644
 20
-16.369272
 30
0.0
  0
SPLINE
  5
13a
100
AcDbEntity
  8
Habillage_v12_Sketch2
 62
1
100
AcDbSpline
 70
8
 71
3
 72
8
 73
4
 74
0
 40
0
 40
0
 40
0
 40
0
 40
1
 40
1
 40
1
 40
1
 10
24.064644
 20
-16.369272
 30
0.0
 10
24.714495
 20
-15.993977
 30
0.0
 10
25.114695
 20
-15.300432
 30
0.0
 10
25.114428
 20
-14.549997
 30
0.0
  0
LINE
  5
13b
100
AcDbEntity
  8
Habillage_v12_Sketch2
 62
1
100
AcDbLine
 10
25.114428
 20
-14.549997
 30
0.0
 11
25.114428
 21
-14.549997
 31
0.0
  0
SPLINE
  5
13c
100
AcDbEntity
  8
Habillage_v12_Sketch2
 62
1
100
AcDbSpline
 70
8
 71
3
 72
8
 73
4
 74
0
 40
0
 40
0
 40
0
 40
0
 40
1
 40
1
 40
1
 40
1
 10
184.600001
 20
-51.000002
 30
0.0
 10
184.600001
 20
-50.249745
 30
0.0
 10
184.199743
 20
-49.556478
 30
0.0
 10
183.550000
 20
-49.181349
 30
0.0
  0
SPLINE
  5
13d
100
AcDbEntity
  8
Habillage_v12_Sketch2
 62
1
100
AcDbSpline
 70
8
 71
3
 72
8
 73
4
 74
0
 40
0
 40
0
 40
0
 40
0
 40
1
 40
1
 40
1
 40
1
 10
183.550000
 20
-49.181349
 30
0.0
 10
182.900258
 20
-48.806220
 30
0.0
 10
182.099742
 20
-48.806220
 30
0.0
 10
181.450000
 20
-49.181349
 30
0.0
  0
SPLINE
  5
13e
100
AcDbEntity
  8
Habillage_v12_Sketch2
 62
1
100
AcDbSpline
 70
8
 71
3
 72
8
 73
4
 74
0
 40
0
 40
0
 40
0
 40
0
 40
1
 40
1
 40
1
 40
1
 10
181.450000
 20
-49.181349
 30
0.0
 10
180.800257
 20
-49.556478
 30
0.0
 10
180.400000
 20
-50.249745
 30
0.0
 10
180.400000
 20
-51.000002
 30
0.0
  0
SPLINE
  5
13f
100
AcDbEntity
  8
Habillage_v12_Sketch2
 62
1
100
AcDbSpline
 70
8
 71
3
 72
8
 73
4
 74
0
 40
0
 40
0
 40
0
 40
0
 40
1
 40
1
 40
1
 40
1
 10
180.400000
 20
-51.000002
 30
0.0
 10
180.400000
 20
-51.750260
 30
0.0
 10
180.800257
 20
-52.443527
 30
0.0
 10
181.450000
 20
-52.818656
 30
0.0
  0
SPLINE
  5
140
100
AcDbEntity
  8
Habillage_v12_Sketch2
 62
1
100
AcDbSpline
 70
8
 71
3
 72
8
 73
4
 74
0
 40
0
 40
0
 40
0
 40
0
 40
1
 40
1
 40
1
 40
1
 10
181.450000
 20
-52.818656
 30
0.0
 10
182.099742
 20
-53.193785
 30
0.0
 10
182.900258
 20
-53.193785
 30
0.0
 10
183.550000
 20
-52.818656
 30
0.0
  0
SPLINE
  5
141
100
AcDbEntity
  8
Habillage_v12_Sketch2
 62
1
100
AcDbSpline
 70
8
 71
3
 72
8
 73
4
 74
0
 40
0
 40
0
 40
0
 40
0
 40
1
 40
1
 40
1
 40
1
 10
183.550000
 20
-52.818656
 30
0.0
 10
184.199743
 20
-52.443527
 30
0.0
 10
184.600001
 20
-51.750260
 30
0.0
 10
184.600001
 20
-51.000002
 30
0.0
  0
LINE
  5
142
100
AcDbEntity
  8
Habillage_v12_Sketch2
 62
1
100
AcDbLine
 10
184.600001
 20
-51.000002
 30
0.0
 11
184.600001
 21
-51.000002
 31
0.0
  0
SPLINE
  5
143
100
AcDbEntity
  8
Habillage_v12_Sketch2
 62
1
100
AcDbSpline
 70
8
 71
3
 72
8
 73
4
 74
0
 40
0
 40
0
 40
0
 40
0
 40
1
 40
1
 40
1
 40
1
 10
-165.400000
 20
-51.000002
 30
0.0
 10
-165.399348
 20
-50.249310
 30
0.0
 10
-165.799463
 20
-49.555362
 30
0.0
 10
-166.449473
 20
-49.179828
 30
0.0
  0
SPLINE
  5
144
100
AcDbEntity
  8
Habillage_v12_Sketch2
 62
1
100
AcDbSpline
 70
8
 71
3
 72
8
 73
4
 74
0
 40
0
 40
0
 40
0
 40
0
 40
1
 40
1
 40
1
 40
1
 10
-166.449473
 20
-49.179828
 30
0.0
 10
-167.099483
 20
-48.804293
 30
0.0
 10
-167.900517
 20
-48.804293
 30
0.0
 10
-168.550527
 20
-49.179828
 30
0.0
  0
SPLINE
  5
145
100
AcDbEntity
  8
Habillage_v12_Sketch2
 62
1
100
AcDbSpline
 70
8
 71
3
 72
8
 73
4
 74
0
 40
0
 40
0
 40
0
 40
0
 40
1
 40
1
 40
1
 40
1
 10
-168.550527
 20
-49.179828
 30
0.0
 10
-169.200537
 20
-49.555362
 30
0.0
 10
-169.600652
 20
-50.249310
 30
0.0
 10
-169.599999
 20
-51.000002
 30
0.0
  0
SPLINE
  5
146
100
AcDbEntity
  8
Habillage_v12_Sketch2
 62
1
100
AcDbSpline
 70
8
 71
3
 72
8
 73
4
 74
0
 40
0
 40
0
 40
0
 40
0
 40
1
 40
1
 40
1
 40
1
 10
-169.599999
 20
-51.000002
 30
0.0
 10
-169.600652
 20
-51.750695
 30
0.0
 10
-169.200537
 20
-52.444643
 30
0.0
 10
-168.550527
 20
-52.820177
 30
0.0
  0
SPLINE
  5
147
100
AcDbEntity
  8
Habillage_v12_Sketch2
 62
1
100
AcDbSpline
 70
8
 71
3
 72
8
 73
4
 74
0
 40
0
 40
0
 40
0
 40
0
 40
1
 40
1
 40
1
 40
1
 10
-168.550527
 20
-52.820177
 30
0.0
 10
-167.900517
 20
-53.195712
 30
0.0
 10
-167.099483
 20
-53.195712
 30
0.0
 10
-166.449473
 20
-52.820177
 30
0.0
  0
SPLINE
  5
148
100
AcDbEntity
  8
Habillage_v12_Sketch2
 62
1
100
AcDbSpline
 70
8
 71
3
 72
8
 73
4
 74
0
 40
0
 40
0
 40
0
 40
0
 40
1
 40
1
 40
1
 40
1
 10
-166.449473
 20
-52.820177
 30
0.0
 10
-165.799463
 20
-52.444643
 30
0.0
 10
-165.399348
 20
-51.750695
 30
0.0
 10
-165.400000
 20
-51.000002
 30
0.0
  0
LINE
  5
149
100
AcDbEntity
  8
Habillage_v12_Sketch2
 62
1
100
AcDbLine
 10
-165.400000
 20
-51.000002
 30
0.0
 11
-165.400000
 21
-51.000002
 31
0.0
  0
SPLINE
  5
14a
100
AcDbEntity
  8
Habillage_v12_Sketch2
 62
1
100
AcDbSpline
 70
8
 71
3
 72
8
 73
4
 74
0
 40
0
 40
0
 40
0
 40
0
 40
1
 40
1
 40
1
 40
1
 10
206.599999
 20
-0.000004
 30
0.0
 10
206.600652
 20
0.750688
 30
0.0
 10
206.200537
 20
1.444636
 30
0.0
 10
205.550527
 20
1.820171
 30
0.0
  0
SPLINE
  5
14b
100
AcDbEntity
  8
Habillage_v12_Sketch2
 62
1
100
AcDbSpline
 70
8
 71
3
 72
8
 73
4
 74
0
 40
0
 40
0
 40
0
 40
0
 40
1
 40
1
 40
1
 40
1
 10
205.550527
 20
1.820171
 30
0.0
 10
204.900517
 20
2.195706
 30
0.0
 10
204.099483
 20
2.195706
 30
0.0
 10
203.449473
 20
1.820171
 30
0.0
  0
SPLINE
  5
14c
100
AcDbEntity
  8
Habillage_v12_Sketch2
 62
1
100
AcDbSpline
 70
8
 71
3
 72
8
 73
4
 74
0
 40
0
 40
0
 40
0
 40
0
 40
1
 40
1
 40
1
 40
1
 10
203.449473
 20
1.820171
 30
0.0
 10
202.799463
 20
1.444636
 30
0.0
 10
202.399348
 20
0.750688
 30
0.0
 10
202.400001
 20
-0.000004
 30
0.0
  0
SPLINE
  5
14d
100
AcDbEntity
  8
Habillage_v12_Sketch2
 62
1
100
AcDbSpline
 70
8
 71
3
 72
8
 73
4
 74
0
 40
0
 40
0
 40
0
 40
0
 40
1
 40
1
 40
1
 40
1
 10
202.400001
 20
-0.000004
 30
0.0
 10
202.399348
 20
-0.750696
 30
0.0
 10
202.799463
 20
-1.444644
 30
0.0
 10
203.449473
 20
-1.820179
 30
0.0
  0
SPLINE
  5
14e
100
AcDbEntity
  8
Habillage_v12_Sketch2
 62
1
100
AcDbSpline
 70
8
 71
3
 72
8
 73
4
 74
0
 40
0
 40
0
 40
0
 40
0
 40
1
 40
1
 40
1
 40
1
 10
203.449473
 20
-1.820179
 30
0.0
 10
204.099483
 20
-2.195714
 30
0.0
 10
204.900517
 20
-2.195714
 30
0.0
 10
205.550527
 20
-1.820179
 30
0.0
  0
SPLINE
  5
14f
100
AcDbEntity
  8
Habillage_v12_Sketch2
 62
1
100
AcDbSpline
 70
8
 71
3
 72
8
 73
4
 74
0
 40
0
 40
0
 40
0
 40
0
 40
1
 40
1
 40
1
 40
1
 10
205.550527
 20
-1.820179
 30
0.0
 10
206.200537
 20
-1.444644
 30
0.0
 10
206.600652
 20
-0.750696
 30
0.0
 10
206.599999
 20
-0.000004
 30
0.0
  0
LINE
  5
150
100
AcDbEntity
  8
Habillage_v12_Sketch2
 62
1
100
AcDbLine
 10
206.599999
 20
-0.000004
 30
0.0
 11
206.599999
 21
-0.000004
 31
0.0
  0
SPLINE
  5
151
100
AcDbEntity
  8
Habillage_v12_Sketch2
 62
1
100
AcDbSpline
 70
8
 71
3
 72
8
 73
4
 74
0
 40
0
 40
0
 40
0
 40
0
 40
1
 40
1
 40
1
 40
1
 10
44.600000
 20
19.199988
 30
0.0
 10
44.600000
 20
19.950246
 30
0.0
 10
44.199742
 20
20.643513
 30
0.0
 10
43.550000
 20
21.018642
 30
0.0
  0
SPLINE
  5
152
100
AcDbEntity
  8
Habillage_v12_Sketch2
 62
1
100
AcDbSpline
 70
8
 71
3
 72
8
 73
4
 74
0
 40
0
 40
0
 40
0
 40
0
 40
1
 40
1
 40
1
 40
1
 10
43.550000
 20
21.018642
 30
0.0
 10
42.900258
 20
21.393771
 30
0.0
 10
42.099742
 20
21.393771
 30
0.0
 10
41.449999
 20
21.018642
 30
0.0
  0
SPLINE
  5
153
100
AcDbEntity
  8
Habillage_v12_Sketch2
 62
1
100
AcDbSpline
 70
8
 71
3
 72
8
 73
4
 74
0
 40
0
 40
0
 40
0
 40
0
 40
1
 40
1
 40
1
 40
1
 10
41.449999
 20
21.018642
 30
0.0
 10
40.800257
 20
20.643513
 30
0.0
 10
40.399999
 20
19.950246
 30
0.0
 10
40.399999
 20
19.199988
 30
0.0
  0
SPLINE
  5
154
100
AcDbEntity
  8
Habillage_v12_Sketch2
 62
1
100
AcDbSpline
 70
8
 71
3
 72
8
 73
4
 74
0
 40
0
 40
0
 40
0
 40
0
 40
1
 40
1
 40
1
 40
1
 10
40.399999
 20
19.199988
 30
0.0
 10
40.399999
 20
18.449730
 30
0.0
 10
40.800257
 20
17.756463
 30
0.0
 10
41.449999
 20
17.381335
 30
0.0
  0
SPLINE
  5
155
100
AcDbEntity
  8
Habillage_v12_Sketch2
 62
1
100
AcDbSpline
 70
8
 71
3
 72
8
 73
4
 74
0
 40
0
 40
0
 40
0
 40
0
 40
1
 40
1
 40
1
 40
1
 10
41.449999
 20
17.381335
 30
0.0
 10
42.099742
 20
17.006206
 30
0.0
 10
42.900258
 20
17.006206
 30
0.0
 10
43.550000
 20
17.381335
 30
0.0
  0
SPLINE
  5
156
100
AcDbEntity
  8
Habillage_v12_Sketch2
 62
1
100
AcDbSpline
 70
8
 71
3
 72
8
 73
4
 74
0
 40
0
 40
0
 40
0
 40
0
 40
1
 40
1
 40
1
 40
1
 10
43.550000
 20
17.381335
 30
0.0
 10
44.199742
 20
17.756463
 30
0.0
 10
44.600000
 20
18.449730
 30
0.0
 10
44.600000
 20
19.199988
 30
0.0
  0
LINE
  5
157
100
AcDbEntity
  8
Habillage_v12_Sketch2
 62
1
100
AcDbLine
 10
44.600000
 20
19.199988
 30
0.0
 11
44.600000
 21
19.199988
 31
0.0
  0
SPLINE
  5
158
100
AcDbEntity
  8
Habillage_v12_Sketch2
 62
1
100
AcDbSpline
 70
8
 71
3
 72
8
 73
4
 74
0
 40
0
 40
0
 40
0
 40
0
 40
1
 40
1
 40
1
 40
1
 10
-95.400000
 20
-51.000002
 30
0.0
 10
-95.399348
 20
-50.249310
 30
0.0
 10
-95.799462
 20
-49.555362
 30
0.0
 10
-96.449472
 20
-49.179828
 30
0.0
  0
SPLINE
  5
159
100
AcDbEntity
  8
Habillage_v12_Sketch2
 62
1
100
AcDbSpline
 70
8
 71
3
 72
8
 73
4
 74
0
 40
0
 40
0
 40
0
 40
0
 40
1
 40
1
 40
1
 40
1
 10
-96.449472
 20
-49.179828
 30
0.0
 10
-97.099483
 20
-48.804293
 30
0.0
 10
-97.900516
 20
-48.804293
 30
0.0
 10
-98.550527
 20
-49.179828
 30
0.0
  0
SPLINE
  5
15a
100
AcDbEntity
  8
Habillage_v12_Sketch2
 62
1
100
AcDbSpline
 70
8
 71
3
 72
8
 73
4
 74
0
 40
0
 40
0
 40
0
 40
0
 40
1
 40
1
 40
1
 40
1
 10
-98.550527
 20
-49.179828
 30
0.0
 10
-99.200537
 20
-49.555362
 30
0.0
 10
-99.600651
 20
-50.249310
 30
0.0
 10
-99.599999
 20
-51.000002
 30
0.0
  0
SPLINE
  5
15b
100
AcDbEntity
  8
Habillage_v12_Sketch2
 62
1
100
AcDbSpline
 70
8
 71
3
 72
8
 73
4
 74
0
 40
0
 40
0
 40
0
 40
0
 40
1
 40
1
 40
1
 40
1
 10
-99.599999
 20
-51.000002
 30
0.0
 10
-99.600651
 20
-51.750695
 30
0.0
 10
-99.200537
 20
-52.444643
 30
0.0
 10
-98.550527
 20
-52.820177
 30
0.0
  0
SPLINE
  5
15c
100
AcDbEntity
  8
Habillage_v12_Sketch2
 62
1
100
AcDbSpline
 70
8
 71
3
 72
8
 73
4
 74
0
 40
0
 40
0
 40
0
 40
0
 40
1
 40
1
 40
1
 40
1
 10
-98.550527
 20
-52.820177
 30
0.0
 10
-97.900516
 20
-53.195712
 30
0.0
 10
-97.099483
 20
-53.195712
 30
0.0
 10
-96.449472
 20
-52.820177
 30
0.0
  0
SPLINE
  5
15d
100
AcDbEntity
  8
Habillage_v12_Sketch2
 62
1
100
AcDbSpline
 70
8
 71
3
 72
8
 73
4
 74
0
 40
0
 40
0
 40
0
 40
0
 40
1
 40
1
 40
1
 40
1
 10
-96.449472
 20
-52.820177
 30
0.0
 10
-95.799462
 20
-52.444643
 30
0.0
 10
-95.399348
 20
-51.750695
 30
0.0
 10
-95.400000
 20
-51.000002
 30
0.0
  0
LINE
  5
15e
100
AcDbEntity
  8
Habillage_v12_Sketch2
 62
1
100
AcDbLine
 10
-95.400000
 20
-51.000002
 30
0.0
 11
-95.400000
 21
-51.000002
 31
0.0
  0
SPLINE
  5
15f
100
AcDbEntity
  8
Habillage_v12_Sketch2
 62
1
100
AcDbSpline
 70
8
 71
3
 72
8
 73
4
 74
0
 40
0
 40
0
 40
0
 40
0
 40
1
 40
1
 40
1
 40
1
 10
44.600000
 20
-25.800001
 30
0.0
 10
44.600000
 20
-25.049743
 30
0.0
 10
44.199742
 20
-24.356476
 30
0.0
 10
43.550000
 20
-23.981347
 30
0.0
  0
SPLINE
  5
160
100
AcDbEntity
  8
Habillage_v12_Sketch2
 62
1
100
AcDbSpline
 70
8
 71
3
 72
8
 73
4
 74
0
 40
0
 40
0
 40
0
 40
0
 40
1
 40
1
 40
1
 40
1
 10
43.550000
 20
-23.981347
 30
0.0
 10
42.900258
 20
-23.606218
 30
0.0
 10
42.099742
 20
-23.606218
 30
0.0
 10
41.449999
 20
-23.981347
 30
0.0
  0
SPLINE
  5
161
100
AcDbEntity
  8
Habillage_v12_Sketch2
 62
1
100
AcDbSpline
 70
8
 71
3
 72
8
 73
4
 74
0
 40
0
 40
0
 40
0
 40
0
 40
1
 40
1
 40
1
 40
1
 10
41.449999
 20
-23.981347
 30
0.0
 10
40.800257
 20
-24.356476
 30
0.0
 10
40.399999
 20
-25.049743
 30
0.0
 10
40.399999
 20
-25.800001
 30
0.0
  0
SPLINE
  5
162
100
AcDbEntity
  8
Habillage_v12_Sketch2
 62
1
100
AcDbSpline
 70
8
 71
3
 72
8
 73
4
 74
0
 40
0
 40
0
 40
0
 40
0
 40
1
 40
1
 40
1
 40
1
 10
40.399999
 20
-25.800001
 30
0.0
 10
40.399999
 20
-26.550259
 30
0.0
 10
40.800257
 20
-27.243526
 30
0.0
 10
41.449999
 20
-27.618655
 30
0.0
  0
SPLINE
  5
163
100
AcDbEntity
  8
Habillage_v12_Sketch2
 62
1
100
AcDbSpline
 70
8
 71
3
 72
8
 73
4
 74
0
 40
0
 40
0
 40
0
 40
0
 40
1
 40
1
 40
1
 40
1
 10
41.449999
 20
-27.618655
 30
0.0
 10
42.099742
 20
-27.993784
 30
0.0
 10
42.900258
 20
-27.993784
 30
0.0
 10
43.550000
 20
-27.618655
 30
0.0
  0
SPLINE
  5
164
100
AcDbEntity
  8
Habillage_v12_Sketch2
 62
1
100
AcDbSpline
 70
8
 71
3
 72
8
 73
4
 74
0
 40
0
 40
0
 40
0
 40
0
 40
1
 40
1
 40
1
 40
1
 10
43.550000
 20
-27.618655
 30
0.0
 10
44.199742
 20
-27.243526
 30
0.0
 10
44.600000
 20
-26.550259
 30
0.0
 10
44.600000
 20
-25.800001
 30
0.0
  0
LINE
  5
165
100
AcDbEntity
  8
Habillage_v12_Sketch2
 62
1
100
AcDbLine
 10
44.600000
 20
-25.800001
 30
0.0
 11
44.600000
 21
-25.800001
 31
0.0
  0
SPLINE
  5
166
100
AcDbEntity
  8
Habillage_v12_Sketch2
 62
1
100
AcDbSpline
 70
8
 71
3
 72
8
 73
4
 74
0
 40
0
 40
0
 40
0
 40
0
 40
1
 40
1
 40
1
 40
1
 10
-25.400000
 20
-51.000002
 30
0.0
 10
-25.400000
 20
-50.249745
 30
0.0
 10
-25.800258
 20
-49.556478
 30
0.0
 10
-26.450000
 20
-49.181349
 30
0.0
  0
SPLINE
  5
167
100
AcDbEntity
  8
Habillage_v12_Sketch2
 62
1
100
AcDbSpline
 70
8
 71
3
 72
8
 73
4
 74
0
 40
0
 40
0
 40
0
 40
0
 40
1
 40
1
 40
1
 40
1
 10
-26.450000
 20
-49.181349
 30
0.0
 10
-27.099743
 20
-48.806220
 30
0.0
 10
-27.900258
 20
-48.806220
 30
0.0
 10
-28.550001
 20
-49.181349
 30
0.0
  0
SPLINE
  5
168
100
AcDbEntity
  8
Habillage_v12_Sketch2
 62
1
100
AcDbSpline
 70
8
 71
3
 72
8
 73
4
 74
0
 40
0
 40
0
 40
0
 40
0
 40
1
 40
1
 40
1
 40
1
 10
-28.550001
 20
-49.181349
 30
0.0
 10
-29.199743
 20
-49.556478
 30
0.0
 10
-29.600001
 20
-50.249745
 30
0.0
 10
-29.600001
 20
-51.000002
 30
0.0
  0
SPLINE
  5
169
100
AcDbEntity
  8
Habillage_v12_Sketch2
 62
1
100
AcDbSpline
 70
8
 71
3
 72
8
 73
4
 74
0
 40
0
 40
0
 40
0
 40
0
 40
1
 40
1
 40
1
 40
1
 10
-29.600001
 20
-51.000002
 30
0.0
 10
-29.600001
 20
-51.750260
 30
0.0
 10
-29.199743
 20
-52.443527
 30
0.0
 10
-28.550001
 20
-52.818656
 30
0.0
  0
SPLINE
  5
16a
100
AcDbEntity
  8
Habillage_v12_Sketch2
 62
1
100
AcDbSpline
 70
8
 71
3
 72
8
 73
4
 74
0
 40
0
 40
0
 40
0
 40
0
 40
1
 40
1
 40
1
 40
1
 10
-28.550001
 20
-52.818656
 30
0.0
 10
-27.900258
 20
-53.193785
 30
0.0
 10
-27.099743
 20
-53.193785
 30
0.0
 10
-26.450000
 20
-52.818656
 30
0.0
  0
SPLINE
  5
16b
100
AcDbEntity
  8
Habillage_v12_Sketch2
 62
1
100
AcDbSpline
 70
8
 71
3
 72
8
 73
4
 74
0
 40
0
 40
0
 40
0
 40
0
 40
1
 40
1
 40
1
 40
1
 10
-26.450000
 20
-52.818656
 30
0.0
 10
-25.800258
 20
-52.443527
 30
0.0
 10
-25.400000
 20
-51.750260
 30
0.0
 10
-25.400000
 20
-51.000002
 30
0.0
  0
LINE
  5
16c
100
AcDbEntity
  8
Habillage_v12_Sketch2
 62
1
100
AcDbLine
 10
-25.400000
 20
-51.000002
 30
0.0
 11
-25.400000
 21
-51.000002
 31
0.0
  0
SPLINE
  5
16d
100
AcDbEntity
  8
Habillage_v12_Sketch2
 62
1
100
AcDbSpline
 70
8
 71
3
 72
8
 73
4
 74
0
 40
0
 40
0
 40
0
 40
0
 40
1
 40
1
 40
1
 40
1
 10
64.085571
 20
7.950011
 30
0.0
 10
64.086223
 20
8.700703
 30
0.0
 10
63.686108
 20
9.394651
 30
0.0
 10
63.036098
 20
9.770186
 30
0.0
  0
SPLINE
  5
16e
100
AcDbEntity
  8
Habillage_v12_Sketch2
 62
1
100
AcDbSpline
 70
8
 71
3
 72
8
 73
4
 74
0
 40
0
 40
0
 40
0
 40
0
 40
1
 40
1
 40
1
 40
1
 10
63.036098
 20
9.770186
 30
0.0
 10
62.386088
 20
10.145720
 30
0.0
 10
61.585054
 20
10.145720
 30
0.0
 10
60.935044
 20
9.770186
 30
0.0
  0
SPLINE
  5
16f
100
AcDbEntity
  8
Habillage_v12_Sketch2
 62
1
100
AcDbSpline
 70
8
 71
3
 72
8
 73
4
 74
0
 40
0
 40
0
 40
0
 40
0
 40
1
 40
1
 40
1
 40
1
 10
60.935044
 20
9.770186
 30
0.0
 10
60.285034
 20
9.394651
 30
0.0
 10
59.884919
 20
8.700703
 30
0.0
 10
59.885572
 20
7.950011
 30
0.0
  0
SPLINE
  5
170
100
AcDbEntity
  8
Habillage_v12_Sketch2
 62
1
100
AcDbSpline
 70
8
 71
3
 72
8
 73
4
 74
0
 40
0
 40
0
 40
0
 40
0
 40
1
 40
1
 40
1
 40
1
 10
59.885572
 20
7.950011
 30
0.0
 10
59.884919
 20
7.199318
 30
0.0
 10
60.285034
 20
6.505371
 30
0.0
 10
60.935044
 20
6.129836
 30
0.0
  0
SPLINE
  5
171
100
AcDbEntity
  8
Habillage_v12_Sketch2
 62
1
100
AcDbSpline
 70
8
 71
3
 72
8
 73
4
 74
0
 40
0
 40
0
 40
0
 40
0
 40
1
 40
1
 40
1
 40
1
 10
60.935044
 20
6.129836
 30
0.0
 10
61.585054
 20
5.754301
 30
0.0
 10
62.386088
 20
5.754301
 30
0.0
 10
63.036098
 20
6.129836
 30
0.0
  0
SPLINE
  5
172
100
AcDbEntity
  8
Habillage_v12_Sketch2
 62
1
100
AcDbSpline
 70
8
 71
3
 72
8
 73
4
 74
0
 40
0
 40
0
 40
0
 40
0
 40
1
 40
1
 40
1
 40
1
 10
63.036098
 20
6.129836
 30
0.0
 10
63.686108
 20
6.505371
 30
0.0
 10
64.086223
 20
7.199318
 30
0.0
 10
64.085571
 20
7.950011
 30
0.0
  0
LINE
  5
173
100
AcDbEntity
  8
Habillage_v12_Sketch2
 62
1
100
AcDbLine
 10
64.085571
 20
7.950011
 30
0.0
 11
64.085571
 21
7.950011
 31
0.0
  0
SPLINE
  5
174
100
AcDbEntity
  8
Habillage_v12_Sketch2
 62
1
100
AcDbSpline
 70
8
 71
3
 72
8
 73
4
 74
0
 40
0
 40
0
 40
0
 40
0
 40
1
 40
1
 40
1
 40
1
 10
-165.400000
 20
51.000000
 30
0.0
 10
-165.399348
 20
51.750692
 30
0.0
 10
-165.799463
 20
52.444640
 30
0.0
 10
-166.449473
 20
52.820175
 30
0.0
  0
SPLINE
  5
175
100
AcDbEntity
  8
Habillage_v12_Sketch2
 62
1
100
AcDbSpline
 70
8
 71
3
 72
8
 73
4
 74
0
 40
0
 40
0
 40
0
 40
0
 40
1
 40
1
 40
1
 40
1
 10
-166.449473
 20
52.820175
 30
0.0
 10
-167.099483
 20
53.195709
 30
0.0
 10
-167.900517
 20
53.195709
 30
0.0
 10
-168.550527
 20
52.820175
 30
0.0
  0
SPLINE
  5
176
100
AcDbEntity
  8
Habillage_v12_Sketch2
 62
1
100
AcDbSpline
 70
8
 71
3
 72
8
 73
4
 74
0
 40
0
 40
0
 40
0
 40
0
 40
1
 40
1
 40
1
 40
1
 10
-168.550527
 20
52.820175
 30
0.0
 10
-169.200537
 20
52.444640
 30
0.0
 10
-169.600652
 20
51.750692
 30
0.0
 10
-169.599999
 20
51.000000
 30
0.0
  0
SPLINE
  5
177
100
AcDbEntity
  8
Habillage_v12_Sketch2
 62
1
100
AcDbSpline
 70
8
 71
3
 72
8
 73
4
 74
0
 40
0
 40
0
 40
0
 40
0
 40
1
 40
1
 40
1
 40
1
 10
-169.599999
 20
51.000000
 30
0.0
 10
-169.600652
 20
50.249308
 30
0.0
 10
-169.200537
 20
49.555360
 30
0.0
 10
-168.550527
 20
49.179825
 30
0.0
  0
SPLINE
  5
178
100
AcDbEntity
  8
Habillage_v12_Sketch2
 62
1
100
AcDbSpline
 70
8
 71
3
 72
8
 73
4
 74
0
 40
0
 40
0
 40
0
 40
0
 40
1
 40
1
 40
1
 40
1
 10
-168.550527
 20
49.179825
 30
0.0
 10
-167.900517
 20
48.804290
 30
0.0
 10
-167.099483
 20
48.804290
 30
0.0
 10
-166.449473
 20
49.179825
 30
0.0
  0
SPLINE
  5
179
100
AcDbEntity
  8
Habillage_v12_Sketch2
 62
1
100
AcDbSpline
 70
8
 71
3
 72
8
 73
4
 74
0
 40
0
 40
0
 40
0
 40
0
 40
1
 40
1
 40
1
 40
1
 10
-166.449473
 20
49.179825
 30
0.0
 10
-165.799463
 20
49.555360
 30
0.0
 10
-165.399348
 20
50.249308
 30
0.0
 10
-165.400000
 20
51.000000
 30
0.0
  0
LINE
  5
17a
100
AcDbEntity
  8
Habillage_v12_Sketch2
 62
1
100
AcDbLine
 10
-165.400000
 20
51.000000
 30
0.0
 11
-165.400000
 21
51.000000
 31
0.0
  0
SPLINE
  5
17b
100
AcDbEntity
  8
Habillage_v12_Sketch2
 62
1
100
AcDbSpline
 70
8
 71
3
 72
8
 73
4
 74
0
 40
0
 40
0
 40
0
 40
0
 40
1
 40
1
 40
1
 40
1
 10
-25.400000
 20
51.000000
 30
0.0
 10
-25.400000
 20
51.750258
 30
0.0
 10
-25.800258
 20
52.443525
 30
0.0
 10
-26.450000
 20
52.818654
 30
0.0
  0
SPLINE
  5
17c
100
AcDbEntity
  8
Habillage_v12_Sketch2
 62
1
100
AcDbSpline
 70
8
 71
3
 72
8
 73
4
 74
0
 40
0
 40
0
 40
0
 40
0
 40
1
 40
1
 40
1
 40
1
 10
-26.450000
 20
52.818654
 30
0.0
 10
-27.099743
 20
53.193783
 30
0.0
 10
-27.900258
 20
53.193783
 30
0.0
 10
-28.550001
 20
52.818654
 30
0.0
  0
SPLINE
  5
17d
100
AcDbEntity
  8
Habillage_v12_Sketch2
 62
1
100
AcDbSpline
 70
8
 71
3
 72
8
 73
4
 74
0
 40
0
 40
0
 40
0
 40
0
 40
1
 40
1
 40
1
 40
1
 10
-28.550001
 20
52.818654
 30
0.0
 10
-29.199743
 20
52.443525
 30
0.0
 10
-29.600001
 20
51.750258
 30
0.0
 10
-29.600001
 20
51.000000
 30
0.0
  0
SPLINE
  5
17e
100
AcDbEntity
  8
Habillage_v12_Sketch2
 62
1
100
AcDbSpline
 70
8
 71
3
 72
8
 73
4
 74
0
 40
0
 40
0
 40
0
 40
0
 40
1
 40
1
 40
1
 40
1
 10
-29.600001
 20
51.000000
 30
0.0
 10
-29.600001
 20
50.249742
 30
0.0
 10
-29.199743
 20
49.556475
 30
0.0
 10
-28.550001
 20
49.181346
 30
0.0
  0
SPLINE
  5
17f
100
AcDbEntity
  8
Habillage_v12_Sketch2
 62
1
100
AcDbSpline
 70
8
 71
3
 72
8
 73
4
 74
0
 40
0
 40
0
 40
0
 40
0
 40
1
 40
1
 40
1
 40
1
 10
-28.550001
 20
49.181346
 30
0.0
 10
-27.900258
 20
48.806217
 30
0.0
 10
-27.099743
 20
48.806217
 30
0.0
 10
-26.450000
 20
49.181346
 30
0.0
  0
SPLINE
  5
180
100
AcDbEntity
  8
Habillage_v12_Sketch2
 62
1
100
AcDbSpline
 70
8
 71
3
 72
8
 73
4
 74
0
 40
0
 40
0
 40
0
 40
0
 40
1
 40
1
 40
1
 40
1
 10
-26.450000
 20
49.181346
 30
0.0
 10
-25.800258
 20
49.556475
 30
0.0
 10
-25.400000
 20
50.249742
 30
0.0
 10
-25.400000
 20
51.000000
 30
0.0
  0
LINE
  5
181
100
AcDbEntity
  8
Habillage_v12_Sketch2
 62
1
100
AcDbLine
 10
-25.400000
 20
51.000000
 30
0.0
 11
-25.400000
 21
51.000000
 31
0.0
  0
SPLINE
  5
182
100
AcDbEntity
  8
Habillage_v12_Sketch2
 62
1
100
AcDbSpline
 70
8
 71
3
 72
8
 73
4
 74
0
 40
0
 40
0
 40
0
 40
0
 40
1
 40
1
 40
1
 40
1
 10
-202.400001
 20
-0.000004
 30
0.0
 10
-202.399348
 20
0.750688
 30
0.0
 10
-202.799463
 20
1.444636
 30
0.0
 10
-203.449473
 20
1.820171
 30
0.0
  0
SPLINE
  5
183
100
AcDbEntity
  8
Habillage_v12_Sketch2
 62
1
100
AcDbSpline
 70
8
 71
3
 72
8
 73
4
 74
0
 40
0
 40
0
 40
0
 40
0
 40
1
 40
1
 40
1
 40
1
 10
-203.449473
 20
1.820171
 30
0.0
 10
-204.099483
 20
2.195706
 30
0.0
 10
-204.900517
 20
2.195706
 30
0.0
 10
-205.550527
 20
1.820171
 30
0.0
  0
SPLINE
  5
184
100
AcDbEntity
  8
Habillage_v12_Sketch2
 62
1
100
AcDbSpline
 70
8
 71
3
 72
8
 73
4
 74
0
 40
0
 40
0
 40
0
 40
0
 40
1
 40
1
 40
1
 40
1
 10
-205.550527
 20
1.820171
 30
0.0
 10
-206.200537
 20
1.444636
 30
0.0
 10
-206.600652
 20
0.750688
 30
0.0
 10
-206.599999
 20
-0.000004
 30
0.0
  0
SPLINE
  5
185
100
AcDbEntity
  8
Habillage_v12_Sketch2
 62
1
100
AcDbSpline
 70
8
 71
3
 72
8
 73
4
 74
0
 40
0
 40
0
 40
0
 40
0
 40
1
 40
1
 40
1
 40
1
 10
-206.599999
 20
-0.000004
 30
0.0
 10
-206.600652
 20
-0.750696
 30
0.0
 10
-206.200537
 20
-1.444644
 30
0.0
 10
-205.550527
 20
-1.820179
 30
0.0
  0
SPLINE
  5
186
100
AcDbEntity
  8
Habillage_v12_Sketch2
 62
1
100
AcDbSpline
 70
8
 71
3
 72
8
 73
4
 74
0
 40
0
 40
0
 40
0
 40
0
 40
1
 40
1
 40
1
 40
1
 10
-205.550527
 20
-1.820179
 30
0.0
 10
-204.900517
 20
-2.195714
 30
0.0
 10
-204.099483
 20
-2.195714
 30
0.0
 10
-203.449473
 20
-1.820179
 30
0.0
  0
SPLINE
  5
187
100
AcDbEntity
  8
Habillage_v12_Sketch2
 62
1
100
AcDbSpline
 70
8
 71
3
 72
8
 73
4
 74
0
 40
0
 40
0
 40
0
 40
0
 40
1
 40
1
 40
1
 40
1
 10
-203.449473
 20
-1.820179
 30
0.0
 10
-202.799463
 20
-1.444644
 30
0.0
 10
-202.399348
 20
-0.750696
 30
0.0
 10
-202.400001
 20
-0.000004
 30
0.0
  0
LINE
  5
188
100
AcDbEntity
  8
Habillage_v12_Sketch2
 62
1
100
AcDbLine
 10
-202.400001
 20
-0.000004
 30
0.0
 11
-202.400001
 21
-0.000004
 31
0.0
  0
SPLINE
  5
189
100
AcDbEntity
  8
Habillage_v12_Sketch2
 62
1
100
AcDbSpline
 70
8
 71
3
 72
8
 73
4
 74
0
 40
0
 40
0
 40
0
 40
0
 40
1
 40
1
 40
1
 40
1
 10
184.600001
 20
51.000000
 30
0.0
 10
184.600001
 20
51.750258
 30
0.0
 10
184.199743
 20
52.443525
 30
0.0
 10
183.550000
 20
52.818654
 30
0.0
  0
SPLINE
  5
18a
100
AcDbEntity
  8
Habillage_v12_Sketch2
 62
1
100
AcDbSpline
 70
8
 71
3
 72
8
 73
4
 74
0
 40
0
 40
0
 40
0
 40
0
 40
1
 40
1
 40
1
 40
1
 10
183.550000
 20
52.818654
 30
0.0
 10
182.900258
 20
53.193783
 30
0.0
 10
182.099742
 20
53.193783
 30
0.0
 10
181.450000
 20
52.818654
 30
0.0
  0
SPLINE
  5
18b
100
AcDbEntity
  8
Habillage_v12_Sketch2
 62
1
100
AcDbSpline
 70
8
 71
3
 72
8
 73
4
 74
0
 40
0
 40
0
 40
0
 40
0
 40
1
 40
1
 40
1
 40
1
 10
181.450000
 20
52.818654
 30
0.0
 10
180.800257
 20
52.443525
 30
0.0
 10
180.400000
 20
51.750258
 30
0.0
 10
180.400000
 20
51.000000
 30
0.0
  0
SPLINE
  5
18c
100
AcDbEntity
  8
Habillage_v12_Sketch2
 62
1
100
AcDbSpline
 70
8
 71
3
 72
8
 73
4
 74
0
 40
0
 40
0
 40
0
 40
0
 40
1
 40
1
 40
1
 40
1
 10
180.400000
 20
51.000000
 30
0.0
 10
180.400000
 20
50.249742
 30
0.0
 10
180.800257
 20
49.556475
 30
0.0
 10
181.450000
 20
49.181346
 30
0.0
  0
SPLINE
  5
18d
100
AcDbEntity
  8
Habillage_v12_Sketch2
 62
1
100
AcDbSpline
 70
8
 71
3
 72
8
 73
4
 74
0
 40
0
 40
0
 40
0
 40
0
 40
1
 40
1
 40
1
 40
1
 10
181.450000
 20
49.181346
 30
0.0
 10
182.099742
 20
48.806217
 30
0.0
 10
182.900258
 20
48.806217
 30
0.0
 10
183.550000
 20
49.181346
 30
0.0
  0
SPLINE
  5
18e
100
AcDbEntity
  8
Habillage_v12_Sketch2
 62
1
100
AcDbSpline
 70
8
 71
3
 72
8
 73
4
 74
0
 40
0
 40
0
 40
0
 40
0
 40
1
 40
1
 40
1
 40
1
 10
183.550000
 20
49.181346
 30
0.0
 10
184.199743
 20
49.556475
 30
0.0
 10
184.600001
 20
50.249742
 30
0.0
 10
184.600001
 20
51.000000
 30
0.0
  0
LINE
  5
18f
100
AcDbEntity
  8
Habillage_v12_Sketch2
 62
1
100
AcDbLine
 10
184.600001
 20
51.000000
 30
0.0
 11
184.600001
 21
51.000000
 31
0.0
  0
SPLINE
  5
190
100
AcDbEntity
  8
Habillage_v12_Sketch2
 62
1
100
AcDbSpline
 70
8
 71
3
 72
8
 73
4
 74
0
 40
0
 40
0
 40
0
 40
0
 40
1
 40
1
 40
1
 40
1
 10
64.085571
 20
-14.549997
 30
0.0
 10
64.086223
 20
-13.799305
 30
0.0
 10
63.686108
 20
-13.105357
 30
0.0
 10
63.036098
 20
-12.729822
 30
0.0
  0
SPLINE
  5
191
100
AcDbEntity
  8
Habillage_v12_Sketch2
 62
1
100
AcDbSpline
 70
8
 71
3
 72
8
 73
4
 74
0
 40
0
 40
0
 40
0
 40
0
 40
1
 40
1
 40
1
 40
1
 10
63.036098
 20
-12.729822
 30
0.0
 10
62.386088
 20
-12.354288
 30
0.0
 10
61.585054
 20
-12.354288
 30
0.0
 10
60.935044
 20
-12.729822
 30
0.0
  0
SPLINE
  5
192
100
AcDbEntity
  8
Habillage_v12_Sketch2
 62
1
100
AcDbSpline
 70
8
 71
3
 72
8
 73
4
 74
0
 40
0
 40
0
 40
0
 40
0
 40
1
 40
1
 40
1
 40
1
 10
60.935044
 20
-12.729822
 30
0.0
 10
60.285034
 20
-13.105357
 30
0.0
 10
59.884919
 20
-13.799305
 30
0.0
 10
59.885572
 20
-14.549997
 30
0.0
  0
SPLINE
  5
193
100
AcDbEntity
  8
Habillage_v12_Sketch2
 62
1
100
AcDbSpline
 70
8
 71
3
 72
8
 73
4
 74
0
 40
0
 40
0
 40
0
 40
0
 40
1
 40
1
 40
1
 40
1
 10
59.885572
 20
-14.549997
 30
0.0
 10
59.884919
 20
-15.300689
 30
0.0
 10
60.285034
 20
-15.994637
 30
0.0
 10
60.935044
 20
-16.370172
 30
0.0
  0
SPLINE
  5
194
100
AcDbEntity
  8
Habillage_v12_Sketch2
 62
1
100
AcDbSpline
 70
8
 71
3
 72
8
 73
4
 74
0
 40
0
 40
0
 40
0
 40
0
 40
1
 40
1
 40
1
 40
1
 10
60.935044
 20
-16.370172
 30
0.0
 10
61.585054
 20
-16.745707
 30
0.0
 10
62.386088
 20
-16.745707
 30
0.0
 10
63.036098
 20
-16.370172
 30
0.0
  0
SPLINE
  5
195
100
AcDbEntity
  8
Habillage_v12_Sketch2
 62
1
100
AcDbSpline
 70
8
 71
3
 72
8
 73
4
 74
0
 40
0
 40
0
 40
0
 40
0
 40
1
 40
1
 40
1
 40
1
 10
63.036098
 20
-16.370172
 30
0.0
 10
63.686108
 20
-15.994637
 30
0.0
 10
64.086223
 20
-15.300689
 30
0.0
 10
64.085571
 20
-14.549997
 30
0.0
  0
LINE
  5
196
100
AcDbEntity
  8
Habillage_v12_Sketch2
 62
1
100
AcDbLine
 10
64.085571
 20
-14.549997
 30
0.0
 11
64.085571
 21
-14.549997
 31
0.0
  0
ENDSEC
  0
SECTION
  2
OBJECTS
  0
DICTIONARY
  5
C
330
0
100
AcDbDictionary
  3
ACAD_GROUP
350
D
  3
ACAD_MLINESTYLE
350
17
  0
DICTIONARY
  5
D
330
C
100
AcDbDictionary
  0
DICTIONARY
  5
1A
330
C
100
AcDbDictionary
  0
DICTIONARY
  5
17
330
C
100
AcDbDictionary
  3
STANDARD
350
18
  0
DICTIONARY
  5
19
330
C
100
AcDbDictionary
  0
ENDSEC
  0
EOF
