0
SECTION
2
HEADER
9
$INSUNITS
70
4
9
$ACADVER
1
AC1014
9
$HANDSEED
5
FFFF
0
ENDSEC
0
SECTION
2
TABLES
0
TABLE
2
VPORT
5
8
100
AcDbSymbolTable
0
ENDTAB
0
TABLE
2
LTYPE
5
5
100
AcDbSymbolTable
0
LTYPE
5
14
100
AcDbSymbolTableRecord
100
AcDbLinetypeTableRecord
2
BYBLOCK
70
0
0
LTYPE
5
15
100
AcDbSymbolTableRecord
100
AcDbLinetypeTableRecord
2
BYLAYER
70
0
0
ENDTAB
0
TABLE
2
LAYER
5
2
100
AcDbSymbolTable
70
2
0
LAYER
5
50
100
AcDbSymbolTableRecord
100
AcDbLayerTableRecord
2
0
70
0
6
CONTINUOUS
0
ENDTAB
0
TABLE
2
STYLE
5
3
100
AcDbSymbolTable
70
1
0
STYLE
5
11
100
AcDbSymbolTableRecord
100
AcDbTextStyleTableRecord
2
STANDARD
70
0
0
ENDTAB
0
TABLE
2
VIEW
5
6
100
AcDbSymbolTable
70
0
0
ENDTAB
0
TABLE
2
UCS
5
7
100
AcDbSymbolTable
70
0
0
ENDTAB
0
TABLE
2
APPID
5
9
100
AcDbSymbolTable
70
2
0
APPID
5
12
100
AcDbSymbolTableRecord
100
AcDbRegAppTableRecord
2
ACAD
70
0
0
ENDTAB
0
TABLE
2
DIMSTYLE
5
A
100
AcDbSymbolTable
70
1
0
ENDTAB
0
TABLE
2
BLOCK_RECORD
5
1
100
AcDbSymbolTable
70
1
0
BLOCK_RECORD
5
1F
100
AcDbSymbolTableRecord
100
AcDbBlockTableRecord
2
*MODEL_SPACE
0
BLOCK_RECORD
5
1B
100
AcDbSymbolTableRecord
100
AcDbBlockTableRecord
2
*PAPER_SPACE
0
ENDTAB
0
ENDSEC
0
SECTION
2
BLOCKS
0
BLOCK
5
20
100
AcDbEntity
100
AcDbBlockBegin
2
*MODEL_SPACE
0
ENDBLK
5
21
100
AcDbEntity
100
AcDbBlockEnd
0
BLOCK
5
1C
100
AcDbEntity
100
AcDbBlockBegin
2
*PAPER_SPACE
0
ENDBLK
5
1D
100
AcDbEntity
100
AcDbBlockEnd
0
ENDSEC
0
SECTION
2
ENTITIES
0
LWPOLYLINE
5
100
100
AcDbEntity
8
0
100
AcDbPolyline
90
192
70
1
43
0.0
10
29.61232833538174
20
-53.330197923479965
10
30.11239713220337
20
-54.196342486854867
42
0.0041133957181750981
10
30.999999999999979
20
-53.693575034635202
10
30.499999999999975
20
-52.827549630850783
42
0.028551867171624251
10
36.319978426721846
20
-49.008766226895155
10
36.928823617433459
20
-49.802228727562856
42
0.0041133957181717241
10
37.743208598540654
20
-49.187907098056591
10
37.134447169531924
20
-48.394553757765379
42
0.028551867171624251
10
42.406183617380286
20
-43.848780952371158
10
43.113387691965066
20
-44.555985026955874
42
0.0041133957181784721
10
43.840620433565917
20
-43.840620433565974
10
43.133513652379349
20
-43.133513652379428
42
0.028551867171624497
10
47.766807249130103
20
-37.938530878573189
10
48.560269749797854
20
-38.547376069284766
42
0.0041133957181750981
10
49.187907098056563
20
-37.74320859854069
10
48.394553757765344
20
-37.134447169531974
42
0.028551867171624497
10
52.310127565386324
20
-31.379142022894911
10
53.176272128761219
20
-31.879210819716558
42
0.0041133957181717241
10
53.693575034635174
20
-31.000000000000021
10
52.82754963085074
20
-30.500000000000025
42
0.028551867171624497
10
55.958407095891459
20
-24.282847347263122
10
56.882413748353571
20
-24.665583434435852
42
0.0041133957181750981
10
57.280531015699758
20
-23.726372806635595
10
56.356651483188486
20
-23.343689374270507
42
0.028551867171624497
10
58.649222766384391
20
-16.771066421042477
10
59.615281497927022
20
-17.029921078000314
42
0.0041133957181750981
10
59.887401229922204
20
-16.046780796356334
10
58.921475403633167
20
-15.787961751253803
42
0.028551867171625226
10
60.33653397470794
20
-8.9723278985397172
10
61.328115252592319
20
-9.102872050334053
42
0.0041133957181750981
10
61.469581405176228
20
-8.0926239176432535
10
60.478136543802421
20
-7.962097725423197
42
0.028551867171625226
10
60.991470358276644
20
-1.0200703580936357
10
61.991607951919896
20
-1.0200703580935895
42
0.0041133957181750981
10
61.999999999999993
20
0
10
61
20
-5.5511151231257827e-15
42
0.028551867171624983
10
60.602825773984961
20
6.9496408689963109
10
61.594407051869347
20
7.0801850207906822
42
0.0041133957181784721
10
61.46958140517625
20
8.0926239176431771
10
60.478136543802435
20
7.9620977254231331
42
0.028551867171624983
10
59.17725003842277
20
14.800441814013263
10
60.143308769965401
20
15.059296470971136
42
0.0041133957181784721
10
59.887401229922247
20
16.046780796356256
10
58.921475403633181
20
15.787961751253746
42
0.028551867171625715
10
56.739135147669799
20
22.398003096134744
10
57.663141800131882
20
22.780739183307496
42
0.0041133957181750981
10
57.280531015699779
20
23.726372806635524
10
56.3566514831885
20
23.343689374270458
42
0.028551867171624983
10
53.330197923479979
20
29.612328335381719
10
54.196342486854888
20
30.112397132203338
42
0.0041133957181784721
10
53.693575034635217
20
30.999999999999961
10
52.827549630850768
20
30.499999999999972
42
0.028551867171625958
10
49.008766226895169
20
36.319978426721832
10
49.802228727562877
20
36.928823617433423
42
0.0041133957181750981
10
49.187907098056613
20
37.743208598540633
10
48.394553757765379
20
37.134447169531931
42
0.028551867171625958
10
43.848780952371115
20
42.406183617380329
10
44.555985026955867
20
43.113387691965066
42
0.0041133957181784721
10
43.840620433565945
20
43.840620433565931
10
43.133513652379385
20
43.133513652379406
42
0.028551867171625715
10
37.938530878573175
20
47.76680724913011
10
38.547376069284802
20
48.560269749797826
42
0.0041133957181750981
10
37.743208598540697
20
49.187907098056563
10
37.134447169531988
20
48.394553757765323
42
0.028551867171625958
10
31.379142022894925
20
52.310127565386317
10
31.879210819716562
20
53.176272128761227
42
0.0041133957181750981
10
31.000000000000021
20
53.693575034635181
10
30.500000000000028
20
52.827549630850747
42
0.028551867171626444
10
24.282847347263118
20
55.958407095891459
10
24.665583434435913
20
56.882413748353571
42
0.0041133957181750981
10
23.726372806635602
20
57.280531015699758
10
23.343689374270493
20
56.356651483188486
42
0.028551867171626201
10
16.771066421042462
20
58.649222766384391
10
17.029921078000314
20
59.615281497927029
42
0.0041133957181750981
10
16.046780796356334
20
59.887401229922204
10
15.787961751253793
20
58.921475403633153
42
0.02855186717162669
10
8.9723278985397066
20
60.33653397470794
10
9.1028720503340548
20
61.328115252592326
42
0.0041133957181784721
10
8.0926239176432588
20
61.469581405176228
10
7.9620977254231873
20
60.478136543802435
42
0.02855186717162669
10
1.0200703580936201
20
60.991470358276658
10
1.020070358093633
20
61.991607951919889
42
0.0041133957181750981
10
0
20
61.999999999999993
10
-8.8817841970013785e-15
20
61
42
0.028551867171626444
10
-6.9496408689963207
20
60.602825773984961
10
-7.0801850207907044
20
61.594407051869339
42
0.0041133957181750981
10
-8.0926239176431949
20
61.469581405176243
10
-7.9620977254231695
20
60.478136543802421
42
0.028551867171626444
10
-14.800441814013299
20
59.177250038422756
10
-15.059296470971175
20
60.143308769965394
42
0.0041133957181734111
10
-16.046780796356284
20
59.887401229922226
10
-15.787961751253786
20
58.921475403633167
42
0.028551867171626933
10
-22.398003096134786
20
56.739135147669785
10
-22.780739183307542
20
57.663141800131882
42
0.0041133957181750981
10
-23.72637280663557
20
57.280531015699772
10
-23.343689374270458
20
56.356651483188514
42
0.028551867171626444
10
-29.612328335381765
20
53.330197923479957
10
-30.11239713220337
20
54.196342486854874
42
0.0041133957181750981
10
-30.999999999999993
20
53.693575034635195
10
-30.499999999999979
20
52.827549630850783
42
0.028551867171626444
10
-36.319978426721867
20
49.008766226895133
10
-36.928823617433494
20
49.802228727562877
42
0.0041133957181750981
10
-37.743208598540669
20
49.187907098056584
10
-37.134447169531967
20
48.394553757765323
42
0.028551867171625958
10
-42.406183617380329
20
43.848780952371115
10
-43.113387691965066
20
44.555985026955874
42
0.0041133957181750981
10
-43.840620433565938
20
43.840620433565938
10
-43.133513652379406
20
43.133513652379392
42
0.028551867171626444
10
-47.76680724913011
20
37.938530878573175
10
-48.56026974979784
20
38.547376069284759
42
0.0041133957181734111
10
-49.187907098056584
20
37.743208598540676
10
-48.394553757765365
20
37.134447169531967
42
0.028551867171625958
10
-52.310127565386331
20
31.379142022894904
10
-53.176272128761255
20
31.879210819716501
42
0.0041133957181750981
10
-53.693575034635188
20
31.000000000000007
10
-52.827549630850754
20
30.500000000000004
42
0.028551867171625715
10
-55.958407095891459
20
24.282847347263122
10
-56.882413748353571
20
24.66558343443587
42
0.0041133957181750981
10
-57.280531015699772
20
23.72637280663557
10
-56.356651483188486
20
23.343689374270493
42
0.028551867171626444
10
-58.649222766384412
20
16.771066421042416
10
-59.615281497927022
20
17.029921078000331
42
0.0041133957181750981
10
-59.887401229922226
20
16.046780796356298
10
-58.921475403633181
20
15.787961751253796
42
0.028551867171625958
10
-60.336533974707947
20
8.9723278985396568
10
-61.328115252592319
20
9.1028720503340441
42
0.0041133957181784721
10
-61.469581405176243
20
8.0926239176432055
10
-60.478136543802435
20
7.9620977254231349
42
0.028551867171625469
10
-60.991470358276644
20
1.0200703580936279
10
-61.991607951919917
20
1.0200703580935819
42
0.0041133957181784721
10
-61.999999999999993
20
3.7964050773567959e-15
10
-61
20
-2.9976021664879227e-14
42
0.028551867171625715
10
-60.602825773984961
20
-6.9496408689963163
10
-61.594407051869347
20
-7.0801850207906867
42
0.0041133957181750981
10
-61.46958140517625
20
-8.0926239176431842
10
-60.478136543802457
20
-7.9620977254231704
42
0.028551867171625715
10
-59.17725003842277
20
-14.80044181401327
10
-60.143308769965422
20
-15.059296470971139
42
0.0041133957181750981
10
-59.887401229922226
20
-16.046780796356277
10
-58.921475403633167
20
-15.787961751253786
42
0.028551867171625958
10
-56.739135147669792
20
-22.398003096134751
10
-57.663141800131896
20
-22.780739183307503
42
0.0041133957181750981
10
-57.280531015699772
20
-23.726372806635545
10
-56.356651483188514
20
-23.343689374270433
42
0.028551867171625715
10
-53.330197923479957
20
-29.612328335381761
10
-54.196342486854867
20
-30.112397132203363
42
0.0041133957181750981
10
-53.693575034635202
20
-30.999999999999986
10
-52.82754963085074
20
-30.500000000000014
42
0.028551867171625226
10
-49.008766226895162
20
-36.319978426721853
10
-49.802228727562898
20
-36.928823617433451
42
0.0041133957181784721
10
-49.187907098056591
20
-37.743208598540654
10
-48.394553757765379
20
-37.134447169531924
42
0.028551867171625226
10
-43.848780952371115
20
-42.406183617380329
10
-44.555985026955881
20
-43.113387691965059
42
0.0041133957181784721
10
-43.840620433565938
20
-43.840620433565938
10
-43.133513652379406
20
-43.133513652379413
42
0.028551867171624983
10
-37.938530878573175
20
-47.766807249130103
10
-38.547376069284809
20
-48.560269749797847
42
0.0041133957181734111
10
-37.74320859854069
20
-49.18790709805657
10
-37.134447169531953
20
-48.394553757765344
42
0.028551867171624983
10
-31.379142022894911
20
-52.310127565386324
10
-31.879210819716604
20
-53.176272128761198
42
0.0041133957181750981
10
-31.000000000000018
20
-53.693575034635181
10
-30.500000000000021
20
-52.827549630850754
42
0.02855186717162474
10
-24.282847347263075
20
-55.958407095891481
10
-24.665583434435845
20
-56.882413748353571
42
0.0041133957181750981
10
-23.72637280663557
20
-57.280531015699772
10
-23.343689374270507
20
-56.356651483188486
42
0.02855186717162474
10
-16.771066421042441
20
-58.649222766384398
10
-17.029921078000314
20
-59.615281497927043
42
0.0041133957181750981
10
-16.046780796356302
20
-59.887401229922219
10
-15.787961751253798
20
-58.921475403633146
42
0.028551867171624983
10
-8.9723278985396622
20
-60.336533974707947
10
-9.1028720503340477
20
-61.328115252592326
42
0.0041133957181750981
10
-8.0926239176432215
20
-61.469581405176228
10
-7.9620977254231917
20
-60.478136543802435
42
0.028551867171624497
10
-1.0200703580936317
20
-60.991470358276644
10
-1.0200703580935859
20
-61.991607951919903
42
0.0041133957181717241
10
-7.5928101547135887e-15
20
-61.999999999999993
10
-1.1102230246251565e-15
20
-61.000000000000007
42
0.028551867171624497
10
6.9496408689963127
20
-60.602825773984961
10
7.0801850207907426
20
-61.594407051869354
42
0.0041133957181784721
10
8.0926239176431807
20
-61.46958140517625
10
7.9620977254231402
20
-60.478136543802435
42
0.028551867171624251
10
14.800441814013269
20
-59.17725003842277
10
15.059296470971137
20
-60.143308769965394
42
0.0041133957181750981
10
16.046780796356259
20
-59.887401229922247
10
15.787961751253752
20
-58.921475403633181
42
0.02855186717162474
10
22.398003096134747
20
-56.739135147669792
10
22.780739183307503
20
-57.663141800131896
42
0.0041133957181784721
10
23.726372806635531
20
-57.280531015699779
10
23.343689374270458
20
-56.3566514831885
42
0.028551867171624251
0
LWPOLYLINE
5
101
100
AcDbEntity
8
0
100
AcDbPolyline
90
4
70
1
43
0.0
10
-77.5
20
77.500000000000014
10
77.5
20
77.500000000000014
10
77.5
20
-77.499999999999986
10
-77.499999999999972
20
-77.499999999999986
0
LINE
5
102
100
AcDbEntity
8
0
100
AcDbLine
10
55
20
-65
30
0
11
-55
21
-65
31
0
0
LINE
5
103
100
AcDbEntity
8
0
100
AcDbLine
10
-55
20
-65
30
0
11
-55
21
65
31
0
0
LINE
5
104
100
AcDbEntity
8
0
100
AcDbLine
10
-55
20
65
30
0
11
55
21
65
31
0
0
LINE
5
105
100
AcDbEntity
8
0
100
AcDbLine
10
55
20
65
30
0
11
55
21
-65
31
0
0
LINE
5
106
100
AcDbEntity
8
0
100
AcDbLine
10
55
20
-65
30
0
11
-55
21
65
31
0
0
LINE
5
107
100
AcDbEntity
8
0
100
AcDbLine
10
-55
20
-65
30
0
11
55
21
65
31
0
0
CIRCLE
5
108
100
AcDbEntity
8
0
100
AcDbCircle
10
-55
20
65
30
0
40
1.999999999999996
210
0
220
0
230
1
0
CIRCLE
5
109
100
AcDbEntity
8
0
100
AcDbCircle
10
55
20
65
30
0
40
2.0000000000000018
210
0
220
0
230
1
0
CIRCLE
5
110
100
AcDbEntity
8
0
100
AcDbCircle
10
-55
20
-65
30
0
40
2.0000000000000018
210
0
220
0
230
1
0
CIRCLE
5
111
100
AcDbEntity
8
0
100
AcDbCircle
10
55
20
-65
30
0
40
1.999999999999996
210
0
220
0
230
1
0
ENDSEC
0
SECTION
2
OBJECTS
0
DICTIONARY
5
C
100
AcDbDictionary
3
ACAD_GROUP
350
D
3
ACAD_MLINESTYLE
350
17
0
DICTIONARY
5
D
100
AcDbDictionary
0
DICTIONARY
5
1A
330
C
100
AcDbDictionary
0
DICTIONARY
5
17
100
AcDbDictionary
0
ENDSEC
0
EOF
