                                                                        S      1
,,15HAxe centrale V2,15HAxe centrale V2,7Hunknown,7Hunknown,32,38,7,99, G      1
15,,1.,2,2HMM,1,0.08,15H20201205.181732,0.01,10000.,7Hunknown,7Hunknown,G      2
11,0,;                                                                  G      3
     186       1                                                00000000D      1
     186            -175       1       0                               0D      2
     514       2                                                00010000D      3
     514                       2       1                               0D      4
     510       4                                                00010000D      5
     510            -175       1       1                               0D      6
     510       5                                                00010000D      7
     510            -175       1       1                               0D      8
     510       6                                                00010000D      9
     510            -175       1       1                               0D     10
     510       7                                                00010000D     11
     510            -175       1       1                               0D     12
     510       8                                                00010000D     13
     510            -175       1       1                               0D     14
     510       9                                                00010000D     15
     510            -175       1       1                               0D     16
     510      10                                                00010000D     17
     510            -175       1       1                               0D     18
     510      11                                                00010000D     19
     510            -175       1       1                               0D     20
     510      12                                                00010000D     21
     510            -175       1       1                               0D     22
     510      13                                                00010000D     23
     510            -175       1       1                               0D     24
     510      14                                                00010000D     25
     510            -175       1       1                               0D     26
     510      15                                                00010000D     27
     510            -175       1       1                               0D     28
     510      16                                                00010000D     29
     510            -175       1       1                               0D     30
     510      17                                                00010000D     31
     510            -175       1       1                               0D     32
     510      18                                                00010000D     33
     510            -175       1       1                               0D     34
     508      19                                                00010000D     35
     508                       1       1                               0D     36
     508      20                                                00010000D     37
     508                       1       1                               0D     38
     508      21                                                00010000D     39
     508                       1       1                               0D     40
     508      22                                                00010000D     41
     508                       1       1                               0D     42
     508      23                                                00010000D     43
     508                       1       1                               0D     44
     508      24                                                00010000D     45
     508                       2       1                               0D     46
     508      26                                                00010000D     47
     508                       1       1                               0D     48
     508      27                                                00010000D     49
     508                       1       1                               0D     50
     508      28                                                00010000D     51
     508                       1       1                               0D     52
     508      29                                                00010000D     53
     508                       1       1                               0D     54
     508      30                                                00010000D     55
     508                       1       1                               0D     56
     508      31                                                00010000D     57
     508                       1       1                               0D     58
     508      32                                                00010000D     59
     508                       1       1                               0D     60
     508      33                                                00010000D     61
     508                       1       1                               0D     62
     508      34                                                00010000D     63
     508                       1       1                               0D     64
     508      35                                                00010000D     65
     508                       1       1                               0D     66
     508      36                                                00010000D     67
     508                       1       1                               0D     68
     508      37                                                00010000D     69
     508                       2       1                               0D     70
     508      39                                                00010000D     71
     508                       1       1                               0D     72
     126      40                                                00010000D     73
     126       0              10       0                               0D     74
     126      50                                                00010000D     75
     126       0               5       0                               0D     76
     126      55                                                00010000D     77
     126       0              11       0                               0D     78
     126      66                                                00010000D     79
     126       0              11       0                               0D     80
     126      77                                                00010000D     81
     126       0               4       0                               0D     82
     126      81                                                00010000D     83
     126       0              11       0                               0D     84
     126      92                                                00010000D     85
     126       0              11       0                               0D     86
     126     103                                                00010000D     87
     126       0               4       0                               0D     88
     126     107                                                00010000D     89
     126       0               7       0                               0D     90
     126     114                                                00010000D     91
     126       0               3       0                               0D     92
     126     117                                                00010000D     93
     126       0               7       0                               0D     94
     126     124                                                00010000D     95
     126       0               4       0                               0D     96
     126     128                                                00010000D     97
     126       0               5       0                               0D     98
     126     133                                                00010000D     99
     126       0               3       0                               0D    100
     126     136                                                00010000D    101
     126       0               7       0                               0D    102
     126     143                                                00010000D    103
     126       0              10       0                               0D    104
     126     153                                                00010000D    105
     126       0               5       0                               0D    106
     126     158                                                00010000D    107
     126       0               3       0                               0D    108
     126     161                                                00010000D    109
     126       0               4       0                               0D    110
     126     165                                                00010000D    111
     126       0               3       0                               0D    112
     126     168                                                00010000D    113
     126       0               7       0                               0D    114
     126     175                                                00010000D    115
     126       0               3       0                               0D    116
     126     178                                                00010000D    117
     126       0               3       0                               0D    118
     126     181                                                00010000D    119
     126       0               3       0                               0D    120
     126     184                                                00010000D    121
     126       0               7       0                               0D    122
     126     191                                                00010000D    123
     126       0               3       0                               0D    124
     126     194                                                00010000D    125
     126       0               5       0                               0D    126
     126     199                                                00010000D    127
     126       0               3       0                               0D    128
     126     202                                                00010000D    129
     126       0               5       0                               0D    130
     126     207                                                00010000D    131
     126       0               3       0                               0D    132
     126     210                                                00010000D    133
     126       0               3       0                               0D    134
     126     213                                                00010000D    135
     126       0               3       0                               0D    136
     126     216                                                00010000D    137
     126       0               7       0                               0D    138
     128     223                                                00010000D    139
     128       0    -175      19       0                               0D    140
     128     242                                                00010000D    141
     128       0    -175       4       0                               0D    142
     128     246                                                00010000D    143
     128       0    -175      20       0                               0D    144
     128     266                                                00010000D    145
     128       0    -175       4       0                               0D    146
     128     270                                                00010000D    147
     128       0    -175      18       0                               0D    148
     128     288                                                00010000D    149
     128       0    -175       3       0                               0D    150
     128     291                                                00010000D    151
     128       0    -175       8       0                               0D    152
     128     299                                                00010000D    153
     128       0    -175      12       0                               0D    154
     128     311                                                00010000D    155
     128       0    -175       7       0                               0D    156
     128     318                                                00010000D    157
     128       0    -175      15       0                               0D    158
     128     333                                                00010000D    159
     128       0    -175       8       0                               0D    160
     128     341                                                00010000D    161
     128       0    -175      11       0                               0D    162
     128     352                                                00010000D    163
     128       0    -175       8       0                               0D    164
     128     360                                                00010000D    165
     128       0    -175      16       0                               0D    166
     128     376                                                00010000D    167
     128       0    -175       6       0                               0D    168
     502     382                                                00010000D    169
     502                      17       1                               0D    170
     504     399                                                00010001D    171
     504                       9       1                               0D    172
     406     408                                                00000000D    173
     406                       1      15                               0D    174
     314     409                                                00000200D    175
     314                       2       0                               0D    176
     314     411                                                00000200D    177
     314                       2       0                               0D    178
186,3,1,0,0,1,173;                                                     1P      1
514,15,5,1,7,1,9,1,11,1,13,1,15,1,17,1,19,1,21,1,23,1,25,1,27,1,       3P      2
29,1,31,1,33,1;                                                        3P      3
510,139,1,1,35;                                                        5P      4
510,141,2,1,37,39;                                                     7P      5
510,143,1,1,41;                                                        9P      6
510,145,2,1,43,45;                                                    11P      7
510,147,1,1,47;                                                       13P      8
510,149,2,1,49,51;                                                    15P      9
510,151,1,1,53;                                                       17P     10
510,153,1,1,55;                                                       19P     11
510,155,1,1,57;                                                       21P     12
510,157,1,1,59;                                                       23P     13
510,159,1,1,61;                                                       25P     14
510,161,1,1,63;                                                       27P     15
510,163,1,1,65;                                                       29P     16
510,165,1,1,67;                                                       31P     17
510,167,2,1,69,71;                                                    33P     18
508,4,0,171,1,0,0,0,171,2,1,0,0,171,3,1,0,0,171,2,0,0;                35P     19
508,1,0,171,3,0,0;                                                    37P     20
508,1,0,171,4,0,0;                                                    39P     21
508,4,0,171,4,1,0,0,171,5,1,0,0,171,6,0,0,0,171,5,0,0;                41P     22
508,1,0,171,7,0,0;                                                    43P     23
508,8,0,171,8,0,0,0,171,9,1,0,0,171,10,0,0,0,171,11,1,0,0,171,        45P     24
12,0,0,0,171,13,1,0,0,171,14,0,0,0,171,15,1,0;                        45P     25
508,4,0,171,16,0,0,0,171,17,1,0,0,171,7,1,0,0,171,17,0,0;             47P     26
508,1,0,171,16,1,0;                                                   49P     27
508,1,0,171,1,1,0;                                                    51P     28
508,4,0,171,8,1,0,0,171,18,1,0,0,171,19,0,0,0,171,20,0,0;             53P     29
508,4,0,171,9,0,0,0,171,20,1,0,0,171,21,0,0,0,171,22,0,0;             55P     30
508,4,0,171,10,1,0,0,171,22,1,0,0,171,23,0,0,0,171,24,0,0;            57P     31
508,4,0,171,11,0,0,0,171,24,1,0,0,171,25,0,0,0,171,26,0,0;            59P     32
508,4,0,171,12,1,0,0,171,26,1,0,0,171,27,0,0,0,171,28,0,0;            61P     33
508,4,0,171,13,0,0,0,171,28,1,0,0,171,29,0,0,0,171,30,0,0;            63P     34
508,4,0,171,14,1,0,0,171,30,1,0,0,171,31,0,0,0,171,32,0,0;            65P     35
508,4,0,171,15,0,0,0,171,32,1,0,0,171,33,0,0,0,171,18,0,0;            67P     36
508,8,0,171,33,1,0,0,171,31,1,0,0,171,29,1,0,0,171,27,1,0,0,171,      69P     37
25,1,0,0,171,23,1,0,0,171,21,1,0,0,171,19,1,0;                        69P     38
508,1,0,171,6,1,0;                                                    71P     39
126,8,2,0,1,0,0,-3.14159265358979,-3.14159265358979,                  73P     40
-3.14159265358979,-1.5707963267949,-1.5707963267949,0.,0.,            73P     41
1.5707963267949,1.5707963267949,3.14159265358979,                     73P     42
3.14159265358979,3.14159265358979,1.,0.707106781186548,1.,            73P     43
0.707106781186548,1.,0.707106781186548,1.,0.707106781186548,1.,       73P     44
11.1,-5.03714290606732D-14,13.,11.1,-11.1,13.,                        73P     45
3.35043557018842D-14,-11.1,13.,-11.1,-11.1,13.,-11.1,                 73P     46
-4.90120711136197D-14,13.,-11.1,11.1,13.,3.35043557018843D-14,        73P     47
11.1,13.,11.1,11.1,13.,11.1,-4.76527131665661D-14,13.,                73P     48
-3.14159265358979,3.14159265358979,0.,0.,0.;                          73P     49
126,1,1,0,0,1,0,-6.00120553851437D-16,-6.00120553851437D-16,          75P     50
0.630630630630631,0.630630630630631,1.,1.,11.1,                       75P     51
-4.90120711136197D-14,13.,11.1,-4.90120711136197D-14,                 75P     52
5.99999999999999,-6.00120553851437D-16,0.630630630630631,0.,0.,       75P     53
0.;                                                                   75P     54
126,8,2,0,1,0,0,-3.14159265358979,-3.14159265358979,                  77P     55
-3.14159265358979,-1.5707963267949,-1.5707963267949,0.,0.,            77P     56
1.5707963267949,1.5707963267949,3.14159265358979,                     77P     57
3.14159265358979,3.14159265358979,1.,0.707106781186548,1.,            77P     58
0.707106781186548,1.,0.707106781186548,1.,0.707106781186548,1.,       77P     59
11.1,-5.03714290606732D-14,5.99999999999999,11.1,-11.1,               77P     60
5.99999999999999,2.79532405787585D-14,-11.1,6.,-11.1,-11.1,           77P     61
6.00000000000001,-11.1,-4.90120711136197D-14,6.00000000000001,        77P     62
-11.1,11.1,6.00000000000001,2.79532405787585D-14,11.1,6.,11.1,        77P     63
11.1,5.99999999999999,11.1,-4.76527131665661D-14,                     77P     64
5.99999999999999,-3.14159265358979,3.14159265358979,0.,0.,0.;         77P     65
126,8,2,0,1,0,0,-3.14159265358979,-3.14159265358979,                  79P     66
-3.14159265358979,-1.5707963267949,-1.5707963267949,0.,0.,            79P     67
1.5707963267949,1.5707963267949,3.14159265358979,                     79P     68
3.14159265358979,3.14159265358979,1.,0.707106781186548,1.,            79P     69
0.707106781186548,1.,0.707106781186548,1.,0.707106781186548,1.,       79P     70
7.5,5.19711916774837D-15,5.99999999999999,7.5,7.5,                    79P     71
5.99999999999999,-2.66024427221184D-15,7.5,6.,-7.5,7.5,               79P     72
6.00000000000001,-7.5,4.27863406838785D-15,6.00000000000001,          79P     73
-7.5,-7.5,6.00000000000001,-2.66024427221184D-15,-7.5,6.,7.5,         79P     74
-7.5,5.99999999999999,7.5,3.36014896902734D-15,5.99999999999999,      79P     75
-3.14159265358979,3.14159265358979,0.,0.,0.;                          79P     76
126,1,1,0,0,1,0,0.933333333333333,0.933333333333333,                  81P     77
1.06666666666667,1.06666666666667,1.,1.,7.5,                          81P     78
4.27863406838785D-15,6.,7.5,4.27863406838785D-15,                     81P     79
4.99999999999999,0.933333333333333,1.06666666666667,0.,0.,0.;         81P     80
126,8,2,0,1,0,0,-3.14159265358979,-3.14159265358979,                  83P     81
-3.14159265358979,-1.5707963267949,-1.5707963267949,0.,0.,            83P     82
1.5707963267949,1.5707963267949,3.14159265358979,                     83P     83
3.14159265358979,3.14159265358979,1.,0.707106781186548,1.,            83P     84
0.707106781186548,1.,0.707106781186548,1.,0.707106781186548,1.,       83P     85
7.5,5.19711916774837D-15,4.99999999999999,7.5,7.5,5.,                 83P     86
-3.41721451627444D-15,7.5,5.,-7.5,7.5,5.00000000000001,-7.5,          83P     87
4.27863406838785D-15,5.00000000000001,-7.5,-7.5,5.,                   83P     88
-3.41721451627445D-15,-7.5,4.99999999999999,7.5,-7.5,                 83P     89
4.99999999999999,7.5,3.36014896902734D-15,4.99999999999999,           83P     90
-3.14159265358979,3.14159265358979,0.,0.,0.;                          83P     91
126,8,2,0,1,0,0,-3.14159265358979,-3.14159265358979,                  85P     92
-3.14159265358979,-1.5707963267949,-1.5707963267949,0.,0.,            85P     93
1.5707963267949,1.5707963267949,3.14159265358979,                     85P     94
3.14159265358979,3.14159265358979,1.,0.707106781186548,1.,            85P     95
0.707106781186548,1.,0.707106781186547,1.,0.707106781186548,1.,       85P     96
22.,4.91466900737449D-15,9.99999999999999,22.,22.,10.,                85P     97
8.7333457018823D-16,22.,10.,-22.,22.,10.,-22.,                        85P     98
2.22044604925031D-15,10.,-22.,-22.,9.99999999999999,                  85P     99
8.73334570188219D-16,-22.,9.99999999999999,22.,-22.,                  85P    100
9.99999999999998,22.,-4.73776908873864D-16,9.99999999999999,          85P    101
-3.14159265358979,3.14159265358979,0.,0.,0.;                          85P    102
126,1,1,0,0,1,0,0.,0.,0.522955169167168,0.522955169167168,1.,1.,      87P    103
19.4422220952235,-5.09999999999999,9.99999999999999,                  87P    104
14.2126704035519,-5.09999999999999,9.99999999999999,0.,               87P    105
0.522955169167168,0.,0.,0.;                                           87P    106
126,2,2,0,0,0,0,1.1365066987408D-78,1.1365066987408D-78,              89P    107
1.1365066987408D-78,0.513071797311374,0.513071797311374,              89P    108
0.513071797311374,1.,0.967274731105663,1.,19.4422220952235,           89P    109
-5.09999999999999,9.99999999999999,20.7800321393949,                  89P    110
3.33066907387547D-15,9.99999999999999,19.4422220952236,               89P    111
5.09999999999998,10.,1.1365066987408D-78,0.513071797311374,0.,        89P    112
0.,0.;                                                                89P    113
126,1,1,0,0,1,0,0.,0.,0.522955169167168,0.522955169167168,1.,1.,      91P    114
14.2126704035519,5.09999999999999,10.,19.4422220952235,               91P    115
5.09999999999999,10.,0.,0.522955169167168,0.,0.,0.;                   91P    116
126,4,2,0,0,0,0,0.,0.,0.,1.22627269085305,1.22627269085305,           93P    117
2.4525453817061,2.4525453817061,2.4525453817061,1.,                   93P    118
0.817847279255382,1.,0.817847279255382,1.,14.2126704035519,           93P    119
5.09999999999999,10.,10.6243229254274,15.1,10.,                       93P    120
2.22044604925031D-15,15.1,10.,-10.6243229254274,15.1,10.,             93P    121
-14.2126704035519,5.09999999999999,10.,0.,2.4525453817061,0.,0.,      93P    122
0.;                                                                   93P    123
126,1,1,0,0,1,0,9.42792221651275D-32,9.42792221651275D-32,            95P    124
0.522955169167167,0.522955169167167,1.,1.,-19.4422220952235,          95P    125
5.09999999999999,10.,-14.2126704035519,5.09999999999999,10.,          95P    126
9.42792221651275D-32,0.522955169167167,0.,0.,0.;                      95P    127
126,2,2,0,0,0,0,0.,0.,0.,0.51307179731137,0.51307179731137,           97P    128
0.51307179731137,1.,0.967274731105644,1.,-19.4422220952235,           97P    129
5.09999999999999,10.,-20.7800321393949,1.16573417585641D-14,10.,      97P    130
-19.4422220952235,-5.09999999999997,10.,0.,0.51307179731137,0.,       97P    131
0.,0.;                                                                97P    132
126,1,1,0,0,1,0,0.,0.,0.522955169167168,0.522955169167168,1.,1.,      99P    133
-14.2126704035519,-5.09999999999999,10.,-19.4422220952235,            99P    134
-5.09999999999997,10.,0.,0.522955169167168,0.,0.,0.;                  99P    135
126,4,2,0,0,0,0,0.,0.,0.,1.22627269085305,1.22627269085305,          101P    136
2.4525453817061,2.4525453817061,2.4525453817061,1.,                  101P    137
0.817847279255382,1.,0.817847279255382,1.,-14.2126704035519,         101P    138
-5.09999999999999,10.,-10.6243229254274,-15.1,9.99999999999999,      101P    139
1.66533453693773D-15,-15.1,9.99999999999999,10.6243229254274,        101P    140
-15.1,9.99999999999999,14.2126704035519,-5.09999999999999,           101P    141
9.99999999999999,0.,2.4525453817061,0.,0.,0.;                        101P    142
126,8,2,0,1,0,0,-3.14159265358979,-3.14159265358979,                 103P    143
-3.14159265358979,-1.5707963267949,-1.5707963267949,0.,0.,           103P    144
1.5707963267949,1.5707963267949,3.14159265358979,                    103P    145
3.14159265358979,3.14159265358979,1.,0.707106781186548,1.,           103P    146
0.707106781186548,1.,0.707106781186548,1.,0.707106781186548,1.,      103P    147
22.,2.95787710195666D-15,13.,22.,22.,13.,8.7333457018823D-16,        103P    148
22.,13.,-22.,22.,13.,-22.,2.63654143832483D-16,13.,-22.,-22.,        103P    149
13.,8.73334570188219D-16,-22.,13.,22.,-22.,13.,22.,                  103P    150
-2.43056881429169D-15,13.,-3.14159265358979,3.14159265358979,0.,     103P    151
0.,0.;                                                               103P    152
126,1,1,0,0,1,0,-0.136363636363637,-0.136363636363637,               105P    153
4.03717463500057D-16,4.03717463500057D-16,1.,1.,22.,                 105P    154
2.63654143832471D-16,13.,22.,2.22044604925031D-15,                   105P    155
9.99999999999999,-0.136363636363637,4.03717463500057D-16,0.,0.,      105P    156
0.;                                                                  105P    157
126,1,1,0,0,1,0,0.,0.,0.5,0.5,1.,1.,14.2126704035519,                107P    158
-5.09999999999999,9.99999999999999,14.2126704035519,                 107P    159
-5.09999999999999,4.99999999999999,0.,0.5,0.,0.,0.;                  107P    160
126,1,1,0,0,1,0,0.,0.,0.522955169167168,0.522955169167168,1.,1.,     109P    161
19.4422220952235,-5.09999999999998,4.99999999999999,                 109P    162
14.2126704035519,-5.09999999999999,4.99999999999999,0.,              109P    163
0.522955169167168,0.,0.,0.;                                          109P    164
126,1,1,0,0,1,0,0.,0.,0.5,0.5,1.,1.,19.4422220952235,                111P    165
-5.09999999999999,9.99999999999999,19.4422220952235,                 111P    166
-5.09999999999999,4.99999999999999,0.,0.5,0.,0.,0.;                  111P    167
126,2,2,0,0,0,0,-0.513071797311374,-0.513071797311374,               113P    168
-0.513071797311374,-1.1365066987408D-78,-1.1365066987408D-78,        113P    169
-1.1365066987408D-78,1.,0.967274731105654,1.,19.4422220952235,       113P    170
5.09999999999998,5.,20.7800321393949,5.55111512312578D-15,           113P    171
4.99999999999999,19.4422220952235,-5.09999999999999,                 113P    172
4.99999999999999,-0.513071797311374,-1.1365066987408D-78,0.,0.,      113P    173
0.;                                                                  113P    174
126,1,1,0,0,1,0,0.,0.,0.5,0.5,1.,1.,19.4422220952236,                115P    175
5.09999999999998,10.,19.4422220952235,5.09999999999999,5.,0.,        115P    176
0.5,0.,0.,0.;                                                        115P    177
126,1,1,0,0,1,0,0.,0.,0.522955169167168,0.522955169167168,1.,1.,     117P    178
14.2126704035519,5.09999999999999,5.,19.4422220952235,               117P    179
5.09999999999999,5.,0.,0.522955169167168,0.,0.,0.;                   117P    180
126,1,1,0,0,1,0,0.,0.,0.5,0.5,1.,1.,14.2126704035519,                119P    181
5.09999999999999,10.,14.2126704035519,5.09999999999999,5.,0.,        119P    182
0.5,0.,0.,0.;                                                        119P    183
126,4,2,0,0,0,0,-2.4525453817061,-2.4525453817061,                   121P    184
-2.4525453817061,-1.22627269085305,-1.22627269085305,0.,0.,0.,       121P    185
1.,0.817847279255382,1.,0.81784727925538,1.,-14.2126704035519,       121P    186
5.1,5.00000000000001,-10.6243229254274,15.1,5.00000000000001,0.,     121P    187
15.1,5.00000000000001,10.6243229254274,15.1,5.00000000000001,        121P    188
14.2126704035519,5.09999999999999,5.,-2.4525453817061,0.,0.,0.,      121P    189
0.;                                                                  121P    190
126,1,1,0,0,1,0,0.,0.,0.5,0.5,1.,1.,-14.2126704035519,               123P    191
5.09999999999999,10.,-14.2126704035519,5.09999999999999,             123P    192
5.00000000000001,0.,0.5,0.,0.,0.;                                    123P    193
126,1,1,0,0,1,0,9.42792221651275D-32,9.42792221651275D-32,           125P    194
0.522955169167167,0.522955169167167,1.,1.,-19.4422220952235,         125P    195
5.09999999999999,5.00000000000001,-14.2126704035519,                 125P    196
5.09999999999999,5.00000000000001,9.42792221651275D-32,              125P    197
0.522955169167167,0.,0.,0.;                                          125P    198
126,1,1,0,0,1,0,0.,0.,0.5,0.5,1.,1.,-19.4422220952235,               127P    199
5.09999999999999,10.,-19.4422220952235,5.09999999999999,             127P    200
5.00000000000001,0.,0.5,0.,0.,0.;                                    127P    201
126,2,2,0,0,0,0,-0.51307179731137,-0.51307179731137,                 129P    202
-0.51307179731137,0.,0.,0.,1.,0.967274731105653,1.,                  129P    203
-19.4422220952236,-5.09999999999996,5.,-20.7800321393949,            129P    204
1.49880108324396D-14,5.00000000000001,-19.4422220952235,             129P    205
5.09999999999999,5.00000000000001,-0.51307179731137,0.,0.,0.,0.;     129P    206
126,1,1,0,0,1,0,0.,0.,0.5,0.5,1.,1.,-19.4422220952235,               131P    207
-5.09999999999997,10.,-19.4422220952235,-5.09999999999997,5.,0.,     131P    208
0.5,0.,0.,0.;                                                        131P    209
126,1,1,0,0,1,0,0.,0.,0.522955169167168,0.522955169167168,1.,1.,     133P    210
-14.2126704035519,-5.09999999999998,5.,-19.4422220952235,            133P    211
-5.09999999999997,5.,0.,0.522955169167168,0.,0.,0.;                  133P    212
126,1,1,0,0,1,0,0.,0.,0.5,0.5,1.,1.,-14.2126704035519,               135P    213
-5.09999999999999,10.,-14.2126704035519,-5.09999999999998,5.,0.,     135P    214
0.5,0.,0.,0.;                                                        135P    215
126,4,2,0,0,0,0,-2.4525453817061,-2.4525453817061,                   137P    216
-2.4525453817061,-1.22627269085305,-1.22627269085305,0.,0.,0.,       137P    217
1.,0.817847279255381,1.,0.817847279255381,1.,14.2126704035519,       137P    218
-5.09999999999999,4.99999999999999,10.6243229254274,-15.1,           137P    219
4.99999999999999,-5.55111512312578D-16,-15.1,4.99999999999999,       137P    220
-10.6243229254274,-15.1,4.99999999999999,-14.2126704035519,          137P    221
-5.09999999999998,5.,-2.4525453817061,0.,0.,0.,0.;                   137P    222
128,1,8,1,2,0,1,0,0,1,-6.00120553851437D-16,                         139P    223
-6.00120553851437D-16,0.630630630630631,0.630630630630631,           139P    224
-3.14159265358979,-3.14159265358979,-3.14159265358979,               139P    225
-1.5707963267949,-1.5707963267949,0.,0.,1.5707963267949,             139P    226
1.5707963267949,3.14159265358979,3.14159265358979,                   139P    227
3.14159265358979,1.,1.,0.707106781186548,0.707106781186548,1.,       139P    228
1.,0.707106781186548,0.707106781186548,1.,1.,0.707106781186548,      139P    229
0.707106781186548,1.,1.,0.707106781186548,0.707106781186548,1.,      139P    230
1.,11.1,-4.90120711136197D-14,13.,11.1,-4.90120711136197D-14,        139P    231
5.99999999999999,11.1,-11.1,13.,11.1,-11.1,5.99999999999999,         139P    232
3.4184034675411D-14,-11.1,13.,2.86329195522852D-14,                  139P    233
-11.1000000000001,6.,-11.1,-11.1,13.,-11.1,-11.1,                    139P    234
6.00000000000001,-11.1,-4.90120711136197D-14,13.,-11.1,              139P    235
-4.90120711136197D-14,6.00000000000001,-11.1,11.0999999999999,       139P    236
13.,-11.1,11.1,6.00000000000001,3.4184034675411D-14,11.1,13.,        139P    237
2.86329195522852D-14,11.1,6.,11.1,11.0999999999999,13.,11.1,         139P    238
11.1,5.99999999999999,11.1,-4.90120711136197D-14,13.,11.1,           139P    239
-4.90120711136197D-14,5.99999999999999,-6.00120553851437D-16,        139P    240
0.630630630630631,-3.14159265358979,3.14159265358979;                139P    241
128,1,1,1,1,0,0,1,0,0,-1.111,-1.111,1.111,1.111,-1.111,-1.111,       141P    242
1.111,1.111,1.,1.,1.,1.,11.11,11.11,5.99999999999999,-11.11,         141P    243
11.11,6.00000000000001,11.11,-11.11,5.99999999999999,-11.11,         141P    244
-11.11,6.00000000000001,-1.111,1.111,-1.111,1.111;                   141P    245
128,1,8,1,2,0,1,0,0,1,0.933333333333333,0.933333333333333,           143P    246
1.06666666666667,1.06666666666667,-3.14159265358979,                 143P    247
-3.14159265358979,-3.14159265358979,-1.5707963267949,                143P    248
-1.5707963267949,0.,0.,1.5707963267949,1.5707963267949,              143P    249
3.14159265358979,3.14159265358979,3.14159265358979,1.,1.,            143P    250
0.707106781186548,0.707106781186548,1.,1.,0.707106781186548,         143P    251
0.707106781186548,1.,1.,0.707106781186548,0.707106781186548,1.,      143P    252
1.,0.707106781186548,0.707106781186548,1.,1.,7.5,                    143P    253
4.27863406838785D-15,6.,7.5,4.27863406838785D-15,                    143P    254
4.99999999999999,7.5,-7.49999999999999,6.,7.49999999999999,          143P    255
-7.49999999999999,4.99999999999999,-2.20100172253159D-15,-7.5,       143P    256
6.,-2.95797196659419D-15,-7.49999999999999,5.,-7.5,                  143P    257
-7.49999999999999,6.00000000000001,-7.5,-7.49999999999999,5.,        143P    258
-7.5,4.27863406838785D-15,6.00000000000001,-7.5,                     143P    259
4.27863406838785D-15,5.,-7.5,7.5,6.00000000000001,-7.5,7.5,5.,       143P    260
-2.20100172253159D-15,7.5,6.,-2.95797196659419D-15,7.5,5.,7.5,       143P    261
7.5,6.,7.49999999999999,7.5,4.99999999999999,7.5,                    143P    262
4.27863406838785D-15,6.,7.5,4.27863406838785D-15,                    143P    263
4.99999999999999,0.933333333333333,1.06666666666667,                 143P    264
-3.14159265358979,3.14159265358979;                                  143P    265
128,1,1,1,1,0,0,1,0,0,-2.201,-2.201,2.201,2.201,-2.201,-2.201,       145P    266
2.201,2.201,1.,1.,1.,1.,-22.01,22.01,10.,22.01,22.01,10.,-22.01,     145P    267
-22.01,10.,22.01,-22.01,9.99999999999998,-2.201,2.201,-2.201,        145P    268
2.201;                                                               145P    269
128,1,8,1,2,0,1,0,0,1,-4.03717463500057D-16,                         147P    270
-4.03717463500057D-16,0.136363636363637,0.136363636363637,           147P    271
-3.14159265358979,-3.14159265358979,-3.14159265358979,               147P    272
-1.5707963267949,-1.5707963267949,0.,0.,1.5707963267949,             147P    273
1.5707963267949,3.14159265358979,3.14159265358979,                   147P    274
3.14159265358979,1.,1.,0.707106781186548,0.707106781186548,1.,       147P    275
1.,0.707106781186548,0.707106781186548,1.,1.,0.707106781186548,      147P    276
0.707106781186548,1.,1.,0.707106781186548,0.707106781186548,1.,      147P    277
1.,22.,2.63654143832471D-16,13.,22.,2.22044604925031D-15,            147P    278
9.99999999999999,22.,22.,13.,22.,22.,10.,2.22044604925032D-15,       147P    279
22.,13.,2.22044604925032D-15,22.,10.,-22.,22.,13.,-22.,22.,10.,      147P    280
-22.,2.63654143832481D-16,13.,-22.,2.22044604925032D-15,             147P    281
9.99999999999999,-22.,-22.,13.,-22.,-22.,9.99999999999998,           147P    282
2.22044604925031D-15,-22.,13.,2.22044604925031D-15,-22.,             147P    283
9.99999999999998,22.,-22.,13.,22.,-22.,9.99999999999998,22.,         147P    284
2.63654143832471D-16,13.,22.,2.22044604925031D-15,                   147P    285
9.99999999999999,-4.03717463500057D-16,0.136363636363637,            147P    286
-3.14159265358979,3.14159265358979;                                  147P    287
128,1,1,1,1,0,0,1,0,0,-2.201,-2.201,2.201,2.201,-2.201,-2.201,       149P    288
2.201,2.201,1.,1.,1.,1.,22.01,22.01,13.,-22.01,22.01,13.,22.01,      149P    289
-22.01,13.,-22.01,-22.01,13.,-2.201,2.201,-2.201,2.201;              149P    290
128,1,1,1,1,0,0,1,0,0,-0.00100000000000032,-0.00100000000000032,     151P    291
0.523955169167168,0.523955169167168,-0.00100000000000002,            151P    292
-0.00100000000000002,0.501,0.501,1.,1.,1.,1.,19.4522220952236,       151P    293
-5.09999999999999,10.01,14.2026704035519,-5.09999999999999,          151P    294
10.01,19.4522220952235,-5.09999999999998,4.98999999999999,           151P    295
14.2026704035519,-5.09999999999999,4.98999999999999,                 151P    296
-0.00100000000000032,0.523955169167168,-0.00100000000000002,         151P    297
0.501;                                                               151P    298
128,1,2,1,2,0,0,0,0,0,-1.35347509328456D-16,                         153P    299
-1.35347509328456D-16,0.248756218905473,0.248756218905473,           153P    300
-0.513071797311374,-0.513071797311374,-0.513071797311374,            153P    301
7.70175248479925D-17,7.70175248479925D-17,7.70175248479925D-17,      153P    302
1.,1.,0.967274731105651,0.967274731105651,1.,1.,                     153P    303
19.4422220952235,5.09999999999999,5.,19.4422220952235,               153P    304
5.09999999999998,10.,20.7800321393949,1.11022302462516D-15,          153P    305
4.99999999999999,20.7800321393949,-2.22044604925031D-15,             153P    306
9.99999999999999,19.4422220952235,-5.09999999999999,                 153P    307
4.99999999999999,19.4422220952235,-5.09999999999999,                 153P    308
9.99999999999999,-1.35347509328456D-16,0.248756218905473,            153P    309
-0.513071797311374,7.70175248479925D-17;                             153P    310
128,1,1,1,1,0,0,1,0,0,-0.00100000000000013,-0.00100000000000013,     155P    311
0.523955169167168,0.523955169167168,-0.00100000000000005,            155P    312
-0.00100000000000005,0.501,0.501,1.,1.,1.,1.,14.2026704035519,       155P    313
5.09999999999999,10.01,19.4522220952236,5.09999999999999,10.01,      155P    314
14.2026704035519,5.09999999999999,4.99,19.4522220952236,             155P    315
5.09999999999999,4.98999999999999,-0.00100000000000013,              155P    316
0.523955169167168,-0.00100000000000005,0.501;                        155P    317
128,1,4,1,2,0,0,0,0,0,-4.59579513092344D-17,                         157P    318
-4.59579513092344D-17,0.33112582781457,0.33112582781457,             157P    319
-2.4525453817061,-2.4525453817061,-2.4525453817061,                  157P    320
-1.22627269085305,-1.22627269085305,9.14680622123791D-18,            157P    321
9.14680622123791D-18,9.14680622123791D-18,1.,1.,                     157P    322
0.817847279255382,0.817847279255382,1.,1.,0.817847279255382,         157P    323
0.817847279255382,1.,1.,-14.2126704035519,5.09999999999999,          157P    324
5.00000000000001,-14.2126704035519,5.09999999999999,10.,             157P    325
-10.6243229254274,15.1,5.00000000000001,-10.6243229254274,15.1,      157P    326
10.,-2.77555756156289D-15,15.1,5.00000000000001,                     157P    327
-5.55111512312578D-16,15.1,10.,10.6243229254274,15.1,5.,             157P    328
10.6243229254274,15.1,10.,14.2126704035519,5.09999999999999,         157P    329
4.99999999999999,14.2126704035519,5.09999999999999,10.,              157P    330
-4.59579513092344D-17,0.33112582781457,-2.4525453817061,             157P    331
9.14680622123791D-18;                                                157P    332
128,1,1,1,1,0,0,1,0,0,-0.00100000000000013,-0.00100000000000013,     159P    333
0.523955169167167,0.523955169167167,-0.0010000000000001,             159P    334
-0.0010000000000001,0.501,0.501,1.,1.,1.,1.,-19.4522220952235,       159P    335
5.09999999999999,10.01,-14.2026704035519,5.09999999999999,10.01,     159P    336
-19.4522220952235,5.09999999999999,4.99000000000001,                 159P    337
-14.2026704035519,5.09999999999999,4.99000000000001,                 159P    338
-0.00100000000000013,0.523955169167167,-0.0010000000000001,          159P    339
0.501;                                                               159P    340
128,1,2,1,2,0,0,0,0,0,2.26695907998368D-17,2.26695907998368D-17,     161P    341
0.248756218905472,0.248756218905472,-0.51307179731137,               161P    342
-0.51307179731137,-0.51307179731137,7.19611902750243D-17,            161P    343
7.19611902750243D-17,7.19611902750243D-17,1.,1.,                     161P    344
0.967274731105651,0.967274731105651,1.,1.,-19.4422220952235,         161P    345
-5.09999999999997,5.,-19.4422220952235,-5.09999999999997,10.,        161P    346
-20.7800321393949,1.33226762955019D-14,5.00000000000001,             161P    347
-20.7800321393949,9.99200722162641D-15,10.,-19.4422220952235,        161P    348
5.09999999999999,5.00000000000001,-19.4422220952235,                 161P    349
5.09999999999999,10.,2.26695907998368D-17,0.248756218905472,         161P    350
-0.51307179731137,7.19611902750243D-17;                              161P    351
128,1,1,1,1,0,0,1,0,0,-0.00100000000000005,-0.00100000000000005,     163P    352
0.523955169167168,0.523955169167168,-0.00100000000000007,            163P    353
-0.00100000000000007,0.501,0.501,1.,1.,1.,1.,-14.2026704035519,      163P    354
-5.09999999999999,10.01,-19.4522220952235,-5.09999999999997,         163P    355
10.01,-14.2026704035519,-5.09999999999998,4.99,                      163P    356
-19.4522220952235,-5.09999999999997,4.99000000000001,                163P    357
-0.00100000000000005,0.523955169167168,-0.00100000000000007,         163P    358
0.501;                                                               163P    359
128,1,4,1,2,0,0,0,0,0,-1.28305619360901D-16,                         165P    360
-1.28305619360901D-16,0.33112582781457,0.33112582781457,             165P    361
-2.4525453817061,-2.4525453817061,-2.4525453817061,                  165P    362
-1.22627269085305,-1.22627269085305,4.59675336712943D-17,            165P    363
4.59675336712943D-17,4.59675336712943D-17,1.,1.,                     165P    364
0.817847279255382,0.817847279255382,1.,1.,0.817847279255382,         165P    365
0.817847279255382,1.,1.,14.2126704035519,-5.09999999999998,          165P    366
4.99999999999999,14.2126704035519,-5.09999999999999,                 165P    367
9.99999999999999,10.6243229254274,-15.1,4.99999999999998,            165P    368
10.6243229254274,-15.1,9.99999999999999,-5.55111512312578D-16,       165P    369
-15.1,4.99999999999999,1.66533453693773D-15,-15.1,                   165P    370
9.99999999999999,-10.6243229254274,-15.1,4.99999999999999,           165P    371
-10.6243229254274,-15.1,10.,-14.2126704035519,-5.09999999999998,     165P    372
5.,-14.2126704035519,-5.09999999999999,10.,                          165P    373
-1.28305619360901D-16,0.33112582781457,-2.4525453817061,             165P    374
4.59675336712943D-17;                                                165P    375
128,1,1,1,1,0,0,1,0,0,-2.07900321393949,-2.07900321393949,           167P    376
2.07900321393949,2.07900321393949,-1.511,-1.511,1.511,1.511,1.,      167P    377
1.,1.,1.,-20.7900321393949,15.11,5.00000000000002,                   167P    378
20.7900321393949,15.11,5.,-20.7900321393949,-15.11,5.,               167P    379
20.7900321393949,-15.11,4.99999999999998,-2.07900321393949,          167P    380
2.07900321393949,-1.511,1.511;                                       167P    381
502,22,11.1,-4.76527131665661D-14,13.,11.1,                          169P    382
-4.76527131665661D-14,5.99999999999999,7.5,5.19711916774837D-15,     169P    383
5.99999999999999,7.5,5.19711916774837D-15,4.99999999999999,22.,      169P    384
4.90926743701436D-15,9.99999999999999,19.4422220952235,              169P    385
-5.09999999999999,9.99999999999999,14.2126704035519,                 169P    386
-5.09999999999999,9.99999999999999,19.4422220952236,                 169P    387
5.09999999999998,10.,14.2126704035519,5.09999999999999,10.,          169P    388
-14.2126704035519,5.09999999999999,10.,-19.4422220952235,            169P    389
5.09999999999999,10.,-19.4422220952235,-5.09999999999997,10.,        169P    390
-14.2126704035519,-5.09999999999999,10.,22.,                         169P    391
2.95247553159653D-15,13.,14.2126704035519,-5.09999999999999,         169P    392
4.99999999999999,19.4422220952235,-5.09999999999999,                 169P    393
4.99999999999999,19.4422220952235,5.09999999999998,5.,               169P    394
14.2126704035519,5.09999999999999,5.,-14.2126704035519,              169P    395
5.09999999999999,5.00000000000001,-19.4422220952235,                 169P    396
5.09999999999999,5.00000000000001,-19.4422220952235,                 169P    397
-5.09999999999997,5.,-14.2126704035519,-5.09999999999998,5.;         169P    398
504,33,73,169,1,169,1,75,169,1,169,2,77,169,2,169,2,79,169,3,        171P    399
169,3,81,169,3,169,4,83,169,4,169,4,85,169,5,169,5,87,169,6,169,     171P    400
7,89,169,6,169,8,91,169,9,169,8,93,169,9,169,10,95,169,11,169,       171P    401
10,97,169,11,169,12,99,169,13,169,12,101,169,13,169,7,103,169,       171P    402
14,169,14,105,169,14,169,5,107,169,7,169,15,109,169,16,169,15,       171P    403
111,169,6,169,16,113,169,17,169,16,115,169,8,169,17,117,169,18,      171P    404
169,17,119,169,9,169,18,121,169,19,169,18,123,169,10,169,19,125,     171P    405
169,20,169,19,127,169,11,169,20,129,169,21,169,20,131,169,12,        171P    406
169,21,133,169,22,169,21,135,169,13,169,22,137,169,15,169,22;        171P    407
406,1,15HAxe centrale V2;                                            173P    408
314,76.8627450980392,20.7843137254902,15.2941176470588,27HPaint      175P    409
- Enamel Glossy (Red);                                               175P    410
314,62.7450980392157,62.7450980392157,62.7450980392157,13HSteel      177P    411
- Satin;                                                             177P    412
S      1G      3D    178P    412                                        T      1
