0
SECTION
2
HEADER
9
$INSUNITS
70
4
9
$ACADVER
1
AC1014
9
$HANDSEED
5
FFFF
0
ENDSEC
0
SECTION
2
TABLES
0
TABLE
2
VPORT
5
8
100
AcDbSymbolTable
0
ENDTAB
0
TABLE
2
LTYPE
5
5
100
AcDbSymbolTable
0
LTYPE
5
14
100
AcDbSymbolTableRecord
100
AcDbLinetypeTableRecord
2
BYBLOCK
70
0
0
LTYPE
5
15
100
AcDbSymbolTableRecord
100
AcDbLinetypeTableRecord
2
BYLAYER
70
0
0
ENDTAB
0
TABLE
2
LAYER
5
2
100
AcDbSymbolTable
70
2
0
LAYER
5
50
100
AcDbSymbolTableRecord
100
AcDbLayerTableRecord
2
0
70
0
6
CONTINUOUS
0
ENDTAB
0
TABLE
2
STYLE
5
3
100
AcDbSymbolTable
70
1
0
STYLE
5
11
100
AcDbSymbolTableRecord
100
AcDbTextStyleTableRecord
2
STANDARD
70
0
0
ENDTAB
0
TABLE
2
VIEW
5
6
100
AcDbSymbolTable
70
0
0
ENDTAB
0
TABLE
2
UCS
5
7
100
AcDbSymbolTable
70
0
0
ENDTAB
0
TABLE
2
APPID
5
9
100
AcDbSymbolTable
70
2
0
APPID
5
12
100
AcDbSymbolTableRecord
100
AcDbRegAppTableRecord
2
ACAD
70
0
0
ENDTAB
0
TABLE
2
DIMSTYLE
5
A
100
AcDbSymbolTable
70
1
0
ENDTAB
0
TABLE
2
BLOCK_RECORD
5
1
100
AcDbSymbolTable
70
1
0
BLOCK_RECORD
5
1F
100
AcDbSymbolTableRecord
100
AcDbBlockTableRecord
2
*MODEL_SPACE
0
BLOCK_RECORD
5
1B
100
AcDbSymbolTableRecord
100
AcDbBlockTableRecord
2
*PAPER_SPACE
0
ENDTAB
0
ENDSEC
0
SECTION
2
BLOCKS
0
BLOCK
5
20
100
AcDbEntity
100
AcDbBlockBegin
2
*MODEL_SPACE
0
ENDBLK
5
21
100
AcDbEntity
100
AcDbBlockEnd
0
BLOCK
5
1C
100
AcDbEntity
100
AcDbBlockBegin
2
*PAPER_SPACE
0
ENDBLK
5
1D
100
AcDbEntity
100
AcDbBlockEnd
0
ENDSEC
0
SECTION
2
ENTITIES
0
LINE
5
100
100
AcDbEntity
8
0
100
AcDbLine
10
-47.5
20
60
30
0
11
47.5
21
60
31
0
0
LINE
5
101
100
AcDbEntity
8
0
100
AcDbLine
10
3.8051109725220489e-15
20
60
30
0
11
0
21
0
31
0
0
LINE
5
102
100
AcDbEntity
8
0
100
AcDbLine
10
-47.5
20
60
30
0
11
-47.5
21
62
31
0
0
LINE
5
103
100
AcDbEntity
8
0
100
AcDbLine
10
47.5
20
60
30
0
11
47.5
21
62
31
0
0
LINE
5
104
100
AcDbEntity
8
0
100
AcDbLine
10
3.8051109725220489e-15
20
60
30
0
11
3.8051109725220489e-15
21
66
31
0
0
SPLINE
5
105
100
AcDbEntity
8
0
100
AcDbSpline
70
4
71
5
72
21
73
15
74
0
42
0.000000001
43
0.0000000001
44
0.0000000001
40
0
40
0
40
0
40
0
40
0
40
0
40
0.10000000000000001
40
0.20000000000000001
40
0.30000000000000004
40
0.40000000000000002
40
0.5
40
0.59999999999999998
40
0.69999999999999996
40
0.79999999999999993
40
0.89999999999999991
40
1
40
1
40
1
40
1
40
1
40
1
41
1
41
1
41
1
41
1
41
1
41
1
41
1
41
1
41
1
41
1
41
1
41
1
41
1
41
1
41
1
10
-47.5
20
62
30
0
10
-45.60000000000565
20
62.303390436771409
30
0
10
-41.800000000015494
20
62.883676368047652
30
0
10
-36.10000000002573
20
63.674622874059878
30
0
10
-28.500000000031022
20
64.567617104846761
30
0
10
-19.000000000026709
20
65.396245557764544
30
0
10
-9.5000000000149534
20
65.911555855740801
30
0
10
1.3888196148670318e-13
20
66.087978854317313
30
0
10
9.5000000000146816
20
65.911555855777053
30
0
10
19.000000000025103
20
65.396245557828024
30
0
10
28.500000000028322
20
64.567617104919876
30
0
10
36.10000000002298
20
63.674622874119891
30
0
10
41.800000000013625
20
62.88367636808352
30
0
10
45.60000000000494
20
62.303390436784483
30
0
10
47.5
20
62
30
0
0
SPLINE
5
106
100
AcDbEntity
8
0
100
AcDbSpline
70
4
71
5
72
21
73
15
74
0
42
0.000000001
43
0.0000000001
44
0.0000000001
40
0
40
0
40
0
40
0
40
0
40
0
40
0.10000000000000001
40
0.20000000000000001
40
0.30000000000000004
40
0.40000000000000002
40
0.5
40
0.59999999999999998
40
0.69999999999999996
40
0.79999999999999993
40
0.89999999999999991
40
1
40
1
40
1
40
1
40
1
40
1
41
1
41
1
41
1
41
1
41
1
41
1
41
1
41
1
41
1
41
1
41
1
41
1
41
1
41
1
41
1
10
-47.5
20
63
30
0
10
-45.60000000000565
20
63.30339043677229
30
0
10
-41.800000000015494
20
63.883676368049976
30
0
10
-36.10000000002573
20
64.674622874063232
30
0
10
-28.500000000031022
20
65.567617104849575
30
0
10
-19.000000000026709
20
66.396245557765084
30
0
10
-9.5000000000149534
20
66.911555855739664
30
0
10
1.3888196148670318e-13
20
67.087978854316631
30
0
10
9.5000000000146816
20
66.911555855779596
30
0
10
19.000000000025103
20
66.396245557835016
30
0
10
28.500000000028322
20
65.567617104930022
30
0
10
36.10000000002298
20
64.674622874129284
30
0
10
41.800000000013625
20
63.883676368089482
30
0
10
45.60000000000494
20
63.303390436786692
30
0
10
47.5
20
63
30
0
0
LINE
5
107
100
AcDbEntity
8
0
100
AcDbLine
10
3.9334436426575671e-15
20
67
30
0
11
3.8051109725220489e-15
21
66
31
0
0
LINE
5
108
100
AcDbEntity
8
0
100
AcDbLine
10
-47.5
20
62
30
0
11
-47.5
21
63
31
0
0
LINE
5
109
100
AcDbEntity
8
0
100
AcDbLine
10
47.5
20
63
30
0
11
47.5
21
62
31
0
0
LINE
5
110
100
AcDbEntity
8
0
100
AcDbLine
10
47.5
20
63
30
0
11
49.477389335555138
21
62.700114329063894
31
0
0
LINE
5
111
100
AcDbEntity
8
0
100
AcDbLine
10
-47.5
20
63
30
0
11
-49.477366883681107
21
62.699966323021449
31
0
0
LINE
5
112
100
AcDbEntity
8
0
100
AcDbLine
10
-49.477366883681107
20
62.699966323021449
30
0
11
-56.977366883681128
21
75.690347379788022
31
0
0
LINE
5
113
100
AcDbEntity
8
0
100
AcDbLine
10
-49.477366883681107
20
62.699966323021449
30
0
11
-36.966218849568584
21
62.699966323021449
31
0
0
LINE
5
114
100
AcDbEntity
8
0
100
AcDbLine
10
49.477389335555138
20
62.700114329063894
30
0
11
54.607691485440199
21
76.795503640852516
31
0
0
LINE
5
115
100
AcDbEntity
8
0
100
AcDbLine
10
49.477389335555138
20
62.700114329063894
30
0
11
66.988144306809488
21
62.700114329063894
31
0
0
SPLINE
5
116
100
AcDbEntity
8
0
100
AcDbSpline
70
4
71
5
72
21
73
15
74
0
42
0.000000001
43
0.0000000001
44
0.0000000001
40
0
40
0
40
0
40
0
40
0
40
0
40
0.10000000000000001
40
0.20000000000000001
40
0.30000000000000004
40
0.40000000000000002
40
0.5
40
0.59999999999999998
40
0.69999999999999996
40
0.79999999999999993
40
0.89999999999999991
40
1
40
1
40
1
40
1
40
1
40
1
41
1
41
1
41
1
41
1
41
1
41
1
41
1
41
1
41
1
41
1
41
1
41
1
41
1
41
1
41
1
10
-56.977366883681128
20
75.690347379788022
30
0
10
-54.702279094148565
20
76.52499701817618
30
0
10
-50.155873195035838
20
78.123697567741004
30
0
10
-43.347572948019071
20
80.309960417170231
30
0
10
-34.292832373735521
20
82.794362007694517
30
0
10
-23.015346007094681
20
85.133150077223405
30
0
10
-11.78252216526516
20
86.635496473974797
30
0
10
-0.59810760635894744
20
87.231231752027
30
0
10
10.535669213908639
20
86.878621297621535
30
0
10
21.620576762386975
20
85.610785033570963
30
0
10
32.660205978423178
20
83.494974225494744
30
0
10
41.458609184314447
20
81.178678630328079
30
0
10
48.039863524122133
20
79.112816030471521
30
0
10
52.419694225042043
20
77.591889152455281
30
0
10
54.607691485440199
20
76.795503640852516
30
0
0
ENDSEC
0
SECTION
2
OBJECTS
0
DICTIONARY
5
C
100
AcDbDictionary
3
ACAD_GROUP
350
D
3
ACAD_MLINESTYLE
350
17
0
DICTIONARY
5
D
100
AcDbDictionary
0
DICTIONARY
5
1A
330
C
100
AcDbDictionary
0
DICTIONARY
5
17
100
AcDbDictionary
0
ENDSEC
0
EOF
