0
SECTION
2
HEADER
9
$INSUNITS
70
4
9
$ACADVER
1
AC1014
9
$HANDSEED
5
FFFF
0
ENDSEC
0
SECTION
2
TABLES
0
TABLE
2
VPORT
5
8
100
AcDbSymbolTable
0
ENDTAB
0
TABLE
2
LTYPE
5
5
100
AcDbSymbolTable
0
LTYPE
5
14
100
AcDbSymbolTableRecord
100
AcDbLinetypeTableRecord
2
BYBLOCK
70
0
0
LTYPE
5
15
100
AcDbSymbolTableRecord
100
AcDbLinetypeTableRecord
2
BYLAYER
70
0
0
ENDTAB
0
TABLE
2
LAYER
5
2
100
AcDbSymbolTable
70
2
0
LAYER
5
50
100
AcDbSymbolTableRecord
100
AcDbLayerTableRecord
2
0
70
0
6
CONTINUOUS
0
ENDTAB
0
TABLE
2
STYLE
5
3
100
AcDbSymbolTable
70
1
0
STYLE
5
11
100
AcDbSymbolTableRecord
100
AcDbTextStyleTableRecord
2
STANDARD
70
0
0
ENDTAB
0
TABLE
2
VIEW
5
6
100
AcDbSymbolTable
70
0
0
ENDTAB
0
TABLE
2
UCS
5
7
100
AcDbSymbolTable
70
0
0
ENDTAB
0
TABLE
2
APPID
5
9
100
AcDbSymbolTable
70
2
0
APPID
5
12
100
AcDbSymbolTableRecord
100
AcDbRegAppTableRecord
2
ACAD
70
0
0
ENDTAB
0
TABLE
2
DIMSTYLE
5
A
100
AcDbSymbolTable
70
1
0
ENDTAB
0
TABLE
2
BLOCK_RECORD
5
1
100
AcDbSymbolTable
70
1
0
BLOCK_RECORD
5
1F
100
AcDbSymbolTableRecord
100
AcDbBlockTableRecord
2
*MODEL_SPACE
0
BLOCK_RECORD
5
1B
100
AcDbSymbolTableRecord
100
AcDbBlockTableRecord
2
*PAPER_SPACE
0
ENDTAB
0
ENDSEC
0
SECTION
2
BLOCKS
0
BLOCK
5
20
100
AcDbEntity
100
AcDbBlockBegin
2
*MODEL_SPACE
0
ENDBLK
5
21
100
AcDbEntity
100
AcDbBlockEnd
0
BLOCK
5
1C
100
AcDbEntity
100
AcDbBlockBegin
2
*PAPER_SPACE
0
ENDBLK
5
1D
100
AcDbEntity
100
AcDbBlockEnd
0
ENDSEC
0
SECTION
2
ENTITIES
0
LINE
5
100
100
AcDbEntity
8
0
100
AcDbLine
10
-281.99174652639311
20
7.6525110502441507
30
0
11
301.47228371739266
21
7.6525110502440974
31
0
0
LINE
5
101
100
AcDbEntity
8
0
100
AcDbLine
10
-254.94915127134027
20
233.29799979496596
30
0
11
277.05084714843917
21
233.29799979496596
31
0
0
LINE
5
102
100
AcDbEntity
8
0
100
AcDbLine
10
-254.97376164828597
20
-242.82950407164873
30
0
11
275.22228371739266
21
-242.82950407164873
31
0
0
LINE
5
103
100
AcDbEntity
8
0
100
AcDbLine
10
-199.49174652639311
20
54.527511050244151
30
0
11
-199.49174652639311
21
-39.222488949755849
31
0
0
LINE
5
104
100
AcDbEntity
8
0
100
AcDbLine
10
-172.94915127134027
20
185.79799979496596
30
0
11
-172.94915127134027
21
-195.95450407164873
31
0
0
LINE
5
105
100
AcDbEntity
8
0
100
AcDbLine
10
-240.74174652639311
20
54.527511050244151
30
0
11
-240.74174652639311
21
-39.222488949755849
31
0
0
LINE
5
106
100
AcDbEntity
8
0
100
AcDbLine
10
260.22228371739266
20
54.527511050244101
30
0
11
260.22228371739266
21
-39.222488949755899
31
0
0
LINE
5
107
100
AcDbEntity
8
0
100
AcDbLine
10
-213.94915127134027
20
280.79799979496602
30
0
11
-213.94915127134027
21
185.79799979496596
31
0
0
LINE
5
108
100
AcDbEntity
8
0
100
AcDbLine
10
233.79430136889283
20
280.83900411941545
30
0
11
233.79430136889283
21
185.75699547051644
31
0
0
LINE
5
109
100
AcDbEntity
8
0
100
AcDbLine
10
-172.94915127134027
20
185.79799979496596
30
0
11
-254.94915127134027
21
185.79799979496596
31
0
0
LWPOLYLINE
5
110
100
AcDbEntity
8
0
100
AcDbPolyline
90
4
70
1
43
0.0
10
-254.94915127134027
20
280.79799979496596
10
-254.94915127134027
20
185.79799979496596
10
-172.94915127134027
20
185.79799979496596
10
-172.9491512713403
20
280.79799979496602
0
LWPOLYLINE
5
111
100
AcDbEntity
8
0
100
AcDbPolyline
90
4
70
1
43
0.0
10
194.05084872865973
20
280.79799979496596
10
194.05084872865973
20
185.79799979496596
10
276.05084872865979
20
185.79799979496596
10
276.05084872865973
20
280.79799979496602
0
LWPOLYLINE
5
112
100
AcDbEntity
8
0
100
AcDbPolyline
90
4
70
1
43
0.0
10
-172.9491512713403
20
-194.20200020503401
10
-254.94915127134027
20
-194.20200020503404
10
-254.94915127134027
20
-289.20200020503404
10
-172.94915127134027
20
-289.20200020503404
0
LWPOLYLINE
5
113
100
AcDbEntity
8
0
100
AcDbPolyline
90
4
70
1
43
0.0
10
276.05084872865973
20
-194.20200020503401
10
194.05084872865973
20
-194.20200020503404
10
194.05084872865973
20
-289.20200020503404
10
276.05084872865979
20
-289.20200020503404
0
LWPOLYLINE
5
114
100
AcDbEntity
8
0
100
AcDbPolyline
90
4
70
1
43
0.0
10
-279.94915127134027
20
-39.202000205034047
10
-197.94915127134027
20
-39.202000205034047
10
-197.9491512713403
20
55.797999794965989
10
-279.94915127134027
20
55.797999794965953
0
LWPOLYLINE
5
115
100
AcDbEntity
8
0
100
AcDbPolyline
90
4
70
1
43
0.0
10
220.05084872865973
20
-39.202000205034047
10
302.05084872865973
20
-39.202000205034047
10
302.05084872865973
20
55.797999794965989
10
220.05084872865973
20
55.797999794965953
0
ENDSEC
0
SECTION
2
OBJECTS
0
DICTIONARY
5
C
100
AcDbDictionary
3
ACAD_GROUP
350
D
3
ACAD_MLINESTYLE
350
17
0
DICTIONARY
5
D
100
AcDbDictionary
0
DICTIONARY
5
1A
330
C
100
AcDbDictionary
0
DICTIONARY
5
17
100
AcDbDictionary
0
ENDSEC
0
EOF
