0
SECTION
2
HEADER
9
$INSUNITS
70
4
9
$ACADVER
1
AC1014
9
$HANDSEED
5
FFFF
0
ENDSEC
0
SECTION
2
TABLES
0
TABLE
2
VPORT
5
8
100
AcDbSymbolTable
0
ENDTAB
0
TABLE
2
LTYPE
5
5
100
AcDbSymbolTable
0
LTYPE
5
14
100
AcDbSymbolTableRecord
100
AcDbLinetypeTableRecord
2
BYBLOCK
70
0
0
LTYPE
5
15
100
AcDbSymbolTableRecord
100
AcDbLinetypeTableRecord
2
BYLAYER
70
0
0
ENDTAB
0
TABLE
2
LAYER
5
2
100
AcDbSymbolTable
70
2
0
LAYER
5
50
100
AcDbSymbolTableRecord
100
AcDbLayerTableRecord
2
0
70
0
6
CONTINUOUS
0
ENDTAB
0
TABLE
2
STYLE
5
3
100
AcDbSymbolTable
70
1
0
STYLE
5
11
100
AcDbSymbolTableRecord
100
AcDbTextStyleTableRecord
2
STANDARD
70
0
0
ENDTAB
0
TABLE
2
VIEW
5
6
100
AcDbSymbolTable
70
0
0
ENDTAB
0
TABLE
2
UCS
5
7
100
AcDbSymbolTable
70
0
0
ENDTAB
0
TABLE
2
APPID
5
9
100
AcDbSymbolTable
70
2
0
APPID
5
12
100
AcDbSymbolTableRecord
100
AcDbRegAppTableRecord
2
ACAD
70
0
0
ENDTAB
0
TABLE
2
DIMSTYLE
5
A
100
AcDbSymbolTable
70
1
0
ENDTAB
0
TABLE
2
BLOCK_RECORD
5
1
100
AcDbSymbolTable
70
1
0
BLOCK_RECORD
5
1F
100
AcDbSymbolTableRecord
100
AcDbBlockTableRecord
2
*MODEL_SPACE
0
BLOCK_RECORD
5
1B
100
AcDbSymbolTableRecord
100
AcDbBlockTableRecord
2
*PAPER_SPACE
0
ENDTAB
0
ENDSEC
0
SECTION
2
BLOCKS
0
BLOCK
5
20
100
AcDbEntity
100
AcDbBlockBegin
2
*MODEL_SPACE
0
ENDBLK
5
21
100
AcDbEntity
100
AcDbBlockEnd
0
BLOCK
5
1C
100
AcDbEntity
100
AcDbBlockBegin
2
*PAPER_SPACE
0
ENDBLK
5
1D
100
AcDbEntity
100
AcDbBlockEnd
0
ENDSEC
0
SECTION
2
ENTITIES
0
LINE
5
100
100
AcDbEntity
8
0
100
AcDbLine
10
-44.975441203041733
20
-19.44123187021129
30
0
11
-45.549466351588784
21
-18.055412571444091
31
0
0
LINE
5
101
100
AcDbEntity
8
0
100
AcDbLine
10
83.428527184530466
20
-33.745433298465379
30
0
11
82.854502035982293
21
-35.131252597232077
31
0
0
LINE
5
102
100
AcDbEntity
8
0
100
AcDbLine
10
35.131252597232049
20
82.854502035982279
30
0
11
13.700980384765945
21
31.117248215358934
31
0
0
LINE
5
103
100
AcDbEntity
8
0
100
AcDbLine
10
33.745433298465372
20
83.428527184530466
30
0
11
12.315161085999993
21
31.691273363906838
31
0
0
LINE
5
104
100
AcDbEntity
8
0
100
AcDbLine
10
35.131252597164519
20
-82.854502036010885
30
0
11
13.70098038473985
21
-31.117248215370424
31
0
0
LINE
5
105
100
AcDbEntity
8
0
100
AcDbLine
10
33.745433298465372
20
83.428527184530466
30
0
11
35.131252597232049
21
82.854502035982279
31
0
0
LINE
5
106
100
AcDbEntity
8
0
100
AcDbLine
10
-33.745433298465379
20
-83.428527184530466
30
0
11
-35.131252597232077
21
-82.854502035982293
31
0
0
LINE
5
107
100
AcDbEntity
8
0
100
AcDbLine
10
-45.549466351574104
20
18.055412571481234
30
0
11
-44.975441203025859
21
19.441231870247936
31
0
0
LINE
5
108
100
AcDbEntity
8
0
100
AcDbLine
10
19.44123187021129
20
-44.97544120304174
30
0
11
18.055412571444091
21
-45.549466351588784
31
0
0
LINE
5
109
100
AcDbEntity
8
0
100
AcDbLine
10
0
20
0
30
0
11
34.438342947848717
21
83.14151461025638
31
0
0
LINE
5
110
100
AcDbEntity
8
0
100
AcDbLine
10
35.131252597164519
20
-82.854502036010885
30
0
11
33.745433298397373
21
-83.428527184558007
31
0
0
LINE
5
111
100
AcDbEntity
8
0
100
AcDbLine
10
0
20
0
30
0
11
0
21
34.000000000005741
31
0
0
LINE
5
112
100
AcDbEntity
8
0
100
AcDbLine
10
-35.131252597164526
20
82.854502036010885
30
0
11
-13.700980384739855
21
31.11724821537042
31
0
0
LINE
5
113
100
AcDbEntity
8
0
100
AcDbLine
10
45.549466351574097
20
-18.055412571481241
30
0
11
44.975441203025852
21
-19.44123187024794
31
0
0
LINE
5
114
100
AcDbEntity
8
0
100
AcDbLine
10
82.854502036010885
20
35.131252597164504
30
0
11
83.428527184558007
21
33.745433298397373
31
0
0
LINE
5
115
100
AcDbEntity
8
0
100
AcDbLine
10
-35.131252597164526
20
82.854502036010885
30
0
11
-33.745433298397394
21
83.428527184558007
31
0
0
LINE
5
116
100
AcDbEntity
8
0
100
AcDbLine
10
33.745433298397373
20
-83.428527184558007
30
0
11
12.315161085973418
21
-31.691273363917173
31
0
0
CIRCLE
5
117
100
AcDbEntity
8
0
100
AcDbCircle
10
0
20
0
30
0
40
31
210
0
220
0
230
1
0
LINE
5
118
100
AcDbEntity
8
0
100
AcDbLine
10
-83.428527184558007
20
-33.74543329839738
30
0
11
-31.691273363917173
21
-12.315161085973422
31
0
0
LINE
5
119
100
AcDbEntity
8
0
100
AcDbLine
10
-83.428527184530466
20
33.745433298465372
30
0
11
-31.691273363906838
21
12.315161085999994
31
0
0
LINE
5
120
100
AcDbEntity
8
0
100
AcDbLine
10
-18.055412571481238
20
-45.549466351574104
30
0
11
-19.44123187024794
21
-44.975441203025866
31
0
0
CIRCLE
5
121
100
AcDbEntity
8
0
100
AcDbCircle
10
0
20
0
30
0
40
34
210
0
220
0
230
1
0
LINE
5
122
100
AcDbEntity
8
0
100
AcDbLine
10
-35.131252597232077
20
-82.854502035982293
30
0
11
-13.700980384765948
21
-31.117248215358927
31
0
0
LINE
5
123
100
AcDbEntity
8
0
100
AcDbLine
10
-82.854502036010871
20
-35.131252597164519
30
0
11
-31.11724821537042
21
-13.700980384739854
31
0
0
LINE
5
124
100
AcDbEntity
8
0
100
AcDbLine
10
83.428527184530466
20
-33.745433298465379
30
0
11
31.691273363906841
21
-12.315161086
31
0
0
LINE
5
125
100
AcDbEntity
8
0
100
AcDbLine
10
18.055412571481224
20
45.549466351574097
30
0
11
19.44123187024794
21
44.975441203025852
31
0
0
LINE
5
126
100
AcDbEntity
8
0
100
AcDbLine
10
-82.854502035982293
20
35.13125259723207
30
0
11
-31.117248215358934
21
13.700980384765945
31
0
0
LINE
5
127
100
AcDbEntity
8
0
100
AcDbLine
10
83.428527184558007
20
33.745433298397373
30
0
11
31.691273363917173
21
12.315161085973415
31
0
0
LINE
5
128
100
AcDbEntity
8
0
100
AcDbLine
10
-82.854502036010871
20
-35.131252597164519
30
0
11
-83.428527184558007
21
-33.74543329839738
31
0
0
LINE
5
129
100
AcDbEntity
8
0
100
AcDbLine
10
-83.428527184530466
20
33.745433298465372
30
0
11
-82.854502035982293
21
35.13125259723207
31
0
0
LINE
5
130
100
AcDbEntity
8
0
100
AcDbLine
10
82.854502036010885
20
35.131252597164504
30
0
11
31.11724821537042
21
13.700980384739845
31
0
0
LINE
5
131
100
AcDbEntity
8
0
100
AcDbLine
10
44.975441203041733
20
19.441231870211286
30
0
11
45.549466351588784
21
18.055412571444087
31
0
0
LINE
5
132
100
AcDbEntity
8
0
100
AcDbLine
10
-19.441231870211301
20
44.975441203041733
30
0
11
-18.055412571444094
21
45.549466351588784
31
0
0
LINE
5
133
100
AcDbEntity
8
0
100
AcDbLine
10
82.854502035982293
20
-35.131252597232077
30
0
11
31.117248215358927
21
-13.700980384765948
31
0
0
LINE
5
134
100
AcDbEntity
8
0
100
AcDbLine
10
-33.745433298465379
20
-83.428527184530466
30
0
11
-12.315161085999996
21
-31.691273363906841
31
0
0
LINE
5
135
100
AcDbEntity
8
0
100
AcDbLine
10
-33.745433298397394
20
83.428527184558007
30
0
11
-12.315161085973426
21
31.691273363917173
31
0
0
LINE
5
136
100
AcDbEntity
8
0
100
AcDbLine
10
-7.0000000000000009
20
33.271609519228249
30
0
11
-7.0000000000000009
21
40
31
0
0
LINE
5
137
100
AcDbEntity
8
0
100
AcDbLine
10
-7.0000000000000009
20
40
30
0
11
7.0000000000000009
21
40
31
0
0
LINE
5
138
100
AcDbEntity
8
0
100
AcDbLine
10
7.0000000000000009
20
40
30
0
11
7.0000000000000124
21
33.271609519228257
31
0
0
LINE
5
139
100
AcDbEntity
8
0
100
AcDbLine
10
0
20
34.000000000005741
30
0
11
-3.6688965440576843e-31
21
40
31
0
0
CIRCLE
5
140
100
AcDbEntity
8
0
100
AcDbCircle
10
-1.6647256956809081e-31
20
37
30
0
40
2.1000000000000001
210
0
220
0
230
1
0
LINE
5
141
100
AcDbEntity
8
0
100
AcDbLine
10
-4
20
40
30
0
11
-4
21
33.763886032268275
31
0
0
LINE
5
142
100
AcDbEntity
8
0
100
AcDbLine
10
4
20
40
30
0
11
4.0000000000000009
21
33.763886032268275
31
0
0
LINE
5
143
100
AcDbEntity
8
0
100
AcDbLine
10
-33.271609519228264
20
-7.0000000000000098
30
0
11
-40.000000000000007
21
-7.0000000000000107
31
0
0
LINE
5
144
100
AcDbEntity
8
0
100
AcDbLine
10
-40.000000000000007
20
-4.0000000000000107
30
0
11
-33.763886032268282
21
-4.0000000000000089
31
0
0
LINE
5
145
100
AcDbEntity
8
0
100
AcDbLine
10
-40.000000000000007
20
-7.0000000000000107
30
0
11
-40.000000000000007
21
6.9999999999999929
31
0
0
CIRCLE
5
146
100
AcDbEntity
8
0
100
AcDbCircle
10
-37.000000000000014
20
-8.2156503822261584e-15
30
0
40
2.1000000000000001
210
0
220
0
230
1
0
LINE
5
147
100
AcDbEntity
8
0
100
AcDbLine
10
-40.000000000000007
20
3.9999999999999925
30
0
11
-33.763886032268282
21
3.9999999999999942
31
0
0
LINE
5
148
100
AcDbEntity
8
0
100
AcDbLine
10
-40.000000000000007
20
6.9999999999999929
30
0
11
-33.271609519228264
21
7.0000000000000062
31
0
0
LINE
5
149
100
AcDbEntity
8
0
100
AcDbLine
10
6.9999999999999964
20
-33.271609519228249
30
0
11
6.9999999999999964
21
-40
31
0
0
LINE
5
150
100
AcDbEntity
8
0
100
AcDbLine
10
3.9999999999999951
20
-40
30
0
11
3.9999999999999964
21
-33.763886032268275
31
0
0
LINE
5
151
100
AcDbEntity
8
0
100
AcDbLine
10
6.9999999999999964
20
-40
30
0
11
-7.0000000000000053
21
-40
31
0
0
CIRCLE
5
152
100
AcDbEntity
8
0
100
AcDbCircle
10
-4.5311931568452068e-15
20
-37
30
0
40
2.1000000000000001
210
0
220
0
230
1
0
LINE
5
153
100
AcDbEntity
8
0
100
AcDbLine
10
-4.0000000000000053
20
-40
30
0
11
-4.0000000000000044
21
-33.763886032268275
31
0
0
LINE
5
154
100
AcDbEntity
8
0
100
AcDbLine
10
-7.0000000000000053
20
-40
30
0
11
-7.0000000000000178
21
-33.271609519228257
31
0
0
LINE
5
155
100
AcDbEntity
8
0
100
AcDbLine
10
33.271609519228249
20
6.9999999999999929
30
0
11
40
21
6.999999999999992
31
0
0
LINE
5
156
100
AcDbEntity
8
0
100
AcDbLine
10
40
20
3.9999999999999911
30
0
11
33.763886032268275
21
3.9999999999999925
31
0
0
LINE
5
157
100
AcDbEntity
8
0
100
AcDbLine
10
40
20
6.999999999999992
30
0
11
40
21
-7.0000000000000098
31
0
0
CIRCLE
5
158
100
AcDbEntity
8
0
100
AcDbCircle
10
37
20
-8.2156503822261584e-15
30
0
40
2.1000000000000001
210
0
220
0
230
1
0
LINE
5
159
100
AcDbEntity
8
0
100
AcDbLine
10
40
20
-4.0000000000000089
30
0
11
33.763886032268275
21
-4.0000000000000089
31
0
0
LINE
5
160
100
AcDbEntity
8
0
100
AcDbLine
10
40
20
-7.0000000000000098
30
0
11
33.271609519228257
21
-7.0000000000000204
31
0
0
LINE
5
161
100
AcDbEntity
8
0
100
AcDbLine
10
34.854088737478712
20
82.969307065691908
30
0
11
13.423816525012606
21
31.232053245068563
31
0
0
LINE
5
162
100
AcDbEntity
8
0
100
AcDbLine
10
34.022597158218709
20
83.313722154820837
30
0
11
12.592324945753335
21
31.576468334197205
31
0
0
LINE
5
163
100
AcDbEntity
8
0
100
AcDbLine
10
-34.854088737411111
20
82.969307065720329
30
0
11
-13.423816524986423
21
31.232053245079836
31
0
0
LINE
5
164
100
AcDbEntity
8
0
100
AcDbLine
10
-34.022597158150809
20
83.313722154848548
30
0
11
-12.592324945726855
21
31.576468334207746
31
0
0
LINE
5
165
100
AcDbEntity
8
0
100
AcDbLine
10
-83.313722154820852
20
34.022597158218701
30
0
11
-31.576468334197219
21
12.59232494575333
31
0
0
LINE
5
166
100
AcDbEntity
8
0
100
AcDbLine
10
-82.969307065691922
20
34.854088737478705
30
0
11
-31.232053245068577
21
13.423816525012601
31
0
0
LINE
5
167
100
AcDbEntity
8
0
100
AcDbLine
10
-82.969307065720344
20
-34.854088737411089
30
0
11
-31.23205324507984
21
-13.423816524986421
31
0
0
LINE
5
168
100
AcDbEntity
8
0
100
AcDbLine
10
-83.313722154848548
20
-34.022597158150788
30
0
11
-31.576468334207753
21
-12.592324945726848
31
0
0
LINE
5
169
100
AcDbEntity
8
0
100
AcDbLine
10
-34.022597158218716
20
-83.313722154820837
30
0
11
-12.59232494575334
21
-31.576468334197205
31
0
0
LINE
5
170
100
AcDbEntity
8
0
100
AcDbLine
10
-34.854088737478726
20
-82.969307065691908
30
0
11
-13.423816525012612
21
-31.232053245068563
31
0
0
LINE
5
171
100
AcDbEntity
8
0
100
AcDbLine
10
34.854088737411104
20
-82.969307065720301
30
0
11
13.423816524986423
21
-31.232053245079836
31
0
0
LINE
5
172
100
AcDbEntity
8
0
100
AcDbLine
10
34.022597158150802
20
-83.313722154848548
30
0
11
12.592324945726849
21
-31.576468334207746
31
0
0
LINE
5
173
100
AcDbEntity
8
0
100
AcDbLine
10
83.313722154820837
20
-34.02259715821873
30
0
11
31.576468334197202
21
-12.592324945753342
31
0
0
LINE
5
174
100
AcDbEntity
8
0
100
AcDbLine
10
82.969307065691908
20
-34.854088737478733
30
0
11
31.23205324506856
21
-13.423816525012613
31
0
0
LINE
5
175
100
AcDbEntity
8
0
100
AcDbLine
10
82.969307065720344
20
34.854088737411082
30
0
11
31.23205324507984
21
13.423816524986416
31
0
0
LINE
5
176
100
AcDbEntity
8
0
100
AcDbLine
10
83.313722154848548
20
34.022597158150781
30
0
11
31.576468334207746
21
12.592324945726842
31
0
0
ENDSEC
0
SECTION
2
OBJECTS
0
DICTIONARY
5
C
100
AcDbDictionary
3
ACAD_GROUP
350
D
3
ACAD_MLINESTYLE
350
17
0
DICTIONARY
5
D
100
AcDbDictionary
0
DICTIONARY
5
1A
330
C
100
AcDbDictionary
0
DICTIONARY
5
17
100
AcDbDictionary
0
ENDSEC
0
EOF
