                                                                        S      1
,,9Htige 81.8,9Htige 81.8,7Hunknown,7Hunknown,32,38,7,99,15,,1.,2,2HMM, G      1
1,0.08,15H20201211.162554,0.01,10000.,7Hunknown,7Hunknown,11,0,;        G      2
     186       1                                                00000000D      1
     186             -47       1       0                               0D      2
     514       2                                                00010000D      3
     514                       1       1                               0D      4
     510       3                                                00010000D      5
     510             -47       1       1                               0D      6
     510       4                                                00010000D      7
     510             -47       1       1                               0D      8
     510       5                                                00010000D      9
     510             -47       1       1                               0D     10
     510       6                                                00010000D     11
     510             -47       1       1                               0D     12
     508       7                                                00010000D     13
     508                       1       1                               0D     14
     508       8                                                00010000D     15
     508                       1       1                               0D     16
     508       9                                                00010000D     17
     508                       1       1                               0D     18
     508      10                                                00010000D     19
     508                       1       1                               0D     20
     126      11                                                00010000D     21
     126       0               5       0                               0D     22
     126      16                                                00010000D     23
     126       0               3       0                               0D     24
     126      19                                                00010000D     25
     126       0               5       0                               0D     26
     126      24                                                00010000D     27
     126       0               3       0                               0D     28
     126      27                                                00010000D     29
     126       0              16       0                               0D     30
     126      43                                                00010000D     31
     126       0              16       0                               0D     32
     128      59                                                00010000D     33
     128       0     -47       8       0                               0D     34
     128      67                                                00010000D     35
     128       0     -47      28       0                               0D     36
     128      95                                                00010000D     37
     128       0     -47       9       0                               0D     38
     128     104                                                00010000D     39
     128       0     -47       9       0                               0D     40
     502     113                                                00010000D     41
     502                       4       1                               0D     42
     504     117                                                00010001D     43
     504                       2       1                               0D     44
     406     119                                                00000000D     45
     406                       1      15                               0D     46
     314     120                                                00000200D     47
     314                       2       0                               0D     48
186,3,1,0,0,1,45;                                                      1P      1
514,4,5,1,7,1,9,1,11,1;                                                3P      2
510,33,1,1,13;                                                         5P      3
510,35,1,1,15;                                                         7P      4
510,37,1,1,17;                                                         9P      5
510,39,1,1,19;                                                        11P      6
508,4,0,43,1,1,0,0,43,2,1,0,0,43,3,0,0,0,43,4,0,0;                    13P      7
508,4,0,43,5,1,0,0,43,4,1,0,0,43,6,0,0,0,43,2,0,0;                    15P      8
508,2,0,43,6,1,0,0,43,3,1,0;                                          17P      9
508,2,0,43,5,0,0,0,43,1,0,0;                                          19P     10
126,1,1,0,0,1,0,1.93634508173785D-16,1.93634508173785D-16,            21P     11
0.100076519041379,0.100076519041379,1.,1.,5.50467506581881,           21P     12
-53.6623375602355,48.192868354026,5.73574838638083,                   21P     13
-54.6318526156309,48.2832931527827,1.93634508173785D-16,              21P     14
0.100076519041379,0.,0.,0.;                                           21P     15
126,1,1,0,0,1,0,0.,0.,8.18,8.18,1.,1.,5.73574838638083,               23P     16
-54.6318526156309,48.2832931527827,56.2267030440634,                  23P     17
-48.5737436927734,-15.7885634929758,0.,8.18,0.,0.,0.;                 23P     18
126,1,1,0,0,1,0,1.93634508173785D-16,1.93634508173785D-16,            25P     19
0.100076519041379,0.100076519041379,1.,1.,55.9956297235014,           25P     20
-47.6042286373781,-15.8789882917325,56.2267030440634,                 25P     21
-48.5737436927734,-15.7885634929758,1.93634508173785D-16,             25P     22
0.100076519041379,0.,0.,0.;                                           25P     23
126,1,1,0,0,1,0,0.,0.,8.18,8.18,1.,1.,5.50467506581882,               27P     24
-53.6623375602355,48.192868354026,55.9956297235014,                   27P     25
-47.6042286373781,-15.8789882917325,0.,8.18,0.,0.,0.;                 27P     26
126,8,2,0,0,0,0,-4.61765586115824,-4.61765586115824,                  29P     27
-4.61765586115824,-3.16715543627174,-3.16715543627174,                29P     28
-1.71665501138525,-1.71665501138525,-0.266154586498751,               29P     29
-0.266154586498751,1.18434583838774,1.18434583838774,                 29P     30
1.18434583838774,1.,0.748333473798203,1.,0.748333473798203,1.,        29P     31
0.748333473798197,1.,0.748333473798206,1.,5.73574838638083,           29P     32
-54.6318526156309,48.2832931527827,5.81957268072777,                  29P     33
-56.4881794843226,48.1738307134366,4.37807824599173,                  29P     34
-56.7090554634696,47.0169964220024,2.93658381125569,                  29P     35
-56.9299314426166,45.8601621305681,2.50678362379089,                  29P     36
-55.1266174488359,45.6919705134546,2.07698343632609,                  29P     37
-53.3233034550552,45.5237788963412,3.41532068908689,                  29P     38
-52.6696105641423,46.6402451894374,4.75365794184769,                  29P     39
-52.0159176732294,47.7567114825336,5.50467506581881,                  29P     40
-53.6623375602355,48.192868354026,-4.61765586115824,                  29P     41
1.18434583838774,0.,0.,0.;                                            29P     42
126,8,2,0,0,0,0,-4.61765586115824,-4.61765586115824,                  31P     43
-4.61765586115824,-3.16715543627174,-3.16715543627174,                31P     44
-1.71665501138525,-1.71665501138525,-0.266154586498751,               31P     45
-0.266154586498751,1.18434583838774,1.18434583838774,                 31P     46
1.18434583838774,1.,0.748333473798205,1.,0.748333473798205,1.,        31P     47
0.74833347379821,1.,0.748333473798195,1.,56.2267030440634,            31P     48
-48.5737436927734,-15.7885634929758,56.3105273384104,                 31P     49
-50.4300705614652,-15.8980259323219,54.8690329036743,                 31P     50
-50.6509465406122,-17.0548602237562,53.4275384689383,                 31P     51
-50.8718225197591,-18.2116945151904,52.9977382814735,                 31P     52
-49.0685085259784,-18.3798861323039,52.5679380940087,                 31P     53
-47.2651945321977,-18.5480777494174,53.9062753467695,                 31P     54
-46.6115016412848,-17.4316114563212,55.2446125995303,                 31P     55
-45.957808750372,-16.315145163225,55.9956297235014,                   31P     56
-47.6042286373781,-15.8789882917325,-4.61765586115824,                31P     57
1.18434583838774,0.,0.,0.;                                            31P     58
128,1,1,1,1,0,0,1,0,0,-0.00100000000000046,-0.00100000000000046,      33P     59
0.10107651904138,0.10107651904138,-0.00100000000000044,               33P     60
-0.00100000000000044,8.181,8.181,1.,1.,1.,1.,5.49619361106768,        33P     61
-53.6533904227583,48.1997975427425,5.73188486444303,                  33P     62
-54.6422809533337,48.2920294546887,55.9994932454392,                  33P     63
-47.5938002996753,-15.8877245936385,56.2351844988146,                 33P     64
-48.5826908302507,-15.7954926816923,-0.00100000000000046,             33P     65
0.10107651904138,-0.00100000000000044,8.181;                          33P     66
128,1,8,1,2,0,0,0,0,0,-2.47938123113459D-15,                          35P     67
-2.47938123113459D-15,38.9523809523808,38.9523809523808,              35P     68
1.66552944602134,1.66552944602134,1.66552944602134,                   35P     69
3.11602987090784,3.11602987090784,4.56653029579434,                   35P     70
4.56653029579434,6.01703072068084,6.01703072068084,                   35P     71
7.46753114556733,7.46753114556733,7.46753114556733,1.,1.,             35P     72
0.748333473798205,0.748333473798205,1.,1.,0.748333473798205,          35P     73
0.748333473798205,1.,1.,0.748333473798205,0.748333473798205,1.,       35P     74
1.,0.748333473798205,0.748333473798205,1.,1.,56.2267030440634,        35P     75
-48.5737436927734,-15.7885634929758,5.73574838638083,                 35P     76
-54.6318526156309,48.2832931527827,56.3105273384104,                  35P     77
-50.4300705614652,-15.8980259323219,5.81957268072778,                 35P     78
-56.4881794843226,48.1738307134367,54.8690329036743,                  35P     79
-50.6509465406122,-17.0548602237562,4.37807824599174,                 35P     80
-56.7090554634696,47.0169964220024,53.4275384689383,                  35P     81
-50.8718225197591,-18.2116945151904,2.9365838112557,                  35P     82
-56.9299314426166,45.8601621305681,52.9977382814735,                  35P     83
-49.0685085259784,-18.3798861323039,2.50678362379089,                 35P     84
-55.1266174488359,45.6919705134546,52.5679380940087,                  35P     85
-47.2651945321977,-18.5480777494174,2.07698343632608,                 35P     86
-53.3233034550552,45.5237788963412,53.9062753467695,                  35P     87
-46.6115016412848,-17.4316114563212,3.41532068908688,                 35P     88
-52.6696105641423,46.6402451894374,55.2446125995303,                  35P     89
-45.957808750372,-16.315145163225,4.75365794184769,                   35P     90
-52.0159176732294,47.7567114825336,55.9956297235014,                  35P     91
-47.6042286373781,-15.8789882917325,5.50467506581882,                 35P     92
-53.6623375602355,48.192868354026,-2.47938123113459D-15,              35P     93
38.9523809523808,1.66552944602134,7.46753114556733;                   35P     94
128,1,1,1,1,0,0,1,0,0,-0.215689230665432,-0.215689230665432,          37P     95
0.252566003780415,0.252566003780415,-0.235353853395983,               37P     96
-0.235353853395983,0.210529198150028,0.210529198150028,1.,1.,1.,      37P     97
1.,53.0001482096811,-50.9331742550508,-18.554294509095,               37P     98
52.4423176075017,-46.2839677122237,-18.554294509095,                  37P     99
56.4677655770615,-50.5171155004321,-15.7823467332981,                 37P    100
55.9099349748822,-45.8679089576051,-15.7823467332981,                 37P    101
-0.215689230665432,0.252566003780415,-0.235353853395983,              37P    102
0.210529198150028;                                                    37P    103
128,1,1,1,1,0,0,1,0,0,-0.215689230665432,-0.215689230665432,          39P    104
0.252566003780414,0.252566003780414,-0.235353853395984,               39P    105
-0.235353853395984,0.210529198150028,0.210529198150028,1.,1.,1.,      39P    106
1.,1.95136294981913,-52.3420766350812,45.5175621366635,               39P    107
2.50919355199852,-56.9912831779082,45.5175621366635,                  39P    108
5.41898031719955,-51.9260178804625,48.2895099124604,                  39P    109
5.97681091937894,-56.5752244232895,48.2895099124604,                  39P    110
-0.215689230665432,0.252566003780414,-0.235353853395984,              39P    111
0.210529198150028;                                                    39P    112
502,4,5.50467506581882,-53.6623375602355,48.192868354026,             41P    113
5.73574838638083,-54.6318526156309,48.2832931527827,                  41P    114
56.2267030440634,-48.5737436927734,-15.7885634929758,                 41P    115
55.9956297235014,-47.6042286373781,-15.8789882917325;                 41P    116
504,6,21,41,1,41,2,23,41,2,41,3,25,41,4,41,3,27,41,1,41,4,29,41,      43P    117
2,41,1,31,41,3,41,4;                                                  43P    118
406,1,5HBody1;                                                        45P    119
314,62.7450980392157,62.7450980392157,62.7450980392157,13HSteel       47P    120
- Satin;                                                              47P    121
S      1G      2D     48P    121                                        T      1
