                                                                        S      1
,,9HTige 75.0,9HTige 75.0,7Hunknown,7Hunknown,32,38,7,99,15,,1.,2,2HMM, G      1
1,0.08,15H20201211.162557,0.01,10000.,7Hunknown,7Hunknown,11,0,;        G      2
     186       1                                                00000000D      1
     186             -39       1       0                               0D      2
     514       2                                                00010000D      3
     514                       1       1                               0D      4
     510       3                                                00010000D      5
     510             -39       1       1                               0D      6
     510       4                                                00010000D      7
     510             -39       1       1                               0D      8
     510       5                                                00010000D      9
     510             -39       1       1                               0D     10
     508       6                                                00010000D     11
     508                       2       1                               0D     12
     508       8                                                00010000D     13
     508                       1       1                               0D     14
     508       9                                                00010000D     15
     508                       1       1                               0D     16
     126      10                                                00010000D     17
     126       0               7       0                               0D     18
     126      17                                                00010000D     19
     126       0              16       0                               0D     20
     126      33                                                00010000D     21
     126       0               5       0                               0D     22
     126      38                                                00010000D     23
     126       0              16       0                               0D     24
     126      54                                                00010000D     25
     126       0               7       0                               0D     26
     128      61                                                00010000D     27
     128       0     -39      28       0                               0D     28
     128      89                                                00010000D     29
     128       0     -39       9       0                               0D     30
     128      98                                                00010000D     31
     128       0     -39       9       0                               0D     32
     502     107                                                00010000D     33
     502                       4       1                               0D     34
     504     111                                                00010001D     35
     504                       2       1                               0D     36
     406     113                                                00000000D     37
     406                       1      15                               0D     38
     314     114                                                00000200D     39
     314                       2       0                               0D     40
186,3,1,0,0,1,37;                                                      1P      1
514,3,5,1,7,1,9,1;                                                     3P      2
510,27,1,1,11;                                                         5P      3
510,29,1,1,13;                                                         7P      4
510,31,1,1,15;                                                         9P      5
508,6,0,35,1,0,0,0,35,2,0,0,0,35,3,1,0,0,35,4,1,0,0,35,5,1,0,0,       11P      6
35,3,0,0;                                                             11P      7
508,2,0,35,1,1,0,0,35,2,1,0;                                          13P      8
508,2,0,35,5,0,0,0,35,4,0,0;                                          15P      9
126,2,2,0,0,0,0,-3.19743112867176,-3.19743112867176,                  17P     10
-3.19743112867176,-3.1415926535898,-3.1415926535898,                  17P     11
-3.1415926535898,1.,0.999610283399616,1.,59.9732333141298,            17P     12
-4.82188153271499,71.1169280445945,59.9863653514803,                  17P     13
-4.81448066936523,71.0602527624766,59.9973267615927,                  17P     14
-4.80463004827328,71.0034890104964,-3.19743112867176,                 17P     15
-3.1415926535898,0.,0.,0.;                                            17P     16
126,8,2,0,0,0,0,-3.1415926535898,-3.1415926535898,                    19P     17
-3.1415926535898,-1.58475594556539,-1.58475594556539,                 19P     18
-0.0279192375409836,-0.0279192375409836,1.52891747048342,             19P     19
1.52891747048342,3.08575417850783,3.08575417850783,                   19P     20
3.08575417850783,1.,0.71202498740828,1.,0.712024987408278,1.,         19P     21
0.712024987408284,1.,0.712024987408276,1.,59.9973267615927,           19P     22
-4.80463004827328,71.0034890104964,60.3843947258724,                  19P     23
-4.45678612911724,68.9990543895201,59.0057196066351,                  19P     24
-2.91177895343375,68.9710741551374,57.6270444873978,                  19P     25
-1.36677177775026,68.9430939207547,57.2014862151078,                  19P     26
-1.67148167552573,70.9467473802923,56.7759279428178,                  19P     27
-1.9761915733012,72.9504008398299,58.1427221854453,                   19P     28
-3.52970574070122,73.0343197342545,59.5095164280728,                  19P     29
-5.08321990810124,73.1182386286792,59.9732333141298,                  19P     30
-4.82188153271499,71.1169280445945,-3.1415926535898,                  19P     31
3.08575417850783,0.,0.,0.;                                            19P     32
126,1,1,0,0,1,0,-35.7142857142857,-35.7142857142857,                  21P     33
4.46192085847311D-15,4.46192085847311D-15,1.,1.,                      21P     34
59.9973267615927,-4.80463004827327,71.0034890104964,                  21P     35
6.00327575970979,-53.3271223360421,52.156468063156,                   21P     36
-35.7142857142857,4.46192085847311D-15,0.,0.,0.;                      21P     37
126,8,2,0,0,0,0,-3.14159265358979,-3.14159265358979,                  23P     38
-3.14159265358979,-1.58475594556539,-1.58475594556539,                23P     39
-0.027919237540982,-0.027919237540982,1.52891747048342,               23P     40
1.52891747048342,3.08575417850783,3.08575417850783,                   23P     41
3.08575417850783,1.,0.712024987408283,1.,0.712024987408283,1.,        23P     42
0.712024987408284,1.,0.712024987408276,1.,6.0032757597098,            23P     43
-53.3271223360421,52.156468063156,6.39034372398955,                   23P     44
-52.9792784168861,50.1520334421798,5.01166860475223,                  23P     45
-51.4342712412026,50.1240532077971,3.6329934855149,                   23P     46
-49.8892640655191,50.0960729734144,3.20743521322493,                  23P     47
-50.1939739632946,52.099726432952,2.78187694093495,                   23P     48
-50.49868386107,54.1033798924895,4.14867118356243,                    23P     49
-52.0521980284701,54.1872987869142,5.5154654261899,                   23P     50
-53.6057121958701,54.2712176813389,5.97918231224699,                  23P     51
-53.3443738204838,52.2699070972541,-3.14159265358979,                 23P     52
3.08575417850783,0.,0.,0.;                                            23P     53
126,2,2,0,0,0,0,-3.19743112867176,-3.19743112867176,                  25P     54
-3.19743112867176,-3.14159265358979,-3.14159265358979,                25P     55
-3.14159265358979,1.,0.999610283403145,1.,5.97918231224699,           25P     56
-53.3443738204838,52.2699070972541,5.99231434959747,                  25P     57
-53.3369729571341,52.2132318151363,6.0032757597098,                   25P     58
-53.3271223360421,52.156468063156,-3.19743112867176,                  25P     59
-3.14159265358979,0.,0.,0.;                                           25P     60
128,1,8,1,2,0,1,0,0,1,-4.46192085847311D-15,                          27P     61
-4.46192085847311D-15,35.7142857142857,35.7142857142857,              27P     62
-3.14159265358979,-3.14159265358979,-3.14159265358979,                27P     63
-1.5707963267949,-1.5707963267949,0.,0.,1.5707963267949,              27P     64
1.5707963267949,3.14159265358979,3.14159265358979,                    27P     65
3.14159265358979,1.,1.,0.707106781186548,0.707106781186548,1.,        27P     66
1.,0.707106781186548,0.707106781186548,1.,1.,0.707106781186548,       27P     67
0.707106781186548,1.,1.,0.707106781186548,0.707106781186548,1.,       27P     68
1.,59.9973267615927,-4.80463004827327,71.0034890104964,               27P     69
6.00327575970979,-53.3271223360421,52.156468063156,                   27P     70
60.3898361153175,-4.45189615008277,68.9708761097438,                  27P     71
6.39578511343463,-52.9743884378516,50.1238551624034,                  27P     72
58.9861637557333,-2.88994099485612,68.9708761097438,                  27P     73
4.99211275385036,-51.412433282625,50.1238551624034,                   27P     74
57.582491396149,-1.32798583962946,68.9708761097438,                   27P     75
3.5884403942661,-49.8504781273983,50.1238551624034,                   27P     76
57.1899820424241,-1.68071973781996,71.0034890104964,                  27P     77
3.19593104054126,-50.2032120255888,52.156468063156,                   27P     78
56.7974726886993,-2.03345363601046,73.036101911249,                   27P     79
2.80342168681642,-50.5559459237793,54.1890809639086,                  27P     80
58.2011450482836,-3.59540879123711,73.036101911249,                   27P     81
4.20709404640068,-52.117901079006,54.1890809639086,                   27P     82
59.6048174078678,-5.15736394646377,73.036101911249,                   27P     83
5.61076640598495,-53.6798562342326,54.1890809639086,                  27P     84
59.9973267615927,-4.80463004827327,71.0034890104964,                  27P     85
6.00327575970979,-53.3271223360421,52.156468063156,                   27P     86
-4.46192085847311D-15,35.7142857142857,-3.14159265358979,             27P     87
3.14159265358979;                                                     27P     88
128,1,1,1,1,0,0,1,0,0,-0.211000000000001,-0.211000000000001,          29P     89
0.216699168492178,0.216699168492178,-0.213870325031166,               29P     90
-0.213870325031166,0.219485979132559,0.219485979132559,1.,1.,1.,      29P     91
1.,60.4037542635855,-4.45283310398622,68.9334148117035,               29P     92
57.5449471158252,-1.27165728916472,68.9334148117035,                  29P     93
59.5937713927288,-5.18073528719144,73.1279177377304,                  29P     94
56.7349642449686,-1.99955947236995,73.1279177377304,                  29P     95
-0.211000000000001,0.216699168492178,-0.213870325031166,              29P     96
0.219485979132559;                                                    29P     97
128,1,1,1,1,0,0,1,0,0,-0.211000000000001,-0.211000000000001,          31P     98
0.216699168492177,0.216699168492177,-0.213870325031166,               31P     99
-0.213870325031166,0.219485979132558,0.219485979132558,1.,1.,1.,      31P    100
1.,3.5508961139424,-49.7941495769336,50.0863938643632,                31P    101
6.40970326170261,-52.9753253917551,50.0863938643632,                  31P    102
2.74091324308578,-50.5220517601388,54.2808967903901,                  31P    103
5.599720390846,-53.7032275749603,54.2808967903901,                    31P    104
-0.211000000000001,0.216699168492177,-0.213870325031166,              31P    105
0.219485979132558;                                                    31P    106
502,4,59.9732333141299,-4.82188153271501,71.1169280445945,            33P    107
59.9973267615927,-4.80463004827327,71.0034890104964,                  33P    108
6.00327575970979,-53.3271223360421,52.156468063156,                   33P    109
5.97918231224699,-53.3443738204838,52.2699070972541;                  33P    110
504,5,17,33,1,33,2,19,33,2,33,1,21,33,2,33,3,23,33,3,33,4,25,33,      35P    111
4,33,3;                                                               35P    112
406,1,5HBody2;                                                        37P    113
314,62.7450980392157,62.7450980392157,62.7450980392157,13HSteel       39P    114
- Satin;                                                              39P    115
S      1G      2D     40P    115                                        T      1
