                                                                        S      1
,,10HGuide  int,10HGuide  int,7Hunknown,7Hunknown,32,38,7,99,15,,1.,2,2HG      1
MM,1,0.08,15H20201211.162758,0.01,10000.,7Hunknown,7Hunknown,11,0,;     G      2
     186       1                                                00000000D      1
     186             -71       1       0                               0D      2
     514       2                                                00010000D      3
     514                       1       1                               0D      4
     510       3                                                00010000D      5
     510             -71       1       1                               0D      6
     510       4                                                00010000D      7
     510             -71       1       1                               0D      8
     510       5                                                00010000D      9
     510             -71       1       1                               0D     10
     510       6                                                00010000D     11
     510             -71       1       1                               0D     12
     510       7                                                00010000D     13
     510             -71       1       1                               0D     14
     510       8                                                00010000D     15
     510             -71       1       1                               0D     16
     508       9                                                00010000D     17
     508                       1       1                               0D     18
     508      10                                                00010000D     19
     508                       1       1                               0D     20
     508      11                                                00010000D     21
     508                       1       1                               0D     22
     508      12                                                00010000D     23
     508                       1       1                               0D     24
     508      13                                                00010000D     25
     508                       1       1                               0D     26
     508      14                                                00010000D     27
     508                       1       1                               0D     28
     508      15                                                00010000D     29
     508                       1       1                               0D     30
     508      16                                                00010000D     31
     508                       1       1                               0D     32
     508      17                                                00010000D     33
     508                       1       1                               0D     34
     126      18                                                00010000D     35
     126       0              10       0                               0D     36
     126      28                                                00010000D     37
     126       0               2       0                               0D     38
     126      30                                                00010000D     39
     126       0              10       0                               0D     40
     126      40                                                00010000D     41
     126       0              10       0                               0D     42
     126      50                                                00010000D     43
     126       0              10       0                               0D     44
     126      60                                                00010000D     45
     126       0               3       0                               0D     46
     126      63                                                00010000D     47
     126       0              10       0                               0D     48
     126      73                                                00010000D     49
     126       0               2       0                               0D     50
     126      75                                                00010000D     51
     126       0              10       0                               0D     52
     128      85                                                00010000D     53
     128       0     -71      12       0                               0D     54
     128      97                                                00010000D     55
     128       0     -71       3       0                               0D     56
     128     100                                                00010000D     57
     128       0     -71      13       0                               0D     58
     128     113                                                00010000D     59
     128       0     -71      12       0                               0D     60
     128     125                                                00010000D     61
     128       0     -71       3       0                               0D     62
     128     128                                                00010000D     63
     128       0     -71       3       0                               0D     64
     502     131                                                00010000D     65
     502                       4       1                               0D     66
     504     135                                                00010001D     67
     504                       2       1                               0D     68
     406     137                                                00000000D     69
     406                       1      15                               0D     70
     314     138                                                00000200D     71
     314                       2       0                               0D     72
     314     140                                                00000200D     73
     314                       2       0                               0D     74
186,3,1,0,0,1,69;                                                      1P      1
514,6,5,1,7,1,9,1,11,1,13,1,15,1;                                      3P      2
510,53,1,1,17;                                                         5P      3
510,55,2,1,19,21;                                                      7P      4
510,57,1,1,23;                                                         9P      5
510,59,1,1,25;                                                        11P      6
510,61,2,1,27,29;                                                     13P      7
510,63,2,1,31,33;                                                     15P      8
508,4,0,67,1,0,0,0,67,2,1,0,0,67,3,0,0,0,67,2,0,0;                    17P      9
508,1,0,67,1,1,0;                                                     19P     10
508,1,0,67,4,1,0;                                                     21P     11
508,4,0,67,5,0,0,0,67,6,1,0,0,67,4,0,0,0,67,6,0,0;                    23P     12
508,4,0,67,7,0,0,0,67,8,1,0,0,67,9,1,0,0,67,8,0,0;                    25P     13
508,1,0,67,7,1,0;                                                     27P     14
508,1,0,67,5,1,0;                                                     29P     15
508,1,0,67,9,0,0;                                                     31P     16
508,1,0,67,3,1,0;                                                     33P     17
126,8,2,0,1,0,0,-3.14159265358979,-3.14159265358979,                  35P     18
-3.14159265358979,-1.5707963267949,-1.5707963267949,0.,0.,            35P     19
1.5707963267949,1.5707963267949,3.14159265358979,                     35P     20
3.14159265358979,3.14159265358979,1.,0.707106781186548,1.,            35P     21
0.707106781186548,1.,0.707106781186548,1.,0.707106781186548,1.,       35P     22
37.5,-58.,7.10295143505465D-15,37.5,-58.,58.,37.5,                    35P     23
3.55147571752732D-15,58.,37.5,58.,58.,37.5,58.,0.,37.5,58.,-58.,      35P     24
37.5,3.55147571752732D-15,-58.,37.5,-58.,-58.,37.5,-58.,              35P     25
-7.10295143505465D-15,-3.14159265358979,3.14159265358979,0.,0.,       35P     26
0.;                                                                   35P     27
126,1,1,0,0,1,0,-0.172413793103448,-0.172413793103448,0.,0.,1.,       37P     28
1.,37.5,-58.,0.,47.5,-58.,0.,-0.172413793103448,0.,0.,0.,0.;          37P     29
126,8,2,0,1,0,0,-3.14159265358979,-3.14159265358979,                  39P     30
-3.14159265358979,-1.5707963267949,-1.5707963267949,0.,0.,            39P     31
1.5707963267949,1.5707963267949,3.14159265358979,                     39P     32
3.14159265358979,3.14159265358979,1.,0.707106781186548,1.,            39P     33
0.707106781186548,1.,0.707106781186548,1.,0.707106781186548,1.,       39P     34
47.5,-58.,-7.10295143505465D-15,47.5,-58.,-58.,47.5,                  39P     35
3.55147571752732D-15,-58.,47.5,58.,-58.,47.5,58.,0.,47.5,58.,         39P     36
58.,47.5,3.55147571752732D-15,58.,47.5,-58.,58.,47.5,-58.,            39P     37
7.10295143505465D-15,-3.14159265358979,3.14159265358979,0.,0.,        39P     38
0.;                                                                   39P     39
126,8,2,0,1,0,0,-3.14159265358979,-3.14159265358979,                  41P     40
-3.14159265358979,-1.5707963267949,-1.5707963267949,0.,0.,            41P     41
1.5707963267949,1.5707963267949,3.14159265358979,                     41P     42
3.14159265358979,3.14159265358979,1.,0.707106781186548,1.,            41P     43
0.707106781186548,1.,0.707106781186548,1.,0.707106781186548,1.,       41P     44
37.5,-56.,-6.85802207522518D-15,37.5,-56.,-56.,37.5,                  41P     45
3.42901103761259D-15,-56.,37.5,56.,-56.,37.5,56.,0.,37.5,56.,         41P     46
56.,37.5,3.42901103761259D-15,56.,37.5,-56.,56.,37.5,-56.,            41P     47
6.85802207522518D-15,-3.14159265358979,3.14159265358979,0.,0.,        41P     48
0.;                                                                   41P     49
126,8,2,0,1,0,0,-3.14159265358979,-3.14159265358979,                  43P     50
-3.14159265358979,-1.5707963267949,-1.5707963267949,0.,0.,            43P     51
1.5707963267949,1.5707963267949,3.14159265358979,                     43P     52
3.14159265358979,3.14159265358979,1.,0.707106781186548,1.,            43P     53
0.707106781186548,1.,0.707106781186548,1.,0.707106781186548,1.,       43P     54
77.5,-56.,6.85802207522518D-15,77.5,-56.,56.,77.5,                    43P     55
3.42901103761259D-15,56.,77.5,56.,56.,77.5,56.,0.,77.5,56.,-56.,      43P     56
77.5,3.42901103761259D-15,-56.,77.5,-56.,-56.,77.5,-56.,              43P     57
-6.85802207522518D-15,-3.14159265358979,3.14159265358979,0.,0.,       43P     58
0.;                                                                   43P     59
126,1,1,0,0,1,0,-0.535714285714286,-0.535714285714286,                45P     60
0.178571428571429,0.178571428571429,1.,1.,77.5,-56.,0.,37.5,          45P     61
-56.,0.,-0.535714285714286,0.178571428571429,0.,0.,0.;                45P     62
126,8,2,0,1,0,0,-3.14159265358979,-3.14159265358979,                  47P     63
-3.14159265358979,-1.5707963267949,-1.5707963267949,0.,0.,            47P     64
1.5707963267949,1.5707963267949,3.14159265358979,                     47P     65
3.14159265358979,3.14159265358979,1.,0.707106781186548,1.,            47P     66
0.707106781186548,1.,0.707106781186548,1.,0.707106781186548,1.,       47P     67
77.5,-60.,-7.34788079488412D-15,77.5,-60.,-60.,77.5,                  47P     68
3.67394039744206D-15,-60.,77.5,60.,-60.,77.5,60.,0.,77.5,60.,         47P     69
60.,77.5,3.67394039744206D-15,60.,77.5,-60.,60.,77.5,-60.,            47P     70
7.34788079488412D-15,-3.14159265358979,3.14159265358979,0.,0.,        47P     71
0.;                                                                   47P     72
126,1,1,0,0,1,0,-0.5,-0.5,0.,0.,1.,1.,77.5,-60.,0.,47.5,-60.,0.,      49P     73
-0.5,0.,0.,0.,0.;                                                     49P     74
126,8,2,0,1,0,0,-3.14159265358979,-3.14159265358979,                  51P     75
-3.14159265358979,-1.5707963267949,-1.5707963267949,0.,0.,            51P     76
1.5707963267949,1.5707963267949,3.14159265358979,                     51P     77
3.14159265358979,3.14159265358979,1.,0.707106781186548,1.,            51P     78
0.707106781186548,1.,0.707106781186548,1.,0.707106781186548,1.,       51P     79
47.5,-60.,-7.34788079488412D-15,47.5,-60.,-60.,47.5,                  51P     80
3.67394039744206D-15,-60.,47.5,60.,-60.,47.5,60.,0.,47.5,60.,         51P     81
60.,47.5,3.67394039744206D-15,60.,47.5,-60.,60.,47.5,-60.,            51P     82
7.34788079488412D-15,-3.14159265358979,3.14159265358979,0.,0.,        51P     83
0.;                                                                   51P     84
128,1,8,1,2,0,1,0,0,1,0.,0.,0.172413793103448,0.172413793103448,      53P     85
-3.14159265358979,-3.14159265358979,-3.14159265358979,                53P     86
-1.5707963267949,-1.5707963267949,0.,0.,1.5707963267949,              53P     87
1.5707963267949,3.14159265358979,3.14159265358979,                    53P     88
3.14159265358979,1.,1.,0.707106781186548,0.707106781186548,1.,        53P     89
1.,0.707106781186548,0.707106781186548,1.,1.,0.707106781186548,       53P     90
0.707106781186548,1.,1.,0.707106781186548,0.707106781186548,1.,       53P     91
1.,37.5,-58.,0.,47.5,-58.,0.,37.5,-58.,58.,47.5,-58.,58.,37.5,        53P     92
0.,58.,47.5,0.,58.,37.5,58.,58.,47.5,58.,58.,37.5,58.,0.,47.5,        53P     93
58.,0.,37.5,58.,-58.,47.5,58.,-58.,37.5,0.,-58.,47.5,0.,-58.,         53P     94
37.5,-58.,-58.,47.5,-58.,-58.,37.5,-58.,0.,47.5,-58.,0.,0.,           53P     95
0.172413793103448,-3.14159265358979,3.14159265358979;                 53P     96
128,1,1,1,1,0,0,1,0,0,-5.801,-5.801,5.801,5.801,-5.801,-5.801,        55P     97
5.801,5.801,1.,1.,1.,1.,37.5,58.01,-58.01,37.5,-58.01,-58.01,         55P     98
37.5,58.01,58.01,37.5,-58.01,58.01,-5.801,5.801,-5.801,5.801;         55P     99
128,1,8,1,2,0,1,0,0,1,-0.178571428571429,-0.178571428571429,          57P    100
0.535714285714286,0.535714285714286,-3.14159265358979,                57P    101
-3.14159265358979,-3.14159265358979,-1.5707963267949,                 57P    102
-1.5707963267949,0.,0.,1.5707963267949,1.5707963267949,               57P    103
3.14159265358979,3.14159265358979,3.14159265358979,1.,1.,             57P    104
0.707106781186548,0.707106781186548,1.,1.,0.707106781186548,          57P    105
0.707106781186548,1.,1.,0.707106781186548,0.707106781186548,1.,       57P    106
1.,0.707106781186548,0.707106781186548,1.,1.,37.5,-56.,0.,77.5,       57P    107
-56.,0.,37.5,-56.,-56.,77.5,-56.,-56.,37.5,0.,-56.,77.5,0.,-56.,      57P    108
37.5,56.,-56.,77.5,56.,-56.,37.5,56.,0.,77.5,56.,0.,37.5,56.,         57P    109
56.,77.5,56.,56.,37.5,0.,56.,77.5,0.,56.,37.5,-56.,56.,77.5,          57P    110
-56.,56.,37.5,-56.,0.,77.5,-56.,0.,-0.178571428571429,                57P    111
0.535714285714286,-3.14159265358979,3.14159265358979;                 57P    112
128,1,8,1,2,0,1,0,0,1,0.,0.,0.5,0.5,-3.14159265358979,                59P    113
-3.14159265358979,-3.14159265358979,-1.5707963267949,                 59P    114
-1.5707963267949,0.,0.,1.5707963267949,1.5707963267949,               59P    115
3.14159265358979,3.14159265358979,3.14159265358979,1.,1.,             59P    116
0.707106781186548,0.707106781186548,1.,1.,0.707106781186548,          59P    117
0.707106781186548,1.,1.,0.707106781186548,0.707106781186548,1.,       59P    118
1.,0.707106781186548,0.707106781186548,1.,1.,77.5,-60.,0.,47.5,       59P    119
-60.,0.,77.5,-60.,-60.,47.5,-60.,-60.,77.5,0.,-60.,47.5,0.,-60.,      59P    120
77.5,60.,-60.,47.5,60.,-60.,77.5,60.,0.,47.5,60.,0.,77.5,60.,         59P    121
60.,47.5,60.,60.,77.5,0.,60.,47.5,0.,60.,77.5,-60.,60.,47.5,          59P    122
-60.,60.,77.5,-60.,0.,47.5,-60.,0.,0.,0.5,-3.14159265358979,          59P    123
3.14159265358979;                                                     59P    124
128,1,1,1,1,0,0,1,0,0,-6.001,-6.001,6.001,6.001,-6.001,-6.001,        61P    125
6.001,6.001,1.,1.,1.,1.,77.5,-60.01,-60.01,77.5,60.01,-60.01,         61P    126
77.5,-60.01,60.01,77.5,60.01,60.01,-6.001,6.001,-6.001,6.001;         61P    127
128,1,1,1,1,0,0,1,0,0,-6.001,-6.001,6.001,6.001,-6.001,-6.001,        63P    128
6.001,6.001,1.,1.,1.,1.,47.5,60.01,-60.01,47.5,-60.01,-60.01,         63P    129
47.5,60.01,60.01,47.5,-60.01,60.01,-6.001,6.001,-6.001,6.001;         63P    130
502,6,37.5,-58.,-7.10295143505465D-15,47.5,-58.,                      65P    131
-7.10295143505465D-15,37.5,-56.,-6.85802207522518D-15,77.5,-56.,      65P    132
-6.85802207522518D-15,77.5,-60.,-7.34788079488412D-15,47.5,-60.,      65P    133
-7.34788079488412D-15;                                                65P    134
504,9,35,65,1,65,1,37,65,1,65,2,39,65,2,65,2,41,65,3,65,3,43,65,      67P    135
4,65,4,45,65,4,65,3,47,65,5,65,5,49,65,5,65,6,51,65,6,65,6;           67P    136
406,1,9HGuide_Int;                                                    69P    137
314,76.8627450980392,20.7843137254902,15.2941176470588,27HPaint       71P    138
- Enamel Glossy (Red);                                                71P    139
314,62.7450980392157,62.7450980392157,62.7450980392157,13HSteel       73P    140
- Satin;                                                              73P    141
S      1G      2D     74P    141                                        T      1
