0
SECTION
2
HEADER
9
$INSUNITS
70
4
9
$ACADVER
1
AC1014
9
$HANDSEED
5
FFFF
0
ENDSEC
0
SECTION
2
TABLES
0
TABLE
2
VPORT
5
8
100
AcDbSymbolTable
0
ENDTAB
0
TABLE
2
LTYPE
5
5
100
AcDbSymbolTable
0
LTYPE
5
14
100
AcDbSymbolTableRecord
100
AcDbLinetypeTableRecord
2
BYBLOCK
70
0
0
LTYPE
5
15
100
AcDbSymbolTableRecord
100
AcDbLinetypeTableRecord
2
BYLAYER
70
0
0
ENDTAB
0
TABLE
2
LAYER
5
2
100
AcDbSymbolTable
70
2
0
LAYER
5
50
100
AcDbSymbolTableRecord
100
AcDbLayerTableRecord
2
0
70
0
6
CONTINUOUS
0
ENDTAB
0
TABLE
2
STYLE
5
3
100
AcDbSymbolTable
70
1
0
STYLE
5
11
100
AcDbSymbolTableRecord
100
AcDbTextStyleTableRecord
2
STANDARD
70
0
0
ENDTAB
0
TABLE
2
VIEW
5
6
100
AcDbSymbolTable
70
0
0
ENDTAB
0
TABLE
2
UCS
5
7
100
AcDbSymbolTable
70
0
0
ENDTAB
0
TABLE
2
APPID
5
9
100
AcDbSymbolTable
70
2
0
APPID
5
12
100
AcDbSymbolTableRecord
100
AcDbRegAppTableRecord
2
ACAD
70
0
0
ENDTAB
0
TABLE
2
DIMSTYLE
5
A
100
AcDbSymbolTable
70
1
0
ENDTAB
0
TABLE
2
BLOCK_RECORD
5
1
100
AcDbSymbolTable
70
1
0
BLOCK_RECORD
5
1F
100
AcDbSymbolTableRecord
100
AcDbBlockTableRecord
2
*MODEL_SPACE
0
BLOCK_RECORD
5
1B
100
AcDbSymbolTableRecord
100
AcDbBlockTableRecord
2
*PAPER_SPACE
0
ENDTAB
0
ENDSEC
0
SECTION
2
BLOCKS
0
BLOCK
5
20
100
AcDbEntity
100
AcDbBlockBegin
2
*MODEL_SPACE
0
ENDBLK
5
21
100
AcDbEntity
100
AcDbBlockEnd
0
BLOCK
5
1C
100
AcDbEntity
100
AcDbBlockBegin
2
*PAPER_SPACE
0
ENDBLK
5
1D
100
AcDbEntity
100
AcDbBlockEnd
0
ENDSEC
0
SECTION
2
ENTITIES
0
LINE
5
100
100
AcDbEntity
8
0
100
AcDbLine
10
-34
20
-146
30
0
11
34
21
-146
31
0
0
LINE
5
101
100
AcDbEntity
8
0
100
AcDbLine
10
-33.999999999999986
20
0
30
0
11
-92.626260627603187
21
0
31
0
0
LINE
5
102
100
AcDbEntity
8
0
100
AcDbLine
10
-92.626260627603187
20
0
30
0
11
34.000000000000021
21
0
31
0
0
LINE
5
103
100
AcDbEntity
8
0
100
AcDbLine
10
34.000000000000021
20
0
30
0
11
34
21
-146
31
0
0
LINE
5
104
100
AcDbEntity
8
0
100
AcDbLine
10
-33.999999999999986
20
0
30
0
11
-34
21
-146
31
0
0
LINE
5
105
100
AcDbEntity
8
0
100
AcDbLine
10
-33.999999999999993
20
-35
30
0
11
-35.000000000000014
21
-35
31
0
0
LINE
5
106
100
AcDbEntity
8
0
100
AcDbLine
10
-35.000000000000014
20
-35
30
0
11
-35.000000000000014
21
-40
31
0
0
LINE
5
107
100
AcDbEntity
8
0
100
AcDbLine
10
-35.000000000000014
20
-40
30
0
11
-33.999999999999993
21
-39.999999999999993
31
0
0
LINE
5
108
100
AcDbEntity
8
0
100
AcDbLine
10
-33.999999999999993
20
-39.999999999999993
30
0
11
-33.999999999999993
21
-35
31
0
0
LWPOLYLINE
5
109
100
AcDbEntity
8
0
100
AcDbPolyline
90
4
70
1
43
0.0
10
-35.000000000000028
20
-70
10
-34
20
-70
10
-33.999999999999993
20
-75
10
-35.000000000000028
20
-75
0
LWPOLYLINE
5
110
100
AcDbEntity
8
0
100
AcDbPolyline
90
4
70
1
43
0.0
10
-35.000000000000028
20
-105
10
-34
20
-105
10
-33.999999999999957
20
-110
10
-35.000000000000028
20
-110
0
LINE
5
111
100
AcDbEntity
8
0
100
AcDbLine
10
-34.000000000000007
20
-140
30
0
11
-35.000000000000036
21
-140
31
0
0
LINE
5
112
100
AcDbEntity
8
0
100
AcDbLine
10
-35.000000000000036
20
-140
30
0
11
-35.000000000000036
21
-145
31
0
0
LINE
5
113
100
AcDbEntity
8
0
100
AcDbLine
10
-35.000000000000036
20
-145
30
0
11
-34.000000000000036
21
-145
31
0
0
LINE
5
114
100
AcDbEntity
8
0
100
AcDbLine
10
-34.000000000000036
20
-145
30
0
11
-34.000000000000007
21
-140
31
0
0
LINE
5
115
100
AcDbEntity
8
0
100
AcDbLine
10
-35.000000000000014
20
-35
30
0
11
-35.000000000000036
21
-145
31
0
0
LINE
5
116
100
AcDbEntity
8
0
100
AcDbLine
10
-35.000000000000014
20
-37.5
30
0
11
-100.98836547879932
21
-37.500000000000007
31
0
0
LINE
5
117
100
AcDbEntity
8
0
100
AcDbLine
10
-35.000000000000028
20
-72.5
30
0
11
-100.98836547879932
21
-72.499999999999986
31
0
0
LINE
5
118
100
AcDbEntity
8
0
100
AcDbLine
10
-35.000000000000028
20
-107.5
30
0
11
8.9883654787993077
21
-107.5
31
0
0
LINE
5
119
100
AcDbEntity
8
0
100
AcDbLine
10
8.9883654787993077
20
-107.5
30
0
11
-100.9883654787993
21
-107.5
31
0
0
LINE
5
120
100
AcDbEntity
8
0
100
AcDbLine
10
-100.9883654787993
20
-107.5
30
0
11
-100.98836547879932
21
-37.500000000000007
31
0
0
LINE
5
121
100
AcDbEntity
8
0
100
AcDbLine
10
-100.9883654787993
20
-109
30
0
11
-46
21
-109
31
0
0
LINE
5
122
100
AcDbEntity
8
0
100
AcDbLine
10
-46
20
-109
30
0
11
-46
21
-106
31
0
0
LINE
5
123
100
AcDbEntity
8
0
100
AcDbLine
10
-46
20
-106
30
0
11
-100.9883654787993
21
-106
31
0
0
LINE
5
124
100
AcDbEntity
8
0
100
AcDbLine
10
-100.9883654787993
20
-106
30
0
11
-100.9883654787993
21
-109
31
0
0
LINE
5
125
100
AcDbEntity
8
0
100
AcDbLine
10
-100.98836547879932
20
-73.999999999999986
30
0
11
-46
21
-73.999999999999986
31
0
0
LINE
5
126
100
AcDbEntity
8
0
100
AcDbLine
10
-46
20
-73.999999999999986
30
0
11
-46
21
-71
31
0
0
LINE
5
127
100
AcDbEntity
8
0
100
AcDbLine
10
-46
20
-71
30
0
11
-100.98836547879932
21
-70.999999999999986
31
0
0
LINE
5
128
100
AcDbEntity
8
0
100
AcDbLine
10
-100.98836547879932
20
-70.999999999999986
30
0
11
-100.98836547879932
21
-73.999999999999986
31
0
0
LWPOLYLINE
5
129
100
AcDbEntity
8
0
100
AcDbPolyline
90
4
70
1
43
0.0
10
-45.999999999999957
20
-39
10
-100.98836547879932
20
-39
10
-100.98836547879932
20
-36
10
-45.999999999999957
20
-36
0
LINE
5
130
100
AcDbEntity
8
0
100
AcDbLine
10
-46
20
-71
30
0
11
-45.999999999999957
21
-38.656413767147363
31
0
0
LINE
5
131
100
AcDbEntity
8
0
100
AcDbLine
10
-46
20
-73.999999999999986
30
0
11
-46
21
-106
31
0
0
ENDSEC
0
SECTION
2
OBJECTS
0
DICTIONARY
5
C
100
AcDbDictionary
3
ACAD_GROUP
350
D
3
ACAD_MLINESTYLE
350
17
0
DICTIONARY
5
D
100
AcDbDictionary
0
DICTIONARY
5
1A
330
C
100
AcDbDictionary
0
DICTIONARY
5
17
100
AcDbDictionary
0
ENDSEC
0
EOF
