0
SECTION
2
HEADER
9
$INSUNITS
70
4
9
$ACADVER
1
AC1014
9
$HANDSEED
5
FFFF
0
ENDSEC
0
SECTION
2
TABLES
0
TABLE
2
VPORT
5
8
100
AcDbSymbolTable
0
ENDTAB
0
TABLE
2
LTYPE
5
5
100
AcDbSymbolTable
0
LTYPE
5
14
100
AcDbSymbolTableRecord
100
AcDbLinetypeTableRecord
2
BYBLOCK
70
0
0
LTYPE
5
15
100
AcDbSymbolTableRecord
100
AcDbLinetypeTableRecord
2
BYLAYER
70
0
0
ENDTAB
0
TABLE
2
LAYER
5
2
100
AcDbSymbolTable
70
2
0
LAYER
5
50
100
AcDbSymbolTableRecord
100
AcDbLayerTableRecord
2
0
70
0
6
CONTINUOUS
0
ENDTAB
0
TABLE
2
STYLE
5
3
100
AcDbSymbolTable
70
1
0
STYLE
5
11
100
AcDbSymbolTableRecord
100
AcDbTextStyleTableRecord
2
STANDARD
70
0
0
ENDTAB
0
TABLE
2
VIEW
5
6
100
AcDbSymbolTable
70
0
0
ENDTAB
0
TABLE
2
UCS
5
7
100
AcDbSymbolTable
70
0
0
ENDTAB
0
TABLE
2
APPID
5
9
100
AcDbSymbolTable
70
2
0
APPID
5
12
100
AcDbSymbolTableRecord
100
AcDbRegAppTableRecord
2
ACAD
70
0
0
ENDTAB
0
TABLE
2
DIMSTYLE
5
A
100
AcDbSymbolTable
70
1
0
ENDTAB
0
TABLE
2
BLOCK_RECORD
5
1
100
AcDbSymbolTable
70
1
0
BLOCK_RECORD
5
1F
100
AcDbSymbolTableRecord
100
AcDbBlockTableRecord
2
*MODEL_SPACE
0
BLOCK_RECORD
5
1B
100
AcDbSymbolTableRecord
100
AcDbBlockTableRecord
2
*PAPER_SPACE
0
ENDTAB
0
ENDSEC
0
SECTION
2
BLOCKS
0
BLOCK
5
20
100
AcDbEntity
100
AcDbBlockBegin
2
*MODEL_SPACE
0
ENDBLK
5
21
100
AcDbEntity
100
AcDbBlockEnd
0
BLOCK
5
1C
100
AcDbEntity
100
AcDbBlockBegin
2
*PAPER_SPACE
0
ENDBLK
5
1D
100
AcDbEntity
100
AcDbBlockEnd
0
ENDSEC
0
SECTION
2
ENTITIES
0
LWPOLYLINE
5
100
100
AcDbEntity
8
0
100
AcDbPolyline
90
6
70
1
43
0.0
10
-12.10075320986958
20
-38.227914269305145
10
-21.178114591876295
20
-5.9571354133809109
42
-1.3200955775404577
10
21.178114591876284
20
-5.9571354133809251
10
12.100753209869584
20
-38.227914269305138
42
-0.1077942364915377
10
8.5610722855107131
20
-39
10
-8.5610722855107113
20
-39.000000000000007
42
-0.1077942364915377
0
LINE
5
101
100
AcDbEntity
8
0
100
AcDbLine
10
-1.8873791418627661e-14
20
22.000000000000114
30
0
11
0
21
-39
31
0
0
LINE
5
102
100
AcDbEntity
8
0
100
AcDbLine
10
10.099999999999991
20
10
30
0
11
-10.100000000000009
21
10
31
0
0
LINE
5
103
100
AcDbEntity
8
0
100
AcDbLine
10
-10.100000000000009
20
10
30
0
11
-10.100000000000001
21
-31.000000000000007
31
0
0
LINE
5
104
100
AcDbEntity
8
0
100
AcDbLine
10
-10.100000000000001
20
-31.000000000000007
30
0
11
10.099999999999998
21
-31.000000000000007
31
0
0
LINE
5
105
100
AcDbEntity
8
0
100
AcDbLine
10
10.099999999999998
20
-31.000000000000007
30
0
11
10.099999999999991
21
10
31
0
0
LINE
5
106
100
AcDbEntity
8
0
100
AcDbLine
10
10.099999999999991
20
10
30
0
11
-10.100000000000001
21
-31.000000000000007
31
0
0
LINE
5
107
100
AcDbEntity
8
0
100
AcDbLine
10
-10.100000000000009
20
10
30
0
11
10.099999999999998
21
-31.000000000000007
31
0
0
LINE
5
108
100
AcDbEntity
8
0
100
AcDbLine
10
-10.100000000000001
20
16.749999999999993
30
0
11
10.099999999999977
21
16.749999999999986
31
0
0
LINE
5
109
100
AcDbEntity
8
0
100
AcDbLine
10
10.099999999999977
20
16.749999999999986
30
0
11
10.099999999999984
21
-37.750000000000014
31
0
0
LINE
5
110
100
AcDbEntity
8
0
100
AcDbLine
10
10.099999999999984
20
-37.750000000000014
30
0
11
-10.100000000000001
21
-37.750000000000014
31
0
0
LINE
5
111
100
AcDbEntity
8
0
100
AcDbLine
10
-10.100000000000001
20
-37.750000000000014
30
0
11
-10.100000000000001
21
16.749999999999993
31
0
0
LINE
5
112
100
AcDbEntity
8
0
100
AcDbLine
10
-10.100000000000001
20
16.749999999999993
30
0
11
10.099999999999984
21
-37.750000000000014
31
0
0
LINE
5
113
100
AcDbEntity
8
0
100
AcDbLine
10
10.099999999999977
20
16.749999999999986
30
0
11
-10.100000000000001
21
-37.750000000000014
31
0
0
CIRCLE
5
114
100
AcDbEntity
8
0
100
AcDbCircle
10
0
20
0
30
0
40
10.5
210
0
220
-0
230
1
0
LINE
5
115
100
AcDbEntity
8
0
100
AcDbLine
10
-4.999999999999992
20
13.374999999999995
30
0
11
4.9999999999999991
21
13.374999999999995
31
0
0
LINE
5
116
100
AcDbEntity
8
0
100
AcDbLine
10
4.9999999999999991
20
13.374999999999995
30
0
11
5.000000000000008
21
-34.375000000000171
31
0
0
LINE
5
117
100
AcDbEntity
8
0
100
AcDbLine
10
5.000000000000008
20
-34.375000000000171
30
0
11
-4.9999999999999911
21
-34.375000000000171
31
0
0
LINE
5
118
100
AcDbEntity
8
0
100
AcDbLine
10
-4.9999999999999911
20
-34.375000000000171
30
0
11
-4.999999999999992
21
13.374999999999995
31
0
0
LINE
5
119
100
AcDbEntity
8
0
100
AcDbLine
10
-4.999999999999992
20
13.374999999999995
30
0
11
5.000000000000008
21
-34.375000000000171
31
0
0
LINE
5
120
100
AcDbEntity
8
0
100
AcDbLine
10
4.9999999999999991
20
13.374999999999995
30
0
11
-4.9999999999999911
21
-34.375000000000171
31
0
0
LINE
5
121
100
AcDbEntity
8
0
100
AcDbLine
10
-4.9999999999999929
20
10
30
0
11
-4.999999999999992
21
16.749999999999989
31
0
0
CIRCLE
5
122
100
AcDbEntity
8
0
100
AcDbCircle
10
-4.9999999999999911
20
-34.375000000000171
30
0
40
0.75000000000000011
210
0
220
0
230
1
0
CIRCLE
5
123
100
AcDbEntity
8
0
100
AcDbCircle
10
5.000000000000008
20
-34.375000000000171
30
0
40
0.75000000000000011
210
0
220
0
230
1
0
CIRCLE
5
124
100
AcDbEntity
8
0
100
AcDbCircle
10
4.9999999999999991
20
13.374999999999995
30
0
40
0.75000000000000044
210
0
220
0
230
1
0
CIRCLE
5
125
100
AcDbEntity
8
0
100
AcDbCircle
10
-4.999999999999992
20
13.374999999999995
30
0
40
0.75000000000000044
210
0
220
0
230
1
0
ENDSEC
0
SECTION
2
OBJECTS
0
DICTIONARY
5
C
100
AcDbDictionary
3
ACAD_GROUP
350
D
3
ACAD_MLINESTYLE
350
17
0
DICTIONARY
5
D
100
AcDbDictionary
0
DICTIONARY
5
1A
330
C
100
AcDbDictionary
0
DICTIONARY
5
17
100
AcDbDictionary
0
ENDSEC
0
EOF
