                                                                        S      1
,,5HESP32,5HESP32,7Hunknown,7Hunknown,32,38,7,99,15,,1.,2,2HMM,1,0.08,  G      1
15H20201205.175753,0.01,10000.,7Hunknown,7Hunknown,11,0,;               G      2
     186       1                                                00000000D      1
     186             -71       1       0                               0D      2
     514       2                                                00010000D      3
     514                       1       1                               0D      4
     510       3                                                00010000D      5
     510             -71       1       1                               0D      6
     510       4                                                00010000D      7
     510             -71       1       1                               0D      8
     510       5                                                00010000D      9
     510             -71       1       1                               0D     10
     510       6                                                00010000D     11
     510             -71       1       1                               0D     12
     510       7                                                00010000D     13
     510             -71       1       1                               0D     14
     510       8                                                00010000D     15
     510             -71       1       1                               0D     16
     508       9                                                00010000D     17
     508                       1       1                               0D     18
     508      10                                                00010000D     19
     508                       1       1                               0D     20
     508      11                                                00010000D     21
     508                       1       1                               0D     22
     508      12                                                00010000D     23
     508                       1       1                               0D     24
     508      13                                                00010000D     25
     508                       1       1                               0D     26
     508      14                                                00010000D     27
     508                       1       1                               0D     28
     126      15                                                00010000D     29
     126       0               2       0                               0D     30
     126      17                                                00010000D     31
     126       0               2       0                               0D     32
     126      19                                                00010000D     33
     126       0               2       0                               0D     34
     126      21                                                00010000D     35
     126       0               2       0                               0D     36
     126      23                                                00010000D     37
     126       0               2       0                               0D     38
     126      25                                                00010000D     39
     126       0               2       0                               0D     40
     126      27                                                00010000D     41
     126       0               2       0                               0D     42
     126      29                                                00010000D     43
     126       0               2       0                               0D     44
     126      31                                                00010000D     45
     126       0               2       0                               0D     46
     126      33                                                00010000D     47
     126       0               2       0                               0D     48
     126      35                                                00010000D     49
     126       0               2       0                               0D     50
     126      37                                                00010000D     51
     126       0               2       0                               0D     52
     128      39                                                00010000D     53
     128       0     -71       3       0                               0D     54
     128      42                                                00010000D     55
     128       0     -71       3       0                               0D     56
     128      45                                                00010000D     57
     128       0     -71       3       0                               0D     58
     128      48                                                00010000D     59
     128       0     -71       3       0                               0D     60
     128      51                                                00010000D     61
     128       0     -71       3       0                               0D     62
     128      54                                                00010000D     63
     128       0     -71       3       0                               0D     64
     502      57                                                00010000D     65
     502                       2       1                               0D     66
     504      59                                                00010001D     67
     504                       3       1                               0D     68
     406      62                                                00000000D     69
     406                       1      15                               0D     70
     314      63                                                00000200D     71
     314                       2       0                               0D     72
186,3,1,0,0,1,69;                                                      1P      1
514,6,5,1,7,1,9,1,11,1,13,1,15,1;                                      3P      2
510,53,1,1,17;                                                         5P      3
510,55,1,1,19;                                                         7P      4
510,57,1,1,21;                                                         9P      5
510,59,1,1,23;                                                        11P      6
510,61,1,1,25;                                                        13P      7
510,63,1,1,27;                                                        15P      8
508,4,0,67,1,0,0,0,67,2,1,0,0,67,3,0,0,0,67,4,0,0;                    17P      9
508,4,0,67,5,0,0,0,67,4,1,0,0,67,6,0,0,0,67,7,0,0;                    19P     10
508,4,0,67,8,0,0,0,67,7,1,0,0,67,9,0,0,0,67,10,0,0;                   21P     11
508,4,0,67,11,0,0,0,67,10,1,0,0,67,12,0,0,0,67,2,0,0;                 23P     12
508,4,0,67,12,1,0,0,67,9,1,0,0,67,6,1,0,0,67,3,1,0;                   25P     13
508,4,0,67,11,1,0,0,67,1,1,0,0,67,5,1,0,0,67,8,1,0;                   27P     14
126,1,1,0,0,1,0,0.,0.,4.,4.,1.,1.,13.5,20.,0.,13.5,-20.,0.,0.,        29P     15
4.,0.,0.,0.;                                                          29P     16
126,1,1,0,0,1,0,0.,0.,1.8,1.8,1.,1.,13.5,20.,0.,13.5,20.,18.,0.,      31P     17
1.8,0.,0.,0.;                                                         31P     18
126,1,1,0,0,1,0,-4.,-4.,0.,0.,1.,1.,13.5,-20.,18.,13.5,20.,18.,       33P     19
-4.,0.,0.,0.,0.;                                                      33P     20
126,1,1,0,0,1,0,0.,0.,1.8,1.8,1.,1.,13.5,-20.,0.,13.5,-20.,18.,       35P     21
0.,1.8,0.,0.,0.;                                                      35P     22
126,1,1,0,0,1,0,0.,0.,2.7,2.7,1.,1.,13.5,-20.,0.,-13.5,-20.,0.,       37P     23
0.,2.7,0.,0.,0.;                                                      37P     24
126,1,1,0,0,1,0,-2.7,-2.7,0.,0.,1.,1.,-13.5,-20.,18.,13.5,-20.,       39P     25
18.,-2.7,0.,0.,0.,0.;                                                 39P     26
126,1,1,0,0,1,0,0.,0.,1.8,1.8,1.,1.,-13.5,-20.,0.,-13.5,-20.,         41P     27
18.,0.,1.8,0.,0.,0.;                                                  41P     28
126,1,1,0,0,1,0,0.,0.,4.,4.,1.,1.,-13.5,-20.,0.,-13.5,20.,0.,0.,      43P     29
4.,0.,0.,0.;                                                          43P     30
126,1,1,0,0,1,0,-4.,-4.,0.,0.,1.,1.,-13.5,20.,18.,-13.5,-20.,         45P     31
18.,-4.,0.,0.,0.,0.;                                                  45P     32
126,1,1,0,0,1,0,0.,0.,1.8,1.8,1.,1.,-13.5,20.,0.,-13.5,20.,18.,       47P     33
0.,1.8,0.,0.,0.;                                                      47P     34
126,1,1,0,0,1,0,0.,0.,2.7,2.7,1.,1.,-13.5,20.,0.,13.5,20.,0.,0.,      49P     35
2.7,0.,0.,0.;                                                         49P     36
126,1,1,0,0,1,0,-2.7,-2.7,0.,0.,1.,1.,13.5,20.,18.,-13.5,20.,         51P     37
18.,-2.7,0.,0.,0.,0.;                                                 51P     38
128,1,1,1,1,0,0,1,0,0,-0.001,-0.001,4.001,4.001,-0.001,-0.001,        53P     39
1.801,1.801,1.,1.,1.,1.,13.5,-20.01,-0.01,13.5,20.01,-0.01,13.5,      53P     40
-20.01,18.01,13.5,20.01,18.01,-0.001,4.001,-0.001,1.801;              53P     41
128,1,1,1,1,0,0,1,0,0,-0.001,-0.001,2.701,2.701,-0.001,-0.001,        55P     42
1.801,1.801,1.,1.,1.,1.,-13.51,-20.,-0.01,13.51,-20.,-0.01,           55P     43
-13.51,-20.,18.01,13.51,-20.,18.01,-0.001,2.701,-0.001,1.801;         55P     44
128,1,1,1,1,0,0,1,0,0,-0.001,-0.001,4.001,4.001,-0.001,-0.001,        57P     45
1.801,1.801,1.,1.,1.,1.,-13.5,20.01,-0.01,-13.5,-20.01,-0.01,         57P     46
-13.5,20.01,18.01,-13.5,-20.01,18.01,-0.001,4.001,-0.001,1.801;       57P     47
128,1,1,1,1,0,0,1,0,0,-0.001,-0.001,2.701,2.701,-0.001,-0.001,        59P     48
1.801,1.801,1.,1.,1.,1.,13.51,20.,-0.01,-13.51,20.,-0.01,13.51,       59P     49
20.,18.01,-13.51,20.,18.01,-0.001,2.701,-0.001,1.801;                 59P     50
128,1,1,1,1,0,0,1,0,0,-1.351,-1.351,1.351,1.351,-2.001,-2.001,        61P     51
2.001,2.001,1.,1.,1.,1.,-13.51,-20.01,18.,13.51,-20.01,18.,           61P     52
-13.51,20.01,18.,13.51,20.01,18.,-1.351,1.351,-2.001,2.001;           61P     53
128,1,1,1,1,0,0,1,0,0,-1.351,-1.351,1.351,1.351,-2.001,-2.001,        63P     54
2.001,2.001,1.,1.,1.,1.,13.51,-20.01,0.,-13.51,-20.01,0.,13.51,       63P     55
20.01,0.,-13.51,20.01,0.,-1.351,1.351,-2.001,2.001;                   63P     56
502,8,13.5,20.,0.,13.5,-20.,0.,13.5,20.,18.,13.5,-20.,18.,-13.5,      65P     57
-20.,0.,-13.5,-20.,18.,-13.5,20.,0.,-13.5,20.,18.;                    65P     58
504,12,29,65,1,65,2,31,65,1,65,3,33,65,4,65,3,35,65,2,65,4,37,        67P     59
65,2,65,5,39,65,6,65,4,41,65,5,65,6,43,65,5,65,7,45,65,8,65,6,        67P     60
47,65,7,65,8,49,65,7,65,1,51,65,3,65,8;                               67P     61
406,1,5HBody1;                                                        69P     62
314,62.7450980392157,62.7450980392157,62.7450980392157,13HSteel       71P     63
- Satin;                                                              71P     64
S      1G      2D     72P     64                                        T      1
