0
SECTION
2
HEADER
9
$INSUNITS
70
4
9
$ACADVER
1
AC1014
9
$HANDSEED
5
FFFF
0
ENDSEC
0
SECTION
2
TABLES
0
TABLE
2
VPORT
5
8
100
AcDbSymbolTable
0
ENDTAB
0
TABLE
2
LTYPE
5
5
100
AcDbSymbolTable
0
LTYPE
5
14
100
AcDbSymbolTableRecord
100
AcDbLinetypeTableRecord
2
BYBLOCK
70
0
0
LTYPE
5
15
100
AcDbSymbolTableRecord
100
AcDbLinetypeTableRecord
2
BYLAYER
70
0
0
ENDTAB
0
TABLE
2
LAYER
5
2
100
AcDbSymbolTable
70
2
0
LAYER
5
50
100
AcDbSymbolTableRecord
100
AcDbLayerTableRecord
2
0
70
0
6
CONTINUOUS
0
ENDTAB
0
TABLE
2
STYLE
5
3
100
AcDbSymbolTable
70
1
0
STYLE
5
11
100
AcDbSymbolTableRecord
100
AcDbTextStyleTableRecord
2
STANDARD
70
0
0
ENDTAB
0
TABLE
2
VIEW
5
6
100
AcDbSymbolTable
70
0
0
ENDTAB
0
TABLE
2
UCS
5
7
100
AcDbSymbolTable
70
0
0
ENDTAB
0
TABLE
2
APPID
5
9
100
AcDbSymbolTable
70
2
0
APPID
5
12
100
AcDbSymbolTableRecord
100
AcDbRegAppTableRecord
2
ACAD
70
0
0
ENDTAB
0
TABLE
2
DIMSTYLE
5
A
100
AcDbSymbolTable
70
1
0
ENDTAB
0
TABLE
2
BLOCK_RECORD
5
1
100
AcDbSymbolTable
70
1
0
BLOCK_RECORD
5
1F
100
AcDbSymbolTableRecord
100
AcDbBlockTableRecord
2
*MODEL_SPACE
0
BLOCK_RECORD
5
1B
100
AcDbSymbolTableRecord
100
AcDbBlockTableRecord
2
*PAPER_SPACE
0
ENDTAB
0
ENDSEC
0
SECTION
2
BLOCKS
0
BLOCK
5
20
100
AcDbEntity
100
AcDbBlockBegin
2
*MODEL_SPACE
0
ENDBLK
5
21
100
AcDbEntity
100
AcDbBlockEnd
0
BLOCK
5
1C
100
AcDbEntity
100
AcDbBlockBegin
2
*PAPER_SPACE
0
ENDBLK
5
1D
100
AcDbEntity
100
AcDbBlockEnd
0
ENDSEC
0
SECTION
2
ENTITIES
0
CIRCLE
5
100
100
AcDbEntity
8
0
100
AcDbCircle
10
-144.92946522017871
20
-0.10000000000086573
30
0
40
2.1000000000000041
210
7.0037238657890565e-78
220
2.9101024400199271e-32
230
1
0
CIRCLE
5
101
100
AcDbEntity
8
0
100
AcDbCircle
10
-154.92946522017871
20
-0.10000000000092682
30
0
40
2.1000000000000041
210
7.0037238657890565e-78
220
2.9101024400199271e-32
230
1
0
CIRCLE
5
102
100
AcDbEntity
8
0
100
AcDbCircle
10
155.07053477983538
20
-0.09999999999903339
30
0
40
2.1000000000000041
210
7.0037238657890565e-78
220
2.9101024400199271e-32
230
1
0
LWPOLYLINE
5
103
100
AcDbEntity
8
0
100
AcDbPolyline
90
8
70
1
43
0.0
10
-14.142135623730914
20
5.0000000000000053
10
-19.371687315402593
20
5.000000000000008
42
0.12897605976008208
10
-19.371687315402589
20
-5.1999999999999673
10
-14.142135623730914
20
-5.1999999999999673
42
0.70359754473029223
10
14.283205183372822
20
-5.1999999999999655
10
19.512756875044499
20
-5.1999999999999691
42
0.12897605976008208
10
19.512756875044495
20
5.0000000000000071
10
14.283205183372827
20
5.0000000000000098
42
0.70359754473029201
0
CIRCLE
5
104
100
AcDbEntity
8
0
100
AcDbCircle
10
145.07053477983541
20
-0.09999999999909448
30
0
40
2.0999999999999863
210
9.8607613152626476e-32
220
2.9101024400192429e-32
230
1
0
LWPOLYLINE
5
105
100
AcDbEntity
8
0
100
AcDbPolyline
90
10
70
1
43
0.0
10
-32.429465220193727
20
-25.099999999971764
10
-32.429465220193734
20
-20.10000000000008
10
-164.92946522017866
20
-7.6464026670162921
10
-164.92946522017874
20
7.3425371619140289
10
-19.929465220164264
20
19.899999999999963
10
20.070534779835629
20
19.899999999999963
10
165.07053477983533
20
7.3425371619149811
10
165.07053477983533
20
-7.6464026670126417
10
32.57053477980628
20
-20.099999999999749
10
32.57053477980628
20
-25.099999999999746
0
LWPOLYLINE
5
106
100
AcDbEntity
8
0
100
AcDbPolyline
90
8
70
1
43
0.0
10
-19.371687315402589
20
-5.1999999999999673
10
-14.142135623730912
20
-5.1999999999999673
42
0.70359754473029212
10
14.283205183372825
20
-5.1999999999999691
10
19.512756875044502
20
-5.1999999999999691
42
0.12897605976008097
10
19.512756875044502
20
4.9999999999999893
10
14.283205183372822
20
5.000000000000008
42
0.70359754473029179
10
-14.142135623730914
20
5.0000000000000107
10
-19.371687315402593
20
5.0000000000000089
42
0.12897605976008208
0
CIRCLE
5
107
100
AcDbEntity
8
0
100
AcDbCircle
10
0.070534779820954352
20
-0.099999999999982325
30
0
40
22
210
0
220
0
230
1
0
ENDSEC
0
SECTION
2
OBJECTS
0
DICTIONARY
5
C
100
AcDbDictionary
3
ACAD_GROUP
350
D
3
ACAD_MLINESTYLE
350
17
0
DICTIONARY
5
D
100
AcDbDictionary
0
DICTIONARY
5
1A
330
C
100
AcDbDictionary
0
DICTIONARY
5
17
100
AcDbDictionary
0
ENDSEC
0
EOF
