0
SECTION
2
HEADER
9
$INSUNITS
70
4
9
$ACADVER
1
AC1014
9
$HANDSEED
5
FFFF
0
ENDSEC
0
SECTION
2
TABLES
0
TABLE
2
VPORT
5
8
100
AcDbSymbolTable
0
ENDTAB
0
TABLE
2
LTYPE
5
5
100
AcDbSymbolTable
0
LTYPE
5
14
100
AcDbSymbolTableRecord
100
AcDbLinetypeTableRecord
2
BYBLOCK
70
0
0
LTYPE
5
15
100
AcDbSymbolTableRecord
100
AcDbLinetypeTableRecord
2
BYLAYER
70
0
0
ENDTAB
0
TABLE
2
LAYER
5
2
100
AcDbSymbolTable
70
2
0
LAYER
5
50
100
AcDbSymbolTableRecord
100
AcDbLayerTableRecord
2
0
70
0
6
CONTINUOUS
0
ENDTAB
0
TABLE
2
STYLE
5
3
100
AcDbSymbolTable
70
1
0
STYLE
5
11
100
AcDbSymbolTableRecord
100
AcDbTextStyleTableRecord
2
STANDARD
70
0
0
ENDTAB
0
TABLE
2
VIEW
5
6
100
AcDbSymbolTable
70
0
0
ENDTAB
0
TABLE
2
UCS
5
7
100
AcDbSymbolTable
70
0
0
ENDTAB
0
TABLE
2
APPID
5
9
100
AcDbSymbolTable
70
2
0
APPID
5
12
100
AcDbSymbolTableRecord
100
AcDbRegAppTableRecord
2
ACAD
70
0
0
ENDTAB
0
TABLE
2
DIMSTYLE
5
A
100
AcDbSymbolTable
70
1
0
ENDTAB
0
TABLE
2
BLOCK_RECORD
5
1
100
AcDbSymbolTable
70
1
0
BLOCK_RECORD
5
1F
100
AcDbSymbolTableRecord
100
AcDbBlockTableRecord
2
*MODEL_SPACE
0
BLOCK_RECORD
5
1B
100
AcDbSymbolTableRecord
100
AcDbBlockTableRecord
2
*PAPER_SPACE
0
ENDTAB
0
ENDSEC
0
SECTION
2
BLOCKS
0
BLOCK
5
20
100
AcDbEntity
100
AcDbBlockBegin
2
*MODEL_SPACE
0
ENDBLK
5
21
100
AcDbEntity
100
AcDbBlockEnd
0
BLOCK
5
1C
100
AcDbEntity
100
AcDbBlockBegin
2
*PAPER_SPACE
0
ENDBLK
5
1D
100
AcDbEntity
100
AcDbBlockEnd
0
ENDSEC
0
SECTION
2
ENTITIES
0
CIRCLE
5
100
100
AcDbEntity
8
0
100
AcDbCircle
10
154.23591605746483
20
79.313475922139375
30
0
40
4.0000000000000018
210
-0
220
0
230
1
0
LINE
5
101
100
AcDbEntity
8
0
100
AcDbLine
10
99.235916057469339
20
44.713475922140653
30
0
11
119.23591605746934
21
44.713475922140951
31
0
0
LINE
5
102
100
AcDbEntity
8
0
100
AcDbLine
10
119.23591605746952
20
31.713475922140951
30
0
11
119.23591605746934
21
44.713475922140951
31
0
0
LINE
5
103
100
AcDbEntity
8
0
100
AcDbLine
10
99.235916057469524
20
31.713475922140653
30
0
11
99.235916057469339
21
44.713475922140653
31
0
0
LINE
5
104
100
AcDbEntity
8
0
100
AcDbLine
10
160.58591605746486
20
85.813475922139375
30
0
11
96.435916057469541
21
85.813475922139375
31
0
0
LINE
5
105
100
AcDbEntity
8
0
100
AcDbLine
10
50.54309468826272
20
31.713475922140653
30
0
11
52.344695487111572
21
31.713475922140653
31
0
0
LINE
5
106
100
AcDbEntity
8
0
100
AcDbLine
10
52.344695487111572
20
31.713475922140653
30
0
11
217.04103518187753
21
31.713475922140653
31
0
0
LINE
5
107
100
AcDbEntity
8
0
100
AcDbLine
10
96.435916057469512
20
75.813475922139403
30
0
11
96.435916057469541
21
31.713475922140653
31
0
0
LINE
5
108
100
AcDbEntity
8
0
100
AcDbLine
10
96.435916057469541
20
31.713475922140653
30
0
11
98.935916057469541
21
31.713475922140653
31
0
0
LINE
5
109
100
AcDbEntity
8
0
100
AcDbLine
10
98.935916057469541
20
44.713475922140653
30
0
11
119.53591605746952
21
44.713475922140653
31
0
0
LINE
5
110
100
AcDbEntity
8
0
100
AcDbLine
10
119.53591605746952
20
44.713475922140653
30
0
11
119.53591605746952
21
31.713475922140653
31
0
0
LINE
5
111
100
AcDbEntity
8
0
100
AcDbLine
10
98.935916057469541
20
44.713475922140653
30
0
11
98.935916057469541
21
31.713475922140653
31
0
0
LINE
5
112
100
AcDbEntity
8
0
100
AcDbLine
10
119.53591605746952
20
31.713475922140653
30
0
11
122.03591605746952
21
31.713475922140653
31
0
0
LINE
5
113
100
AcDbEntity
8
0
100
AcDbLine
10
154.23591605746486
20
83.313475922139375
30
0
11
160.58591605746483
21
83.313475922139375
31
0
0
LINE
5
114
100
AcDbEntity
8
0
100
AcDbLine
10
160.58591605746486
20
85.813475922139375
30
0
11
160.58591605746477
21
70.813475922139361
31
0
0
LINE
5
115
100
AcDbEntity
8
0
100
AcDbLine
10
158.08591605746483
20
70.813475922139361
30
0
11
160.58591605746477
21
70.813475922139361
31
0
0
LINE
5
116
100
AcDbEntity
8
0
100
AcDbLine
10
158.0859160574648
20
78.22834920142796
30
0
11
158.08591605746483
21
70.813475922139361
31
0
0
LINE
5
117
100
AcDbEntity
8
0
100
AcDbLine
10
150.38591605746481
20
78.228349201428927
30
0
11
150.38591605746484
21
70.813475922139361
31
0
0
LINE
5
118
100
AcDbEntity
8
0
100
AcDbLine
10
150.38591605746484
20
70.813475922139361
30
0
11
147.88591605746481
21
70.813475922139361
31
0
0
LINE
5
119
100
AcDbEntity
8
0
100
AcDbLine
10
150.38591605746484
20
70.813475922139361
30
0
11
158.08591605746483
21
70.813475922139361
31
0
0
LINE
5
120
100
AcDbEntity
8
0
100
AcDbLine
10
154.23591605746483
20
79.313475922139375
30
0
11
154.23591605746481
21
70.813475922139361
31
0
0
LINE
5
121
100
AcDbEntity
8
0
100
AcDbLine
10
147.88591605746481
20
70.813475922139361
30
0
11
147.88591605746478
21
71.813475922139617
31
0
0
LINE
5
122
100
AcDbEntity
8
0
100
AcDbLine
10
137.88591605746475
20
81.813475922139546
30
0
11
110.43591605746946
21
81.813475922139645
31
0
0
LINE
5
123
100
AcDbEntity
8
0
100
AcDbLine
10
122.03591605746952
20
31.713475922140653
30
0
11
122.03591605746952
21
47.713475922140645
31
0
0
LINE
5
124
100
AcDbEntity
8
0
100
AcDbLine
10
122.03591605746952
20
47.713475922140645
30
0
11
110.43591605746954
21
47.713475922140638
31
0
0
LINE
5
125
100
AcDbEntity
8
0
100
AcDbLine
10
100.43591605746954
20
57.713475922140638
30
0
11
100.43591605746954
21
71.813475922139446
31
0
0
ARC
5
126
100
AcDbEntity
8
0
100
AcDbCircle
10
110.43591605746951
20
71.813475922139446
30
0
40
10.000000000000187
210
0
220
0
230
1
100
AcDbArc
50
90.000000000000327
51
180
0
ARC
5
127
100
AcDbEntity
8
0
100
AcDbCircle
10
137.88591605746481
20
71.81347592213956
30
0
40
9.9999999999999822
210
0
220
-0
230
1
100
AcDbArc
50
0
51
90.000000000000327
0
ARC
5
128
100
AcDbEntity
8
0
100
AcDbCircle
10
110.43591605746954
20
57.713475922140638
30
0
40
10
210
0
220
0
230
1
100
AcDbArc
50
180
51
270
0
ARC
5
129
100
AcDbEntity
8
0
100
AcDbCircle
10
154.23591605746483
20
79.313475922139375
30
0
40
4.0000000000002212
210
0
220
0
230
1
100
AcDbArc
50
-15.740548525180992
51
195.74054852516741
0
LINE
5
130
100
AcDbEntity
8
0
100
AcDbLine
10
160.58591605746486
20
85.813475922139375
30
0
11
157.58591605746486
21
85.813475922139375
31
0
0
LINE
5
131
100
AcDbEntity
8
0
100
AcDbLine
10
157.58591605746486
20
85.813475922139375
30
0
11
157.58591605746486
21
95.813475922139375
31
0
0
LINE
5
132
100
AcDbEntity
8
0
100
AcDbLine
10
157.58591605746486
20
95.813475922139375
30
0
11
160.58591605746486
21
95.813475922139375
31
0
0
LINE
5
133
100
AcDbEntity
8
0
100
AcDbLine
10
160.58591605746486
20
95.813475922139375
30
0
11
160.58591605746486
21
85.813475922139375
31
0
0
LINE
5
134
100
AcDbEntity
8
0
100
AcDbLine
10
85.585916057464843
20
95.813475922139389
30
0
11
88.585916057464843
21
95.813475922139389
31
0
0
LINE
5
135
100
AcDbEntity
8
0
100
AcDbLine
10
88.585916057464843
20
95.813475922139389
30
0
11
88.585916057464843
21
85.813475922139389
31
0
0
LINE
5
136
100
AcDbEntity
8
0
100
AcDbLine
10
88.585916057464843
20
85.813475922139389
30
0
11
85.585916057464843
21
85.813475922139389
31
0
0
LINE
5
137
100
AcDbEntity
8
0
100
AcDbLine
10
85.585916057464843
20
85.813475922139389
30
0
11
85.585916057464843
21
95.813475922139389
31
0
0
LINE
5
138
100
AcDbEntity
8
0
100
AcDbLine
10
96.435916057469541
20
85.813475922139375
30
0
11
88.585916057464843
21
85.813475922139389
31
0
0
LINE
5
139
100
AcDbEntity
8
0
100
AcDbLine
10
85.585916057464843
20
85.813475922139389
30
0
11
96.435916057469541
21
85.813475922139389
31
0
0
LINE
5
140
100
AcDbEntity
8
0
100
AcDbLine
10
96.435916057469541
20
85.813475922139389
30
0
11
96.435916057469541
21
81.813475922139389
31
0
0
LINE
5
141
100
AcDbEntity
8
0
100
AcDbLine
10
90.435916057469555
20
81.813475922139389
30
0
11
85.585916057464843
21
81.813475922139389
31
0
0
LINE
5
142
100
AcDbEntity
8
0
100
AcDbLine
10
85.585916057464843
20
81.813475922139389
30
0
11
85.585916057464843
21
85.813475922139389
31
0
0
ARC
5
143
100
AcDbEntity
8
0
100
AcDbCircle
10
90.435916057469569
20
75.813475922139432
30
0
40
5.9999999999999432
210
-0
220
0
230
1
100
AcDbArc
50
0
51
90.000000000000142
0
ENDSEC
0
SECTION
2
OBJECTS
0
DICTIONARY
5
C
100
AcDbDictionary
3
ACAD_GROUP
350
D
3
ACAD_MLINESTYLE
350
17
0
DICTIONARY
5
D
100
AcDbDictionary
0
DICTIONARY
5
1A
330
C
100
AcDbDictionary
0
DICTIONARY
5
17
100
AcDbDictionary
0
ENDSEC
0
EOF
