0
SECTION
2
HEADER
9
$INSUNITS
70
4
9
$ACADVER
1
AC1014
9
$HANDSEED
5
FFFF
0
ENDSEC
0
SECTION
2
TABLES
0
TABLE
2
VPORT
5
8
100
AcDbSymbolTable
0
ENDTAB
0
TABLE
2
LTYPE
5
5
100
AcDbSymbolTable
0
LTYPE
5
14
100
AcDbSymbolTableRecord
100
AcDbLinetypeTableRecord
2
BYBLOCK
70
0
0
LTYPE
5
15
100
AcDbSymbolTableRecord
100
AcDbLinetypeTableRecord
2
BYLAYER
70
0
0
ENDTAB
0
TABLE
2
LAYER
5
2
100
AcDbSymbolTable
70
2
0
LAYER
5
50
100
AcDbSymbolTableRecord
100
AcDbLayerTableRecord
2
0
70
0
6
CONTINUOUS
0
ENDTAB
0
TABLE
2
STYLE
5
3
100
AcDbSymbolTable
70
1
0
STYLE
5
11
100
AcDbSymbolTableRecord
100
AcDbTextStyleTableRecord
2
STANDARD
70
0
0
ENDTAB
0
TABLE
2
VIEW
5
6
100
AcDbSymbolTable
70
0
0
ENDTAB
0
TABLE
2
UCS
5
7
100
AcDbSymbolTable
70
0
0
ENDTAB
0
TABLE
2
APPID
5
9
100
AcDbSymbolTable
70
2
0
APPID
5
12
100
AcDbSymbolTableRecord
100
AcDbRegAppTableRecord
2
ACAD
70
0
0
ENDTAB
0
TABLE
2
DIMSTYLE
5
A
100
AcDbSymbolTable
70
1
0
ENDTAB
0
TABLE
2
BLOCK_RECORD
5
1
100
AcDbSymbolTable
70
1
0
BLOCK_RECORD
5
1F
100
AcDbSymbolTableRecord
100
AcDbBlockTableRecord
2
*MODEL_SPACE
0
BLOCK_RECORD
5
1B
100
AcDbSymbolTableRecord
100
AcDbBlockTableRecord
2
*PAPER_SPACE
0
ENDTAB
0
ENDSEC
0
SECTION
2
BLOCKS
0
BLOCK
5
20
100
AcDbEntity
100
AcDbBlockBegin
2
*MODEL_SPACE
0
ENDBLK
5
21
100
AcDbEntity
100
AcDbBlockEnd
0
BLOCK
5
1C
100
AcDbEntity
100
AcDbBlockBegin
2
*PAPER_SPACE
0
ENDBLK
5
1D
100
AcDbEntity
100
AcDbBlockEnd
0
ENDSEC
0
SECTION
2
ENTITIES
0
LINE
5
100
100
AcDbEntity
8
0
100
AcDbLine
10
60
20
-59.900000000000006
30
0
11
84
21
-59.900000000000006
31
0
0
LINE
5
101
100
AcDbEntity
8
0
100
AcDbLine
10
84
20
-59.900000000000006
30
0
11
84
21
60
31
0
0
LINE
5
102
100
AcDbEntity
8
0
100
AcDbLine
10
84
20
60
30
0
11
60
21
60
31
0
0
SPLINE
5
103
100
AcDbEntity
8
0
100
AcDbSpline
70
4
71
5
72
21
73
15
74
0
42
0.000000001
43
0.0000000001
44
0.0000000001
40
0
40
0
40
0
40
0
40
0
40
0
40
0.10000000000000001
40
0.20000000000000001
40
0.30000000000000004
40
0.40000000000000002
40
0.5
40
0.59999999999999998
40
0.69999999999999996
40
0.79999999999999993
40
0.89999999999999991
40
1
40
1
40
1
40
1
40
1
40
1
41
1
41
1
41
1
41
1
41
1
41
1
41
1
41
1
41
1
41
1
41
1
41
1
41
1
41
1
41
1
10
60
20
-59.900000000000006
30
0
10
61.782988810122689
20
-59.401814795042768
30
0
10
65.197260956414809
20
-58.355554787335237
30
0
10
69.863561372260804
20
-56.636497222793466
30
0
10
75.160030807057353
20
-54.040147634608637
30
0
10
80.132622292579072
20
-50.268860401230711
30
0
10
83.307177279703524
20
-45.971674829070118
30
0
10
84.529914696162379
20
-41.19827226913506
30
0
10
83.711633587365398
20
-36.091526624800245
30
0
10
80.908297814209163
20
-30.931730176330415
30
0
10
76.227458086431952
20
-26.061959183013741
30
0
10
71.065522684625947
20
-22.672517989919733
30
0
10
66.428142168663101
20
-20.538223440894214
30
0
10
62.998979183020118
20
-19.313113394359352
30
0
10
61.199999999999989
20
-18.75
30
0
0
LINE
5
104
100
AcDbEntity
8
0
100
AcDbLine
10
59.499999999999993
20
-41.486261235121979
30
0
11
60
21
-41.486261235121979
31
0
0
LINE
5
105
100
AcDbEntity
8
0
100
AcDbLine
10
79
20
-41.486261235121979
30
0
11
84
21
-41.486261235121979
31
0
0
LINE
5
106
100
AcDbEntity
8
0
100
AcDbLine
10
47.5
20
-57.186254355371709
30
0
11
60
21
-59.900000000000006
31
0
0
LINE
5
107
100
AcDbEntity
8
0
100
AcDbLine
10
60
20
-59.900000000000006
30
0
11
60
21
59.900000000000006
31
0
0
LINE
5
108
100
AcDbEntity
8
0
100
AcDbLine
10
35
20
59.900000000000006
30
0
11
35
21
-59.900000000000006
31
0
0
LINE
5
109
100
AcDbEntity
8
0
100
AcDbLine
10
60
20
-59.900000000000006
30
0
11
60
21
59.900000000000006
31
0
0
LINE
5
110
100
AcDbEntity
8
0
100
AcDbLine
10
35
20
-57.186254355371709
30
0
11
35
21
57.186254355371709
31
0
0
LINE
5
111
100
AcDbEntity
8
0
100
AcDbLine
10
60
20
57.186254355371709
30
0
11
60
21
-57.186254355371709
31
0
0
LINE
5
112
100
AcDbEntity
8
0
100
AcDbLine
10
35
20
-57.186254355371709
30
0
11
60
21
-57.186254355371709
31
0
0
LINE
5
113
100
AcDbEntity
8
0
100
AcDbLine
10
58.999999999999993
20
-24.75
30
0
11
58.999999999999993
21
24.75
31
0
0
LINE
5
114
100
AcDbEntity
8
0
100
AcDbLine
10
58.999999999999993
20
-24.75
30
0
11
58.999999999999993
21
24.75
31
0
0
LINE
5
115
100
AcDbEntity
8
0
100
AcDbLine
10
63.399999999999999
20
12.75
30
0
11
63.399999999999999
21
-12.75
31
0
0
LINE
5
116
100
AcDbEntity
8
0
100
AcDbLine
10
58.999999999999993
20
-24.75
30
0
11
63.399999999999999
21
-12.75
31
0
0
SPLINE
5
117
100
AcDbEntity
8
0
100
AcDbSpline
70
4
71
5
72
21
73
15
74
0
42
0.000000001
43
0.0000000001
44
0.0000000001
40
0
40
0
40
0
40
0
40
0
40
0
40
0.10000000000000001
40
0.20000000000000001
40
0.30000000000000004
40
0.40000000000000002
40
0.5
40
0.59999999999999998
40
0.69999999999999996
40
0.79999999999999993
40
0.89999999999999991
40
1
40
1
40
1
40
1
40
1
40
1
41
1
41
1
41
1
41
1
41
1
41
1
41
1
41
1
41
1
41
1
41
1
41
1
41
1
41
1
41
1
10
47.5
20
-57.186254355371709
30
0
10
49.738912775908666
20
-56.875731561744701
30
0
10
54.026602870867421
20
-56.197703229585443
30
0
10
59.887768518995664
20
-55.009725761695265
30
0
10
66.555755020218498
20
-53.089321673597766
30
0
10
72.920039319247266
20
-50.162155927789122
30
0
10
77.215031398179818
20
-46.762635949777902
30
0
10
79.337950988760284
20
-42.975262708948961
30
0
10
79.225611679038167
20
-38.926363852078921
30
0
10
76.969555349171102
20
-34.816453736361609
30
0
10
72.776778291604955
20
-30.896923455175454
30
0
10
68.042212422059038
20
-28.111821849529388
30
0
10
63.787489498513075
20
-26.309212875947281
30
0
10
60.646567732025041
20
-25.246554522169703
30
0
10
58.999999999999993
20
-24.75
30
0
0
LINE
5
118
100
AcDbEntity
8
0
100
AcDbLine
10
58.999999999999993
20
-24.75
30
0
11
61.199999999999989
21
-18.75
31
0
0
ENDSEC
0
SECTION
2
OBJECTS
0
DICTIONARY
5
C
100
AcDbDictionary
3
ACAD_GROUP
350
D
3
ACAD_MLINESTYLE
350
17
0
DICTIONARY
5
D
100
AcDbDictionary
0
DICTIONARY
5
1A
330
C
100
AcDbDictionary
0
DICTIONARY
5
17
100
AcDbDictionary
0
ENDSEC
0
EOF
