                                                                        S      1
,,9HAxe 1 v11,9HAxe 1 v11,7Hunknown,7Hunknown,32,38,7,99,15,,1.,2,2HMM, G      1
1,0.08,15H20201205.181032,0.01,10000.,7Hunknown,7Hunknown,11,0,15H202006G      2
07.154908;                                                              G      3
     186       1                                                00000000D      1
     186            -213       1       0                               0D      2
     514       2                                                00010000D      3
     514                       2       1                               0D      4
     510       4                                                00010000D      5
     510            -213       1       1                               0D      6
     510       5                                                00010000D      7
     510            -213       1       1                               0D      8
     510       6                                                00010000D      9
     510            -213       1       1                               0D     10
     510       7                                                00010000D     11
     510            -213       1       1                               0D     12
     510       8                                                00010000D     13
     510            -213       1       1                               0D     14
     510       9                                                00010000D     15
     510            -213       1       1                               0D     16
     510      10                                                00010000D     17
     510            -213       1       1                               0D     18
     510      11                                                00010000D     19
     510            -213       1       1                               0D     20
     510      12                                                00010000D     21
     510            -213       1       1                               0D     22
     510      13                                                00010000D     23
     510            -213       1       1                               0D     24
     510      14                                                00010000D     25
     510            -213       1       1                               0D     26
     510      15                                                00010000D     27
     510            -213       1       1                               0D     28
     510      16                                                00010000D     29
     510            -213       1       1                               0D     30
     510      17                                                00010000D     31
     510            -213       1       1                               0D     32
     510      18                                                00010000D     33
     510            -213       1       1                               0D     34
     510      19                                                00010000D     35
     510            -213       1       1                               0D     36
     510      20                                                00010000D     37
     510            -213       1       1                               0D     38
     510      21                                                00010000D     39
     510            -213       1       1                               0D     40
     508      22                                                00010000D     41
     508                       1       1                               0D     42
     508      23                                                00010000D     43
     508                       1       1                               0D     44
     508      24                                                00010000D     45
     508                       1       1                               0D     46
     508      25                                                00010000D     47
     508                       1       1                               0D     48
     508      26                                                00010000D     49
     508                       1       1                               0D     50
     508      27                                                00010000D     51
     508                       1       1                               0D     52
     508      28                                                00010000D     53
     508                       2       1                               0D     54
     508      30                                                00010000D     55
     508                       1       1                               0D     56
     508      31                                                00010000D     57
     508                       1       1                               0D     58
     508      32                                                00010000D     59
     508                       1       1                               0D     60
     508      33                                                00010000D     61
     508                       2       1                               0D     62
     508      35                                                00010000D     63
     508                       2       1                               0D     64
     508      37                                                00010000D     65
     508                       1       1                               0D     66
     508      38                                                00010000D     67
     508                       1       1                               0D     68
     508      39                                                00010000D     69
     508                       1       1                               0D     70
     508      40                                                00010000D     71
     508                       1       1                               0D     72
     508      41                                                00010000D     73
     508                       1       1                               0D     74
     508      42                                                00010000D     75
     508                       1       1                               0D     76
     508      43                                                00010000D     77
     508                       2       1                               0D     78
     508      45                                                00010000D     79
     508                       1       1                               0D     80
     508      46                                                00010000D     81
     508                       2       1                               0D     82
     508      48                                                00010000D     83
     508                       1       1                               0D     84
     126      49                                                00010000D     85
     126       0               4       0                               0D     86
     126      53                                                00010000D     87
     126       0               3       0                               0D     88
     126      56                                                00010000D     89
     126       0               3       0                               0D     90
     126      59                                                00010000D     91
     126       0               2       0                               0D     92
     126      61                                                00010000D     93
     126       0               4       0                               0D     94
     126      65                                                00010000D     95
     126       0               2       0                               0D     96
     126      67                                                00010000D     97
     126       0               3       0                               0D     98
     126      70                                                00010000D     99
     126       0               4       0                               0D    100
     126      74                                                00010000D    101
     126       0               2       0                               0D    102
     126      76                                                00010000D    103
     126       0               3       0                               0D    104
     126      79                                                00010000D    105
     126       0               4       0                               0D    106
     126      83                                                00010000D    107
     126       0               3       0                               0D    108
     126      86                                                00010000D    109
     126       0               3       0                               0D    110
     126      89                                                00010000D    111
     126       0               4       0                               0D    112
     126      93                                                00010000D    113
     126       0               2       0                               0D    114
     126      95                                                00010000D    115
     126       0               3       0                               0D    116
     126      98                                                00010000D    117
     126       0               4       0                               0D    118
     126     102                                                00010000D    119
     126       0               3       0                               0D    120
     126     105                                                00010000D    121
     126       0               7       0                               0D    122
     126     112                                                00010000D    123
     126       0               7       0                               0D    124
     126     119                                                00010000D    125
     126       0              10       0                               0D    126
     126     129                                                00010000D    127
     126       0               2       0                               0D    128
     126     131                                                00010000D    129
     126       0              10       0                               0D    130
     126     141                                                00010000D    131
     126       0               2       0                               0D    132
     126     143                                                00010000D    133
     126       0               9       0                               0D    134
     126     152                                                00010000D    135
     126       0               3       0                               0D    136
     126     155                                                00010000D    137
     126       0               2       0                               0D    138
     126     157                                                00010000D    139
     126       0               3       0                               0D    140
     126     160                                                00010000D    141
     126       0               3       0                               0D    142
     126     163                                                00010000D    143
     126       0               3       0                               0D    144
     126     166                                                00010000D    145
     126       0               3       0                               0D    146
     126     169                                                00010000D    147
     126       0               3       0                               0D    148
     126     172                                                00010000D    149
     126       0               3       0                               0D    150
     126     175                                                00010000D    151
     126       0               3       0                               0D    152
     126     178                                                00010000D    153
     126       0               2       0                               0D    154
     126     180                                                00010000D    155
     126       0               3       0                               0D    156
     126     183                                                00010000D    157
     126       0               3       0                               0D    158
     126     186                                                00010000D    159
     126       0               3       0                               0D    160
     126     189                                                00010000D    161
     126       0               4       0                               0D    162
     126     193                                                00010000D    163
     126       0               4       0                               0D    164
     126     197                                                00010000D    165
     126       0               2       0                               0D    166
     126     199                                                00010000D    167
     126       0               3       0                               0D    168
     126     202                                                00010000D    169
     126       0               3       0                               0D    170
     128     205                                                00010000D    171
     128       0    -213       6       0                               0D    172
     128     211                                                00010000D    173
     128       0    -213       6       0                               0D    174
     128     217                                                00010000D    175
     128       0    -213       5       0                               0D    176
     128     222                                                00010000D    177
     128       0    -213       6       0                               0D    178
     128     228                                                00010000D    179
     128       0    -213       6       0                               0D    180
     128     234                                                00010000D    181
     128       0    -213       5       0                               0D    182
     128     239                                                00010000D    183
     128       0    -213       5       0                               0D    184
     128     244                                                00010000D    185
     128       0    -213      12       0                               0D    186
     128     256                                                00010000D    187
     128       0    -213       3       0                               0D    188
     128     259                                                00010000D    189
     128       0    -213      12       0                               0D    190
     128     271                                                00010000D    191
     128       0    -213       6       0                               0D    192
     128     277                                                00010000D    193
     128       0    -213       6       0                               0D    194
     128     283                                                00010000D    195
     128       0    -213       5       0                               0D    196
     128     288                                                00010000D    197
     128       0    -213       6       0                               0D    198
     128     294                                                00010000D    199
     128       0    -213       6       0                               0D    200
     128     300                                                00010000D    201
     128       0    -213       5       0                               0D    202
     128     305                                                00010000D    203
     128       0    -213       7       0                               0D    204
     128     312                                                00010000D    205
     128       0    -213       7       0                               0D    206
     502     319                                                00010000D    207
     502                      17       1                               0D    208
     504     336                                                00010001D    209
     504                      12       1                               0D    210
     406     348                                                00000000D    211
     406                       1      15                               0D    212
     314     349                                                00000200D    213
     314                       2       0                               0D    214
     314     351                                                00000200D    215
     314                       2       0                               0D    216
186,3,1,0,0,1,211;                                                     1P      1
514,18,5,1,7,1,9,1,11,1,13,1,15,1,17,1,19,1,21,1,23,1,25,1,27,1,       3P      2
29,1,31,1,33,1,35,1,37,1,39,1;                                         3P      3
510,171,1,1,41;                                                        5P      4
510,173,1,1,43;                                                        7P      5
510,175,1,1,45;                                                        9P      6
510,177,1,1,47;                                                       11P      7
510,179,1,1,49;                                                       13P      8
510,181,1,1,51;                                                       15P      9
510,183,2,1,53,55;                                                    17P     10
510,185,1,1,57;                                                       19P     11
510,187,2,1,59,61;                                                    21P     12
510,189,1,1,63;                                                       23P     13
510,191,1,1,65;                                                       25P     14
510,193,1,1,67;                                                       27P     15
510,195,1,1,69;                                                       29P     16
510,197,1,1,71;                                                       31P     17
510,199,1,1,73;                                                       33P     18
510,201,1,1,75;                                                       35P     19
510,203,2,1,77,79;                                                    37P     20
510,205,2,1,81,83;                                                    39P     21
508,4,0,209,1,0,0,0,209,2,1,0,0,209,3,1,0,0,209,4,0,0;                41P     22
508,4,0,209,5,0,0,0,209,6,1,0,0,209,7,1,0,0,209,2,0,0;                43P     23
508,4,0,209,8,0,0,0,209,9,1,0,0,209,10,1,0,0,209,6,0,0;               45P     24
508,4,0,209,11,0,0,0,209,12,1,0,0,209,13,1,0,0,209,9,0,0;             47P     25
508,4,0,209,14,0,0,0,209,15,1,0,0,209,16,1,0,0,209,12,0,0;            49P     26
508,4,0,209,17,0,0,0,209,4,1,0,0,209,18,1,0,0,209,15,0,0;             51P     27
508,6,0,209,18,0,0,0,209,3,0,0,0,209,7,0,0,0,209,10,0,0,0,209,        53P     28
13,0,0,0,209,16,0,0;                                                  53P     29
508,2,0,209,19,0,0,0,209,20,0,0;                                      55P     30
508,4,0,209,21,0,0,0,209,22,1,0,0,209,23,0,0,0,209,22,0,0;            57P     31
508,1,0,209,21,1,0;                                                   59P     32
508,6,0,209,1,1,0,0,209,17,1,0,0,209,14,1,0,0,209,11,1,0,0,209,       61P     33
8,1,0,0,209,5,1,0;                                                    61P     34
508,5,0,209,19,1,0,0,209,24,1,0,0,209,25,1,0,0,209,24,0,0,0,209,      63P     35
20,1,0;                                                               63P     36
508,4,0,209,26,1,0,0,209,27,1,0,0,209,28,0,0,0,209,29,0,0;            65P     37
508,4,0,209,30,1,0,0,209,29,1,0,0,209,31,0,0,0,209,32,0,0;            67P     38
508,4,0,209,33,1,0,0,209,32,1,0,0,209,34,0,0,0,209,35,0,0;            69P     39
508,4,0,209,36,1,0,0,209,35,1,0,0,209,37,0,0,0,209,38,0,0;            71P     40
508,4,0,209,39,1,0,0,209,38,1,0,0,209,40,0,0,0,209,41,0,0;            73P     41
508,4,0,209,42,1,0,0,209,41,1,0,0,209,43,0,0,0,209,27,0,0;            75P     42
508,6,0,209,43,1,0,0,209,40,1,0,0,209,37,1,0,0,209,34,1,0,0,209,      77P     43
31,1,0,0,209,28,1,0;                                                  77P     44
508,1,0,209,23,1,0;                                                   79P     45
508,6,0,209,42,0,0,0,209,26,0,0,0,209,30,0,0,0,209,33,0,0,0,209,      81P     46
36,0,0,0,209,39,0,0;                                                  81P     47
508,1,0,209,25,0,0;                                                   83P     48
126,1,1,0,0,1,0,-0.101036297108185,-0.101036297108185,                85P     49
0.303108891324553,0.303108891324553,1.,1.,-4.04145188432738,          85P     50
4.44089209850063D-15,18.,-2.02072594216369,3.5,18.,                   85P     51
-0.101036297108185,0.303108891324553,0.,0.,0.;                        85P     52
126,1,1,0,0,1,0,0.,0.,1.,1.,1.,1.,-4.04145188432738,                  87P     53
4.16333634234434D-15,18.,-4.04145188432738,4.16333634234434D-15,      87P     54
8.,0.,1.,0.,0.,0.;                                                    87P     55
126,1,1,0,0,1,0,-0.404145188432738,-0.404145188432738,0.,0.,1.,       89P     56
1.,-4.04145188432738,3.88578058618805D-15,8.,-2.02072594216369,       89P     57
3.5,8.,-0.404145188432738,0.,0.,0.,0.;                                89P     58
126,1,1,0,0,1,0,0.,0.,1.,1.,1.,1.,-2.02072594216369,3.5,18.,          91P     59
-2.02072594216369,3.5,8.,0.,1.,0.,0.,0.;                              91P     60
126,1,1,0,0,1,0,-0.101036297108185,-0.101036297108185,                93P     61
0.303108891324554,0.303108891324554,1.,1.,-2.02072594216369,          93P     62
-3.5,18.,-4.04145188432738,4.44089209850063D-15,18.,                  93P     63
-0.101036297108185,0.303108891324554,0.,0.,0.;                        93P     64
126,1,1,0,0,1,0,0.,0.,1.,1.,1.,1.,-2.02072594216369,-3.5,18.,         95P     65
-2.02072594216369,-3.5,8.,0.,1.,0.,0.,0.;                             95P     66
126,1,1,0,0,1,0,-0.404145188432738,-0.404145188432738,0.,0.,1.,       97P     67
1.,-2.02072594216369,-3.5,8.,-4.04145188432738,                       97P     68
4.16333634234434D-15,8.,-0.404145188432738,0.,0.,0.,0.;               97P     69
126,1,1,0,0,1,0,-0.101036297108184,-0.101036297108184,                99P     70
0.303108891324553,0.303108891324553,1.,1.,2.02072594216369,-3.5,      99P     71
18.,-2.02072594216369,-3.5,18.,-0.101036297108184,                    99P     72
0.303108891324553,0.,0.,0.;                                           99P     73
126,1,1,0,0,1,0,0.,0.,1.,1.,1.,1.,2.02072594216369,-3.5,18.,         101P     74
2.02072594216369,-3.5,8.,0.,1.,0.,0.,0.;                             101P     75
126,1,1,0,0,1,0,-0.404145188432738,-0.404145188432738,0.,0.,1.,      103P     76
1.,2.02072594216369,-3.5,8.,-2.02072594216369,-3.5,8.,               103P     77
-0.404145188432738,0.,0.,0.,0.;                                      103P     78
126,1,1,0,0,1,0,-0.101036297108185,-0.101036297108185,               105P     79
0.303108891324553,0.303108891324553,1.,1.,4.04145188432738,          105P     80
-3.60822483003176D-15,18.,2.02072594216369,-3.5,18.,                 105P     81
-0.101036297108185,0.303108891324553,0.,0.,0.;                       105P     82
126,1,1,0,0,1,0,0.,0.,1.,1.,1.,1.,4.04145188432738,                  107P     83
-3.46944695195361D-15,18.,4.04145188432738,                          107P     84
-3.46944695195361D-15,8.,0.,1.,0.,0.,0.;                             107P     85
126,1,1,0,0,1,0,-0.404145188432738,-0.404145188432738,0.,0.,1.,      109P     86
1.,4.04145188432738,-3.88578058618805D-15,8.,2.02072594216369,       109P     87
-3.5,8.,-0.404145188432738,0.,0.,0.,0.;                              109P     88
126,1,1,0,0,1,0,-0.101036297108185,-0.101036297108185,               111P     89
0.303108891324553,0.303108891324553,1.,1.,2.02072594216369,3.5,      111P     90
18.,4.04145188432738,-3.33066907387547D-15,18.,                      111P     91
-0.101036297108185,0.303108891324553,0.,0.,0.;                       111P     92
126,1,1,0,0,1,0,0.,0.,1.,1.,1.,1.,2.0207259421637,3.5,18.,           113P     93
2.0207259421637,3.5,8.,0.,1.,0.,0.,0.;                               113P     94
126,1,1,0,0,1,0,-0.404145188432738,-0.404145188432738,0.,0.,1.,      115P     95
1.,2.0207259421637,3.5,8.,4.04145188432738,                          115P     96
-3.46944695195361D-15,8.,-0.404145188432738,0.,0.,0.,0.;             115P     97
126,1,1,0,0,1,0,-0.101036297108184,-0.101036297108184,               117P     98
0.303108891324554,0.303108891324554,1.,1.,-2.02072594216369,3.5,     117P     99
18.,2.02072594216369,3.5,18.,-0.101036297108184,                     117P    100
0.303108891324554,0.,0.,0.;                                          117P    101
126,1,1,0,0,1,0,-0.404145188432738,-0.404145188432738,0.,0.,1.,      119P    102
1.,-2.02072594216369,3.5,8.,2.0207259421637,3.5,8.,                  119P    103
-0.404145188432738,0.,0.,0.,0.;                                      119P    104
126,4,2,0,0,0,0,1.22464679914735D-16,1.22464679914735D-16,           121P    105
1.22464679914735D-16,1.5707963267949,1.5707963267949,                121P    106
3.14159265358979,3.14159265358979,3.14159265358979,1.,               121P    107
0.707106781186548,1.,0.707106781186548,1.,2.1,                       121P    108
2.57175827820944D-16,8.,2.1,2.1,8.,1.28587913910472D-16,2.1,8.,      121P    109
-2.1,2.1,8.,-2.1,2.57175827820944D-16,8.,1.22464679914735D-16,       121P    110
3.14159265358979,0.,0.,0.;                                           121P    111
126,4,2,0,0,0,0,3.14159265358979,3.14159265358979,                   123P    112
3.14159265358979,4.71238898038469,4.71238898038469,                  123P    113
6.28318530717959,6.28318530717959,6.28318530717959,1.,               123P    114
0.707106781186548,1.,0.707106781186547,1.,-2.1,                      123P    115
2.57175827820944D-16,8.,-2.1,-2.1,8.,-3.85763741731416D-16,-2.1,     123P    116
8.,2.1,-2.1,8.,2.1,-5.14351655641888D-16,8.,3.14159265358979,        123P    117
6.28318530717959,0.,0.,0.;                                           123P    118
126,8,2,0,1,0,0,-3.14159265358979,-3.14159265358979,                 125P    119
-3.14159265358979,-1.5707963267949,-1.5707963267949,0.,0.,           125P    120
1.5707963267949,1.5707963267949,3.14159265358979,                    125P    121
3.14159265358979,3.14159265358979,1.,0.707106781186548,1.,           125P    122
0.707106781186548,1.,0.707106781186548,1.,0.707106781186548,1.,      125P    123
5.9,7.22541611496939D-16,18.,5.9,5.9,18.,-3.61270805748469D-16,      125P    124
5.9,18.,-5.9,5.9,18.,-5.9,0.,18.,-5.9,-5.9,18.,                      125P    125
-3.61270805748469D-16,-5.9,18.,5.9,-5.9,18.,5.9,                     125P    126
-7.22541611496939D-16,18.,-3.14159265358979,3.14159265358979,0.,     125P    127
0.,0.;                                                               125P    128
126,1,1,0,0,1,0,-2.71186440677966,-2.71186440677966,0.,0.,1.,1.,     127P    129
5.9,0.,18.,5.9,0.,2.,-2.71186440677966,0.,0.,0.,0.;                  127P    130
126,8,2,0,1,0,0,-3.14159265358979,-3.14159265358979,                 129P    131
-3.14159265358979,-1.5707963267949,-1.5707963267949,0.,0.,           129P    132
1.5707963267949,1.5707963267949,3.14159265358979,                    129P    133
3.14159265358979,3.14159265358979,1.,0.707106781186548,1.,           129P    134
0.707106781186548,1.,0.707106781186548,1.,0.707106781186548,1.,      129P    135
5.9,-7.22541611496939D-16,2.,5.9,-5.9,2.,-3.61270805748469D-16,      129P    136
-5.9,2.,-5.9,-5.9,2.,-5.9,0.,2.,-5.9,5.9,2.,                         129P    137
-3.61270805748469D-16,5.9,2.,5.9,5.9,2.,5.9,                         129P    138
7.22541611496939D-16,2.,-3.14159265358979,3.14159265358979,0.,       129P    139
0.,0.;                                                               129P    140
126,1,1,0,0,1,0,-3.80952380952381,-3.80952380952381,0.,0.,1.,1.,     131P    141
-2.1,0.,8.,-2.1,0.,0.,-3.80952380952381,0.,0.,0.,0.;                 131P    142
126,8,2,0,1,0,0,-3.14159265358979,-3.14159265358979,                 133P    143
-3.14159265358979,-1.5707963267949,-1.5707963267949,0.,0.,           133P    144
1.5707963267949,1.5707963267949,3.14159265358979,                    133P    145
3.14159265358979,3.14159265358979,1.,0.707106781186548,1.,           133P    146
0.707106781186548,1.,0.707106781186548,1.,0.707106781186548,1.,      133P    147
-2.1,2.57175827820944D-16,0.,-2.1,2.1,0.,1.28587913910472D-16,       133P    148
2.1,0.,2.1,2.1,0.,2.1,0.,0.,2.1,-2.1,0.,1.28587913910472D-16,        133P    149
-2.1,0.,-2.1,-2.1,0.,-2.1,-2.57175827820944D-16,0.,                  133P    150
-3.14159265358979,3.14159265358979,0.,0.,0.;                         133P    151
126,1,1,0,0,1,0,0.,0.,1.12005952222787,1.12005952222787,1.,1.,       135P    152
11.2005952222787,6.63098048692135D-15,0.,5.60029761113939,9.7,       135P    153
0.,0.,1.12005952222787,0.,0.,0.;                                     135P    154
126,1,1,0,0,1,0,0.,0.,0.2,0.2,1.,1.,5.60029761113939,9.7,0.,         137P    155
5.60029761113939,9.7,2.,0.,0.2,0.,0.,0.;                             137P    156
126,1,1,0,0,1,0,0.,0.,1.12005952222787,1.12005952222787,1.,1.,       139P    157
11.2005952222787,6.63098048692135D-15,2.,5.60029761113939,9.7,       139P    158
2.,0.,1.12005952222787,0.,0.,0.;                                     139P    159
126,1,1,0,0,1,0,0.,0.,0.2,0.2,1.,1.,11.2005952222787,                141P    160
6.63098048692135D-15,0.,11.2005952222787,6.63098048692135D-15,       141P    161
2.,0.,0.2,0.,0.,0.;                                                  141P    162
126,1,1,0,0,1,0,0.,0.,1.12005952222788,1.12005952222788,1.,1.,       143P    163
5.60029761113936,-9.70000000000001,0.,11.2005952222787,              143P    164
6.66133814775094D-15,0.,0.,1.12005952222788,0.,0.,0.;                143P    165
126,1,1,0,0,1,0,0.,0.,1.12005952222788,1.12005952222788,1.,1.,       145P    166
5.60029761113936,-9.70000000000001,2.,11.2005952222787,              145P    167
6.66133814775094D-15,2.,0.,1.12005952222788,0.,0.,0.;                145P    168
126,1,1,0,0,1,0,0.,0.,0.2,0.2,1.,1.,5.60029761113936,                147P    169
-9.70000000000001,0.,5.60029761113936,-9.70000000000001,2.,0.,       147P    170
0.2,0.,0.,0.;                                                        147P    171
126,1,1,0,0,1,0,0.,0.,1.12005952222787,1.12005952222787,1.,1.,       149P    172
-5.60029761113938,-9.7,0.,5.60029761113936,-9.70000000000001,0.,     149P    173
0.,1.12005952222787,0.,0.,0.;                                        149P    174
126,1,1,0,0,1,0,0.,0.,1.12005952222787,1.12005952222787,1.,1.,       151P    175
-5.60029761113938,-9.7,2.,5.60029761113936,-9.70000000000001,2.,     151P    176
0.,1.12005952222787,0.,0.,0.;                                        151P    177
126,1,1,0,0,1,0,0.,0.,0.2,0.2,1.,1.,-5.60029761113938,-9.7,0.,       153P    178
-5.60029761113938,-9.7,2.,0.,0.2,0.,0.,0.;                           153P    179
126,1,1,0,0,1,0,0.,0.,1.12005952222787,1.12005952222787,1.,1.,       155P    180
-11.2005952222787,-1.80628081936085D-14,0.,-5.60029761113938,        155P    181
-9.69999999999999,0.,0.,1.12005952222787,0.,0.,0.;                   155P    182
126,1,1,0,0,1,0,0.,0.,1.12005952222787,1.12005952222787,1.,1.,       157P    183
-11.2005952222787,-1.80628081936085D-14,2.,-5.60029761113938,        157P    184
-9.69999999999999,2.,0.,1.12005952222787,0.,0.,0.;                   157P    185
126,1,1,0,0,1,0,0.,0.,0.2,0.2,1.,1.,-11.2005952222787,               159P    186
-1.80628081936085D-14,0.,-11.2005952222787,                          159P    187
-1.80628081936085D-14,2.,0.,0.2,0.,0.,0.;                            159P    188
126,1,1,0,0,1,0,5.55111512312578D-17,5.55111512312578D-17,           161P    189
1.12005952222788,1.12005952222788,1.,1.,-5.60029761113936,9.7,       161P    190
0.,-11.2005952222787,-1.55431223447522D-14,0.,                       161P    191
5.55111512312578D-17,1.12005952222788,0.,0.,0.;                      161P    192
126,1,1,0,0,1,0,5.55111512312578D-17,5.55111512312578D-17,           163P    193
1.12005952222788,1.12005952222788,1.,1.,-5.60029761113936,9.7,       163P    194
2.,-11.2005952222787,-1.55431223447522D-14,2.,                       163P    195
5.55111512312578D-17,1.12005952222788,0.,0.,0.;                      163P    196
126,1,1,0,0,1,0,0.,0.,0.2,0.2,1.,1.,-5.60029761113936,9.7,0.,        165P    197
-5.60029761113936,9.7,2.,0.,0.2,0.,0.,0.;                            165P    198
126,1,1,0,0,1,0,0.,0.,1.12005952222788,1.12005952222788,1.,1.,       167P    199
5.60029761113939,9.7,0.,-5.60029761113936,9.7,0.,0.,                 167P    200
1.12005952222788,0.,0.,0.;                                           167P    201
126,1,1,0,0,1,0,0.,0.,1.12005952222788,1.12005952222788,1.,1.,       169P    202
5.60029761113939,9.7,2.,-5.60029761113936,9.7,2.,0.,                 169P    203
1.12005952222788,0.,0.,0.;                                           169P    204
128,1,1,1,1,0,0,1,0,0,-0.001,-0.001,0.405145188432738,               171P    205
0.405145188432738,-0.001,-0.001,1.001,1.001,1.,1.,1.,1.,             171P    206
-2.01572594216369,3.50866025403785,18.01,-4.04645188432738,          171P    207
-0.0086602540378405,18.01,-2.01572594216369,3.50866025403785,        171P    208
7.99,-4.04645188432738,-0.0086602540378405,7.99,-0.001,              171P    209
0.405145188432738,-0.001,1.001;                                      171P    210
128,1,1,1,1,0,0,1,0,0,-0.00100000000000008,-0.00100000000000008,     173P    211
0.405145188432738,0.405145188432738,-0.001,-0.001,1.001,1.001,       173P    212
1.,1.,1.,1.,-4.04645188432738,0.00866025403784942,18.01,             173P    213
-2.01572594216369,-3.50866025403784,18.01,-4.04645188432738,         173P    214
0.00866025403784942,7.99,-2.01572594216369,-3.50866025403784,        173P    215
7.99,-0.00100000000000008,0.405145188432738,-0.001,1.001;            173P    216
128,1,1,1,1,0,0,1,0,0,-0.00100000000000011,-0.00100000000000011,     175P    217
0.405145188432738,0.405145188432738,-0.001,-0.001,1.001,1.001,       175P    218
1.,1.,1.,1.,-2.03072594216369,-3.5,18.01,2.03072594216369,-3.5,      175P    219
18.01,-2.03072594216369,-3.5,7.99,2.03072594216369,-3.5,7.99,        175P    220
-0.00100000000000011,0.405145188432738,-0.001,1.001;                 175P    221
128,1,1,1,1,0,0,1,0,0,-0.00100000000000008,-0.00100000000000008,     177P    222
0.405145188432738,0.405145188432738,-0.001,-0.001,1.001,1.001,       177P    223
1.,1.,1.,1.,2.01572594216369,-3.50866025403785,18.01,                177P    224
4.04645188432738,0.00866025403784115,18.01,2.01572594216369,         177P    225
-3.50866025403785,7.99,4.04645188432738,0.00866025403784115,         177P    226
7.99,-0.00100000000000008,0.405145188432738,-0.001,1.001;            177P    227
128,1,1,1,1,0,0,1,0,0,-0.00100000000000006,-0.00100000000000006,     179P    228
0.405145188432738,0.405145188432738,-0.001,-0.001,1.001,1.001,       179P    229
1.,1.,1.,1.,4.04645188432738,-0.0086602540378472,18.01,              179P    230
2.01572594216369,3.50866025403784,18.01,4.04645188432738,            179P    231
-0.0086602540378472,7.99,2.01572594216369,3.50866025403784,7.99,     179P    232
-0.00100000000000006,0.405145188432738,-0.001,1.001;                 179P    233
128,1,1,1,1,0,0,1,0,0,-0.00100000000000003,-0.00100000000000003,     181P    234
0.405145188432738,0.405145188432738,-0.001,-0.001,1.001,1.001,       181P    235
1.,1.,1.,1.,2.03072594216369,3.5,18.01,-2.03072594216369,3.5,        181P    236
18.01,2.03072594216369,3.5,7.99,-2.03072594216369,3.5,7.99,          181P    237
-0.00100000000000003,0.405145188432738,-0.001,1.001;                 181P    238
128,1,1,1,1,0,0,1,0,0,-0.405145188432738,-0.405145188432738,         183P    239
0.405145188432738,0.405145188432738,-0.351,-0.351,0.351,0.351,       183P    240
1.,1.,1.,1.,4.05145188432738,3.51,8.,-4.05145188432738,3.51,8.,      183P    241
4.05145188432738,-3.51,8.,-4.05145188432738,-3.51,8.,                183P    242
-0.405145188432738,0.405145188432738,-0.351,0.351;                   183P    243
128,1,8,1,2,0,1,0,0,1,0.,0.,2.71186440677966,2.71186440677966,       185P    244
-3.14159265358979,-3.14159265358979,-3.14159265358979,               185P    245
-1.5707963267949,-1.5707963267949,0.,0.,1.5707963267949,             185P    246
1.5707963267949,3.14159265358979,3.14159265358979,                   185P    247
3.14159265358979,1.,1.,0.707106781186548,0.707106781186548,1.,       185P    248
1.,0.707106781186548,0.707106781186548,1.,1.,0.707106781186548,      185P    249
0.707106781186548,1.,1.,0.707106781186548,0.707106781186548,1.,      185P    250
1.,5.9,0.,18.,5.9,0.,2.,5.9,5.9,18.,5.9,5.9,2.,0.,5.9,18.,0.,        185P    251
5.9,2.,-5.9,5.9,18.,-5.9,5.9,2.,-5.9,0.,18.,-5.9,0.,2.,-5.9,         185P    252
-5.9,18.,-5.9,-5.9,2.,0.,-5.9,18.,0.,-5.9,2.,5.9,-5.9,18.,5.9,       185P    253
-5.9,2.,5.9,0.,18.,5.9,0.,2.,0.,2.71186440677966,                    185P    254
-3.14159265358979,3.14159265358979;                                  185P    255
128,1,1,1,1,0,0,1,0,0,-0.591,-0.591,0.591,0.591,-0.591,-0.591,       187P    256
0.591,0.591,1.,1.,1.,1.,5.91,5.91,18.,-5.91,5.91,18.,5.91,-5.91,     187P    257
18.,-5.91,-5.91,18.,-0.591,0.591,-0.591,0.591;                       187P    258
128,1,8,1,2,0,1,0,0,1,0.,0.,3.80952380952381,3.80952380952381,       189P    259
-3.14159265358979,-3.14159265358979,-3.14159265358979,               189P    260
-1.5707963267949,-1.5707963267949,0.,0.,1.5707963267949,             189P    261
1.5707963267949,3.14159265358979,3.14159265358979,                   189P    262
3.14159265358979,1.,1.,0.707106781186548,0.707106781186548,1.,       189P    263
1.,0.707106781186548,0.707106781186548,1.,1.,0.707106781186548,      189P    264
0.707106781186548,1.,1.,0.707106781186548,0.707106781186548,1.,      189P    265
1.,-2.1,0.,0.,-2.1,0.,8.,-2.1,-2.1,0.,-2.1,-2.1,8.,0.,-2.1,0.,       189P    266
0.,-2.1,8.,2.1,-2.1,0.,2.1,-2.1,8.,2.1,0.,0.,2.1,0.,8.,2.1,2.1,      189P    267
0.,2.1,2.1,8.,0.,2.1,0.,0.,2.1,8.,-2.1,2.1,0.,-2.1,2.1,8.,-2.1,      189P    268
0.,0.,-2.1,0.,8.,0.,3.80952380952381,-3.14159265358979,              189P    269
3.14159265358979;                                                    189P    270
128,1,1,1,1,0,0,1,0,0,-0.001,-0.001,1.12105952222787,                191P    271
1.12105952222787,-0.001,-0.001,0.201,0.201,1.,1.,1.,1.,              191P    272
11.2055952222787,-0.00866025403783776,-0.01,5.59529761113939,        191P    273
9.70866025403784,-0.01,11.2055952222787,-0.00866025403783776,        191P    274
2.01,5.59529761113939,9.70866025403784,2.01,-0.001,                  191P    275
1.12105952222787,-0.001,0.201;                                       191P    276
128,1,1,1,1,0,0,1,0,0,-0.001,-0.001,1.12105952222788,                193P    277
1.12105952222788,-0.001,-0.001,0.201,0.201,1.,1.,1.,1.,              193P    278
5.59529761113936,-9.70866025403785,-0.01,11.2055952222787,           193P    279
0.00866025403785109,-0.01,5.59529761113936,-9.70866025403785,        193P    280
2.01,11.2055952222787,0.00866025403785109,2.01,-0.001,               193P    281
1.12105952222788,-0.001,0.201;                                       193P    282
128,1,1,1,1,0,0,1,0,0,-0.001,-0.001,1.12105952222787,                195P    283
1.12105952222787,-0.001,-0.001,0.201,0.201,1.,1.,1.,1.,              195P    284
-5.61029761113938,-9.7,-0.01,5.61029761113936,-9.70000000000001,     195P    285
-0.01,-5.61029761113938,-9.7,2.01,5.61029761113936,                  195P    286
-9.70000000000001,2.01,-0.001,1.12105952222787,-0.001,0.201;         195P    287
128,1,1,1,1,0,0,1,0,0,-0.001,-0.001,1.12105952222787,                197P    288
1.12105952222787,-0.001,-0.001,0.201,0.201,1.,1.,1.,1.,              197P    289
-11.2055952222787,0.00866025403782632,-0.01,-5.59529761113938,       197P    290
-9.70866025403784,-0.01,-11.2055952222787,0.00866025403782632,       197P    291
2.01,-5.59529761113938,-9.70866025403784,2.01,-0.001,                197P    292
1.12105952222787,-0.001,0.201;                                       197P    293
128,1,1,1,1,0,0,1,0,0,-0.001,-0.001,1.12105952222788,                199P    294
1.12105952222788,-0.001,-0.001,0.201,0.201,1.,1.,1.,1.,              199P    295
-5.59529761113936,9.70866025403785,-0.01,-11.2055952222787,          199P    296
-0.00866025403786108,-0.01,-5.59529761113936,9.70866025403785,       199P    297
2.01,-11.2055952222787,-0.00866025403786108,2.01,-0.001,             199P    298
1.12105952222788,-0.001,0.201;                                       199P    299
128,1,1,1,1,0,0,1,0,0,-0.001,-0.001,1.12105952222787,                201P    300
1.12105952222787,-0.001,-0.001,0.201,0.201,1.,1.,1.,1.,              201P    301
5.61029761113939,9.7,-0.01,-5.61029761113936,9.7,-0.01,              201P    302
5.61029761113939,9.7,2.01,-5.61029761113936,9.7,2.01,-0.001,         201P    303
1.12105952222787,-0.001,0.201;                                       201P    304
128,1,1,1,1,0,0,1,0,0,-1.12105952222787,-1.12105952222787,           203P    305
1.12105952222787,1.12105952222787,-0.971000000000001,                203P    306
-0.971000000000001,0.971000000000001,0.971000000000001,1.,1.,1.,     203P    307
1.,-11.2105952222787,-9.71000000000001,2.,11.2105952222787,          203P    308
-9.71000000000001,2.,-11.2105952222787,9.71,2.,11.2105952222787,     203P    309
9.71,2.,-1.12105952222787,1.12105952222787,-0.971000000000001,       203P    310
0.971000000000001;                                                   203P    311
128,1,1,1,1,0,0,1,0,0,-1.12105952222787,-1.12105952222787,           205P    312
1.12105952222787,1.12105952222787,-0.971000000000001,                205P    313
-0.971000000000001,0.971000000000001,0.971000000000001,1.,1.,1.,     205P    314
1.,11.2105952222787,-9.71000000000001,0.,-11.2105952222787,          205P    315
-9.71000000000001,0.,11.2105952222787,9.71,0.,-11.2105952222787,     205P    316
9.71,0.,-1.12105952222787,1.12105952222787,-0.971000000000001,       205P    317
0.971000000000001;                                                   205P    318
502,29,-4.04145188432738,4.16333634234434D-15,18.,                   207P    319
-2.02072594216369,3.5,18.,-4.04145188432738,                         207P    320
4.16333634234434D-15,8.,-2.02072594216369,3.5,8.,                    207P    321
-2.02072594216369,-3.5,18.,-2.02072594216369,-3.5,8.,                207P    322
2.02072594216369,-3.5,18.,2.02072594216369,-3.5,8.,                  207P    323
4.04145188432738,-3.46944695195361D-15,18.,4.04145188432738,         207P    324
-3.46944695195361D-15,8.,2.0207259421637,3.5,18.,                    207P    325
2.0207259421637,3.5,8.,2.1,2.57175827820944D-16,8.,-2.1,0.,8.,       207P    326
5.9,7.22541611496939D-16,18.,5.9,7.22541611496939D-16,2.,-2.1,       207P    327
-2.57175827820944D-16,0.,11.2005952222787,6.63098048692135D-15,      207P    328
0.,5.60029761113939,9.7,0.,5.60029761113939,9.7,2.,                  207P    329
11.2005952222787,6.63098048692135D-15,2.,5.60029761113936,           207P    330
-9.70000000000001,0.,5.60029761113936,-9.70000000000001,2.,          207P    331
-5.60029761113938,-9.7,0.,-5.60029761113938,-9.7,2.,                 207P    332
-11.2005952222787,-1.80628081936085D-14,0.,-11.2005952222787,        207P    333
-1.80628081936085D-14,2.,-5.60029761113936,9.7,0.,                   207P    334
-5.60029761113936,9.7,2.;                                            207P    335
504,43,85,207,1,207,2,87,207,1,207,3,89,207,3,207,4,91,207,2,        209P    336
207,4,93,207,5,207,1,95,207,5,207,6,97,207,6,207,3,99,207,7,207,     209P    337
5,101,207,7,207,8,103,207,8,207,6,105,207,9,207,7,107,207,9,207,     209P    338
10,109,207,10,207,8,111,207,11,207,9,113,207,11,207,12,115,207,      209P    339
12,207,10,117,207,2,207,11,119,207,4,207,12,121,207,13,207,14,       209P    340
123,207,14,207,13,125,207,15,207,15,127,207,15,207,16,129,207,       209P    341
16,207,16,131,207,14,207,17,133,207,17,207,17,135,207,18,207,19,     209P    342
137,207,19,207,20,139,207,21,207,20,141,207,18,207,21,143,207,       209P    343
22,207,18,145,207,23,207,21,147,207,22,207,23,149,207,24,207,22,     209P    344
151,207,25,207,23,153,207,24,207,25,155,207,26,207,24,157,207,       209P    345
27,207,25,159,207,26,207,27,161,207,28,207,26,163,207,29,207,27,     209P    346
165,207,28,207,29,167,207,19,207,28,169,207,20,207,29;               209P    347
406,1,4HAxe1;                                                        211P    348
314,76.8627450980392,20.7843137254902,15.2941176470588,27HPaint      213P    349
- Enamel Glossy (Red);                                               213P    350
314,62.7450980392157,62.7450980392157,62.7450980392157,13HSteel      215P    351
- Satin;                                                             215P    352
S      1G      3D    216P    352                                        T      1
