                                                                        S      1
,,20HTest arbre moteur v3,20HTest arbre moteur v3,7Hunknown,7Hunknown,  G      1
32,38,7,99,15,,1.,2,2HMM,1,0.08,15H20201205.181816,0.01,10000.,7HunknownG      2
,7Hunknown,11,0,15H20191128.171347;                                     G      3
     186       1                                                00000000D      1
     186             -67       1       0                               0D      2
     514       2                                                00010000D      3
     514                       1       1                               0D      4
     510       3                                                00010000D      5
     510             -67       1       1                               0D      6
     510       4                                                00010000D      7
     510             -67       1       1                               0D      8
     510       5                                                00010000D      9
     510             -67       1       1                               0D     10
     510       6                                                00010000D     11
     510             -67       1       1                               0D     12
     510       7                                                00010000D     13
     510             -67       1       1                               0D     14
     510       8                                                00010000D     15
     510             -67       1       1                               0D     16
     508       9                                                00010000D     17
     508                       1       1                               0D     18
     508      10                                                00010000D     19
     508                       1       1                               0D     20
     508      11                                                00010000D     21
     508                       1       1                               0D     22
     508      12                                                00010000D     23
     508                       1       1                               0D     24
     508      13                                                00010000D     25
     508                       1       1                               0D     26
     508      14                                                00010000D     27
     508                       1       1                               0D     28
     508      15                                                00010000D     29
     508                       1       1                               0D     30
     126      16                                                00010000D     31
     126       0               4       0                               0D     32
     126      20                                                00010000D     33
     126       0               2       0                               0D     34
     126      22                                                00010000D     35
     126       0               3       0                               0D     36
     126      25                                                00010000D     37
     126       0               2       0                               0D     38
     126      27                                                00010000D     39
     126       0              12       0                               0D     40
     126      39                                                00010000D     41
     126       0              12       0                               0D     42
     126      51                                                00010000D     43
     126       0              10       0                               0D     44
     126      61                                                00010000D     45
     126       0               2       0                               0D     46
     126      63                                                00010000D     47
     126       0               9       0                               0D     48
     128      72                                                00010000D     49
     128       0     -67       5       0                               0D     50
     128      77                                                00010000D     51
     128       0     -67      19       0                               0D     52
     128      96                                                00010000D     53
     128       0     -67      12       0                               0D     54
     128     108                                                00010000D     55
     128       0     -67       3       0                               0D     56
     128     111                                                00010000D     57
     128       0     -67       3       0                               0D     58
     128     114                                                00010000D     59
     128       0     -67       5       0                               0D     60
     502     119                                                00010000D     61
     502                       3       1                               0D     62
     504     122                                                00010001D     63
     504                       2       1                               0D     64
     406     124                                                00000000D     65
     406                       1      15                               0D     66
     314     125                                                00000200D     67
     314                       2       0                               0D     68
186,3,1,0,0,1,65;                                                      1P      1
514,6,5,1,7,1,9,1,11,1,13,1,15,1;                                      3P      2
510,49,1,1,17;                                                         5P      3
510,51,1,1,19;                                                         7P      4
510,53,1,1,21;                                                         9P      5
510,55,2,1,23,25;                                                     11P      6
510,57,1,1,27;                                                        13P      7
510,59,1,1,29;                                                        15P      8
508,4,0,63,1,0,0,0,63,2,1,0,0,63,3,0,0,0,63,4,0,0;                    17P      9
508,4,0,63,5,0,0,0,63,4,1,0,0,63,6,0,0,0,63,2,0,0;                    19P     10
508,4,0,63,7,0,0,0,63,8,1,0,0,63,9,1,0,0,63,8,0,0;                    21P     11
508,1,0,63,7,1,0;                                                     23P     12
508,2,0,63,3,1,0,0,63,6,1,0;                                          25P     13
508,1,0,63,9,0,0;                                                     27P     14
508,2,0,63,1,1,0,0,63,5,1,0;                                          29P     15
126,1,1,0,0,1,0,-0.274954541697351,-0.274954541697351,                31P     16
0.0916515138991169,0.0916515138991169,1.,1.,-1.83303027798234,        31P     17
-2.5,0.5,1.83303027798234,-2.5,0.5,-0.274954541697351,                31P     18
0.0916515138991169,0.,0.,0.;                                          31P     19
126,1,1,0,0,1,0,0.05,0.05,1.,1.,1.,1.,-1.83303027798234,-2.5,         33P     20
0.5,-1.83303027798234,-2.5,10.,0.05,1.,0.,0.,0.;                      33P     21
126,1,1,0,0,1,0,-0.366606055596467,-0.366606055596467,0.,0.,1.,       35P     22
1.,1.83303027798234,-2.5,10.,-1.83303027798234,-2.5,10.,              35P     23
-0.366606055596467,0.,0.,0.,0.;                                       35P     24
126,1,1,0,0,1,0,0.05,0.05,1.,1.,1.,1.,1.83303027798234,-2.5,0.5,      37P     25
1.83303027798234,-2.5,10.,0.05,1.,0.,0.,0.;                           37P     26
126,8,2,0,0,0,0,-7.22131163295595,-7.22131163295595,                  39P     27
-7.22131163295595,-5.96685030667032,-5.96685030667032,                39P     28
-4.71238898038469,-4.71238898038469,-3.45792765409906,                39P     29
-3.45792765409906,-2.20346632781343,-2.20346632781343,                39P     30
-2.20346632781343,1.,0.809655948048035,1.,0.809655948048036,1.,       39P     31
0.809655948048037,1.,0.809655948048037,1.,1.83303027798234,-2.5,      39P     32
0.5,3.64523459364312,-1.17126984780141,0.5,2.94618397253125,          39P     33
0.964365076099296,0.5,2.24713335141937,3.1,0.5,                       39P     34
-5.69460761603519D-16,3.1,0.5,-2.24713335141937,3.1,0.5,              39P     35
-2.94618397253125,0.964365076099296,0.5,-3.64523459364312,            39P     36
-1.17126984780141,0.5,-1.83303027798234,-2.5,0.5,                     39P     37
-7.22131163295595,-2.20346632781343,0.,0.,0.;                         39P     38
126,8,2,0,0,0,0,-4.07971897936616,-4.07971897936616,                  41P     39
-4.07971897936616,-2.82525765308053,-2.82525765308053,                41P     40
-1.5707963267949,-1.5707963267949,-0.316335000509266,                 41P     41
-0.316335000509266,0.938126325776364,0.938126325776364,               41P     42
0.938126325776364,1.,0.809655948048036,1.,0.809655948048035,1.,       41P     43
0.809655948048036,1.,0.809655948048035,1.,-1.83303027798234,          41P     44
-2.5,10.,-3.64523459364312,-1.17126984780141,10.,                     41P     45
-2.94618397253125,0.964365076099296,10.,-2.24713335141937,3.1,        41P     46
10.,-4.98518021399757D-16,3.1,10.,2.24713335141937,3.1,10.,           41P     47
2.94618397253125,0.964365076099296,10.,3.64523459364312,              41P     48
-1.17126984780141,10.,1.83303027798234,-2.5,10.,                      41P     49
-4.07971897936616,0.938126325776364,0.,0.,0.;                         41P     50
126,8,2,0,1,0,0,-3.14159265358979,-3.14159265358979,                  43P     51
-3.14159265358979,-1.5707963267949,-1.5707963267949,0.,0.,            43P     52
1.5707963267949,1.5707963267949,3.14159265358979,                     43P     53
3.14159265358979,3.14159265358979,1.,0.707106781186548,1.,            43P     54
0.707106781186548,1.,0.707106781186548,1.,0.707106781186548,1.,       43P     55
-7.5,-9.18485099360515D-16,10.,-7.5,-7.5,10.,                         43P     56
4.59242549680257D-16,-7.5,10.,7.5,-7.5,10.,7.5,0.,10.,7.5,7.5,        43P     57
10.,4.59242549680257D-16,7.5,10.,-7.5,7.5,10.,-7.5,                   43P     58
9.18485099360515D-16,10.,-3.14159265358979,3.14159265358979,0.,       43P     59
0.,0.;                                                                43P     60
126,1,1,0,0,1,0,-1.33333333333333,-1.33333333333333,0.,0.,1.,1.,      45P     61
-7.5,0.,10.,-7.5,0.,0.,-1.33333333333333,0.,0.,0.,0.;                 45P     62
126,8,2,0,1,0,0,-3.14159265358979,-3.14159265358979,                  47P     63
-3.14159265358979,-1.5707963267949,-1.5707963267949,0.,0.,            47P     64
1.5707963267949,1.5707963267949,3.14159265358979,                     47P     65
3.14159265358979,3.14159265358979,1.,0.707106781186548,1.,            47P     66
0.707106781186548,1.,0.707106781186548,1.,0.707106781186548,1.,       47P     67
-7.5,-9.18485099360515D-16,0.,-7.5,-7.5,0.,4.59242549680257D-16,      47P     68
-7.5,0.,7.5,-7.5,0.,7.5,0.,0.,7.5,7.5,0.,4.59242549680257D-16,        47P     69
7.5,0.,-7.5,7.5,0.,-7.5,9.18485099360515D-16,0.,                      47P     70
-3.14159265358979,3.14159265358979,0.,0.,0.;                          47P     71
128,1,1,1,1,0,0,1,0,0,-0.001,-0.001,0.367606055596467,                49P     72
0.367606055596467,0.049,0.049,1.001,1.001,1.,1.,1.,1.,                49P     73
1.84303027798234,-2.5,0.49,-1.84303027798234,-2.5,0.49,               49P     74
1.84303027798234,-2.5,10.01,-1.84303027798234,-2.5,10.01,-0.001,      49P     75
0.367606055596467,0.049,1.001;                                        49P     76
128,1,8,1,2,0,0,0,0,0,0.161290322580645,0.161290322580645,            51P     77
3.2258064516129,3.2258064516129,-0.938126325776364,                   51P     78
-0.938126325776364,-0.938126325776364,0.316335000509266,              51P     79
0.316335000509266,1.5707963267949,1.5707963267949,                    51P     80
2.82525765308053,2.82525765308053,4.07971897936616,                   51P     81
4.07971897936616,4.07971897936616,1.,1.,0.809655948048036,            51P     82
0.809655948048036,1.,1.,0.809655948048036,0.809655948048036,1.,       51P     83
1.,0.809655948048036,0.809655948048036,1.,1.,0.809655948048036,       51P     84
0.809655948048036,1.,1.,1.83303027798234,-2.5,0.5,                    51P     85
1.83303027798234,-2.5,10.,3.64523459364312,-1.17126984780141,         51P     86
0.5,3.64523459364312,-1.17126984780141,10.,2.94618397253125,          51P     87
0.964365076099297,0.5,2.94618397253125,0.964365076099297,10.,         51P     88
2.24713335141937,3.1,0.5,2.24713335141937,3.1,10.,0.,3.1,0.5,0.,      51P     89
3.1,10.,-2.24713335141937,3.1,0.5,-2.24713335141937,3.1,10.,          51P     90
-2.94618397253125,0.964365076099294,0.5,-2.94618397253125,            51P     91
0.964365076099294,10.,-3.64523459364312,-1.17126984780141,0.5,        51P     92
-3.64523459364312,-1.17126984780141,10.,-1.83303027798234,-2.5,       51P     93
0.5,-1.83303027798234,-2.5,10.,0.161290322580645,                     51P     94
3.2258064516129,-0.938126325776364,4.07971897936616;                  51P     95
128,1,8,1,2,0,1,0,0,1,0.,0.,1.33333333333333,1.33333333333333,        53P     96
-3.14159265358979,-3.14159265358979,-3.14159265358979,                53P     97
-1.5707963267949,-1.5707963267949,0.,0.,1.5707963267949,              53P     98
1.5707963267949,3.14159265358979,3.14159265358979,                    53P     99
3.14159265358979,1.,1.,0.707106781186548,0.707106781186548,1.,        53P    100
1.,0.707106781186548,0.707106781186548,1.,1.,0.707106781186548,       53P    101
0.707106781186548,1.,1.,0.707106781186548,0.707106781186548,1.,       53P    102
1.,-7.5,0.,10.,-7.5,0.,0.,-7.5,-7.5,10.,-7.5,-7.5,0.,0.,-7.5,         53P    103
10.,0.,-7.5,0.,7.5,-7.5,10.,7.5,-7.5,0.,7.5,0.,10.,7.5,0.,0.,         53P    104
7.5,7.5,10.,7.5,7.5,0.,0.,7.5,10.,0.,7.5,0.,-7.5,7.5,10.,-7.5,        53P    105
7.5,0.,-7.5,0.,10.,-7.5,0.,0.,0.,1.33333333333333,                    53P    106
-3.14159265358979,3.14159265358979;                                   53P    107
128,1,1,1,1,0,0,1,0,0,-0.751,-0.751,0.751,0.751,-0.751,-0.751,        55P    108
0.751,0.751,1.,1.,1.,1.,-7.51,-7.51,10.,7.51,-7.51,10.,-7.51,         55P    109
7.51,10.,7.51,7.51,10.,-0.751,0.751,-0.751,0.751;                     55P    110
128,1,1,1,1,0,0,1,0,0,-0.751,-0.751,0.751,0.751,-0.751,-0.751,        57P    111
0.751,0.751,1.,1.,1.,1.,7.51,-7.51,0.,-7.51,-7.51,0.,7.51,7.51,       57P    112
0.,-7.51,7.51,0.,-0.751,0.751,-0.751,0.751;                           57P    113
128,1,1,1,1,0,0,1,0,0,-0.365523459364312,-0.365523459364312,          59P    114
0.365523459364312,0.365523459364312,-0.251,-0.251,0.311,0.311,        59P    115
1.,1.,1.,1.,-3.65523459364312,-2.51,0.5,3.65523459364312,-2.51,       59P    116
0.5,-3.65523459364312,3.11,0.5,3.65523459364312,3.11,0.5,             59P    117
-0.365523459364312,0.365523459364312,-0.251,0.311;                    59P    118
502,6,-1.83303027798234,-2.5,0.5,1.83303027798234,-2.5,0.5,           61P    119
-1.83303027798234,-2.5,10.,1.83303027798234,-2.5,10.,-7.5,            61P    120
-8.32667268468867D-16,10.,-7.5,-9.18485099360515D-16,0.;              61P    121
504,9,31,61,1,61,2,33,61,1,61,3,35,61,4,61,3,37,61,2,61,4,39,61,      63P    122
2,61,1,41,61,3,61,4,43,61,5,61,5,45,61,5,61,6,47,61,6,61,6;           63P    123
406,1,5HBody1;                                                        65P    124
314,62.7450980392157,62.7450980392157,62.7450980392157,13HSteel       67P    125
- Satin;                                                              67P    126
S      1G      3D     68P    126                                        T      1
