                                                                        S      1
,,9HAxe 1 v13,9HAxe 1 v13,7Hunknown,7Hunknown,32,38,7,99,15,,1.,2,2HMM, G      1
1,0.08,15H20201205.181637,0.01,10000.,7Hunknown,7Hunknown,11,0,15H202010G      2
28.132421;                                                              G      3
     186       1                                                00000000D      1
     186            -213       1       0                               0D      2
     514       2                                                00010000D      3
     514                       2       1                               0D      4
     510       4                                                00010000D      5
     510            -213       1       1                               0D      6
     510       5                                                00010000D      7
     510            -213       1       1                               0D      8
     510       6                                                00010000D      9
     510            -213       1       1                               0D     10
     510       7                                                00010000D     11
     510            -213       1       1                               0D     12
     510       8                                                00010000D     13
     510            -213       1       1                               0D     14
     510       9                                                00010000D     15
     510            -213       1       1                               0D     16
     510      10                                                00010000D     17
     510            -213       1       1                               0D     18
     510      11                                                00010000D     19
     510            -213       1       1                               0D     20
     510      12                                                00010000D     21
     510            -213       1       1                               0D     22
     510      13                                                00010000D     23
     510            -213       1       1                               0D     24
     510      14                                                00010000D     25
     510            -213       1       1                               0D     26
     510      15                                                00010000D     27
     510            -213       1       1                               0D     28
     510      16                                                00010000D     29
     510            -213       1       1                               0D     30
     510      17                                                00010000D     31
     510            -213       1       1                               0D     32
     510      18                                                00010000D     33
     510            -213       1       1                               0D     34
     510      19                                                00010000D     35
     510            -213       1       1                               0D     36
     510      20                                                00010000D     37
     510            -213       1       1                               0D     38
     510      21                                                00010000D     39
     510            -213       1       1                               0D     40
     508      22                                                00010000D     41
     508                       1       1                               0D     42
     508      23                                                00010000D     43
     508                       1       1                               0D     44
     508      24                                                00010000D     45
     508                       1       1                               0D     46
     508      25                                                00010000D     47
     508                       1       1                               0D     48
     508      26                                                00010000D     49
     508                       1       1                               0D     50
     508      27                                                00010000D     51
     508                       1       1                               0D     52
     508      28                                                00010000D     53
     508                       2       1                               0D     54
     508      30                                                00010000D     55
     508                       1       1                               0D     56
     508      31                                                00010000D     57
     508                       1       1                               0D     58
     508      32                                                00010000D     59
     508                       1       1                               0D     60
     508      33                                                00010000D     61
     508                       2       1                               0D     62
     508      35                                                00010000D     63
     508                       2       1                               0D     64
     508      37                                                00010000D     65
     508                       1       1                               0D     66
     508      38                                                00010000D     67
     508                       1       1                               0D     68
     508      39                                                00010000D     69
     508                       1       1                               0D     70
     508      40                                                00010000D     71
     508                       1       1                               0D     72
     508      41                                                00010000D     73
     508                       1       1                               0D     74
     508      42                                                00010000D     75
     508                       1       1                               0D     76
     508      43                                                00010000D     77
     508                       2       1                               0D     78
     508      45                                                00010000D     79
     508                       1       1                               0D     80
     508      46                                                00010000D     81
     508                       2       1                               0D     82
     508      48                                                00010000D     83
     508                       1       1                               0D     84
     126      49                                                00010000D     85
     126       0               4       0                               0D     86
     126      53                                                00010000D     87
     126       0               3       0                               0D     88
     126      56                                                00010000D     89
     126       0               3       0                               0D     90
     126      59                                                00010000D     91
     126       0               2       0                               0D     92
     126      61                                                00010000D     93
     126       0               4       0                               0D     94
     126      65                                                00010000D     95
     126       0               2       0                               0D     96
     126      67                                                00010000D     97
     126       0               3       0                               0D     98
     126      70                                                00010000D     99
     126       0               4       0                               0D    100
     126      74                                                00010000D    101
     126       0               2       0                               0D    102
     126      76                                                00010000D    103
     126       0               3       0                               0D    104
     126      79                                                00010000D    105
     126       0               4       0                               0D    106
     126      83                                                00010000D    107
     126       0               3       0                               0D    108
     126      86                                                00010000D    109
     126       0               3       0                               0D    110
     126      89                                                00010000D    111
     126       0               4       0                               0D    112
     126      93                                                00010000D    113
     126       0               2       0                               0D    114
     126      95                                                00010000D    115
     126       0               3       0                               0D    116
     126      98                                                00010000D    117
     126       0               4       0                               0D    118
     126     102                                                00010000D    119
     126       0               3       0                               0D    120
     126     105                                                00010000D    121
     126       0               7       0                               0D    122
     126     112                                                00010000D    123
     126       0               7       0                               0D    124
     126     119                                                00010000D    125
     126       0              10       0                               0D    126
     126     129                                                00010000D    127
     126       0               2       0                               0D    128
     126     131                                                00010000D    129
     126       0              10       0                               0D    130
     126     141                                                00010000D    131
     126       0               2       0                               0D    132
     126     143                                                00010000D    133
     126       0              10       0                               0D    134
     126     153                                                00010000D    135
     126       0               3       0                               0D    136
     126     156                                                00010000D    137
     126       0               2       0                               0D    138
     126     158                                                00010000D    139
     126       0               3       0                               0D    140
     126     161                                                00010000D    141
     126       0               3       0                               0D    142
     126     164                                                00010000D    143
     126       0               3       0                               0D    144
     126     167                                                00010000D    145
     126       0               3       0                               0D    146
     126     170                                                00010000D    147
     126       0               2       0                               0D    148
     126     172                                                00010000D    149
     126       0               3       0                               0D    150
     126     175                                                00010000D    151
     126       0               3       0                               0D    152
     126     178                                                00010000D    153
     126       0               2       0                               0D    154
     126     180                                                00010000D    155
     126       0               3       0                               0D    156
     126     183                                                00010000D    157
     126       0               3       0                               0D    158
     126     186                                                00010000D    159
     126       0               3       0                               0D    160
     126     189                                                00010000D    161
     126       0               3       0                               0D    162
     126     192                                                00010000D    163
     126       0               3       0                               0D    164
     126     195                                                00010000D    165
     126       0               2       0                               0D    166
     126     197                                                00010000D    167
     126       0               3       0                               0D    168
     126     200                                                00010000D    169
     126       0               3       0                               0D    170
     128     203                                                00010000D    171
     128       0    -213       6       0                               0D    172
     128     209                                                00010000D    173
     128       0    -213       6       0                               0D    174
     128     215                                                00010000D    175
     128       0    -213       5       0                               0D    176
     128     220                                                00010000D    177
     128       0    -213       6       0                               0D    178
     128     226                                                00010000D    179
     128       0    -213       6       0                               0D    180
     128     232                                                00010000D    181
     128       0    -213       5       0                               0D    182
     128     237                                                00010000D    183
     128       0    -213       5       0                               0D    184
     128     242                                                00010000D    185
     128       0    -213      12       0                               0D    186
     128     254                                                00010000D    187
     128       0    -213       3       0                               0D    188
     128     257                                                00010000D    189
     128       0    -213      12       0                               0D    190
     128     269                                                00010000D    191
     128       0    -213       6       0                               0D    192
     128     275                                                00010000D    193
     128       0    -213       6       0                               0D    194
     128     281                                                00010000D    195
     128       0    -213       5       0                               0D    196
     128     286                                                00010000D    197
     128       0    -213       6       0                               0D    198
     128     292                                                00010000D    199
     128       0    -213       6       0                               0D    200
     128     298                                                00010000D    201
     128       0    -213       5       0                               0D    202
     128     303                                                00010000D    203
     128       0    -213       5       0                               0D    204
     128     308                                                00010000D    205
     128       0    -213       5       0                               0D    206
     502     313                                                00010000D    207
     502                      17       1                               0D    208
     504     330                                                00010001D    209
     504                      12       1                               0D    210
     406     342                                                00000000D    211
     406                       1      15                               0D    212
     314     343                                                00000200D    213
     314                       2       0                               0D    214
     314     345                                                00000200D    215
     314                       2       0                               0D    216
186,3,1,0,0,1,211;                                                     1P      1
514,18,5,1,7,1,9,1,11,1,13,1,15,1,17,1,19,1,21,1,23,1,25,1,27,1,       3P      2
29,1,31,1,33,1,35,1,37,1,39,1;                                         3P      3
510,171,1,1,41;                                                        5P      4
510,173,1,1,43;                                                        7P      5
510,175,1,1,45;                                                        9P      6
510,177,1,1,47;                                                       11P      7
510,179,1,1,49;                                                       13P      8
510,181,1,1,51;                                                       15P      9
510,183,2,1,53,55;                                                    17P     10
510,185,1,1,57;                                                       19P     11
510,187,2,1,59,61;                                                    21P     12
510,189,1,1,63;                                                       23P     13
510,191,1,1,65;                                                       25P     14
510,193,1,1,67;                                                       27P     15
510,195,1,1,69;                                                       29P     16
510,197,1,1,71;                                                       31P     17
510,199,1,1,73;                                                       33P     18
510,201,1,1,75;                                                       35P     19
510,203,2,1,77,79;                                                    37P     20
510,205,2,1,81,83;                                                    39P     21
508,4,0,209,1,0,0,0,209,2,1,0,0,209,3,1,0,0,209,4,0,0;                41P     22
508,4,0,209,5,0,0,0,209,6,1,0,0,209,7,1,0,0,209,2,0,0;                43P     23
508,4,0,209,8,0,0,0,209,9,1,0,0,209,10,1,0,0,209,6,0,0;               45P     24
508,4,0,209,11,0,0,0,209,12,1,0,0,209,13,1,0,0,209,9,0,0;             47P     25
508,4,0,209,14,0,0,0,209,15,1,0,0,209,16,1,0,0,209,12,0,0;            49P     26
508,4,0,209,17,0,0,0,209,4,1,0,0,209,18,1,0,0,209,15,0,0;             51P     27
508,6,0,209,18,0,0,0,209,3,0,0,0,209,7,0,0,0,209,10,0,0,0,209,        53P     28
13,0,0,0,209,16,0,0;                                                  53P     29
508,2,0,209,19,0,0,0,209,20,0,0;                                      55P     30
508,4,0,209,21,0,0,0,209,22,1,0,0,209,23,0,0,0,209,22,0,0;            57P     31
508,1,0,209,21,1,0;                                                   59P     32
508,6,0,209,1,1,0,0,209,17,1,0,0,209,14,1,0,0,209,11,1,0,0,209,       61P     33
8,1,0,0,209,5,1,0;                                                    61P     34
508,5,0,209,19,1,0,0,209,24,1,0,0,209,25,1,0,0,209,24,0,0,0,209,      63P     35
20,1,0;                                                               63P     36
508,4,0,209,26,1,0,0,209,27,1,0,0,209,28,0,0,0,209,29,0,0;            65P     37
508,4,0,209,30,1,0,0,209,29,1,0,0,209,31,0,0,0,209,32,0,0;            67P     38
508,4,0,209,33,1,0,0,209,32,1,0,0,209,34,0,0,0,209,35,0,0;            69P     39
508,4,0,209,36,1,0,0,209,35,1,0,0,209,37,0,0,0,209,38,0,0;            71P     40
508,4,0,209,39,1,0,0,209,38,1,0,0,209,40,0,0,0,209,41,0,0;            73P     41
508,4,0,209,42,1,0,0,209,41,1,0,0,209,43,0,0,0,209,27,0,0;            75P     42
508,6,0,209,43,1,0,0,209,40,1,0,0,209,37,1,0,0,209,34,1,0,0,209,      77P     43
31,1,0,0,209,28,1,0;                                                  77P     44
508,1,0,209,23,1,0;                                                   79P     45
508,6,0,209,42,0,0,0,209,26,0,0,0,209,30,0,0,0,209,33,0,0,0,209,      81P     46
36,0,0,0,209,39,0,0;                                                  81P     47
508,1,0,209,25,0,0;                                                   83P     48
126,1,1,0,0,1,0,-0.0981495457622365,-0.0981495457622365,              85P     49
0.294448637286709,0.294448637286709,1.,1.,-3.92598183048946,          85P     50
3.19189119579733D-15,19.,-1.96299091524473,3.4,19.,                   85P     51
-0.0981495457622365,0.294448637286709,0.,0.,0.;                       85P     52
126,1,1,0,0,1,0,0.,0.,1.,1.,1.,1.,-3.92598183048946,                  87P     53
3.41740524767431D-15,19.,-3.92598183048946,3.41740524767431D-15,      87P     54
9.,0.,1.,0.,0.,0.;                                                    87P     55
126,1,1,0,0,1,0,-0.392598183048946,-0.392598183048946,0.,0.,1.,       89P     56
1.,-3.92598183048946,3.33066907387547D-15,9.,-1.96299091524473,       89P     57
3.4,9.,-0.392598183048946,0.,0.,0.,0.;                                89P     58
126,1,1,0,0,1,0,0.,0.,1.,1.,1.,1.,-1.96299091524473,3.4,19.,          91P     59
-1.96299091524473,3.4,9.,0.,1.,0.,0.,0.;                              91P     60
126,1,1,0,0,1,0,-0.0981495457622363,-0.0981495457622363,              93P     61
0.294448637286709,0.294448637286709,1.,1.,-1.96299091524473,          93P     62
-3.4,19.,-3.92598183048946,3.88578058618805D-15,19.,                  93P     63
-0.0981495457622363,0.294448637286709,0.,0.,0.;                       93P     64
126,1,1,0,0,1,0,0.,0.,1.,1.,1.,1.,-1.96299091524473,-3.4,19.,         95P     65
-1.96299091524473,-3.4,9.,0.,1.,0.,0.,0.;                             95P     66
126,1,1,0,0,1,0,-0.392598183048946,-0.392598183048946,0.,0.,1.,       97P     67
1.,-1.96299091524473,-3.4,9.,-3.92598183048946,                       97P     68
3.41740524767431D-15,9.,-0.392598183048946,0.,0.,0.,0.;               97P     69
126,1,1,0,0,1,0,-0.0981495457622364,-0.0981495457622364,              99P     70
0.294448637286709,0.294448637286709,1.,1.,1.96299091524473,-3.4,      99P     71
19.,-1.96299091524473,-3.4,19.,-0.0981495457622364,                   99P     72
0.294448637286709,0.,0.,0.;                                           99P     73
126,1,1,0,0,1,0,0.,0.,1.,1.,1.,1.,1.96299091524473,-3.4,19.,         101P     74
1.96299091524473,-3.4,9.,0.,1.,0.,0.,0.;                             101P     75
126,1,1,0,0,1,0,-0.392598183048946,-0.392598183048946,0.,0.,1.,      103P     76
1.,1.96299091524473,-3.4,9.,-1.96299091524473,-3.4,9.,               103P     77
-0.392598183048946,0.,0.,0.,0.;                                      103P     78
126,1,1,0,0,1,0,-0.0981495457622364,-0.0981495457622364,             105P     79
0.294448637286709,0.294448637286709,1.,1.,3.92598183048946,          105P     80
-3.33066907387547D-15,19.,1.96299091524473,-3.4,19.,                 105P     81
-0.0981495457622364,0.294448637286709,0.,0.,0.;                      105P     82
126,1,1,0,0,1,0,0.,0.,1.,1.,1.,1.,3.92598183048946,                  107P     83
-3.50414142147315D-15,19.,3.92598183048946,                          107P     84
-3.50414142147315D-15,9.,0.,1.,0.,0.,0.;                             107P     85
126,1,1,0,0,1,0,-0.392598183048945,-0.392598183048945,0.,0.,1.,      109P     86
1.,3.92598183048946,-3.33066907387547D-15,9.,1.96299091524473,       109P     87
-3.4,9.,-0.392598183048945,0.,0.,0.,0.;                              109P     88
126,1,1,0,0,1,0,-0.0981495457622365,-0.0981495457622365,             111P     89
0.294448637286709,0.294448637286709,1.,1.,1.96299091524473,3.4,      111P     90
19.,3.92598183048946,-3.33066907387547D-15,19.,                      111P     91
-0.0981495457622365,0.294448637286709,0.,0.,0.;                      111P     92
126,1,1,0,0,1,0,0.,0.,1.,1.,1.,1.,1.96299091524473,3.4,19.,          113P     93
1.96299091524473,3.4,9.,0.,1.,0.,0.,0.;                              113P     94
126,1,1,0,0,1,0,-0.392598183048946,-0.392598183048946,0.,0.,1.,      115P     95
1.,1.96299091524473,3.4,9.,3.92598183048946,                         115P     96
-3.50414142147315D-15,9.,-0.392598183048946,0.,0.,0.,0.;             115P     97
126,1,1,0,0,1,0,-0.0981495457622363,-0.0981495457622363,             117P     98
0.294448637286709,0.294448637286709,1.,1.,-1.96299091524473,3.4,     117P     99
19.,1.96299091524473,3.4,19.,-0.0981495457622363,                    117P    100
0.294448637286709,0.,0.,0.;                                          117P    101
126,1,1,0,0,1,0,-0.392598183048946,-0.392598183048946,0.,0.,1.,      119P    102
1.,-1.96299091524473,3.4,9.,1.96299091524473,3.4,9.,                 119P    103
-0.392598183048946,0.,0.,0.,0.;                                      119P    104
126,4,2,0,0,0,0,1.22464679914735D-16,1.22464679914735D-16,           121P    105
1.22464679914735D-16,1.5707963267949,1.5707963267949,                121P    106
3.14159265358979,3.14159265358979,3.14159265358979,1.,               121P    107
0.707106781186548,1.,0.707106781186548,1.,1.75,                      121P    108
2.14313189850787D-16,9.,1.75,1.75,9.,1.07156594925393D-16,1.75,      121P    109
9.,-1.75,1.75,9.,-1.75,2.14313189850787D-16,9.,                      121P    110
1.22464679914735D-16,3.14159265358979,0.,0.,0.;                      121P    111
126,4,2,0,0,0,0,3.14159265358979,3.14159265358979,                   123P    112
3.14159265358979,4.71238898038469,4.71238898038469,                  123P    113
6.28318530717959,6.28318530717959,6.28318530717959,1.,               123P    114
0.707106781186548,1.,0.707106781186547,1.,-1.75,                     123P    115
2.14313189850787D-16,9.,-1.75,-1.75,9.,-3.2146978477618D-16,         123P    116
-1.75,9.,1.75,-1.75,9.,1.75,-4.28626379701574D-16,9.,                123P    117
3.14159265358979,6.28318530717959,0.,0.,0.;                          123P    118
126,8,2,0,1,0,0,-3.14159265358979,-3.14159265358979,                 125P    119
-3.14159265358979,-1.5707963267949,-1.5707963267949,0.,0.,           125P    120
1.5707963267949,1.5707963267949,3.14159265358979,                    125P    121
3.14159265358979,3.14159265358979,1.,0.707106781186548,1.,           125P    122
0.707106781186548,1.,0.707106781186548,1.,0.707106781186548,1.,      125P    123
5.9,7.22541611496939D-16,19.,5.9,5.9,19.,-3.61270805748469D-16,      125P    124
5.9,19.,-5.9,5.9,19.,-5.9,0.,19.,-5.9,-5.9,19.,                      125P    125
-3.61270805748469D-16,-5.9,19.,5.9,-5.9,19.,5.9,                     125P    126
-7.22541611496939D-16,19.,-3.14159265358979,3.14159265358979,0.,     125P    127
0.,0.;                                                               125P    128
126,1,1,0,0,1,0,-2.71186440677966,-2.71186440677966,0.,0.,1.,1.,     127P    129
5.9,0.,19.,5.9,0.,3.,-2.71186440677966,0.,0.,0.,0.;                  127P    130
126,8,2,0,1,0,0,-3.14159265358979,-3.14159265358979,                 129P    131
-3.14159265358979,-1.5707963267949,-1.5707963267949,0.,0.,           129P    132
1.5707963267949,1.5707963267949,3.14159265358979,                    129P    133
3.14159265358979,3.14159265358979,1.,0.707106781186548,1.,           129P    134
0.707106781186548,1.,0.707106781186548,1.,0.707106781186548,1.,      129P    135
5.9,-7.22541611496939D-16,3.,5.9,-5.9,3.,-3.61270805748469D-16,      129P    136
-5.9,3.,-5.9,-5.9,3.,-5.9,0.,3.,-5.9,5.9,3.,                         129P    137
-3.61270805748469D-16,5.9,3.,5.9,5.9,3.,5.9,                         129P    138
7.22541611496939D-16,3.,-3.14159265358979,3.14159265358979,0.,       129P    139
0.,0.;                                                               129P    140
126,1,1,0,0,1,0,-5.14285714285714,-5.14285714285714,0.,0.,1.,1.,     131P    141
-1.75,0.,9.,-1.75,0.,0.,-5.14285714285714,0.,0.,0.,0.;               131P    142
126,8,2,0,1,0,0,-3.14159265358979,-3.14159265358979,                 133P    143
-3.14159265358979,-1.5707963267949,-1.5707963267949,0.,0.,           133P    144
1.5707963267949,1.5707963267949,3.14159265358979,                    133P    145
3.14159265358979,3.14159265358979,1.,0.707106781186548,1.,           133P    146
0.707106781186548,1.,0.707106781186548,1.,0.707106781186548,1.,      133P    147
-1.75,2.14313189850787D-16,0.,-1.75,1.75,0.,                         133P    148
1.07156594925393D-16,1.75,0.,1.75,1.75,0.,1.75,0.,0.,1.75,-1.75,     133P    149
0.,1.07156594925393D-16,-1.75,0.,-1.75,-1.75,0.,-1.75,               133P    150
-2.14313189850787D-16,0.,-3.14159265358979,3.14159265358979,0.,      133P    151
0.,0.;                                                               133P    152
126,1,1,0,0,1,0,0.,0.,1.15470053837925,1.15470053837925,1.,1.,       135P    153
11.5470053837925,4.93095148046407D-15,0.,5.77350269189627,10.,       135P    154
0.,0.,1.15470053837925,0.,0.,0.;                                     135P    155
126,1,1,0,0,1,0,0.,0.,0.3,0.3,1.,1.,5.77350269189627,10.,0.,         137P    156
5.77350269189627,10.,3.,0.,0.3,0.,0.,0.;                             137P    157
126,1,1,0,0,1,0,0.,0.,1.15470053837925,1.15470053837925,1.,1.,       139P    158
11.5470053837925,4.93095148046407D-15,3.,5.77350269189627,10.,       139P    159
3.,0.,1.15470053837925,0.,0.,0.;                                     139P    160
126,1,1,0,0,1,0,0.,0.,0.3,0.3,1.,1.,11.5470053837925,                141P    161
4.93095148046407D-15,0.,11.5470053837925,4.93095148046407D-15,       141P    162
3.,0.,0.3,0.,0.,0.;                                                  141P    163
126,1,1,0,0,1,0,0.,0.,1.15470053837925,1.15470053837925,1.,1.,       143P    164
5.77350269189625,-10.,0.,11.5470053837925,4.44089209850063D-15,      143P    165
0.,0.,1.15470053837925,0.,0.,0.;                                     143P    166
126,1,1,0,0,1,0,0.,0.,1.15470053837925,1.15470053837925,1.,1.,       145P    167
5.77350269189625,-10.,3.,11.5470053837925,4.44089209850063D-15,      145P    168
3.,0.,1.15470053837925,0.,0.,0.;                                     145P    169
126,1,1,0,0,1,0,0.,0.,0.3,0.3,1.,1.,5.77350269189625,-10.,0.,        147P    170
5.77350269189625,-10.,3.,0.,0.3,0.,0.,0.;                            147P    171
126,1,1,0,0,1,0,0.,0.,1.15470053837925,1.15470053837925,1.,1.,       149P    172
-5.77350269189627,-10.,0.,5.77350269189625,-10.,0.,0.,               149P    173
1.15470053837925,0.,0.,0.;                                           149P    174
126,1,1,0,0,1,0,0.,0.,1.15470053837925,1.15470053837925,1.,1.,       151P    175
-5.77350269189627,-10.,3.,5.77350269189625,-10.,3.,0.,               151P    176
1.15470053837925,0.,0.,0.;                                           151P    177
126,1,1,0,0,1,0,0.,0.,0.3,0.3,1.,1.,-5.77350269189627,-10.,0.,       153P    178
-5.77350269189627,-10.,3.,0.,0.3,0.,0.,0.;                           153P    179
126,1,1,0,0,1,0,0.,0.,1.15470053837925,1.15470053837925,1.,1.,       155P    180
-11.5470053837925,-1.87913920535188D-14,0.,-5.77350269189627,        155P    181
-10.,0.,0.,1.15470053837925,0.,0.,0.;                                155P    182
126,1,1,0,0,1,0,0.,0.,1.15470053837925,1.15470053837925,1.,1.,       157P    183
-11.5470053837925,-1.87913920535188D-14,3.,-5.77350269189627,        157P    184
-10.,3.,0.,1.15470053837925,0.,0.,0.;                                157P    185
126,1,1,0,0,1,0,0.,0.,0.3,0.3,1.,1.,-11.5470053837925,               159P    186
-1.87913920535188D-14,0.,-11.5470053837925,                          159P    187
-1.87913920535188D-14,3.,0.,0.3,0.,0.,0.;                            159P    188
126,1,1,0,0,1,0,0.,0.,1.15470053837925,1.15470053837925,1.,1.,       161P    189
-5.77350269189625,10.,0.,-11.5470053837925,                          161P    190
-1.77635683940025D-14,0.,0.,1.15470053837925,0.,0.,0.;               161P    191
126,1,1,0,0,1,0,0.,0.,1.15470053837925,1.15470053837925,1.,1.,       163P    192
-5.77350269189625,10.,3.,-11.5470053837925,                          163P    193
-1.77635683940025D-14,3.,0.,1.15470053837925,0.,0.,0.;               163P    194
126,1,1,0,0,1,0,0.,0.,0.3,0.3,1.,1.,-5.77350269189625,10.,0.,        165P    195
-5.77350269189625,10.,3.,0.,0.3,0.,0.,0.;                            165P    196
126,1,1,0,0,1,0,0.,0.,1.15470053837925,1.15470053837925,1.,1.,       167P    197
5.77350269189627,10.,0.,-5.77350269189625,10.,0.,0.,                 167P    198
1.15470053837925,0.,0.,0.;                                           167P    199
126,1,1,0,0,1,0,0.,0.,1.15470053837925,1.15470053837925,1.,1.,       169P    200
5.77350269189627,10.,3.,-5.77350269189625,10.,3.,0.,                 169P    201
1.15470053837925,0.,0.,0.;                                           169P    202
128,1,1,1,1,0,0,1,0,0,-0.00100000000000002,-0.00100000000000002,     171P    203
0.393598183048946,0.393598183048946,-0.001,-0.001,1.001,1.001,       171P    204
1.,1.,1.,1.,-1.95799091524473,3.40866025403785,19.01,                171P    205
-3.93098183048946,-0.00866025403784121,19.01,-1.95799091524473,      171P    206
3.40866025403785,8.99,-3.93098183048946,-0.00866025403784121,        171P    207
8.99,-0.00100000000000002,0.393598183048946,-0.001,1.001;            171P    208
128,1,1,1,1,0,0,1,0,0,-0.001,-0.001,0.393598183048946,               173P    209
0.393598183048946,-0.001,-0.001,1.001,1.001,1.,1.,1.,1.,             173P    210
-3.93098183048946,0.00866025403784776,19.01,-1.95799091524473,       173P    211
-3.40866025403784,19.01,-3.93098183048946,0.00866025403784776,       173P    212
8.99,-1.95799091524473,-3.40866025403784,8.99,-0.001,                173P    213
0.393598183048946,-0.001,1.001;                                      173P    214
128,1,1,1,1,0,0,1,0,0,-0.001,-0.001,0.393598183048946,               175P    215
0.393598183048946,-0.001,-0.001,1.001,1.001,1.,1.,1.,1.,             175P    216
-1.97299091524473,-3.4,19.01,1.97299091524473,-3.4,19.01,            175P    217
-1.97299091524473,-3.4,8.99,1.97299091524473,-3.4,8.99,-0.001,       175P    218
0.393598183048946,-0.001,1.001;                                      175P    219
128,1,1,1,1,0,0,1,0,0,-0.00100000000000001,-0.00100000000000001,     177P    220
0.393598183048945,0.393598183048945,-0.001,-0.001,1.001,1.001,       177P    221
1.,1.,1.,1.,1.95799091524473,-3.40866025403785,19.01,                177P    222
3.93098183048946,0.00866025403784113,19.01,1.95799091524473,         177P    223
-3.40866025403785,8.99,3.93098183048946,0.00866025403784113,         177P    224
8.99,-0.00100000000000001,0.393598183048945,-0.001,1.001;            177P    225
128,1,1,1,1,0,0,1,0,0,-0.001,-0.001,0.393598183048946,               179P    226
0.393598183048946,-0.001,-0.001,1.001,1.001,1.,1.,1.,1.,             179P    227
3.93098183048946,-0.00866025403784831,19.01,1.95799091524473,        179P    228
3.40866025403784,19.01,3.93098183048946,-0.00866025403784831,        179P    229
8.99,1.95799091524473,3.40866025403784,8.99,-0.001,                  179P    230
0.393598183048946,-0.001,1.001;                                      179P    231
128,1,1,1,1,0,0,1,0,0,-0.001,-0.001,0.393598183048946,               181P    232
0.393598183048946,-0.001,-0.001,1.001,1.001,1.,1.,1.,1.,             181P    233
1.97299091524473,3.4,19.01,-1.97299091524473,3.4,19.01,              181P    234
1.97299091524473,3.4,8.99,-1.97299091524473,3.4,8.99,-0.001,         181P    235
0.393598183048946,-0.001,1.001;                                      181P    236
128,1,1,1,1,0,0,1,0,0,-0.393598183048946,-0.393598183048946,         183P    237
0.393598183048946,0.393598183048946,-0.341,-0.341,0.341,0.341,       183P    238
1.,1.,1.,1.,3.93598183048946,3.41,9.,-3.93598183048946,3.41,9.,      183P    239
3.93598183048946,-3.41,9.,-3.93598183048946,-3.41,9.,                183P    240
-0.393598183048946,0.393598183048946,-0.341,0.341;                   183P    241
128,1,8,1,2,0,1,0,0,1,0.,0.,2.71186440677966,2.71186440677966,       185P    242
-3.14159265358979,-3.14159265358979,-3.14159265358979,               185P    243
-1.5707963267949,-1.5707963267949,0.,0.,1.5707963267949,             185P    244
1.5707963267949,3.14159265358979,3.14159265358979,                   185P    245
3.14159265358979,1.,1.,0.707106781186548,0.707106781186548,1.,       185P    246
1.,0.707106781186548,0.707106781186548,1.,1.,0.707106781186548,      185P    247
0.707106781186548,1.,1.,0.707106781186548,0.707106781186548,1.,      185P    248
1.,5.9,0.,19.,5.9,0.,3.,5.9,5.9,19.,5.9,5.9,3.,0.,5.9,19.,0.,        185P    249
5.9,3.,-5.9,5.9,19.,-5.9,5.9,3.,-5.9,0.,19.,-5.9,0.,3.,-5.9,         185P    250
-5.9,19.,-5.9,-5.9,3.,0.,-5.9,19.,0.,-5.9,3.,5.9,-5.9,19.,5.9,       185P    251
-5.9,3.,5.9,0.,19.,5.9,0.,3.,0.,2.71186440677966,                    185P    252
-3.14159265358979,3.14159265358979;                                  185P    253
128,1,1,1,1,0,0,1,0,0,-0.591,-0.591,0.591,0.591,-0.591,-0.591,       187P    254
0.591,0.591,1.,1.,1.,1.,5.91,5.91,19.,-5.91,5.91,19.,5.91,-5.91,     187P    255
19.,-5.91,-5.91,19.,-0.591,0.591,-0.591,0.591;                       187P    256
128,1,8,1,2,0,1,0,0,1,0.,0.,5.14285714285714,5.14285714285714,       189P    257
-3.14159265358979,-3.14159265358979,-3.14159265358979,               189P    258
-1.5707963267949,-1.5707963267949,0.,0.,1.5707963267949,             189P    259
1.5707963267949,3.14159265358979,3.14159265358979,                   189P    260
3.14159265358979,1.,1.,0.707106781186548,0.707106781186548,1.,       189P    261
1.,0.707106781186548,0.707106781186548,1.,1.,0.707106781186548,      189P    262
0.707106781186548,1.,1.,0.707106781186548,0.707106781186548,1.,      189P    263
1.,-1.75,0.,0.,-1.75,0.,9.,-1.75,-1.75,0.,-1.75,-1.75,9.,0.,         189P    264
-1.75,0.,0.,-1.75,9.,1.75,-1.75,0.,1.75,-1.75,9.,1.75,0.,0.,         189P    265
1.75,0.,9.,1.75,1.75,0.,1.75,1.75,9.,0.,1.75,0.,0.,1.75,9.,          189P    266
-1.75,1.75,0.,-1.75,1.75,9.,-1.75,0.,0.,-1.75,0.,9.,0.,              189P    267
5.14285714285714,-3.14159265358979,3.14159265358979;                 189P    268
128,1,1,1,1,0,0,1,0,0,-0.001,-0.001,1.15570053837925,                191P    269
1.15570053837925,-0.001,-0.001,0.301,0.301,1.,1.,1.,1.,              191P    270
11.5520053837925,-0.00866025403783946,-0.01,5.76850269189627,        191P    271
10.0086602540378,-0.01,11.5520053837925,-0.00866025403783946,        191P    272
3.01,5.76850269189627,10.0086602540378,3.01,-0.001,                  191P    273
1.15570053837925,-0.001,0.301;                                       191P    274
128,1,1,1,1,0,0,1,0,0,-0.001,-0.001,1.15570053837925,                193P    275
1.15570053837925,-0.001,-0.001,0.301,0.301,1.,1.,1.,1.,              193P    276
5.76850269189625,-10.0086602540379,-0.01,11.5520053837925,           193P    277
0.00866025403784665,-0.01,5.76850269189625,-10.0086602540379,        193P    278
3.01,11.5520053837925,0.00866025403784665,3.01,-0.001,               193P    279
1.15570053837925,-0.001,0.301;                                       193P    280
128,1,1,1,1,0,0,1,0,0,-0.001,-0.001,1.15570053837925,                195P    281
1.15570053837925,-0.001,-0.001,0.301,0.301,1.,1.,1.,1.,              195P    282
-5.78350269189627,-10.,-0.01,5.78350269189625,-10.,-0.01,            195P    283
-5.78350269189627,-10.,3.01,5.78350269189625,-10.,3.01,-0.001,       195P    284
1.15570053837925,-0.001,0.301;                                       195P    285
128,1,1,1,1,0,0,1,0,0,-0.001,-0.001,1.15570053837925,                197P    286
1.15570053837925,-0.001,-0.001,0.301,0.301,1.,1.,1.,1.,              197P    287
-11.5520053837925,0.00866025403782559,-0.01,-5.76850269189627,       197P    288
-10.0086602540378,-0.01,-11.5520053837925,0.00866025403782559,       197P    289
3.01,-5.76850269189627,-10.0086602540378,3.01,-0.001,                197P    290
1.15570053837925,-0.001,0.301;                                       197P    291
128,1,1,1,1,0,0,1,0,0,-0.001,-0.001,1.15570053837925,                199P    292
1.15570053837925,-0.001,-0.001,0.301,0.301,1.,1.,1.,1.,              199P    293
-5.76850269189625,10.0086602540379,-0.01,-11.5520053837925,          199P    294
-0.00866025403786219,-0.01,-5.76850269189625,10.0086602540379,       199P    295
3.01,-11.5520053837925,-0.00866025403786219,3.01,-0.001,             199P    296
1.15570053837925,-0.001,0.301;                                       199P    297
128,1,1,1,1,0,0,1,0,0,-0.001,-0.001,1.15570053837925,                201P    298
1.15570053837925,-0.001,-0.001,0.301,0.301,1.,1.,1.,1.,              201P    299
5.78350269189627,10.,-0.01,-5.78350269189625,10.,-0.01,              201P    300
5.78350269189627,10.,3.01,-5.78350269189625,10.,3.01,-0.001,         201P    301
1.15570053837925,-0.001,0.301;                                       201P    302
128,1,1,1,1,0,0,1,0,0,-1.15570053837925,-1.15570053837925,           203P    303
1.15570053837925,1.15570053837925,-1.001,-1.001,1.001,1.001,1.,      203P    304
1.,1.,1.,-11.5570053837925,-10.01,3.,11.5570053837925,-10.01,3.,     203P    305
-11.5570053837925,10.01,3.,11.5570053837925,10.01,3.,                203P    306
-1.15570053837925,1.15570053837925,-1.001,1.001;                     203P    307
128,1,1,1,1,0,0,1,0,0,-1.15570053837925,-1.15570053837925,           205P    308
1.15570053837925,1.15570053837925,-1.001,-1.001,1.001,1.001,1.,      205P    309
1.,1.,1.,11.5570053837925,-10.01,0.,-11.5570053837925,-10.01,0.,     205P    310
11.5570053837925,10.01,0.,-11.5570053837925,10.01,0.,                205P    311
-1.15570053837925,1.15570053837925,-1.001,1.001;                     205P    312
502,29,-3.92598183048946,3.41740524767431D-15,19.,                   207P    313
-1.96299091524473,3.4,19.,-3.92598183048946,                         207P    314
3.41740524767431D-15,9.,-1.96299091524473,3.4,9.,                    207P    315
-1.96299091524473,-3.4,19.,-1.96299091524473,-3.4,9.,                207P    316
1.96299091524473,-3.4,19.,1.96299091524473,-3.4,9.,                  207P    317
3.92598183048946,-3.50414142147315D-15,19.,3.92598183048946,         207P    318
-3.50414142147315D-15,9.,1.96299091524473,3.4,19.,                   207P    319
1.96299091524473,3.4,9.,1.75,2.14313189850787D-16,9.,-1.75,0.,       207P    320
9.,5.9,7.22541611496939D-16,19.,5.9,7.22541611496939D-16,3.,         207P    321
-1.75,-2.14313189850787D-16,0.,11.5470053837925,                     207P    322
4.93095148046407D-15,0.,5.77350269189627,10.,0.,                     207P    323
5.77350269189627,10.,3.,11.5470053837925,4.93095148046407D-15,       207P    324
3.,5.77350269189625,-10.,0.,5.77350269189625,-10.,3.,                207P    325
-5.77350269189627,-10.,0.,-5.77350269189627,-10.,3.,                 207P    326
-11.5470053837925,-1.87913920535188D-14,0.,-11.5470053837925,        207P    327
-1.87913920535188D-14,3.,-5.77350269189625,10.,0.,                   207P    328
-5.77350269189625,10.,3.;                                            207P    329
504,43,85,207,1,207,2,87,207,1,207,3,89,207,3,207,4,91,207,2,        209P    330
207,4,93,207,5,207,1,95,207,5,207,6,97,207,6,207,3,99,207,7,207,     209P    331
5,101,207,7,207,8,103,207,8,207,6,105,207,9,207,7,107,207,9,207,     209P    332
10,109,207,10,207,8,111,207,11,207,9,113,207,11,207,12,115,207,      209P    333
12,207,10,117,207,2,207,11,119,207,4,207,12,121,207,13,207,14,       209P    334
123,207,14,207,13,125,207,15,207,15,127,207,15,207,16,129,207,       209P    335
16,207,16,131,207,14,207,17,133,207,17,207,17,135,207,18,207,19,     209P    336
137,207,19,207,20,139,207,21,207,20,141,207,18,207,21,143,207,       209P    337
22,207,18,145,207,23,207,21,147,207,22,207,23,149,207,24,207,22,     209P    338
151,207,25,207,23,153,207,24,207,25,155,207,26,207,24,157,207,       209P    339
27,207,25,159,207,26,207,27,161,207,28,207,26,163,207,29,207,27,     209P    340
165,207,28,207,29,167,207,19,207,28,169,207,20,207,29;               209P    341
406,1,4HAxe1;                                                        211P    342
314,76.8627450980392,20.7843137254902,15.2941176470588,27HPaint      213P    343
- Enamel Glossy (Red);                                               213P    344
314,62.7450980392157,62.7450980392157,62.7450980392157,13HSteel      215P    345
- Satin;                                                             215P    346
S      1G      3D    216P    346                                        T      1
