                                                                        S      1
,,29HDirectional Motor Fixation v2,29HDirectional Motor Fixation v2,7HunG      1
known,7Hunknown,32,38,7,99,15,,1.,2,2HMM,1,0.08,15H20201205.181651,0.01,G      2
10000.,7Hunknown,7Hunknown,11,0,15H20200214.072827;                     G      3
     186       1                                                00000000D      1
     186            -151       1       0                               0D      2
     514       2                                                00010000D      3
     514                       1       1                               0D      4
     510       3                                                00010000D      5
     510            -151       1       1                               0D      6
     510       4                                                00010000D      7
     510            -151       1       1                               0D      8
     510       5                                                00010000D      9
     510            -151       1       1                               0D     10
     510       6                                                00010000D     11
     510            -151       1       1                               0D     12
     510       7                                                00010000D     13
     510            -151       1       1                               0D     14
     510       8                                                00010000D     15
     510            -151       1       1                               0D     16
     510       9                                                00010000D     17
     510            -151       1       1                               0D     18
     510      10                                                00010000D     19
     510            -151       1       1                               0D     20
     510      11                                                00010000D     21
     510            -151       1       1                               0D     22
     510      12                                                00010000D     23
     510            -151       1       1                               0D     24
     510      13                                                00010000D     25
     510            -151       1       1                               0D     26
     510      14                                                00010000D     27
     510            -151       1       1                               0D     28
     508      15                                                00010000D     29
     508                       1       1                               0D     30
     508      16                                                00010000D     31
     508                       1       1                               0D     32
     508      17                                                00010000D     33
     508                       1       1                               0D     34
     508      18                                                00010000D     35
     508                       1       1                               0D     36
     508      19                                                00010000D     37
     508                       1       1                               0D     38
     508      20                                                00010000D     39
     508                       1       1                               0D     40
     508      21                                                00010000D     41
     508                       1       1                               0D     42
     508      22                                                00010000D     43
     508                       2       1                               0D     44
     508      24                                                00010000D     45
     508                       1       1                               0D     46
     508      25                                                00010000D     47
     508                       1       1                               0D     48
     508      26                                                00010000D     49
     508                       1       1                               0D     50
     508      27                                                00010000D     51
     508                       1       1                               0D     52
     508      28                                                00010000D     53
     508                       2       1                               0D     54
     508      30                                                00010000D     55
     508                       1       1                               0D     56
     508      31                                                00010000D     57
     508                       1       1                               0D     58
     508      32                                                00010000D     59
     508                       1       1                               0D     60
     126      33                                                00010000D     61
     126       0               2       0                               0D     62
     126      35                                                00010000D     63
     126       0               2       0                               0D     64
     126      37                                                00010000D     65
     126       0               2       0                               0D     66
     126      39                                                00010000D     67
     126       0               2       0                               0D     68
     126      41                                                00010000D     69
     126       0               2       0                               0D     70
     126      43                                                00010000D     71
     126       0               2       0                               0D     72
     126      45                                                00010000D     73
     126       0               2       0                               0D     74
     126      47                                                00010000D     75
     126       0               2       0                               0D     76
     126      49                                                00010000D     77
     126       0               2       0                               0D     78
     126      51                                                00010000D     79
     126       0               2       0                               0D     80
     126      53                                                00010000D     81
     126       0               2       0                               0D     82
     126      55                                                00010000D     83
     126       0               2       0                               0D     84
     126      57                                                00010000D     85
     126       0               2       0                               0D     86
     126      59                                                00010000D     87
     126       0               9       0                               0D     88
     126      68                                                00010000D     89
     126       0               2       0                               0D     90
     126      70                                                00010000D     91
     126       0               2       0                               0D     92
     126      72                                                00010000D     93
     126       0               2       0                               0D     94
     126      74                                                00010000D     95
     126       0               9       0                               0D     96
     126      83                                                00010000D     97
     126       0               2       0                               0D     98
     126      85                                                00010000D     99
     126       0               2       0                               0D    100
     126      87                                                00010000D    101
     126       0               2       0                               0D    102
     126      89                                                00010000D    103
     126       0               9       0                               0D    104
     126      98                                                00010000D    105
     126       0               3       0                               0D    106
     126     101                                                00010000D    107
     126       0               9       0                               0D    108
     126     110                                                00010000D    109
     126       0               3       0                               0D    110
     126     113                                                00010000D    111
     126       0               2       0                               0D    112
     126     115                                                00010000D    113
     126       0               2       0                               0D    114
     126     117                                                00010000D    115
     126       0               2       0                               0D    116
     126     119                                                00010000D    117
     126       0               2       0                               0D    118
     126     121                                                00010000D    119
     126       0               2       0                               0D    120
     128     123                                                00010000D    121
     128       0    -151       4       0                               0D    122
     128     127                                                00010000D    123
     128       0    -151       4       0                               0D    124
     128     131                                                00010000D    125
     128       0    -151       3       0                               0D    126
     128     134                                                00010000D    127
     128       0    -151       3       0                               0D    128
     128     137                                                00010000D    129
     128       0    -151       3       0                               0D    130
     128     140                                                00010000D    131
     128       0    -151       3       0                               0D    132
     128     143                                                00010000D    133
     128       0    -151      15       0                               0D    134
     128     158                                                00010000D    135
     128       0    -151      14       0                               0D    136
     128     172                                                00010000D    137
     128       0    -151       3       0                               0D    138
     128     175                                                00010000D    139
     128       0    -151       3       0                               0D    140
     128     178                                                00010000D    141
     128       0    -151       3       0                               0D    142
     128     181                                                00010000D    143
     128       0    -151       3       0                               0D    144
     502     184                                                00010000D    145
     502                       6       1                               0D    146
     504     190                                                00010001D    147
     504                       8       1                               0D    148
     406     198                                                00000000D    149
     406                       1      15                               0D    150
     314     199                                                00000200D    151
     314                       2       0                               0D    152
186,3,1,0,0,1,149;                                                     1P      1
514,12,5,1,7,1,9,1,11,1,13,1,15,1,17,1,19,1,21,1,23,1,25,1,27,1;       3P      2
510,121,1,1,29;                                                        5P      3
510,123,1,1,31;                                                        7P      4
510,125,1,1,33;                                                        9P      5
510,127,2,1,35,37;                                                    11P      6
510,129,2,1,39,41;                                                    13P      7
510,131,1,1,43;                                                       15P      8
510,133,1,1,45;                                                       17P      9
510,135,1,1,47;                                                       19P     10
510,137,1,1,49;                                                       21P     11
510,139,1,1,51;                                                       23P     12
510,141,1,1,53;                                                       25P     13
510,143,3,1,55,57,59;                                                 27P     14
508,4,0,147,1,0,0,0,147,2,0,0,0,147,3,1,0,0,147,4,0,0;                29P     15
508,4,0,147,5,0,0,0,147,6,0,0,0,147,7,1,0,0,147,8,0,0;                31P     16
508,4,0,147,9,0,0,0,147,3,0,0,0,147,10,0,0,0,147,7,0,0;               33P     17
508,4,0,147,5,1,0,0,147,11,1,0,0,147,12,1,0,0,147,13,1,0;             35P     18
508,1,0,147,14,0,0;                                                   37P     19
508,4,0,147,1,1,0,0,147,15,1,0,0,147,16,1,0,0,147,17,1,0;             39P     20
508,1,0,147,18,0,0;                                                   41P     21
508,8,0,147,4,1,0,0,147,9,1,0,0,147,6,1,0,0,147,13,0,0,0,147,19,      43P     22
1,0,0,147,20,0,0,0,147,21,0,0,0,147,15,0,0;                           43P     23
508,4,0,147,22,0,0,0,147,23,1,0,0,147,18,1,0,0,147,23,0,0;            45P     24
508,4,0,147,24,0,0,0,147,25,1,0,0,147,14,1,0,0,147,25,0,0;            47P     25
508,4,0,147,12,0,0,0,147,26,1,0,0,147,27,0,0,0,147,19,0,0;            49P     26
508,4,0,147,16,0,0,0,147,21,1,0,0,147,28,0,0,0,147,29,0,0;            51P     27
508,8,0,147,2,1,0,0,147,17,0,0,0,147,29,1,0,0,147,30,0,0,0,147,       53P     28
26,0,0,0,147,11,0,0,0,147,8,1,0,0,147,10,1,0;                         53P     29
508,4,0,147,30,1,0,0,147,28,1,0,0,147,20,1,0,0,147,27,1,0;            55P     30
508,1,0,147,24,1,0;                                                   57P     31
508,1,0,147,22,1,0;                                                   59P     32
126,1,1,0,0,1,0,-0.2,-0.2,0.600000000000001,0.600000000000001,        61P     33
1.,1.,-12.,4.,0.,-12.,-4.,0.,-0.2,0.600000000000001,0.,0.,0.;         61P     34
126,1,1,0,0,1,0,-0.95,-0.95,0.,0.,1.,1.,-12.,4.,9.5,-12.,4.,0.,       63P     35
-0.95,0.,0.,0.,0.;                                                    63P     36
126,1,1,0,0,1,0,0.,0.,0.800000000000001,0.800000000000001,1.,1.,      65P     37
-12.,4.,9.5,-12.,-4.,9.5,0.,0.800000000000001,0.,0.,0.;               65P     38
126,1,1,0,0,1,0,0.,0.,0.95,0.95,1.,1.,-12.,-4.,0.,-12.,-4.,9.5,       67P     39
0.,0.95,0.,0.,0.;                                                     67P     40
126,1,1,0,0,1,0,-0.2,-0.2,0.6,0.6,1.,1.,12.,-4.,0.,12.,4.,0.,         69P     41
-0.2,0.6,0.,0.,0.;                                                    69P     42
126,1,1,0,0,1,0,-0.95,-0.95,0.,0.,1.,1.,12.,-4.,9.5,12.,-4.,0.,       71P     43
-0.95,0.,0.,0.,0.;                                                    71P     44
126,1,1,0,0,1,0,0.,0.,0.8,0.8,1.,1.,12.,-4.,9.5,12.,4.,9.5,0.,        73P     45
0.8,0.,0.,0.;                                                         73P     46
126,1,1,0,0,1,0,0.,0.,0.95,0.95,1.,1.,12.,4.,0.,12.,4.,9.5,0.,        75P     47
0.95,0.,0.,0.;                                                        75P     48
126,1,1,0,0,1,0,-0.175,-0.175,2.225,2.225,1.,1.,-12.,-4.,9.5,         77P     49
12.,-4.,9.5,-0.175,2.225,0.,0.,0.;                                    77P     50
126,1,1,0,0,1,0,-0.175,-0.175,2.225,2.225,1.,1.,12.,4.,9.5,-12.,      79P     51
4.,9.5,-0.175,2.225,0.,0.,0.;                                         79P     52
126,1,1,0,0,1,0,3.25,3.25,4.1,4.1,1.,1.,12.,4.,0.,20.5,4.,0.,         81P     53
3.25,4.1,0.,0.,0.;                                                    81P     54
126,1,1,0,0,1,0,0.,0.,0.8,0.8,1.,1.,20.5,4.,0.,20.5,-4.,0.,0.,        83P     55
0.8,0.,0.,0.;                                                         83P     56
126,1,1,0,0,1,0,0.,0.,0.85,0.85,1.,1.,20.5,-4.,0.,12.,-4.,0.,0.,      85P     57
0.85,0.,0.,0.;                                                        85P     58
126,8,2,0,1,0,0,-3.14159265358979,-3.14159265358979,                  87P     59
-3.14159265358979,-1.5707963267949,-1.5707963267949,0.,0.,            87P     60
1.5707963267949,1.5707963267949,3.14159265358979,                     87P     61
3.14159265358979,3.14159265358979,1.,0.707106781186548,1.,            87P     62
0.707106781186548,1.,0.707106781186548,1.,0.707106781186548,1.,       87P     63
13.85,-2.91812450495897D-16,0.,13.85,2.15,0.,16.,2.15,0.,18.15,       87P     64
2.15,0.,18.15,-5.55111512312578D-16,0.,18.15,-2.15,0.,16.,-2.15,      87P     65
0.,13.85,-2.15,0.,13.85,-8.18410574129259D-16,0.,                     87P     66
-3.14159265358979,3.14159265358979,0.,0.,0.;                          87P     67
126,1,1,0,0,1,0,3.25,3.25,4.1,4.1,1.,1.,-12.,-4.,0.,-20.5,-4.,        89P     68
0.,3.25,4.1,0.,0.,0.;                                                 89P     69
126,1,1,0,0,1,0,0.,0.,0.8,0.8,1.,1.,-20.5,-4.,0.,-20.5,4.,0.,0.,      91P     70
0.8,0.,0.,0.;                                                         91P     71
126,1,1,0,0,1,0,0.,0.,0.85,0.85,1.,1.,-20.5,4.,0.,-12.,4.,0.,0.,      93P     72
0.85,0.,0.,0.;                                                        93P     73
126,8,2,0,1,0,0,-3.14159265358979,-3.14159265358979,                  95P     74
-3.14159265358979,-1.5707963267949,-1.5707963267949,0.,0.,            95P     75
1.5707963267949,1.5707963267949,3.14159265358979,                     95P     76
3.14159265358979,3.14159265358979,1.,0.707106781186548,1.,            95P     77
0.707106781186548,1.,0.707106781186548,1.,0.707106781186548,1.,       95P     78
-18.15,8.18410574129259D-16,0.,-18.15,2.15,0.,-16.,2.15,0.,           95P     79
-13.85,2.15,0.,-13.85,5.55111512312578D-16,0.,-13.85,-2.15,0.,        95P     80
-16.,-2.15,0.,-18.15,-2.15,0.,-18.15,2.91812450495897D-16,0.,         95P     81
-3.14159265358979,3.14159265358979,0.,0.,0.;                          95P     82
126,1,1,0,0,1,0,0.,0.,1.3,1.3,1.,1.,20.5,-4.,0.,20.5,-4.,13.,0.,      97P     83
1.3,0.,0.,0.;                                                         97P     84
126,1,1,0,0,1,0,-4.1,-4.1,0.,0.,1.,1.,-20.5,-4.,13.,20.5,-4.,         99P     85
13.,-4.1,0.,0.,0.,0.;                                                 99P     86
126,1,1,0,0,1,0,0.,0.,1.3,1.3,1.,1.,-20.5,-4.,0.,-20.5,-4.,13.,      101P     87
0.,1.3,0.,0.,0.;                                                     101P     88
126,8,2,0,1,0,0,-3.14159265358979,-3.14159265358979,                 103P     89
-3.14159265358979,-1.5707963267949,-1.5707963267949,0.,0.,           103P     90
1.5707963267949,1.5707963267949,3.14159265358979,                    103P     91
3.14159265358979,3.14159265358979,1.,0.707106781186548,1.,           103P     92
0.707106781186548,1.,0.707106781186548,1.,0.707106781186548,1.,      103P     93
-18.15,8.18410574129259D-16,13.,-18.15,2.15,13.,-16.,2.15,13.,       103P     94
-13.85,2.15,13.,-13.85,5.55111512312578D-16,13.,-13.85,-2.15,        103P     95
13.,-16.,-2.15,13.,-18.15,-2.15,13.,-18.15,2.91812450495897D-16,     103P     96
13.,-3.14159265358979,3.14159265358979,0.,0.,0.;                     103P     97
126,1,1,0,0,1,0,-6.04651162790698,-6.04651162790698,0.,0.,1.,1.,     105P     98
-18.15,5.55111512312578D-16,13.,-18.15,5.55111512312578D-16,0.,      105P     99
-6.04651162790698,0.,0.,0.,0.;                                       105P    100
126,8,2,0,1,0,0,-3.14159265358979,-3.14159265358979,                 107P    101
-3.14159265358979,-1.5707963267949,-1.5707963267949,0.,0.,           107P    102
1.5707963267949,1.5707963267949,3.14159265358979,                    107P    103
3.14159265358979,3.14159265358979,1.,0.707106781186548,1.,           107P    104
0.707106781186548,1.,0.707106781186548,1.,0.707106781186548,1.,      107P    105
13.85,-2.91812450495897D-16,13.,13.85,2.15,13.,16.,2.15,13.,         107P    106
18.15,2.15,13.,18.15,-5.55111512312578D-16,13.,18.15,-2.15,13.,      107P    107
16.,-2.15,13.,13.85,-2.15,13.,13.85,-8.18410574129259D-16,13.,       107P    108
-3.14159265358979,3.14159265358979,0.,0.,0.;                         107P    109
126,1,1,0,0,1,0,-6.04651162790698,-6.04651162790698,0.,0.,1.,1.,     109P    110
13.85,-5.55111512312578D-16,13.,13.85,-5.55111512312578D-16,0.,      109P    111
-6.04651162790698,0.,0.,0.,0.;                                       109P    112
126,1,1,0,0,1,0,0.,0.,1.3,1.3,1.,1.,20.5,4.,0.,20.5,4.,13.,0.,       111P    113
1.3,0.,0.,0.;                                                        111P    114
126,1,1,0,0,1,0,-0.8,-0.8,0.,0.,1.,1.,20.5,-4.,13.,20.5,4.,13.,      113P    115
-0.8,0.,0.,0.,0.;                                                    113P    116
126,1,1,0,0,1,0,-0.8,-0.8,0.,0.,1.,1.,-20.5,4.,13.,-20.5,-4.,        115P    117
13.,-0.8,0.,0.,0.,0.;                                                115P    118
126,1,1,0,0,1,0,0.,0.,1.3,1.3,1.,1.,-20.5,4.,0.,-20.5,4.,13.,0.,     117P    119
1.3,0.,0.,0.;                                                        117P    120
126,1,1,0,0,1,0,-4.1,-4.1,0.,0.,1.,1.,20.5,4.,13.,-20.5,4.,13.,      119P    121
-4.1,0.,0.,0.,0.;                                                    119P    122
128,1,1,1,1,0,0,1,0,0,-0.001,-0.001,0.801000000000001,               121P    123
0.801000000000001,-0.001,-0.001,0.951,0.951,1.,1.,1.,1.,-12.,        121P    124
-4.01,-0.01,-12.,4.01,-0.01,-12.,-4.01,9.51,-12.,4.01,9.51,          121P    125
-0.001,0.801000000000001,-0.001,0.951;                               121P    126
128,1,1,1,1,0,0,1,0,0,-0.00100000000000006,-0.00100000000000006,     123P    127
0.801,0.801,-0.001,-0.001,0.951,0.951,1.,1.,1.,1.,12.,4.01,          123P    128
-0.01,12.,-4.01,-0.01,12.,4.01,9.51,12.,-4.01,9.51,                  123P    129
-0.00100000000000006,0.801,-0.001,0.951;                             123P    130
128,1,1,1,1,0,0,1,0,0,-1.201,-1.201,1.201,1.201,-0.401,-0.401,       125P    131
0.401,0.401,1.,1.,1.,1.,12.01,-4.01,9.5,-12.01,-4.01,9.5,12.01,      125P    132
4.01,9.5,-12.01,4.01,9.5,-1.201,1.201,-0.401,0.401;                  125P    133
128,1,1,1,1,0,0,1,0,0,1.199,1.199,2.051,2.051,-0.401,-0.401,         127P    134
0.401,0.401,1.,1.,1.,1.,20.51,-4.01,0.,11.99,-4.01,0.,20.51,         127P    135
4.01,0.,11.99,4.01,0.,1.199,2.051,-0.401,0.401;                      127P    136
128,1,1,1,1,0,0,1,0,0,-2.051,-2.051,-1.199,-1.199,-0.401,-0.401,     129P    137
0.401,0.401,1.,1.,1.,1.,-11.99,-4.01,0.,-20.51,-4.01,0.,-11.99,      129P    138
4.01,0.,-20.51,4.01,0.,-2.051,-1.199,-0.401,0.401;                   129P    139
128,1,1,1,1,0,0,1,0,0,-0.001,-0.001,4.101,4.101,-0.001,-0.001,       131P    140
1.301,1.301,1.,1.,1.,1.,-20.51,-4.,-0.01,20.51,-4.,-0.01,-20.51,     131P    141
-4.,13.01,20.51,-4.,13.01,-0.001,4.101,-0.001,1.301;                 131P    142
128,1,8,1,2,0,1,0,0,1,0.,0.,6.04651162790698,6.04651162790698,       133P    143
-3.14159265358979,-3.14159265358979,-3.14159265358979,               133P    144
-1.5707963267949,-1.5707963267949,0.,0.,1.5707963267949,             133P    145
1.5707963267949,3.14159265358979,3.14159265358979,                   133P    146
3.14159265358979,1.,1.,0.707106781186548,0.707106781186548,1.,       133P    147
1.,0.707106781186548,0.707106781186548,1.,1.,0.707106781186548,      133P    148
0.707106781186548,1.,1.,0.707106781186548,0.707106781186548,1.,      133P    149
1.,-18.15,5.55111512312578D-16,0.,-18.15,5.55111512312578D-16,       133P    150
13.,-18.15,-2.15,0.,-18.15,-2.15,13.,-16.,-2.15,0.,-16.,-2.15,       133P    151
13.,-13.85,-2.15,0.,-13.85,-2.15,13.,-13.85,                         133P    152
5.55111512312578D-16,0.,-13.85,5.55111512312578D-16,13.,-13.85,      133P    153
2.15,0.,-13.85,2.15,13.,-16.,2.15,0.,-16.,2.15,13.,-18.15,2.15,      133P    154
0.,-18.15,2.15,13.,-18.15,5.55111512312578D-16,0.,-18.15,            133P    155
5.55111512312578D-16,13.,0.,6.04651162790698,-3.14159265358979,      133P    156
3.14159265358979;                                                    133P    157
128,1,8,1,2,0,1,0,0,1,0.,0.,6.04651162790698,6.04651162790698,       135P    158
-3.14159265358979,-3.14159265358979,-3.14159265358979,               135P    159
-1.5707963267949,-1.5707963267949,0.,0.,1.5707963267949,             135P    160
1.5707963267949,3.14159265358979,3.14159265358979,                   135P    161
3.14159265358979,1.,1.,0.707106781186548,0.707106781186548,1.,       135P    162
1.,0.707106781186548,0.707106781186548,1.,1.,0.707106781186548,      135P    163
0.707106781186548,1.,1.,0.707106781186548,0.707106781186548,1.,      135P    164
1.,13.85,-5.55111512312578D-16,0.,13.85,-5.55111512312578D-16,       135P    165
13.,13.85,-2.15,0.,13.85,-2.15,13.,16.,-2.15,0.,16.,-2.15,13.,       135P    166
18.15,-2.15,0.,18.15,-2.15,13.,18.15,-5.55111512312578D-16,0.,       135P    167
18.15,-5.55111512312578D-16,13.,18.15,2.15,0.,18.15,2.15,13.,        135P    168
16.,2.15,0.,16.,2.15,13.,13.85,2.15,0.,13.85,2.15,13.,13.85,         135P    169
-5.55111512312578D-16,0.,13.85,-5.55111512312578D-16,13.,0.,         135P    170
6.04651162790698,-3.14159265358979,3.14159265358979;                 135P    171
128,1,1,1,1,0,0,1,0,0,-0.001,-0.001,0.801,0.801,-0.001,-0.001,       137P    172
1.301,1.301,1.,1.,1.,1.,20.5,-4.01,-0.01,20.5,4.01,-0.01,20.5,       137P    173
-4.01,13.01,20.5,4.01,13.01,-0.001,0.801,-0.001,1.301;               137P    174
128,1,1,1,1,0,0,1,0,0,-0.001,-0.001,0.801,0.801,-0.001,-0.001,       139P    175
1.301,1.301,1.,1.,1.,1.,-20.5,4.01,-0.01,-20.5,-4.01,-0.01,          139P    176
-20.5,4.01,13.01,-20.5,-4.01,13.01,-0.001,0.801,-0.001,1.301;        139P    177
128,1,1,1,1,0,0,1,0,0,-0.001,-0.001,4.101,4.101,-0.001,-0.001,       141P    178
1.301,1.301,1.,1.,1.,1.,20.51,4.,-0.01,-20.51,4.,-0.01,20.51,4.,     141P    179
13.01,-20.51,4.,13.01,-0.001,4.101,-0.001,1.301;                     141P    180
128,1,1,1,1,0,0,1,0,0,-2.051,-2.051,2.051,2.051,-0.401,-0.401,       143P    181
0.401,0.401,1.,1.,1.,1.,-20.51,-4.01,13.,20.51,-4.01,13.,-20.51,     143P    182
4.01,13.,20.51,4.01,13.,-2.051,2.051,-0.401,0.401;                   143P    183
502,20,-12.,4.,0.,-12.,-4.,0.,-12.,4.,9.5,-12.,-4.,9.5,12.,-4.,      145P    184
0.,12.,4.,0.,12.,-4.,9.5,12.,4.,9.5,20.5,4.,0.,20.5,-4.,0.,          145P    185
13.85,-8.18410574129259D-16,0.,-20.5,-4.,0.,-20.5,4.,0.,-18.15,      145P    186
2.91812450495897D-16,0.,20.5,-4.,13.,-20.5,-4.,13.,-18.15,           145P    187
2.91812450495897D-16,13.,13.85,-8.18410574129259D-16,13.,20.5,       145P    188
4.,13.,-20.5,4.,13.;                                                 145P    189
504,30,61,145,1,145,2,63,145,3,145,1,65,145,3,145,4,67,145,2,        147P    190
145,4,69,145,5,145,6,71,145,7,145,5,73,145,7,145,8,75,145,6,145,     147P    191
8,77,145,4,145,7,79,145,8,145,3,81,145,6,145,9,83,145,9,145,10,      147P    192
85,145,10,145,5,87,145,11,145,11,89,145,2,145,12,91,145,12,145,      147P    193
13,93,145,13,145,1,95,145,14,145,14,97,145,10,145,15,99,145,16,      147P    194
145,15,101,145,12,145,16,103,145,17,145,17,105,145,17,145,14,        147P    195
107,145,18,145,18,109,145,18,145,11,111,145,9,145,19,113,145,15,     147P    196
145,19,115,145,20,145,16,117,145,13,145,20,119,145,19,145,20;        147P    197
406,1,5HBody1;                                                       149P    198
314,62.7450980392157,62.7450980392157,62.7450980392157,13HSteel      151P    199
- Satin;                                                             151P    200
S      1G      3D    152P    200                                        T      1
