                                                                        S      1
,,9HRTG Cover,9HRTG Cover,7Hunknown,7Hunknown,32,38,7,99,15,,1.,2,2HMM, G      1
1,0.08,15H20201205.175643,0.01,10000.,7Hunknown,7Hunknown,11,0,;        G      2
     186       1                                                00000000D      1
     186            -115       1       0                               0D      2
     514       2                                                00010000D      3
     514                       1       1                               0D      4
     510       3                                                00010000D      5
     510            -115       1       1                               0D      6
     510       4                                                00010000D      7
     510            -115       1       1                               0D      8
     510       5                                                00010000D      9
     510            -115       1       1                               0D     10
     510       6                                                00010000D     11
     510            -115       1       1                               0D     12
     510       7                                                00010000D     13
     510            -115       1       1                               0D     14
     510       8                                                00010000D     15
     510            -115       1       1                               0D     16
     510       9                                                00010000D     17
     510            -115       1       1                               0D     18
     510      10                                                00010000D     19
     510            -115       1       1                               0D     20
     510      11                                                00010000D     21
     510            -115       1       1                               0D     22
     510      12                                                00010000D     23
     510            -115       1       1                               0D     24
     510      13                                                00010000D     25
     510            -115       1       1                               0D     26
     508      14                                                00010000D     27
     508                       1       1                               0D     28
     508      15                                                00010000D     29
     508                       1       1                               0D     30
     508      16                                                00010000D     31
     508                       1       1                               0D     32
     508      17                                                00010000D     33
     508                       1       1                               0D     34
     508      18                                                00010000D     35
     508                       1       1                               0D     36
     508      19                                                00010000D     37
     508                       1       1                               0D     38
     508      20                                                00010000D     39
     508                       1       1                               0D     40
     508      21                                                00010000D     41
     508                       1       1                               0D     42
     508      22                                                00010000D     43
     508                       1       1                               0D     44
     508      23                                                00010000D     45
     508                       1       1                               0D     46
     508      24                                                00010000D     47
     508                       1       1                               0D     48
     508      25                                                00010000D     49
     508                       1       1                               0D     50
     508      26                                                00010000D     51
     508                       1       1                               0D     52
     126      27                                                00010000D     53
     126       0              10       0                               0D     54
     126      37                                                00010000D     55
     126       0               2       0                               0D     56
     126      39                                                00010000D     57
     126       0              10       0                               0D     58
     126      49                                                00010000D     59
     126       0              10       0                               0D     60
     126      59                                                00010000D     61
     126       0              12       0                               0D     62
     126      71                                                00010000D     63
     126       0               4       0                               0D     64
     126      75                                                00010000D     65
     126       0              12       0                               0D     66
     126      87                                                00010000D     67
     126       0               4       0                               0D     68
     126      91                                                00010000D     69
     126       0              12       0                               0D     70
     126     103                                                00010000D     71
     126       0               4       0                               0D     72
     126     107                                                00010000D     73
     126       0              12       0                               0D     74
     126     119                                                00010000D     75
     126       0               3       0                               0D     76
     126     122                                                00010000D     77
     126       0              12       0                               0D     78
     126     134                                                00010000D     79
     126       0               4       0                               0D     80
     126     138                                                00010000D     81
     126       0              12       0                               0D     82
     126     150                                                00010000D     83
     126       0               4       0                               0D     84
     126     154                                                00010000D     85
     126       0              10       0                               0D     86
     128     164                                                00010000D     87
     128       0    -115      12       0                               0D     88
     128     176                                                00010000D     89
     128       0    -115       3       0                               0D     90
     128     179                                                00010000D     91
     128       0    -115      16       0                               0D     92
     128     195                                                00010000D     93
     128       0    -115      20       0                               0D     94
     128     215                                                00010000D     95
     128       0    -115       7       0                               0D     96
     128     222                                                00010000D     97
     128       0    -115      18       0                               0D     98
     128     240                                                00010000D     99
     128       0    -115      19       0                               0D    100
     128     259                                                00010000D    101
     128       0    -115       7       0                               0D    102
     128     266                                                00010000D    103
     128       0    -115      20       0                               0D    104
     128     286                                                00010000D    105
     128       0    -115      16       0                               0D    106
     128     302                                                00010000D    107
     128       0    -115       3       0                               0D    108
     502     305                                                00010000D    109
     502                       7       1                               0D    110
     504     312                                                00010001D    111
     504                       5       1                               0D    112
     406     317                                                00000000D    113
     406                       1      15                               0D    114
     314     318                                                00000200D    115
     314                       2       0                               0D    116
     314     320                                                00000200D    117
     314                       2       0                               0D    118
186,3,1,0,0,1,113;                                                     1P      1
514,11,5,1,7,1,9,1,11,1,13,1,15,1,17,1,19,1,21,1,23,1,25,1;            3P      2
510,87,1,1,27;                                                         5P      3
510,89,2,1,29,31;                                                      7P      4
510,91,1,1,33;                                                         9P      5
510,93,1,1,35;                                                        11P      6
510,95,1,1,37;                                                        13P      7
510,97,1,1,39;                                                        15P      8
510,99,1,1,41;                                                        17P      9
510,101,1,1,43;                                                       19P     10
510,103,1,1,45;                                                       21P     11
510,105,1,1,47;                                                       23P     12
510,107,2,1,49,51;                                                    25P     13
508,4,0,111,1,0,0,0,111,2,1,0,0,111,3,0,0,0,111,2,0,0;                27P     14
508,1,0,111,1,1,0;                                                    29P     15
508,1,0,111,4,1,0;                                                    31P     16
508,4,0,111,5,0,0,0,111,6,1,0,0,111,4,0,0,0,111,6,0,0;                33P     17
508,4,0,111,7,1,0,0,111,8,1,0,0,111,9,0,0,0,111,8,0,0;                35P     18
508,1,0,111,9,1,0;                                                    37P     19
508,4,0,111,5,1,0,0,111,10,1,0,0,111,7,0,0,0,111,10,0,0;              39P     20
508,4,0,111,11,1,0,0,111,12,1,0,0,111,13,0,0,0,111,12,0,0;            41P     21
508,1,0,111,11,0,0;                                                   43P     22
508,4,0,111,13,1,0,0,111,14,1,0,0,111,15,0,0,0,111,14,0,0;            45P     23
508,4,0,111,15,1,0,0,111,16,1,0,0,111,17,1,0,0,111,16,0,0;            47P     24
508,1,0,111,17,0,0;                                                   49P     25
508,1,0,111,3,1,0;                                                    51P     26
126,8,2,0,1,0,0,-3.14159265358979,-3.14159265358979,                  53P     27
-3.14159265358979,-1.5707963267949,-1.5707963267949,0.,0.,            53P     28
1.5707963267949,1.5707963267949,3.14159265358979,                     53P     29
3.14159265358979,3.14159265358979,1.,0.707106781186547,1.,            53P     30
0.707106781186548,1.,0.707106781186548,1.,0.707106781186547,1.,       53P     31
31.,-3.7964050773568D-15,140.,31.,-31.,140.,                          53P     32
-1.8982025386784D-15,-31.,140.,-31.,-31.,140.,-31.,0.,140.,-31.,      53P     33
31.,140.,-1.8982025386784D-15,31.,140.,31.,31.,140.,31.,              53P     34
3.7964050773568D-15,140.,-3.14159265358979,3.14159265358979,0.,       53P     35
0.,0.;                                                                53P     36
126,1,1,0,0,1,0,-0.193548387096774,-0.193548387096774,0.,0.,1.,       55P     37
1.,31.,0.,140.,31.,0.,146.,-0.193548387096774,0.,0.,0.,0.;            55P     38
126,8,2,0,1,0,0,-3.14159265358979,-3.14159265358979,                  57P     39
-3.14159265358979,-1.5707963267949,-1.5707963267949,0.,0.,            57P     40
1.5707963267949,1.5707963267949,3.14159265358979,                     57P     41
3.14159265358979,3.14159265358979,1.,0.707106781186547,1.,            57P     42
0.707106781186548,1.,0.707106781186548,1.,0.707106781186547,1.,       57P     43
31.,3.7964050773568D-15,146.,31.,31.,146.,-1.8982025386784D-15,       57P     44
31.,146.,-31.,31.,146.,-31.,0.,146.,-31.,-31.,146.,                   57P     45
-1.8982025386784D-15,-31.,146.,31.,-31.,146.,31.,                     57P     46
-3.7964050773568D-15,146.,-3.14159265358979,3.14159265358979,0.,      57P     47
0.,0.;                                                                57P     48
126,8,2,0,1,0,0,-3.14159265358979,-3.14159265358979,                  59P     49
-3.14159265358979,-1.5707963267949,-1.5707963267949,0.,0.,            59P     50
1.5707963267949,1.5707963267949,3.14159265358979,                     59P     51
3.14159265358979,3.14159265358979,1.,0.707106781186548,1.,            59P     52
0.707106781186548,1.,0.707106781186548,1.,0.707106781186548,1.,       59P     53
29.5,3.61270805748469D-15,140.,29.5,29.5,140.,                        59P     54
-1.80635402874235D-15,29.5,140.,-29.5,29.5,140.,-29.5,0.,140.,        59P     55
-29.5,-29.5,140.,-1.80635402874235D-15,-29.5,140.,29.5,-29.5,         59P     56
140.,29.5,-3.61270805748469D-15,140.,-3.14159265358979,               59P     57
3.14159265358979,0.,0.,0.;                                            59P     58
126,8,2,0,1,0,0,-3.14159265358979,-3.14159265358979,                  61P     59
-3.14159265358979,-1.5707963267949,-1.5707963267949,0.,0.,            61P     60
1.5707963267949,1.5707963267949,3.14159265358979,                     61P     61
3.14159265358979,3.14159265358979,1.,0.707106781186548,1.,            61P     62
0.707106781186548,1.,0.707106781186548,1.,0.707106781186548,1.,       61P     63
29.5,-3.61270805748469D-15,156.985151270285,29.5,-29.5,               61P     64
156.985151270285,-1.80635402874235D-15,-29.5,156.985151270285,        61P     65
-29.5,-29.5,156.985151270285,-29.5,0.,156.985151270285,-29.5,         61P     66
29.5,156.985151270285,-1.80635402874235D-15,29.5,                     61P     67
156.985151270285,29.5,29.5,156.985151270285,29.5,                     61P     68
3.61270805748469D-15,156.985151270285,-3.14159265358979,              61P     69
3.14159265358979,0.,0.,0.;                                            61P     70
126,1,1,0,0,1,0,-0.372378009162218,-0.372378009162218,                63P     71
0.203389830508474,0.203389830508474,1.,1.,29.5,0.,                    63P     72
156.985151270285,29.5,0.,140.,-0.372378009162218,                     63P     73
0.203389830508474,0.,0.,0.;                                           63P     74
126,8,2,0,1,0,0,-3.14159265358979,-3.14159265358979,                  65P     75
-3.14159265358979,-1.5707963267949,-1.5707963267949,0.,0.,            65P     76
1.5707963267949,1.5707963267949,3.14159265358979,                     65P     77
3.14159265358979,3.14159265358979,1.,0.707106781186548,1.,            65P     78
0.707106781186548,1.,0.707106781186548,1.,0.707106781186548,1.,       65P     79
28.4026848015686,-3.47832570294322D-15,160.,28.4026848015686,         65P     80
-28.4026848015686,160.,-1.73916285147161D-15,-28.4026848015686,       65P     81
160.,-28.4026848015686,-28.4026848015686,160.,-28.4026848015686,      65P     82
0.,160.,-28.4026848015686,28.4026848015686,160.,                      65P     83
-1.73916285147161D-15,28.4026848015686,160.,28.4026848015686,         65P     84
28.4026848015686,160.,28.4026848015686,3.47832570294322D-15,          65P     85
160.,-3.14159265358979,3.14159265358979,0.,0.,0.;                     65P     86
126,1,1,0,0,1,0,-1.5232553797598D-32,-1.5232553797598D-32,            67P     87
0.680165155538903,0.680165155538903,1.,1.,28.4026848015686,0.,        67P     88
160.,9.74243076372425,0.,165.,-1.5232553797598D-32,                   67P     89
0.680165155538903,0.,0.,0.;                                           67P     90
126,8,2,0,1,0,0,-3.14159265358979,-3.14159265358979,                  69P     91
-3.14159265358979,-1.5707963267949,-1.5707963267949,0.,0.,            69P     92
1.5707963267949,1.5707963267949,3.14159265358979,                     69P     93
3.14159265358979,3.14159265358979,1.,0.707106781186548,1.,            69P     94
0.707106781186548,1.,0.707106781186548,1.,0.707106781186548,1.,       69P     95
9.74243076372425,-1.19310366507096D-15,165.,9.74243076372425,         69P     96
-9.74243076372425,165.,-5.9655183253548D-16,-9.74243076372425,        69P     97
165.,-9.74243076372425,-9.74243076372425,165.,-9.74243076372425,      69P     98
0.,165.,-9.74243076372425,9.74243076372425,165.,                      69P     99
-5.9655183253548D-16,9.74243076372425,165.,9.74243076372425,          69P    100
9.74243076372425,165.,9.74243076372425,1.19310366507096D-15,          69P    101
165.,-3.14159265358979,3.14159265358979,0.,0.,0.;                     69P    102
126,1,1,0,0,1,0,0.16941340938286,0.16941340938286,                    71P    103
0.271868836386439,0.271868836386439,1.,1.,29.5,0.,                    71P    104
156.985151270285,28.4026848015686,0.,160.,0.16941340938286,           71P    105
0.271868836386439,0.,0.,0.;                                           71P    106
126,8,2,0,1,0,0,-3.14159265358979,-3.14159265358979,                  73P    107
-3.14159265358979,-1.5707963267949,-1.5707963267949,0.,0.,            73P    108
1.5707963267949,1.5707963267949,3.14159265358979,                     73P    109
3.14159265358979,3.14159265358979,1.,0.707106781186548,1.,            73P    110
0.707106781186548,1.,0.707106781186548,1.,0.707106781186548,1.,       73P    111
11.3855969437953,-1.39433348536008D-15,167.,11.3855969437953,         73P    112
-11.3855969437953,167.,-6.97166742680042D-16,-11.3855969437953,       73P    113
167.,-11.3855969437953,-11.3855969437953,167.,-11.3855969437953,      73P    114
0.,167.,-11.3855969437953,11.3855969437953,167.,                      73P    115
-6.97166742680042D-16,11.3855969437953,167.,11.3855969437953,         73P    116
11.3855969437953,167.,11.3855969437953,1.39433348536008D-15,          73P    117
167.,-3.14159265358979,3.14159265358979,0.,0.,0.;                     73P    118
126,1,1,0,0,1,0,-0.642967860606991,-0.642967860606991,0.,0.,1.,       75P    119
1.,11.3855969437953,0.,167.,30.0458509816397,0.,162.,                 75P    120
-0.642967860606991,0.,0.,0.,0.;                                       75P    121
126,8,2,0,1,0,0,-3.14159265358979,-3.14159265358979,                  77P    122
-3.14159265358979,-1.5707963267949,-1.5707963267949,0.,0.,            77P    123
1.5707963267949,1.5707963267949,3.14159265358979,                     77P    124
3.14159265358979,3.14159265358979,1.,0.707106781186547,1.,            77P    125
0.707106781186548,1.,0.707106781186548,1.,0.707106781186547,1.,       77P    126
30.0458509816397,-3.67955552323235D-15,162.,30.0458509816397,         77P    127
-30.0458509816397,162.,-1.83977776161617D-15,-30.0458509816397,       77P    128
162.,-30.0458509816397,-30.0458509816397,162.,-30.0458509816397,      77P    129
0.,162.,-30.0458509816397,30.0458509816397,162.,                      77P    130
-1.83977776161617D-15,30.0458509816397,162.,30.0458509816397,         77P    131
30.0458509816397,162.,30.0458509816397,3.67955552323235D-15,          77P    132
162.,-3.14159265358979,3.14159265358979,0.,0.,0.;                     77P    133
126,1,1,0,0,1,0,-0.315915182461374,-0.315915182461374,                79P    134
3.84951095427902D-33,3.84951095427902D-33,1.,1.,                      79P    135
30.0458509816397,0.,162.,33.6855533243018,0.,152.,                    79P    136
-0.315915182461374,3.84951095427902D-33,0.,0.,0.;                     79P    137
126,8,2,0,1,0,0,-3.14159265358979,-3.14159265358979,                  81P    138
-3.14159265358979,-1.5707963267949,-1.5707963267949,0.,0.,            81P    139
1.5707963267949,1.5707963267949,3.14159265358979,                     81P    140
3.14159265358979,3.14159265358979,1.,0.707106781186547,1.,            81P    141
0.707106781186548,1.,0.707106781186548,1.,0.707106781186547,1.,       81P    142
33.6855533243018,-4.12529050561136D-15,152.,33.6855533243018,         81P    143
-33.6855533243018,152.,-2.06264525280568D-15,-33.6855533243018,       81P    144
152.,-33.6855533243018,-33.6855533243018,152.,-33.6855533243018,      81P    145
0.,152.,-33.6855533243018,33.6855533243018,152.,                      81P    146
-2.06264525280568D-15,33.6855533243018,152.,33.6855533243018,         81P    147
33.6855533243018,152.,33.6855533243018,4.12529050561136D-15,          81P    148
152.,-3.14159265358979,3.14159265358979,0.,0.,0.;                     81P    149
126,1,1,0,0,1,0,-0.176712766940809,-0.176712766940809,                83P    150
2.31816663674641D-34,2.31816663674641D-34,1.,1.,                      83P    151
33.6855533243018,0.,152.,34.,0.,146.,-0.176712766940809,              83P    152
2.31816663674641D-34,0.,0.,0.;                                        83P    153
126,8,2,0,1,0,0,-3.14159265358979,-3.14159265358979,                  85P    154
-3.14159265358979,-1.5707963267949,-1.5707963267949,0.,0.,            85P    155
1.5707963267949,1.5707963267949,3.14159265358979,                     85P    156
3.14159265358979,3.14159265358979,1.,0.707106781186548,1.,            85P    157
0.707106781186548,1.,0.707106781186548,1.,0.707106781186548,1.,       85P    158
34.,4.163799117101D-15,146.,34.,34.,146.,-2.0818995585505D-15,        85P    159
34.,146.,-34.,34.,146.,-34.,0.,146.,-34.,-34.,146.,                   85P    160
-2.0818995585505D-15,-34.,146.,34.,-34.,146.,34.,                     85P    161
-4.163799117101D-15,146.,-3.14159265358979,3.14159265358979,0.,       85P    162
0.,0.;                                                                85P    163
128,1,8,1,2,0,1,0,0,1,0.,0.,0.193548387096774,0.193548387096774,      87P    164
-3.14159265358979,-3.14159265358979,-3.14159265358979,                87P    165
-1.5707963267949,-1.5707963267949,0.,0.,1.5707963267949,              87P    166
1.5707963267949,3.14159265358979,3.14159265358979,                    87P    167
3.14159265358979,1.,1.,0.707106781186548,0.707106781186548,1.,        87P    168
1.,0.707106781186548,0.707106781186548,1.,1.,0.707106781186548,       87P    169
0.707106781186548,1.,1.,0.707106781186548,0.707106781186548,1.,       87P    170
1.,31.,0.,140.,31.,0.,146.,31.,-31.,140.,31.,-31.,146.,0.,-31.,       87P    171
140.,0.,-31.,146.,-31.,-31.,140.,-31.,-31.,146.,-31.,0.,140.,         87P    172
-31.,0.,146.,-31.,31.,140.,-31.,31.,146.,0.,31.,140.,0.,31.,          87P    173
146.,31.,31.,140.,31.,31.,146.,31.,0.,140.,31.,0.,146.,0.,            87P    174
0.193548387096774,-3.14159265358979,3.14159265358979;                 87P    175
128,1,1,1,1,0,0,1,0,0,-3.101,-3.101,3.101,3.101,-3.101,-3.101,        89P    176
3.101,3.101,1.,1.,1.,1.,-31.01,31.01,140.,31.01,31.01,140.,           89P    177
-31.01,-31.01,140.,31.01,-31.01,140.,-3.101,3.101,-3.101,3.101;       89P    178
128,1,8,1,2,0,1,0,0,1,-0.203389830508474,-0.203389830508474,          91P    179
0.372378009162218,0.372378009162218,-3.14159265358979,                91P    180
-3.14159265358979,-3.14159265358979,-1.5707963267949,                 91P    181
-1.5707963267949,0.,0.,1.5707963267949,1.5707963267949,               91P    182
3.14159265358979,3.14159265358979,3.14159265358979,1.,1.,             91P    183
0.707106781186548,0.707106781186548,1.,1.,0.707106781186548,          91P    184
0.707106781186548,1.,1.,0.707106781186548,0.707106781186548,1.,       91P    185
1.,0.707106781186548,0.707106781186548,1.,1.,29.5,0.,140.,29.5,       91P    186
0.,156.985151270285,29.5,29.5,140.,29.5,29.5,156.985151270285,        91P    187
0.,29.5,140.,0.,29.5,156.985151270285,-29.5,29.5,140.,-29.5,          91P    188
29.5,156.985151270285,-29.5,0.,140.,-29.5,0.,156.985151270285,        91P    189
-29.5,-29.5,140.,-29.5,-29.5,156.985151270285,0.,-29.5,140.,0.,       91P    190
-29.5,156.985151270285,29.5,-29.5,140.,29.5,-29.5,                    91P    191
156.985151270285,29.5,0.,140.,29.5,0.,156.985151270285,               91P    192
-0.203389830508474,0.372378009162218,-3.14159265358979,               91P    193
3.14159265358979;                                                     91P    194
128,1,8,1,2,0,1,0,0,1,-1.5232553797598D-32,-1.5232553797598D-32,      93P    195
0.680165155538903,0.680165155538903,-3.14159265358979,                93P    196
-3.14159265358979,-3.14159265358979,-1.5707963267949,                 93P    197
-1.5707963267949,0.,0.,1.5707963267949,1.5707963267949,               93P    198
3.14159265358979,3.14159265358979,3.14159265358979,1.,1.,             93P    199
0.707106781186548,0.707106781186548,1.,1.,0.707106781186548,          93P    200
0.707106781186548,1.,1.,0.707106781186548,0.707106781186548,1.,       93P    201
1.,0.707106781186548,0.707106781186548,1.,1.,28.4026848015686,        93P    202
0.,160.,9.74243076372425,0.,165.,28.4026848015686,                    93P    203
28.4026848015686,160.,9.74243076372424,9.74243076372424,165.,0.,      93P    204
28.4026848015686,160.,0.,9.74243076372425,165.,                       93P    205
-28.4026848015686,28.4026848015686,160.,-9.74243076372424,            93P    206
9.74243076372424,165.,-28.4026848015686,0.,160.,                      93P    207
-9.74243076372425,0.,165.,-28.4026848015686,-28.4026848015686,        93P    208
160.,-9.74243076372424,-9.74243076372424,165.,0.,                     93P    209
-28.4026848015686,160.,0.,-9.74243076372425,165.,                     93P    210
28.4026848015686,-28.4026848015686,160.,9.74243076372424,             93P    211
-9.74243076372424,165.,28.4026848015686,0.,160.,                      93P    212
9.74243076372425,0.,165.,-1.5232553797598D-32,0.680165155538903,      93P    213
-3.14159265358979,3.14159265358979;                                   93P    214
128,1,1,1,1,0,0,1,0,0,-0.975243076372425,-0.975243076372425,          95P    215
0.975243076372425,0.975243076372425,-0.975243076372425,               95P    216
-0.975243076372425,0.975243076372425,0.975243076372425,1.,1.,1.,      95P    217
1.,-9.75243076372425,9.75243076372425,165.,9.75243076372425,          95P    218
9.75243076372425,165.,-9.75243076372425,-9.75243076372425,165.,       95P    219
9.75243076372425,-9.75243076372425,165.,-0.975243076372425,           95P    220
0.975243076372425,-0.975243076372425,0.975243076372425;               95P    221
128,1,8,1,2,0,1,0,0,1,0.16941340938286,0.16941340938286,              97P    222
0.271868836386439,0.271868836386439,-3.14159265358979,                97P    223
-3.14159265358979,-3.14159265358979,-1.5707963267949,                 97P    224
-1.5707963267949,0.,0.,1.5707963267949,1.5707963267949,               97P    225
3.14159265358979,3.14159265358979,3.14159265358979,1.,1.,             97P    226
0.707106781186548,0.707106781186548,1.,1.,0.707106781186548,          97P    227
0.707106781186548,1.,1.,0.707106781186548,0.707106781186548,1.,       97P    228
1.,0.707106781186548,0.707106781186548,1.,1.,29.5,0.,                 97P    229
156.985151270285,28.4026848015686,0.,160.,29.5,29.5,                  97P    230
156.985151270285,28.4026848015686,28.4026848015686,160.,0.,29.5,      97P    231
156.985151270285,0.,28.4026848015686,160.,-29.5,29.5,                 97P    232
156.985151270285,-28.4026848015686,28.4026848015686,160.,-29.5,       97P    233
0.,156.985151270285,-28.4026848015686,0.,160.,-29.5,-29.5,            97P    234
156.985151270285,-28.4026848015686,-28.4026848015686,160.,0.,         97P    235
-29.5,156.985151270285,0.,-28.4026848015686,160.,29.5,-29.5,          97P    236
156.985151270285,28.4026848015686,-28.4026848015686,160.,29.5,        97P    237
0.,156.985151270285,28.4026848015686,0.,160.,0.16941340938286,        97P    238
0.271868836386439,-3.14159265358979,3.14159265358979;                 97P    239
128,1,8,1,2,0,1,0,0,1,0.,0.,0.642967860606991,0.642967860606991,      99P    240
-3.14159265358979,-3.14159265358979,-3.14159265358979,                99P    241
-1.5707963267949,-1.5707963267949,0.,0.,1.5707963267949,              99P    242
1.5707963267949,3.14159265358979,3.14159265358979,                    99P    243
3.14159265358979,1.,1.,0.707106781186548,0.707106781186548,1.,        99P    244
1.,0.707106781186548,0.707106781186548,1.,1.,0.707106781186548,       99P    245
0.707106781186548,1.,1.,0.707106781186548,0.707106781186548,1.,       99P    246
1.,11.3855969437953,0.,167.,30.0458509816397,0.,162.,                 99P    247
11.3855969437953,11.3855969437953,167.,30.0458509816397,              99P    248
30.0458509816397,162.,0.,11.3855969437953,167.,0.,                    99P    249
30.0458509816397,162.,-11.3855969437953,11.3855969437953,167.,        99P    250
-30.0458509816397,30.0458509816397,162.,-11.3855969437953,0.,         99P    251
167.,-30.0458509816397,0.,162.,-11.3855969437953,                     99P    252
-11.3855969437953,167.,-30.0458509816397,-30.0458509816397,162.,      99P    253
0.,-11.3855969437953,167.,0.,-30.0458509816397,162.,                  99P    254
11.3855969437953,-11.3855969437953,167.,30.0458509816397,             99P    255
-30.0458509816397,162.,11.3855969437953,0.,167.,                      99P    256
30.0458509816397,0.,162.,0.,0.642967860606991,-3.14159265358979,      99P    257
3.14159265358979;                                                     99P    258
128,1,1,1,1,0,0,1,0,0,-1.13955969437953,-1.13955969437953,           101P    259
1.13955969437953,1.13955969437953,-1.13955969437953,                 101P    260
-1.13955969437953,1.13955969437953,1.13955969437953,1.,1.,1.,1.,     101P    261
11.3955969437953,11.3955969437953,167.,-11.3955969437953,            101P    262
11.3955969437953,167.,11.3955969437953,-11.3955969437953,167.,       101P    263
-11.3955969437953,-11.3955969437953,167.,-1.13955969437953,          101P    264
1.13955969437953,-1.13955969437953,1.13955969437953;                 101P    265
128,1,8,1,2,0,1,0,0,1,-3.84951095427902D-33,                         103P    266
-3.84951095427902D-33,0.315915182461374,0.315915182461374,           103P    267
-3.14159265358979,-3.14159265358979,-3.14159265358979,               103P    268
-1.5707963267949,-1.5707963267949,0.,0.,1.5707963267949,             103P    269
1.5707963267949,3.14159265358979,3.14159265358979,                   103P    270
3.14159265358979,1.,1.,0.707106781186548,0.707106781186548,1.,       103P    271
1.,0.707106781186548,0.707106781186548,1.,1.,0.707106781186548,      103P    272
0.707106781186548,1.,1.,0.707106781186548,0.707106781186548,1.,      103P    273
1.,30.0458509816397,0.,162.,33.6855533243018,0.,152.,                103P    274
30.0458509816397,30.0458509816397,162.,33.6855533243018,             103P    275
33.6855533243018,152.,0.,30.0458509816397,162.,0.,                   103P    276
33.6855533243018,152.,-30.0458509816397,30.0458509816397,162.,       103P    277
-33.6855533243018,33.6855533243018,152.,-30.0458509816397,0.,        103P    278
162.,-33.6855533243018,0.,152.,-30.0458509816397,                    103P    279
-30.0458509816397,162.,-33.6855533243018,-33.6855533243018,152.,     103P    280
0.,-30.0458509816397,162.,0.,-33.6855533243018,152.,                 103P    281
30.0458509816397,-30.0458509816397,162.,33.6855533243018,            103P    282
-33.6855533243018,152.,30.0458509816397,0.,162.,                     103P    283
33.6855533243018,0.,152.,-3.84951095427902D-33,                      103P    284
0.315915182461374,-3.14159265358979,3.14159265358979;                103P    285
128,1,8,1,2,0,1,0,0,1,-2.31816663674641D-34,                         105P    286
-2.31816663674641D-34,0.176712766940809,0.176712766940809,           105P    287
-3.14159265358979,-3.14159265358979,-3.14159265358979,               105P    288
-1.5707963267949,-1.5707963267949,0.,0.,1.5707963267949,             105P    289
1.5707963267949,3.14159265358979,3.14159265358979,                   105P    290
3.14159265358979,1.,1.,0.707106781186548,0.707106781186548,1.,       105P    291
1.,0.707106781186548,0.707106781186548,1.,1.,0.707106781186548,      105P    292
0.707106781186548,1.,1.,0.707106781186548,0.707106781186548,1.,      105P    293
1.,33.6855533243018,0.,152.,34.,0.,146.,33.6855533243018,            105P    294
33.6855533243018,152.,34.,34.,146.,0.,33.6855533243018,152.,0.,      105P    295
34.,146.,-33.6855533243018,33.6855533243018,152.,-34.,34.,146.,      105P    296
-33.6855533243018,0.,152.,-34.,0.,146.,-33.6855533243018,            105P    297
-33.6855533243018,152.,-34.,-34.,146.,0.,-33.6855533243018,152.,     105P    298
0.,-34.,146.,33.6855533243018,-33.6855533243018,152.,34.,-34.,       105P    299
146.,33.6855533243018,0.,152.,34.,0.,146.,-2.31816663674641D-34,     105P    300
0.176712766940809,-3.14159265358979,3.14159265358979;                105P    301
128,1,1,1,1,0,0,1,0,0,-3.401,-3.401,3.401,3.401,-3.401,-3.401,       107P    302
3.401,3.401,1.,1.,1.,1.,-34.01,34.01,146.,34.01,34.01,146.,          107P    303
-34.01,-34.01,146.,34.01,-34.01,146.,-3.401,3.401,-3.401,3.401;      107P    304
502,10,31.,3.7964050773568D-15,140.,31.,3.7964050773568D-15,         109P    305
146.,29.5,3.61270805748469D-15,140.,29.5,-3.61270805748469D-15,      109P    306
156.985151270285,28.4026848015686,-3.47832570294322D-15,160.,        109P    307
9.74243076372425,-1.19310366507096D-15,165.,11.3855969437953,        109P    308
-1.39433348536009D-15,167.,30.0458509816397,                         109P    309
3.67955552323235D-15,162.,33.6855533243018,4.12529050561136D-15,     109P    310
152.,34.,4.163799117101D-15,146.;                                    109P    311
504,17,53,109,1,109,1,55,109,1,109,2,57,109,2,109,2,59,109,3,        111P    312
109,3,61,109,4,109,4,63,109,4,109,3,65,109,5,109,5,67,109,5,109,     111P    313
6,69,109,6,109,6,71,109,4,109,5,73,109,7,109,7,75,109,7,109,8,       111P    314
77,109,8,109,8,79,109,8,109,9,81,109,9,109,9,83,109,9,109,10,85,     111P    315
109,10,109,10;                                                       111P    316
406,1,5HBody1;                                                       113P    317
314,96.078431372549,96.078431372549,96.4705882352941,15HAluminum     115P    318
 - Cast;                                                             115P    319
314,62.7450980392157,62.7450980392157,62.7450980392157,13HSteel      117P    320
- Satin;                                                             117P    321
S      1G      2D    118P    321                                        T      1
