                                                                        S      1
,,9HTige 72.4,9HTige 72.4,7Hunknown,7Hunknown,32,38,7,99,15,,1.,2,2HMM, G      1
1,0.08,15H20201205.175658,0.01,10000.,7Hunknown,7Hunknown,11,0,;        G      2
     186       1                                                00000000D      1
     186             -47       1       0                               0D      2
     514       2                                                00010000D      3
     514                       1       1                               0D      4
     510       3                                                00010000D      5
     510             -47       1       1                               0D      6
     510       4                                                00010000D      7
     510             -47       1       1                               0D      8
     510       5                                                00010000D      9
     510             -47       1       1                               0D     10
     510       6                                                00010000D     11
     510             -47       1       1                               0D     12
     508       7                                                00010000D     13
     508                       1       1                               0D     14
     508       8                                                00010000D     15
     508                       1       1                               0D     16
     508       9                                                00010000D     17
     508                       1       1                               0D     18
     508      10                                                00010000D     19
     508                       1       1                               0D     20
     126      11                                                00010000D     21
     126       0               4       0                               0D     22
     126      15                                                00010000D     23
     126       0               3       0                               0D     24
     126      18                                                00010000D     25
     126       0               4       0                               0D     26
     126      22                                                00010000D     27
     126       0               3       0                               0D     28
     126      25                                                00010000D     29
     126       0              16       0                               0D     30
     126      41                                                00010000D     31
     126       0              16       0                               0D     32
     128      57                                                00010000D     33
     128       0     -47       8       0                               0D     34
     128      65                                                00010000D     35
     128       0     -47      28       0                               0D     36
     128      93                                                00010000D     37
     128       0     -47       9       0                               0D     38
     128     102                                                00010000D     39
     128       0     -47       9       0                               0D     40
     502     111                                                00010000D     41
     502                       4       1                               0D     42
     504     115                                                00010001D     43
     504                       2       1                               0D     44
     406     117                                                00000000D     45
     406                       1      15                               0D     46
     314     118                                                00000200D     47
     314                       2       0                               0D     48
186,3,1,0,0,1,45;                                                      1P      1
514,4,5,1,7,1,9,1,11,1;                                                3P      2
510,33,1,1,13;                                                         5P      3
510,35,1,1,15;                                                         7P      4
510,37,1,1,17;                                                         9P      5
510,39,1,1,19;                                                        11P      6
508,4,0,43,1,1,0,0,43,2,1,0,0,43,3,0,0,0,43,4,0,0;                    13P      7
508,4,0,43,5,1,0,0,43,4,1,0,0,43,6,0,0,0,43,2,0,0;                    15P      8
508,2,0,43,6,1,0,0,43,3,1,0;                                          17P      9
508,2,0,43,5,0,0,0,43,1,0,0;                                          19P     10
126,1,1,0,0,1,0,0.,0.,0.100076519041379,0.100076519041379,1.,1.,      21P     11
5.73574838638082,-54.6318526156309,48.2832931527827,                  21P     12
5.50467506581881,-53.6623375602356,48.192868354026,0.,                21P     13
0.100076519041379,0.,0.,0.;                                           21P     14
126,1,1,0,0,1,0,0.,0.,7.24,7.24,1.,1.,5.50467506581881,               23P     15
-53.6623375602356,48.192868354026,75.5304409243943,                   23P     16
-37.8476273179583,38.809529083128,0.,7.24,0.,0.,0.;                   23P     17
126,1,1,0,0,1,0,0.,0.,0.100076519041379,0.100076519041379,1.,1.,      25P     18
75.7615142449563,-38.8171423733536,38.8999538818847,                  25P     19
75.5304409243943,-37.8476273179583,38.809529083128,0.,                25P     20
0.100076519041379,0.,0.,0.;                                           25P     21
126,1,1,0,0,1,0,0.,0.,7.24,7.24,1.,1.,5.73574838638083,               27P     22
-54.6318526156309,48.2832931527827,75.7615142449563,                  27P     23
-38.8171423733536,38.8999538818847,0.,7.24,0.,0.,0.;                  27P     24
126,8,2,0,0,0,0,-7.70464063176206,-7.70464063176206,                  29P     25
-7.70464063176206,-6.25414020687556,-6.25414020687556,                29P     26
-4.80363978198907,-4.80363978198907,-3.35313935710257,                29P     27
-3.35313935710257,-1.90263893221608,-1.90263893221608,                29P     28
-1.90263893221608,1.,0.74833347379821,1.,0.7483334737982,1.,          29P     29
0.748333473798192,1.,0.748333473798212,1.,5.5046750658188,            29P     30
-53.6623375602355,48.192868354026,5.13418976136701,                   29P     31
-51.8589291719319,48.4674895577933,5.38132280000085,                  29P     32
-51.8585358810055,50.3124510988329,5.62845583863469,                  29P     33
-51.8581425900791,52.1574126398725,6.05825602609949,                  29P     34
-53.6614565838598,52.3256042569859,6.4880562135643,                   29P     35
-55.4647705776405,52.4937958740994,6.3440803569057,                   29P     36
-55.8979807803328,50.6892023313978,6.2001045002471,                   29P     37
-56.3311909830252,48.8846087886963,5.73574838638082,                  29P     38
-54.6318526156309,48.2832931527827,-7.70464063176206,                 29P     39
-1.90263893221608,0.,0.,0.;                                           29P     40
126,8,2,0,0,0,0,-7.70464063176206,-7.70464063176206,                  31P     41
-7.70464063176206,-6.25414020687556,-6.25414020687556,                31P     42
-4.80363978198907,-4.80363978198907,-3.35313935710257,                31P     43
-3.35313935710257,-1.90263893221608,-1.90263893221608,                31P     44
-1.90263893221608,1.,0.748333473798203,1.,0.748333473798203,1.,       31P     45
0.748333473798194,1.,0.748333473798205,1.,75.5304409243943,           31P     46
-37.8476273179583,38.809529083128,75.1599556199425,                   31P     47
-36.0442189296546,39.0841502868952,75.4070886585763,                  31P     48
-36.0438256387282,40.9291118279348,75.6542216972102,                  31P     49
-36.0434323478018,42.7740733689744,76.084021884675,                   31P     50
-37.8467463415825,42.9422649860879,76.5138220721398,                  31P     51
-39.6500603353632,43.1104566032013,76.3698462154812,                  31P     52
-40.0832705380556,41.3058630604998,76.2258703588226,                  31P     53
-40.5164807407479,39.5012695177982,75.7615142449563,                  31P     54
-38.8171423733536,38.8999538818847,-7.70464063176206,                 31P     55
-1.90263893221608,0.,0.,0.;                                           31P     56
128,1,1,1,1,0,0,1,0,0,-0.00100000000000133,-0.00100000000000133,      33P     57
0.101076519041379,0.101076519041379,-0.00100000000000062,             33P     58
-0.00100000000000062,7.241,7.241,1.,1.,1.,1.,5.72838528567994,        33P     59
-54.6437247054643,48.2854927507132,5.4926940323046,                   33P     60
-53.654834174889,48.1932608387671,75.7734952784706,                   33P     61
-38.8246457587002,38.8995613971436,75.5378040250952,                  33P     62
-37.8357552281249,38.8073294851975,-0.00100000000000133,              33P     63
0.101076519041379,-0.00100000000000062,7.241;                         33P     64
128,1,8,1,2,0,0,0,0,0,-7.9301644616082D-16,-7.9301644616082D-16,      35P     65
34.4761904761902,34.4761904761902,-1.42145532458248,                  35P     66
-1.42145532458248,-1.42145532458248,0.0290451003040153,               35P     67
0.0290451003040153,1.47954552519051,1.47954552519051,                 35P     68
2.93004595007701,2.93004595007701,4.38054637496351,                   35P     69
4.38054637496351,4.38054637496351,1.,1.,0.748333473798206,            35P     70
0.748333473798206,1.,1.,0.748333473798206,0.748333473798206,1.,       35P     71
1.,0.748333473798206,0.748333473798206,1.,1.,0.748333473798206,       35P     72
0.748333473798206,1.,1.,75.5304409243943,-37.8476273179583,           35P     73
38.809529083128,5.50467506581881,-53.6623375602356,                   35P     74
48.192868354026,75.1599556199425,-36.0442189296546,                   35P     75
39.0841502868952,5.13418976136701,-51.8589291719319,                  35P     76
48.4674895577932,75.4070886585764,-36.0438256387282,                  35P     77
40.9291118279348,5.38132280000085,-51.8585358810055,                  35P     78
50.3124510988328,75.6542216972102,-36.0434323478018,                  35P     79
42.7740733689744,5.62845583863468,-51.858142590079,                   35P     80
52.1574126398724,76.084021884675,-37.8467463415825,                   35P     81
42.9422649860879,6.05825602609949,-53.6614565838598,                  35P     82
52.3256042569859,76.5138220721398,-39.6500603353632,                  35P     83
43.1104566032013,6.4880562135643,-55.4647705776405,                   35P     84
52.4937958740994,76.3698462154812,-40.0832705380556,                  35P     85
41.3058630604998,6.3440803569057,-55.8979807803328,                   35P     86
50.6892023313978,76.2258703588226,-40.5164807407479,                  35P     87
39.5012695177982,6.2001045002471,-56.3311909830252,                   35P     88
48.8846087886963,75.7615142449564,-38.8171423733536,                  35P     89
38.8999538818847,5.73574838638082,-54.6318526156309,                  35P     90
48.2832931527827,-7.9301644616082D-16,34.4761904761902,               35P     91
-1.42145532458248,4.38054637496351;                                   35P     92
128,1,1,1,1,0,0,1,0,0,-0.245403629564832,-0.245403629564832,          37P     93
0.21631723665977,0.21631723665977,-0.208662561951629,                 37P     94
-0.208662561951629,0.227088526303596,0.227088526303596,1.,1.,1.,      37P     95
1.,76.1386152543989,-40.5464383973202,38.7996134249624,               37P     96
75.1214755011645,-36.0426574797899,38.7996134249624,                  37P     97
76.6894928225962,-40.4220274892324,43.1203722613669,                  37P     98
75.6723530693618,-35.9182465717021,43.1203722613668,                  37P     99
-0.245403629564832,0.21631723665977,-0.208662561951629,               37P    100
0.227088526303596;                                                    37P    101
128,1,1,1,1,0,0,1,0,0,-0.245403629564832,-0.245403629564832,          39P    102
0.21631723665977,0.21631723665977,-0.208662561951629,                 39P    103
-0.208662561951629,0.227088526303595,0.227088526303595,1.,1.,1.,      39P    104
1.,5.09570964258899,-51.8573677220672,48.1829526958605,               39P    105
6.11284939582336,-56.3611486395975,48.1829526958605,                  39P    106
5.6465872107863,-51.7329568139794,52.5037115322649,                   39P    107
6.66372696402067,-56.2367377315097,52.5037115322649,                  39P    108
-0.245403629564832,0.21631723665977,-0.208662561951629,               39P    109
0.227088526303595;                                                    39P    110
502,4,5.73574838638083,-54.6318526156309,48.2832931527827,            41P    111
5.50467506581881,-53.6623375602356,48.192868354026,                   41P    112
75.5304409243943,-37.8476273179583,38.809529083128,                   41P    113
75.7615142449563,-38.8171423733536,38.8999538818847;                  41P    114
504,6,21,41,1,41,2,23,41,2,41,3,25,41,4,41,3,27,41,1,41,4,29,41,      43P    115
2,41,1,31,41,3,41,4;                                                  43P    116
406,1,5HBody1;                                                        45P    117
314,62.7450980392157,62.7450980392157,62.7450980392157,13HSteel       47P    118
- Satin;                                                              47P    119
S      1G      2D     48P    119                                        T      1
