                                                                        S      1
,,23HSupport Bobine 2.3kg v3,23HSupport Bobine 2.3kg v3,7Hunknown,7HunknG      1
own,32,38,7,99,15,,1.,2,2HMM,1,0.08,15H20201205.181814,0.01,10000.,7HunkG      2
nown,7Hunknown,11,0,15H20200414.161740;                                 G      3
     186       1                                                00000000D      1
     186             -93       1       0                               0D      2
     514       2                                                00010000D      3
     514                       1       1                               0D      4
     510       3                                                00010000D      5
     510             -93       1       1                               0D      6
     510       4                                                00010000D      7
     510             -93       1       1                               0D      8
     510       5                                                00010000D      9
     510             -93       1       1                               0D     10
     510       6                                                00010000D     11
     510             -93       1       1                               0D     12
     510       7                                                00010000D     13
     510             -93       1       1                               0D     14
     510       8                                                00010000D     15
     510             -93       1       1                               0D     16
     510       9                                                00010000D     17
     510             -93       1       1                               0D     18
     510      10                                                00010000D     19
     510             -93       1       1                               0D     20
     508      11                                                00010000D     21
     508                       1       1                               0D     22
     508      12                                                00010000D     23
     508                       1       1                               0D     24
     508      13                                                00010000D     25
     508                       1       1                               0D     26
     508      14                                                00010000D     27
     508                       1       1                               0D     28
     508      15                                                00010000D     29
     508                       1       1                               0D     30
     508      16                                                00010000D     31
     508                       1       1                               0D     32
     508      17                                                00010000D     33
     508                       1       1                               0D     34
     508      18                                                00010000D     35
     508                       1       1                               0D     36
     508      19                                                00010000D     37
     508                       1       1                               0D     38
     508      20                                                00010000D     39
     508                       1       1                               0D     40
     508      21                                                00010000D     41
     508                       1       1                               0D     42
     508      22                                                00010000D     43
     508                       1       1                               0D     44
     126      23                                                00010000D     45
     126       0               9       0                               0D     46
     126      32                                                00010000D     47
     126       0               2       0                               0D     48
     126      34                                                00010000D     49
     126       0               9       0                               0D     50
     126      43                                                00010000D     51
     126       0               9       0                               0D     52
     126      52                                                00010000D     53
     126       0              10       0                               0D     54
     126      62                                                00010000D     55
     126       0               2       0                               0D     56
     126      64                                                00010000D     57
     126       0              10       0                               0D     58
     126      74                                                00010000D     59
     126       0               7       0                               0D     60
     126      81                                                00010000D     61
     126       0               7       0                               0D     62
     126      88                                                00010000D     63
     126       0               2       0                               0D     64
     126      90                                                00010000D     65
     126       0               9       0                               0D     66
     126      99                                                00010000D     67
     126       0              10       0                               0D     68
     126     109                                                00010000D     69
     126       0               3       0                               0D     70
     128     112                                                00010000D     71
     128       0     -93      11       0                               0D     72
     128     123                                                00010000D     73
     128       0     -93       3       0                               0D     74
     128     126                                                00010000D     75
     128       0     -93      12       0                               0D     76
     128     138                                                00010000D     77
     128       0     -93       3       0                               0D     78
     128     141                                                00010000D     79
     128       0     -93      12       0                               0D     80
     128     153                                                00010000D     81
     128       0     -93      13       0                               0D     82
     128     166                                                00010000D     83
     128       0     -93       3       0                               0D     84
     128     169                                                00010000D     85
     128       0     -93       3       0                               0D     86
     502     172                                                00010000D     87
     502                       4       1                               0D     88
     504     176                                                00010001D     89
     504                       3       1                               0D     90
     406     179                                                00000000D     91
     406                       1      15                               0D     92
     314     180                                                00000200D     93
     314                       2       0                               0D     94
186,3,1,0,0,1,91;                                                      1P      1
514,8,5,1,7,1,9,1,11,1,13,1,15,1,17,1,19,1;                            3P      2
510,71,1,1,21;                                                         5P      3
510,73,2,1,23,25;                                                      7P      4
510,75,1,1,27;                                                         9P      5
510,77,2,1,29,31;                                                     11P      6
510,79,1,1,33;                                                        13P      7
510,81,1,1,35;                                                        15P      8
510,83,2,1,37,39;                                                     17P      9
510,85,2,1,41,43;                                                     19P     10
508,4,0,89,1,0,0,0,89,2,1,0,0,89,3,1,0,0,89,2,0,0;                    21P     11
508,1,0,89,1,1,0;                                                     23P     12
508,1,0,89,4,0,0;                                                     25P     13
508,4,0,89,5,0,0,0,89,6,1,0,0,89,7,1,0,0,89,6,0,0;                    27P     14
508,1,0,89,7,0,0;                                                     29P     15
508,2,0,89,8,0,0,0,89,9,0,0;                                          31P     16
508,5,0,89,8,1,0,0,89,10,1,0,0,89,11,1,0,0,89,10,0,0,0,89,9,1,0;      33P     17
508,4,0,89,12,0,0,0,89,13,1,0,0,89,4,1,0,0,89,13,0,0;                 35P     18
508,1,0,89,12,1,0;                                                    37P     19
508,1,0,89,5,1,0;                                                     39P     20
508,1,0,89,3,0,0;                                                     41P     21
508,1,0,89,11,0,0;                                                    43P     22
126,8,2,0,1,0,0,-3.14159265358979,-3.14159265358979,                  45P     23
-3.14159265358979,-1.5707963267949,-1.5707963267949,0.,0.,            45P     24
1.5707963267949,1.5707963267949,3.14159265358979,                     45P     25
3.14159265358979,3.14159265358979,1.,0.707106781186548,1.,            45P     26
0.707106781186548,1.,0.707106781186548,1.,0.707106781186548,1.,       45P     27
-16.,-1.95943487863577D-15,2.,-16.,-16.,2.,9.79717439317883D-16,      45P     28
-16.,2.,16.,-16.,2.,16.,0.,2.,16.,16.,2.,9.79717439317883D-16,        45P     29
16.,2.,-16.,16.,2.,-16.,1.95943487863577D-15,2.,                      45P     30
-3.14159265358979,3.14159265358979,0.,0.,0.;                          45P     31
126,1,1,0,0,1,0,-0.125,-0.125,0.,0.,1.,1.,-16.,0.,2.,-16.,0.,0.,      47P     32
-0.125,0.,0.,0.,0.;                                                   47P     33
126,8,2,0,1,0,0,-3.14159265358979,-3.14159265358979,                  49P     34
-3.14159265358979,-1.5707963267949,-1.5707963267949,0.,0.,            49P     35
1.5707963267949,1.5707963267949,3.14159265358979,                     49P     36
3.14159265358979,3.14159265358979,1.,0.707106781186548,1.,            49P     37
0.707106781186548,1.,0.707106781186548,1.,0.707106781186548,1.,       49P     38
-16.,-1.95943487863577D-15,0.,-16.,-16.,0.,9.79717439317883D-16,      49P     39
-16.,0.,16.,-16.,0.,16.,0.,0.,16.,16.,0.,9.79717439317883D-16,        49P     40
16.,0.,-16.,16.,0.,-16.,1.95943487863577D-15,0.,                      49P     41
-3.14159265358979,3.14159265358979,0.,0.,0.;                          49P     42
126,8,2,0,1,0,0,-3.14159265358979,-3.14159265358979,                  51P     43
-3.14159265358979,-1.5707963267949,-1.5707963267949,0.,0.,            51P     44
1.5707963267949,1.5707963267949,3.14159265358979,                     51P     45
3.14159265358979,3.14159265358979,1.,0.707106781186548,1.,            51P     46
0.707106781186548,1.,0.707106781186548,1.,0.707106781186548,1.,       51P     47
-14.,-1.71450551880629D-15,2.,-14.,-14.,2.,8.57252759403147D-16,      51P     48
-14.,2.,14.,-14.,2.,14.,0.,2.,14.,14.,2.,8.57252759403147D-16,        51P     49
14.,2.,-14.,14.,2.,-14.,1.71450551880629D-15,2.,                      51P     50
-3.14159265358979,3.14159265358979,0.,0.,0.;                          51P     51
126,8,2,0,1,0,0,-3.14159265358979,-3.14159265358979,                  53P     52
-3.14159265358979,-1.5707963267949,-1.5707963267949,0.,0.,            53P     53
1.5707963267949,1.5707963267949,3.14159265358979,                     53P     54
3.14159265358979,3.14159265358979,1.,0.707106781186548,1.,            53P     55
0.707106781186548,1.,0.707106781186548,1.,0.707106781186548,1.,       53P     56
11.1,-1.35935794705356D-15,10.,11.1,-11.1,10.,                        53P     57
-6.79678973526781D-16,-11.1,10.,-11.1,-11.1,10.,-11.1,0.,10.,         53P     58
-11.1,11.1,10.,-6.79678973526781D-16,11.1,10.,11.1,11.1,10.,          53P     59
11.1,1.35935794705356D-15,10.,-3.14159265358979,                      53P     60
3.14159265358979,0.,0.,0.;                                            53P     61
126,1,1,0,0,1,0,0.,0.,0.630630630630631,0.630630630630631,1.,1.,      55P     62
11.1,0.,10.,11.1,0.,3.,0.,0.630630630630631,0.,0.,0.;                 55P     63
126,8,2,0,1,0,0,-3.14159265358979,-3.14159265358979,                  57P     64
-3.14159265358979,-1.5707963267949,-1.5707963267949,0.,0.,            57P     65
1.5707963267949,1.5707963267949,3.14159265358979,                     57P     66
3.14159265358979,3.14159265358979,1.,0.707106781186548,1.,            57P     67
0.707106781186548,1.,0.707106781186548,1.,0.707106781186548,1.,       57P     68
11.1,-1.35935794705356D-15,3.,11.1,-11.1,3.,                          57P     69
-6.79678973526781D-16,-11.1,3.,-11.1,-11.1,3.,-11.1,0.,3.,-11.1,      57P     70
11.1,3.,-6.79678973526781D-16,11.1,3.,11.1,11.1,3.,11.1,              57P     71
1.35935794705356D-15,3.,-3.14159265358979,3.14159265358979,0.,        57P     72
0.,0.;                                                                57P     73
126,4,2,0,0,0,0,1.22464679914735D-16,1.22464679914735D-16,            59P     74
1.22464679914735D-16,1.5707963267949,1.5707963267949,                 59P     75
3.14159265358979,3.14159265358979,3.14159265358979,1.,                59P     76
0.707106781186547,1.,0.707106781186548,1.,6.5,                        59P     77
7.9602041944578D-16,3.,6.5,6.5,3.,3.9801020972289D-16,6.5,3.,         59P     78
-6.5,6.5,3.,-6.5,7.9602041944578D-16,3.,1.22464679914735D-16,         59P     79
3.14159265358979,0.,0.,0.;                                            59P     80
126,4,2,0,0,0,0,3.14159265358979,3.14159265358979,                    61P     81
3.14159265358979,4.71238898038469,4.71238898038469,                   61P     82
6.28318530717959,6.28318530717959,6.28318530717959,1.,                61P     83
0.707106781186548,1.,0.707106781186547,1.,-6.5,                       61P     84
7.9602041944578D-16,3.,-6.5,-6.5,3.,-1.19403062916867D-15,-6.5,       61P     85
3.,6.5,-6.5,3.,6.5,-1.59204083889156D-15,3.,3.14159265358979,         61P     86
6.28318530717959,0.,0.,0.;                                            61P     87
126,1,1,0,0,1,0,-0.461538461538461,-0.461538461538461,0.,0.,1.,       63P     88
1.,-6.5,0.,3.,-6.5,0.,0.,-0.461538461538461,0.,0.,0.,0.;              63P     89
126,8,2,0,1,0,0,-3.14159265358979,-3.14159265358979,                  65P     90
-3.14159265358979,-1.5707963267949,-1.5707963267949,0.,0.,            65P     91
1.5707963267949,1.5707963267949,3.14159265358979,                     65P     92
3.14159265358979,3.14159265358979,1.,0.707106781186548,1.,            65P     93
0.707106781186548,1.,0.707106781186548,1.,0.707106781186548,1.,       65P     94
-6.5,7.9602041944578D-16,0.,-6.5,6.5,0.,3.9801020972289D-16,6.5,      65P     95
0.,6.5,6.5,0.,6.5,0.,0.,6.5,-6.5,0.,3.9801020972289D-16,-6.5,0.,      65P     96
-6.5,-6.5,0.,-6.5,-7.9602041944578D-16,0.,-3.14159265358979,          65P     97
3.14159265358979,0.,0.,0.;                                            65P     98
126,8,2,0,1,0,0,-3.14159265358979,-3.14159265358979,                  67P     99
-3.14159265358979,-1.5707963267949,-1.5707963267949,0.,0.,            67P    100
1.5707963267949,1.5707963267949,3.14159265358979,                     67P    101
3.14159265358979,3.14159265358979,1.,0.707106781186548,1.,            67P    102
0.707106781186548,1.,0.707106781186548,1.,0.707106781186548,1.,       67P    103
-14.,-1.71450551880629D-15,10.,-14.,-14.,10.,                         67P    104
8.57252759403147D-16,-14.,10.,14.,-14.,10.,14.,0.,10.,14.,14.,        67P    105
10.,8.57252759403147D-16,14.,10.,-14.,14.,10.,-14.,                   67P    106
1.71450551880629D-15,10.,-3.14159265358979,3.14159265358979,0.,       67P    107
0.,0.;                                                                67P    108
126,1,1,0,0,1,0,-0.714285714285714,-0.714285714285714,                69P    109
-0.142857142857143,-0.142857142857143,1.,1.,-14.,0.,10.,-14.,0.,      69P    110
2.,-0.714285714285714,-0.142857142857143,0.,0.,0.;                    69P    111
128,1,8,1,2,0,1,0,0,1,0.,0.,0.125,0.125,-3.14159265358979,            71P    112
-3.14159265358979,-3.14159265358979,-1.5707963267949,                 71P    113
-1.5707963267949,0.,0.,1.5707963267949,1.5707963267949,               71P    114
3.14159265358979,3.14159265358979,3.14159265358979,1.,1.,             71P    115
0.707106781186548,0.707106781186548,1.,1.,0.707106781186548,          71P    116
0.707106781186548,1.,1.,0.707106781186548,0.707106781186548,1.,       71P    117
1.,0.707106781186548,0.707106781186548,1.,1.,-16.,0.,2.,-16.,0.,      71P    118
0.,-16.,-16.,2.,-16.,-16.,0.,0.,-16.,2.,0.,-16.,0.,16.,-16.,2.,       71P    119
16.,-16.,0.,16.,0.,2.,16.,0.,0.,16.,16.,2.,16.,16.,0.,0.,16.,2.,      71P    120
0.,16.,0.,-16.,16.,2.,-16.,16.,0.,-16.,0.,2.,-16.,0.,0.,0.,           71P    121
0.125,-3.14159265358979,3.14159265358979;                             71P    122
128,1,1,1,1,0,0,1,0,0,-1.601,-1.601,1.601,1.601,-1.601,-1.601,        73P    123
1.601,1.601,1.,1.,1.,1.,-16.01,-16.01,2.,16.01,-16.01,2.,-16.01,      73P    124
16.01,2.,16.01,16.01,2.,-1.601,1.601,-1.601,1.601;                    73P    125
128,1,8,1,2,0,1,0,0,1,0.,0.,0.630630630630631,0.630630630630631,      75P    126
-3.14159265358979,-3.14159265358979,-3.14159265358979,                75P    127
-1.5707963267949,-1.5707963267949,0.,0.,1.5707963267949,              75P    128
1.5707963267949,3.14159265358979,3.14159265358979,                    75P    129
3.14159265358979,1.,1.,0.707106781186548,0.707106781186548,1.,        75P    130
1.,0.707106781186548,0.707106781186548,1.,1.,0.707106781186548,       75P    131
0.707106781186548,1.,1.,0.707106781186548,0.707106781186548,1.,       75P    132
1.,11.1,0.,10.,11.1,0.,3.,11.1,-11.1,10.,11.1,-11.1,3.,0.,-11.1,      75P    133
10.,0.,-11.1,3.,-11.1,-11.1,10.,-11.1,-11.1,3.,-11.1,0.,10.,          75P    134
-11.1,0.,3.,-11.1,11.1,10.,-11.1,11.1,3.,0.,11.1,10.,0.,11.1,3.,      75P    135
11.1,11.1,10.,11.1,11.1,3.,11.1,0.,10.,11.1,0.,3.,0.,                 75P    136
0.630630630630631,-3.14159265358979,3.14159265358979;                 75P    137
128,1,1,1,1,0,0,1,0,0,-1.111,-1.111,1.111,1.111,-1.111,-1.111,        77P    138
1.111,1.111,1.,1.,1.,1.,11.11,11.11,3.,-11.11,11.11,3.,11.11,         77P    139
-11.11,3.,-11.11,-11.11,3.,-1.111,1.111,-1.111,1.111;                 77P    140
128,1,8,1,2,0,1,0,0,1,0.,0.,0.461538461538461,0.461538461538461,      79P    141
-3.14159265358979,-3.14159265358979,-3.14159265358979,                79P    142
-1.5707963267949,-1.5707963267949,0.,0.,1.5707963267949,              79P    143
1.5707963267949,3.14159265358979,3.14159265358979,                    79P    144
3.14159265358979,1.,1.,0.707106781186548,0.707106781186548,1.,        79P    145
1.,0.707106781186548,0.707106781186548,1.,1.,0.707106781186548,       79P    146
0.707106781186548,1.,1.,0.707106781186548,0.707106781186548,1.,       79P    147
1.,-6.5,0.,0.,-6.5,0.,3.,-6.5,-6.5,0.,-6.5,-6.5,3.,0.,-6.5,0.,        79P    148
0.,-6.5,3.,6.5,-6.5,0.,6.5,-6.5,3.,6.5,0.,0.,6.5,0.,3.,6.5,6.5,       79P    149
0.,6.5,6.5,3.,0.,6.5,0.,0.,6.5,3.,-6.5,6.5,0.,-6.5,6.5,3.,-6.5,       79P    150
0.,0.,-6.5,0.,3.,0.,0.461538461538461,-3.14159265358979,              79P    151
3.14159265358979;                                                     79P    152
128,1,8,1,2,0,1,0,0,1,0.142857142857143,0.142857142857143,            81P    153
0.714285714285714,0.714285714285714,-3.14159265358979,                81P    154
-3.14159265358979,-3.14159265358979,-1.5707963267949,                 81P    155
-1.5707963267949,0.,0.,1.5707963267949,1.5707963267949,               81P    156
3.14159265358979,3.14159265358979,3.14159265358979,1.,1.,             81P    157
0.707106781186548,0.707106781186548,1.,1.,0.707106781186548,          81P    158
0.707106781186548,1.,1.,0.707106781186548,0.707106781186548,1.,       81P    159
1.,0.707106781186548,0.707106781186548,1.,1.,-14.,0.,10.,-14.,        81P    160
0.,2.,-14.,-14.,10.,-14.,-14.,2.,0.,-14.,10.,0.,-14.,2.,14.,          81P    161
-14.,10.,14.,-14.,2.,14.,0.,10.,14.,0.,2.,14.,14.,10.,14.,14.,        81P    162
2.,0.,14.,10.,0.,14.,2.,-14.,14.,10.,-14.,14.,2.,-14.,0.,10.,         81P    163
-14.,0.,2.,0.142857142857143,0.714285714285714,                       81P    164
-3.14159265358979,3.14159265358979;                                   81P    165
128,1,1,1,1,0,0,1,0,0,-1.401,-1.401,1.401,1.401,-1.401,-1.401,        83P    166
1.401,1.401,1.,1.,1.,1.,-14.01,-14.01,10.,14.01,-14.01,10.,           83P    167
-14.01,14.01,10.,14.01,14.01,10.,-1.401,1.401,-1.401,1.401;           83P    168
128,1,1,1,1,0,0,1,0,0,-1.601,-1.601,1.601,1.601,-1.601,-1.601,        85P    169
1.601,1.601,1.,1.,1.,1.,16.01,-16.01,0.,-16.01,-16.01,0.,16.01,       85P    170
16.01,0.,-16.01,16.01,0.,-1.601,1.601,-1.601,1.601;                   85P    171
502,9,-16.,-1.95943487863577D-15,2.,-16.,-1.95943487863577D-15,       87P    172
0.,-14.,-1.71450551880629D-15,2.,11.1,1.35935794705356D-15,10.,       87P    173
11.1,1.35935794705356D-15,3.,6.5,7.9602041944578D-16,3.,-6.5,0.,      87P    174
3.,-6.5,-7.9602041944578D-16,0.,-14.,-1.71450551880629D-15,10.;       87P    175
504,13,45,87,1,87,1,47,87,1,87,2,49,87,2,87,2,51,87,3,87,3,53,        89P    176
87,4,87,4,55,87,4,87,5,57,87,5,87,5,59,87,6,87,7,61,87,7,87,6,        89P    177
63,87,7,87,8,65,87,8,87,8,67,87,9,87,9,69,87,9,87,3;                  89P    178
406,1,5HBody3;                                                        91P    179
314,62.7450980392157,62.7450980392157,62.7450980392157,13HSteel       93P    180
- Satin;                                                              93P    181
S      1G      3D     94P    181                                        T      1
