                                                                        S      1
,,10HMast 3 v11,10HMast 3 v11,7Hunknown,7Hunknown,32,38,7,99,15,,1.,2,2HG      1
MM,1,0.08,15H20201211.162441,0.01,10000.,7Hunknown,7Hunknown,11,0,15H201G      2
91213.214841;                                                           G      3
     186       1                                                00000000D      1
     186            -171       1       0                               0D      2
     514       2                                                00010000D      3
     514                       2       1                               0D      4
     510       4                                                00010000D      5
     510            -171       1       1                               0D      6
     510       5                                                00010000D      7
     510            -171       1       1                               0D      8
     510       6                                                00010000D      9
     510            -171       1       1                               0D     10
     510       7                                                00010000D     11
     510            -171       1       1                               0D     12
     510       8                                                00010000D     13
     510            -171       1       1                               0D     14
     510       9                                                00010000D     15
     510            -171       1       1                               0D     16
     510      10                                                00010000D     17
     510            -171       1       1                               0D     18
     510      11                                                00010000D     19
     510            -171       1       1                               0D     20
     510      12                                                00010000D     21
     510            -171       1       1                               0D     22
     510      13                                                00010000D     23
     510            -171       1       1                               0D     24
     510      14                                                00010000D     25
     510            -171       1       1                               0D     26
     510      15                                                00010000D     27
     510            -171       1       1                               0D     28
     510      16                                                00010000D     29
     510            -171       1       1                               0D     30
     510      17                                                00010000D     31
     510            -171       1       1                               0D     32
     508      18                                                00010000D     33
     508                       2       1                               0D     34
     508      20                                                00010000D     35
     508                       1       1                               0D     36
     508      21                                                00010000D     37
     508                       2       1                               0D     38
     508      23                                                00010000D     39
     508                       1       1                               0D     40
     508      24                                                00010000D     41
     508                       1       1                               0D     42
     508      25                                                00010000D     43
     508                       2       1                               0D     44
     508      27                                                00010000D     45
     508                       1       1                               0D     46
     508      28                                                00010000D     47
     508                       1       1                               0D     48
     508      29                                                00010000D     49
     508                       1       1                               0D     50
     508      30                                                00010000D     51
     508                       1       1                               0D     52
     508      31                                                00010000D     53
     508                       2       1                               0D     54
     508      33                                                00010000D     55
     508                       2       1                               0D     56
     508      35                                                00010000D     57
     508                       2       1                               0D     58
     508      37                                                00010000D     59
     508                       2       1                               0D     60
     508      39                                                00010000D     61
     508                       1       1                               0D     62
     508      40                                                00010000D     63
     508                       1       1                               0D     64
     508      41                                                00010000D     65
     508                       1       1                               0D     66
     508      42                                                00010000D     67
     508                       1       1                               0D     68
     126      43                                                00010000D     69
     126       0               9       0                               0D     70
     126      52                                                00010000D     71
     126       0               3       0                               0D     72
     126      55                                                00010000D     73
     126       0              14       0                               0D     74
     126      69                                                00010000D     75
     126       0              25       0                               0D     76
     126      94                                                00010000D     77
     126       0              13       0                               0D     78
     126     107                                                00010000D     79
     126       0               4       0                               0D     80
     126     111                                                00010000D     81
     126       0               3       0                               0D     82
     126     114                                                00010000D     83
     126       0               4       0                               0D     84
     126     118                                                00010000D     85
     126       0               2       0                               0D     86
     126     120                                                00010000D     87
     126       0               3       0                               0D     88
     126     123                                                00010000D     89
     126       0               3       0                               0D     90
     126     126                                                00010000D     91
     126       0               2       0                               0D     92
     126     128                                                00010000D     93
     126       0               4       0                               0D     94
     126     132                                                00010000D     95
     126       0               4       0                               0D     96
     126     136                                                00010000D     97
     126       0               3       0                               0D     98
     126     139                                                00010000D     99
     126       0               4       0                               0D    100
     126     143                                                00010000D    101
     126       0               3       0                               0D    102
     126     146                                                00010000D    103
     126       0               6       0                               0D    104
     126     152                                                00010000D    105
     126       0               6       0                               0D    106
     126     158                                                00010000D    107
     126       0               6       0                               0D    108
     126     164                                                00010000D    109
     126       0               6       0                               0D    110
     126     170                                                00010000D    111
     126       0               9       0                               0D    112
     126     179                                                00010000D    113
     126       0               2       0                               0D    114
     126     181                                                00010000D    115
     126       0               9       0                               0D    116
     126     190                                                00010000D    117
     126       0               9       0                               0D    118
     126     199                                                00010000D    119
     126       0               3       0                               0D    120
     126     202                                                00010000D    121
     126       0              11       0                               0D    122
     126     213                                                00010000D    123
     126       0              11       0                               0D    124
     126     224                                                00010000D    125
     126       0              10       0                               0D    126
     126     234                                                00010000D    127
     126       0               3       0                               0D    128
     126     237                                                00010000D    129
     126       0              10       0                               0D    130
     126     247                                                00010000D    131
     126       0               3       0                               0D    132
     126     250                                                00010000D    133
     126       0               3       0                               0D    134
     126     253                                                00010000D    135
     126       0               9       0                               0D    136
     128     262                                                00010000D    137
     128       0    -171      12       0                               0D    138
     128     274                                                00010000D    139
     128       0    -171       6       0                               0D    140
     128     280                                                00010000D    141
     128       0    -171       5       0                               0D    142
     128     285                                                00010000D    143
     128       0    -171       6       0                               0D    144
     128     291                                                00010000D    145
     128       0    -171       7       0                               0D    146
     128     298                                                00010000D    147
     128       0    -171       6       0                               0D    148
     128     304                                                00010000D    149
     128       0    -171      11       0                               0D    150
     128     315                                                00010000D    151
     128       0    -171       3       0                               0D    152
     128     318                                                00010000D    153
     128       0    -171      12       0                               0D    154
     128     330                                                00010000D    155
     128       0    -171       6       0                               0D    156
     128     336                                                00010000D    157
     128       0    -171      13       0                               0D    158
     128     349                                                00010000D    159
     128       0    -171      12       0                               0D    160
     128     361                                                00010000D    161
     128       0    -171       3       0                               0D    162
     128     364                                                00010000D    163
     128       0    -171       3       0                               0D    164
     502     367                                                00010000D    165
     502                      11       1                               0D    166
     504     378                                                00010001D    167
     504                      10       1                               0D    168
     406     388                                                00000000D    169
     406                       1      15                               0D    170
     314     389                                                00000200D    171
     314                       2       0                               0D    172
     314     391                                                00000200D    173
     314                       2       0                               0D    174
186,3,1,0,0,1,169;                                                     1P      1
514,14,5,1,7,1,9,1,11,1,13,1,15,1,17,1,19,1,21,1,23,1,25,1,27,1,       3P      2
29,1,31,1;                                                             3P      3
510,137,1,1,33;                                                        5P      4
510,139,1,1,35;                                                        7P      5
510,141,2,1,37,39;                                                     9P      6
510,143,1,1,41;                                                       11P      7
510,145,1,1,43;                                                       13P      8
510,147,1,1,45;                                                       15P      9
510,149,1,1,47;                                                       17P     10
510,151,2,1,49,51;                                                    19P     11
510,153,1,1,53;                                                       21P     12
510,155,1,1,55;                                                       23P     13
510,157,1,1,57;                                                       25P     14
510,159,1,1,59;                                                       27P     15
510,161,2,1,61,63;                                                    29P     16
510,163,2,1,65,67;                                                    31P     17
508,6,0,167,1,0,0,0,167,2,1,0,0,167,3,0,0,0,167,4,0,0,0,167,5,0,      33P     18
0,0,167,2,0,0;                                                        33P     19
508,4,0,167,6,0,0,0,167,7,0,0,0,167,8,0,0,0,167,9,0,0;                35P     20
508,6,0,167,10,0,0,0,167,9,1,0,0,167,11,0,0,0,167,12,0,0,0,167,       37P     21
13,0,0,0,167,14,0,0;                                                  37P     22
508,1,0,167,1,1,0;                                                    39P     23
508,4,0,167,15,0,0,0,167,12,1,0,0,167,16,0,0,0,167,17,0,0;            41P     24
508,5,0,167,18,0,0,0,167,16,1,0,0,167,11,1,0,0,167,8,1,0,0,167,       43P     25
19,0,0;                                                               43P     26
508,3,0,167,20,0,0,0,167,14,1,0,0,167,21,0,0;                         45P     27
508,4,0,167,22,0,0,0,167,23,1,0,0,167,24,1,0,0,167,23,0,0;            47P     28
508,1,0,167,24,0,0;                                                   49P     29
508,1,0,167,25,0,0;                                                   51P     30
508,8,0,167,25,1,0,0,167,26,1,0,0,167,19,1,0,0,167,7,1,0,0,167,       53P     31
27,1,0,0,167,17,1,0,0,167,18,1,0,0,167,26,0,0;                        53P     32
508,6,0,167,10,1,0,0,167,28,0,0,0,167,13,1,0,0,167,15,1,0,0,167,      55P     33
27,0,0,0,167,6,1,0;                                                   55P     34
508,6,0,167,29,0,0,0,167,30,1,0,0,167,21,1,0,0,167,28,1,0,0,167,      57P     35
20,1,0,0,167,30,0,0;                                                  57P     36
508,9,0,167,31,0,0,0,167,32,1,0,0,167,3,1,0,0,167,5,1,0,0,167,        59P     37
33,1,0,0,167,34,1,0,0,167,33,0,0,0,167,4,1,0,0,167,32,0,0;            59P     38
508,1,0,167,31,1,0;                                                   61P     39
508,1,0,167,29,1,0;                                                   63P     40
508,1,0,167,34,0,0;                                                   65P     41
508,1,0,167,22,1,0;                                                   67P     42
126,8,2,0,1,0,0,-3.14159265358979,-3.14159265358979,                  69P     43
-3.14159265358979,-1.5707963267949,-1.5707963267949,0.,0.,            69P     44
1.5707963267949,1.5707963267949,3.14159265358979,                     69P     45
3.14159265358979,3.14159265358979,1.,0.707106781186549,1.,            69P     46
0.707106781186549,1.,0.707106781186547,1.,0.707106781186548,1.,       69P     47
-16.,-2.5,10.,-16.,-2.5,12.5,-16.,1.53080849893419D-16,12.5,          69P     48
-16.,2.5,12.5,-16.,2.5,10.,-16.,2.5,7.5,-16.,                         69P     49
1.53080849893419D-16,7.5,-16.,-2.5,7.5,-16.,-2.5,10.,                 69P     50
-3.14159265358979,3.14159265358979,0.,0.,0.;                          69P     51
126,1,1,0,0,1,0,0.,0.,6.76206670701832,6.76206670701832,1.,1.,        71P     52
-16.,-2.5,10.,-32.9051667675458,-2.5,10.,0.,6.76206670701832,0.,      71P     53
0.,0.;                                                                71P     54
126,9,3,0,0,1,0,1.1305248421312,1.1305248421312,1.1305248421312,      73P     55
1.1305248421312,1.22473519304091,1.22473519304091,                    73P     56
1.31894554395062,1.31894554395062,1.41315600006278,                   73P     57
1.41315600006278,1.50736645617494,1.50736645617494,                   73P     58
1.50736645617494,1.50736645617494,1.,1.,1.,1.,1.,1.,1.,1.,1.,1.,      73P     59
-33.,0.,12.5,-33.,-0.314034503032365,12.5,-32.9950575252786,          73P     60
-0.648919034219004,12.4372155102071,-32.9771908588141,                73P     61
-1.26483203307735,12.1820438300359,-32.9645212876489,                 73P     62
-1.54587061579764,11.9896632901351,-32.9407136959841,                 73P     63
-1.98966353792144,11.5458703680113,-32.9280282239127,                 73P     64
-2.18204388642828,11.2648318952333,-32.9101251787927,                 73P     65
-2.43721541803219,10.648919258432,-32.9051667675458,-2.5,             73P     66
10.3140348537072,-32.9051667675458,-2.5,10.,1.1305248421312,          73P     67
1.50736645617494,0.,0.,0.;                                            73P     68
126,17,3,0,0,1,0,0.376841614043734,0.376841614043734,                 75P     69
0.376841614043734,0.376841614043734,0.471051964953444,                75P     70
0.471051964953444,0.565262315863154,0.565262315863154,                75P     71
0.659472771975311,0.659472771975311,0.753683228087469,                75P     72
0.753683228087469,0.847893684199626,0.847893684199626,                75P     73
0.942104140311784,0.942104140311784,1.03631449122149,                 75P     74
1.03631449122149,1.1305248421312,1.1305248421312,                     75P     75
1.1305248421312,1.1305248421312,1.,1.,1.,1.,1.,1.,1.,1.,1.,1.,        75P     76
1.,1.,1.,1.,1.,1.,1.,1.,-33.,6.93889390390723D-17,7.5,-33.,           75P     77
0.314034503032366,7.5,-32.9950575252786,0.648919034219004,            75P     78
7.56278448979292,-32.9771908588141,1.26483203307735,                  75P     79
7.81795616996409,-32.9645212876489,1.54587061579764,                  75P     80
8.0103367098649,-32.9407136959841,1.98966353792144,                   75P     81
8.4541296319887,-32.9280282239127,2.18204388642828,                   75P     82
8.73516810476665,-32.9101251787927,2.43721541803219,                  75P     83
9.35108074156803,-32.9051667675458,2.5,9.68596514629281,              75P     84
-32.9051667675458,2.5,10.3140348537072,-32.9101251787927,             75P     85
2.43721541803219,10.648919258432,-32.9280282239127,                   75P     86
2.18204388642828,11.2648318952333,-32.9407136959841,                  75P     87
1.98966353792144,11.5458703680113,-32.9645212876489,                  75P     88
1.54587061579764,11.9896632901351,-32.9771908588141,                  75P     89
1.26483203307735,12.1820438300359,-32.9950575252787,                  75P     90
0.648919034219003,12.4372155102071,-33.,0.314034503032366,12.5,       75P     91
-33.,1.38777878078145D-16,12.5,0.376841614043734,                     75P     92
1.1305248421312,0.,0.,0.;                                             75P     93
126,9,3,0,0,1,0,0.,0.,0.,0.,0.0942104561121574,                       77P     94
0.0942104561121574,0.188420912224315,0.188420912224315,               77P     95
0.282631263134025,0.282631263134025,0.376841614043734,                77P     96
0.376841614043734,0.376841614043734,0.376841614043734,1.,1.,1.,       77P     97
1.,1.,1.,1.,1.,1.,1.,-32.9051667675458,-2.5,10.,                      77P     98
-32.9051667675458,-2.5,9.68596514629281,-32.9101251787927,            77P     99
-2.43721541803219,9.35108074156803,-32.9280282239127,                 77P    100
-2.18204388642828,8.73516810476665,-32.9407136959841,                 77P    101
-1.98966353792144,8.4541296319887,-32.9645212876489,                  77P    102
-1.54587061579764,8.0103367098649,-32.9771908588141,                  77P    103
-1.26483203307735,7.81795616996409,-32.9950575252786,                 77P    104
-0.648919034219004,7.56278448979292,-33.,-0.314034503032365,7.5,      77P    105
-33.,2.77555756156289D-16,7.5,0.,0.376841614043734,0.,0.,0.;          77P    106
126,1,1,0,0,1,0,-2.18896499596024,-2.18896499596024,                  79P    107
-0.811035004039762,-0.811035004039762,1.,1.,-29.5918177149643,        79P    108
-4.93196961916072,15.,-16.,-2.66666666666667,15.,                     79P    109
-2.18896499596024,-0.811035004039762,0.,0.,0.;                        79P    110
126,1,1,0,0,1,0,0.7,0.7,1.5,1.5,1.,1.,-29.5918177149643,              81P    111
-4.93196961916072,7.,-29.5918177149643,-4.93196961916072,15.,         81P    112
0.7,1.5,0.,0.,0.;                                                     81P    113
126,1,1,0,0,1,0,-1.41931125706958,-1.41931125706958,                  83P    114
-0.0413812651491099,-0.0413812651491099,1.,1.,-16.,                   83P    115
-2.66666666666667,7.,-29.5918177149643,-4.93196961916072,7.,          83P    116
-1.41931125706958,-0.0413812651491099,0.,0.,0.;                       83P    117
126,1,1,0,0,1,0,0.,0.,0.8,0.8,1.,1.,-16.,-2.66666666666667,15.,       85P    118
-16.,-2.66666666666667,7.,0.,0.8,0.,0.,0.;                            85P    119
126,1,1,0,0,1,0,-0.4,-0.4,-0.387104884142327,-0.387104884142327,      87P    120
1.,1.,-16.,-2.66666666666667,15.,-16.,-2.53771550808994,15.,          87P    121
-0.4,-0.387104884142327,0.,0.,0.;                                     87P    122
126,1,1,0,0,1,0,-0.533333333333333,-0.533333333333333,0.,0.,1.,       89P    123
1.,-16.,2.66666666666667,7.,-16.,-2.66666666666667,7.,                89P    124
-0.533333333333333,0.,0.,0.,0.;                                       89P    125
126,1,1,0,0,1,0,0.,0.,0.8,0.8,1.,1.,-16.,2.66666666666667,15.,        91P    126
-16.,2.66666666666667,7.,0.,0.8,0.,0.,0.;                             91P    127
126,1,1,0,0,1,0,0.120438217475661,0.120438217475661,                  93P    128
0.133333333333333,0.133333333333333,1.,1.,-16.,2.53771550808994,      93P    129
15.,-16.,2.66666666666667,15.,0.120438217475661,                      93P    130
0.133333333333333,0.,0.,0.;                                           93P    131
126,1,1,0,0,1,0,0.0128951158576727,0.0128951158576727,                95P    132
0.520438217475661,0.520438217475661,1.,1.,-16.,                       95P    133
-2.53771550808994,15.,-16.,2.53771550808994,15.,                      95P    134
0.0128951158576727,0.520438217475661,0.,0.,0.;                        95P    135
126,1,1,0,0,1,0,0.122070008079525,0.122070008079525,1.5,1.5,1.,       97P    136
1.,-16.,2.66666666666667,15.,-29.5918177149643,4.93196961916072,      97P    137
15.,0.122070008079525,1.5,0.,0.,0.;                                   97P    138
126,1,1,0,0,1,0,0.0413812651491098,0.0413812651491098,                99P    139
1.41931125706958,1.41931125706958,1.,1.,-29.5918177149643,            99P    140
4.93196961916072,7.,-16.,2.66666666666667,7.,0.0413812651491098,      99P    141
1.41931125706958,0.,0.,0.;                                            99P    142
126,1,1,0,0,1,0,-1.5,-1.5,-0.7,-0.7,1.,1.,-29.5918177149643,         101P    143
4.93196961916072,15.,-29.5918177149643,4.93196961916072,7.,-1.5,     101P    144
-0.7,0.,0.,0.;                                                       101P    145
126,2,2,0,0,0,0,2.97644397617517,2.97644397617517,                   103P    146
2.97644397617517,3.14159265358979,3.14159265358979,                  103P    147
3.14159265358979,1.,0.996592676029653,1.,-29.5918177149643,          103P    148
4.93196961916072,7.,-30.,2.48287590894663,7.,-30.,                   103P    149
3.67394039744206D-15,7.,2.97644397617517,3.14159265358979,0.,0.,     103P    150
0.;                                                                  103P    151
126,2,2,0,0,0,0,3.14159265358979,3.14159265358979,                   105P    152
3.14159265358979,3.30674133100442,3.30674133100442,                  105P    153
3.30674133100442,1.,0.996592676029652,1.,-30.,                       105P    154
3.67394039744206D-15,7.,-30.,-2.48287590894663,7.,                   105P    155
-29.5918177149643,-4.93196961916072,7.,3.14159265358979,             105P    156
3.30674133100442,0.,0.,0.;                                           105P    157
126,2,2,0,0,0,0,-3.29888960592804,-3.29888960592804,                 107P    158
-3.29888960592804,-3.14159265358979,-3.14159265358979,               107P    159
-3.14159265358979,1.,0.996908802495879,1.,-16.,                      107P    160
-2.53771550808993,15.,-16.2,-1.27673885810735,15.,-16.2,             107P    161
1.98392781461871D-15,15.,-3.29888960592804,-3.14159265358979,0.,     107P    162
0.,0.;                                                               107P    163
126,2,2,0,0,0,0,-3.14159265358979,-3.14159265358979,                 109P    164
-3.14159265358979,-2.98429570125154,-2.98429570125154,               109P    165
-2.98429570125154,1.,0.996908802495879,1.,-16.2,                     109P    166
1.98392781461871D-15,15.,-16.2,1.27673885810736,15.,-16.,            109P    167
2.53771550808994,15.,-3.14159265358979,-2.98429570125154,0.,0.,      109P    168
0.;                                                                  109P    169
126,8,2,0,1,0,0,-3.14159265358979,-3.14159265358979,                 111P    170
-3.14159265358979,-1.5707963267949,-1.5707963267949,0.,0.,           111P    171
1.5707963267949,1.5707963267949,3.14159265358979,                    111P    172
3.14159265358979,3.14159265358979,1.,0.707106781186548,1.,           111P    173
0.707106781186548,1.,0.707106781186548,1.,0.707106781186548,1.,      111P    174
-32.,-3.91886975727153D-15,0.,-32.,-32.,0.,1.95943487863577D-15,     111P    175
-32.,0.,32.,-32.,0.,32.,0.,0.,32.,32.,0.,1.95943487863577D-15,       111P    176
32.,0.,-32.,32.,0.,-32.,3.91886975727153D-15,0.,                     111P    177
-3.14159265358979,3.14159265358979,0.,0.,0.;                         111P    178
126,1,1,0,0,1,0,0.,0.,0.0625,0.0625,1.,1.,-32.,0.,0.,-32.,0.,2.,     113P    179
0.,0.0625,0.,0.,0.;                                                  113P    180
126,8,2,0,1,0,0,-3.14159265358979,-3.14159265358979,                 115P    181
-3.14159265358979,-1.5707963267949,-1.5707963267949,0.,0.,           115P    182
1.5707963267949,1.5707963267949,3.14159265358979,                    115P    183
3.14159265358979,3.14159265358979,1.,0.707106781186548,1.,           115P    184
0.707106781186548,1.,0.707106781186548,1.,0.707106781186548,1.,      115P    185
-32.,-3.91886975727153D-15,2.,-32.,-32.,2.,1.95943487863577D-15,     115P    186
-32.,2.,32.,-32.,2.,32.,0.,2.,32.,32.,2.,1.95943487863577D-15,       115P    187
32.,2.,-32.,32.,2.,-32.,3.91886975727153D-15,2.,                     115P    188
-3.14159265358979,3.14159265358979,0.,0.,0.;                         115P    189
126,8,2,0,1,0,0,-3.14159265358979,-3.14159265358979,                 117P    190
-3.14159265358979,-1.5707963267949,-1.5707963267949,0.,0.,           117P    191
1.5707963267949,1.5707963267949,3.14159265358979,                    117P    192
3.14159265358979,3.14159265358979,1.,0.707106781186548,1.,           117P    193
0.707106781186548,1.,0.707106781186548,1.,0.707106781186548,1.,      117P    194
-30.,3.67394039744206D-15,2.,-30.,30.,2.,1.83697019872103D-15,       117P    195
30.,2.,30.,30.,2.,30.,0.,2.,30.,-30.,2.,1.83697019872103D-15,        117P    196
-30.,2.,-30.,-30.,2.,-30.,-3.67394039744206D-15,2.,                  117P    197
-3.14159265358979,3.14159265358979,0.,0.,0.;                         117P    198
126,1,1,0,0,1,0,0.0666666666666667,0.0666666666666667,               119P    199
0.233333333333333,0.233333333333333,1.,1.,-30.,0.,2.,-30.,0.,7.,     119P    200
0.0666666666666667,0.233333333333333,0.,0.,0.;                       119P    201
126,8,2,0,0,0,0,-2.97644397617517,-2.97644397617517,                 121P    202
-2.97644397617517,-1.48822198808758,-1.48822198808758,0.,0.,         121P    203
1.48822198808758,1.48822198808758,2.97644397617517,                  121P    204
2.97644397617517,2.97644397617517,1.,0.73569033279801,1.,            121P    205
0.73569033279801,1.,0.73569033279801,1.,0.73569033279801,1.,         121P    206
-29.5918177149643,-4.93196961916072,15.,-25.0511681073064,           121P    207
-32.1758672651082,15.,2.47441594634679,-29.8977802808915,15.,        121P    208
30.,-27.6196932966748,15.,30.,0.,15.,30.,27.6196932966748,15.,       121P    209
2.47441594634679,29.8977802808915,15.,-25.0511681073064,             121P    210
32.1758672651082,15.,-29.5918177149643,4.93196961916072,15.,         121P    211
-2.97644397617517,2.97644397617517,0.,0.,0.;                         121P    212
126,8,2,0,0,0,0,-2.98429570125154,-2.98429570125154,                 123P    213
-2.98429570125154,-1.49214785062577,-1.49214785062577,0.,0.,         123P    214
1.49214785062577,1.49214785062577,2.98429570125154,                  123P    215
2.98429570125154,2.98429570125154,1.,0.7343593875385,1.,             123P    216
0.734359387538499,1.,0.734359387538499,1.,0.7343593875385,1.,        123P    217
-16.,2.53771550808994,15.,-13.6544155877284,17.3263513802775,        123P    218
15.,1.2727922061358,16.1499226004337,15.,16.2,14.9734938205899,      123P    219
15.,16.2,0.,15.,16.2,-14.9734938205899,15.,1.2727922061358,          123P    220
-16.1499226004337,15.,-13.6544155877284,-17.3263513802775,15.,       123P    221
-16.,-2.53771550808994,15.,-2.98429570125154,2.98429570125154,       123P    222
0.,0.,0.;                                                            123P    223
126,8,2,0,1,0,0,-3.14159265358979,-3.14159265358979,                 125P    224
-3.14159265358979,-1.5707963267949,-1.5707963267949,0.,0.,           125P    225
1.5707963267949,1.5707963267949,3.14159265358979,                    125P    226
3.14159265358979,3.14159265358979,1.,0.707106781186547,1.,           125P    227
0.707106781186547,1.,0.707106781186547,1.,0.707106781186547,1.,      125P    228
-16.2,1.98392781461871D-15,17.,-16.2,16.2,17.,                       125P    229
9.91963907309356D-16,16.2,17.,16.2,16.2,17.,16.2,0.,17.,16.2,        125P    230
-16.2,17.,9.91963907309356D-16,-16.2,17.,-16.2,-16.2,17.,-16.2,      125P    231
-1.98392781461871D-15,17.,-3.14159265358979,3.14159265358979,0.,     125P    232
0.,0.;                                                               125P    233
126,1,1,0,0,1,0,-1.04938271604938,-1.04938271604938,                 127P    234
-0.925925925925926,-0.925925925925926,1.,1.,-16.2,0.,17.,-16.2,      127P    235
0.,15.,-1.04938271604938,-0.925925925925926,0.,0.,0.;                127P    236
126,8,2,0,1,0,0,-3.14159265358979,-3.14159265358979,                 129P    237
-3.14159265358979,-1.5707963267949,-1.5707963267949,0.,0.,           129P    238
1.5707963267949,1.5707963267949,3.14159265358979,                    129P    239
3.14159265358979,3.14159265358979,1.,0.707106781186548,1.,           129P    240
0.707106781186548,1.,0.707106781186548,1.,0.707106781186548,1.,      129P    241
-33.,-4.04133443718627D-15,17.,-33.,-33.,17.,                        129P    242
2.02066721859313D-15,-33.,17.,33.,-33.,17.,33.,0.,17.,33.,33.,       129P    243
17.,2.02066721859313D-15,33.,17.,-33.,33.,17.,-33.,                  129P    244
4.04133443718627D-15,17.,-3.14159265358979,3.14159265358979,0.,      129P    245
0.,0.;                                                               129P    246
126,1,1,0,0,1,0,-0.515151515151515,-0.515151515151515,               131P    247
-0.378787878787879,-0.378787878787879,1.,1.,-33.,0.,17.,-33.,0.,     131P    248
12.5,-0.515151515151515,-0.378787878787879,0.,0.,0.;                 131P    249
126,1,1,0,0,1,0,-0.227272727272727,-0.227272727272727,0.,0.,1.,      133P    250
1.,-33.,1.38777878078145D-16,7.5,-33.,0.,0.,-0.227272727272727,      133P    251
0.,0.,0.,0.;                                                         133P    252
126,8,2,0,1,0,0,-3.14159265358979,-3.14159265358979,                 135P    253
-3.14159265358979,-1.5707963267949,-1.5707963267949,0.,0.,           135P    254
1.5707963267949,1.5707963267949,3.14159265358979,                    135P    255
3.14159265358979,3.14159265358979,1.,0.707106781186548,1.,           135P    256
0.707106781186548,1.,0.707106781186548,1.,0.707106781186548,1.,      135P    257
-33.,-4.04133443718627D-15,0.,-33.,-33.,0.,2.02066721859313D-15,     135P    258
-33.,0.,33.,-33.,0.,33.,0.,0.,33.,33.,0.,2.02066721859313D-15,       135P    259
33.,0.,-33.,33.,0.,-33.,4.04133443718627D-15,0.,                     135P    260
-3.14159265358979,3.14159265358979,0.,0.,0.;                         135P    261
128,1,8,1,2,0,1,0,0,1,0.,0.,6.8,6.8,-3.14159265358979,               137P    262
-3.14159265358979,-3.14159265358979,-1.5707963267949,                137P    263
-1.5707963267949,0.,0.,1.5707963267949,1.5707963267949,              137P    264
3.14159265358979,3.14159265358979,3.14159265358979,1.,1.,            137P    265
0.707106781186548,0.707106781186548,1.,1.,0.707106781186548,         137P    266
0.707106781186548,1.,1.,0.707106781186548,0.707106781186548,1.,      137P    267
1.,0.707106781186548,0.707106781186548,1.,1.,-16.,-2.5,10.,-33.,     137P    268
-2.5,10.,-16.,-2.5,12.5,-33.,-2.5,12.5,-16.,0.,12.5,-33.,0.,         137P    269
12.5,-16.,2.5,12.5,-33.,2.5,12.5,-16.,2.5,10.,-33.,2.5,10.,-16.,     137P    270
2.5,7.5,-33.,2.5,7.5,-16.,0.,7.5,-33.,0.,7.5,-16.,-2.5,7.5,-33.,     137P    271
-2.5,7.5,-16.,-2.5,10.,-33.,-2.5,10.,0.,6.8,-3.14159265358979,       137P    272
3.14159265358979;                                                    137P    273
128,1,1,1,1,0,0,1,0,0,-0.001,-0.001,1.37892999192048,                139P    274
1.37892999192048,-0.001,-0.001,0.801,0.801,1.,1.,1.,1.,              139P    275
-15.9901360607617,-2.66502267679361,15.01,-29.6016816542026,         139P    276
-4.93361360903377,15.01,-15.9901360607617,-2.66502267679361,         139P    277
6.99,-29.6016816542026,-4.93361360903377,6.99,-0.001,                139P    278
1.37892999192048,-0.001,0.801;                                       139P    279
128,1,1,1,1,0,0,1,0,0,-0.001,-0.001,0.534333333333333,               141P    280
0.534333333333333,-0.001,-0.001,0.801,0.801,1.,1.,1.,1.,-16.,        141P    281
2.67666666666667,15.01,-16.,-2.67666666666667,15.01,-16.,            141P    282
2.67666666666667,6.99,-16.,-2.67666666666667,6.99,-0.001,            141P    283
0.534333333333333,-0.001,0.801;                                      141P    284
128,1,1,1,1,0,0,1,0,0,-0.001,-0.001,1.37892999192048,                143P    285
1.37892999192048,-0.001,-0.001,0.801,0.801,1.,1.,1.,1.,              143P    286
-29.6016816542026,4.93361360903377,15.01,-15.9901360607617,          143P    287
2.66502267679361,15.01,-29.6016816542026,4.93361360903377,6.99,      143P    288
-15.9901360607617,2.66502267679361,6.99,-0.001,1.37892999192048,     143P    289
-0.001,0.801;                                                        143P    290
128,1,1,1,1,0,0,1,0,0,-3.04238126514911,-3.04238126514911,           145P    291
-1.599,-1.599,-0.494196961916072,-0.494196961916072,                 145P    292
0.494196961916072,0.494196961916072,1.,1.,1.,1.,                     145P    293
-30.4238126514911,4.94196961916072,7.,-15.99,4.94196961916072,       145P    294
7.,-30.4238126514911,-4.94196961916072,7.,-15.99,                    145P    295
-4.94196961916072,7.,-3.04238126514911,-1.599,                       145P    296
-0.494196961916072,0.494196961916072;                                145P    297
128,1,1,1,1,0,0,1,0,0,-1.64125,-1.64125,-1.599,-1.599,               147P    298
-0.254771550808994,-0.254771550808994,0.254771550808994,             147P    299
0.254771550808994,1.,1.,1.,1.,-15.99,2.54771550808994,15.,           147P    300
-16.4125,2.54771550808994,15.,-15.99,-2.54771550808994,15.,          147P    301
-16.4125,-2.54771550808994,15.,-1.64125,-1.599,                      147P    302
-0.254771550808994,0.254771550808994;                                147P    303
128,1,8,1,2,0,1,0,0,1,0.,0.,0.0625,0.0625,-3.14159265358979,         149P    304
-3.14159265358979,-3.14159265358979,-1.5707963267949,                149P    305
-1.5707963267949,0.,0.,1.5707963267949,1.5707963267949,              149P    306
3.14159265358979,3.14159265358979,3.14159265358979,1.,1.,            149P    307
0.707106781186548,0.707106781186548,1.,1.,0.707106781186548,         149P    308
0.707106781186548,1.,1.,0.707106781186548,0.707106781186548,1.,      149P    309
1.,0.707106781186548,0.707106781186548,1.,1.,-32.,0.,0.,-32.,0.,     149P    310
2.,-32.,-32.,0.,-32.,-32.,2.,0.,-32.,0.,0.,-32.,2.,32.,-32.,0.,      149P    311
32.,-32.,2.,32.,0.,0.,32.,0.,2.,32.,32.,0.,32.,32.,2.,0.,32.,0.,     149P    312
0.,32.,2.,-32.,32.,0.,-32.,32.,2.,-32.,0.,0.,-32.,0.,2.,0.,          149P    313
0.0625,-3.14159265358979,3.14159265358979;                           149P    314
128,1,1,1,1,0,0,1,0,0,-3.201,-3.201,3.201,3.201,-3.201,-3.201,       151P    315
3.201,3.201,1.,1.,1.,1.,32.01,-32.01,2.,-32.01,-32.01,2.,32.01,      151P    316
32.01,2.,-32.01,32.01,2.,-3.201,3.201,-3.201,3.201;                  151P    317
128,1,8,1,2,0,1,0,0,1,0.0666666666666667,0.0666666666666667,0.5,     153P    318
0.5,-3.14159265358979,-3.14159265358979,-3.14159265358979,           153P    319
-1.5707963267949,-1.5707963267949,0.,0.,1.5707963267949,             153P    320
1.5707963267949,3.14159265358979,3.14159265358979,                   153P    321
3.14159265358979,1.,1.,0.707106781186548,0.707106781186548,1.,       153P    322
1.,0.707106781186548,0.707106781186548,1.,1.,0.707106781186548,      153P    323
0.707106781186548,1.,1.,0.707106781186548,0.707106781186548,1.,      153P    324
1.,-30.,0.,2.,-30.,0.,15.,-30.,-30.,2.,-30.,-30.,15.,0.,-30.,2.,     153P    325
0.,-30.,15.,30.,-30.,2.,30.,-30.,15.,30.,0.,2.,30.,0.,15.,30.,       153P    326
30.,2.,30.,30.,15.,0.,30.,2.,0.,30.,15.,-30.,30.,2.,-30.,30.,        153P    327
15.,-30.,0.,2.,-30.,0.,15.,0.0666666666666667,0.5,                   153P    328
-3.14159265358979,3.14159265358979;                                  153P    329
128,1,1,1,1,0,0,1,0,0,-2.96018177149643,-2.96018177149643,3.001,     155P    330
3.001,-3.21858672651082,-3.21858672651082,3.21858672651082,          155P    331
3.21858672651082,1.,1.,1.,1.,30.01,-32.1858672651082,15.,            155P    332
-29.6018177149643,-32.1858672651082,15.,30.01,32.1858672651082,      155P    333
15.,-29.6018177149643,32.1858672651082,15.,-2.96018177149643,        155P    334
3.001,-3.21858672651082,3.21858672651082;                            155P    335
128,1,8,1,2,0,1,0,0,1,0.925925925925926,0.925925925925926,           157P    336
1.04938271604938,1.04938271604938,-3.14159265358979,                 157P    337
-3.14159265358979,-3.14159265358979,-1.5707963267949,                157P    338
-1.5707963267949,0.,0.,1.5707963267949,1.5707963267949,              157P    339
3.14159265358979,3.14159265358979,3.14159265358979,1.,1.,            157P    340
0.707106781186548,0.707106781186548,1.,1.,0.707106781186548,         157P    341
0.707106781186548,1.,1.,0.707106781186548,0.707106781186548,1.,      157P    342
1.,0.707106781186548,0.707106781186548,1.,1.,-16.2,0.,15.,-16.2,     157P    343
0.,17.,-16.2,-16.2,15.,-16.2,-16.2,17.,0.,-16.2,15.,0.,-16.2,        157P    344
17.,16.2,-16.2,15.,16.2,-16.2,17.,16.2,0.,15.,16.2,0.,17.,16.2,      157P    345
16.2,15.,16.2,16.2,17.,0.,16.2,15.,0.,16.2,17.,-16.2,16.2,15.,       157P    346
-16.2,16.2,17.,-16.2,0.,15.,-16.2,0.,17.,0.925925925925926,          157P    347
1.04938271604938,-3.14159265358979,3.14159265358979;                 157P    348
128,1,8,1,2,0,1,0,0,1,0.,0.,0.515151515151515,0.515151515151515,     159P    349
-3.14159265358979,-3.14159265358979,-3.14159265358979,               159P    350
-1.5707963267949,-1.5707963267949,0.,0.,1.5707963267949,             159P    351
1.5707963267949,3.14159265358979,3.14159265358979,                   159P    352
3.14159265358979,1.,1.,0.707106781186548,0.707106781186548,1.,       159P    353
1.,0.707106781186548,0.707106781186548,1.,1.,0.707106781186548,      159P    354
0.707106781186548,1.,1.,0.707106781186548,0.707106781186548,1.,      159P    355
1.,-33.,0.,17.,-33.,0.,0.,-33.,-33.,17.,-33.,-33.,0.,0.,-33.,        159P    356
17.,0.,-33.,0.,33.,-33.,17.,33.,-33.,0.,33.,0.,17.,33.,0.,0.,        159P    357
33.,33.,17.,33.,33.,0.,0.,33.,17.,0.,33.,0.,-33.,33.,17.,-33.,       159P    358
33.,0.,-33.,0.,17.,-33.,0.,0.,0.,0.515151515151515,                  159P    359
-3.14159265358979,3.14159265358979;                                  159P    360
128,1,1,1,1,0,0,1,0,0,-3.301,-3.301,3.301,3.301,-3.301,-3.301,       161P    361
3.301,3.301,1.,1.,1.,1.,-33.01,-33.01,17.,33.01,-33.01,17.,          161P    362
-33.01,33.01,17.,33.01,33.01,17.,-3.301,3.301,-3.301,3.301;          161P    363
128,1,1,1,1,0,0,1,0,0,-3.301,-3.301,3.301,3.301,-3.301,-3.301,       163P    364
3.301,3.301,1.,1.,1.,1.,33.01,-33.01,0.,-33.01,-33.01,0.,33.01,      163P    365
33.01,0.,-33.01,33.01,0.,-3.301,3.301,-3.301,3.301;                  163P    366
502,22,-16.,-2.5,10.,-32.9051667675458,-2.5,10.,-33.,0.,12.5,        165P    367
-33.,1.38777878078145D-16,7.5,-29.5918177149643,                     165P    368
-4.93196961916072,15.,-16.,-2.66666666666667,15.,                    165P    369
-29.5918177149643,-4.93196961916072,7.,-16.,-2.66666666666667,       165P    370
7.,-16.,-2.53771550808994,15.,-16.,2.66666666666667,7.,-16.,         165P    371
2.66666666666667,15.,-16.,2.53771550808994,15.,                      165P    372
-29.5918177149643,4.93196961916072,15.,-29.5918177149643,            165P    373
4.93196961916072,7.,-30.,0.,7.,-16.2,0.,15.,-32.,                    165P    374
-3.91886975727153D-15,0.,-32.,-3.91886975727153D-15,2.,-30.,         165P    375
-3.67394039744206D-15,2.,-16.2,-1.98392781461871D-15,17.,-33.,       165P    376
-4.04133443718627D-15,17.,-33.,-4.04133443718627D-15,0.;             165P    377
504,34,69,165,1,165,1,71,165,1,165,2,73,165,3,165,2,75,165,4,        167P    378
165,3,77,165,2,165,4,79,165,5,165,6,81,165,7,165,5,83,165,8,165,     167P    379
7,85,165,6,165,8,87,165,6,165,9,89,165,10,165,8,91,165,11,165,       167P    380
10,93,165,12,165,11,95,165,9,165,12,97,165,11,165,13,99,165,14,      167P    381
165,10,101,165,13,165,14,103,165,14,165,15,105,165,15,165,7,107,     167P    382
165,9,165,16,109,165,16,165,12,111,165,17,165,17,113,165,17,165,     167P    383
18,115,165,18,165,18,117,165,19,165,19,119,165,19,165,15,121,        167P    384
165,5,165,13,123,165,12,165,9,125,165,20,165,20,127,165,20,165,      167P    385
16,129,165,21,165,21,131,165,21,165,3,133,165,4,165,22,135,165,      167P    386
22,165,22;                                                           167P    387
406,1,5HBody1;                                                       169P    388
314,98.4313725490196,98.0392156862745,96.078431372549,25HPaint -     171P    389
 Metallic (Silver);                                                  171P    390
314,62.7450980392157,62.7450980392157,62.7450980392157,13HSteel      173P    391
- Satin;                                                             173P    392
S      1G      3D    174P    392                                        T      1
