                                                                        S      1
,,9HBague Sup,9HBague Sup,7Hunknown,7Hunknown,32,38,7,99,15,,1.,2,2HMM, G      1
1,0.08,15H20201205.175552,0.01,10000.,7Hunknown,7Hunknown,11,0,;        G      2
     186       1                                                00000000D      1
     186             -51       1       0                               0D      2
     514       2                                                00010000D      3
     514                       1       1                               0D      4
     510       3                                                00010000D      5
     510             -51       1       1                               0D      6
     510       4                                                00010000D      7
     510             -51       1       1                               0D      8
     510       5                                                00010000D      9
     510             -51       1       1                               0D     10
     510       6                                                00010000D     11
     510             -51       1       1                               0D     12
     508       7                                                00010000D     13
     508                       1       1                               0D     14
     508       8                                                00010000D     15
     508                       1       1                               0D     16
     508       9                                                00010000D     17
     508                       1       1                               0D     18
     508      10                                                00010000D     19
     508                       1       1                               0D     20
     508      11                                                00010000D     21
     508                       1       1                               0D     22
     508      12                                                00010000D     23
     508                       1       1                               0D     24
     126      13                                                00010000D     25
     126       0               8       0                               0D     26
     126      21                                                00010000D     27
     126       0               2       0                               0D     28
     126      23                                                00010000D     29
     126       0               8       0                               0D     30
     126      31                                                00010000D     31
     126       0               8       0                               0D     32
     126      39                                                00010000D     33
     126       0               2       0                               0D     34
     126      41                                                00010000D     35
     126       0               8       0                               0D     36
     128      49                                                00010000D     37
     128       0     -51      12       0                               0D     38
     128      61                                                00010000D     39
     128       0     -51      11       0                               0D     40
     128      72                                                00010000D     41
     128       0     -51       3       0                               0D     42
     128      75                                                00010000D     43
     128       0     -51       3       0                               0D     44
     502      78                                                00010000D     45
     502                       1       1                               0D     46
     504      79                                                00010001D     47
     504                       2       1                               0D     48
     406      81                                                00000000D     49
     406                       1      15                               0D     50
     314      82                                                00000200D     51
     314                       2       0                               0D     52
     314      84                                                00000200D     53
     314                       2       0                               0D     54
186,3,1,0,0,1,49;                                                      1P      1
514,4,5,1,7,1,9,1,11,1;                                                3P      2
510,37,1,1,13;                                                         5P      3
510,39,1,1,15;                                                         7P      4
510,41,2,1,17,19;                                                      9P      5
510,43,2,1,21,23;                                                     11P      6
508,4,0,47,1,0,0,0,47,2,1,0,0,47,3,1,0,0,47,2,0,0;                    13P      7
508,4,0,47,4,0,0,0,47,5,1,0,0,47,6,1,0,0,47,5,0,0;                    15P      8
508,1,0,47,4,1,0;                                                     17P      9
508,1,0,47,1,1,0;                                                     19P     10
508,1,0,47,6,0,0;                                                     21P     11
508,1,0,47,3,0,0;                                                     23P     12
126,8,2,0,1,0,0,-3.14159265358979,-3.14159265358979,                  25P     13
-3.14159265358979,-1.5707963267949,-1.5707963267949,0.,0.,            25P     14
1.5707963267949,1.5707963267949,3.14159265358979,                     25P     15
3.14159265358979,3.14159265358979,1.,0.707106781186554,1.,            25P     16
0.707106781186554,1.,0.707106781186554,1.,0.707106781186554,1.,       25P     17
-2.1,70.,6.,-2.1,72.1,6.,1.28587913910472D-16,72.1,6.,2.1,72.1,       25P     18
6.,2.1,70.,6.,2.1,67.9,6.,1.28587913910472D-16,67.9,6.,-2.1,          25P     19
67.9,6.,-2.1,70.,6.,-3.14159265358979,3.14159265358979,0.,0.,0.;      25P     20
126,1,1,0,0,1,0,-2.85714285714286,-2.85714285714286,0.,0.,1.,1.,      27P     21
-2.1,70.,6.,-2.1,70.,0.,-2.85714285714286,0.,0.,0.,0.;                27P     22
126,8,2,0,1,0,0,-3.14159265358979,-3.14159265358979,                  29P     23
-3.14159265358979,-1.5707963267949,-1.5707963267949,0.,0.,            29P     24
1.5707963267949,1.5707963267949,3.14159265358979,                     29P     25
3.14159265358979,3.14159265358979,1.,0.707106781186554,1.,            29P     26
0.707106781186554,1.,0.707106781186554,1.,0.707106781186554,1.,       29P     27
-2.1,70.,0.,-2.1,72.1,0.,1.28587913910472D-16,72.1,0.,2.1,72.1,       29P     28
0.,2.1,70.,0.,2.1,67.9,0.,1.28587913910472D-16,67.9,0.,-2.1,          29P     29
67.9,0.,-2.1,70.,0.,-3.14159265358979,3.14159265358979,0.,0.,0.;      29P     30
126,8,2,0,1,0,0,-3.14159265358979,-3.14159265358979,                  31P     31
-3.14159265358979,-1.5707963267949,-1.5707963267949,0.,0.,            31P     32
1.5707963267949,1.5707963267949,3.14159265358979,                     31P     33
3.14159265358979,3.14159265358979,1.,0.707106781186548,1.,            31P     34
0.707106781186548,1.,0.707106781186548,1.,0.707106781186548,1.,       31P     35
-4.,70.,6.,-4.,66.,6.,2.44929359829471D-16,66.,6.,4.,66.,6.,4.,       31P     36
70.,6.,4.,74.,6.,2.44929359829471D-16,74.,6.,-4.,74.,6.,-4.,70.,      31P     37
6.,-3.14159265358979,3.14159265358979,0.,0.,0.;                       31P     38
126,1,1,0,0,1,0,-1.5,-1.5,0.,0.,1.,1.,-4.,70.,6.,-4.,70.,0.,          33P     39
-1.5,0.,0.,0.,0.;                                                     33P     40
126,8,2,0,1,0,0,-3.14159265358979,-3.14159265358979,                  35P     41
-3.14159265358979,-1.5707963267949,-1.5707963267949,0.,0.,            35P     42
1.5707963267949,1.5707963267949,3.14159265358979,                     35P     43
3.14159265358979,3.14159265358979,1.,0.707106781186548,1.,            35P     44
0.707106781186548,1.,0.707106781186548,1.,0.707106781186548,1.,       35P     45
-4.,70.,0.,-4.,66.,0.,2.44929359829471D-16,66.,0.,4.,66.,0.,4.,       35P     46
70.,0.,4.,74.,0.,2.44929359829471D-16,74.,0.,-4.,74.,0.,-4.,70.,      35P     47
0.,-3.14159265358979,3.14159265358979,0.,0.,0.;                       35P     48
128,1,8,1,2,0,1,0,0,1,0.,0.,2.85714285714286,2.85714285714286,        37P     49
-3.14159265358979,-3.14159265358979,-3.14159265358979,                37P     50
-1.5707963267949,-1.5707963267949,0.,0.,1.5707963267949,              37P     51
1.5707963267949,3.14159265358979,3.14159265358979,                    37P     52
3.14159265358979,1.,1.,0.707106781186548,0.707106781186548,1.,        37P     53
1.,0.707106781186548,0.707106781186548,1.,1.,0.707106781186548,       37P     54
0.707106781186548,1.,1.,0.707106781186548,0.707106781186548,1.,       37P     55
1.,-2.1,70.,0.,-2.1,70.,6.,-2.1,67.9,0.,-2.1,67.9,6.,0.,67.9,0.,      37P     56
0.,67.9,6.,2.1,67.9,0.,2.1,67.9,6.,2.1,70.,0.,2.1,70.,6.,2.1,         37P     57
72.1,0.,2.1,72.1,6.,0.,72.1,0.,0.,72.1,6.,-2.1,72.1,0.,-2.1,          37P     58
72.1,6.,-2.1,70.,0.,-2.1,70.,6.,0.,2.85714285714286,                  37P     59
-3.14159265358979,3.14159265358979;                                   37P     60
128,1,8,1,2,0,1,0,0,1,0.,0.,1.5,1.5,-3.14159265358979,                39P     61
-3.14159265358979,-3.14159265358979,-1.5707963267949,                 39P     62
-1.5707963267949,0.,0.,1.5707963267949,1.5707963267949,               39P     63
3.14159265358979,3.14159265358979,3.14159265358979,1.,1.,             39P     64
0.707106781186548,0.707106781186548,1.,1.,0.707106781186548,          39P     65
0.707106781186548,1.,1.,0.707106781186548,0.707106781186548,1.,       39P     66
1.,0.707106781186548,0.707106781186548,1.,1.,-4.,70.,6.,-4.,70.,      39P     67
0.,-4.,66.,6.,-4.,66.,0.,0.,66.,6.,0.,66.,0.,4.,66.,6.,4.,66.,        39P     68
0.,4.,70.,6.,4.,70.,0.,4.,74.,6.,4.,74.,0.,0.,74.,6.,0.,74.,0.,       39P     69
-4.,74.,6.,-4.,74.,0.,-4.,70.,6.,-4.,70.,0.,0.,1.5,                   39P     70
-3.14159265358979,3.14159265358979;                                   39P     71
128,1,1,1,1,0,0,1,0,0,-0.401,-0.401,0.401,0.401,-0.401,-0.401,        41P     72
0.401,0.401,1.,1.,1.,1.,-4.01,65.99,6.,4.01,65.99,6.,-4.01,           41P     73
74.01,6.,4.01,74.01,6.,-0.401,0.401,-0.401,0.401;                     41P     74
128,1,1,1,1,0,0,1,0,0,-0.401,-0.401,0.401,0.401,-0.401,-0.401,        43P     75
0.401,0.401,1.,1.,1.,1.,4.01,65.99,0.,-4.01,65.99,0.,4.01,74.01,      43P     76
0.,-4.01,74.01,0.,-0.401,0.401,-0.401,0.401;                          43P     77
502,4,-2.1,70.,6.,-2.1,70.,0.,-4.,70.,6.,-4.,70.,0.;                  45P     78
504,6,25,45,1,45,1,27,45,1,45,2,29,45,2,45,2,31,45,3,45,3,33,45,      47P     79
3,45,4,35,45,4,45,4;                                                  47P     80
406,1,9HBague Sup;                                                    49P     81
314,85.4901960784314,34.9019607843137,34.9019607843137,32HAlumin      51P     82
um - Anodized Glossy (Red);                                           51P     83
314,62.7450980392157,62.7450980392157,62.7450980392157,13HSteel       53P     84
- Satin;                                                              53P     85
S      1G      2D     54P     85                                        T      1
