                                                                        S      1
,,16HProfile20x20x277,16HProfile20x20x277,7Hunknown,7Hunknown,32,38,7,  G      1
99,15,,1.,2,2HMM,1,0.08,15H20201211.162518,0.01,10000.,7Hunknown,7HunknoG      2
wn,11,0,;                                                               G      3
     186       1                                                00000000D      1
     186             -87       1       0                               0D      2
     514       2                                                00010000D      3
     514                       1       1                               0D      4
     510       3                                                00010000D      5
     510             -87       1       1                               0D      6
     510       4                                                00010000D      7
     510             -87       1       1                               0D      8
     510       5                                                00010000D      9
     510             -87       1       1                               0D     10
     510       6                                                00010000D     11
     510             -87       1       1                               0D     12
     510       7                                                00010000D     13
     510             -87       1       1                               0D     14
     510       8                                                00010000D     15
     510             -87       1       1                               0D     16
     510       9                                                00010000D     17
     510             -87       1       1                               0D     18
     508      10                                                00010000D     19
     508                       1       1                               0D     20
     508      11                                                00010000D     21
     508                       1       1                               0D     22
     508      12                                                00010000D     23
     508                       1       1                               0D     24
     508      13                                                00010000D     25
     508                       1       1                               0D     26
     508      14                                                00010000D     27
     508                       1       1                               0D     28
     508      15                                                00010000D     29
     508                       1       1                               0D     30
     508      16                                                00010000D     31
     508                       1       1                               0D     32
     508      17                                                00010000D     33
     508                       1       1                               0D     34
     508      18                                                00010000D     35
     508                       1       1                               0D     36
     126      19                                                00010000D     37
     126       0               8       0                               0D     38
     126      27                                                00010000D     39
     126       0               3       0                               0D     40
     126      30                                                00010000D     41
     126       0               8       0                               0D     42
     126      38                                                00010000D     43
     126       0               2       0                               0D     44
     126      40                                                00010000D     45
     126       0               2       0                               0D     46
     126      42                                                00010000D     47
     126       0               2       0                               0D     48
     126      44                                                00010000D     49
     126       0               2       0                               0D     50
     126      46                                                00010000D     51
     126       0               2       0                               0D     52
     126      48                                                00010000D     53
     126       0               2       0                               0D     54
     126      50                                                00010000D     55
     126       0               2       0                               0D     56
     126      52                                                00010000D     57
     126       0               2       0                               0D     58
     126      54                                                00010000D     59
     126       0               2       0                               0D     60
     126      56                                                00010000D     61
     126       0               2       0                               0D     62
     126      58                                                00010000D     63
     126       0               2       0                               0D     64
     126      60                                                00010000D     65
     126       0               2       0                               0D     66
     128      62                                                00010000D     67
     128       0     -87      14       0                               0D     68
     128      76                                                00010000D     69
     128       0     -87       3       0                               0D     70
     128      79                                                00010000D     71
     128       0     -87       3       0                               0D     72
     128      82                                                00010000D     73
     128       0     -87       3       0                               0D     74
     128      85                                                00010000D     75
     128       0     -87       3       0                               0D     76
     128      88                                                00010000D     77
     128       0     -87       3       0                               0D     78
     128      91                                                00010000D     79
     128       0     -87       3       0                               0D     80
     502      94                                                00010000D     81
     502                       3       1                               0D     82
     504      97                                                00010001D     83
     504                       4       1                               0D     84
     406     101                                                00000000D     85
     406                       1      15                               0D     86
     314     102                                                00000200D     87
     314                       2       0                               0D     88
     314     104                                                00000200D     89
     314                       2       0                               0D     90
186,3,1,0,0,1,85;                                                      1P      1
514,7,5,1,7,1,9,1,11,1,13,1,15,1,17,1;                                 3P      2
510,67,1,1,19;                                                         5P      3
510,69,2,1,21,23;                                                      7P      4
510,71,1,1,25;                                                         9P      5
510,73,2,1,27,29;                                                     11P      6
510,75,1,1,31;                                                        13P      7
510,77,1,1,33;                                                        15P      8
510,79,1,1,35;                                                        17P      9
508,4,0,83,1,0,0,0,83,2,1,0,0,83,3,0,0,0,83,2,0,0;                    19P     10
508,4,0,83,4,1,0,0,83,5,1,0,0,83,6,0,0,0,83,7,0,0;                    21P     11
508,1,0,83,1,1,0;                                                     23P     12
508,4,0,83,8,1,0,0,83,7,1,0,0,83,9,0,0,0,83,10,0,0;                   25P     13
508,4,0,83,11,1,0,0,83,10,1,0,0,83,12,0,0,0,83,13,0,0;                27P     14
508,1,0,83,3,1,0;                                                     29P     15
508,4,0,83,14,1,0,0,83,13,1,0,0,83,15,0,0,0,83,5,0,0;                 31P     16
508,4,0,83,15,1,0,0,83,12,1,0,0,83,9,1,0,0,83,6,1,0;                  33P     17
508,4,0,83,14,0,0,0,83,4,0,0,0,83,8,0,0,0,83,11,0,0;                  35P     18
126,8,2,0,1,0,0,-3.14159265358979,-3.14159265358979,                  37P     19
-3.14159265358979,-1.5707963267949,-1.5707963267949,0.,0.,            37P     20
1.5707963267949,1.5707963267949,3.14159265358979,                     37P     21
3.14159265358979,3.14159265358979,1.,0.707106781186548,1.,            37P     22
0.707106781186548,1.,0.707106781186548,1.,0.707106781186548,1.,       37P     23
94.1,138.5,10.,94.1,134.4,10.,90.,134.4,10.,85.9,134.4,10.,85.9,      37P     24
138.5,10.,85.9,142.6,10.,90.,142.6,10.,94.1,142.6,10.,94.1,           37P     25
138.5,10.,-3.14159265358979,3.14159265358979,0.,0.,0.;                37P     26
126,1,1,0,0,1,0,-8.12358310701334D-16,-8.12358310701334D-16,          39P     27
4.8780487804878,4.8780487804878,1.,1.,94.1,138.5,10.,94.1,138.5,      39P     28
-10.,-8.12358310701334D-16,4.8780487804878,0.,0.,0.;                  39P     29
126,8,2,0,1,0,0,-3.14159265358979,-3.14159265358979,                  41P     30
-3.14159265358979,-1.5707963267949,-1.5707963267949,0.,0.,            41P     31
1.5707963267949,1.5707963267949,3.14159265358979,                     41P     32
3.14159265358979,3.14159265358979,1.,0.707106781186548,1.,            41P     33
0.707106781186548,1.,0.707106781186548,1.,0.707106781186548,1.,       41P     34
94.1,138.5,-10.,94.1,142.6,-10.,90.,142.6,-10.,85.9,142.6,-10.,       41P     35
85.9,138.5,-10.,85.9,134.4,-10.,90.,134.4,-10.,94.1,134.4,-10.,       41P     36
94.1,138.5,-10.,-3.14159265358979,3.14159265358979,0.,0.,0.;          41P     37
126,1,1,0,0,1,0,0.,0.,2.,2.,1.,1.,80.,0.,10.,100.,0.,10.,0.,2.,       43P     38
0.,0.,0.;                                                             43P     39
126,1,1,0,0,1,0,0.,0.,27.7,27.7,1.,1.,100.,0.,10.,100.,277.,10.,      45P     40
0.,27.7,0.,0.,0.;                                                     45P     41
126,1,1,0,0,1,0,0.,0.,2.,2.,1.,1.,80.,277.,10.,100.,277.,10.,0.,      47P     42
2.,0.,0.,0.;                                                          47P     43
126,1,1,0,0,1,0,0.,0.,27.7,27.7,1.,1.,80.,0.,10.,80.,277.,10.,        49P     44
0.,27.7,0.,0.,0.;                                                     49P     45
126,1,1,0,0,1,0,0.,0.,2.,2.,1.,1.,80.,0.,-10.,80.,0.,10.,0.,2.,       51P     46
0.,0.,0.;                                                             51P     47
126,1,1,0,0,1,0,0.,0.,2.,2.,1.,1.,80.,277.,-10.,80.,277.,10.,0.,      53P     48
2.,0.,0.,0.;                                                          53P     49
126,1,1,0,0,1,0,0.,0.,27.7,27.7,1.,1.,80.,0.,-10.,80.,277.,-10.,      55P     50
0.,27.7,0.,0.,0.;                                                     55P     51
126,1,1,0,0,1,0,0.,0.,2.,2.,1.,1.,100.,0.,-10.,80.,0.,-10.,0.,        57P     52
2.,0.,0.,0.;                                                          57P     53
126,1,1,0,0,1,0,0.,0.,2.,2.,1.,1.,100.,277.,-10.,80.,277.,-10.,       59P     54
0.,2.,0.,0.,0.;                                                       59P     55
126,1,1,0,0,1,0,0.,0.,27.7,27.7,1.,1.,100.,0.,-10.,100.,277.,         61P     56
-10.,0.,27.7,0.,0.,0.;                                                61P     57
126,1,1,0,0,1,0,0.,0.,2.,2.,1.,1.,100.,0.,10.,100.,0.,-10.,0.,        63P     58
2.,0.,0.,0.;                                                          63P     59
126,1,1,0,0,1,0,0.,0.,2.,2.,1.,1.,100.,277.,10.,100.,277.,-10.,       65P     60
0.,2.,0.,0.,0.;                                                       65P     61
128,1,8,1,2,0,1,0,0,1,-8.12358310701334D-16,                          67P     62
-8.12358310701334D-16,4.8780487804878,4.8780487804878,                67P     63
-3.14159265358979,-3.14159265358979,-3.14159265358979,                67P     64
-1.5707963267949,-1.5707963267949,0.,0.,1.5707963267949,              67P     65
1.5707963267949,3.14159265358979,3.14159265358979,                    67P     66
3.14159265358979,1.,1.,0.707106781186548,0.707106781186548,1.,        67P     67
1.,0.707106781186548,0.707106781186548,1.,1.,0.707106781186548,       67P     68
0.707106781186548,1.,1.,0.707106781186548,0.707106781186548,1.,       67P     69
1.,94.1,138.5,10.,94.1,138.5,-10.,94.1,134.4,10.,94.1,134.4,          67P     70
-10.,90.,134.4,10.,90.,134.4,-10.,85.9,134.4,10.,85.9,134.4,          67P     71
-10.,85.9,138.5,10.,85.9,138.5,-10.,85.9,142.6,10.,85.9,142.6,        67P     72
-10.,90.,142.6,10.,90.,142.6,-10.,94.1,142.6,10.,94.1,142.6,          67P     73
-10.,94.1,138.5,10.,94.1,138.5,-10.,-8.12358310701334D-16,            67P     74
4.8780487804878,-3.14159265358979,3.14159265358979;                   67P     75
128,1,1,1,1,0,0,1,0,0,-0.001,-0.001,2.001,2.001,-0.001,-0.001,        69P     76
27.701,27.701,1.,1.,1.,1.,79.99,-0.01,10.,100.01,-0.01,10.,           69P     77
79.99,277.01,10.,100.01,277.01,10.,-0.001,2.001,-0.001,27.701;        69P     78
128,1,1,1,1,0,0,1,0,0,-0.001,-0.001,2.001,2.001,-0.001,-0.001,        71P     79
27.701,27.701,1.,1.,1.,1.,80.,-0.01,-10.01,80.,-0.01,10.01,80.,       71P     80
277.01,-10.01,80.,277.01,10.01,-0.001,2.001,-0.001,27.701;            71P     81
128,1,1,1,1,0,0,1,0,0,-0.001,-0.001,2.001,2.001,-0.001,-0.001,        73P     82
27.701,27.701,1.,1.,1.,1.,100.01,-0.01,-10.,79.99,-0.01,-10.,         73P     83
100.01,277.01,-10.,79.99,277.01,-10.,-0.001,2.001,-0.001,27.701;      73P     84
128,1,1,1,1,0,0,1,0,0,-0.001,-0.001,2.001,2.001,-0.001,-0.001,        75P     85
27.701,27.701,1.,1.,1.,1.,100.,-0.01,10.01,100.,-0.01,-10.01,         75P     86
100.,277.01,10.01,100.,277.01,-10.01,-0.001,2.001,-0.001,27.701;      75P     87
128,1,1,1,1,0,0,1,0,0,-1.001,-1.001,1.001,1.001,-1.001,-1.001,        77P     88
1.001,1.001,1.,1.,1.,1.,79.99,277.,-10.01,79.99,277.,10.01,           77P     89
100.01,277.,-10.01,100.01,277.,10.01,-1.001,1.001,-1.001,1.001;       77P     90
128,1,1,1,1,0,0,1,0,0,-1.001,-1.001,1.001,1.001,-1.001,-1.001,        79P     91
1.001,1.001,1.,1.,1.,1.,100.01,0.,10.01,79.99,0.,10.01,100.01,        79P     92
0.,-10.01,79.99,0.,-10.01,-1.001,1.001,-1.001,1.001;                  79P     93
502,10,94.1,138.5,10.,94.1,138.5,-10.,80.,0.,10.,100.,0.,10.,         81P     94
100.,277.,10.,80.,277.,10.,80.,0.,-10.,80.,277.,-10.,100.,0.,         81P     95
-10.,100.,277.,-10.;                                                  81P     96
504,15,37,81,1,81,1,39,81,1,81,2,41,81,2,81,2,43,81,3,81,4,45,        83P     97
81,4,81,5,47,81,6,81,5,49,81,3,81,6,51,81,7,81,3,53,81,8,81,6,        83P     98
55,81,7,81,8,57,81,9,81,7,59,81,10,81,8,61,81,9,81,10,63,81,4,        83P     99
81,9,65,81,5,81,10;                                                   83P    100
406,1,15HProfil20x20_277;                                             85P    101
314,96.078431372549,96.078431372549,96.4705882352941,16HAluminum      87P    102
 - Satin;                                                             87P    103
314,62.7450980392157,62.7450980392157,62.7450980392157,13HSteel       89P    104
- Satin;                                                              89P    105
S      1G      3D     90P    105                                        T      1
