                                                                        S      1
,,11HRondelle v2,11HRondelle v2,7Hunknown,7Hunknown,32,38,7,99,15,,1.,2,G      1
2HMM,1,0.08,15H20201205.180727,0.01,10000.,7Hunknown,7Hunknown,11,0,15H2G      2
0200613.230448;                                                         G      3
     186       1                                                00000000D      1
     186             -71       1       0                               0D      2
     514       2                                                00010000D      3
     514                       1       1                               0D      4
     510       3                                                00010000D      5
     510             -71       1       1                               0D      6
     510       4                                                00010000D      7
     510             -71       1       1                               0D      8
     510       5                                                00010000D      9
     510             -71       1       1                               0D     10
     510       6                                                00010000D     11
     510             -71       1       1                               0D     12
     510       7                                                00010000D     13
     510             -71       1       1                               0D     14
     510       8                                                00010000D     15
     510             -71       1       1                               0D     16
     508       9                                                00010000D     17
     508                       1       1                               0D     18
     508      10                                                00010000D     19
     508                       1       1                               0D     20
     508      11                                                00010000D     21
     508                       1       1                               0D     22
     508      12                                                00010000D     23
     508                       1       1                               0D     24
     508      13                                                00010000D     25
     508                       1       1                               0D     26
     508      14                                                00010000D     27
     508                       1       1                               0D     28
     508      15                                                00010000D     29
     508                       1       1                               0D     30
     508      16                                                00010000D     31
     508                       1       1                               0D     32
     508      17                                                00010000D     33
     508                       1       1                               0D     34
     126      18                                                00010000D     35
     126       0              10       0                               0D     36
     126      28                                                00010000D     37
     126       0               2       0                               0D     38
     126      30                                                00010000D     39
     126       0               9       0                               0D     40
     126      39                                                00010000D     41
     126       0               9       0                               0D     42
     126      48                                                00010000D     43
     126       0               9       0                               0D     44
     126      57                                                00010000D     45
     126       0               2       0                               0D     46
     126      59                                                00010000D     47
     126       0               9       0                               0D     48
     126      68                                                00010000D     49
     126       0               9       0                               0D     50
     126      77                                                00010000D     51
     126       0               3       0                               0D     52
     128      80                                                00010000D     53
     128       0     -71      12       0                               0D     54
     128      92                                                00010000D     55
     128       0     -71       3       0                               0D     56
     128      95                                                00010000D     57
     128       0     -71      12       0                               0D     58
     128     107                                                00010000D     59
     128       0     -71      12       0                               0D     60
     128     119                                                00010000D     61
     128       0     -71       3       0                               0D     62
     128     122                                                00010000D     63
     128       0     -71       3       0                               0D     64
     502     125                                                00010000D     65
     502                       3       1                               0D     66
     504     128                                                00010001D     67
     504                       2       1                               0D     68
     406     130                                                00000000D     69
     406                       1      15                               0D     70
     314     131                                                00000200D     71
     314                       2       0                               0D     72
186,3,1,0,0,1,69;                                                      1P      1
514,6,5,1,7,1,9,1,11,1,13,1,15,1;                                      3P      2
510,53,1,1,17;                                                         5P      3
510,55,2,1,19,21;                                                      7P      4
510,57,1,1,23;                                                         9P      5
510,59,1,1,25;                                                        11P      6
510,61,2,1,27,29;                                                     13P      7
510,63,2,1,31,33;                                                     15P      8
508,4,0,67,1,0,0,0,67,2,1,0,0,67,3,1,0,0,67,2,0,0;                    17P      9
508,1,0,67,1,1,0;                                                     19P     10
508,1,0,67,4,0,0;                                                     21P     11
508,4,0,67,5,0,0,0,67,6,1,0,0,67,7,1,0,0,67,6,0,0;                    23P     12
508,4,0,67,8,0,0,0,67,9,1,0,0,67,4,1,0,0,67,9,0,0;                    25P     13
508,1,0,67,8,1,0;                                                     27P     14
508,1,0,67,5,1,0;                                                     29P     15
508,1,0,67,3,0,0;                                                     31P     16
508,1,0,67,7,0,0;                                                     33P     17
126,8,2,0,1,0,0,-3.14159265358979,-3.14159265358979,                  35P     18
-3.14159265358979,-1.5707963267949,-1.5707963267949,0.,0.,            35P     19
1.5707963267949,1.5707963267949,3.14159265358979,                     35P     20
3.14159265358979,3.14159265358979,1.,0.707106781186548,1.,            35P     21
0.707106781186548,1.,0.707106781186548,1.,0.707106781186548,1.,       35P     22
-7.5,-9.18485099360515D-16,0.8,-7.5,-7.5,0.8,                         35P     23
4.59242549680257D-16,-7.5,0.8,7.5,-7.5,0.8,7.5,0.,0.8,7.5,7.5,        35P     24
0.8,4.59242549680257D-16,7.5,0.8,-7.5,7.5,0.8,-7.5,                   35P     25
9.18485099360515D-16,0.8,-3.14159265358979,3.14159265358979,0.,       35P     26
0.,0.;                                                                35P     27
126,1,1,0,0,1,0,-0.106666666666667,-0.106666666666667,0.,0.,1.,       37P     28
1.,-7.5,0.,0.8,-7.5,0.,0.,-0.106666666666667,0.,0.,0.,0.;             37P     29
126,8,2,0,1,0,0,-3.14159265358979,-3.14159265358979,                  39P     30
-3.14159265358979,-1.5707963267949,-1.5707963267949,0.,0.,            39P     31
1.5707963267949,1.5707963267949,3.14159265358979,                     39P     32
3.14159265358979,3.14159265358979,1.,0.707106781186548,1.,            39P     33
0.707106781186548,1.,0.707106781186548,1.,0.707106781186548,1.,       39P     34
-7.5,-9.18485099360515D-16,0.,-7.5,-7.5,0.,4.59242549680257D-16,      39P     35
-7.5,0.,7.5,-7.5,0.,7.5,0.,0.,7.5,7.5,0.,4.59242549680257D-16,        39P     36
7.5,0.,-7.5,7.5,0.,-7.5,9.18485099360515D-16,0.,                      39P     37
-3.14159265358979,3.14159265358979,0.,0.,0.;                          39P     38
126,8,2,0,1,0,0,-3.14159265358979,-3.14159265358979,                  41P     39
-3.14159265358979,-1.5707963267949,-1.5707963267949,0.,0.,            41P     40
1.5707963267949,1.5707963267949,3.14159265358979,                     41P     41
3.14159265358979,3.14159265358979,1.,0.707106781186548,1.,            41P     42
0.707106781186548,1.,0.707106781186548,1.,0.707106781186548,1.,       41P     43
-6.,-7.34788079488412D-16,0.8,-6.,-6.,0.8,3.67394039744206D-16,       41P     44
-6.,0.8,6.,-6.,0.8,6.,0.,0.8,6.,6.,0.8,3.67394039744206D-16,6.,       41P     45
0.8,-6.,6.,0.8,-6.,7.34788079488412D-16,0.8,-3.14159265358979,        41P     46
3.14159265358979,0.,0.,0.;                                            41P     47
126,8,2,0,1,0,0,-3.14159265358979,-3.14159265358979,                  43P     48
-3.14159265358979,-1.5707963267949,-1.5707963267949,0.,0.,            43P     49
1.5707963267949,1.5707963267949,3.14159265358979,                     43P     50
3.14159265358979,3.14159265358979,1.,0.707106781186547,1.,            43P     51
0.707106781186548,1.,0.707106781186548,1.,0.707106781186547,1.,       43P     52
-4.1,5.02105187650415D-16,1.,-4.1,4.1,1.,2.51052593825207D-16,        43P     53
4.1,1.,4.1,4.1,1.,4.1,0.,1.,4.1,-4.1,1.,2.51052593825207D-16,         43P     54
-4.1,1.,-4.1,-4.1,1.,-4.1,-5.02105187650415D-16,1.,                   43P     55
-3.14159265358979,3.14159265358979,0.,0.,0.;                          43P     56
126,1,1,0,0,1,0,-0.24390243902439,-0.24390243902439,0.,0.,1.,1.,      45P     57
-4.1,0.,1.,-4.1,0.,0.,-0.24390243902439,0.,0.,0.,0.;                  45P     58
126,8,2,0,1,0,0,-3.14159265358979,-3.14159265358979,                  47P     59
-3.14159265358979,-1.5707963267949,-1.5707963267949,0.,0.,            47P     60
1.5707963267949,1.5707963267949,3.14159265358979,                     47P     61
3.14159265358979,3.14159265358979,1.,0.707106781186547,1.,            47P     62
0.707106781186548,1.,0.707106781186548,1.,0.707106781186547,1.,       47P     63
-4.1,5.02105187650415D-16,0.,-4.1,4.1,0.,2.51052593825207D-16,        47P     64
4.1,0.,4.1,4.1,0.,4.1,0.,0.,4.1,-4.1,0.,2.51052593825207D-16,         47P     65
-4.1,0.,-4.1,-4.1,0.,-4.1,-5.02105187650415D-16,0.,                   47P     66
-3.14159265358979,3.14159265358979,0.,0.,0.;                          47P     67
126,8,2,0,1,0,0,-3.14159265358979,-3.14159265358979,                  49P     68
-3.14159265358979,-1.5707963267949,-1.5707963267949,0.,0.,            49P     69
1.5707963267949,1.5707963267949,3.14159265358979,                     49P     70
3.14159265358979,3.14159265358979,1.,0.707106781186548,1.,            49P     71
0.707106781186548,1.,0.707106781186548,1.,0.707106781186548,1.,       49P     72
-6.,-7.34788079488412D-16,1.,-6.,-6.,1.,3.67394039744206D-16,         49P     73
-6.,1.,6.,-6.,1.,6.,0.,1.,6.,6.,1.,3.67394039744206D-16,6.,1.,        49P     74
-6.,6.,1.,-6.,7.34788079488412D-16,1.,-3.14159265358979,              49P     75
3.14159265358979,0.,0.,0.;                                            49P     76
126,1,1,0,0,1,0,-0.166666666666667,-0.166666666666667,                51P     77
-0.133333333333333,-0.133333333333333,1.,1.,-6.,0.,1.,-6.,0.,         51P     78
0.8,-0.166666666666667,-0.133333333333333,0.,0.,0.;                   51P     79
128,1,8,1,2,0,1,0,0,1,0.,0.,0.106666666666667,0.106666666666667,      53P     80
-3.14159265358979,-3.14159265358979,-3.14159265358979,                53P     81
-1.5707963267949,-1.5707963267949,0.,0.,1.5707963267949,              53P     82
1.5707963267949,3.14159265358979,3.14159265358979,                    53P     83
3.14159265358979,1.,1.,0.707106781186548,0.707106781186548,1.,        53P     84
1.,0.707106781186548,0.707106781186548,1.,1.,0.707106781186548,       53P     85
0.707106781186548,1.,1.,0.707106781186548,0.707106781186548,1.,       53P     86
1.,-7.5,0.,0.8,-7.5,0.,0.,-7.5,-7.5,0.8,-7.5,-7.5,0.,0.,-7.5,         53P     87
0.8,0.,-7.5,0.,7.5,-7.5,0.8,7.5,-7.5,0.,7.5,0.,0.8,7.5,0.,0.,         53P     88
7.5,7.5,0.8,7.5,7.5,0.,0.,7.5,0.8,0.,7.5,0.,-7.5,7.5,0.8,-7.5,        53P     89
7.5,0.,-7.5,0.,0.8,-7.5,0.,0.,0.,0.106666666666667,                   53P     90
-3.14159265358979,3.14159265358979;                                   53P     91
128,1,1,1,1,0,0,1,0,0,-0.751,-0.751,0.751,0.751,-0.751,-0.751,        55P     92
0.751,0.751,1.,1.,1.,1.,-7.51,-7.51,0.8,7.51,-7.51,0.8,-7.51,         55P     93
7.51,0.8,7.51,7.51,0.8,-0.751,0.751,-0.751,0.751;                     55P     94
128,1,8,1,2,0,1,0,0,1,0.,0.,0.24390243902439,0.24390243902439,        57P     95
-3.14159265358979,-3.14159265358979,-3.14159265358979,                57P     96
-1.5707963267949,-1.5707963267949,0.,0.,1.5707963267949,              57P     97
1.5707963267949,3.14159265358979,3.14159265358979,                    57P     98
3.14159265358979,1.,1.,0.707106781186548,0.707106781186548,1.,        57P     99
1.,0.707106781186548,0.707106781186548,1.,1.,0.707106781186548,       57P    100
0.707106781186548,1.,1.,0.707106781186548,0.707106781186548,1.,       57P    101
1.,-4.1,0.,0.,-4.1,0.,1.,-4.1,-4.1,0.,-4.1,-4.1,1.,0.,-4.1,0.,        57P    102
0.,-4.1,1.,4.1,-4.1,0.,4.1,-4.1,1.,4.1,0.,0.,4.1,0.,1.,4.1,4.1,       57P    103
0.,4.1,4.1,1.,0.,4.1,0.,0.,4.1,1.,-4.1,4.1,0.,-4.1,4.1,1.,-4.1,       57P    104
0.,0.,-4.1,0.,1.,0.,0.24390243902439,-3.14159265358979,               57P    105
3.14159265358979;                                                     57P    106
128,1,8,1,2,0,1,0,0,1,0.133333333333333,0.133333333333333,            59P    107
0.166666666666667,0.166666666666667,-3.14159265358979,                59P    108
-3.14159265358979,-3.14159265358979,-1.5707963267949,                 59P    109
-1.5707963267949,0.,0.,1.5707963267949,1.5707963267949,               59P    110
3.14159265358979,3.14159265358979,3.14159265358979,1.,1.,             59P    111
0.707106781186548,0.707106781186548,1.,1.,0.707106781186548,          59P    112
0.707106781186548,1.,1.,0.707106781186548,0.707106781186548,1.,       59P    113
1.,0.707106781186548,0.707106781186548,1.,1.,-6.,0.,1.,-6.,0.,        59P    114
0.8,-6.,-6.,1.,-6.,-6.,0.8,0.,-6.,1.,0.,-6.,0.8,6.,-6.,1.,6.,         59P    115
-6.,0.8,6.,0.,1.,6.,0.,0.8,6.,6.,1.,6.,6.,0.8,0.,6.,1.,0.,6.,         59P    116
0.8,-6.,6.,1.,-6.,6.,0.8,-6.,0.,1.,-6.,0.,0.8,0.133333333333333,      59P    117
0.166666666666667,-3.14159265358979,3.14159265358979;                 59P    118
128,1,1,1,1,0,0,1,0,0,-0.601,-0.601,0.601,0.601,-0.601,-0.601,        61P    119
0.601,0.601,1.,1.,1.,1.,-6.01,-6.01,1.,6.01,-6.01,1.,-6.01,6.01,      61P    120
1.,6.01,6.01,1.,-0.601,0.601,-0.601,0.601;                            61P    121
128,1,1,1,1,0,0,1,0,0,-0.751,-0.751,0.751,0.751,-0.751,-0.751,        63P    122
0.751,0.751,1.,1.,1.,1.,7.51,-7.51,0.,-7.51,-7.51,0.,7.51,7.51,       63P    123
0.,-7.51,7.51,0.,-0.751,0.751,-0.751,0.751;                           63P    124
502,6,-7.5,-9.18485099360515D-16,0.8,-7.5,-9.18485099360515D-16,      65P    125
0.,-6.,-7.34788079488412D-16,0.8,-4.1,-5.02105187650415D-16,1.,       65P    126
-4.1,-5.02105187650415D-16,0.,-6.,-7.34788079488412D-16,1.;           65P    127
504,9,35,65,1,65,1,37,65,1,65,2,39,65,2,65,2,41,65,3,65,3,43,65,      67P    128
4,65,4,45,65,4,65,5,47,65,5,65,5,49,65,6,65,6,51,65,6,65,3;           67P    129
406,1,5HBody1;                                                        69P    130
314,62.7450980392157,62.7450980392157,62.7450980392157,13HSteel       71P    131
- Satin;                                                              71P    132
S      1G      3D     72P    132                                        T      1
