0
SECTION
2
HEADER
9
$INSUNITS
70
4
9
$ACADVER
1
AC1014
9
$HANDSEED
5
FFFF
0
ENDSEC
0
SECTION
2
TABLES
0
TABLE
2
VPORT
5
8
100
AcDbSymbolTable
0
ENDTAB
0
TABLE
2
LTYPE
5
5
100
AcDbSymbolTable
0
LTYPE
5
14
100
AcDbSymbolTableRecord
100
AcDbLinetypeTableRecord
2
BYBLOCK
70
0
0
LTYPE
5
15
100
AcDbSymbolTableRecord
100
AcDbLinetypeTableRecord
2
BYLAYER
70
0
0
ENDTAB
0
TABLE
2
LAYER
5
2
100
AcDbSymbolTable
70
2
0
LAYER
5
50
100
AcDbSymbolTableRecord
100
AcDbLayerTableRecord
2
0
70
0
6
CONTINUOUS
0
ENDTAB
0
TABLE
2
STYLE
5
3
100
AcDbSymbolTable
70
1
0
STYLE
5
11
100
AcDbSymbolTableRecord
100
AcDbTextStyleTableRecord
2
STANDARD
70
0
0
ENDTAB
0
TABLE
2
VIEW
5
6
100
AcDbSymbolTable
70
0
0
ENDTAB
0
TABLE
2
UCS
5
7
100
AcDbSymbolTable
70
0
0
ENDTAB
0
TABLE
2
APPID
5
9
100
AcDbSymbolTable
70
2
0
APPID
5
12
100
AcDbSymbolTableRecord
100
AcDbRegAppTableRecord
2
ACAD
70
0
0
ENDTAB
0
TABLE
2
DIMSTYLE
5
A
100
AcDbSymbolTable
70
1
0
ENDTAB
0
TABLE
2
BLOCK_RECORD
5
1
100
AcDbSymbolTable
70
1
0
BLOCK_RECORD
5
1F
100
AcDbSymbolTableRecord
100
AcDbBlockTableRecord
2
*MODEL_SPACE
0
BLOCK_RECORD
5
1B
100
AcDbSymbolTableRecord
100
AcDbBlockTableRecord
2
*PAPER_SPACE
0
ENDTAB
0
ENDSEC
0
SECTION
2
BLOCKS
0
BLOCK
5
20
100
AcDbEntity
100
AcDbBlockBegin
2
*MODEL_SPACE
0
ENDBLK
5
21
100
AcDbEntity
100
AcDbBlockEnd
0
BLOCK
5
1C
100
AcDbEntity
100
AcDbBlockBegin
2
*PAPER_SPACE
0
ENDBLK
5
1D
100
AcDbEntity
100
AcDbBlockEnd
0
ENDSEC
0
SECTION
2
ENTITIES
0
CIRCLE
5
100
100
AcDbEntity
8
0
100
AcDbCircle
10
-145
20
-8.8562832759874529e-13
30
0
40
2.1000000000000085
210
0
220
-0
230
1
0
CIRCLE
5
101
100
AcDbEntity
8
0
100
AcDbCircle
10
-155
20
-9.4670614329521031e-13
30
0
40
2.1000000000000085
210
0
220
-0
230
1
0
CIRCLE
5
102
100
AcDbEntity
8
0
100
AcDbCircle
10
155.00000000001475
20
9.4670614329530058e-13
30
0
40
2.1000000000000085
210
0
220
-0
230
1
0
LWPOLYLINE
5
103
100
AcDbEntity
8
0
100
AcDbPolyline
90
8
70
1
43
0.0
10
-14.212670403551897
20
5.0999999999999988
10
-19.442222095223585
20
5.0999999999999996
42
0.12897605976008214
10
-19.442222095223585
20
-5.0999999999999996
10
-14.212670403551904
20
-5.1000000000000023
42
0.70359754473029201
10
14.212670403551897
20
-5.0999999999999988
10
19.442222095223588
20
-5.0999999999999881
42
0.128976059760082
10
19.442222095223585
20
5.0999999999999996
10
14.2126704035519
20
5.1000000000000023
42
0.70359754473029179
0
CIRCLE
5
104
100
AcDbEntity
8
0
100
AcDbCircle
10
145.00000000001475
20
8.8562832759883526e-13
30
0
40
2.0999999999999908
210
0
220
-0
230
1
0
LWPOLYLINE
5
105
100
AcDbEntity
8
0
100
AcDbPolyline
90
10
70
1
43
0.0
10
-32.500000000014744
20
-24.999999999971848
10
-32.500000000014744
20
-20.000000000000149
10
-164.99999999999997
20
-7.5464026670163324
10
-165.00000000000003
20
7.4425371619140286
10
-19.999999999985256
20
19.999999999999993
10
20.000000000014744
20
19.999999999999996
10
165.00000000001475
20
7.4425371619149816
10
165.00000000001475
20
-7.5464026670126794
10
32.499999999985398
20
-19.999999999999819
10
32.499999999985398
20
-24.999999999999826
0
LINE
5
106
100
AcDbEntity
8
0
100
AcDbLine
10
169.00000000001472
20
-9.3299206912861425
30
0
11
183.1864619178634
21
-9.035942603129465
31
0
0
CIRCLE
5
107
100
AcDbEntity
8
0
100
AcDbCircle
10
155.00000000001475
20
9.4670614329530058e-13
30
0
40
2.1000000000000094
210
0
220
0
230
1
0
LINE
5
108
100
AcDbEntity
8
0
100
AcDbLine
10
167.00000000001472
20
-7.5090849332711818
30
0
11
167.00000000001472
21
7.4198922356236388
31
0
0
LWPOLYLINE
5
109
100
AcDbEntity
8
0
100
AcDbPolyline
90
4
70
1
43
0.0
10
169.00000000001472
20
9.2541719540799487
10
169.00000000001472
20
-9.3299206912861425
10
134.00000000001472
20
-12.619550175470682
10
134.00000000001472
20
12.285283673617711
0
LINE
5
110
100
AcDbEntity
8
0
100
AcDbLine
10
165.00000000001475
20
-7.5464026670126794
30
0
11
165.00000000001475
21
7.4425371619149807
31
0
0
CIRCLE
5
111
100
AcDbEntity
8
0
100
AcDbCircle
10
145.00000000001475
20
8.8562832759883526e-13
30
0
40
2.0999999999999908
210
0
220
-0
230
1
0
LINE
5
112
100
AcDbEntity
8
0
100
AcDbLine
10
167.00000000001472
20
-7.5090849332711818
30
0
11
169.00000000001472
21
-7.5090849332711818
31
0
0
LINE
5
113
100
AcDbEntity
8
0
100
AcDbLine
10
167.00000000001472
20
-7.5090849332711818
30
0
11
134.00000000001472
21
-10.610735589788041
31
0
0
LINE
5
114
100
AcDbEntity
8
0
100
AcDbLine
10
169.00000000001472
20
-0.037874368603096897
30
0
11
183.00000000001475
21
-0.037874368603107701
31
0
0
CIRCLE
5
115
100
AcDbEntity
8
0
100
AcDbCircle
10
145.00000000001475
20
8.8562832759883526e-13
30
0
40
2.0999999999999908
210
0
220
-0
230
1
0
CIRCLE
5
116
100
AcDbEntity
8
0
100
AcDbCircle
10
155.00000000001475
20
9.4670614329530058e-13
30
0
40
2.1000000000000085
210
0
220
-0
230
1
0
CIRCLE
5
117
100
AcDbEntity
8
0
100
AcDbCircle
10
183.00000000001475
20
-0.037874368603107701
30
0
40
9.0000000000000053
210
0
220
0
230
1
0
CIRCLE
5
118
100
AcDbEntity
8
0
100
AcDbCircle
10
155.00000000001475
20
9.4670614329530058e-13
30
0
40
2.1000000000000085
210
0
220
-0
230
1
0
LINE
5
119
100
AcDbEntity
8
0
100
AcDbLine
10
165.00000000001475
20
-7.5464026670126794
30
0
11
165.00000000001475
21
7.4425371619149807
31
0
0
LINE
5
120
100
AcDbEntity
8
0
100
AcDbLine
10
167.00000000001472
20
7.4198922356236388
30
0
11
169.00000000001472
21
7.4198922356236388
31
0
0
LINE
5
121
100
AcDbEntity
8
0
100
AcDbLine
10
169.00000000001472
20
9.2541719540799487
30
0
11
183.18646191786345
21
8.9601938659232498
31
0
0
LINE
5
122
100
AcDbEntity
8
0
100
AcDbLine
10
167.00000000001472
20
7.4198922356236388
30
0
11
134.00000000001472
21
10.277797571187818
31
0
0
CIRCLE
5
123
100
AcDbEntity
8
0
100
AcDbCircle
10
145.00000000001475
20
8.8562832759883526e-13
30
0
40
2.0999999999999912
210
0
220
0
230
1
0
CIRCLE
5
124
100
AcDbEntity
8
0
100
AcDbCircle
10
183.00000000001475
20
-0.037874368603107701
30
0
40
3.1000000000000005
210
0
220
0
230
1
0
ENDSEC
0
SECTION
2
OBJECTS
0
DICTIONARY
5
C
100
AcDbDictionary
3
ACAD_GROUP
350
D
3
ACAD_MLINESTYLE
350
17
0
DICTIONARY
5
D
100
AcDbDictionary
0
DICTIONARY
5
1A
330
C
100
AcDbDictionary
0
DICTIONARY
5
17
100
AcDbDictionary
0
ENDSEC
0
EOF
