                                                                        S      1
,,12HBague8x10 v3,12HBague8x10 v3,7Hunknown,7Hunknown,32,38,7,99,15,,1.,G      1
2,2HMM,1,0.08,15H20201205.181819,0.01,10000.,7Hunknown,7Hunknown,11,0,  G      2
15H20200123.143201;                                                     G      3
     186       1                                                00000000D      1
     186             -51       1       0                               0D      2
     514       2                                                00010000D      3
     514                       1       1                               0D      4
     510       3                                                00010000D      5
     510             -51       1       1                               0D      6
     510       4                                                00010000D      7
     510             -51       1       1                               0D      8
     510       5                                                00010000D      9
     510             -51       1       1                               0D     10
     510       6                                                00010000D     11
     510             -51       1       1                               0D     12
     508       7                                                00010000D     13
     508                       1       1                               0D     14
     508       8                                                00010000D     15
     508                       1       1                               0D     16
     508       9                                                00010000D     17
     508                       1       1                               0D     18
     508      10                                                00010000D     19
     508                       1       1                               0D     20
     508      11                                                00010000D     21
     508                       1       1                               0D     22
     508      12                                                00010000D     23
     508                       1       1                               0D     24
     126      13                                                00010000D     25
     126       0              10       0                               0D     26
     126      23                                                00010000D     27
     126       0               2       0                               0D     28
     126      25                                                00010000D     29
     126       0              10       0                               0D     30
     126      35                                                00010000D     31
     126       0              10       0                               0D     32
     126      45                                                00010000D     33
     126       0               2       0                               0D     34
     126      47                                                00010000D     35
     126       0              10       0                               0D     36
     128      57                                                00010000D     37
     128       0     -51      12       0                               0D     38
     128      69                                                00010000D     39
     128       0     -51      12       0                               0D     40
     128      81                                                00010000D     41
     128       0     -51       3       0                               0D     42
     128      84                                                00010000D     43
     128       0     -51       3       0                               0D     44
     502      87                                                00010000D     45
     502                       3       1                               0D     46
     504      90                                                00010001D     47
     504                       2       1                               0D     48
     406      92                                                00000000D     49
     406                       1      15                               0D     50
     314      93                                                00000200D     51
     314                       2       0                               0D     52
186,3,1,0,0,1,49;                                                      1P      1
514,4,5,1,7,1,9,1,11,1;                                                3P      2
510,37,1,1,13;                                                         5P      3
510,39,1,1,15;                                                         7P      4
510,41,2,1,17,19;                                                      9P      5
510,43,2,1,21,23;                                                     11P      6
508,4,0,47,1,0,0,0,47,2,1,0,0,47,3,1,0,0,47,2,0,0;                    13P      7
508,4,0,47,4,0,0,0,47,5,1,0,0,47,6,1,0,0,47,5,0,0;                    15P      8
508,1,0,47,4,1,0;                                                     17P      9
508,1,0,47,1,1,0;                                                     19P     10
508,1,0,47,6,0,0;                                                     21P     11
508,1,0,47,3,0,0;                                                     23P     12
126,8,2,0,1,0,0,-3.14159265358979,-3.14159265358979,                  25P     13
-3.14159265358979,-1.5707963267949,-1.5707963267949,0.,0.,            25P     14
1.5707963267949,1.5707963267949,3.14159265358979,                     25P     15
3.14159265358979,3.14159265358979,1.,0.707106781186547,1.,            25P     16
0.707106781186547,1.,0.707106781186547,1.,0.707106781186547,1.,       25P     17
-4.05,4.95981953654678D-16,1.,-4.05,4.05,1.,                          25P     18
2.47990976827339D-16,4.05,1.,4.05,4.05,1.,4.05,0.,1.,4.05,-4.05,      25P     19
1.,2.47990976827339D-16,-4.05,1.,-4.05,-4.05,1.,-4.05,                25P     20
-4.95981953654678D-16,1.,-3.14159265358979,3.14159265358979,0.,       25P     21
0.,0.;                                                                25P     22
126,1,1,0,0,1,0,-0.246913580246914,-0.246913580246914,0.,0.,1.,       27P     23
1.,-4.05,0.,1.,-4.05,0.,0.,-0.246913580246914,0.,0.,0.,0.;            27P     24
126,8,2,0,1,0,0,-3.14159265358979,-3.14159265358979,                  29P     25
-3.14159265358979,-1.5707963267949,-1.5707963267949,0.,0.,            29P     26
1.5707963267949,1.5707963267949,3.14159265358979,                     29P     27
3.14159265358979,3.14159265358979,1.,0.707106781186547,1.,            29P     28
0.707106781186547,1.,0.707106781186547,1.,0.707106781186547,1.,       29P     29
-4.05,4.95981953654678D-16,0.,-4.05,4.05,0.,                          29P     30
2.47990976827339D-16,4.05,0.,4.05,4.05,0.,4.05,0.,0.,4.05,-4.05,      29P     31
0.,2.47990976827339D-16,-4.05,0.,-4.05,-4.05,0.,-4.05,                29P     32
-4.95981953654678D-16,0.,-3.14159265358979,3.14159265358979,0.,       29P     33
0.,0.;                                                                29P     34
126,8,2,0,1,0,0,-3.14159265358979,-3.14159265358979,                  31P     35
-3.14159265358979,-1.5707963267949,-1.5707963267949,0.,0.,            31P     36
1.5707963267949,1.5707963267949,3.14159265358979,                     31P     37
3.14159265358979,3.14159265358979,1.,0.707106781186548,1.,            31P     38
0.707106781186548,1.,0.707106781186548,1.,0.707106781186548,1.,       31P     39
-5.05,-6.18446633569413D-16,1.,-5.05,-5.05,1.,                        31P     40
3.09223316784707D-16,-5.05,1.,5.05,-5.05,1.,5.05,0.,1.,5.05,          31P     41
5.05,1.,3.09223316784707D-16,5.05,1.,-5.05,5.05,1.,-5.05,             31P     42
6.18446633569413D-16,1.,-3.14159265358979,3.14159265358979,0.,        31P     43
0.,0.;                                                                31P     44
126,1,1,0,0,1,0,-0.198019801980198,-0.198019801980198,0.,0.,1.,       33P     45
1.,-5.05,0.,1.,-5.05,0.,0.,-0.198019801980198,0.,0.,0.,0.;            33P     46
126,8,2,0,1,0,0,-3.14159265358979,-3.14159265358979,                  35P     47
-3.14159265358979,-1.5707963267949,-1.5707963267949,0.,0.,            35P     48
1.5707963267949,1.5707963267949,3.14159265358979,                     35P     49
3.14159265358979,3.14159265358979,1.,0.707106781186548,1.,            35P     50
0.707106781186548,1.,0.707106781186548,1.,0.707106781186548,1.,       35P     51
-5.05,-6.18446633569413D-16,0.,-5.05,-5.05,0.,                        35P     52
3.09223316784707D-16,-5.05,0.,5.05,-5.05,0.,5.05,0.,0.,5.05,          35P     53
5.05,0.,3.09223316784707D-16,5.05,0.,-5.05,5.05,0.,-5.05,             35P     54
6.18446633569413D-16,0.,-3.14159265358979,3.14159265358979,0.,        35P     55
0.,0.;                                                                35P     56
128,1,8,1,2,0,1,0,0,1,0.,0.,0.246913580246914,0.246913580246914,      37P     57
-3.14159265358979,-3.14159265358979,-3.14159265358979,                37P     58
-1.5707963267949,-1.5707963267949,0.,0.,1.5707963267949,              37P     59
1.5707963267949,3.14159265358979,3.14159265358979,                    37P     60
3.14159265358979,1.,1.,0.707106781186548,0.707106781186548,1.,        37P     61
1.,0.707106781186548,0.707106781186548,1.,1.,0.707106781186548,       37P     62
0.707106781186548,1.,1.,0.707106781186548,0.707106781186548,1.,       37P     63
1.,-4.05,0.,0.,-4.05,0.,1.,-4.05,-4.05,0.,-4.05,-4.05,1.,0.,          37P     64
-4.05,0.,0.,-4.05,1.,4.05,-4.05,0.,4.05,-4.05,1.,4.05,0.,0.,          37P     65
4.05,0.,1.,4.05,4.05,0.,4.05,4.05,1.,0.,4.05,0.,0.,4.05,1.,           37P     66
-4.05,4.05,0.,-4.05,4.05,1.,-4.05,0.,0.,-4.05,0.,1.,0.,               37P     67
0.246913580246914,-3.14159265358979,3.14159265358979;                 37P     68
128,1,8,1,2,0,1,0,0,1,0.,0.,0.198019801980198,0.198019801980198,      39P     69
-3.14159265358979,-3.14159265358979,-3.14159265358979,                39P     70
-1.5707963267949,-1.5707963267949,0.,0.,1.5707963267949,              39P     71
1.5707963267949,3.14159265358979,3.14159265358979,                    39P     72
3.14159265358979,1.,1.,0.707106781186548,0.707106781186548,1.,        39P     73
1.,0.707106781186548,0.707106781186548,1.,1.,0.707106781186548,       39P     74
0.707106781186548,1.,1.,0.707106781186548,0.707106781186548,1.,       39P     75
1.,-5.05,0.,1.,-5.05,0.,0.,-5.05,-5.05,1.,-5.05,-5.05,0.,0.,          39P     76
-5.05,1.,0.,-5.05,0.,5.05,-5.05,1.,5.05,-5.05,0.,5.05,0.,1.,          39P     77
5.05,0.,0.,5.05,5.05,1.,5.05,5.05,0.,0.,5.05,1.,0.,5.05,0.,           39P     78
-5.05,5.05,1.,-5.05,5.05,0.,-5.05,0.,1.,-5.05,0.,0.,0.,               39P     79
0.198019801980198,-3.14159265358979,3.14159265358979;                 39P     80
128,1,1,1,1,0,0,1,0,0,-0.506,-0.506,0.506,0.506,-0.506,-0.506,        41P     81
0.506,0.506,1.,1.,1.,1.,-5.06,-5.06,1.,5.06,-5.06,1.,-5.06,5.06,      41P     82
1.,5.06,5.06,1.,-0.506,0.506,-0.506,0.506;                            41P     83
128,1,1,1,1,0,0,1,0,0,-0.506,-0.506,0.506,0.506,-0.506,-0.506,        43P     84
0.506,0.506,1.,1.,1.,1.,5.06,-5.06,0.,-5.06,-5.06,0.,5.06,5.06,       43P     85
0.,-5.06,5.06,0.,-0.506,0.506,-0.506,0.506;                           43P     86
502,4,-4.05,-4.95981953654678D-16,1.,-4.05,                           45P     87
-4.95981953654678D-16,0.,-5.05,-6.18446633569413D-16,1.,-5.05,        45P     88
-6.18446633569413D-16,0.;                                             45P     89
504,6,25,45,1,45,1,27,45,1,45,2,29,45,2,45,2,31,45,3,45,3,33,45,      47P     90
3,45,4,35,45,4,45,4;                                                  47P     91
406,1,10HBague_8x10;                                                  49P     92
314,62.7450980392157,62.7450980392157,62.7450980392157,13HSteel       51P     93
- Satin;                                                              51P     94
S      1G      3D     52P     94                                        T      1
