0
SECTION
2
HEADER
9
$INSUNITS
70
4
9
$ACADVER
1
AC1014
9
$HANDSEED
5
FFFF
0
ENDSEC
0
SECTION
2
TABLES
0
TABLE
2
VPORT
5
8
100
AcDbSymbolTable
0
ENDTAB
0
TABLE
2
LTYPE
5
5
100
AcDbSymbolTable
0
LTYPE
5
14
100
AcDbSymbolTableRecord
100
AcDbLinetypeTableRecord
2
BYBLOCK
70
0
0
LTYPE
5
15
100
AcDbSymbolTableRecord
100
AcDbLinetypeTableRecord
2
BYLAYER
70
0
0
ENDTAB
0
TABLE
2
LAYER
5
2
100
AcDbSymbolTable
70
2
0
LAYER
5
50
100
AcDbSymbolTableRecord
100
AcDbLayerTableRecord
2
0
70
0
6
CONTINUOUS
0
ENDTAB
0
TABLE
2
STYLE
5
3
100
AcDbSymbolTable
70
1
0
STYLE
5
11
100
AcDbSymbolTableRecord
100
AcDbTextStyleTableRecord
2
STANDARD
70
0
0
ENDTAB
0
TABLE
2
VIEW
5
6
100
AcDbSymbolTable
70
0
0
ENDTAB
0
TABLE
2
UCS
5
7
100
AcDbSymbolTable
70
0
0
ENDTAB
0
TABLE
2
APPID
5
9
100
AcDbSymbolTable
70
2
0
APPID
5
12
100
AcDbSymbolTableRecord
100
AcDbRegAppTableRecord
2
ACAD
70
0
0
ENDTAB
0
TABLE
2
DIMSTYLE
5
A
100
AcDbSymbolTable
70
1
0
ENDTAB
0
TABLE
2
BLOCK_RECORD
5
1
100
AcDbSymbolTable
70
1
0
BLOCK_RECORD
5
1F
100
AcDbSymbolTableRecord
100
AcDbBlockTableRecord
2
*MODEL_SPACE
0
BLOCK_RECORD
5
1B
100
AcDbSymbolTableRecord
100
AcDbBlockTableRecord
2
*PAPER_SPACE
0
ENDTAB
0
ENDSEC
0
SECTION
2
BLOCKS
0
BLOCK
5
20
100
AcDbEntity
100
AcDbBlockBegin
2
*MODEL_SPACE
0
ENDBLK
5
21
100
AcDbEntity
100
AcDbBlockEnd
0
BLOCK
5
1C
100
AcDbEntity
100
AcDbBlockBegin
2
*PAPER_SPACE
0
ENDBLK
5
1D
100
AcDbEntity
100
AcDbBlockEnd
0
ENDSEC
0
SECTION
2
ENTITIES
0
LINE
5
100
100
AcDbEntity
8
0
100
AcDbLine
10
5
20
-58.000000000000007
30
0
11
29.000000000000004
21
-58.000000000000007
31
0
0
LINE
5
101
100
AcDbEntity
8
0
100
AcDbLine
10
29.000000000000004
20
-58.000000000000007
30
0
11
29.000000000000004
21
60
31
0
0
LINE
5
102
100
AcDbEntity
8
0
100
AcDbLine
10
29.000000000000004
20
60
30
0
11
60
21
60
31
0
0
SPLINE
5
103
100
AcDbEntity
8
0
100
AcDbSpline
70
4
71
5
72
21
73
15
74
0
42
0.000000001
43
0.0000000001
44
0.0000000001
40
0
40
0
40
0
40
0
40
0
40
0
40
0.10000000000000001
40
0.20000000000000001
40
0.30000000000000004
40
0.40000000000000002
40
0.5
40
0.59999999999999998
40
0.69999999999999996
40
0.79999999999999993
40
0.89999999999999991
40
1
40
1
40
1
40
1
40
1
40
1
41
1
41
1
41
1
41
1
41
1
41
1
41
1
41
1
41
1
41
1
41
1
41
1
41
1
41
1
41
1
10
5
20
-58.000000000000007
30
0
10
6.7948346560594466
20
-57.609578925776795
30
0
10
10.230479159852337
20
-56.771211322813507
30
0
10
14.921876755081072
20
-55.341082815287798
30
0
10
20.237686304649934
20
-53.083416096557571
30
0
10
25.21035211990548
20
-49.653819295257982
30
0
10
28.362370691477487
20
-45.613339213374708
30
0
10
29.54434405162111
20
-41.01186936968741
30
0
10
28.679402447347275
20
-36.002894450410736
30
0
10
25.83858048663858
20
-30.888011767071841
30
0
10
21.141924602752219
20
-26.033472703040815
30
0
10
15.993551934186813
20
-22.650214368892083
30
0
10
11.384637490640648
20
-20.524646401006372
30
0
10
7.9830455394172271
20
-19.30812587242557
30
0
10
6.1999999999999922
20
-18.750000000000004
30
0
0
LINE
5
104
100
AcDbEntity
8
0
100
AcDbLine
10
59.499999999999993
20
-41.486261235121979
30
0
11
60
21
-41.486261235121979
31
0
0
LINE
5
105
100
AcDbEntity
8
0
100
AcDbLine
10
24.000000000000004
20
-41.486261235121979
30
0
11
29.000000000000004
21
-41.486261235121979
31
0
0
LINE
5
106
100
AcDbEntity
8
0
100
AcDbLine
10
-7.5
20
-55.000000000000007
30
0
11
5
21
-58.000000000000007
31
0
0
LINE
5
107
100
AcDbEntity
8
0
100
AcDbLine
10
5
20
-58.000000000000007
30
0
11
5
21
58.000000000000007
31
0
0
LINE
5
108
100
AcDbEntity
8
0
100
AcDbLine
10
-20
20
58.000000000000007
30
0
11
-20
21
-58.000000000000007
31
0
0
LINE
5
109
100
AcDbEntity
8
0
100
AcDbLine
10
5
20
-58.000000000000007
30
0
11
5
21
58.000000000000007
31
0
0
LINE
5
110
100
AcDbEntity
8
0
100
AcDbLine
10
-20
20
-55.000000000000007
30
0
11
-20
21
55.000000000000007
31
0
0
LINE
5
111
100
AcDbEntity
8
0
100
AcDbLine
10
5
20
55.000000000000007
30
0
11
5
21
-55.000000000000007
31
0
0
LINE
5
112
100
AcDbEntity
8
0
100
AcDbLine
10
-20
20
-55.000000000000007
30
0
11
5
21
-55.000000000000007
31
0
0
LINE
5
113
100
AcDbEntity
8
0
100
AcDbLine
10
4
20
-24.75
30
0
11
4
21
24.75
31
0
0
LINE
5
114
100
AcDbEntity
8
0
100
AcDbLine
10
4
20
-24.75
30
0
11
4
21
24.75
31
0
0
LINE
5
115
100
AcDbEntity
8
0
100
AcDbLine
10
8.4000000000000004
20
12.75
30
0
11
8.4000000000000004
21
-12.75
31
0
0
LINE
5
116
100
AcDbEntity
8
0
100
AcDbLine
10
4.0000000000000036
20
-24.75
30
0
11
8.3999999999999986
21
-12.75
31
0
0
SPLINE
5
117
100
AcDbEntity
8
0
100
AcDbSpline
70
4
71
5
72
21
73
15
74
0
42
0.000000001
43
0.0000000001
44
0.0000000001
40
0
40
0
40
0
40
0
40
0
40
0
40
0.10000000000000001
40
0.20000000000000001
40
0.30000000000000004
40
0.40000000000000002
40
0.5
40
0.59999999999999998
40
0.69999999999999996
40
0.79999999999999993
40
0.89999999999999991
40
1
40
1
40
1
40
1
40
1
40
1
41
1
41
1
41
1
41
1
41
1
41
1
41
1
41
1
41
1
41
1
41
1
41
1
41
1
41
1
41
1
10
-7.5
20
-55.000000000000007
30
0
10
-5.3243159834301226
20
-54.698246628388326
30
0
10
-1.1437590877066239
20
-54.063263415488095
30
0
10
4.6146770902937551
20
-53.016370171349429
30
0
10
11.250763270060631
20
-51.418794696386804
30
0
10
17.692008729266689
20
-49.020473825906457
30
0
10
22.110503559971871
20
-46.154155136516721
30
0
10
24.339220220896344
20
-42.793048828221984
30
0
10
24.272242001430307
20
-38.988407541833467
30
0
10
22.002518699743142
20
-34.944597856952754
30
0
10
17.767474278466775
20
-30.977651601624547
30
0
10
13.009450679217254
20
-28.132136134904609
30
0
10
8.7600545788508697
20
-26.306431245344989
30
0
10
5.6353167730913212
20
-25.243161576693712
30
0
10
4.0000000000000036
20
-24.75
30
0
0
LINE
5
118
100
AcDbEntity
8
0
100
AcDbLine
10
4.0000000000000036
20
-24.75
30
0
11
6.1999999999999922
21
-18.750000000000004
31
0
0
ENDSEC
0
SECTION
2
OBJECTS
0
DICTIONARY
5
C
100
AcDbDictionary
3
ACAD_GROUP
350
D
3
ACAD_MLINESTYLE
350
17
0
DICTIONARY
5
D
100
AcDbDictionary
0
DICTIONARY
5
1A
330
C
100
AcDbDictionary
0
DICTIONARY
5
17
100
AcDbDictionary
0
ENDSEC
0
EOF
