0
SECTION
2
HEADER
9
$INSUNITS
70
4
9
$ACADVER
1
AC1014
9
$HANDSEED
5
FFFF
0
ENDSEC
0
SECTION
2
TABLES
0
TABLE
2
VPORT
5
8
100
AcDbSymbolTable
0
ENDTAB
0
TABLE
2
LTYPE
5
5
100
AcDbSymbolTable
0
LTYPE
5
14
100
AcDbSymbolTableRecord
100
AcDbLinetypeTableRecord
2
BYBLOCK
70
0
0
LTYPE
5
15
100
AcDbSymbolTableRecord
100
AcDbLinetypeTableRecord
2
BYLAYER
70
0
0
ENDTAB
0
TABLE
2
LAYER
5
2
100
AcDbSymbolTable
70
2
0
LAYER
5
50
100
AcDbSymbolTableRecord
100
AcDbLayerTableRecord
2
0
70
0
6
CONTINUOUS
0
ENDTAB
0
TABLE
2
STYLE
5
3
100
AcDbSymbolTable
70
1
0
STYLE
5
11
100
AcDbSymbolTableRecord
100
AcDbTextStyleTableRecord
2
STANDARD
70
0
0
ENDTAB
0
TABLE
2
VIEW
5
6
100
AcDbSymbolTable
70
0
0
ENDTAB
0
TABLE
2
UCS
5
7
100
AcDbSymbolTable
70
0
0
ENDTAB
0
TABLE
2
APPID
5
9
100
AcDbSymbolTable
70
2
0
APPID
5
12
100
AcDbSymbolTableRecord
100
AcDbRegAppTableRecord
2
ACAD
70
0
0
ENDTAB
0
TABLE
2
DIMSTYLE
5
A
100
AcDbSymbolTable
70
1
0
ENDTAB
0
TABLE
2
BLOCK_RECORD
5
1
100
AcDbSymbolTable
70
1
0
BLOCK_RECORD
5
1F
100
AcDbSymbolTableRecord
100
AcDbBlockTableRecord
2
*MODEL_SPACE
0
BLOCK_RECORD
5
1B
100
AcDbSymbolTableRecord
100
AcDbBlockTableRecord
2
*PAPER_SPACE
0
ENDTAB
0
ENDSEC
0
SECTION
2
BLOCKS
0
BLOCK
5
20
100
AcDbEntity
100
AcDbBlockBegin
2
*MODEL_SPACE
0
ENDBLK
5
21
100
AcDbEntity
100
AcDbBlockEnd
0
BLOCK
5
1C
100
AcDbEntity
100
AcDbBlockBegin
2
*PAPER_SPACE
0
ENDBLK
5
1D
100
AcDbEntity
100
AcDbBlockEnd
0
ENDSEC
0
SECTION
2
ENTITIES
0
CIRCLE
5
100
100
AcDbEntity
8
0
100
AcDbCircle
10
-100.48859542690779
20
-594.3646441657811
30
0
40
17.500000000000004
210
0
220
0
230
1
0
LINE
5
101
100
AcDbEntity
8
0
100
AcDbLine
10
-100.48859542690923
20
-611.3646441657811
30
0
11
-93.982977076702539
21
-610.0705962184735
31
0
0
LINE
5
102
100
AcDbEntity
8
0
100
AcDbLine
10
-93.982977076702539
20
-610.0705962184735
30
0
11
-88.467780146737425
21
-606.38545944595353
31
0
0
LINE
5
103
100
AcDbEntity
8
0
100
AcDbLine
10
-88.467780146737425
20
-606.38545944595353
30
0
11
-84.782643374216363
21
-600.87026251598888
31
0
0
LINE
5
104
100
AcDbEntity
8
0
100
AcDbLine
10
-84.782643374216363
20
-600.87026251598888
30
0
11
-83.488595426907679
21
-594.36464416578247
31
0
0
LINE
5
105
100
AcDbEntity
8
0
100
AcDbLine
10
-83.488595426907679
20
-594.36464416578247
30
0
11
-84.78264337421524
21
-587.85902581557582
31
0
0
LINE
5
106
100
AcDbEntity
8
0
100
AcDbLine
10
-84.78264337421524
20
-587.85902581557582
30
0
11
-88.46778014673535
21
-582.34382888561061
31
0
0
LINE
5
107
100
AcDbEntity
8
0
100
AcDbLine
10
-88.46778014673535
20
-582.34382888561061
30
0
11
-93.982977076699896
21
-578.65869211308961
31
0
0
LINE
5
108
100
AcDbEntity
8
0
100
AcDbLine
10
-93.982977076699896
20
-578.65869211308961
30
0
11
-100.48859542690636
21
-577.36464416578099
31
0
0
LINE
5
109
100
AcDbEntity
8
0
100
AcDbLine
10
-100.48859542690636
20
-577.36464416578099
30
0
11
-106.99421377711306
21
-578.65869211308859
31
0
0
LINE
5
110
100
AcDbEntity
8
0
100
AcDbLine
10
-106.99421377711306
20
-578.65869211308859
30
0
11
-112.50941070707817
21
-582.34382888560867
31
0
0
LINE
5
111
100
AcDbEntity
8
0
100
AcDbLine
10
-112.50941070707817
20
-582.34382888560867
30
0
11
-116.19454747959924
21
-587.85902581557309
31
0
0
LINE
5
112
100
AcDbEntity
8
0
100
AcDbLine
10
-116.19454747959924
20
-587.85902581557309
30
0
11
-117.48859542690792
21
-594.36464416577962
31
0
0
LINE
5
113
100
AcDbEntity
8
0
100
AcDbLine
10
-117.48859542690792
20
-594.36464416577962
30
0
11
-116.19454747960033
21
-600.87026251598627
31
0
0
LINE
5
114
100
AcDbEntity
8
0
100
AcDbLine
10
-116.19454747960033
20
-600.87026251598627
30
0
11
-112.50941070708022
21
-606.38545944595148
31
0
0
LINE
5
115
100
AcDbEntity
8
0
100
AcDbLine
10
-112.50941070708022
20
-606.38545944595148
30
0
11
-106.99421377711572
21
-610.07059621847247
31
0
0
LINE
5
116
100
AcDbEntity
8
0
100
AcDbLine
10
-106.99421377711572
20
-610.07059621847247
30
0
11
-100.48859542690923
21
-611.3646441657811
31
0
0
LINE
5
117
100
AcDbEntity
8
0
100
AcDbLine
10
-79.614149025716017
20
-594.36464416578258
30
0
11
-81.203121644342176
21
-586.37633936825341
31
0
0
LINE
5
118
100
AcDbEntity
8
0
100
AcDbLine
10
-81.203121644342176
20
-586.37633936825341
30
0
11
-85.728132823109192
21
-579.60418156198421
31
0
0
LINE
5
119
100
AcDbEntity
8
0
100
AcDbLine
10
-85.728132823109192
20
-579.60418156198421
30
0
11
-92.50029062937773
21
-575.07917038321659
31
0
0
LINE
5
120
100
AcDbEntity
8
0
100
AcDbLine
10
-92.50029062937773
20
-575.07917038321659
30
0
11
-100.48859542690565
21
-573.49019776458908
31
0
0
LINE
5
121
100
AcDbEntity
8
0
100
AcDbLine
10
-100.48859542690565
20
-573.49019776458908
30
0
11
-108.47690022443533
21
-575.07917038321534
31
0
0
LINE
5
122
100
AcDbEntity
8
0
100
AcDbLine
10
-108.47690022443533
20
-575.07917038321534
30
0
11
-115.24905803070436
21
-579.60418156198205
31
0
0
LINE
5
123
100
AcDbEntity
8
0
100
AcDbLine
10
-115.24905803070436
20
-579.60418156198205
30
0
11
-119.774069209472
21
-586.37633936824977
31
0
0
LINE
5
124
100
AcDbEntity
8
0
100
AcDbLine
10
-119.774069209472
20
-586.37633936824977
30
0
11
-121.3630418280996
21
-594.3646441657794
31
0
0
LINE
5
125
100
AcDbEntity
8
0
100
AcDbLine
10
-121.3630418280996
20
-594.3646441657794
30
0
11
-119.77406920947367
21
-602.35294896330799
31
0
0
LINE
5
126
100
AcDbEntity
8
0
100
AcDbLine
10
-119.77406920947367
20
-602.35294896330799
30
0
11
-115.24905803070637
21
-609.125106769578
31
0
0
LINE
5
127
100
AcDbEntity
8
0
100
AcDbLine
10
-115.24905803070637
20
-609.125106769578
30
0
11
-108.47690022443878
21
-613.65011794834538
31
0
0
LINE
5
128
100
AcDbEntity
8
0
100
AcDbLine
10
-108.47690022443878
20
-613.65011794834538
30
0
11
-100.48859542691022
21
-615.23909056697266
31
0
0
LINE
5
129
100
AcDbEntity
8
0
100
AcDbLine
10
-100.48859542691022
20
-615.23909056697266
30
0
11
-92.500290629380828
21
-613.65011794834697
31
0
0
LINE
5
130
100
AcDbEntity
8
0
100
AcDbLine
10
-92.500290629380828
20
-613.65011794834697
30
0
11
-85.72813282311138
21
-609.12510676957993
31
0
0
LINE
5
131
100
AcDbEntity
8
0
100
AcDbLine
10
-85.72813282311138
20
-609.12510676957993
30
0
11
-81.203121644343469
21
-602.35294896331141
31
0
0
LINE
5
132
100
AcDbEntity
8
0
100
AcDbLine
10
-81.203121644343469
20
-602.35294896331141
30
0
11
-79.614149025716017
21
-594.36464416578258
31
0
0
LINE
5
133
100
AcDbEntity
8
0
100
AcDbLine
10
-100.48859542690779
20
-594.3646441657811
30
0
11
-100.48859542690779
21
-563.66272552875535
31
0
0
LINE
5
134
100
AcDbEntity
8
0
100
AcDbLine
10
-80.888595426907671
20
-563.86464416578099
30
0
11
-120.08859542690766
21
-563.86464416578099
31
0
0
LINE
5
135
100
AcDbEntity
8
0
100
AcDbLine
10
-120.08859542690766
20
-563.86464416578099
30
0
11
-120.08859542690766
21
-570.86464416578099
31
0
0
LINE
5
136
100
AcDbEntity
8
0
100
AcDbLine
10
-120.08859542690766
20
-570.86464416578099
30
0
11
-80.888595426907671
21
-570.86464416578099
31
0
0
LINE
5
137
100
AcDbEntity
8
0
100
AcDbLine
10
-80.888595426907671
20
-570.86464416578099
30
0
11
-80.888595426907671
21
-563.86464416578099
31
0
0
LINE
5
138
100
AcDbEntity
8
0
100
AcDbLine
10
-80.888595426907671
20
-563.86464416578099
30
0
11
-120.08859542690766
21
-570.86464416578099
31
0
0
LINE
5
139
100
AcDbEntity
8
0
100
AcDbLine
10
-120.08859542690766
20
-563.86464416578099
30
0
11
-80.888595426907671
21
-570.86464416578099
31
0
0
LINE
5
140
100
AcDbEntity
8
0
100
AcDbLine
10
-121.3630418280996
20
-594.3646441657794
30
0
11
-120.08859542690766
21
-570.86464416578099
31
0
0
LINE
5
141
100
AcDbEntity
8
0
100
AcDbLine
10
-80.888595426907671
20
-570.86464416578099
30
0
11
-79.614149025716017
21
-594.36464416578258
31
0
0
LINE
5
142
100
AcDbEntity
8
0
100
AcDbLine
10
-79.614149025716017
20
-594.36464416578258
30
0
11
-83.488595426907679
21
-594.36464416578247
31
0
0
ENDSEC
0
SECTION
2
OBJECTS
0
DICTIONARY
5
C
100
AcDbDictionary
3
ACAD_GROUP
350
D
3
ACAD_MLINESTYLE
350
17
0
DICTIONARY
5
D
100
AcDbDictionary
0
DICTIONARY
5
1A
330
C
100
AcDbDictionary
0
DICTIONARY
5
17
100
AcDbDictionary
0
ENDSEC
0
EOF
