0
SECTION
2
HEADER
9
$INSUNITS
70
4
9
$ACADVER
1
AC1014
9
$HANDSEED
5
FFFF
0
ENDSEC
0
SECTION
2
TABLES
0
TABLE
2
VPORT
5
8
100
AcDbSymbolTable
0
ENDTAB
0
TABLE
2
LTYPE
5
5
100
AcDbSymbolTable
0
LTYPE
5
14
100
AcDbSymbolTableRecord
100
AcDbLinetypeTableRecord
2
BYBLOCK
70
0
0
LTYPE
5
15
100
AcDbSymbolTableRecord
100
AcDbLinetypeTableRecord
2
BYLAYER
70
0
0
ENDTAB
0
TABLE
2
LAYER
5
2
100
AcDbSymbolTable
70
2
0
LAYER
5
50
100
AcDbSymbolTableRecord
100
AcDbLayerTableRecord
2
0
70
0
6
CONTINUOUS
0
ENDTAB
0
TABLE
2
STYLE
5
3
100
AcDbSymbolTable
70
1
0
STYLE
5
11
100
AcDbSymbolTableRecord
100
AcDbTextStyleTableRecord
2
STANDARD
70
0
0
ENDTAB
0
TABLE
2
VIEW
5
6
100
AcDbSymbolTable
70
0
0
ENDTAB
0
TABLE
2
UCS
5
7
100
AcDbSymbolTable
70
0
0
ENDTAB
0
TABLE
2
APPID
5
9
100
AcDbSymbolTable
70
2
0
APPID
5
12
100
AcDbSymbolTableRecord
100
AcDbRegAppTableRecord
2
ACAD
70
0
0
ENDTAB
0
TABLE
2
DIMSTYLE
5
A
100
AcDbSymbolTable
70
1
0
ENDTAB
0
TABLE
2
BLOCK_RECORD
5
1
100
AcDbSymbolTable
70
1
0
BLOCK_RECORD
5
1F
100
AcDbSymbolTableRecord
100
AcDbBlockTableRecord
2
*MODEL_SPACE
0
BLOCK_RECORD
5
1B
100
AcDbSymbolTableRecord
100
AcDbBlockTableRecord
2
*PAPER_SPACE
0
ENDTAB
0
ENDSEC
0
SECTION
2
BLOCKS
0
BLOCK
5
20
100
AcDbEntity
100
AcDbBlockBegin
2
*MODEL_SPACE
0
ENDBLK
5
21
100
AcDbEntity
100
AcDbBlockEnd
0
BLOCK
5
1C
100
AcDbEntity
100
AcDbBlockBegin
2
*PAPER_SPACE
0
ENDBLK
5
1D
100
AcDbEntity
100
AcDbBlockEnd
0
ENDSEC
0
SECTION
2
ENTITIES
0
LWPOLYLINE
5
100
100
AcDbEntity
8
0
100
AcDbPolyline
90
8
70
1
43
0.0
10
-32.499999999999986
20
-44.999999999999986
10
32.5
20
-44.999999999999993
42
0.41421356237309503
10
36
20
-41.499999999999993
10
36
20
41.500000000000014
42
0.41421356237309431
10
32.500000000000007
20
45.000000000000007
10
-32.500000000000007
20
45.000000000000007
42
0.41421356237309132
10
-36.000000000000007
20
41.499999999999986
10
-35.999999999999993
20
-41.499999999999986
42
0.41421356237309614
0
LINE
5
101
100
AcDbEntity
8
0
100
AcDbLine
10
36
20
-44.999999999999986
30
0
11
-36.000000000000007
21
45.000000000000007
31
0
0
LINE
5
102
100
AcDbEntity
8
0
100
AcDbLine
10
-35.999999999999986
20
-44.999999999999986
30
0
11
36
21
45.000000000000007
31
0
0
LINE
5
103
100
AcDbEntity
8
0
100
AcDbLine
10
32.500000000000007
20
-41.499999999999986
30
0
11
-32.500000000000007
21
-41.499999999999986
31
0
0
LINE
5
104
100
AcDbEntity
8
0
100
AcDbLine
10
-32.500000000000007
20
-41.499999999999986
30
0
11
-32.500000000000007
21
41.499999999999986
31
0
0
LINE
5
105
100
AcDbEntity
8
0
100
AcDbLine
10
-32.500000000000007
20
41.499999999999986
30
0
11
32.500000000000007
21
41.499999999999986
31
0
0
LINE
5
106
100
AcDbEntity
8
0
100
AcDbLine
10
32.500000000000007
20
41.499999999999986
30
0
11
32.500000000000007
21
-41.499999999999986
31
0
0
LINE
5
107
100
AcDbEntity
8
0
100
AcDbLine
10
32.500000000000007
20
-41.499999999999986
30
0
11
-32.500000000000007
21
41.499999999999986
31
0
0
LINE
5
108
100
AcDbEntity
8
0
100
AcDbLine
10
-32.500000000000007
20
-41.499999999999986
30
0
11
32.500000000000007
21
41.499999999999986
31
0
0
CIRCLE
5
109
100
AcDbEntity
8
0
100
AcDbCircle
10
-32.500000000000007
20
41.499999999999986
30
0
40
3.5000000000000004
210
0
220
0
230
1
0
CIRCLE
5
110
100
AcDbEntity
8
0
100
AcDbCircle
10
32.500000000000007
20
41.499999999999986
30
0
40
3.5000000000000004
210
0
220
0
230
1
0
CIRCLE
5
111
100
AcDbEntity
8
0
100
AcDbCircle
10
-32.500000000000007
20
-41.499999999999986
30
0
40
3.5000000000000004
210
0
220
0
230
1
0
CIRCLE
5
112
100
AcDbEntity
8
0
100
AcDbCircle
10
32.500000000000007
20
-41.499999999999986
30
0
40
3.5000000000000004
210
0
220
0
230
1
0
CIRCLE
5
113
100
AcDbEntity
8
0
100
AcDbCircle
10
-32.500000000000007
20
41.499999999999986
30
0
40
1.6000000000000028
210
0
220
0
230
1
0
CIRCLE
5
114
100
AcDbEntity
8
0
100
AcDbCircle
10
32.500000000000007
20
41.499999999999986
30
0
40
1.6000000000000014
210
0
220
0
230
1
0
CIRCLE
5
115
100
AcDbEntity
8
0
100
AcDbCircle
10
32.500000000000007
20
-41.499999999999986
30
0
40
1.6000000000000001
210
0
220
0
230
1
0
CIRCLE
5
116
100
AcDbEntity
8
0
100
AcDbCircle
10
-32.500000000000007
20
-41.499999999999986
30
0
40
1.6000000000000012
210
0
220
0
230
1
0
LINE
5
117
100
AcDbEntity
8
0
100
AcDbLine
10
29.999999999999996
20
-27.500000000000004
30
0
11
-29.999999999999996
21
-27.500000000000004
31
0
0
LINE
5
118
100
AcDbEntity
8
0
100
AcDbLine
10
-29.999999999999996
20
-27.500000000000004
30
0
11
-29.999999999999996
21
27.500000000000004
31
0
0
LINE
5
119
100
AcDbEntity
8
0
100
AcDbLine
10
-29.999999999999996
20
27.500000000000004
30
0
11
29.999999999999996
21
27.500000000000004
31
0
0
LINE
5
120
100
AcDbEntity
8
0
100
AcDbLine
10
29.999999999999996
20
27.500000000000004
30
0
11
29.999999999999996
21
-27.500000000000004
31
0
0
LINE
5
121
100
AcDbEntity
8
0
100
AcDbLine
10
29.999999999999996
20
-27.500000000000004
30
0
11
-29.999999999999996
21
27.500000000000004
31
0
0
LINE
5
122
100
AcDbEntity
8
0
100
AcDbLine
10
-29.999999999999996
20
-27.500000000000004
30
0
11
29.999999999999996
21
27.500000000000004
31
0
0
CIRCLE
5
123
100
AcDbEntity
8
0
100
AcDbCircle
10
-29.999999999999996
20
27.500000000000004
30
0
40
1.5999999999999992
210
0
220
0
230
1
0
CIRCLE
5
124
100
AcDbEntity
8
0
100
AcDbCircle
10
0
20
27.500000000000004
30
0
40
1.600000000000001
210
0
220
0
230
1
0
CIRCLE
5
125
100
AcDbEntity
8
0
100
AcDbCircle
10
29.999999999999996
20
27.500000000000004
30
0
40
1.6000000000000014
210
0
220
0
230
1
0
CIRCLE
5
126
100
AcDbEntity
8
0
100
AcDbCircle
10
-29.999999999999996
20
-27.500000000000004
30
0
40
1.6000000000000012
210
0
220
0
230
1
0
CIRCLE
5
127
100
AcDbEntity
8
0
100
AcDbCircle
10
0
20
-27.500000000000004
30
0
40
1.6000000000000003
210
0
220
0
230
1
0
CIRCLE
5
128
100
AcDbEntity
8
0
100
AcDbCircle
10
29.999999999999996
20
-27.500000000000004
30
0
40
1.5999999999999988
210
0
220
0
230
1
0
LWPOLYLINE
5
129
100
AcDbEntity
8
0
100
AcDbPolyline
90
4
70
1
43
0.0
10
-1.5000000000000002
20
-35
10
-1.5000000000000002
20
35
42
-0.99999999999999989
10
1.5000000000000002
20
35
10
1.5000000000000002
20
-35
42
-0.99999999999999989
0
LINE
5
130
100
AcDbEntity
8
0
100
AcDbLine
10
0
20
35
30
0
11
0
21
-35
31
0
0
LWPOLYLINE
5
131
100
AcDbEntity
8
0
100
AcDbPolyline
90
4
70
1
43
0.0
10
-24.5
20
-35
10
-24.500000000000007
20
35
42
-0.99999999999999989
10
-21.5
20
35
10
-21.500000000000004
20
-35
42
-0.99999999999999989
0
LWPOLYLINE
5
132
100
AcDbEntity
8
0
100
AcDbPolyline
90
4
70
1
43
0.0
10
-16.833333333333336
20
-35
10
-16.833333333333332
20
35
42
-0.99999999999999989
10
-13.833333333333336
20
35
10
-13.833333333333332
20
-35
42
-0.99999999999999989
0
LWPOLYLINE
5
133
100
AcDbEntity
8
0
100
AcDbPolyline
90
4
70
1
43
0.0
10
-9.1666666666666679
20
-35
10
-9.1666666666666679
20
35
42
-0.99999999999999989
10
-6.166666666666667
20
35
10
-6.166666666666667
20
-35
42
-0.99999999999999989
0
LWPOLYLINE
5
134
100
AcDbEntity
8
0
100
AcDbPolyline
90
4
70
1
43
0.0
10
6.166666666666667
20
-35
10
6.166666666666667
20
35
42
-0.99999999999999989
10
9.1666666666666679
20
35
10
9.1666666666666679
20
-35
42
-0.99999999999999989
0
LWPOLYLINE
5
135
100
AcDbEntity
8
0
100
AcDbPolyline
90
4
70
1
43
0.0
10
13.833333333333332
20
-35
10
13.833333333333336
20
35
42
-0.99999999999999989
10
16.833333333333332
20
35
10
16.833333333333336
20
-35
42
-0.99999999999999989
0
LWPOLYLINE
5
136
100
AcDbEntity
8
0
100
AcDbPolyline
90
4
70
1
43
0.0
10
21.500000000000004
20
-35
10
21.5
20
35
42
-0.99999999999999989
10
24.500000000000007
20
35
10
24.5
20
-35
42
-0.99999999999999989
0
ENDSEC
0
SECTION
2
OBJECTS
0
DICTIONARY
5
C
100
AcDbDictionary
3
ACAD_GROUP
350
D
3
ACAD_MLINESTYLE
350
17
0
DICTIONARY
5
D
100
AcDbDictionary
0
DICTIONARY
5
1A
330
C
100
AcDbDictionary
0
DICTIONARY
5
17
100
AcDbDictionary
0
ENDSEC
0
EOF
