                                                                        S      1
,,10HComponent1,10HComponent1,7Hunknown,7Hunknown,32,38,7,99,15,,1.,2,2HG      1
MM,1,0.08,15H20201205.175920,0.01,10000.,7Hunknown,7Hunknown,11,0,;     G      2
     186       1                                                00000000D      1
     186            -239       1       0                               0D      2
     514       2                                                00010000D      3
     514                       2       1                               0D      4
     510       4                                                00010000D      5
     510            -239       1       1                               0D      6
     510       5                                                00010000D      7
     510            -239       1       1                               0D      8
     510       6                                                00010000D      9
     510            -239       1       1                               0D     10
     510       7                                                00010000D     11
     510            -239       1       1                               0D     12
     510       8                                                00010000D     13
     510            -239       1       1                               0D     14
     510       9                                                00010000D     15
     510            -239       1       1                               0D     16
     510      10                                                00010000D     17
     510            -239       1       1                               0D     18
     510      11                                                00010000D     19
     510            -239       1       1                               0D     20
     510      12                                                00010000D     21
     510            -239       1       1                               0D     22
     510      13                                                00010000D     23
     510            -239       1       1                               0D     24
     510      14                                                00010000D     25
     510            -239       1       1                               0D     26
     510      15                                                00010000D     27
     510            -239       1       1                               0D     28
     510      16                                                00010000D     29
     510            -239       1       1                               0D     30
     510      17                                                00010000D     31
     510            -239       1       1                               0D     32
     510      18                                                00010000D     33
     510            -239       1       1                               0D     34
     510      19                                                00010000D     35
     510            -239       1       1                               0D     36
     510      20                                                00010000D     37
     510            -239       1       1                               0D     38
     510      21                                                00010000D     39
     510            -239       1       1                               0D     40
     508      22                                                00010000D     41
     508                       2       1                               0D     42
     508      24                                                00010000D     43
     508                       1       1                               0D     44
     508      25                                                00010000D     45
     508                       1       1                               0D     46
     508      26                                                00010000D     47
     508                       2       1                               0D     48
     508      28                                                00010000D     49
     508                       2       1                               0D     50
     508      30                                                00010000D     51
     508                       1       1                               0D     52
     508      31                                                00010000D     53
     508                       1       1                               0D     54
     508      32                                                00010000D     55
     508                       2       1                               0D     56
     508      34                                                00010000D     57
     508                       3       1                               0D     58
     508      37                                                00010000D     59
     508                       1       1                               0D     60
     508      38                                                00010000D     61
     508                       1       1                               0D     62
     508      39                                                00010000D     63
     508                       3       1                               0D     64
     508      42                                                00010000D     65
     508                       1       1                               0D     66
     508      43                                                00010000D     67
     508                       2       1                               0D     68
     508      45                                                00010000D     69
     508                       2       1                               0D     70
     508      47                                                00010000D     71
     508                       1       1                               0D     72
     508      48                                                00010000D     73
     508                       1       1                               0D     74
     508      49                                                00010000D     75
     508                       2       1                               0D     76
     508      51                                                00010000D     77
     508                       1       1                               0D     78
     508      52                                                00010000D     79
     508                       1       1                               0D     80
     508      53                                                00010000D     81
     508                       1       1                               0D     82
     126      54                                                00010000D     83
     126       0               2       0                               0D     84
     126      56                                                00010000D     85
     126       0               4       0                               0D     86
     126      60                                                00010000D     87
     126       0               2       0                               0D     88
     126      62                                                00010000D     89
     126       0               4       0                               0D     90
     126      66                                                00010000D     91
     126       0               2       0                               0D     92
     126      68                                                00010000D     93
     126       0               4       0                               0D     94
     126      72                                                00010000D     95
     126       0               2       0                               0D     96
     126      74                                                00010000D     97
     126       0               4       0                               0D     98
     126      78                                                00010000D     99
     126       0               5       0                               0D    100
     126      83                                                00010000D    101
     126       0               4       0                               0D    102
     126      87                                                00010000D    103
     126       0               6       0                               0D    104
     126      93                                                00010000D    105
     126       0               6       0                               0D    106
     126      99                                                00010000D    107
     126       0               5       0                               0D    108
     126     104                                                00010000D    109
     126       0               2       0                               0D    110
     126     106                                                00010000D    111
     126       0               2       0                               0D    112
     126     108                                                00010000D    113
     126       0               4       0                               0D    114
     126     112                                                00010000D    115
     126       0               4       0                               0D    116
     126     116                                                00010000D    117
     126       0               2       0                               0D    118
     126     118                                                00010000D    119
     126       0               4       0                               0D    120
     126     122                                                00010000D    121
     126       0               2       0                               0D    122
     126     124                                                00010000D    123
     126       0               2       0                               0D    124
     126     126                                                00010000D    125
     126       0               4       0                               0D    126
     126     130                                                00010000D    127
     126       0               2       0                               0D    128
     126     132                                                00010000D    129
     126       0               4       0                               0D    130
     126     136                                                00010000D    131
     126       0               2       0                               0D    132
     126     138                                                00010000D    133
     126       0               4       0                               0D    134
     126     142                                                00010000D    135
     126       0               2       0                               0D    136
     126     144                                                00010000D    137
     126       0               4       0                               0D    138
     126     148                                                00010000D    139
     126       0               6       0                               0D    140
     126     154                                                00010000D    141
     126       0               4       0                               0D    142
     126     158                                                00010000D    143
     126       0               5       0                               0D    144
     126     163                                                00010000D    145
     126       0               5       0                               0D    146
     126     168                                                00010000D    147
     126       0               6       0                               0D    148
     126     174                                                00010000D    149
     126       0               2       0                               0D    150
     126     176                                                00010000D    151
     126       0               2       0                               0D    152
     126     178                                                00010000D    153
     126       0               4       0                               0D    154
     126     182                                                00010000D    155
     126       0               4       0                               0D    156
     126     186                                                00010000D    157
     126       0               2       0                               0D    158
     126     188                                                00010000D    159
     126       0               4       0                               0D    160
     126     192                                                00010000D    161
     126       0               2       0                               0D    162
     126     194                                                00010000D    163
     126       0              10       0                               0D    164
     126     204                                                00010000D    165
     126       0               2       0                               0D    166
     126     206                                                00010000D    167
     126       0               6       0                               0D    168
     126     212                                                00010000D    169
     126       0               6       0                               0D    170
     126     218                                                00010000D    171
     126       0               6       0                               0D    172
     126     224                                                00010000D    173
     126       0               6       0                               0D    174
     126     230                                                00010000D    175
     126       0               6       0                               0D    176
     126     236                                                00010000D    177
     126       0               7       0                               0D    178
     126     243                                                00010000D    179
     126       0               8       0                               0D    180
     126     251                                                00010000D    181
     126       0              10       0                               0D    182
     126     261                                                00010000D    183
     126       0               2       0                               0D    184
     126     263                                                00010000D    185
     126       0               6       0                               0D    186
     126     269                                                00010000D    187
     126       0               6       0                               0D    188
     126     275                                                00010000D    189
     126       0               5       0                               0D    190
     126     280                                                00010000D    191
     126       0              10       0                               0D    192
     126     290                                                00010000D    193
     126       0              10       0                               0D    194
     126     300                                                00010000D    195
     126       0               2       0                               0D    196
     128     302                                                00010000D    197
     128       0    -239       5       0                               0D    198
     128     307                                                00010000D    199
     128       0    -239       6       0                               0D    200
     128     313                                                00010000D    201
     128       0    -239       9       0                               0D    202
     128     322                                                00010000D    203
     128       0    -239       5       0                               0D    204
     128     327                                                00010000D    205
     128       0    -239       5       0                               0D    206
     128     332                                                00010000D    207
     128       0    -239       6       0                               0D    208
     128     338                                                00010000D    209
     128       0    -239       9       0                               0D    210
     128     347                                                00010000D    211
     128       0    -239       5       0                               0D    212
     128     352                                                00010000D    213
     128       0    -239      12       0                               0D    214
     128     364                                                00010000D    215
     128       0    -239       9       0                               0D    216
     128     373                                                00010000D    217
     128       0    -239      10       0                               0D    218
     128     383                                                00010000D    219
     128       0    -239      12       0                               0D    220
     128     395                                                00010000D    221
     128       0    -239       5       0                               0D    222
     128     400                                                00010000D    223
     128       0    -239       6       0                               0D    224
     128     406                                                00010000D    225
     128       0    -239       6       0                               0D    226
     128     412                                                00010000D    227
     128       0    -239      12       0                               0D    228
     128     424                                                00010000D    229
     128       0    -239       6       0                               0D    230
     128     430                                                00010000D    231
     128       0    -239       3       0                               0D    232
     502     433                                                00010000D    233
     502                      19       1                               0D    234
     504     452                                                00010001D    235
     504                      16       1                               0D    236
     406     468                                                00000000D    237
     406                       1      15                               0D    238
     314     469                                                00000200D    239
     314                       2       0                               0D    240
     314     471                                                00000200D    241
     314                       2       0                               0D    242
186,3,1,0,0,1,237;                                                     1P      1
514,18,5,1,7,1,9,1,11,1,13,1,15,1,17,1,19,1,21,1,23,1,25,1,27,1,       3P      2
29,1,31,1,33,1,35,1,37,1,39,1;                                         3P      3
510,197,1,1,41;                                                        5P      4
510,199,1,1,43;                                                        7P      5
510,201,1,1,45;                                                        9P      6
510,203,1,1,47;                                                       11P      7
510,205,1,1,49;                                                       13P      8
510,207,1,1,51;                                                       15P      9
510,209,1,1,53;                                                       17P     10
510,211,1,1,55;                                                       19P     11
510,213,1,1,57;                                                       21P     12
510,215,1,1,59;                                                       23P     13
510,217,1,1,61;                                                       25P     14
510,219,1,1,63;                                                       27P     15
510,221,1,1,65;                                                       29P     16
510,223,1,1,67;                                                       31P     17
510,225,2,1,69,71;                                                    33P     18
510,227,1,1,73;                                                       35P     19
510,229,2,1,75,77;                                                    37P     20
510,231,2,1,79,81;                                                    39P     21
508,8,0,235,1,0,0,0,235,2,1,0,0,235,3,0,0,0,235,4,0,0,0,235,5,0,      41P     22
0,0,235,6,0,0,0,235,7,1,0,0,235,8,0,0;                                41P     23
508,4,0,235,9,0,0,0,235,10,0,0,0,235,11,0,0,0,235,2,0,0;              43P     24
508,4,0,235,12,0,0,0,235,7,0,0,0,235,13,0,0,0,235,14,1,0;             45P     25
508,8,0,235,15,0,0,0,235,16,0,0,0,235,14,0,0,0,235,17,0,0,0,235,      47P     26
18,0,0,0,235,19,0,0,0,235,20,0,0,0,235,10,1,0;                        47P     27
508,8,0,235,21,0,0,0,235,22,1,0,0,235,23,0,0,0,235,24,0,0,0,235,      49P     28
25,0,0,0,235,26,0,0,0,235,27,1,0,0,235,28,0,0;                        49P     29
508,4,0,235,29,0,0,0,235,30,0,0,0,235,31,0,0,0,235,22,0,0;            51P     30
508,4,0,235,32,0,0,0,235,27,0,0,0,235,33,0,0,0,235,34,1,0;            53P     31
508,8,0,235,35,0,0,0,235,36,0,0,0,235,34,0,0,0,235,37,0,0,0,235,      55P     32
38,0,0,0,235,39,0,0,0,235,40,0,0,0,235,30,1,0;                        55P     33
508,12,0,235,41,0,0,0,235,42,1,0,0,235,43,1,0,0,235,35,1,0,0,         57P     34
235,29,1,0,0,235,21,1,0,0,235,44,1,0,0,235,15,1,0,0,235,9,1,0,0,      57P     35
235,1,1,0,0,235,45,1,0,0,235,42,0,0;                                  57P     36
508,4,0,235,18,1,0,0,235,46,0,0,0,235,25,1,0,0,235,47,0,0;            59P     37
508,4,0,235,5,1,0,0,235,48,0,0,0,235,38,1,0,0,235,49,0,0;             61P     38
508,12,0,235,50,0,0,0,235,51,1,0,0,235,52,1,0,0,235,3,1,0,0,235,      63P     39
11,1,0,0,235,20,1,0,0,235,53,1,0,0,235,23,1,0,0,235,31,1,0,0,         63P     40
235,40,1,0,0,235,54,1,0,0,235,51,0,0;                                 63P     41
508,4,0,235,19,1,0,0,235,47,1,0,0,235,24,1,0,0,235,53,0,0;            65P     42
508,5,0,235,4,1,0,0,235,52,0,0,0,235,54,0,0,0,235,39,1,0,0,235,       67P     43
48,1,0;                                                               67P     44
508,9,0,235,16,1,0,0,235,44,0,0,0,235,28,1,0,0,235,32,1,0,0,235,      69P     45
36,1,0,0,235,43,0,0,0,235,45,0,0,0,235,8,1,0,0,235,12,1,0;            69P     46
508,1,0,235,55,1,0;                                                   71P     47
508,4,0,235,56,0,0,0,235,57,1,0,0,235,55,0,0,0,235,57,0,0;            73P     48
508,8,0,235,6,1,0,0,235,49,1,0,0,235,37,1,0,0,235,33,1,0,0,235,       75P     49
26,1,0,0,235,46,1,0,0,235,17,1,0,0,235,13,1,0;                        75P     50
508,1,0,235,56,1,0;                                                   77P     51
508,1,0,235,50,1,0;                                                   79P     52
508,1,0,235,41,1,0;                                                   81P     53
126,1,1,0,0,1,0,-0.1,-0.1,0.,0.,1.,1.,-1.6,-12.3971770980332,1.,      83P     54
-1.6,-12.3971770980332,0.,-0.1,0.,0.,0.,0.;                           83P     55
126,1,1,0,0,1,0,2.98971770980332,2.98971770980332,                    85P     56
3.24144225500017,3.24144225500017,1.,1.,-1.6,-12.3971770980332,       85P     57
1.,-1.6,-14.9144225500017,1.,2.98971770980332,3.24144225500017,       85P     58
0.,0.,0.;                                                             85P     59
126,1,1,0,0,1,0,0.,0.,0.1,0.1,1.,1.,-1.6,-14.9144225500017,0.,        87P     60
-1.6,-14.9144225500017,1.,0.,0.1,0.,0.,0.;                            87P     61
126,1,1,0,0,1,0,-1.22561259733614,-1.22561259733614,                  89P     62
-1.12507495296573,-1.12507495296573,1.,1.,-1.6,                       89P     63
-15.9197989937059,0.,-1.6,-14.9144225500017,0.,                       89P     64
-1.22561259733614,-1.12507495296573,0.,0.,0.;                         89P     65
126,1,1,0,0,1,0,-0.2,-0.2,0.,0.,1.,1.,-1.6,-15.9197989937059,         91P     66
-2.,-1.6,-15.9197989937059,0.,-0.2,0.,0.,0.,0.;                       91P     67
126,1,1,0,0,1,0,0.366367302034447,0.366367302034447,                  93P     68
1.22561259733614,1.22561259733614,1.,1.,-1.6,-7.32734604068895,       93P     69
-2.,-1.6,-15.9197989937059,-2.,0.366367302034447,                     93P     70
1.22561259733614,0.,0.,0.;                                            93P     71
126,1,1,0,0,1,0,0.,0.,0.2,0.2,1.,1.,-1.6,-7.32734604068895,-2.,       95P     72
-1.6,-7.32734604068895,0.,0.,0.2,0.,0.,0.;                            95P     73
126,1,1,0,0,1,0,-0.873350407768877,-0.873350407768877,                97P     74
-0.366367302034447,-0.366367302034447,1.,1.,-1.6,                     97P     75
-12.3971770980332,0.,-1.6,-7.32734604068895,0.,                       97P     76
-0.873350407768877,-0.366367302034447,0.,0.,0.;                       97P     77
126,2,2,0,0,0,0,1.44244419906584,1.44244419906584,                    99P     78
1.44244419906584,1.69914845452395,1.69914845452395,                   99P     79
1.69914845452395,1.,0.991774167842672,1.,1.6,-12.3971770980332,       99P     80
1.,8.32667268468867D-16,-12.6036757210469,1.,-1.6,                    99P     81
-12.3971770980332,1.,1.44244419906584,1.69914845452395,0.,0.,0.;      99P     82
126,1,1,0,0,1,0,0.258557744999827,0.258557744999827,                 101P     83
0.510282290196675,0.510282290196675,1.,1.,1.6,-14.9144225500017,     101P     84
1.,1.6,-12.3971770980332,1.,0.258557744999827,0.510282290196675,     101P     85
0.,0.,0.;                                                            101P     86
126,2,2,0,0,0,0,-1.67766630776568,-1.67766630776568,                 103P     87
-1.67766630776568,-1.46392634582411,-1.46392634582411,               103P     88
-1.46392634582411,1.,0.994294836666757,1.,-1.6,                      103P     89
-14.9144225500017,1.,-6.93889390390723D-16,-15.0860684847617,1.,     103P     90
1.6,-14.9144225500017,1.,-1.67766630776568,-1.46392634582411,0.,     103P     91
0.,0.;                                                               103P     92
126,2,2,0,0,0,0,-1.78578189968557,-1.78578189968557,                 105P     93
-1.78578189968557,-1.35581075390422,-1.35581075390422,               105P     94
-1.35581075390422,1.,0.976979472091861,1.,-1.6,                      105P     95
-7.32734604068895,0.,0.,-7.67672219759272,0.,1.6,                    105P     96
-7.32734604068895,0.,-1.78578189968557,-1.35581075390422,0.,0.,      105P     97
0.;                                                                  105P     98
126,2,2,0,0,0,0,1.35581075390422,1.35581075390422,                   107P     99
1.35581075390422,1.78578189968557,1.78578189968557,                  107P    100
1.78578189968557,1.,0.976979472091861,1.,1.6,-7.32734604068895,      107P    101
-2.,0.,-7.67672219759272,-2.,-1.6,-7.32734604068895,-2.,             107P    102
1.35581075390422,1.78578189968557,0.,0.,0.;                          107P    103
126,1,1,0,0,1,0,0.,0.,0.2,0.2,1.,1.,1.6,-7.32734604068895,-2.,       109P    104
1.6,-7.32734604068895,0.,0.,0.2,0.,0.,0.;                            109P    105
126,1,1,0,0,1,0,0.,0.,0.1,0.1,1.,1.,1.6,-12.3971770980332,0.,        111P    106
1.6,-12.3971770980332,1.,0.,0.1,0.,0.,0.;                            111P    107
126,1,1,0,0,1,0,-0.0632553456164012,-0.0632553456164012,             113P    108
0.443727760118029,0.443727760118029,1.,1.,1.6,-7.32734604068895,     113P    109
0.,1.6,-12.3971770980332,0.,-0.0632553456164012,                     113P    110
0.443727760118029,0.,0.,0.;                                          113P    111
126,1,1,0,0,1,0,-0.795989949685296,-0.795989949685296,               115P    112
0.0632553456164012,0.0632553456164012,1.,1.,1.6,                     115P    113
-15.9197989937059,-2.,1.6,-7.32734604068895,-2.,                     115P    114
-0.795989949685296,0.0632553456164012,0.,0.,0.;                      115P    115
126,1,1,0,0,1,0,0.,0.,0.2,0.2,1.,1.,1.6,-15.9197989937059,0.,        117P    116
1.6,-15.9197989937059,-2.,0.,0.2,0.,0.,0.;                           117P    117
126,1,1,0,0,1,0,0.695452305314877,0.695452305314877,                 119P    118
0.795989949685296,0.795989949685296,1.,1.,1.6,-14.9144225500017,     119P    119
0.,1.6,-15.9197989937059,0.,0.695452305314877,0.795989949685296,     119P    120
0.,0.,0.;                                                            119P    121
126,1,1,0,0,1,0,-0.1,-0.1,0.,0.,1.,1.,1.6,-14.9144225500017,1.,      121P    122
1.6,-14.9144225500017,0.,-0.1,0.,0.,0.,0.;                           121P    123
126,1,1,0,0,1,0,-0.1,-0.1,0.,0.,1.,1.,1.6,12.3971770980332,1.,       123P    124
1.6,12.3971770980332,0.,-0.1,0.,0.,0.,0.;                            123P    125
126,1,1,0,0,1,0,2.98971770980332,2.98971770980332,                   125P    126
3.24144225500017,3.24144225500017,1.,1.,1.6,12.3971770980332,1.,     125P    127
1.6,14.9144225500017,1.,2.98971770980332,3.24144225500017,0.,0.,     125P    128
0.;                                                                  125P    129
126,1,1,0,0,1,0,0.,0.,0.1,0.1,1.,1.,1.6,14.9144225500017,0.,1.6,     127P    130
14.9144225500017,1.,0.,0.1,0.,0.,0.;                                 127P    131
126,1,1,0,0,1,0,-1.22561259733614,-1.22561259733614,                 129P    132
-1.12507495296573,-1.12507495296573,1.,1.,1.6,15.9197989937059,      129P    133
0.,1.6,14.9144225500017,0.,-1.22561259733614,-1.12507495296573,      129P    134
0.,0.,0.;                                                            129P    135
126,1,1,0,0,1,0,-0.2,-0.2,0.,0.,1.,1.,1.6,15.9197989937059,-2.,      131P    136
1.6,15.9197989937059,0.,-0.2,0.,0.,0.,0.;                            131P    137
126,1,1,0,0,1,0,0.366367302034447,0.366367302034447,                 133P    138
1.22561259733614,1.22561259733614,1.,1.,1.6,7.32734604068895,        133P    139
-2.,1.6,15.9197989937059,-2.,0.366367302034447,1.22561259733614,     133P    140
0.,0.,0.;                                                            133P    141
126,1,1,0,0,1,0,0.,0.,0.2,0.2,1.,1.,1.6,7.32734604068895,-2.,        135P    142
1.6,7.32734604068895,0.,0.,0.2,0.,0.,0.;                             135P    143
126,1,1,0,0,1,0,-0.873350407768877,-0.873350407768877,               137P    144
-0.366367302034447,-0.366367302034447,1.,1.,1.6,                     137P    145
12.3971770980332,0.,1.6,7.32734604068895,0.,-0.873350407768877,      137P    146
-0.366367302034447,0.,0.,0.;                                         137P    147
126,2,2,0,0,0,0,-1.69914845452395,-1.69914845452395,                 139P    148
-1.69914845452395,-1.44244419906584,-1.44244419906584,               139P    149
-1.44244419906584,1.,0.991774167842672,1.,-1.6,12.3971770980332,     139P    150
1.,8.32667268468867D-16,12.6036757210469,1.,1.6,                     139P    151
12.3971770980332,1.,-1.69914845452395,-1.44244419906584,0.,0.,       139P    152
0.;                                                                  139P    153
126,1,1,0,0,1,0,0.258557744999827,0.258557744999827,                 141P    154
0.510282290196675,0.510282290196675,1.,1.,-1.6,14.9144225500017,     141P    155
1.,-1.6,12.3971770980332,1.,0.258557744999827,0.510282290196675,     141P    156
0.,0.,0.;                                                            141P    157
126,2,2,0,0,0,0,1.46392634582411,1.46392634582411,                   143P    158
1.46392634582411,1.67766630776568,1.67766630776568,                  143P    159
1.67766630776568,1.,0.994294836666757,1.,1.6,14.9144225500017,       143P    160
1.,-6.93889390390723D-16,15.0860684847617,1.,-1.6,                   143P    161
14.9144225500017,1.,1.46392634582411,1.67766630776568,0.,0.,0.;      143P    162
126,2,2,0,0,0,0,1.35581075390422,1.35581075390422,                   145P    163
1.35581075390422,1.78578189968557,1.78578189968557,                  145P    164
1.78578189968557,1.,0.976979472091858,1.,1.6,7.32734604068895,       145P    165
0.,-4.16333634234434D-16,7.67672219759272,0.,-1.6,                   145P    166
7.32734604068895,0.,1.35581075390422,1.78578189968557,0.,0.,0.;      145P    167
126,2,2,0,0,0,0,-1.78578189968557,-1.78578189968557,                 147P    168
-1.78578189968557,-1.35581075390422,-1.35581075390422,               147P    169
-1.35581075390422,1.,0.976979472091858,1.,-1.6,7.32734604068895,     147P    170
-2.,-4.16333634234434D-16,7.67672219759272,-2.,1.6,                  147P    171
7.32734604068895,-2.,-1.78578189968557,-1.35581075390422,0.,0.,      147P    172
0.;                                                                  147P    173
126,1,1,0,0,1,0,0.,0.,0.2,0.2,1.,1.,-1.6,7.32734604068895,-2.,       149P    174
-1.6,7.32734604068895,0.,0.,0.2,0.,0.,0.;                            149P    175
126,1,1,0,0,1,0,0.,0.,0.1,0.1,1.,1.,-1.6,12.3971770980332,0.,        151P    176
-1.6,12.3971770980332,1.,0.,0.1,0.,0.,0.;                            151P    177
126,1,1,0,0,1,0,-0.0632553456164011,-0.0632553456164011,             153P    178
0.443727760118029,0.443727760118029,1.,1.,-1.6,7.32734604068895,     153P    179
0.,-1.6,12.3971770980332,0.,-0.0632553456164011,                     153P    180
0.443727760118029,0.,0.,0.;                                          153P    181
126,1,1,0,0,1,0,-0.795989949685296,-0.795989949685296,               155P    182
0.0632553456164011,0.0632553456164011,1.,1.,-1.6,                    155P    183
15.9197989937059,-2.,-1.6,7.32734604068895,-2.,                      155P    184
-0.795989949685296,0.0632553456164011,0.,0.,0.;                      155P    185
126,1,1,0,0,1,0,0.,0.,0.2,0.2,1.,1.,-1.6,15.9197989937059,0.,        157P    186
-1.6,15.9197989937059,-2.,0.,0.2,0.,0.,0.;                           157P    187
126,1,1,0,0,1,0,0.695452305314877,0.695452305314877,                 159P    188
0.795989949685296,0.795989949685296,1.,1.,-1.6,14.9144225500017,     159P    189
0.,-1.6,15.9197989937059,0.,0.695452305314877,0.795989949685296,     159P    190
0.,0.,0.;                                                            159P    191
126,1,1,0,0,1,0,-0.1,-0.1,0.,0.,1.,1.,-1.6,14.9144225500017,1.,      161P    192
-1.6,14.9144225500017,0.,-0.1,0.,0.,0.,0.;                           161P    193
126,8,2,0,1,0,0,-3.14159265358979,-3.14159265358979,                 163P    194
-3.14159265358979,-1.5707963267949,-1.5707963267949,0.,0.,           163P    195
1.5707963267949,1.5707963267949,3.14159265358979,                    163P    196
3.14159265358979,3.14159265358979,1.,0.707106781186548,1.,           163P    197
0.707106781186548,1.,0.707106781186548,1.,0.707106781186548,1.,      163P    198
-12.5,1.53080849893419D-15,32.,-12.5,12.5,32.,                       163P    199
7.65404249467096D-16,12.5,32.,12.5,12.5,32.,12.5,0.,32.,12.5,        163P    200
-12.5,32.,7.65404249467096D-16,-12.5,32.,-12.5,-12.5,32.,-12.5,      163P    201
-1.53080849893419D-15,32.,-3.14159265358979,3.14159265358979,0.,     163P    202
0.,0.;                                                               163P    203
126,1,1,0,0,1,0,-2.56,-2.56,0.,0.,1.,1.,-12.5,0.,32.,-12.5,0.,       165P    204
0.,-2.56,0.,0.,0.,0.;                                                165P    205
126,2,2,0,0,0,0,-3.14159265358979,-3.14159265358979,                 167P    206
-3.14159265358979,-1.69914845452395,-1.69914845452395,               167P    207
-1.69914845452395,1.,0.750999334220743,1.,-12.5,                     167P    208
1.53080849893419D-15,0.,-12.5,10.9904052287529,0.,-1.6,              167P    209
12.3971770980332,0.,-3.14159265358979,-1.69914845452395,0.,0.,       167P    210
0.;                                                                  167P    211
126,4,2,0,0,0,0,-1.44244419906584,-1.44244419906584,                 169P    212
-1.44244419906584,0.,0.,1.44244419906584,1.44244419906584,           169P    213
1.44244419906584,1.,0.750999334220744,1.,0.750999334220744,1.,       169P    214
1.6,12.3971770980332,0.,12.5,10.9904052287529,0.,12.5,0.,0.,         169P    215
12.5,-10.9904052287529,0.,1.6,-12.3971770980332,0.,                  169P    216
-1.44244419906584,1.44244419906584,0.,0.,0.;                         169P    217
126,2,2,0,0,0,0,-4.58403685265564,-4.58403685265564,                 171P    218
-4.58403685265564,-3.14159265358979,-3.14159265358979,               171P    219
-3.14159265358979,1.,0.750999334220743,1.,-1.6,                      171P    220
-12.3971770980332,0.,-12.5,-10.9904052287529,0.,-12.5,               171P    221
1.53080849893419D-15,0.,-4.58403685265564,-3.14159265358979,0.,      171P    222
0.,0.;                                                               171P    223
126,4,2,0,0,0,0,-1.47062890563334,-1.47062890563334,                 173P    224
-1.47062890563334,0.,0.,1.47062890563334,1.47062890563334,           173P    225
1.47062890563334,1.,0.741619848709567,1.,0.741619848709567,1.,       173P    226
1.6,15.9197989937059,-2.,16.,14.4725445397327,-2.,16.,0.,-2.,        173P    227
16.,-14.4725445397327,-2.,1.6,-15.9197989937059,-2.,                 173P    228
-1.47062890563334,1.47062890563334,0.,0.,0.;                         173P    229
126,4,2,0,0,0,0,-1.47062890563334,-1.47062890563334,                 175P    230
-1.47062890563334,0.,0.,1.47062890563334,1.47062890563334,           175P    231
1.47062890563334,1.,0.741619848709567,1.,0.741619848709567,1.,       175P    232
1.6,-15.9197989937059,0.,16.,-14.4725445397327,0.,16.,0.,0.,16.,     175P    233
14.4725445397327,0.,1.6,15.9197989937059,0.,-1.47062890563334,       175P    234
1.47062890563334,0.,0.,0.;                                           175P    235
126,4,2,0,0,0,0,-4.61222155922313,-4.61222155922313,                 177P    236
-4.61222155922313,-3.14159265358979,-3.14159265358979,               177P    237
-1.67096374795646,-1.67096374795646,-1.67096374795646,1.,            177P    238
0.741619848709566,1.,0.741619848709567,1.,-1.6,15.9197989937059,     177P    239
0.,-16.,14.4725445397327,0.,-16.,-1.95943487863577D-15,0.,-16.,      177P    240
-14.4725445397327,0.,-1.6,-15.9197989937059,0.,                      177P    241
-4.61222155922313,-1.67096374795646,0.,0.,0.;                        177P    242
126,4,2,0,0,0,0,-4.61222155922313,-4.61222155922313,                 179P    243
-4.61222155922313,-3.14159265358979,-3.14159265358979,               179P    244
-1.67096374795646,-1.67096374795646,-1.67096374795646,1.,            179P    245
0.741619848709566,1.,0.741619848709567,1.,-1.6,                      179P    246
-15.9197989937059,-2.,-16.,-14.4725445397327,-2.,-16.,               179P    247
1.95943487863577D-15,-2.,-16.,14.4725445397327,-2.,-1.6,             179P    248
15.9197989937059,-2.,-4.61222155922313,-1.67096374795646,0.,0.,      179P    249
0.;                                                                  179P    250
126,8,2,0,1,0,0,-3.14159265358979,-3.14159265358979,                 181P    251
-3.14159265358979,-1.5707963267949,-1.5707963267949,0.,0.,           181P    252
1.5707963267949,1.5707963267949,3.14159265358979,                    181P    253
3.14159265358979,3.14159265358979,1.,0.707106781186548,1.,           181P    254
0.707106781186548,1.,0.707106781186548,1.,0.707106781186548,1.,      181P    255
-15.,-1.83697019872103D-15,32.,-15.,-15.,32.,                        181P    256
9.18485099360515D-16,-15.,32.,15.,-15.,32.,15.,0.,32.,15.,15.,       181P    257
32.,9.18485099360515D-16,15.,32.,-15.,15.,32.,-15.,                  181P    258
1.83697019872103D-15,32.,-3.14159265358979,3.14159265358979,0.,      181P    259
0.,0.;                                                               181P    260
126,1,1,0,0,1,0,-2.13333333333333,-2.13333333333333,0.,0.,1.,1.,     183P    261
-15.,0.,32.,-15.,0.,0.,-2.13333333333333,0.,0.,0.,0.;                183P    262
126,2,2,0,0,0,0,-3.14159265358979,-3.14159265358979,                 185P    263
-3.14159265358979,-1.67766630776568,-1.67766630776568,               185P    264
-1.67766630776568,1.,0.743863786814047,1.,-15.,                      185P    265
-1.83697019872103D-15,0.,-15.,-13.4768878463871,0.,-1.6,             185P    266
-14.9144225500017,0.,-3.14159265358979,-1.67766630776568,0.,0.,      185P    267
0.;                                                                  185P    268
126,4,2,0,0,0,0,-1.46392634582411,-1.46392634582411,                 187P    269
-1.46392634582411,0.,0.,1.46392634582411,1.46392634582411,           187P    270
1.46392634582411,1.,0.743863786814046,1.,0.743863786814046,1.,       187P    271
1.6,-14.9144225500017,0.,15.,-13.4768878463871,0.,15.,0.,0.,15.,     187P    272
13.4768878463871,0.,1.6,14.9144225500017,0.,-1.46392634582411,       187P    273
1.46392634582411,0.,0.,0.;                                           187P    274
126,2,2,0,0,0,0,-4.6055189994139,-4.6055189994139,                   189P    275
-4.6055189994139,-3.14159265358979,-3.14159265358979,                189P    276
-3.14159265358979,1.,0.743863786814046,1.,-1.6,14.9144225500017,     189P    277
0.,-15.,13.4768878463871,0.,-15.,-1.83697019872103D-15,0.,           189P    278
-4.6055189994139,-3.14159265358979,0.,0.,0.;                         189P    279
126,8,2,0,1,0,0,-3.14159265358979,-3.14159265358979,                 191P    280
-3.14159265358979,-1.5707963267949,-1.5707963267949,0.,0.,           191P    281
1.5707963267949,1.5707963267949,3.14159265358979,                    191P    282
3.14159265358979,3.14159265358979,1.,0.707106781186548,1.,           191P    283
0.707106781186548,1.,0.707106781186548,1.,0.707106781186548,1.,      191P    284
-1.75,2.14313189850787D-16,0.,-1.75,1.75,0.,                         191P    285
1.07156594925393D-16,1.75,0.,1.75,1.75,0.,1.75,0.,0.,1.75,-1.75,     191P    286
0.,1.07156594925393D-16,-1.75,0.,-1.75,-1.75,0.,-1.75,               191P    287
-2.14313189850787D-16,0.,-3.14159265358979,3.14159265358979,0.,      191P    288
0.,0.;                                                               191P    289
126,8,2,0,1,0,0,-3.14159265358979,-3.14159265358979,                 193P    290
-3.14159265358979,-1.5707963267949,-1.5707963267949,0.,0.,           193P    291
1.5707963267949,1.5707963267949,3.14159265358979,                    193P    292
3.14159265358979,3.14159265358979,1.,0.707106781186548,1.,           193P    293
0.707106781186548,1.,0.707106781186548,1.,0.707106781186548,1.,      193P    294
-1.75,-2.14313189850787D-16,-2.,-1.75,-1.75,-2.,                     193P    295
1.07156594925393D-16,-1.75,-2.,1.75,-1.75,-2.,1.75,0.,-2.,1.75,      193P    296
1.75,-2.,1.07156594925393D-16,1.75,-2.,-1.75,1.75,-2.,-1.75,         193P    297
2.14313189850787D-16,-2.,-3.14159265358979,3.14159265358979,0.,      193P    298
0.,0.;                                                               193P    299
126,1,1,0,0,1,0,-1.14285714285714,-1.14285714285714,0.,0.,1.,1.,     195P    300
-1.75,0.,-2.,-1.75,0.,0.,-1.14285714285714,0.,0.,0.,0.;              195P    301
128,1,1,1,1,0,0,1,0,0,-0.00100000000000022,-0.00100000000000022,     197P    302
0.860245295301697,0.860245295301697,-0.001,-0.001,0.301,0.301,       197P    303
1.,1.,1.,1.,-1.6,-15.9297989937059,-2.01,-1.6,-7.31734604068895,     197P    304
-2.01,-1.6,-15.9297989937059,1.01,-1.6,-7.31734604068895,1.01,       197P    305
-0.00100000000000022,0.860245295301697,-0.001,0.301;                 197P    306
128,1,1,1,1,0,0,1,0,0,-0.161,-0.161,0.161,0.161,                     199P    307
0.0723504077688769,0.0723504077688769,0.343239546441721,             199P    308
0.343239546441721,1.,1.,1.,1.,-1.61,-12.3871770980332,1.,1.61,       199P    309
-12.3871770980332,1.,-1.61,-15.0960684847617,1.,1.61,                199P    310
-15.0960684847617,1.,-0.161,0.161,0.0723504077688769,                199P    311
0.343239546441721;                                                   199P    312
128,1,2,1,2,0,0,0,0,0,0.,0.,0.266666666666667,0.266666666666667,     201P    313
-1.78578189968557,-1.78578189968557,-1.78578189968557,               201P    314
-1.35581075390422,-1.35581075390422,-1.35581075390422,1.,1.,         201P    315
0.97697947209186,0.97697947209186,1.,1.,-1.6,-7.32734604068895,      201P    316
2.77555756156289D-16,-1.6,-7.32734604068895,-2.,0.,                  201P    317
-7.67672219759272,2.77555756156289D-16,0.,-7.67672219759272,-2.,     201P    318
1.6,-7.32734604068895,2.77555756156289D-16,1.6,                      201P    319
-7.32734604068895,-2.,0.,0.266666666666667,-1.78578189968557,        201P    320
-1.35581075390422;                                                   201P    321
128,1,1,1,1,0,0,1,0,0,-0.001,-0.001,0.860245295301697,               203P    322
0.860245295301697,-0.001,-0.001,0.301,0.301,1.,1.,1.,1.,1.6,         203P    323
-7.31734604068895,-2.01,1.6,-15.9297989937059,-2.01,1.6,             203P    324
-7.31734604068895,1.01,1.6,-15.9297989937059,1.01,-0.001,            203P    325
0.860245295301697,-0.001,0.301;                                      203P    326
128,1,1,1,1,0,0,1,0,0,-0.00100000000000022,-0.00100000000000022,     205P    327
0.860245295301697,0.860245295301697,-0.001,-0.001,0.301,0.301,       205P    328
1.,1.,1.,1.,1.6,15.9297989937059,-2.01,1.6,7.31734604068895,         205P    329
-2.01,1.6,15.9297989937059,1.01,1.6,7.31734604068895,1.01,           205P    330
-0.00100000000000022,0.860245295301697,-0.001,0.301;                 205P    331
128,1,1,1,1,0,0,1,0,0,-0.161,-0.161,0.161,0.161,                     207P    332
-0.343239546441721,-0.343239546441721,-0.0723504077688769,           207P    333
-0.0723504077688769,1.,1.,1.,1.,-1.61,15.0960684847617,1.,1.61,      207P    334
15.0960684847617,1.,-1.61,12.3871770980332,1.,1.61,                  207P    335
12.3871770980332,1.,-0.161,0.161,-0.343239546441721,                 207P    336
-0.0723504077688769;                                                 207P    337
128,1,2,1,2,0,0,0,0,0,0.,0.,0.266666666666667,0.266666666666667,     209P    338
1.35581075390422,1.35581075390422,1.35581075390422,                  209P    339
1.78578189968557,1.78578189968557,1.78578189968557,1.,1.,            209P    340
0.97697947209186,0.97697947209186,1.,1.,1.6,7.32734604068895,        209P    341
2.77555756156289D-16,1.6,7.32734604068895,-2.,0.,                    209P    342
7.67672219759272,2.77555756156289D-16,0.,7.67672219759272,-2.,       209P    343
-1.6,7.32734604068895,2.77555756156289D-16,-1.6,                     209P    344
7.32734604068895,-2.,0.,0.266666666666667,1.35581075390422,          209P    345
1.78578189968557;                                                    209P    346
128,1,1,1,1,0,0,1,0,0,-0.001,-0.001,0.860245295301697,               211P    347
0.860245295301697,-0.001,-0.001,0.301,0.301,1.,1.,1.,1.,-1.6,        211P    348
7.31734604068895,-2.01,-1.6,15.9297989937059,-2.01,-1.6,             211P    349
7.31734604068895,1.01,-1.6,15.9297989937059,1.01,-0.001,             211P    350
0.860245295301697,-0.001,0.301;                                      211P    351
128,1,8,1,2,0,1,0,0,1,0.,0.,2.56,2.56,-3.14159265358979,             213P    352
-3.14159265358979,-3.14159265358979,-1.5707963267949,                213P    353
-1.5707963267949,0.,0.,1.5707963267949,1.5707963267949,              213P    354
3.14159265358979,3.14159265358979,3.14159265358979,1.,1.,            213P    355
0.707106781186548,0.707106781186548,1.,1.,0.707106781186548,         213P    356
0.707106781186548,1.,1.,0.707106781186548,0.707106781186548,1.,      213P    357
1.,0.707106781186548,0.707106781186548,1.,1.,-12.5,0.,0.,-12.5,      213P    358
0.,32.,-12.5,-12.5,0.,-12.5,-12.5,32.,0.,-12.5,0.,0.,-12.5,32.,      213P    359
12.5,-12.5,0.,12.5,-12.5,32.,12.5,0.,0.,12.5,0.,32.,12.5,12.5,       213P    360
0.,12.5,12.5,32.,0.,12.5,0.,0.,12.5,32.,-12.5,12.5,0.,-12.5,         213P    361
12.5,32.,-12.5,0.,0.,-12.5,0.,32.,0.,2.56,-3.14159265358979,         213P    362
3.14159265358979;                                                    213P    363
128,1,4,1,2,0,0,0,0,0,0.,0.,0.125,0.125,-1.47062890563334,           215P    364
-1.47062890563334,-1.47062890563334,0.,0.,1.47062890563334,          215P    365
1.47062890563334,1.47062890563334,1.,1.,0.741619848709566,           215P    366
0.741619848709566,1.,1.,0.741619848709566,0.741619848709566,1.,      215P    367
1.,1.6,15.9197989937059,-2.,1.6,15.9197989937059,0.,16.,             215P    368
14.4725445397327,-2.,16.,14.4725445397327,0.,16.,0.,-2.,16.,0.,      215P    369
0.,16.,-14.4725445397327,-2.,16.,-14.4725445397327,0.,1.6,           215P    370
-15.9197989937059,-2.,1.6,-15.9197989937059,0.,0.,0.125,             215P    371
-1.47062890563334,1.47062890563334;                                  215P    372
128,1,4,1,2,0,0,0,0,0,0.,0.,0.125,0.125,1.67096374795646,            217P    373
1.67096374795646,1.67096374795646,3.14159265358979,                  217P    374
3.14159265358979,4.61222155922313,4.61222155922313,                  217P    375
4.61222155922313,1.,1.,0.741619848709566,0.741619848709566,1.,       217P    376
1.,0.741619848709566,0.741619848709566,1.,1.,-1.6,                   217P    377
-15.9197989937059,-2.,-1.6,-15.9197989937059,0.,-16.,                217P    378
-14.4725445397327,-2.,-16.,-14.4725445397327,0.,-16.,0.,-2.,         217P    379
-16.,0.,0.,-16.,14.4725445397327,-2.,-16.,14.4725445397327,0.,       217P    380
-1.6,15.9197989937059,-2.,-1.6,15.9197989937059,0.,0.,0.125,         217P    381
1.67096374795646,4.61222155922313;                                   217P    382
128,1,8,1,2,0,1,0,0,1,0.,0.,2.13333333333333,2.13333333333333,       219P    383
-3.14159265358979,-3.14159265358979,-3.14159265358979,               219P    384
-1.5707963267949,-1.5707963267949,0.,0.,1.5707963267949,             219P    385
1.5707963267949,3.14159265358979,3.14159265358979,                   219P    386
3.14159265358979,1.,1.,0.707106781186548,0.707106781186548,1.,       219P    387
1.,0.707106781186548,0.707106781186548,1.,1.,0.707106781186548,      219P    388
0.707106781186548,1.,1.,0.707106781186548,0.707106781186548,1.,      219P    389
1.,-15.,0.,32.,-15.,0.,0.,-15.,-15.,32.,-15.,-15.,0.,0.,-15.,        219P    390
32.,0.,-15.,0.,15.,-15.,32.,15.,-15.,0.,15.,0.,32.,15.,0.,0.,        219P    391
15.,15.,32.,15.,15.,0.,0.,15.,32.,0.,15.,0.,-15.,15.,32.,-15.,       219P    392
15.,0.,-15.,0.,32.,-15.,0.,0.,0.,2.13333333333333,                   219P    393
-3.14159265358979,3.14159265358979;                                  219P    394
128,1,1,1,1,0,0,1,0,0,0.159,0.159,1.601,1.601,-1.59297989937059,     221P    395
-1.59297989937059,1.59297989937059,1.59297989937059,1.,1.,1.,1.,     221P    396
1.59,-15.9297989937059,0.,16.01,-15.9297989937059,0.,1.59,           221P    397
15.9297989937059,0.,16.01,15.9297989937059,0.,0.159,1.601,           221P    398
-1.59297989937059,1.59297989937059;                                  221P    399
128,1,1,1,1,0,0,1,0,0,-1.601,-1.601,-0.159,-0.159,                   223P    400
-1.59297989937059,-1.59297989937059,1.59297989937059,                223P    401
1.59297989937059,1.,1.,1.,1.,-16.01,-15.9297989937059,0.,-1.59,      223P    402
-15.9297989937059,0.,-16.01,15.9297989937059,0.,-1.59,               223P    403
15.9297989937059,0.,-1.601,-0.159,-1.59297989937059,                 223P    404
1.59297989937059;                                                    223P    405
128,1,1,1,1,0,0,1,0,0,-1.251,-1.251,1.251,1.251,                     225P    406
-1.24071770980332,-1.24071770980332,1.24071770980332,                225P    407
1.24071770980332,1.,1.,1.,1.,-12.51,-12.4071770980332,0.,12.51,      225P    408
-12.4071770980332,0.,-12.51,12.4071770980332,0.,12.51,               225P    409
12.4071770980332,0.,-1.251,1.251,-1.24071770980332,                  225P    410
1.24071770980332;                                                    225P    411
128,1,8,1,2,0,1,0,0,1,0.,0.,1.14285714285714,1.14285714285714,       227P    412
-3.14159265358979,-3.14159265358979,-3.14159265358979,               227P    413
-1.5707963267949,-1.5707963267949,0.,0.,1.5707963267949,             227P    414
1.5707963267949,3.14159265358979,3.14159265358979,                   227P    415
3.14159265358979,1.,1.,0.707106781186548,0.707106781186548,1.,       227P    416
1.,0.707106781186548,0.707106781186548,1.,1.,0.707106781186548,      227P    417
0.707106781186548,1.,1.,0.707106781186548,0.707106781186548,1.,      227P    418
1.,-1.75,0.,0.,-1.75,0.,-2.,-1.75,1.75,0.,-1.75,1.75,-2.,0.,         227P    419
1.75,0.,0.,1.75,-2.,1.75,1.75,0.,1.75,1.75,-2.,1.75,0.,0.,1.75,      227P    420
0.,-2.,1.75,-1.75,0.,1.75,-1.75,-2.,0.,-1.75,0.,0.,-1.75,-2.,        227P    421
-1.75,-1.75,0.,-1.75,-1.75,-2.,-1.75,0.,0.,-1.75,0.,-2.,0.,          227P    422
1.14285714285714,-3.14159265358979,3.14159265358979;                 227P    423
128,1,1,1,1,0,0,1,0,0,-1.601,-1.601,1.601,1.601,                     229P    424
-1.59297989937059,-1.59297989937059,1.59297989937059,                229P    425
1.59297989937059,1.,1.,1.,1.,16.01,-15.9297989937059,-2.,-16.01,     229P    426
-15.9297989937059,-2.,16.01,15.9297989937059,-2.,-16.01,             229P    427
15.9297989937059,-2.,-1.601,1.601,-1.59297989937059,                 229P    428
1.59297989937059;                                                    229P    429
128,1,1,1,1,0,0,1,0,0,-1.501,-1.501,1.501,1.501,-1.501,-1.501,       231P    430
1.501,1.501,1.,1.,1.,1.,-15.01,-15.01,32.,15.01,-15.01,32.,          231P    431
-15.01,15.01,32.,15.01,15.01,32.,-1.501,1.501,-1.501,1.501;          231P    432
502,38,-1.6,-12.3971770980332,1.,-1.6,-12.3971770980332,0.,-1.6,     233P    433
-14.9144225500017,1.,-1.6,-14.9144225500017,0.,-1.6,                 233P    434
-15.9197989937059,0.,-1.6,-15.9197989937059,-2.,-1.6,                233P    435
-7.32734604068895,-2.,-1.6,-7.32734604068895,0.,1.6,                 233P    436
-12.3971770980332,1.,1.6,-14.9144225500017,1.,1.6,                   233P    437
-7.32734604068895,0.,1.6,-7.32734604068895,-2.,1.6,                  233P    438
-12.3971770980332,0.,1.6,-15.9197989937059,-2.,1.6,                  233P    439
-15.9197989937059,0.,1.6,-14.9144225500017,0.,1.6,                   233P    440
12.3971770980332,1.,1.6,12.3971770980332,0.,1.6,                     233P    441
14.9144225500017,1.,1.6,14.9144225500017,0.,1.6,                     233P    442
15.9197989937059,0.,1.6,15.9197989937059,-2.,1.6,                    233P    443
7.32734604068895,-2.,1.6,7.32734604068895,0.,-1.6,                   233P    444
12.3971770980332,1.,-1.6,14.9144225500017,1.,-1.6,                   233P    445
7.32734604068895,0.,-1.6,7.32734604068895,-2.,-1.6,                  233P    446
12.3971770980332,0.,-1.6,15.9197989937059,-2.,-1.6,                  233P    447
15.9197989937059,0.,-1.6,14.9144225500017,0.,-12.5,                  233P    448
-1.53080849893419D-15,32.,-12.5,0.,0.,-15.,                          233P    449
-1.83697019872103D-15,32.,-15.,0.,0.,-1.75,                          233P    450
-2.14313189850787D-16,0.,-1.75,-2.14313189850787D-16,-2.;            233P    451
504,57,83,233,1,233,2,85,233,1,233,3,87,233,4,233,3,89,233,5,        235P    452
233,4,91,233,6,233,5,93,233,7,233,6,95,233,7,233,8,97,233,2,233,     235P    453
8,99,233,9,233,1,101,233,10,233,9,103,233,3,233,10,105,233,8,        235P    454
233,11,107,233,12,233,7,109,233,12,233,11,111,233,13,233,9,113,      235P    455
233,11,233,13,115,233,14,233,12,117,233,15,233,14,119,233,16,        235P    456
233,15,121,233,10,233,16,123,233,17,233,18,125,233,17,233,19,        235P    457
127,233,20,233,19,129,233,21,233,20,131,233,22,233,21,133,233,       235P    458
23,233,22,135,233,23,233,24,137,233,18,233,24,139,233,25,233,17,     235P    459
141,233,26,233,25,143,233,19,233,26,145,233,24,233,27,147,233,       235P    460
28,233,23,149,233,28,233,27,151,233,29,233,25,153,233,27,233,29,     235P    461
155,233,30,233,28,157,233,31,233,30,159,233,32,233,31,161,233,       235P    462
26,233,32,163,233,33,233,33,165,233,33,233,34,167,233,34,233,29,     235P    463
169,233,18,233,13,171,233,2,233,34,173,233,22,233,14,175,233,15,     235P    464
233,21,177,233,31,233,5,179,233,6,233,30,181,233,35,233,35,183,      235P    465
233,35,233,36,185,233,36,233,4,187,233,16,233,20,189,233,32,233,     235P    466
36,191,233,37,233,37,193,233,38,233,38,195,233,38,233,37;            235P    467
406,1,5HBody1;                                                       237P    468
314,98.4313725490196,98.0392156862745,96.078431372549,25HPaint -     239P    469
 Metallic (Silver);                                                  239P    470
314,62.7450980392157,62.7450980392157,62.7450980392157,13HSteel      241P    471
- Satin;                                                             241P    472
S      1G      2D    242P    472                                        T      1
