                                                                        S      1
,,10HComponent2,10HComponent2,7Hunknown,7Hunknown,32,38,7,99,15,,1.,2,2HG      1
MM,1,0.08,15H20201205.175920,0.01,10000.,7Hunknown,7Hunknown,11,0,;     G      2
     186       1                                                00000000D      1
     186            -113       1       0                               0D      2
     514       2                                                00010000D      3
     514                       1       1                               0D      4
     510       3                                                00010000D      5
     510            -113       1       1                               0D      6
     510       4                                                00010000D      7
     510            -113       1       1                               0D      8
     510       5                                                00010000D      9
     510            -113       1       1                               0D     10
     510       6                                                00010000D     11
     510            -113       1       1                               0D     12
     510       7                                                00010000D     13
     510            -113       1       1                               0D     14
     510       8                                                00010000D     15
     510            -113       1       1                               0D     16
     510       9                                                00010000D     17
     510            -113       1       1                               0D     18
     510      10                                                00010000D     19
     510            -113       1       1                               0D     20
     510      11                                                00010000D     21
     510            -113       1       1                               0D     22
     510      12                                                00010000D     23
     510            -113       1       1                               0D     24
     508      13                                                00010000D     25
     508                       1       1                               0D     26
     508      14                                                00010000D     27
     508                       1       1                               0D     28
     508      15                                                00010000D     29
     508                       1       1                               0D     30
     508      16                                                00010000D     31
     508                       1       1                               0D     32
     508      17                                                00010000D     33
     508                       1       1                               0D     34
     508      18                                                00010000D     35
     508                       1       1                               0D     36
     508      19                                                00010000D     37
     508                       1       1                               0D     38
     508      20                                                00010000D     39
     508                       2       1                               0D     40
     508      22                                                00010000D     41
     508                       1       1                               0D     42
     508      23                                                00010000D     43
     508                       1       1                               0D     44
     508      24                                                00010000D     45
     508                       1       1                               0D     46
     508      25                                                00010000D     47
     508                       1       1                               0D     48
     508      26                                                00010000D     49
     508                       1       1                               0D     50
     508      27                                                00010000D     51
     508                       1       1                               0D     52
     508      28                                                00010000D     53
     508                       1       1                               0D     54
     126      29                                                00010000D     55
     126       0              10       0                               0D     56
     126      39                                                00010000D     57
     126       0               3       0                               0D     58
     126      42                                                00010000D     59
     126       0              10       0                               0D     60
     126      52                                                00010000D     61
     126       0               7       0                               0D     62
     126      59                                                00010000D     63
     126       0               7       0                               0D     64
     126      66                                                00010000D     65
     126       0              10       0                               0D     66
     126      76                                                00010000D     67
     126       0               3       0                               0D     68
     126      79                                                00010000D     69
     126       0              10       0                               0D     70
     126      89                                                00010000D     71
     126       0              10       0                               0D     72
     126      99                                                00010000D     73
     126       0               3       0                               0D     74
     126     102                                                00010000D     75
     126       0              10       0                               0D     76
     126     112                                                00010000D     77
     126       0              10       0                               0D     78
     126     122                                                00010000D     79
     126       0               3       0                               0D     80
     126     125                                                00010000D     81
     126       0              10       0                               0D     82
     126     135                                                00010000D     83
     126       0               9       0                               0D     84
     126     144                                                00010000D     85
     126       0               3       0                               0D     86
     128     147                                                00010000D     87
     128       0    -113      13       0                               0D     88
     128     160                                                00010000D     89
     128       0    -113       3       0                               0D     90
     128     163                                                00010000D     91
     128       0    -113      13       0                               0D     92
     128     176                                                00010000D     93
     128       0    -113      13       0                               0D     94
     128     189                                                00010000D     95
     128       0    -113       3       0                               0D     96
     128     192                                                00010000D     97
     128       0    -113      13       0                               0D     98
     128     205                                                00010000D     99
     128       0    -113       3       0                               0D    100
     128     208                                                00010000D    101
     128       0    -113       3       0                               0D    102
     128     211                                                00010000D    103
     128       0    -113      13       0                               0D    104
     128     224                                                00010000D    105
     128       0    -113       3       0                               0D    106
     502     227                                                00010000D    107
     502                       6       1                               0D    108
     504     233                                                00010001D    109
     504                       5       1                               0D    110
     406     238                                                00000000D    111
     406                       1      15                               0D    112
     314     239                                                00000200D    113
     314                       2       0                               0D    114
186,3,1,0,0,1,111;                                                     1P      1
514,10,5,1,7,1,9,1,11,1,13,1,15,1,17,1,19,1,21,1,23,1;                 3P      2
510,87,1,1,25;                                                         5P      3
510,89,2,1,27,29;                                                      7P      4
510,91,1,1,31;                                                         9P      5
510,93,1,1,33;                                                        11P      6
510,95,2,1,35,37;                                                     13P      7
510,97,1,1,39;                                                        15P      8
510,99,2,1,41,43;                                                     17P      9
510,101,2,1,45,47;                                                    19P     10
510,103,1,1,49;                                                       21P     11
510,105,2,1,51,53;                                                    23P     12
508,4,0,109,1,0,0,0,109,2,1,0,0,109,3,1,0,0,109,2,0,0;                25P     13
508,1,0,109,3,0,0;                                                    27P     14
508,2,0,109,4,0,0,0,109,5,0,0;                                        29P     15
508,4,0,109,6,0,0,0,109,7,1,0,0,109,8,0,0,0,109,7,0,0;                31P     16
508,4,0,109,9,0,0,0,109,10,1,0,0,109,11,0,0,0,109,10,0,0;             33P     17
508,1,0,109,11,1,0;                                                   35P     18
508,1,0,109,12,1,0;                                                   37P     19
508,5,0,109,4,1,0,0,109,13,1,0,0,109,12,0,0,0,109,13,0,0,0,109,       39P     20
5,1,0;                                                                39P     21
508,1,0,109,6,1,0;                                                    41P     22
508,1,0,109,1,1,0;                                                    43P     23
508,1,0,109,14,1,0;                                                   45P     24
508,1,0,109,9,1,0;                                                    47P     25
508,4,0,109,15,0,0,0,109,16,1,0,0,109,14,0,0,0,109,16,0,0;            49P     26
508,1,0,109,15,1,0;                                                   51P     27
508,1,0,109,8,1,0;                                                    53P     28
126,8,2,0,1,0,0,-3.14159265358979,-3.14159265358979,                  55P     29
-3.14159265358979,-1.5707963267949,-1.5707963267949,0.,0.,            55P     30
1.5707963267949,1.5707963267949,3.14159265358979,                     55P     31
3.14159265358979,3.14159265358979,1.,0.707106781186548,1.,            55P     32
0.707106781186548,1.,0.707106781186548,1.,0.707106781186548,1.,       55P     33
7.5,-9.18485099360515D-16,8.,7.5,-7.5,8.,-4.59242549680257D-16,       55P     34
-7.5,8.,-7.5,-7.5,8.,-7.5,0.,8.,-7.5,7.5,8.,                          55P     35
-4.59242549680257D-16,7.5,8.,7.5,7.5,8.,7.5,                          55P     36
9.18485099360515D-16,8.,-3.14159265358979,3.14159265358979,0.,        55P     37
0.,0.;                                                                55P     38
126,1,1,0,0,1,0,-2.96059473233375D-16,-2.96059473233375D-16,          57P     39
0.666666666666667,0.666666666666667,1.,1.,7.5,0.,8.,7.5,0.,3.,        57P     40
-2.96059473233375D-16,0.666666666666667,0.,0.,0.;                     57P     41
126,8,2,0,1,0,0,-3.14159265358979,-3.14159265358979,                  59P     42
-3.14159265358979,-1.5707963267949,-1.5707963267949,0.,0.,            59P     43
1.5707963267949,1.5707963267949,3.14159265358979,                     59P     44
3.14159265358979,3.14159265358979,1.,0.707106781186548,1.,            59P     45
0.707106781186548,1.,0.707106781186548,1.,0.707106781186548,1.,       59P     46
7.5,-9.18485099360515D-16,3.,7.5,-7.5,3.,-4.59242549680257D-16,       59P     47
-7.5,3.,-7.5,-7.5,3.,-7.5,0.,3.,-7.5,7.5,3.,                          59P     48
-4.59242549680257D-16,7.5,3.,7.5,7.5,3.,7.5,                          59P     49
9.18485099360515D-16,3.,-3.14159265358979,3.14159265358979,0.,        59P     50
0.,0.;                                                                59P     51
126,4,2,0,0,0,0,1.22464679914735D-16,1.22464679914735D-16,            61P     52
1.22464679914735D-16,1.5707963267949,1.5707963267949,                 61P     53
3.14159265358979,3.14159265358979,3.14159265358979,1.,                61P     54
0.707106781186548,1.,0.707106781186548,1.,2.25,                       61P     55
2.75545529808154D-16,3.,2.25,2.25,3.,1.37772764904077D-16,2.25,       61P     56
3.,-2.25,2.25,3.,-2.25,2.75545529808154D-16,3.,                       61P     57
1.22464679914735D-16,3.14159265358979,0.,0.,0.;                       61P     58
126,4,2,0,0,0,0,3.14159265358979,3.14159265358979,                    63P     59
3.14159265358979,4.71238898038469,4.71238898038469,                   63P     60
6.28318530717959,6.28318530717959,6.28318530717959,1.,                63P     61
0.707106781186548,1.,0.707106781186548,1.,-2.25,                      63P     62
2.75545529808154D-16,3.,-2.25,-2.25,3.,-4.13318294712232D-16,         63P     63
-2.25,3.,2.25,-2.25,3.,2.25,-5.51091059616309D-16,3.,                 63P     64
3.14159265358979,6.28318530717959,0.,0.,0.;                           63P     65
126,8,2,0,1,0,0,-3.14159265358979,-3.14159265358979,                  65P     66
-3.14159265358979,-1.5707963267949,-1.5707963267949,0.,0.,            65P     67
1.5707963267949,1.5707963267949,3.14159265358979,                     65P     68
3.14159265358979,3.14159265358979,1.,0.707106781186548,1.,            65P     69
0.707106781186548,1.,0.707106781186548,1.,0.707106781186548,1.,       65P     70
-12.4,-1.51856203094272D-15,8.,-12.4,-12.4,8.,                        65P     71
7.59281015471359D-16,-12.4,8.,12.4,-12.4,8.,12.4,0.,8.,12.4,          65P     72
12.4,8.,7.59281015471359D-16,12.4,8.,-12.4,12.4,8.,-12.4,             65P     73
1.51856203094272D-15,8.,-3.14159265358979,3.14159265358979,0.,        65P     74
0.,0.;                                                                65P     75
126,1,1,0,0,1,0,-0.645161290322581,-0.645161290322581,                67P     76
-0.241935483870968,-0.241935483870968,1.,1.,-12.4,0.,8.,-12.4,        67P     77
0.,3.,-0.645161290322581,-0.241935483870968,0.,0.,0.;                 67P     78
126,8,2,0,1,0,0,-3.14159265358979,-3.14159265358979,                  69P     79
-3.14159265358979,-1.5707963267949,-1.5707963267949,0.,0.,            69P     80
1.5707963267949,1.5707963267949,3.14159265358979,                     69P     81
3.14159265358979,3.14159265358979,1.,0.707106781186548,1.,            69P     82
0.707106781186548,1.,0.707106781186548,1.,0.707106781186548,1.,       69P     83
-12.4,1.51856203094272D-15,3.,-12.4,12.4,3.,                          69P     84
7.59281015471359D-16,12.4,3.,12.4,12.4,3.,12.4,0.,3.,12.4,-12.4,      69P     85
3.,7.59281015471359D-16,-12.4,3.,-12.4,-12.4,3.,-12.4,                69P     86
-1.51856203094272D-15,3.,-3.14159265358979,3.14159265358979,0.,       69P     87
0.,0.;                                                                69P     88
126,8,2,0,1,0,0,-3.14159265358979,-3.14159265358979,                  71P     89
-3.14159265358979,-1.5707963267949,-1.5707963267949,0.,0.,            71P     90
1.5707963267949,1.5707963267949,3.14159265358979,                     71P     91
3.14159265358979,3.14159265358979,1.,0.707106781186548,1.,            71P     92
0.707106781186548,1.,0.707106781186548,1.,0.707106781186548,1.,       71P     93
-12.4,-1.51856203094272D-15,-3.,-12.4,-12.4,-3.,                      71P     94
7.59281015471359D-16,-12.4,-3.,12.4,-12.4,-3.,12.4,0.,-3.,12.4,       71P     95
12.4,-3.,7.59281015471359D-16,12.4,-3.,-12.4,12.4,-3.,-12.4,          71P     96
1.51856203094272D-15,-3.,-3.14159265358979,3.14159265358979,0.,       71P     97
0.,0.;                                                                71P     98
126,1,1,0,0,1,0,0.241935483870968,0.241935483870968,                  73P     99
0.645161290322581,0.645161290322581,1.,1.,-12.4,0.,-3.,-12.4,0.,      73P    100
-8.,0.241935483870968,0.645161290322581,0.,0.,0.;                     73P    101
126,8,2,0,1,0,0,-3.14159265358979,-3.14159265358979,                  75P    102
-3.14159265358979,-1.5707963267949,-1.5707963267949,0.,0.,            75P    103
1.5707963267949,1.5707963267949,3.14159265358979,                     75P    104
3.14159265358979,3.14159265358979,1.,0.707106781186548,1.,            75P    105
0.707106781186548,1.,0.707106781186548,1.,0.707106781186548,1.,       75P    106
-12.4,1.51856203094272D-15,-8.,-12.4,12.4,-8.,                        75P    107
7.59281015471359D-16,12.4,-8.,12.4,12.4,-8.,12.4,0.,-8.,12.4,         75P    108
-12.4,-8.,7.59281015471359D-16,-12.4,-8.,-12.4,-12.4,-8.,-12.4,       75P    109
-1.51856203094272D-15,-8.,-3.14159265358979,3.14159265358979,0.,      75P    110
0.,0.;                                                                75P    111
126,8,2,0,1,0,0,-3.14159265358979,-3.14159265358979,                  77P    112
-3.14159265358979,-1.5707963267949,-1.5707963267949,0.,0.,            77P    113
1.5707963267949,1.5707963267949,3.14159265358979,                     77P    114
3.14159265358979,3.14159265358979,1.,0.707106781186548,1.,            77P    115
0.707106781186548,1.,0.707106781186548,1.,0.707106781186548,1.,       77P    116
-2.25,-2.75545529808154D-16,-8.,-2.25,-2.25,-8.,                      77P    117
1.37772764904077D-16,-2.25,-8.,2.25,-2.25,-8.,2.25,0.,-8.,2.25,       77P    118
2.25,-8.,1.37772764904077D-16,2.25,-8.,-2.25,2.25,-8.,-2.25,          77P    119
2.75545529808154D-16,-8.,-3.14159265358979,3.14159265358979,0.,       77P    120
0.,0.;                                                                77P    121
126,1,1,0,0,1,0,-1.33333333333333,-1.33333333333333,                  79P    122
3.55555555555556,3.55555555555556,1.,1.,-2.25,0.,3.,-2.25,0.,         79P    123
-8.,-1.33333333333333,3.55555555555556,0.,0.,0.;                      79P    124
126,8,2,0,1,0,0,-3.14159265358979,-3.14159265358979,                  81P    125
-3.14159265358979,-1.5707963267949,-1.5707963267949,0.,0.,            81P    126
1.5707963267949,1.5707963267949,3.14159265358979,                     81P    127
3.14159265358979,3.14159265358979,1.,0.707106781186547,1.,            81P    128
0.707106781186548,1.,0.707106781186548,1.,0.707106781186547,1.,       81P    129
-18.,2.20436423846524D-15,-3.,-18.,18.,-3.,1.10218211923262D-15,      81P    130
18.,-3.,18.,18.,-3.,18.,0.,-3.,18.,-18.,-3.,                          81P    131
1.10218211923262D-15,-18.,-3.,-18.,-18.,-3.,-18.,                     81P    132
-2.20436423846524D-15,-3.,-3.14159265358979,3.14159265358979,0.,      81P    133
0.,0.;                                                                81P    134
126,8,2,0,1,0,0,-3.14159265358979,-3.14159265358979,                  83P    135
-3.14159265358979,-1.5707963267949,-1.5707963267949,0.,0.,            83P    136
1.5707963267949,1.5707963267949,3.14159265358979,                     83P    137
3.14159265358979,3.14159265358979,1.,0.707106781186547,1.,            83P    138
0.707106781186548,1.,0.707106781186548,1.,0.707106781186547,1.,       83P    139
-18.,-2.20436423846524D-15,3.,-18.,-18.,3.,1.10218211923262D-15,      83P    140
-18.,3.,18.,-18.,3.,18.,0.,3.,18.,18.,3.,1.10218211923262D-15,        83P    141
18.,3.,-18.,18.,3.,-18.,2.20436423846524D-15,3.,                      83P    142
-3.14159265358979,3.14159265358979,0.,0.,0.;                          83P    143
126,1,1,0,0,1,0,-0.166666666666667,-0.166666666666667,                85P    144
0.166666666666667,0.166666666666667,1.,1.,-18.,0.,3.,-18.,0.,         85P    145
-3.,-0.166666666666667,0.166666666666667,0.,0.,0.;                    85P    146
128,1,8,1,2,0,1,0,0,1,-2.96059473233375D-16,                          87P    147
-2.96059473233375D-16,0.666666666666667,0.666666666666667,            87P    148
-3.14159265358979,-3.14159265358979,-3.14159265358979,                87P    149
-1.5707963267949,-1.5707963267949,0.,0.,1.5707963267949,              87P    150
1.5707963267949,3.14159265358979,3.14159265358979,                    87P    151
3.14159265358979,1.,1.,0.707106781186548,0.707106781186548,1.,        87P    152
1.,0.707106781186548,0.707106781186548,1.,1.,0.707106781186548,       87P    153
0.707106781186548,1.,1.,0.707106781186548,0.707106781186548,1.,       87P    154
1.,7.5,0.,8.,7.5,0.,3.,7.5,-7.5,8.,7.5,-7.5,3.,0.,-7.5,8.,0.,         87P    155
-7.5,3.,-7.5,-7.5,8.,-7.5,-7.5,3.,-7.5,0.,8.,-7.5,0.,3.,-7.5,         87P    156
7.5,8.,-7.5,7.5,3.,0.,7.5,8.,0.,7.5,3.,7.5,7.5,8.,7.5,7.5,3.,         87P    157
7.5,0.,8.,7.5,0.,3.,-2.96059473233375D-16,0.666666666666667,          87P    158
-3.14159265358979,3.14159265358979;                                   87P    159
128,1,1,1,1,0,0,1,0,0,-0.751,-0.751,0.751,0.751,-0.751,-0.751,        89P    160
0.751,0.751,1.,1.,1.,1.,7.51,7.51,3.,-7.51,7.51,3.,7.51,-7.51,        89P    161
3.,-7.51,-7.51,3.,-0.751,0.751,-0.751,0.751;                          89P    162
128,1,8,1,2,0,1,0,0,1,0.241935483870968,0.241935483870968,            91P    163
0.645161290322581,0.645161290322581,-3.14159265358979,                91P    164
-3.14159265358979,-3.14159265358979,-1.5707963267949,                 91P    165
-1.5707963267949,0.,0.,1.5707963267949,1.5707963267949,               91P    166
3.14159265358979,3.14159265358979,3.14159265358979,1.,1.,             91P    167
0.707106781186548,0.707106781186548,1.,1.,0.707106781186548,          91P    168
0.707106781186548,1.,1.,0.707106781186548,0.707106781186548,1.,       91P    169
1.,0.707106781186548,0.707106781186548,1.,1.,-12.4,0.,8.,-12.4,       91P    170
0.,3.,-12.4,-12.4,8.,-12.4,-12.4,3.,0.,-12.4,8.,0.,-12.4,3.,          91P    171
12.4,-12.4,8.,12.4,-12.4,3.,12.4,0.,8.,12.4,0.,3.,12.4,12.4,8.,       91P    172
12.4,12.4,3.,0.,12.4,8.,0.,12.4,3.,-12.4,12.4,8.,-12.4,12.4,3.,       91P    173
-12.4,0.,8.,-12.4,0.,3.,0.241935483870968,0.645161290322581,          91P    174
-3.14159265358979,3.14159265358979;                                   91P    175
128,1,8,1,2,0,1,0,0,1,-0.645161290322581,-0.645161290322581,          93P    176
-0.241935483870968,-0.241935483870968,-3.14159265358979,              93P    177
-3.14159265358979,-3.14159265358979,-1.5707963267949,                 93P    178
-1.5707963267949,0.,0.,1.5707963267949,1.5707963267949,               93P    179
3.14159265358979,3.14159265358979,3.14159265358979,1.,1.,             93P    180
0.707106781186548,0.707106781186548,1.,1.,0.707106781186548,          93P    181
0.707106781186548,1.,1.,0.707106781186548,0.707106781186548,1.,       93P    182
1.,0.707106781186548,0.707106781186548,1.,1.,-12.4,0.,-3.,-12.4,      93P    183
0.,-8.,-12.4,-12.4,-3.,-12.4,-12.4,-8.,0.,-12.4,-3.,0.,-12.4,         93P    184
-8.,12.4,-12.4,-3.,12.4,-12.4,-8.,12.4,0.,-3.,12.4,0.,-8.,12.4,       93P    185
12.4,-3.,12.4,12.4,-8.,0.,12.4,-3.,0.,12.4,-8.,-12.4,12.4,-3.,        93P    186
-12.4,12.4,-8.,-12.4,0.,-3.,-12.4,0.,-8.,-0.645161290322581,          93P    187
-0.241935483870968,-3.14159265358979,3.14159265358979;                93P    188
128,1,1,1,1,0,0,1,0,0,-1.241,-1.241,1.241,1.241,-1.241,-1.241,        95P    189
1.241,1.241,1.,1.,1.,1.,12.41,-12.41,-8.,-12.41,-12.41,-8.,           95P    190
12.41,12.41,-8.,-12.41,12.41,-8.,-1.241,1.241,-1.241,1.241;           95P    191
128,1,8,1,2,0,1,0,0,1,-3.55555555555556,-3.55555555555556,            97P    192
1.33333333333333,1.33333333333333,-3.14159265358979,                  97P    193
-3.14159265358979,-3.14159265358979,-1.5707963267949,                 97P    194
-1.5707963267949,0.,0.,1.5707963267949,1.5707963267949,               97P    195
3.14159265358979,3.14159265358979,3.14159265358979,1.,1.,             97P    196
0.707106781186548,0.707106781186548,1.,1.,0.707106781186548,          97P    197
0.707106781186548,1.,1.,0.707106781186548,0.707106781186548,1.,       97P    198
1.,0.707106781186548,0.707106781186548,1.,1.,-2.25,0.,-8.,-2.25,      97P    199
0.,3.,-2.25,-2.25,-8.,-2.25,-2.25,3.,0.,-2.25,-8.,0.,-2.25,3.,        97P    200
2.25,-2.25,-8.,2.25,-2.25,3.,2.25,0.,-8.,2.25,0.,3.,2.25,2.25,        97P    201
-8.,2.25,2.25,3.,0.,2.25,-8.,0.,2.25,3.,-2.25,2.25,-8.,-2.25,         97P    202
2.25,3.,-2.25,0.,-8.,-2.25,0.,3.,-3.55555555555556,                   97P    203
1.33333333333333,-3.14159265358979,3.14159265358979;                  97P    204
128,1,1,1,1,0,0,1,0,0,-1.241,-1.241,1.241,1.241,-1.241,-1.241,        99P    205
1.241,1.241,1.,1.,1.,1.,-12.41,-12.41,8.,12.41,-12.41,8.,-12.41,      99P    206
12.41,8.,12.41,12.41,8.,-1.241,1.241,-1.241,1.241;                    99P    207
128,1,1,1,1,0,0,1,0,0,-1.801,-1.801,1.801,1.801,-1.801,-1.801,       101P    208
1.801,1.801,1.,1.,1.,1.,18.01,-18.01,-3.,-18.01,-18.01,-3.,          101P    209
18.01,18.01,-3.,-18.01,18.01,-3.,-1.801,1.801,-1.801,1.801;          101P    210
128,1,8,1,2,0,1,0,0,1,-0.166666666666667,-0.166666666666667,         103P    211
0.166666666666667,0.166666666666667,-3.14159265358979,               103P    212
-3.14159265358979,-3.14159265358979,-1.5707963267949,                103P    213
-1.5707963267949,0.,0.,1.5707963267949,1.5707963267949,              103P    214
3.14159265358979,3.14159265358979,3.14159265358979,1.,1.,            103P    215
0.707106781186548,0.707106781186548,1.,1.,0.707106781186548,         103P    216
0.707106781186548,1.,1.,0.707106781186548,0.707106781186548,1.,      103P    217
1.,0.707106781186548,0.707106781186548,1.,1.,-18.,0.,3.,-18.,0.,     103P    218
-3.,-18.,-18.,3.,-18.,-18.,-3.,0.,-18.,3.,0.,-18.,-3.,18.,-18.,      103P    219
3.,18.,-18.,-3.,18.,0.,3.,18.,0.,-3.,18.,18.,3.,18.,18.,-3.,0.,      103P    220
18.,3.,0.,18.,-3.,-18.,18.,3.,-18.,18.,-3.,-18.,0.,3.,-18.,0.,       103P    221
-3.,-0.166666666666667,0.166666666666667,-3.14159265358979,          103P    222
3.14159265358979;                                                    103P    223
128,1,1,1,1,0,0,1,0,0,-1.801,-1.801,1.801,1.801,-1.801,-1.801,       105P    224
1.801,1.801,1.,1.,1.,1.,-18.01,-18.01,3.,18.01,-18.01,3.,-18.01,     105P    225
18.01,3.,18.01,18.01,3.,-1.801,1.801,-1.801,1.801;                   105P    226
502,11,7.5,9.18485099360515D-16,8.,7.5,9.18485099360515D-16,3.,      107P    227
2.25,2.75545529808154D-16,3.,-2.25,0.,3.,-12.4,                      107P    228
-1.51856203094272D-15,8.,-12.4,-1.51856203094272D-15,3.,-12.4,       107P    229
-1.51856203094272D-15,-3.,-12.4,-1.51856203094272D-15,-8.,-2.25,     107P    230
-2.75545529808154D-16,-8.,-18.,-2.20436423846524D-15,-3.,-18.,       107P    231
-2.20436423846524D-15,3.;                                            107P    232
504,16,55,107,1,107,1,57,107,1,107,2,59,107,2,107,2,61,107,3,        109P    233
107,4,63,107,4,107,3,65,107,5,107,5,67,107,5,107,6,69,107,6,107,     109P    234
6,71,107,7,107,7,73,107,7,107,8,75,107,8,107,8,77,107,9,107,9,       109P    235
79,107,4,107,9,81,107,10,107,10,83,107,11,107,11,85,107,11,107,      109P    236
10;                                                                  109P    237
406,1,5HBody1;                                                       111P    238
314,62.7450980392157,62.7450980392157,62.7450980392157,13HSteel      113P    239
- Satin;                                                             113P    240
S      1G      2D    114P    240                                        T      1
