                                                                        S      1
,,7Htest v1,7Htest v1,7Hunknown,7Hunknown,32,38,7,99,15,,1.,2,2HMM,1,   G      1
0.08,15H20201205.181825,0.01,10000.,7Hunknown,7Hunknown,11,0,15H20201123G      2
.062746;                                                                G      3
     186       1                                                00000000D      1
     186            -135       1       0                               0D      2
     514       2                                                00010000D      3
     514                       1       1                               0D      4
     510       3                                                00010000D      5
     510            -135       1       1                               0D      6
     510       4                                                00010000D      7
     510            -135       1       1                               0D      8
     510       5                                                00010000D      9
     510            -135       1       1                               0D     10
     510       6                                                00010000D     11
     510            -135       1       1                               0D     12
     510       7                                                00010000D     13
     510            -135       1       1                               0D     14
     510       8                                                00010000D     15
     510            -135       1       1                               0D     16
     510       9                                                00010000D     17
     510            -135       1       1                               0D     18
     510      10                                                00010000D     19
     510            -135       1       1                               0D     20
     510      11                                                00010000D     21
     510            -135       1       1                               0D     22
     510      12                                                00010000D     23
     510            -135       1       1                               0D     24
     508      13                                                00010000D     25
     508                       1       1                               0D     26
     508      14                                                00010000D     27
     508                       1       1                               0D     28
     508      15                                                00010000D     29
     508                       1       1                               0D     30
     508      16                                                00010000D     31
     508                       1       1                               0D     32
     508      17                                                00010000D     33
     508                       1       1                               0D     34
     508      18                                                00010000D     35
     508                       1       1                               0D     36
     508      19                                                00010000D     37
     508                       1       1                               0D     38
     508      20                                                00010000D     39
     508                       1       1                               0D     40
     508      21                                                00010000D     41
     508                       1       1                               0D     42
     508      22                                                00010000D     43
     508                       1       1                               0D     44
     508      23                                                00010000D     45
     508                       1       1                               0D     46
     508      24                                                00010000D     47
     508                       1       1                               0D     48
     508      25                                                00010000D     49
     508                       1       1                               0D     50
     508      26                                                00010000D     51
     508                       1       1                               0D     52
     508      27                                                00010000D     53
     508                       1       1                               0D     54
     508      28                                                00010000D     55
     508                       1       1                               0D     56
     508      29                                                00010000D     57
     508                       1       1                               0D     58
     508      30                                                00010000D     59
     508                       1       1                               0D     60
     126      31                                                00010000D     61
     126       0               8       0                               0D     62
     126      39                                                00010000D     63
     126       0               2       0                               0D     64
     126      41                                                00010000D     65
     126       0               8       0                               0D     66
     126      49                                                00010000D     67
     126       0               8       0                               0D     68
     126      57                                                00010000D     69
     126       0               2       0                               0D     70
     126      59                                                00010000D     71
     126       0               8       0                               0D     72
     126      67                                                00010000D     73
     126       0               8       0                               0D     74
     126      75                                                00010000D     75
     126       0               2       0                               0D     76
     126      77                                                00010000D     77
     126       0               8       0                               0D     78
     126      85                                                00010000D     79
     126       0               8       0                               0D     80
     126      93                                                00010000D     81
     126       0               2       0                               0D     82
     126      95                                                00010000D     83
     126       0               8       0                               0D     84
     126     103                                                00010000D     85
     126       0               2       0                               0D     86
     126     105                                                00010000D     87
     126       0               2       0                               0D     88
     126     107                                                00010000D     89
     126       0               2       0                               0D     90
     126     109                                                00010000D     91
     126       0               2       0                               0D     92
     126     111                                                00010000D     93
     126       0               2       0                               0D     94
     126     113                                                00010000D     95
     126       0               2       0                               0D     96
     126     115                                                00010000D     97
     126       0               2       0                               0D     98
     126     117                                                00010000D     99
     126       0               2       0                               0D    100
     126     119                                                00010000D    101
     126       0               2       0                               0D    102
     126     121                                                00010000D    103
     126       0               2       0                               0D    104
     126     123                                                00010000D    105
     126       0               2       0                               0D    106
     126     125                                                00010000D    107
     126       0               2       0                               0D    108
     128     127                                                00010000D    109
     128       0    -135      12       0                               0D    110
     128     139                                                00010000D    111
     128       0    -135      13       0                               0D    112
     128     152                                                00010000D    113
     128       0    -135      12       0                               0D    114
     128     164                                                00010000D    115
     128       0    -135      12       0                               0D    116
     128     176                                                00010000D    117
     128       0    -135       3       0                               0D    118
     128     179                                                00010000D    119
     128       0    -135       3       0                               0D    120
     128     182                                                00010000D    121
     128       0    -135       3       0                               0D    122
     128     185                                                00010000D    123
     128       0    -135       3       0                               0D    124
     128     188                                                00010000D    125
     128       0    -135       3       0                               0D    126
     128     191                                                00010000D    127
     128       0    -135       3       0                               0D    128
     502     194                                                00010000D    129
     502                       4       1                               0D    130
     504     198                                                00010001D    131
     504                       7       1                               0D    132
     406     205                                                00000000D    133
     406                       1      15                               0D    134
     314     206                                                00000200D    135
     314                       2       0                               0D    136
186,3,1,0,0,1,133;                                                     1P      1
514,10,5,1,7,1,9,1,11,1,13,1,15,1,17,1,19,1,21,1,23,1;                 3P      2
510,109,1,1,25;                                                        5P      3
510,111,1,1,27;                                                        7P      4
510,113,1,1,29;                                                        9P      5
510,115,1,1,31;                                                       11P      6
510,117,1,1,33;                                                       13P      7
510,119,1,1,35;                                                       15P      8
510,121,1,1,37;                                                       17P      9
510,123,1,1,39;                                                       19P     10
510,125,5,1,41,43,45,47,49;                                           21P     11
510,127,5,1,51,53,55,57,59;                                           23P     12
508,4,0,131,1,0,0,0,131,2,1,0,0,131,3,1,0,0,131,2,0,0;                25P     13
508,4,0,131,4,0,0,0,131,5,1,0,0,131,6,1,0,0,131,5,0,0;                27P     14
508,4,0,131,7,0,0,0,131,8,1,0,0,131,9,1,0,0,131,8,0,0;                29P     15
508,4,0,131,10,0,0,0,131,11,1,0,0,131,12,1,0,0,131,11,0,0;            31P     16
508,4,0,131,13,0,0,0,131,14,1,0,0,131,15,0,0,0,131,16,0,0;            33P     17
508,4,0,131,17,0,0,0,131,16,1,0,0,131,18,0,0,0,131,19,0,0;            35P     18
508,4,0,131,20,0,0,0,131,19,1,0,0,131,21,0,0,0,131,22,0,0;            37P     19
508,4,0,131,23,0,0,0,131,22,1,0,0,131,24,0,0,0,131,14,0,0;            39P     20
508,4,0,131,24,1,0,0,131,21,1,0,0,131,18,1,0,0,131,15,1,0;            41P     21
508,1,0,131,10,1,0;                                                   43P     22
508,1,0,131,7,1,0;                                                    45P     23
508,1,0,131,4,1,0;                                                    47P     24
508,1,0,131,1,1,0;                                                    49P     25
508,4,0,131,23,1,0,0,131,13,1,0,0,131,17,1,0,0,131,20,1,0;            51P     26
508,1,0,131,12,0,0;                                                   53P     27
508,1,0,131,9,0,0;                                                    55P     28
508,1,0,131,6,0,0;                                                    57P     29
508,1,0,131,3,0,0;                                                    59P     30
126,8,2,0,1,0,0,-3.14159265358979,-3.14159265358979,                  61P     31
-3.14159265358979,-1.5707963267949,-1.5707963267949,0.,0.,            61P     32
1.5707963267949,1.5707963267949,3.14159265358979,                     61P     33
3.14159265358979,3.14159265358979,1.,0.707106781186548,1.,            61P     34
0.707106781186548,1.,0.707106781186548,1.,0.707106781186548,1.,       61P     35
-28.5,50.9,4.,-28.5,53.,4.,-26.4,53.,4.,-24.3,53.,4.,-24.3,50.9,      61P     36
4.,-24.3,48.8,4.,-26.4,48.8,4.,-28.5,48.8,4.,-28.5,50.9,4.,           61P     37
-3.14159265358979,3.14159265358979,0.,0.,0.;                          61P     38
126,1,1,0,0,1,0,-1.90476190476191,-1.90476190476191,0.,0.,1.,1.,      63P     39
-28.5,50.9,4.,-28.5,50.9,0.,-1.90476190476191,0.,0.,0.,0.;            63P     40
126,8,2,0,1,0,0,-3.14159265358979,-3.14159265358979,                  65P     41
-3.14159265358979,-1.5707963267949,-1.5707963267949,0.,0.,            65P     42
1.5707963267949,1.5707963267949,3.14159265358979,                     65P     43
3.14159265358979,3.14159265358979,1.,0.707106781186548,1.,            65P     44
0.707106781186548,1.,0.707106781186548,1.,0.707106781186548,1.,       65P     45
-28.5,50.9,0.,-28.5,53.,0.,-26.4,53.,0.,-24.3,53.,0.,-24.3,50.9,      65P     46
0.,-24.3,48.8,0.,-26.4,48.8,0.,-28.5,48.8,0.,-28.5,50.9,0.,           65P     47
-3.14159265358979,3.14159265358979,0.,0.,0.;                          65P     48
126,8,2,0,1,0,0,-3.14159265358979,-3.14159265358979,                  67P     49
-3.14159265358979,-1.5707963267949,-1.5707963267949,0.,0.,            67P     50
1.5707963267949,1.5707963267949,3.14159265358979,                     67P     51
3.14159265358979,3.14159265358979,1.,0.707106781186541,1.,            67P     52
0.707106781186541,1.,0.707106781186541,1.,0.707106781186541,1.,       67P     53
-28.5,-50.9,4.,-28.5,-48.8,4.,-26.4,-48.8,4.,-24.3,-48.8,4.,          67P     54
-24.3,-50.9,4.,-24.3,-53.,4.,-26.4,-53.,4.,-28.5,-53.,4.,-28.5,       67P     55
-50.9,4.,-3.14159265358979,3.14159265358979,0.,0.,0.;                 67P     56
126,1,1,0,0,1,0,-1.90476190476191,-1.90476190476191,0.,0.,1.,1.,      69P     57
-28.5,-50.9,4.,-28.5,-50.9,0.,-1.90476190476191,0.,0.,0.,0.;          69P     58
126,8,2,0,1,0,0,-3.14159265358979,-3.14159265358979,                  71P     59
-3.14159265358979,-1.5707963267949,-1.5707963267949,0.,0.,            71P     60
1.5707963267949,1.5707963267949,3.14159265358979,                     71P     61
3.14159265358979,3.14159265358979,1.,0.707106781186541,1.,            71P     62
0.707106781186541,1.,0.707106781186541,1.,0.707106781186541,1.,       71P     63
-28.5,-50.9,0.,-28.5,-48.8,0.,-26.4,-48.8,0.,-24.3,-48.8,0.,          71P     64
-24.3,-50.9,0.,-24.3,-53.,0.,-26.4,-53.,0.,-28.5,-53.,0.,-28.5,       71P     65
-50.9,0.,-3.14159265358979,3.14159265358979,0.,0.,0.;                 71P     66
126,8,2,0,1,0,0,-3.14159265358979,-3.14159265358979,                  73P     67
-3.14159265358979,-1.5707963267949,-1.5707963267949,0.,0.,            73P     68
1.5707963267949,1.5707963267949,3.14159265358979,                     73P     69
3.14159265358979,3.14159265358979,1.,0.707106781186541,1.,            73P     70
0.707106781186541,1.,0.707106781186541,1.,0.707106781186541,1.,       73P     71
24.3,50.9,4.,24.3,53.,4.,26.4,53.,4.,28.5,53.,4.,28.5,50.9,4.,        73P     72
28.5,48.8,4.,26.4,48.8,4.,24.3,48.8,4.,24.3,50.9,4.,                  73P     73
-3.14159265358979,3.14159265358979,0.,0.,0.;                          73P     74
126,1,1,0,0,1,0,-1.90476190476191,-1.90476190476191,0.,0.,1.,1.,      75P     75
24.3,50.9,4.,24.3,50.9,0.,-1.90476190476191,0.,0.,0.,0.;              75P     76
126,8,2,0,1,0,0,-3.14159265358979,-3.14159265358979,                  77P     77
-3.14159265358979,-1.5707963267949,-1.5707963267949,0.,0.,            77P     78
1.5707963267949,1.5707963267949,3.14159265358979,                     77P     79
3.14159265358979,3.14159265358979,1.,0.707106781186541,1.,            77P     80
0.707106781186541,1.,0.707106781186541,1.,0.707106781186541,1.,       77P     81
24.3,50.9,0.,24.3,53.,0.,26.4,53.,0.,28.5,53.,0.,28.5,50.9,0.,        77P     82
28.5,48.8,0.,26.4,48.8,0.,24.3,48.8,0.,24.3,50.9,0.,                  77P     83
-3.14159265358979,3.14159265358979,0.,0.,0.;                          77P     84
126,8,2,0,1,0,0,-3.14159265358979,-3.14159265358979,                  79P     85
-3.14159265358979,-1.5707963267949,-1.5707963267949,0.,0.,            79P     86
1.5707963267949,1.5707963267949,3.14159265358979,                     79P     87
3.14159265358979,3.14159265358979,1.,0.707106781186541,1.,            79P     88
0.707106781186541,1.,0.707106781186541,1.,0.707106781186541,1.,       79P     89
24.3,-50.9,4.,24.3,-48.8,4.,26.4,-48.8,4.,28.5,-48.8,4.,28.5,         79P     90
-50.9,4.,28.5,-53.,4.,26.4,-53.,4.,24.3,-53.,4.,24.3,-50.9,4.,        79P     91
-3.14159265358979,3.14159265358979,0.,0.,0.;                          79P     92
126,1,1,0,0,1,0,-1.90476190476191,-1.90476190476191,0.,0.,1.,1.,      81P     93
24.3,-50.9,4.,24.3,-50.9,0.,-1.90476190476191,0.,0.,0.,0.;            81P     94
126,8,2,0,1,0,0,-3.14159265358979,-3.14159265358979,                  83P     95
-3.14159265358979,-1.5707963267949,-1.5707963267949,0.,0.,            83P     96
1.5707963267949,1.5707963267949,3.14159265358979,                     83P     97
3.14159265358979,3.14159265358979,1.,0.707106781186541,1.,            83P     98
0.707106781186541,1.,0.707106781186541,1.,0.707106781186541,1.,       83P     99
24.3,-50.9,0.,24.3,-48.8,0.,26.4,-48.8,0.,28.5,-48.8,0.,28.5,         83P    100
-50.9,0.,28.5,-53.,0.,26.4,-53.,0.,24.3,-53.,0.,24.3,-50.9,0.,        83P    101
-3.14159265358979,3.14159265358979,0.,0.,0.;                          83P    102
126,1,1,0,0,1,0,0.,0.,12.18,12.18,1.,1.,36.4,60.9,0.,36.4,-60.9,      85P    103
0.,0.,12.18,0.,0.,0.;                                                 85P    104
126,1,1,0,0,1,0,0.,0.,0.4,0.4,1.,1.,36.4,60.9,0.,36.4,60.9,4.,        87P    105
0.,0.4,0.,0.,0.;                                                      87P    106
126,1,1,0,0,1,0,-12.18,-12.18,0.,0.,1.,1.,36.4,-60.9,4.,36.4,         89P    107
60.9,4.,-12.18,0.,0.,0.,0.;                                           89P    108
126,1,1,0,0,1,0,0.,0.,0.4,0.4,1.,1.,36.4,-60.9,0.,36.4,-60.9,4.,      91P    109
0.,0.4,0.,0.,0.;                                                      91P    110
126,1,1,0,0,1,0,0.,0.,7.28,7.28,1.,1.,36.4,-60.9,0.,-36.4,-60.9,      93P    111
0.,0.,7.28,0.,0.,0.;                                                  93P    112
126,1,1,0,0,1,0,-7.28,-7.28,0.,0.,1.,1.,-36.4,-60.9,4.,36.4,          95P    113
-60.9,4.,-7.28,0.,0.,0.,0.;                                           95P    114
126,1,1,0,0,1,0,0.,0.,0.4,0.4,1.,1.,-36.4,-60.9,0.,-36.4,-60.9,       97P    115
4.,0.,0.4,0.,0.,0.;                                                   97P    116
126,1,1,0,0,1,0,0.,0.,12.18,12.18,1.,1.,-36.4,-60.9,0.,-36.4,         99P    117
60.9,0.,0.,12.18,0.,0.,0.;                                            99P    118
126,1,1,0,0,1,0,-12.18,-12.18,0.,0.,1.,1.,-36.4,60.9,4.,-36.4,       101P    119
-60.9,4.,-12.18,0.,0.,0.,0.;                                         101P    120
126,1,1,0,0,1,0,0.,0.,0.4,0.4,1.,1.,-36.4,60.9,0.,-36.4,60.9,4.,     103P    121
0.,0.4,0.,0.,0.;                                                     103P    122
126,1,1,0,0,1,0,0.,0.,7.28,7.28,1.,1.,-36.4,60.9,0.,36.4,60.9,       105P    123
0.,0.,7.28,0.,0.,0.;                                                 105P    124
126,1,1,0,0,1,0,-7.28,-7.28,0.,0.,1.,1.,36.4,60.9,4.,-36.4,60.9,     107P    125
4.,-7.28,0.,0.,0.,0.;                                                107P    126
128,1,8,1,2,0,1,0,0,1,0.,0.,1.90476190476191,1.90476190476191,       109P    127
-3.14159265358979,-3.14159265358979,-3.14159265358979,               109P    128
-1.5707963267949,-1.5707963267949,0.,0.,1.5707963267949,             109P    129
1.5707963267949,3.14159265358979,3.14159265358979,                   109P    130
3.14159265358979,1.,1.,0.707106781186548,0.707106781186548,1.,       109P    131
1.,0.707106781186548,0.707106781186548,1.,1.,0.707106781186548,      109P    132
0.707106781186548,1.,1.,0.707106781186548,0.707106781186548,1.,      109P    133
1.,-28.5,50.9,0.,-28.5,50.9,4.,-28.5,48.8,0.,-28.5,48.8,4.,          109P    134
-26.4,48.8,0.,-26.4,48.8,4.,-24.3,48.8,0.,-24.3,48.8,4.,-24.3,       109P    135
50.9,0.,-24.3,50.9,4.,-24.3,53.,0.,-24.3,53.,4.,-26.4,53.,0.,        109P    136
-26.4,53.,4.,-28.5,53.,0.,-28.5,53.,4.,-28.5,50.9,0.,-28.5,50.9,     109P    137
4.,0.,1.90476190476191,-3.14159265358979,3.14159265358979;           109P    138
128,1,8,1,2,0,1,0,0,1,0.,0.,1.90476190476191,1.90476190476191,       111P    139
-3.14159265358979,-3.14159265358979,-3.14159265358979,               111P    140
-1.5707963267949,-1.5707963267949,0.,0.,1.5707963267949,             111P    141
1.5707963267949,3.14159265358979,3.14159265358979,                   111P    142
3.14159265358979,1.,1.,0.707106781186548,0.707106781186548,1.,       111P    143
1.,0.707106781186548,0.707106781186548,1.,1.,0.707106781186548,      111P    144
0.707106781186548,1.,1.,0.707106781186548,0.707106781186548,1.,      111P    145
1.,-28.5,-50.9,0.,-28.5,-50.9,4.,-28.5,-53.,0.,-28.5,-53.,4.,        111P    146
-26.4,-53.,0.,-26.4,-53.,4.,-24.3,-53.,0.,-24.3,-53.,4.,-24.3,       111P    147
-50.9,0.,-24.3,-50.9,4.,-24.3,-48.8,0.,-24.3,-48.8,4.,-26.4,         111P    148
-48.8,0.,-26.4,-48.8,4.,-28.5,-48.8,0.,-28.5,-48.8,4.,-28.5,         111P    149
-50.9,0.,-28.5,-50.9,4.,0.,1.90476190476191,-3.14159265358979,       111P    150
3.14159265358979;                                                    111P    151
128,1,8,1,2,0,1,0,0,1,0.,0.,1.90476190476191,1.90476190476191,       113P    152
-3.14159265358979,-3.14159265358979,-3.14159265358979,               113P    153
-1.5707963267949,-1.5707963267949,0.,0.,1.5707963267949,             113P    154
1.5707963267949,3.14159265358979,3.14159265358979,                   113P    155
3.14159265358979,1.,1.,0.707106781186548,0.707106781186548,1.,       113P    156
1.,0.707106781186548,0.707106781186548,1.,1.,0.707106781186548,      113P    157
0.707106781186548,1.,1.,0.707106781186548,0.707106781186548,1.,      113P    158
1.,24.3,50.9,0.,24.3,50.9,4.,24.3,48.8,0.,24.3,48.8,4.,26.4,         113P    159
48.8,0.,26.4,48.8,4.,28.5,48.8,0.,28.5,48.8,4.,28.5,50.9,0.,         113P    160
28.5,50.9,4.,28.5,53.,0.,28.5,53.,4.,26.4,53.,0.,26.4,53.,4.,        113P    161
24.3,53.,0.,24.3,53.,4.,24.3,50.9,0.,24.3,50.9,4.,0.,                113P    162
1.90476190476191,-3.14159265358979,3.14159265358979;                 113P    163
128,1,8,1,2,0,1,0,0,1,0.,0.,1.90476190476191,1.90476190476191,       115P    164
-3.14159265358979,-3.14159265358979,-3.14159265358979,               115P    165
-1.5707963267949,-1.5707963267949,0.,0.,1.5707963267949,             115P    166
1.5707963267949,3.14159265358979,3.14159265358979,                   115P    167
3.14159265358979,1.,1.,0.707106781186548,0.707106781186548,1.,       115P    168
1.,0.707106781186548,0.707106781186548,1.,1.,0.707106781186548,      115P    169
0.707106781186548,1.,1.,0.707106781186548,0.707106781186548,1.,      115P    170
1.,24.3,-50.9,0.,24.3,-50.9,4.,24.3,-53.,0.,24.3,-53.,4.,26.4,       115P    171
-53.,0.,26.4,-53.,4.,28.5,-53.,0.,28.5,-53.,4.,28.5,-50.9,0.,        115P    172
28.5,-50.9,4.,28.5,-48.8,0.,28.5,-48.8,4.,26.4,-48.8,0.,26.4,        115P    173
-48.8,4.,24.3,-48.8,0.,24.3,-48.8,4.,24.3,-50.9,0.,24.3,-50.9,       115P    174
4.,0.,1.90476190476191,-3.14159265358979,3.14159265358979;           115P    175
128,1,1,1,1,0,0,1,0,0,-0.001,-0.001,12.181,12.181,-0.001,-0.001,     117P    176
0.401,0.401,1.,1.,1.,1.,36.4,-60.91,-0.01,36.4,60.91,-0.01,36.4,     117P    177
-60.91,4.01,36.4,60.91,4.01,-0.001,12.181,-0.001,0.401;              117P    178
128,1,1,1,1,0,0,1,0,0,-0.001,-0.001,7.281,7.281,-0.001,-0.001,       119P    179
0.401,0.401,1.,1.,1.,1.,-36.41,-60.9,-0.01,36.41,-60.9,-0.01,        119P    180
-36.41,-60.9,4.01,36.41,-60.9,4.01,-0.001,7.281,-0.001,0.401;        119P    181
128,1,1,1,1,0,0,1,0,0,-0.001,-0.001,12.181,12.181,-0.001,-0.001,     121P    182
0.401,0.401,1.,1.,1.,1.,-36.4,60.91,-0.01,-36.4,-60.91,-0.01,        121P    183
-36.4,60.91,4.01,-36.4,-60.91,4.01,-0.001,12.181,-0.001,0.401;       121P    184
128,1,1,1,1,0,0,1,0,0,-0.001,-0.001,7.281,7.281,-0.001,-0.001,       123P    185
0.401,0.401,1.,1.,1.,1.,36.41,60.9,-0.01,-36.41,60.9,-0.01,          123P    186
36.41,60.9,4.01,-36.41,60.9,4.01,-0.001,7.281,-0.001,0.401;          123P    187
128,1,1,1,1,0,0,1,0,0,-3.641,-3.641,3.641,3.641,-6.091,-6.091,       125P    188
6.091,6.091,1.,1.,1.,1.,-36.41,-60.91,4.,36.41,-60.91,4.,-36.41,     125P    189
60.91,4.,36.41,60.91,4.,-3.641,3.641,-6.091,6.091;                   125P    190
128,1,1,1,1,0,0,1,0,0,-3.641,-3.641,3.641,3.641,-6.091,-6.091,       127P    191
6.091,6.091,1.,1.,1.,1.,36.41,-60.91,0.,-36.41,-60.91,0.,36.41,      127P    192
60.91,0.,-36.41,60.91,0.,-3.641,3.641,-6.091,6.091;                  127P    193
502,16,-28.5,50.9,4.,-28.5,50.9,0.,-28.5,-50.9,4.,-28.5,-50.9,       129P    194
0.,24.3,50.9,4.,24.3,50.9,0.,24.3,-50.9,4.,24.3,-50.9,0.,36.4,       129P    195
60.9,0.,36.4,-60.9,0.,36.4,60.9,4.,36.4,-60.9,4.,-36.4,-60.9,0.,     129P    196
-36.4,-60.9,4.,-36.4,60.9,0.,-36.4,60.9,4.;                          129P    197
504,24,61,129,1,129,1,63,129,1,129,2,65,129,2,129,2,67,129,3,        131P    198
129,3,69,129,3,129,4,71,129,4,129,4,73,129,5,129,5,75,129,5,129,     131P    199
6,77,129,6,129,6,79,129,7,129,7,81,129,7,129,8,83,129,8,129,8,       131P    200
85,129,9,129,10,87,129,9,129,11,89,129,12,129,11,91,129,10,129,      131P    201
12,93,129,10,129,13,95,129,14,129,12,97,129,13,129,14,99,129,13,     131P    202
129,15,101,129,16,129,14,103,129,15,129,16,105,129,15,129,9,107,     131P    203
129,11,129,16;                                                       131P    204
406,1,5HBody1;                                                       133P    205
314,62.7450980392157,62.7450980392157,62.7450980392157,13HSteel      135P    206
- Satin;                                                             135P    207
S      1G      3D    136P    207                                        T      1
