0
SECTION
2
HEADER
9
$INSUNITS
70
4
9
$ACADVER
1
AC1014
9
$HANDSEED
5
FFFF
0
ENDSEC
0
SECTION
2
TABLES
0
TABLE
2
VPORT
5
8
100
AcDbSymbolTable
0
ENDTAB
0
TABLE
2
LTYPE
5
5
100
AcDbSymbolTable
0
LTYPE
5
14
100
AcDbSymbolTableRecord
100
AcDbLinetypeTableRecord
2
BYBLOCK
70
0
0
LTYPE
5
15
100
AcDbSymbolTableRecord
100
AcDbLinetypeTableRecord
2
BYLAYER
70
0
0
ENDTAB
0
TABLE
2
LAYER
5
2
100
AcDbSymbolTable
70
2
0
LAYER
5
50
100
AcDbSymbolTableRecord
100
AcDbLayerTableRecord
2
0
70
0
6
CONTINUOUS
0
ENDTAB
0
TABLE
2
STYLE
5
3
100
AcDbSymbolTable
70
1
0
STYLE
5
11
100
AcDbSymbolTableRecord
100
AcDbTextStyleTableRecord
2
STANDARD
70
0
0
ENDTAB
0
TABLE
2
VIEW
5
6
100
AcDbSymbolTable
70
0
0
ENDTAB
0
TABLE
2
UCS
5
7
100
AcDbSymbolTable
70
0
0
ENDTAB
0
TABLE
2
APPID
5
9
100
AcDbSymbolTable
70
2
0
APPID
5
12
100
AcDbSymbolTableRecord
100
AcDbRegAppTableRecord
2
ACAD
70
0
0
ENDTAB
0
TABLE
2
DIMSTYLE
5
A
100
AcDbSymbolTable
70
1
0
ENDTAB
0
TABLE
2
BLOCK_RECORD
5
1
100
AcDbSymbolTable
70
1
0
BLOCK_RECORD
5
1F
100
AcDbSymbolTableRecord
100
AcDbBlockTableRecord
2
*MODEL_SPACE
0
BLOCK_RECORD
5
1B
100
AcDbSymbolTableRecord
100
AcDbBlockTableRecord
2
*PAPER_SPACE
0
ENDTAB
0
ENDSEC
0
SECTION
2
BLOCKS
0
BLOCK
5
20
100
AcDbEntity
100
AcDbBlockBegin
2
*MODEL_SPACE
0
ENDBLK
5
21
100
AcDbEntity
100
AcDbBlockEnd
0
BLOCK
5
1C
100
AcDbEntity
100
AcDbBlockBegin
2
*PAPER_SPACE
0
ENDBLK
5
1D
100
AcDbEntity
100
AcDbBlockEnd
0
ENDSEC
0
SECTION
2
ENTITIES
0
LWPOLYLINE
5
100
100
AcDbEntity
8
0
100
AcDbPolyline
90
10
70
1
43
0.0
10
266.48707239723882
20
24.142911796276959
10
266.48707239723882
20
11.142911796277112
10
263.48707239723882
20
11.142911796277112
10
263.48707239723882
20
17.142911796277041
42
0.41421356237309503
10
259.48707239723888
20
21.142911796276994
10
253.48707239723893
20
21.142911796276994
42
0.41421356237309503
10
249.48707239723899
20
17.142911796277041
10
249.48707239723899
20
11.142911796277112
10
246.48707239723902
20
11.142911796277112
10
246.48707239723899
20
24.142911796276959
0
ARC
5
101
100
AcDbEntity
8
0
100
AcDbCircle
10
259.48707239723888
20
17.142911796277041
30
5.5511151231257827e-16
40
3.9999999999999503
210
0
220
-2.5777514730012366e-50
230
1
100
AcDbArc
50
0
51
90
0
LINE
5
102
100
AcDbEntity
8
0
100
AcDbLine
10
263.48707239723882
20
17.142911796277041
30
5.5511151231257827e-16
11
263.48707239723882
21
11.142911796277112
31
0
0
LINE
5
103
100
AcDbEntity
8
0
100
AcDbLine
10
259.48707239723888
20
21.142911796276994
30
5.5511151231257827e-16
11
253.48707239723893
21
21.142911796276994
31
1.5767117646549339e-31
0
ARC
5
104
100
AcDbEntity
8
0
100
AcDbCircle
10
253.48707239723893
20
17.142911796277041
30
0
40
3.9999999999999547
210
-4.2769915125404345e-34
220
-3.9417794116373797e-32
230
1
100
AcDbArc
50
90
51
180
0
LINE
5
105
100
AcDbEntity
8
0
100
AcDbLine
10
249.48707239723899
20
17.142911796277041
30
-1.7107966050161574e-33
11
249.48707239723899
21
11.142911796277112
31
0
0
LINE
5
106
100
AcDbEntity
8
0
100
AcDbLine
10
263.3870723972388
20
17.142911796277041
30
5.5511151231257827e-16
11
263.3870723972388
21
5.9704722885706127
31
1.8503717077086185e-17
0
LINE
5
107
100
AcDbEntity
8
0
100
AcDbLine
10
249.58707239723901
20
17.142911796277041
30
-1.7107966050161574e-33
11
249.58707239723901
21
5.9704722885706127
31
5.4718134785097014e-16
0
ARC
5
108
100
AcDbEntity
8
0
100
AcDbCircle
10
253.48707239723893
20
17.142911796277041
30
0
40
3.8999999999999346
210
0
220
-3.8407081446723372e-32
230
1
100
AcDbArc
50
90
51
180
0
LINE
5
109
100
AcDbEntity
8
0
100
AcDbLine
10
259.48707239723888
20
21.042911796276975
30
5.5511151231257827e-16
11
253.48707239723893
21
21.042911796276975
31
1.4978761764221865e-31
0
ARC
5
110
100
AcDbEntity
8
0
100
AcDbCircle
10
259.48707239723888
20
17.142911796277041
30
5.5511151231257827e-16
40
3.8999999999999346
210
0
220
0
230
1
100
AcDbArc
50
0
51
90
0
LINE
5
111
100
AcDbEntity
8
0
100
AcDbLine
10
263.3870723972388
20
5.9704722885706127
30
0
11
263.3870723972388
21
1.0429117962769752
31
0
0
LINE
5
112
100
AcDbEntity
8
0
100
AcDbLine
10
263.3870723972388
20
1.0429117962769752
30
0
11
249.58707239723901
21
1.0429117962769749
31
0
0
LINE
5
113
100
AcDbEntity
8
0
100
AcDbLine
10
249.58707239723901
20
1.0429117962769749
30
0
11
249.58707239723901
21
5.9704722885706127
31
5.4718134785097014e-16
0
LINE
5
114
100
AcDbEntity
8
0
100
AcDbLine
10
249.58707239723901
20
10.942911796275574
30
2.7359067392548507e-16
11
249.58707239723901
21
11.142911796277113
31
2.7359067392548507e-16
0
LINE
5
115
100
AcDbEntity
8
0
100
AcDbLine
10
263.3870723972388
20
11.142911796277112
30
2.7359067392548507e-16
11
263.3870723972388
21
10.942911796275574
31
2.7359067392548507e-16
0
LINE
5
116
100
AcDbEntity
8
0
100
AcDbLine
10
249.48707239723899
20
11.142911796277112
30
5.5511151231257827e-16
11
249.58707239723901
21
11.142911796277113
31
2.7359067392548507e-16
0
CIRCLE
5
117
100
AcDbEntity
8
0
100
AcDbCircle
10
256.48707239723888
20
11.042911796276954
30
2.7359067392548507e-16
40
2.0999999999999899
210
0
220
0
230
1
0
LINE
5
118
100
AcDbEntity
8
0
100
AcDbLine
10
249.58707239723901
20
11.042911796276973
30
2.7359067392548507e-16
11
263.3870723972388
21
11.042911796276931
31
2.7359067392548507e-16
0
LINE
5
119
100
AcDbEntity
8
0
100
AcDbLine
10
263.3870723972388
20
8.042911796276961
30
2.8680761469483217e-16
11
249.58707239723896
21
8.042911796276961
31
2.8680761469483217e-16
0
LINE
5
120
100
AcDbEntity
8
0
100
AcDbLine
10
249.58707239723896
20
8.042911796276961
30
2.8680761469483217e-16
11
249.58707239723896
21
14.042911796276963
31
2.6037373315613791e-16
0
LINE
5
121
100
AcDbEntity
8
0
100
AcDbLine
10
249.58707239723896
20
14.042911796276963
30
2.6037373315613791e-16
11
263.3870723972388
21
14.042911796276963
31
2.8680761469483217e-16
0
LINE
5
122
100
AcDbEntity
8
0
100
AcDbLine
10
263.3870723972388
20
14.042911796276963
30
2.8680761469483217e-16
11
263.3870723972388
21
8.042911796276961
31
2.8680761469483217e-16
0
LINE
5
123
100
AcDbEntity
8
0
100
AcDbLine
10
263.3870723972388
20
8.042911796276961
30
2.8680761469483217e-16
11
249.58707239723896
21
14.042911796276963
31
2.6037373315613791e-16
0
LINE
5
124
100
AcDbEntity
8
0
100
AcDbLine
10
249.58707239723896
20
8.042911796276961
30
2.8680761469483217e-16
11
263.3870723972388
21
14.042911796276963
31
2.8680761469483217e-16
0
LINE
5
125
100
AcDbEntity
8
0
100
AcDbLine
10
260.98707239723888
20
8.042911796276961
30
3.0323960838583444e-16
11
251.9870723972389
21
8.042911796276961
31
3.0323960838583444e-16
0
LINE
5
126
100
AcDbEntity
8
0
100
AcDbLine
10
251.9870723972389
20
8.042911796276961
30
3.0323960838583444e-16
11
251.9870723972389
21
14.042911796276938
31
2.4394173946513565e-16
0
LINE
5
127
100
AcDbEntity
8
0
100
AcDbLine
10
251.9870723972389
20
14.042911796276938
30
2.4394173946513565e-16
11
260.98707239723888
21
14.042911796276938
31
3.0323960838583444e-16
0
LINE
5
128
100
AcDbEntity
8
0
100
AcDbLine
10
260.98707239723888
20
14.042911796276938
30
3.0323960838583444e-16
11
260.98707239723888
21
8.042911796276961
31
3.0323960838583444e-16
0
LINE
5
129
100
AcDbEntity
8
0
100
AcDbLine
10
260.98707239723888
20
8.042911796276961
30
3.0323960838583444e-16
11
251.9870723972389
21
14.042911796276938
31
2.4394173946513565e-16
0
LINE
5
130
100
AcDbEntity
8
0
100
AcDbLine
10
251.9870723972389
20
8.042911796276961
30
3.0323960838583444e-16
11
260.98707239723888
21
14.042911796276938
31
3.0323960838583444e-16
0
ENDSEC
0
SECTION
2
OBJECTS
0
DICTIONARY
5
C
100
AcDbDictionary
3
ACAD_GROUP
350
D
3
ACAD_MLINESTYLE
350
17
0
DICTIONARY
5
D
100
AcDbDictionary
0
DICTIONARY
5
1A
330
C
100
AcDbDictionary
0
DICTIONARY
5
17
100
AcDbDictionary
0
ENDSEC
0
EOF
