0
SECTION
2
HEADER
9
$INSUNITS
70
4
9
$ACADVER
1
AC1014
9
$HANDSEED
5
FFFF
0
ENDSEC
0
SECTION
2
TABLES
0
TABLE
2
VPORT
5
8
100
AcDbSymbolTable
0
ENDTAB
0
TABLE
2
LTYPE
5
5
100
AcDbSymbolTable
0
LTYPE
5
14
100
AcDbSymbolTableRecord
100
AcDbLinetypeTableRecord
2
BYBLOCK
70
0
0
LTYPE
5
15
100
AcDbSymbolTableRecord
100
AcDbLinetypeTableRecord
2
BYLAYER
70
0
0
ENDTAB
0
TABLE
2
LAYER
5
2
100
AcDbSymbolTable
70
2
0
LAYER
5
50
100
AcDbSymbolTableRecord
100
AcDbLayerTableRecord
2
0
70
0
6
CONTINUOUS
0
ENDTAB
0
TABLE
2
STYLE
5
3
100
AcDbSymbolTable
70
1
0
STYLE
5
11
100
AcDbSymbolTableRecord
100
AcDbTextStyleTableRecord
2
STANDARD
70
0
0
ENDTAB
0
TABLE
2
VIEW
5
6
100
AcDbSymbolTable
70
0
0
ENDTAB
0
TABLE
2
UCS
5
7
100
AcDbSymbolTable
70
0
0
ENDTAB
0
TABLE
2
APPID
5
9
100
AcDbSymbolTable
70
2
0
APPID
5
12
100
AcDbSymbolTableRecord
100
AcDbRegAppTableRecord
2
ACAD
70
0
0
ENDTAB
0
TABLE
2
DIMSTYLE
5
A
100
AcDbSymbolTable
70
1
0
ENDTAB
0
TABLE
2
BLOCK_RECORD
5
1
100
AcDbSymbolTable
70
1
0
BLOCK_RECORD
5
1F
100
AcDbSymbolTableRecord
100
AcDbBlockTableRecord
2
*MODEL_SPACE
0
BLOCK_RECORD
5
1B
100
AcDbSymbolTableRecord
100
AcDbBlockTableRecord
2
*PAPER_SPACE
0
ENDTAB
0
ENDSEC
0
SECTION
2
BLOCKS
0
BLOCK
5
20
100
AcDbEntity
100
AcDbBlockBegin
2
*MODEL_SPACE
0
ENDBLK
5
21
100
AcDbEntity
100
AcDbBlockEnd
0
BLOCK
5
1C
100
AcDbEntity
100
AcDbBlockBegin
2
*PAPER_SPACE
0
ENDBLK
5
1D
100
AcDbEntity
100
AcDbBlockEnd
0
ENDSEC
0
SECTION
2
ENTITIES
0
CIRCLE
5
100
100
AcDbEntity
8
0
100
AcDbCircle
10
0
20
0
30
0
40
60
210
0
220
0
230
1
0
LWPOLYLINE
5
101
100
AcDbEntity
8
0
100
AcDbPolyline
90
192
70
1
43
0.0
10
60.602825773984954
20
6.9496408689963474
42
-0.02855186717162549
10
61
20
-1.4940690949597707e-14
10
61.999999999999993
20
-1.7652546091539989e-13
42
-0.0041133957181750721
10
61.991607951919896
20
-1.0200703580936048
10
60.991470358276629
20
-1.0200703580936465
42
-0.02855186717162549
10
60.478136543802421
20
-7.9620977254232015
10
61.469581405176335
20
-8.0926239176425732
42
-0.0041133957181785138
10
61.328115252592312
20
-9.1028720503340672
10
60.336533974707976
20
-8.9723278985396284
42
-0.028551867171625712
10
58.921475403633153
20
-15.787961751253814
10
59.887401229922411
20
-16.046780796355669
42
-0.0041133957181785138
10
59.615281497927022
20
-17.029921078000324
10
58.649222766384383
20
-16.771066421042566
42
-0.028551867171624935
10
56.356651483188472
20
-23.343689374270507
10
57.280531015699687
20
-23.726372806635744
42
-0.0041133957181750721
10
56.882413748353564
20
-24.66558343443586
10
55.958407095891481
20
-24.282847347263093
42
-0.02855186717162549
10
52.82754963085074
20
-30.500000000000021
10
53.693575034635053
20
-31.00000000000021
42
-0.0041133957181750721
10
53.176272128761198
20
-31.879210819716558
10
52.310127565386338
20
-31.379142022894875
42
-0.02855186717162549
10
48.394553757765323
20
-37.134447169531974
10
49.187907098056208
20
-37.743208598541152
42
-0.0041133957181734068
10
48.56026974979784
20
-38.547376069284766
10
47.766807249130032
20
-37.938530878573282
42
-0.028551867171624935
10
43.133513652379364
20
-43.13351365237942
10
43.840620433565782
20
-43.840620433566102
42
-0.0041133957181750721
10
43.113387691965038
20
-44.555985026955874
10
42.406183617380236
20
-43.8487809523712
42
-0.028551867171624935
10
37.134447169531938
20
-48.394553757765351
10
37.74320859854118
20
-49.187907098056193
42
-0.0041133957181785138
10
36.928823617433451
20
-49.80222872756287
10
36.319978426721768
20
-49.008766226895226
42
-0.028551867171624935
10
30.499999999999979
20
-52.827549630850768
10
31.000000000000561
20
-53.69357503463489
42
-0.0041133957181785138
10
30.11239713220337
20
-54.196342486854867
10
29.612328335381747
20
-53.330197923479957
42
-0.02855186717162549
10
23.34368937427044
20
-56.3566514831885
10
23.726372806635325
20
-57.280531015699871
42
-0.0041133957181750721
10
22.780739183307482
20
-57.663141800131896
10
22.398003096134786
20
-56.739135147669792
42
-0.02855186717162549
10
15.787961751253739
20
-58.921475403633174
10
16.046780796356877
20
-59.887401229922091
42
-0.0041133957181785138
10
15.059296470971121
20
-60.143308769965394
10
14.800441814013174
20
-59.177250038422784
42
-0.028551867171624935
10
7.9620977254231313
20
-60.478136543802435
10
8.0926239176426087
20
-61.469581405176321
42
-0.0041133957181734068
10
7.0801850207907222
20
-61.594407051869318
10
6.9496408689963545
20
-60.602825773984954
42
-0.02855186717162549
10
-7.4703454747988535e-15
20
-61
10
-1.7263968032921184e-13
20
-61.999999999999993
42
-0.0041133957181750721
10
-1.0200703580936008
20
-61.991607951919896
10
-1.0200703580936155
20
-60.991470358276644
42
-0.02855186717162549
10
-7.9620977254231704
20
-60.478136543802428
10
-8.0926239176425696
20
-61.469581405176335
42
-0.0041133957181785138
10
-9.1028720503340637
20
-61.328115252592312
10
-8.9723278985396462
20
-60.336533974707947
42
-0.02855186717162549
10
-15.78796175125378
20
-58.921475403633153
10
-16.046780796356487
20
-59.887401229922183
42
-0.0041133957181750721
10
-17.029921078000321
20
-59.615281497927022
10
-16.771066421042534
20
-58.649222766384376
42
-0.028551867171624935
10
-23.343689374270479
20
-56.356651483188486
10
-23.726372806635744
20
-57.280531015699687
42
-0.0041133957181750721
10
-24.66558343443586
20
-56.882413748353564
10
-24.282847347263214
20
-55.958407095891417
42
-0.028551867171624935
10
-30.500000000000021
20
-52.827549630850747
10
-31.000000000000213
20
-53.693575034635082
42
-0.0041133957181750721
10
-31.879210819716558
20
-53.176272128761212
10
-31.379142022894868
20
-52.310127565386352
42
-0.02855186717162549
10
-37.134447169531967
20
-48.394553757765337
10
-37.743208598540818
20
-49.187907098056456
42
-0.0041133957181750721
10
-38.547376069284766
20
-48.56026974979784
10
-37.938530878573154
20
-47.766807249130146
42
-0.02855186717162549
10
-43.133513652379406
20
-43.133513652379406
10
-43.840620433566087
20
-43.840620433565789
42
-0.0041133957181750721
10
-44.555985026955867
20
-43.113387691965045
10
-43.848780952371101
20
-42.406183617380329
42
-0.02855186717162549
10
-48.394553757765351
20
-37.134447169531938
10
-49.187907098056705
20
-37.743208598540505
42
-0.0041133957181750721
10
-49.802228727562863
20
-36.928823617433451
10
-49.008766226895219
20
-36.319978426721768
42
-0.028551867171624935
10
-52.827549630850761
20
-30.499999999999986
10
-53.69357503463489
20
-31.000000000000561
42
-0.0041133957181785138
10
-54.196342486854867
20
-30.11239713220337
10
-53.330197923479936
20
-29.612328335381815
42
-0.028551867171625712
10
-56.356651483188493
20
-23.343689374270458
10
-57.280531015699538
20
-23.726372806636174
42
-0.0041133957181785138
10
-57.663141800131868
20
-22.780739183307539
10
-56.739135147669764
20
-22.398003096134801
42
-0.02855186717162549
10
-58.921475403633167
20
-15.787961751253759
10
-59.887401229922268
20
-16.046780796356103
42
-0.0041133957181750721
10
-60.143308769965373
20
-15.059296470971177
10
-59.177250038422784
20
-14.80044181401318
42
-0.028551867171624935
10
-60.478136543802435
20
-7.9620977254231349
10
-61.469581405176321
20
-8.0926239176426105
42
-0.0041133957181734068
10
-61.594407051869318
20
-7.0801850207907258
10
-60.602825773984954
20
-6.949640868996358
42
-0.02855186717162549
10
-61
20
3.7351727373994268e-15
10
-61.999999999999993
20
1.6903145549918008e-13
42
-0.0041133957181750721
10
-61.991607951919896
20
1.0200703580935973
10
-60.991470358276636
20
1.0200703580937343
42
-0.028551867171624935
10
-60.478136543802428
20
7.9620977254231544
10
-61.469581405176335
20
8.0926239176425661
42
-0.0041133957181785138
10
-61.328115252592312
20
9.1028720503340601
10
-60.336533974707962
20
8.9723278985395893
42
-0.028551867171625712
10
-58.921475403633153
20
15.787961751253778
10
-59.887401229922183
20
16.046780796356483
42
-0.0041133957181750721
10
-59.615281497927022
20
17.029921078000317
10
-58.649222766384369
20
16.771066421042534
42
-0.028551867171624935
10
-56.356651483188493
20
23.343689374270483
10
-57.280531015700014
20
23.726372806634949
42
-0.0041133957181785138
10
-56.882413748353564
20
24.665583434435856
10
-55.958407095891417
20
24.2828473472632
42
-0.028551867171624935
10
-52.827549630850754
20
30.500000000000011
10
-53.693575034635089
20
31.000000000000156
42
-0.0041133957181750721
10
-53.176272128761241
20
31.879210819716505
10
-52.310127565386296
20
31.379142022894975
42
-0.028551867171624935
10
-48.394553757765344
20
37.13444716953196
10
-49.187907098056478
20
37.743208598540811
42
-0.0041133957181750721
10
-48.560269749797847
20
38.547376069284759
10
-47.766807249130146
20
37.938530878573154
42
-0.02855186717162549
10
-43.133513652379406
20
43.133513652379406
10
-43.840620433565803
20
43.840620433566073
42
-0.0041133957181750721
10
-43.113387691965066
20
44.555985026955852
10
-42.406183617380357
20
43.848780952371094
42
-0.02855186717162549
10
-37.134447169531953
20
48.394553757765344
10
-37.743208598540534
20
49.187907098056705
42
-0.0041133957181750721
10
-36.92882361743348
20
49.802228727562856
10
-36.319978426721875
20
49.008766226895126
42
-0.02855186717162549
10
-30.499999999999989
20
52.827549630850754
10
-30.999999999999819
20
53.693575034635288
42
-0.0041133957181750721
10
-30.112397132203373
20
54.19634248685486
10
-29.612328335381662
20
53.330197923480014
42
-0.028551867171624935
10
-23.343689374270475
20
56.356651483188493
10
-23.726372806636178
20
57.280531015699538
42
-0.0041133957181785138
10
-22.780739183307542
20
57.663141800131868
10
-22.398003096134804
20
56.739135147669764
42
-0.02855186717162549
10
-15.787961751253762
20
58.921475403633167
10
-16.04678079635611
20
59.887401229922268
42
-0.0041133957181750721
10
-15.059296470971182
20
60.143308769965373
10
-14.800441814013375
20
59.177250038422748
42
-0.028551867171625712
10
-7.9620977254231455
20
60.478136543802428
10
-8.0926239176429977
20
61.469581405176264
42
-0.0041133957181750721
10
-7.0801850207907027
20
61.594407051869325
10
-6.9496408689963616
20
60.602825773984954
42
-0.02855186717162549
10
0
20
61
10
1.9262369477246466e-13
20
61.999999999999993
42
-0.0041133957181750721
10
1.0200703580936208
20
61.991607951919896
10
1.0200703580935999
20
60.991470358276644
42
-0.028551867171625712
10
7.9620977254232077
20
60.478136543802421
10
8.0926239176425891
20
61.469581405176321
42
-0.0041133957181785138
10
9.102872050334085
20
61.328115252592312
10
8.9723278985396853
20
60.336533974707962
42
-0.02855186717162549
10
15.787961751253816
20
58.921475403633153
10
16.046780796356511
20
59.887401229922183
42
-0.0041133957181750721
10
17.029921078000342
20
59.615281497927015
10
16.771066421042569
20
58.649222766384369
42
-0.028551867171624935
10
23.343689374270511
20
56.356651483188472
10
23.726372806635801
20
57.280531015699694
42
-0.0041133957181750721
10
24.665583434435906
20
56.882413748353542
10
24.282847347263093
20
55.958407095891474
42
-0.02855186717162549
10
30.500000000000025
20
52.82754963085074
10
31.000000000000199
20
53.69357503463506
42
-0.0041133957181750721
10
31.879210819716551
20
53.176272128761212
10
31.379142022894882
20
52.310127565386338
42
-0.02855186717162549
10
37.134447169531974
20
48.394553757765323
10
37.743208598540193
20
49.187907098056975
42
-0.0041133957181785138
10
38.547376069284802
20
48.560269749797811
10
37.93853087857326
20
47.766807249130053
42
-0.028551867171624935
10
43.133513652379406
20
43.133513652379385
10
43.840620433566102
20
43.840620433565796
42
-0.0041133957181750721
10
44.555985026955867
20
43.113387691965059
10
43.848780952371122
20
42.406183617380307
42
-0.02855186717162549
10
48.394553757765379
20
37.134447169531917
10
49.187907098056733
20
37.743208598540463
42
-0.0041133957181750721
10
49.802228727562891
20
36.928823617433416
10
49.008766226895226
20
36.319978426721747
42
-0.028551867171624935
10
52.827549630850783
20
30.499999999999964
10
53.693575034635508
20
30.999999999999442
42
-0.0041133957181734068
10
54.196342486854867
20
30.112397132203348
10
53.330197923479957
20
29.612328335381747
42
-0.02855186717162549
10
56.3566514831885
20
23.34368937427044
10
57.280531015699864
20
23.726372806635354
42
-0.0041133957181750721
10
57.663141800131889
20
22.78073918330751
10
56.739135147669792
20
22.398003096134783
42
-0.02855186717162549
10
58.921475403633174
20
15.787961751253736
10
59.887401229922062
20
16.046780796356895
42
-0.0041133957181785138
10
60.143308769965387
20
15.059296470971145
10
59.17725003842277
20
14.800441814013304
42
-0.02855186717162549
10
60.478136543802435
20
7.9620977254231287
10
61.469581405176157
20
8.0926239176438344
42
-0.0041133957181785138
10
61.594407051869325
20
7.080185020790692
0
LINE
5
102
100
AcDbEntity
8
0
100
AcDbLine
10
77.5
20
-77.499999999999986
30
0
11
-77.499999999999972
21
-77.499999999999986
31
0
0
LINE
5
103
100
AcDbEntity
8
0
100
AcDbLine
10
-77.499999999999972
20
-77.499999999999986
30
0
11
-77.5
21
77.500000000000014
31
0
0
LINE
5
104
100
AcDbEntity
8
0
100
AcDbLine
10
-77.5
20
77.500000000000014
30
0
11
77.5
21
77.500000000000014
31
0
0
LINE
5
105
100
AcDbEntity
8
0
100
AcDbLine
10
77.5
20
77.500000000000014
30
0
11
77.5
21
-77.499999999999986
31
0
0
LINE
5
106
100
AcDbEntity
8
0
100
AcDbLine
10
77.5
20
-77.499999999999986
30
0
11
-77.5
21
77.500000000000014
31
0
0
LINE
5
107
100
AcDbEntity
8
0
100
AcDbLine
10
-77.499999999999972
20
-77.499999999999986
30
0
11
77.5
21
77.500000000000014
31
0
0
ENDSEC
0
SECTION
2
OBJECTS
0
DICTIONARY
5
C
100
AcDbDictionary
3
ACAD_GROUP
350
D
3
ACAD_MLINESTYLE
350
17
0
DICTIONARY
5
D
100
AcDbDictionary
0
DICTIONARY
5
1A
330
C
100
AcDbDictionary
0
DICTIONARY
5
17
100
AcDbDictionary
0
ENDSEC
0
EOF
