                                                                        S      1
,,10Htige 155.5,10Htige 155.5,7Hunknown,7Hunknown,32,38,7,99,15,,1.,2,2HG      1
MM,1,0.08,15H20201205.180126,0.01,10000.,7Hunknown,7Hunknown,11,0,;     G      2
     186       1                                                00000000D      1
     186             -35       1       0                               0D      2
     514       2                                                00010000D      3
     514                       1       1                               0D      4
     510       3                                                00010000D      5
     510             -35       1       1                               0D      6
     510       4                                                00010000D      7
     510             -35       1       1                               0D      8
     510       5                                                00010000D      9
     510             -35       1       1                               0D     10
     508       6                                                00010000D     11
     508                       1       1                               0D     12
     508       7                                                00010000D     13
     508                       1       1                               0D     14
     508       8                                                00010000D     15
     508                       1       1                               0D     16
     126       9                                                00010000D     17
     126       0              15       0                               0D     18
     126      24                                                00010000D     19
     126       0               5       0                               0D     20
     126      29                                                00010000D     21
     126       0              15       0                               0D     22
     128      44                                                00010000D     23
     128       0     -35      28       0                               0D     24
     128      72                                                00010000D     25
     128       0     -35       8       0                               0D     26
     128      80                                                00010000D     27
     128       0     -35       6       0                               0D     28
     502      86                                                00010000D     29
     502                       2       1                               0D     30
     504      88                                                00010001D     31
     504                       1       1                               0D     32
     406      89                                                00000000D     33
     406                       1      15                               0D     34
     314      90                                                00000200D     35
     314                       2       0                               0D     36
186,3,1,0,0,1,33;                                                      1P      1
514,3,5,1,7,1,9,1;                                                     3P      2
510,23,1,1,11;                                                         5P      3
510,25,1,1,13;                                                         7P      4
510,27,1,1,15;                                                         9P      5
508,4,0,31,1,0,0,0,31,2,1,0,0,31,3,1,0,0,31,2,0,0;                    11P      6
508,1,0,31,1,1,0;                                                     13P      7
508,1,0,31,3,0,0;                                                     15P      8
126,8,2,0,1,0,0,-3.14159265358979,-3.14159265358979,                  17P      9
-3.14159265358979,-1.5707963267949,-1.5707963267949,0.,0.,            17P     10
1.5707963267949,1.5707963267949,3.14159265358979,                     17P     11
3.14159265358979,3.14159265358979,1.,0.707106781186556,1.,            17P     12
0.707106781186551,1.,0.707106781186555,1.,0.707106781186551,1.,       17P     13
97.7896906110565,-4.85710514313533,6.06450024960489,                  17P     14
98.3615305617215,-4.19327177027845,4.15601280560506,                  17P     15
96.770459831015,-2.82269016749468,4.15601280560506,                   17P     16
95.1793891003086,-1.45210856471091,4.15601280560506,                  17P     17
94.6075491496437,-2.11594193756779,6.06450024960489,                  17P     18
94.0357091989788,-2.77977531042467,7.97298769360473,                  17P     19
95.6267799296852,-4.15035691320844,7.97298769360473,                  17P     20
97.2178506603916,-5.52093851599222,7.97298769360473,                  17P     21
97.7896906110565,-4.85710514313533,6.06450024960489,                  17P     22
-3.14159265358979,3.14159265358979,0.,0.,0.;                          17P     23
126,1,1,0,0,1,0,-74.0476190476191,-74.0476190476191,                  19P     24
1.60630124449248D-15,1.60630124449248D-15,1.,1.,                      19P     25
97.7896906110567,-4.85710514313519,6.06450024960496,                  19P     26
5.55675982355224,-111.927794174134,-58.8138784968971,                 19P     27
-74.0476190476191,1.60630124449248D-15,0.,0.,0.;                      19P     28
126,8,2,0,1,0,0,-3.14159265358979,-3.14159265358979,                  21P     29
-3.14159265358979,-1.5707963267949,-1.5707963267949,0.,0.,            21P     30
1.5707963267949,1.5707963267949,3.14159265358979,                     21P     31
3.14159265358979,3.14159265358979,1.,0.707106781186554,1.,            21P     32
0.70710678118655,1.,0.707106781186555,1.,0.707106781186551,1.,        21P     33
5.55675982355224,-111.927794174134,-58.8138784968971,                 21P     34
6.12859977421715,-111.263960801277,-60.7223659408969,                 21P     35
4.53752904351073,-109.893379198494,-60.7223659408969,                 21P     36
2.94645831280431,-108.52279759571,-60.7223659408969,                  21P     37
2.3746183621394,-109.186630968567,-58.8138784968971,                  21P     38
1.80277841147449,-109.850464341424,-56.9053910528972,                 21P     39
3.39384914218091,-111.221045944207,-56.9053910528972,                 21P     40
4.98491987288734,-112.591627546991,-56.9053910528972,                 21P     41
5.55675982355224,-111.927794174134,-58.8138784968971,                 21P     42
-3.14159265358979,3.14159265358979,0.,0.,0.;                          21P     43
128,1,8,1,2,0,1,0,0,1,-1.60630124449248D-15,                          23P     44
-1.60630124449248D-15,74.0476190476191,74.0476190476191,              23P     45
-3.14159265358979,-3.14159265358979,-3.14159265358979,                23P     46
-1.5707963267949,-1.5707963267949,0.,0.,1.5707963267949,              23P     47
1.5707963267949,3.14159265358979,3.14159265358979,                    23P     48
3.14159265358979,1.,1.,0.707106781186548,0.707106781186548,1.,        23P     49
1.,0.707106781186548,0.707106781186548,1.,1.,0.707106781186548,       23P     50
0.707106781186548,1.,1.,0.707106781186548,0.707106781186548,1.,       23P     51
1.,97.7896906110567,-4.85710514313519,6.06450024960496,               23P     52
5.55675982355224,-111.927794174134,-58.8138784968971,                 23P     53
98.3615305617216,-4.19327177027831,4.15601280560514,                  23P     54
6.12859977421715,-111.263960801277,-60.7223659408969,                 23P     55
96.7704598310151,-2.82269016749457,4.15601280560512,                  23P     56
4.53752904351073,-109.893379198494,-60.7223659408969,                 23P     57
95.1793891003087,-1.45210856471084,4.1560128056051,                   23P     58
2.9464583128043,-108.52279759571,-60.7223659408969,                   23P     59
94.6075491496438,-2.11594193756772,6.06450024960493,                  23P     60
2.3746183621394,-109.186630968567,-58.8138784968971,                  23P     61
94.0357091989789,-2.77977531042461,7.97298769360476,                  23P     62
1.80277841147449,-109.850464341424,-56.9053910528972,                 23P     63
95.6267799296853,-4.15035691320834,7.97298769360478,                  23P     64
3.39384914218091,-111.221045944207,-56.9053910528972,                 23P     65
97.2178506603918,-5.52093851599207,7.97298769360479,                  23P     66
4.98491987288733,-112.591627546991,-56.9053910528972,                 23P     67
97.7896906110567,-4.85710514313519,6.06450024960496,                  23P     68
5.55675982355224,-111.927794174134,-58.8138784968971,                 23P     69
-1.60630124449248D-15,74.0476190476191,-3.14159265358979,             23P     70
3.14159265358979;                                                     23P     71
128,1,1,1,1,0,0,1,0,0,-0.211000000000001,-0.211000000000001,          25P     72
0.210999999999999,0.210999999999999,-0.211000000000001,               25P     73
-0.211000000000001,0.211,0.211,1.,1.,1.,1.,98.3718301363947,          25P     74
-4.19663723804001,4.14692477015743,95.1745356204037,                  25P     75
-1.44242087435072,4.14692477015743,97.2227041402966,                  25P     76
-5.53062620635242,7.98207572905235,94.0254096243056,                  25P     77
-2.77640984266312,7.98207572905235,-0.211000000000001,                25P     78
0.210999999999999,-0.211000000000001,0.211;                           25P     79
128,1,1,1,1,0,0,1,0,0,-0.211,-0.211,0.211,0.211,-0.211,-0.211,        27P     80
0.211,0.211,1.,1.,1.,1.,2.94160483289935,-108.51310990535,            27P     81
-60.7314539763445,6.13889934889035,-111.267326269039,                 27P     82
-60.7314539763445,1.79247883680129,-109.847098873662,                 27P     83
-56.8963030174496,4.98977335279229,-112.601315237351,                 27P     84
-56.8963030174496,-0.211,0.211,-0.211,0.211;                          27P     85
502,2,97.7896906110565,-4.8571051431353,6.06450024960489,             29P     86
5.55675982355224,-111.927794174134,-58.8138784968971;                 29P     87
504,3,17,29,1,29,1,19,29,1,29,2,21,29,2,29,2;                         31P     88
406,1,5HBody1;                                                        33P     89
314,62.7450980392157,62.7450980392157,62.7450980392157,13HSteel       35P     90
- Satin;                                                              35P     91
S      1G      2D     36P     91                                        T      1
