0
SECTION
2
HEADER
9
$INSUNITS
70
4
9
$ACADVER
1
AC1014
9
$HANDSEED
5
FFFF
0
ENDSEC
0
SECTION
2
TABLES
0
TABLE
2
VPORT
5
8
100
AcDbSymbolTable
0
ENDTAB
0
TABLE
2
LTYPE
5
5
100
AcDbSymbolTable
0
LTYPE
5
14
100
AcDbSymbolTableRecord
100
AcDbLinetypeTableRecord
2
BYBLOCK
70
0
0
LTYPE
5
15
100
AcDbSymbolTableRecord
100
AcDbLinetypeTableRecord
2
BYLAYER
70
0
0
ENDTAB
0
TABLE
2
LAYER
5
2
100
AcDbSymbolTable
70
2
0
LAYER
5
50
100
AcDbSymbolTableRecord
100
AcDbLayerTableRecord
2
0
70
0
6
CONTINUOUS
0
ENDTAB
0
TABLE
2
STYLE
5
3
100
AcDbSymbolTable
70
1
0
STYLE
5
11
100
AcDbSymbolTableRecord
100
AcDbTextStyleTableRecord
2
STANDARD
70
0
0
ENDTAB
0
TABLE
2
VIEW
5
6
100
AcDbSymbolTable
70
0
0
ENDTAB
0
TABLE
2
UCS
5
7
100
AcDbSymbolTable
70
0
0
ENDTAB
0
TABLE
2
APPID
5
9
100
AcDbSymbolTable
70
2
0
APPID
5
12
100
AcDbSymbolTableRecord
100
AcDbRegAppTableRecord
2
ACAD
70
0
0
ENDTAB
0
TABLE
2
DIMSTYLE
5
A
100
AcDbSymbolTable
70
1
0
ENDTAB
0
TABLE
2
BLOCK_RECORD
5
1
100
AcDbSymbolTable
70
1
0
BLOCK_RECORD
5
1F
100
AcDbSymbolTableRecord
100
AcDbBlockTableRecord
2
*MODEL_SPACE
0
BLOCK_RECORD
5
1B
100
AcDbSymbolTableRecord
100
AcDbBlockTableRecord
2
*PAPER_SPACE
0
ENDTAB
0
ENDSEC
0
SECTION
2
BLOCKS
0
BLOCK
5
20
100
AcDbEntity
100
AcDbBlockBegin
2
*MODEL_SPACE
0
ENDBLK
5
21
100
AcDbEntity
100
AcDbBlockEnd
0
BLOCK
5
1C
100
AcDbEntity
100
AcDbBlockBegin
2
*PAPER_SPACE
0
ENDBLK
5
1D
100
AcDbEntity
100
AcDbBlockEnd
0
ENDSEC
0
SECTION
2
ENTITIES
0
LWPOLYLINE
5
100
100
AcDbEntity
8
0
100
AcDbPolyline
90
4
70
1
43
0.0
10
114.50000000000003
20
60.899999999999999
10
114.50000000000001
20
-60.899999999999999
10
-114.50000000000001
20
-60.899999999999999
10
-114.49999999999996
20
60.899999999999999
0
LWPOLYLINE
5
101
100
AcDbEntity
8
0
100
AcDbPolyline
90
4
70
1
43
0.0
10
-3.5527136788005009e-14
20
-60.899999999999991
10
-114.50000000000001
20
-60.899999999999999
10
-114.50000000000001
20
-40.899999999999999
10
-3.5527136788005009e-14
20
-40.899999999999991
0
LINE
5
102
100
AcDbEntity
8
0
100
AcDbLine
10
0
20
0
30
0
11
-3.5527136788005009e-14
21
-60.899999999999991
31
0
0
LINE
5
103
100
AcDbEntity
8
0
100
AcDbLine
10
-114.50000000000001
20
-50.899999999999999
30
0
11
-3.5527136788005009e-14
21
-50.899999999999991
31
0
0
LWPOLYLINE
5
104
100
AcDbEntity
8
0
100
AcDbPolyline
90
4
70
1
43
0.0
10
-5.3290705182007514e-14
20
-60.899999999999991
10
114.49999999999994
20
-60.900000000000141
10
114.49999999999997
20
-40.900000000000134
10
-1.2212453270876722e-14
20
-40.899999999999977
0
LINE
5
105
100
AcDbEntity
8
0
100
AcDbLine
10
114.49999999999994
20
-50.900000000000134
30
0
11
-2.3869795029440866e-14
21
-50.899999999999991
31
0
0
LINE
5
106
100
AcDbEntity
8
0
100
AcDbLine
10
-114
20
-40.899999999999999
30
0
11
-114
21
-60.899999999999999
31
0
0
LINE
5
107
100
AcDbEntity
8
0
100
AcDbLine
10
113.99999999999997
20
-40.900000000000141
30
0
11
113.99999999999993
21
-60.900000000000141
31
0
0
LINE
5
108
100
AcDbEntity
8
0
100
AcDbLine
10
-99.500000000000014
20
-40.899999999999999
30
0
11
-99.500000000000014
21
-60.899999999999999
31
0
0
LINE
5
109
100
AcDbEntity
8
0
100
AcDbLine
10
99.499999999999972
20
-40.900000000000119
30
0
11
99.499999999999943
21
-60.900000000000119
31
0
0
LINE
5
110
100
AcDbEntity
8
0
100
AcDbLine
10
-1.7763568394002505e-14
20
60.900000000000006
30
0
11
0
21
0
31
0
0
CIRCLE
5
111
100
AcDbEntity
8
0
100
AcDbCircle
10
-79.250000000000043
20
-50.899999999999991
30
0
40
2.1000000000000001
210
0
220
0
230
1
0
CIRCLE
5
112
100
AcDbEntity
8
0
100
AcDbCircle
10
-26.416666666666707
20
-50.899999999999991
30
0
40
2.0999999999999992
210
0
220
0
230
1
0
CIRCLE
5
113
100
AcDbEntity
8
0
100
AcDbCircle
10
79.249999999999972
20
-50.899999999999991
30
0
40
2.1000000000000001
210
0
220
0
230
1
0
CIRCLE
5
114
100
AcDbEntity
8
0
100
AcDbCircle
10
26.416666666666636
20
-50.899999999999991
30
0
40
2.0999999999999992
210
0
220
0
230
1
0
LINE
5
115
100
AcDbEntity
8
0
100
AcDbLine
10
141.04941657443604
20
-91.17390073457986
30
0
11
-141.04941657443612
21
-91.17390073457986
31
0
0
LINE
5
116
100
AcDbEntity
8
0
100
AcDbLine
10
-141.04941657443612
20
-91.17390073457986
30
0
11
-141.04941657443612
21
-10.626099265420113
31
0
0
LINE
5
117
100
AcDbEntity
8
0
100
AcDbLine
10
-141.04941657443612
20
-10.626099265420113
30
0
11
141.04941657443604
21
-10.626099265420113
31
0
0
LINE
5
118
100
AcDbEntity
8
0
100
AcDbLine
10
141.04941657443604
20
-10.626099265420113
30
0
11
141.04941657443604
21
-91.17390073457986
31
0
0
LINE
5
119
100
AcDbEntity
8
0
100
AcDbLine
10
141.04941657443604
20
-91.17390073457986
30
0
11
-141.04941657443612
21
-10.626099265420113
31
0
0
LINE
5
120
100
AcDbEntity
8
0
100
AcDbLine
10
-141.04941657443612
20
-91.17390073457986
30
0
11
141.04941657443604
21
-10.626099265420113
31
0
0
ENDSEC
0
SECTION
2
OBJECTS
0
DICTIONARY
5
C
100
AcDbDictionary
3
ACAD_GROUP
350
D
3
ACAD_MLINESTYLE
350
17
0
DICTIONARY
5
D
100
AcDbDictionary
0
DICTIONARY
5
1A
330
C
100
AcDbDictionary
0
DICTIONARY
5
17
100
AcDbDictionary
0
ENDSEC
0
EOF
