0
SECTION
2
HEADER
9
$INSUNITS
70
4
9
$ACADVER
1
AC1014
9
$HANDSEED
5
FFFF
0
ENDSEC
0
SECTION
2
TABLES
0
TABLE
2
VPORT
5
8
100
AcDbSymbolTable
0
ENDTAB
0
TABLE
2
LTYPE
5
5
100
AcDbSymbolTable
0
LTYPE
5
14
100
AcDbSymbolTableRecord
100
AcDbLinetypeTableRecord
2
BYBLOCK
70
0
0
LTYPE
5
15
100
AcDbSymbolTableRecord
100
AcDbLinetypeTableRecord
2
BYLAYER
70
0
0
ENDTAB
0
TABLE
2
LAYER
5
2
100
AcDbSymbolTable
70
2
0
LAYER
5
50
100
AcDbSymbolTableRecord
100
AcDbLayerTableRecord
2
0
70
0
6
CONTINUOUS
0
ENDTAB
0
TABLE
2
STYLE
5
3
100
AcDbSymbolTable
70
1
0
STYLE
5
11
100
AcDbSymbolTableRecord
100
AcDbTextStyleTableRecord
2
STANDARD
70
0
0
ENDTAB
0
TABLE
2
VIEW
5
6
100
AcDbSymbolTable
70
0
0
ENDTAB
0
TABLE
2
UCS
5
7
100
AcDbSymbolTable
70
0
0
ENDTAB
0
TABLE
2
APPID
5
9
100
AcDbSymbolTable
70
2
0
APPID
5
12
100
AcDbSymbolTableRecord
100
AcDbRegAppTableRecord
2
ACAD
70
0
0
ENDTAB
0
TABLE
2
DIMSTYLE
5
A
100
AcDbSymbolTable
70
1
0
ENDTAB
0
TABLE
2
BLOCK_RECORD
5
1
100
AcDbSymbolTable
70
1
0
BLOCK_RECORD
5
1F
100
AcDbSymbolTableRecord
100
AcDbBlockTableRecord
2
*MODEL_SPACE
0
BLOCK_RECORD
5
1B
100
AcDbSymbolTableRecord
100
AcDbBlockTableRecord
2
*PAPER_SPACE
0
ENDTAB
0
ENDSEC
0
SECTION
2
BLOCKS
0
BLOCK
5
20
100
AcDbEntity
100
AcDbBlockBegin
2
*MODEL_SPACE
0
ENDBLK
5
21
100
AcDbEntity
100
AcDbBlockEnd
0
BLOCK
5
1C
100
AcDbEntity
100
AcDbBlockBegin
2
*PAPER_SPACE
0
ENDBLK
5
1D
100
AcDbEntity
100
AcDbBlockEnd
0
ENDSEC
0
SECTION
2
ENTITIES
0
LINE
5
100
100
AcDbEntity
8
0
100
AcDbLine
10
0
20
0
30
0
11
-3.0814879110195774e-32
21
60
31
0
0
LINE
5
101
100
AcDbEntity
8
0
100
AcDbLine
10
-3.0814879110195774e-32
20
60
30
0
11
-55
21
60
31
0
0
LINE
5
102
100
AcDbEntity
8
0
100
AcDbLine
10
-55
20
60
30
0
11
-55
21
62
31
0
0
SPLINE
5
103
100
AcDbEntity
8
0
100
AcDbSpline
70
4
71
5
72
16
73
10
74
0
42
0.000000001
43
0.0000000001
44
0.0000000001
40
0
40
0
40
0
40
0
40
0
40
0
40
0.20000000000000001
40
0.40000000000000002
40
0.60000000000000009
40
0.80000000000000004
40
1
40
1
40
1
40
1
40
1
40
1
41
1
41
1
41
1
41
1
41
1
41
1
41
1
41
1
41
1
41
1
10
4.8985871965894118e-16
20
68
30
0
10
-1.8904964610153494
20
68.029523201640558
30
0
10
-5.7062791077199932
20
68.043167081790983
30
0
10
-11.534281218103908
20
67.927516211626639
30
0
10
-19.530569736964271
20
67.511241288802822
30
0
10
-30.099974400419729
20
66.506283755112037
30
0
10
-39.313339181458872
20
65.179370121631933
30
0
10
-46.86637311205434
20
63.773018905553045
30
0
10
-52.233453740899101
20
62.625953273737252
30
0
10
-55
20
62
30
0
0
LINE
5
104
100
AcDbEntity
8
0
100
AcDbLine
10
4.8985871965894118e-16
20
68
30
0
11
-3.0814879110195774e-32
21
60
31
0
0
SPLINE
5
105
100
AcDbEntity
8
0
100
AcDbSpline
70
4
71
5
72
16
73
10
74
0
42
0.000000001
43
0.0000000001
44
0.0000000001
40
0
40
0
40
0
40
0
40
0
40
0
40
0.20000000000000001
40
0.40000000000000002
40
0.60000000000000009
40
0.80000000000000004
40
1
40
1
40
1
40
1
40
1
40
1
41
1
41
1
41
1
41
1
41
1
41
1
41
1
41
1
41
1
41
1
10
4.8985871965894118e-16
20
68
30
0
10
1.8904964610153494
20
68.029523201640558
30
0
10
5.706279107720019
20
68.043167081790983
30
0
10
11.534281218104063
20
67.927516211626639
30
0
10
19.530569736964548
20
67.511241288802822
30
0
10
30.099974400420024
20
66.506283755112037
30
0
10
39.313339181458993
20
65.179370121631933
30
0
10
46.866373112054347
20
63.773018905553045
30
0
10
52.23345374089908
20
62.625953273737252
30
0
10
54.999999999999972
20
62
30
0
0
LINE
5
106
100
AcDbEntity
8
0
100
AcDbLine
10
55
20
60
30
0
11
54.999999999999972
21
62
31
0
0
LINE
5
107
100
AcDbEntity
8
0
100
AcDbLine
10
-3.0814879110195774e-32
20
60
30
0
11
55
21
60
31
0
0
SPLINE
5
108
100
AcDbEntity
8
0
100
AcDbSpline
70
0
71
3
72
14
73
10
74
0
42
0.000000001
43
0.0000000001
44
0.0000000001
40
0.00032868440653345158
40
0.00032868440653345158
40
0.00032868440653345158
40
0.00032868440653345158
40
0.41175152567170359
40
0.41175152567170359
40
0.41175152567170359
40
0.92195369347106626
40
0.92195369347106626
40
0.92195369347106626
40
1
40
1
40
1
40
1
10
-2.7829453151662076e-12
20
69.00012130863135
30
0
10
6.5152604611755214
20
69.101347362198752
30
0
10
13.237337768347153
20
68.891850056451389
30
0
10
20.359430042995889
20
68.339869859388656
30
0
10
29.191479587495731
20
67.655363641265922
30
0
10
38.671223534728618
20
66.446521211773387
30
0
10
49.930036046191915
20
64.121223020578043
30
0
10
51.652311622188705
20
63.765519052905816
30
0
10
53.415487088232815
20
63.383785636103553
30
0
10
55.220679917285089
20
62.975346284202196
30
0
0
SPLINE
5
109
100
AcDbEntity
8
0
100
AcDbSpline
70
0
71
3
72
14
73
10
74
0
42
0.000000001
43
0.0000000001
44
0.0000000001
40
0.00032868440665066799
40
0.00032868440665066799
40
0.00032868440665066799
40
0.00032868440665066799
40
0.41175152567140572
40
0.41175152567140572
40
0.41175152567140572
40
0.92195369347058442
40
0.92195369347058442
40
0.92195369347058442
40
1
40
1
40
1
40
1
10
-2.7757830756147683e-12
20
69.000121308631435
30
0
10
-6.515260461174627
20
69.101347362198609
30
0
10
-13.237337768339279
20
68.891850056451517
30
0
10
-20.359430042980165
20
68.33986985938985
30
0
10
-29.19147958747601
20
67.655363641268011
30
0
10
-38.671223534704005
20
66.446521211777082
30
0
10
-49.930036046160012
20
64.121223020584623
30
0
10
-51.652311622166948
20
63.765519052910513
30
0
10
-53.415487088221695
20
63.383785636106076
30
0
10
-55.220679917285118
20
62.975346284202196
30
0
0
LINE
5
110
100
AcDbEntity
8
0
100
AcDbLine
10
-55.220679917285118
20
62.975346284202196
30
0
11
-55
21
62
31
0
0
LINE
5
111
100
AcDbEntity
8
0
100
AcDbLine
10
55.220679917285089
20
62.975346284202196
30
0
11
54.999999999999972
21
62
31
0
0
SPLINE
5
112
100
AcDbEntity
8
0
100
AcDbSpline
70
0
71
3
72
14
73
10
74
0
42
0.000000001
43
0.0000000001
44
0.0000000001
40
0.0031415366720951507
40
0.0031415366720951507
40
0.0031415366720951507
40
0.0031415366720951507
40
0.4022836724127008
40
0.4022836724127008
40
0.4022836724127008
40
0.84438595050454202
40
0.84438595050454202
40
0.84438595050454202
40
1
40
1
40
1
40
1
10
-6.7050046070882274e-11
20
78.001159731922556
30
0
10
6.6139151777039675
20
78.099400116647729
30
0
10
13.389906530419928
20
77.891328825148108
30
0
10
20.544983819615442
20
77.351938641323969
30
0
10
28.470170579482563
20
76.754493251083332
30
0
10
36.908004626111747
20
75.749369832809492
30
0
10
46.558507612292246
20
73.954738937900288
30
0
10
49.955354730631647
20
73.323053025509523
30
0
10
53.502143212433467
20
72.591670957597572
30
0
10
57.206799172851134
20
71.753462842021975
30
0
0
SPLINE
5
113
100
AcDbEntity
8
0
100
AcDbSpline
70
0
71
3
72
14
73
10
74
0
42
0.000000001
43
0.0000000001
44
0.0000000001
40
0.0031415366747881367
40
0.0031415366747881367
40
0.0031415366747881367
40
0.0031415366747881367
40
0.40228367241180812
40
0.40228367241180812
40
0.40228367241180812
40
0.84438595050386689
40
0.84438595050386689
40
0.84438595050386689
40
1
40
1
40
1
40
1
10
-6.6877961502065375e-11
20
78.001159731924545
30
0
10
-6.6139151777806706
20
78.099400116644517
30
0
10
-13.389906530437901
20
77.891328825145308
30
0
10
-20.5449838195672
20
77.351938641327578
30
0
10
-28.470170579436079
20
76.754493251088377
30
0
10
-36.908004626065605
20
75.749369832816171
30
0
10
-46.558507612247851
20
73.954738937908516
30
0
10
-49.955354730600945
20
73.323053025515875
30
0
10
-53.502143212417401
20
72.59167095760121
30
0
10
-57.206799172851163
20
71.753462842021975
30
0
0
LINE
5
114
100
AcDbEntity
8
0
100
AcDbLine
10
-57.206799172851163
20
71.753462842021989
30
0
11
-55.220679917285118
21
62.975346284202196
31
0
0
LINE
5
115
100
AcDbEntity
8
0
100
AcDbLine
10
57.206799172851134
20
71.753462842021989
30
0
11
55.220679917285089
21
62.975346284202196
31
0
0
ENDSEC
0
SECTION
2
OBJECTS
0
DICTIONARY
5
C
100
AcDbDictionary
3
ACAD_GROUP
350
D
3
ACAD_MLINESTYLE
350
17
0
DICTIONARY
5
D
100
AcDbDictionary
0
DICTIONARY
5
1A
330
C
100
AcDbDictionary
0
DICTIONARY
5
17
100
AcDbDictionary
0
ENDSEC
0
EOF
