0
SECTION
2
HEADER
9
$INSUNITS
70
4
9
$ACADVER
1
AC1014
9
$HANDSEED
5
FFFF
0
ENDSEC
0
SECTION
2
TABLES
0
TABLE
2
VPORT
5
8
100
AcDbSymbolTable
0
ENDTAB
0
TABLE
2
LTYPE
5
5
100
AcDbSymbolTable
0
LTYPE
5
14
100
AcDbSymbolTableRecord
100
AcDbLinetypeTableRecord
2
BYBLOCK
70
0
0
LTYPE
5
15
100
AcDbSymbolTableRecord
100
AcDbLinetypeTableRecord
2
BYLAYER
70
0
0
ENDTAB
0
TABLE
2
LAYER
5
2
100
AcDbSymbolTable
70
2
0
LAYER
5
50
100
AcDbSymbolTableRecord
100
AcDbLayerTableRecord
2
0
70
0
6
CONTINUOUS
0
ENDTAB
0
TABLE
2
STYLE
5
3
100
AcDbSymbolTable
70
1
0
STYLE
5
11
100
AcDbSymbolTableRecord
100
AcDbTextStyleTableRecord
2
STANDARD
70
0
0
ENDTAB
0
TABLE
2
VIEW
5
6
100
AcDbSymbolTable
70
0
0
ENDTAB
0
TABLE
2
UCS
5
7
100
AcDbSymbolTable
70
0
0
ENDTAB
0
TABLE
2
APPID
5
9
100
AcDbSymbolTable
70
2
0
APPID
5
12
100
AcDbSymbolTableRecord
100
AcDbRegAppTableRecord
2
ACAD
70
0
0
ENDTAB
0
TABLE
2
DIMSTYLE
5
A
100
AcDbSymbolTable
70
1
0
ENDTAB
0
TABLE
2
BLOCK_RECORD
5
1
100
AcDbSymbolTable
70
1
0
BLOCK_RECORD
5
1F
100
AcDbSymbolTableRecord
100
AcDbBlockTableRecord
2
*MODEL_SPACE
0
BLOCK_RECORD
5
1B
100
AcDbSymbolTableRecord
100
AcDbBlockTableRecord
2
*PAPER_SPACE
0
ENDTAB
0
ENDSEC
0
SECTION
2
BLOCKS
0
BLOCK
5
20
100
AcDbEntity
100
AcDbBlockBegin
2
*MODEL_SPACE
0
ENDBLK
5
21
100
AcDbEntity
100
AcDbBlockEnd
0
BLOCK
5
1C
100
AcDbEntity
100
AcDbBlockBegin
2
*PAPER_SPACE
0
ENDBLK
5
1D
100
AcDbEntity
100
AcDbBlockEnd
0
ENDSEC
0
SECTION
2
ENTITIES
0
LINE
5
100
100
AcDbEntity
8
0
100
AcDbLine
10
-47.5
20
-62
30
0
11
-47.5
21
62
31
0
0
LINE
5
101
100
AcDbEntity
8
0
100
AcDbLine
10
47.5
20
-62
30
0
11
47.5
21
62
31
0
0
LINE
5
102
100
AcDbEntity
8
0
100
AcDbLine
10
-47.5
20
0
30
0
11
0
21
0
31
0
0
LINE
5
103
100
AcDbEntity
8
0
100
AcDbLine
10
0
20
0
30
0
11
47.5
21
0
31
0
0
LINE
5
104
100
AcDbEntity
8
0
100
AcDbLine
10
-23.75
20
0
30
0
11
-23.75
21
2
31
0
0
LINE
5
105
100
AcDbEntity
8
0
100
AcDbLine
10
23.75
20
0
30
0
11
23.75
21
-2
31
0
0
SPLINE
5
106
100
AcDbEntity
8
0
100
AcDbSpline
70
4
71
5
72
31
73
25
74
0
42
0.000000001
43
0.0000000001
44
0.0000000001
40
0
40
0
40
0
40
0
40
0
40
0
40
0.050000000000000003
40
0.10000000000000001
40
0.15000000000000002
40
0.20000000000000001
40
0.25
40
0.29999999999999999
40
0.34999999999999998
40
0.39999999999999997
40
0.44999999999999996
40
0.49999999999999994
40
0.54999999999999993
40
0.59999999999999998
40
0.65000000000000002
40
0.70000000000000007
40
0.75000000000000011
40
0.80000000000000016
40
0.8500000000000002
40
0.90000000000000024
40
0.95000000000000029
40
1
40
1
40
1
40
1
40
1
40
1
41
1
41
1
41
1
41
1
41
1
41
1
41
1
41
1
41
1
41
1
41
1
41
1
41
1
41
1
41
1
41
1
41
1
41
1
41
1
41
1
41
1
41
1
41
1
41
1
41
1
10
-47.5
20
0
30
0
10
-46.550000000006492
20
0.17795879817283172
30
0
10
-44.650000000017691
20
0.51430641291728574
30
0
10
-41.800000000029044
20
0.96011800382701351
30
0
10
-38.000000000033872
20
1.4366336632245296
30
0
10
-33.250000000026944
20
1.8344085406705755
30
0
10
-28.500000000013152
20
2.0351530120534198
30
0
10
-23.749999999998892
20
2.0444779862933911
30
0
10
-18.999999999989164
20
1.8755390205512943
30
0
10
-14.249999999985647
20
1.5520515162430932
30
0
10
-9.4999999999876898
20
1.1058461373824511
30
0
10
-4.7499999999934079
20
0.57464422167485618
30
0
10
-2.9537136625457094e-13
20
-2.9533667178505141e-15
30
0
10
4.7499999999940137
20
-0.57464422167484774
30
0
10
9.4999999999909619
20
-1.1058461373824167
30
0
10
14.249999999991074
20
-1.5520515162430333
30
0
10
18.999999999994269
20
-1.8755390205512403
30
0
10
23.74999999999978
20
-2.0444779862933817
30
0
10
28.500000000006217
20
-2.0351530120534918
30
0
10
33.25000000001161
20
-1.8344085406707444
30
0
10
38.000000000013692
20
-1.4366336632247529
30
0
10
41.80000000001116
20
-0.96011800382720447
30
0
10
44.650000000006656
20
-0.51430641291740198
30
0
10
46.550000000002427
20
-0.17795879817287408
30
0
10
47.5
20
0
30
0
0
SPLINE
5
107
100
AcDbEntity
8
0
100
AcDbSpline
70
4
71
5
72
31
73
25
74
0
42
0.000000001
43
0.0000000001
44
0.0000000001
40
0
40
0
40
0
40
0
40
0
40
0
40
0.050000000000000003
40
0.10000000000000001
40
0.15000000000000002
40
0.20000000000000001
40
0.25
40
0.29999999999999999
40
0.34999999999999998
40
0.39999999999999997
40
0.44999999999999996
40
0.49999999999999994
40
0.54999999999999993
40
0.59999999999999998
40
0.65000000000000002
40
0.70000000000000007
40
0.75000000000000011
40
0.80000000000000016
40
0.8500000000000002
40
0.90000000000000024
40
0.95000000000000029
40
1
40
1
40
1
40
1
40
1
40
1
41
1
41
1
41
1
41
1
41
1
41
1
41
1
41
1
41
1
41
1
41
1
41
1
41
1
41
1
41
1
41
1
41
1
41
1
41
1
41
1
41
1
41
1
41
1
41
1
41
1
10
-47.5
20
1.0000000000000002
30
0
10
-46.607091951227389
20
1.1775597117078316
30
0
10
-44.814980145883787
20
1.5131105571132106
30
0
10
-42.10792526962522
20
1.9577309530379285
30
0
10
-38.460590676536313
20
2.4326684852376772
30
0
10
-33.837781005536733
20
2.8285230414399507
30
0
10
-29.151651629714848
20
3.0275466756232348
30
0
10
-24.404088472336412
20
3.0355743630248231
30
0
10
-19.599510394301237
20
2.866294986813926
30
0
10
-14.745675837474959
20
2.5437563655563582
30
0
10
-9.8528017813949127
20
2.0996515040298283
30
0
10
-4.9329270094104736
20
1.5713616771836214
30
0
10
0.00073931977892174525
20
0.99995537491651532
30
0
10
4.9344060308315534
20
0.42838360770547623
30
0
10
9.8542805604865045
20
-0.10029940662664544
30
0
10
14.747150496520776
20
-0.54478054270509269
30
0
10
19.600972842571402
20
-0.86735486069532719
30
0
10
24.405526307244902
20
-1.0359895007452053
30
0
10
29.153048987797273
20
-1.0263403608344308
30
0
10
33.839120177949944
20
-0.82453485442483987
30
0
10
38.461853014612814
20
-0.42464453780859523
30
0
10
42.109111013393779
20
0.054552063056637581
30
0
10
44.816099963932302
20
0.50294654967476449
30
0
10
46.608164065673677
20
0.84127010054836493
30
0
10
47.501047324338906
20
1.0202803257622064
30
0
0
LINE
5
108
100
AcDbEntity
8
0
100
AcDbLine
10
-47.5
20
1.0000000000000002
30
0
11
-47.5
21
0
31
0
0
LINE
5
109
100
AcDbEntity
8
0
100
AcDbLine
10
47.5
20
0
30
0
11
48.484623556136313
21
0.17468958956238498
31
0
0
LINE
5
110
100
AcDbEntity
8
0
100
AcDbLine
10
47.501047324338906
20
1.0202803257622064
30
0
11
48.484623556136356
21
1.2007735285238434
31
0
0
LINE
5
111
100
AcDbEntity
8
0
100
AcDbLine
10
48.484623556136356
20
1.2007735285238434
30
0
11
48.484623556136313
21
0.17468958956238498
31
0
0
ENDSEC
0
SECTION
2
OBJECTS
0
DICTIONARY
5
C
100
AcDbDictionary
3
ACAD_GROUP
350
D
3
ACAD_MLINESTYLE
350
17
0
DICTIONARY
5
D
100
AcDbDictionary
0
DICTIONARY
5
1A
330
C
100
AcDbDictionary
0
DICTIONARY
5
17
100
AcDbDictionary
0
ENDSEC
0
EOF
