                                                                        S      1
,,7Htest v1,7Htest v1,7Hunknown,7Hunknown,32,38,7,99,15,,1.,2,2HMM,1,   G      1
0.08,15H20201205.181450,0.01,10000.,7Hunknown,7Hunknown,11,0,15H20200102G      2
.161750;                                                                G      3
     186       1                                                00000000D      1
     186             -51       1       0                               0D      2
     514       2                                                00010000D      3
     514                       1       1                               0D      4
     510       3                                                00010000D      5
     510             -51       1       1                               0D      6
     510       4                                                00010000D      7
     510             -51       1       1                               0D      8
     510       5                                                00010000D      9
     510             -51       1       1                               0D     10
     510       6                                                00010000D     11
     510             -51       1       1                               0D     12
     508       7                                                00010000D     13
     508                       1       1                               0D     14
     508       8                                                00010000D     15
     508                       1       1                               0D     16
     508       9                                                00010000D     17
     508                       1       1                               0D     18
     508      10                                                00010000D     19
     508                       1       1                               0D     20
     508      11                                                00010000D     21
     508                       1       1                               0D     22
     508      12                                                00010000D     23
     508                       1       1                               0D     24
     126      13                                                00010000D     25
     126       0              10       0                               0D     26
     126      23                                                00010000D     27
     126       0               2       0                               0D     28
     126      25                                                00010000D     29
     126       0              10       0                               0D     30
     126      35                                                00010000D     31
     126       0              10       0                               0D     32
     126      45                                                00010000D     33
     126       0               2       0                               0D     34
     126      47                                                00010000D     35
     126       0              10       0                               0D     36
     128      57                                                00010000D     37
     128       0     -51      12       0                               0D     38
     128      69                                                00010000D     39
     128       0     -51      12       0                               0D     40
     128      81                                                00010000D     41
     128       0     -51       3       0                               0D     42
     128      84                                                00010000D     43
     128       0     -51       3       0                               0D     44
     502      87                                                00010000D     45
     502                       3       1                               0D     46
     504      90                                                00010001D     47
     504                       2       1                               0D     48
     406      92                                                00000000D     49
     406                       1      15                               0D     50
     314      93                                                00000200D     51
     314                       2       0                               0D     52
186,3,1,0,0,1,49;                                                      1P      1
514,4,5,1,7,1,9,1,11,1;                                                3P      2
510,37,1,1,13;                                                         5P      3
510,39,1,1,15;                                                         7P      4
510,41,2,1,17,19;                                                      9P      5
510,43,2,1,21,23;                                                     11P      6
508,4,0,47,1,0,0,0,47,2,1,0,0,47,3,1,0,0,47,2,0,0;                    13P      7
508,4,0,47,4,0,0,0,47,5,1,0,0,47,6,1,0,0,47,5,0,0;                    15P      8
508,1,0,47,4,1,0;                                                     17P      9
508,1,0,47,1,1,0;                                                     19P     10
508,1,0,47,6,0,0;                                                     21P     11
508,1,0,47,3,0,0;                                                     23P     12
126,8,2,0,1,0,0,-3.14159265358979,-3.14159265358979,                  25P     13
-3.14159265358979,-1.5707963267949,-1.5707963267949,0.,0.,            25P     14
1.5707963267949,1.5707963267949,3.14159265358979,                     25P     15
3.14159265358979,3.14159265358979,1.,0.707106781186548,1.,            25P     16
0.707106781186548,1.,0.707106781186548,1.,0.707106781186548,1.,       25P     17
-10.3,1.26138620312177D-15,20.,-10.3,10.3,20.,                        25P     18
6.30693101560887D-16,10.3,20.,10.3,10.3,20.,10.3,0.,20.,10.3,         25P     19
-10.3,20.,6.30693101560887D-16,-10.3,20.,-10.3,-10.3,20.,-10.3,       25P     20
-1.26138620312177D-15,20.,-3.14159265358979,3.14159265358979,0.,      25P     21
0.,0.;                                                                25P     22
126,1,1,0,0,1,0,-1.94174757281553,-1.94174757281553,0.,0.,1.,1.,      27P     23
-10.3,0.,20.,-10.3,0.,0.,-1.94174757281553,0.,0.,0.,0.;               27P     24
126,8,2,0,1,0,0,-3.14159265358979,-3.14159265358979,                  29P     25
-3.14159265358979,-1.5707963267949,-1.5707963267949,0.,0.,            29P     26
1.5707963267949,1.5707963267949,3.14159265358979,                     29P     27
3.14159265358979,3.14159265358979,1.,0.707106781186548,1.,            29P     28
0.707106781186548,1.,0.707106781186548,1.,0.707106781186548,1.,       29P     29
-10.3,1.26138620312177D-15,0.,-10.3,10.3,0.,                          29P     30
6.30693101560887D-16,10.3,0.,10.3,10.3,0.,10.3,0.,0.,10.3,-10.3,      29P     31
0.,6.30693101560887D-16,-10.3,0.,-10.3,-10.3,0.,-10.3,                29P     32
-1.26138620312177D-15,0.,-3.14159265358979,3.14159265358979,0.,       29P     33
0.,0.;                                                                29P     34
126,8,2,0,1,0,0,-3.14159265358979,-3.14159265358979,                  31P     35
-3.14159265358979,-1.5707963267949,-1.5707963267949,0.,0.,            31P     36
1.5707963267949,1.5707963267949,3.14159265358979,                     31P     37
3.14159265358979,3.14159265358979,1.,0.707106781186548,1.,            31P     38
0.707106781186548,1.,0.707106781186548,1.,0.707106781186548,1.,       31P     39
-12.3,-1.50631556295124D-15,20.,-12.3,-12.3,20.,                      31P     40
7.53157781475622D-16,-12.3,20.,12.3,-12.3,20.,12.3,0.,20.,12.3,       31P     41
12.3,20.,7.53157781475622D-16,12.3,20.,-12.3,12.3,20.,-12.3,          31P     42
1.50631556295124D-15,20.,-3.14159265358979,3.14159265358979,0.,       31P     43
0.,0.;                                                                31P     44
126,1,1,0,0,1,0,-1.6260162601626,-1.6260162601626,0.,0.,1.,1.,        33P     45
-12.3,0.,20.,-12.3,0.,0.,-1.6260162601626,0.,0.,0.,0.;                33P     46
126,8,2,0,1,0,0,-3.14159265358979,-3.14159265358979,                  35P     47
-3.14159265358979,-1.5707963267949,-1.5707963267949,0.,0.,            35P     48
1.5707963267949,1.5707963267949,3.14159265358979,                     35P     49
3.14159265358979,3.14159265358979,1.,0.707106781186548,1.,            35P     50
0.707106781186548,1.,0.707106781186548,1.,0.707106781186548,1.,       35P     51
-12.3,-1.50631556295124D-15,0.,-12.3,-12.3,0.,                        35P     52
7.53157781475622D-16,-12.3,0.,12.3,-12.3,0.,12.3,0.,0.,12.3,          35P     53
12.3,0.,7.53157781475622D-16,12.3,0.,-12.3,12.3,0.,-12.3,             35P     54
1.50631556295124D-15,0.,-3.14159265358979,3.14159265358979,0.,        35P     55
0.,0.;                                                                35P     56
128,1,8,1,2,0,1,0,0,1,0.,0.,1.94174757281553,1.94174757281553,        37P     57
-3.14159265358979,-3.14159265358979,-3.14159265358979,                37P     58
-1.5707963267949,-1.5707963267949,0.,0.,1.5707963267949,              37P     59
1.5707963267949,3.14159265358979,3.14159265358979,                    37P     60
3.14159265358979,1.,1.,0.707106781186548,0.707106781186548,1.,        37P     61
1.,0.707106781186548,0.707106781186548,1.,1.,0.707106781186548,       37P     62
0.707106781186548,1.,1.,0.707106781186548,0.707106781186548,1.,       37P     63
1.,-10.3,0.,0.,-10.3,0.,20.,-10.3,-10.3,0.,-10.3,-10.3,20.,0.,        37P     64
-10.3,0.,0.,-10.3,20.,10.3,-10.3,0.,10.3,-10.3,20.,10.3,0.,0.,        37P     65
10.3,0.,20.,10.3,10.3,0.,10.3,10.3,20.,0.,10.3,0.,0.,10.3,20.,        37P     66
-10.3,10.3,0.,-10.3,10.3,20.,-10.3,0.,0.,-10.3,0.,20.,0.,             37P     67
1.94174757281553,-3.14159265358979,3.14159265358979;                  37P     68
128,1,8,1,2,0,1,0,0,1,0.,0.,1.6260162601626,1.6260162601626,          39P     69
-3.14159265358979,-3.14159265358979,-3.14159265358979,                39P     70
-1.5707963267949,-1.5707963267949,0.,0.,1.5707963267949,              39P     71
1.5707963267949,3.14159265358979,3.14159265358979,                    39P     72
3.14159265358979,1.,1.,0.707106781186548,0.707106781186548,1.,        39P     73
1.,0.707106781186548,0.707106781186548,1.,1.,0.707106781186548,       39P     74
0.707106781186548,1.,1.,0.707106781186548,0.707106781186548,1.,       39P     75
1.,-12.3,0.,20.,-12.3,0.,0.,-12.3,-12.3,20.,-12.3,-12.3,0.,0.,        39P     76
-12.3,20.,0.,-12.3,0.,12.3,-12.3,20.,12.3,-12.3,0.,12.3,0.,20.,       39P     77
12.3,0.,0.,12.3,12.3,20.,12.3,12.3,0.,0.,12.3,20.,0.,12.3,0.,         39P     78
-12.3,12.3,20.,-12.3,12.3,0.,-12.3,0.,20.,-12.3,0.,0.,0.,             39P     79
1.6260162601626,-3.14159265358979,3.14159265358979;                   39P     80
128,1,1,1,1,0,0,1,0,0,-1.231,-1.231,1.231,1.231,-1.231,-1.231,        41P     81
1.231,1.231,1.,1.,1.,1.,-12.31,-12.31,20.,12.31,-12.31,20.,           41P     82
-12.31,12.31,20.,12.31,12.31,20.,-1.231,1.231,-1.231,1.231;           41P     83
128,1,1,1,1,0,0,1,0,0,-1.231,-1.231,1.231,1.231,-1.231,-1.231,        43P     84
1.231,1.231,1.,1.,1.,1.,12.31,-12.31,0.,-12.31,-12.31,0.,12.31,       43P     85
12.31,0.,-12.31,12.31,0.,-1.231,1.231,-1.231,1.231;                   43P     86
502,4,-10.3,-1.26138620312177D-15,20.,-10.3,                          45P     87
-1.26138620312177D-15,0.,-12.3,-1.50631556295124D-15,20.,-12.3,       45P     88
-1.50631556295124D-15,0.;                                             45P     89
504,6,25,45,1,45,1,27,45,1,45,2,29,45,2,45,2,31,45,3,45,3,33,45,      47P     90
3,45,4,35,45,4,45,4;                                                  47P     91
406,1,5HBody1;                                                        49P     92
314,62.7450980392157,62.7450980392157,62.7450980392157,13HSteel       51P     93
- Satin;                                                              51P     94
S      1G      3D     52P     94                                        T      1
