                                                                        S      1
,,13HEntretoise M4,13HEntretoise M4,7Hunknown,7Hunknown,32,38,7,99,15,, G      1
1.,2,2HMM,1,0.08,15H20201211.162418,0.01,10000.,7Hunknown,7Hunknown,11, G      2
0,;                                                                     G      3
     186       1                                                00000000D      1
     186            -235       1       0                               0D      2
     514       2                                                00010000D      3
     514                       2       1                               0D      4
     510       4                                                00010000D      5
     510            -235       1       1                               0D      6
     510       5                                                00010000D      7
     510            -235       1       1                               0D      8
     510       6                                                00010000D      9
     510            -235       1       1                               0D     10
     510       7                                                00010000D     11
     510            -235       1       1                               0D     12
     510       8                                                00010000D     13
     510            -235       1       1                               0D     14
     510       9                                                00010000D     15
     510            -235       1       1                               0D     16
     510      10                                                00010000D     17
     510            -235       1       1                               0D     18
     510      11                                                00010000D     19
     510            -235       1       1                               0D     20
     510      12                                                00010000D     21
     510            -235       1       1                               0D     22
     510      13                                                00010000D     23
     510            -235       1       1                               0D     24
     510      14                                                00010000D     25
     510            -235       1       1                               0D     26
     510      15                                                00010000D     27
     510            -235       1       1                               0D     28
     510      16                                                00010000D     29
     510            -235       1       1                               0D     30
     510      17                                                00010000D     31
     510            -235       1       1                               0D     32
     510      18                                                00010000D     33
     510            -235       1       1                               0D     34
     510      19                                                00010000D     35
     510            -235       1       1                               0D     36
     510      20                                                00010000D     37
     510            -235       1       1                               0D     38
     510      21                                                00010000D     39
     510            -235       1       1                               0D     40
     510      22                                                00010000D     41
     510            -235       1       1                               0D     42
     510      23                                                00010000D     43
     510            -235       1       1                               0D     44
     508      24                                                00010000D     45
     508                       1       1                               0D     46
     508      25                                                00010000D     47
     508                       2       1                               0D     48
     508      27                                                00010000D     49
     508                       1       1                               0D     50
     508      28                                                00010000D     51
     508                       2       1                               0D     52
     508      30                                                00010000D     53
     508                       1       1                               0D     54
     508      31                                                00010000D     55
     508                       1       1                               0D     56
     508      32                                                00010000D     57
     508                       1       1                               0D     58
     508      33                                                00010000D     59
     508                       1       1                               0D     60
     508      34                                                00010000D     61
     508                       1       1                               0D     62
     508      35                                                00010000D     63
     508                       1       1                               0D     64
     508      36                                                00010000D     65
     508                       2       1                               0D     66
     508      38                                                00010000D     67
     508                       1       1                               0D     68
     508      39                                                00010000D     69
     508                       2       1                               0D     70
     508      41                                                00010000D     71
     508                       2       1                               0D     72
     508      43                                                00010000D     73
     508                       1       1                               0D     74
     508      44                                                00010000D     75
     508                       2       1                               0D     76
     508      46                                                00010000D     77
     508                       1       1                               0D     78
     508      47                                                00010000D     79
     508                       1       1                               0D     80
     508      48                                                00010000D     81
     508                       1       1                               0D     82
     508      49                                                00010000D     83
     508                       1       1                               0D     84
     508      50                                                00010000D     85
     508                       1       1                               0D     86
     508      51                                                00010000D     87
     508                       1       1                               0D     88
     508      52                                                00010000D     89
     508                       1       1                               0D     90
     508      53                                                00010000D     91
     508                       1       1                               0D     92
     508      54                                                00010000D     93
     508                       1       1                               0D     94
     126      55                                                00010000D     95
     126       0               3       0                               0D     96
     126      58                                                00010000D     97
     126       0               3       0                               0D     98
     126      61                                                00010000D     99
     126       0               3       0                               0D    100
     126      64                                                00010000D    101
     126       0               3       0                               0D    102
     126      67                                                00010000D    103
     126       0               4       0                               0D    104
     126      71                                                00010000D    105
     126       0               6       0                               0D    106
     126      77                                                00010000D    107
     126       0               3       0                               0D    108
     126      80                                                00010000D    109
     126       0               4       0                               0D    110
     126      84                                                00010000D    111
     126       0               4       0                               0D    112
     126      88                                                00010000D    113
     126       0               3       0                               0D    114
     126      91                                                00010000D    115
     126       0               3       0                               0D    116
     126      94                                                00010000D    117
     126       0               3       0                               0D    118
     126      97                                                00010000D    119
     126       0               4       0                               0D    120
     126     101                                                00010000D    121
     126       0               4       0                               0D    122
     126     105                                                00010000D    123
     126       0               4       0                               0D    124
     126     109                                                00010000D    125
     126       0               6       0                               0D    126
     126     115                                                00010000D    127
     126       0               3       0                               0D    128
     126     118                                                00010000D    129
     126       0               3       0                               0D    130
     126     121                                                00010000D    131
     126       0               2       0                               0D    132
     126     123                                                00010000D    133
     126       0               2       0                               0D    134
     126     125                                                00010000D    135
     126       0               3       0                               0D    136
     126     128                                                00010000D    137
     126       0               3       0                               0D    138
     126     131                                                00010000D    139
     126       0               3       0                               0D    140
     126     134                                                00010000D    141
     126       0               3       0                               0D    142
     126     137                                                00010000D    143
     126       0               3       0                               0D    144
     126     140                                                00010000D    145
     126       0               3       0                               0D    146
     126     143                                                00010000D    147
     126       0               3       0                               0D    148
     126     146                                                00010000D    149
     126       0               3       0                               0D    150
     126     149                                                00010000D    151
     126       0               3       0                               0D    152
     126     152                                                00010000D    153
     126       0               3       0                               0D    154
     126     155                                                00010000D    155
     126       0               3       0                               0D    156
     126     158                                                00010000D    157
     126       0               3       0                               0D    158
     126     161                                                00010000D    159
     126       0               3       0                               0D    160
     126     164                                                00010000D    161
     126       0              11       0                               0D    162
     126     175                                                00010000D    163
     126       0               3       0                               0D    164
     126     178                                                00010000D    165
     126       0               3       0                               0D    166
     126     181                                                00010000D    167
     126       0               3       0                               0D    168
     126     184                                                00010000D    169
     126       0               3       0                               0D    170
     126     187                                                00010000D    171
     126       0               3       0                               0D    172
     126     190                                                00010000D    173
     126       0              11       0                               0D    174
     126     201                                                00010000D    175
     126       0              11       0                               0D    176
     126     212                                                00010000D    177
     126       0               4       0                               0D    178
     126     216                                                00010000D    179
     126       0              11       0                               0D    180
     126     227                                                00010000D    181
     126       0              11       0                               0D    182
     126     238                                                00010000D    183
     126       0               4       0                               0D    184
     126     242                                                00010000D    185
     126       0              11       0                               0D    186
     126     253                                                00010000D    187
     126       0               4       0                               0D    188
     128     257                                                00010000D    189
     128       0    -235       5       0                               0D    190
     128     262                                                00010000D    191
     128       0    -235       7       0                               0D    192
     128     269                                                00010000D    193
     128       0    -235       6       0                               0D    194
     128     275                                                00010000D    195
     128       0    -235       6       0                               0D    196
     128     281                                                00010000D    197
     128       0    -235       6       0                               0D    198
     128     287                                                00010000D    199
     128       0    -235       6       0                               0D    200
     128     293                                                00010000D    201
     128       0    -235       5       0                               0D    202
     128     298                                                00010000D    203
     128       0    -235       5       0                               0D    204
     128     303                                                00010000D    205
     128       0    -235       6       0                               0D    206
     128     309                                                00010000D    207
     128       0    -235       6       0                               0D    208
     128     315                                                00010000D    209
     128       0    -235       6       0                               0D    210
     128     321                                                00010000D    211
     128       0    -235       6       0                               0D    212
     128     327                                                00010000D    213
     128       0    -235       6       0                               0D    214
     128     333                                                00010000D    215
     128       0    -235       6       0                               0D    216
     128     339                                                00010000D    217
     128       0    -235       6       0                               0D    218
     128     345                                                00010000D    219
     128       0    -235      20       0                               0D    220
     128     365                                                00010000D    221
     128       0    -235       4       0                               0D    222
     128     369                                                00010000D    223
     128       0    -235      20       0                               0D    224
     128     389                                                00010000D    225
     128       0    -235      20       0                               0D    226
     128     409                                                00010000D    227
     128       0    -235       4       0                               0D    228
     502     413                                                00010000D    229
     502                      17       1                               0D    230
     504     430                                                00010001D    231
     504                      13       1                               0D    232
     406     443                                                00000000D    233
     406                       1      15                               0D    234
     314     444                                                00000200D    235
     314                       2       0                               0D    236
186,3,1,0,0,1,233;                                                     1P      1
514,20,5,1,7,1,9,1,11,1,13,1,15,1,17,1,19,1,21,1,23,1,25,1,27,1,       3P      2
29,1,31,1,33,1,35,1,37,1,39,1,41,1,43,1;                               3P      3
510,189,1,1,45;                                                        5P      4
510,191,1,1,47;                                                        7P      5
510,193,1,1,49;                                                        9P      6
510,195,1,1,51;                                                       11P      7
510,197,1,1,53;                                                       13P      8
510,199,1,1,55;                                                       15P      9
510,201,1,1,57;                                                       17P     10
510,203,1,1,59;                                                       19P     11
510,205,1,1,61;                                                       21P     12
510,207,1,1,63;                                                       23P     13
510,209,2,1,65,67;                                                    25P     14
510,211,1,1,69;                                                       27P     15
510,213,1,1,71;                                                       29P     16
510,215,1,1,73;                                                       31P     17
510,217,2,1,75,77;                                                    33P     18
510,219,1,1,79;                                                       35P     19
510,221,2,1,81,83;                                                    37P     20
510,223,1,1,85;                                                       39P     21
510,225,2,1,87,89;                                                    41P     22
510,227,2,1,91,93;                                                    43P     23
508,4,0,231,1,0,0,0,231,2,0,0,0,231,3,1,0,0,231,4,1,0;                45P     24
508,6,0,231,5,0,0,0,231,2,1,0,0,231,6,0,0,0,231,7,0,0,0,231,8,0,      47P     25
0,0,231,9,0,0;                                                        47P     26
508,4,0,231,10,0,0,0,231,11,0,0,0,231,12,0,0,0,231,7,1,0;             49P     27
508,6,0,231,13,0,0,0,231,14,0,0,0,231,15,0,0,0,231,11,1,0,0,231,      51P     28
16,0,0,0,231,4,0,0;                                                   51P     29
508,4,0,231,13,1,0,0,231,17,1,0,0,231,18,1,0,0,231,19,0,0;            53P     30
508,4,0,231,5,1,0,0,231,20,0,0,0,231,21,1,0,0,231,22,1,0;             55P     31
508,4,0,231,14,1,0,0,231,19,1,0,0,231,23,1,0,0,231,24,0,0;            57P     32
508,4,0,231,9,1,0,0,231,25,0,0,0,231,26,1,0,0,231,20,1,0;             59P     33
508,4,0,231,15,1,0,0,231,24,1,0,0,231,27,1,0,0,231,28,0,0;            61P     34
508,4,0,231,8,1,0,0,231,29,0,0,0,231,30,1,0,0,231,25,1,0;             63P     35
508,6,0,231,31,0,0,0,231,32,0,0,0,231,21,0,0,0,231,26,0,0,0,231,      65P     36
30,0,0,0,231,33,0,0;                                                  65P     37
508,1,0,231,34,0,0;                                                   67P     38
508,6,0,231,35,1,0,0,231,33,1,0,0,231,29,1,0,0,231,12,1,0,0,231,      69P     39
28,1,0,0,231,36,1,0;                                                  69P     40
508,6,0,231,22,0,0,0,231,32,1,0,0,231,37,1,0,0,231,38,1,0,0,231,      71P     41
17,0,0,0,231,3,0,0;                                                   71P     42
508,4,0,231,37,0,0,0,231,31,1,0,0,231,35,0,0,0,231,39,1,0;            73P     43
508,6,0,231,39,0,0,0,231,36,0,0,0,231,27,0,0,0,231,23,0,0,0,231,      75P     44
18,0,0,0,231,38,0,0;                                                  75P     45
508,1,0,231,40,0,0;                                                   77P     46
508,4,0,231,41,0,0,0,231,42,1,0,0,231,40,1,0,0,231,42,0,0;            79P     47
508,1,0,231,43,1,0;                                                   81P     48
508,1,0,231,44,1,0;                                                   83P     49
508,4,0,231,34,1,0,0,231,45,1,0,0,231,44,0,0,0,231,45,0,0;            85P     50
508,4,0,231,46,0,0,0,231,47,1,0,0,231,43,0,0,0,231,47,0,0;            87P     51
508,4,0,231,10,1,0,0,231,6,1,0,0,231,1,1,0,0,231,16,1,0;              89P     52
508,1,0,231,46,1,0;                                                   91P     53
508,1,0,231,41,1,0;                                                   93P     54
126,1,1,0,0,1,0,-0.4,-0.4,0.4,0.4,1.,1.,4.1569219381653,              95P     55
6.24259561400546,-4.,4.1569219381653,6.24259561400546,4.,-0.4,        95P     56
0.4,0.,0.,0.;                                                         95P     57
126,1,1,0,0,1,0,0.,0.,0.624259561400546,0.624259561400546,1.,1.,      97P     58
4.1569219381653,0.,-4.,4.1569219381653,6.24259561400546,-4.,0.,       97P     59
0.624259561400546,0.,0.,0.;                                           97P     60
126,1,1,0,0,1,0,-0.4,-0.4,0.4,0.4,1.,1.,4.1569219381653,              99P     61
3.19189119579733D-15,-4.,4.1569219381653,3.19189119579733D-15,        99P     62
4.,-0.4,0.4,0.,0.,0.;                                                 99P     63
126,1,1,0,0,1,0,0.,0.,0.624259561400546,0.624259561400546,1.,1.,     101P     64
4.1569219381653,0.,4.,4.1569219381653,6.24259561400546,4.,0.,        101P     65
0.624259561400546,0.,0.,0.;                                          101P     66
126,1,1,0,0,1,0,-2.5603290570166D-16,-2.5603290570166D-16,           103P     67
0.41569219381653,0.41569219381653,1.,1.,4.1569219381653,             103P     68
7.39103335141275D-16,-4.,2.07846096908265,3.6,-4.,                   103P     69
-2.5603290570166D-16,0.41569219381653,0.,0.,0.;                      103P     70
126,2,2,0,0,0,0,0.983327175253124,0.983327175253124,                 105P     71
0.983327175253124,2.15826547833667,2.15826547833667,                 105P     72
2.15826547833667,1.,0.832346081867394,1.,-4.1569219381653,           105P     73
6.24259561400546,-4.,1.11022302462516D-15,9.01067496247899,-4.,      105P     74
4.1569219381653,6.24259561400546,-4.,0.983327175253124,              105P     75
2.15826547833667,0.,0.,0.;                                           105P     76
126,1,1,0,0,1,0,0.,0.,0.624259561400546,0.624259561400546,1.,1.,     107P     77
-4.15692193816529,0.,-4.,-4.15692193816529,6.24259561400546,-4.,     107P     78
0.,0.624259561400546,0.,0.,0.;                                       107P     79
126,1,1,0,0,1,0,-5.43688906898818D-16,-5.43688906898818D-16,         109P     80
0.41569219381653,0.41569219381653,1.,1.,-2.07846096908265,           109P     81
3.60000000000001,-4.,-4.1569219381653,4.9960036108132D-15,-4.,       109P     82
-5.43688906898818D-16,0.41569219381653,0.,0.,0.;                     109P     83
126,1,1,0,0,1,0,0.103923048454133,0.103923048454133,                 111P     84
0.519615242270662,0.519615242270662,1.,1.,2.07846096908265,3.6,      111P     85
-4.,-2.07846096908265,3.60000000000001,-4.,0.103923048454133,        111P     86
0.519615242270662,0.,0.,0.;                                          111P     87
126,1,1,0,0,1,0,-0.4,-0.4,0.4,0.4,1.,1.,-4.15692193816529,           113P     88
6.24259561400546,4.,-4.15692193816529,6.24259561400546,-4.,-0.4,     113P     89
0.4,0.,0.,0.;                                                        113P     90
126,1,1,0,0,1,0,0.,0.,0.624259561400546,0.624259561400546,1.,1.,     115P     91
-4.15692193816529,0.,4.,-4.15692193816529,6.24259561400546,4.,       115P     92
0.,0.624259561400546,0.,0.,0.;                                       115P     93
126,1,1,0,0,1,0,-0.4,-0.4,0.4,0.4,1.,1.,-4.15692193816529,           117P     94
2.15105711021124D-14,-4.,-4.15692193816529,2.15105711021124D-14,     117P     95
4.,-0.4,0.4,0.,0.,0.;                                                117P     96
126,1,1,0,0,1,0,-0.207846096908265,-0.207846096908265,               119P     97
0.207846096908265,0.207846096908265,1.,1.,2.07846096908265,3.6,      119P     98
4.,4.1569219381653,2.77555756156289D-16,4.,-0.207846096908265,       119P     99
0.207846096908265,0.,0.,0.;                                          119P    100
126,1,1,0,0,1,0,-0.103923048454133,-0.103923048454133,               121P    101
0.311769145362397,0.311769145362397,1.,1.,-2.07846096908265,         121P    102
3.60000000000001,4.,2.07846096908265,3.6,4.,-0.103923048454133,      121P    103
0.311769145362397,0.,0.,0.;                                          121P    104
126,1,1,0,0,1,0,-0.207846096908265,-0.207846096908265,               123P    105
0.207846096908265,0.207846096908265,1.,1.,-4.1569219381653,          123P    106
5.27355936696949D-15,4.,-2.07846096908265,3.60000000000001,4.,       123P    107
-0.207846096908265,0.207846096908265,0.,0.,0.;                       123P    108
126,2,2,0,0,0,0,-2.15826547833667,-2.15826547833667,                 125P    109
-2.15826547833667,-0.983327175253124,-0.983327175253124,             125P    110
-0.983327175253124,1.,0.832346081867394,1.,4.1569219381653,          125P    111
6.24259561400546,4.,1.11022302462516D-15,9.01067496247899,4.,        125P    112
-4.1569219381653,6.24259561400546,4.,-2.15826547833667,              125P    113
-0.983327175253124,0.,0.,0.;                                         125P    114
126,1,1,0,0,1,0,0.4,0.4,0.6,0.6,1.,1.,4.1569219381653,               127P    115
3.19189119579733D-15,4.,4.1569219381653,3.19189119579733D-15,6.,     127P    116
0.4,0.6,0.,0.,0.;                                                    127P    117
126,1,1,0,0,1,0,0.,0.,0.41569219381653,0.41569219381653,1.,1.,       129P    118
4.1569219381653,3.19189119579733D-15,6.,2.07846096908265,3.6,6.,     129P    119
0.,0.41569219381653,0.,0.,0.;                                        129P    120
126,1,1,0,0,1,0,0.4,0.4,0.6,0.6,1.,1.,2.07846096908265,3.6,4.,       131P    121
2.07846096908265,3.6,6.,0.4,0.6,0.,0.,0.;                            131P    122
126,1,1,0,0,1,0,-0.6,-0.6,-0.4,-0.4,1.,1.,2.07846096908265,3.6,      133P    123
-6.,2.07846096908265,3.6,-4.,-0.6,-0.4,0.,0.,0.;                     133P    124
126,1,1,0,0,1,0,-0.41569219381653,-0.41569219381653,0.,0.,1.,1.,     135P    125
2.07846096908265,3.6,-6.,4.1569219381653,3.19189119579733D-15,       135P    126
-6.,-0.41569219381653,0.,0.,0.,0.;                                   135P    127
126,1,1,0,0,1,0,-0.6,-0.6,-0.4,-0.4,1.,1.,4.1569219381653,           137P    128
3.19189119579733D-15,-6.,4.1569219381653,3.19189119579733D-15,       137P    129
-4.,-0.6,-0.4,0.,0.,0.;                                              137P    130
126,1,1,0,0,1,0,0.,0.,0.41569219381653,0.41569219381653,1.,1.,       139P    131
2.07846096908265,3.6,6.,-2.07846096908265,3.60000000000001,6.,       139P    132
0.,0.41569219381653,0.,0.,0.;                                        139P    133
126,1,1,0,0,1,0,0.4,0.4,0.6,0.6,1.,1.,-2.07846096908265,             141P    134
3.60000000000001,4.,-2.07846096908265,3.60000000000001,6.,0.4,       141P    135
0.6,0.,0.,0.;                                                        141P    136
126,1,1,0,0,1,0,-0.6,-0.6,-0.4,-0.4,1.,1.,-2.07846096908265,         143P    137
3.60000000000001,-6.,-2.07846096908265,3.60000000000001,-4.,         143P    138
-0.6,-0.4,0.,0.,0.;                                                  143P    139
126,1,1,0,0,1,0,-0.41569219381653,-0.41569219381653,0.,0.,1.,1.,     145P    140
-2.07846096908265,3.60000000000001,-6.,2.07846096908265,3.6,-6.,     145P    141
-0.41569219381653,0.,0.,0.,0.;                                       145P    142
126,1,1,0,0,1,0,0.,0.,0.415692193816529,0.415692193816529,1.,1.,     147P    143
-2.07846096908265,3.60000000000001,6.,-4.15692193816529,             147P    144
2.16493489801906D-14,6.,0.,0.415692193816529,0.,0.,0.;               147P    145
126,1,1,0,0,1,0,0.4,0.4,0.6,0.6,1.,1.,-4.15692193816529,             149P    146
2.15105711021124D-14,4.,-4.15692193816529,2.15105711021124D-14,      149P    147
6.,0.4,0.6,0.,0.,0.;                                                 149P    148
126,1,1,0,0,1,0,-0.6,-0.6,-0.4,-0.4,1.,1.,-4.15692193816529,         151P    149
2.15105711021124D-14,-6.,-4.15692193816529,2.15105711021124D-14,     151P    150
-4.,-0.6,-0.4,0.,0.,0.;                                              151P    151
126,1,1,0,0,1,0,-0.415692193816529,-0.415692193816529,0.,0.,1.,      153P    152
1.,-4.15692193816529,2.16493489801906D-14,-6.,-2.07846096908265,     153P    153
3.60000000000001,-6.,-0.415692193816529,0.,0.,0.,0.;                 153P    154
126,1,1,0,0,1,0,-0.41569219381653,-0.41569219381653,0.,0.,1.,1.,     155P    155
2.07846096908265,-3.59999999999999,-6.,-2.07846096908265,            155P    156
-3.59999999999998,-6.,-0.41569219381653,0.,0.,0.,0.;                 155P    157
126,1,1,0,0,1,0,-0.41569219381653,-0.41569219381653,0.,0.,1.,1.,     157P    158
4.1569219381653,3.33066907387547D-15,-6.,2.07846096908265,           157P    159
-3.59999999999999,-6.,-0.41569219381653,0.,0.,0.,0.;                 157P    160
126,1,1,0,0,1,0,-0.415692193816531,-0.415692193816531,0.,0.,1.,      159P    161
1.,-2.07846096908265,-3.59999999999998,-6.,-4.15692193816529,        159P    162
2.15105711021124D-14,-6.,-0.415692193816531,0.,0.,0.,0.;             159P    163
126,8,2,0,1,0,0,-3.14159265358979,-3.14159265358979,                 161P    164
-3.14159265358979,-1.5707963267949,-1.5707963267949,0.,0.,           161P    165
1.5707963267949,1.5707963267949,3.14159265358979,                    161P    166
3.14159265358979,3.14159265358979,1.,0.707106781186547,1.,           161P    167
0.707106781186547,1.,0.707106781186548,1.,0.707106781186548,1.,      161P    168
2.25,7.90832882410611D-15,-6.,2.25,2.25000000000001,-6.,             161P    169
-5.45432781758627D-16,2.25000000000001,-6.,-2.25,                    161P    170
2.25000000000001,-6.,-2.25,7.63278329429795D-15,-6.,-2.25,           161P    171
-2.24999999999999,-6.,-5.45432781758627D-16,-2.24999999999999,       161P    172
-6.,2.25,-2.24999999999999,-6.,2.25,7.3572377644898D-15,-6.,         161P    173
-3.14159265358979,3.14159265358979,0.,0.,0.;                         161P    174
126,1,1,0,0,1,0,-0.6,-0.6,0.6,0.6,1.,1.,-2.07846096908265,           163P    175
-3.59999999999998,6.,-2.07846096908265,-3.59999999999998,-6.,        163P    176
-0.6,0.6,0.,0.,0.;                                                   163P    177
126,1,1,0,0,1,0,0.,0.,0.415692193816531,0.415692193816531,1.,1.,     165P    178
-4.15692193816529,2.15105711021124D-14,6.,-2.07846096908265,         165P    179
-3.59999999999998,6.,0.,0.415692193816531,0.,0.,0.;                  165P    180
126,1,1,0,0,1,0,-0.6,-0.6,0.6,0.6,1.,1.,2.07846096908265,            167P    181
-3.59999999999999,-6.,2.07846096908265,-3.59999999999999,6.,         167P    182
-0.6,0.6,0.,0.,0.;                                                   167P    183
126,1,1,0,0,1,0,0.,0.,0.41569219381653,0.41569219381653,1.,1.,       169P    184
2.07846096908265,-3.59999999999999,6.,4.1569219381653,               169P    185
3.33066907387547D-15,6.,0.,0.41569219381653,0.,0.,0.;                169P    186
126,1,1,0,0,1,0,0.,0.,0.41569219381653,0.41569219381653,1.,1.,       171P    187
-2.07846096908265,-3.59999999999998,6.,2.07846096908265,             171P    188
-3.59999999999999,6.,0.,0.41569219381653,0.,0.,0.;                   171P    189
126,8,2,0,1,0,0,-3.14159265358979,-3.14159265358979,                 173P    190
-3.14159265358979,-1.5707963267949,-1.5707963267949,0.,0.,           173P    191
1.5707963267949,1.5707963267949,3.14159265358979,                    173P    192
3.14159265358979,3.14159265358979,1.,0.707106781186548,1.,           173P    193
0.707106781186548,1.,0.707106781186547,1.,0.707106781186547,1.,      173P    194
2.25,7.3572377644898D-15,6.,2.25,-2.24999999999999,6.,               173P    195
-5.45432781758627D-16,-2.24999999999999,6.,-2.25,                    173P    196
-2.24999999999999,6.,-2.25,7.63278329429795D-15,6.,-2.25,            173P    197
2.25000000000001,6.,-5.45432781758627D-16,2.25000000000001,6.,       173P    198
2.25,2.25000000000001,6.,2.25,7.90832882410611D-15,6.,               173P    199
-3.14159265358979,3.14159265358979,0.,0.,0.;                         173P    200
126,8,2,0,1,0,0,-3.14159265358979,-3.14159265358979,                 175P    201
-3.14159265358979,-1.5707963267949,-1.5707963267949,0.,0.,           175P    202
1.5707963267949,1.5707963267949,3.14159265358979,                    175P    203
3.14159265358979,3.14159265358979,1.,0.707106781186548,1.,           175P    204
0.707106781186548,1.,0.707106781186547,1.,0.707106781186547,1.,      175P    205
2.25,7.3572377644898D-15,10.,2.25,-2.24999999999999,10.,             175P    206
-5.45432781758627D-16,-2.24999999999999,10.,-2.25,                   175P    207
-2.24999999999999,10.,-2.25,7.63278329429795D-15,10.,-2.25,          175P    208
2.25000000000001,10.,-5.45432781758627D-16,2.25000000000001,10.,     175P    209
2.25,2.25000000000001,10.,2.25,7.90832882410611D-15,10.,             175P    210
-3.14159265358979,3.14159265358979,0.,0.,0.;                         175P    211
126,1,1,0,0,1,0,-4.44444444444444,-4.44444444444444,                 177P    212
-2.66666666666667,-2.66666666666667,1.,1.,2.25,                      177P    213
7.63278329429795D-15,10.,2.25,7.63278329429795D-15,6.,               177P    214
-4.44444444444444,-2.66666666666667,0.,0.,0.;                        177P    215
126,8,2,0,1,0,0,-3.14159265358979,-3.14159265358979,                 179P    216
-3.14159265358979,-1.5707963267949,-1.5707963267949,0.,0.,           179P    217
1.5707963267949,1.5707963267949,3.14159265358979,                    179P    218
3.14159265358979,3.14159265358979,1.,0.707106781186548,1.,           179P    219
0.707106781186548,1.,0.707106781186548,1.,0.707106781186548,1.,      179P    220
7.5,6.71429819493744D-15,-10.,7.5,-7.49999999999999,-10.,            179P    221
-8.66902566534807D-16,-7.49999999999999,-10.,-7.5,                   179P    222
-7.49999999999999,-10.,-7.5,7.63278329429795D-15,-10.,-7.5,          179P    223
7.50000000000001,-10.,-8.66902566534807D-16,7.50000000000001,        179P    224
-10.,7.5,7.50000000000001,-10.,7.5,8.55126839365847D-15,-10.,        179P    225
-3.14159265358979,3.14159265358979,0.,0.,0.;                         179P    226
126,8,2,0,1,0,0,-3.14159265358979,-3.14159265358979,                 181P    227
-3.14159265358979,-1.5707963267949,-1.5707963267949,0.,0.,           181P    228
1.5707963267949,1.5707963267949,3.14159265358979,                    181P    229
3.14159265358979,3.14159265358979,1.,0.707106781186547,1.,           181P    230
0.707106781186547,1.,0.707106781186548,1.,0.707106781186548,1.,      181P    231
2.25,7.90832882410611D-15,-10.,2.25,2.25000000000001,-10.,           181P    232
-5.45432781758627D-16,2.25000000000001,-10.,-2.25,                   181P    233
2.25000000000001,-10.,-2.25,7.63278329429795D-15,-10.,-2.25,         181P    234
-2.24999999999999,-10.,-5.45432781758627D-16,-2.24999999999999,      181P    235
-10.,2.25,-2.24999999999999,-10.,2.25,7.3572377644898D-15,-10.,      181P    236
-3.14159265358979,3.14159265358979,0.,0.,0.;                         181P    237
126,1,1,0,0,1,0,2.66666666666667,2.66666666666667,                   183P    238
4.44444444444444,4.44444444444444,1.,1.,2.25,                        183P    239
7.63278329429795D-15,-6.,2.25,7.63278329429795D-15,-10.,             183P    240
2.66666666666667,4.44444444444444,0.,0.,0.;                          183P    241
126,8,2,0,1,0,0,-3.14159265358979,-3.14159265358979,                 185P    242
-3.14159265358979,-1.5707963267949,-1.5707963267949,0.,0.,           185P    243
1.5707963267949,1.5707963267949,3.14159265358979,                    185P    244
3.14159265358979,3.14159265358979,1.,0.707106781186548,1.,           185P    245
0.707106781186548,1.,0.707106781186548,1.,0.707106781186548,1.,      185P    246
7.5,8.55126839365847D-15,10.,7.5,7.50000000000001,10.,               185P    247
-8.66902566534807D-16,7.50000000000001,10.,-7.5,                     185P    248
7.50000000000001,10.,-7.5,7.63278329429795D-15,10.,-7.5,             185P    249
-7.49999999999999,10.,-8.66902566534807D-16,-7.49999999999999,       185P    250
10.,7.5,-7.49999999999999,10.,7.5,6.71429819493744D-15,10.,          185P    251
-3.14159265358979,3.14159265358979,0.,0.,0.;                         185P    252
126,1,1,0,0,1,0,-1.33333333333333,-1.33333333333333,                 187P    253
1.33333333333333,1.33333333333333,1.,1.,7.5,                         187P    254
7.63278329429795D-15,10.,7.5,7.63278329429795D-15,-10.,              187P    255
-1.33333333333333,1.33333333333333,0.,0.,0.;                         187P    256
128,1,1,1,1,0,0,1,0,0,-0.001,-0.001,0.801,0.801,-0.001,-0.001,       189P    257
0.625259561400546,0.625259561400546,1.,1.,1.,1.,4.1569219381653,     189P    258
-0.01,-4.01,4.1569219381653,-0.01,4.01,4.1569219381653,              189P    259
6.25259561400545,-4.01,4.1569219381653,6.25259561400545,4.01,        189P    260
-0.001,0.801,-0.001,0.625259561400546;                               189P    261
128,1,1,1,1,0,0,1,0,0,-0.00100000000000056,-0.00100000000000056,     191P    262
0.83238438763306,0.83238438763306,-0.001,-0.001,                     191P    263
0.902067496247899,0.902067496247899,1.,1.,1.,1.,                     191P    264
-4.1669219381653,-0.01,-4.,4.1669219381653,-0.01,-4.,                191P    265
-4.1669219381653,9.02067496247899,-4.,4.1669219381653,               191P    266
9.02067496247899,-4.,-0.00100000000000056,0.83238438763306,          191P    267
-0.001,0.902067496247899;                                            191P    268
128,1,1,1,1,0,0,1,0,0,-0.00100000000000006,-0.00100000000000006,     193P    269
0.801,0.801,-0.001,-0.001,0.625259561400546,0.625259561400546,       193P    270
1.,1.,1.,1.,-4.15692193816529,-0.01,4.01,-4.15692193816529,          193P    271
-0.01,-4.01,-4.15692193816529,6.25259561400546,4.01,                 193P    272
-4.15692193816529,6.25259561400546,-4.01,-0.00100000000000006,       193P    273
0.801,-0.001,0.625259561400546;                                      193P    274
128,1,1,1,1,0,0,1,0,0,-0.00100000000000094,-0.00100000000000094,     195P    275
0.83238438763306,0.83238438763306,-0.001,-0.001,                     195P    276
0.902067496247899,0.902067496247899,1.,1.,1.,1.,4.1669219381653,     195P    277
-0.01,4.,-4.1669219381653,-0.01,4.,4.1669219381653,                  195P    278
9.02067496247899,4.,-4.1669219381653,9.02067496247899,4.,            195P    279
-0.00100000000000094,0.83238438763306,-0.001,0.902067496247899;      195P    280
128,1,1,1,1,0,0,1,0,0,-0.00100000000000035,-0.00100000000000035,     197P    281
0.41669219381653,0.41669219381653,0.399,0.399,0.601,0.601,1.,1.,     197P    282
1.,1.,2.07346096908265,3.60866025403784,3.99,4.1619219381653,        197P    283
-0.00866025403784426,3.99,2.07346096908265,3.60866025403784,         197P    284
6.01,4.1619219381653,-0.00866025403784426,6.01,                      197P    285
-0.00100000000000035,0.41669219381653,0.399,0.601;                   197P    286
128,1,1,1,1,0,0,1,0,0,-0.00100000000000028,-0.00100000000000028,     199P    287
0.41669219381653,0.41669219381653,-0.601,-0.601,-0.399,-0.399,       199P    288
1.,1.,1.,1.,2.07346096908265,3.60866025403784,-6.01,                 199P    289
4.1619219381653,-0.0086602540378436,-6.01,2.07346096908265,          199P    290
3.60866025403784,-3.99,4.1619219381653,-0.0086602540378436,          199P    291
-3.99,-0.00100000000000028,0.41669219381653,-0.601,-0.399;           199P    292
128,1,1,1,1,0,0,1,0,0,-0.001,-0.001,0.41669219381653,                201P    293
0.41669219381653,0.399,0.399,0.601,0.601,1.,1.,1.,1.,                201P    294
-2.08846096908265,3.60000000000001,3.99,2.08846096908265,3.6,        201P    295
3.99,-2.08846096908265,3.60000000000001,6.01,2.08846096908265,       201P    296
3.6,6.01,-0.001,0.41669219381653,0.399,0.601;                        201P    297
128,1,1,1,1,0,0,1,0,0,-0.001,-0.001,0.41669219381653,                203P    298
0.41669219381653,-0.601,-0.601,-0.399,-0.399,1.,1.,1.,1.,            203P    299
-2.08846096908265,3.60000000000001,-6.01,2.08846096908265,3.6,       203P    300
-6.01,-2.08846096908265,3.60000000000001,-3.99,2.08846096908265,     203P    301
3.6,-3.99,-0.001,0.41669219381653,-0.601,-0.399;                     203P    302
128,1,1,1,1,0,0,1,0,0,-0.001,-0.001,0.416692193816531,               205P    303
0.416692193816531,0.399,0.399,0.601,0.601,1.,1.,1.,1.,               205P    304
-4.1619219381653,-0.00866025403783888,3.99,-2.07346096908265,        205P    305
3.60866025403785,3.99,-4.1619219381653,-0.00866025403783888,         205P    306
6.01,-2.07346096908265,3.60866025403785,6.01,-0.001,                 205P    307
0.416692193816531,0.399,0.601;                                       205P    308
128,1,1,1,1,0,0,1,0,0,-0.001,-0.001,0.416692193816531,               207P    309
0.416692193816531,-0.601,-0.601,-0.399,-0.399,1.,1.,1.,1.,           207P    310
-4.1619219381653,-0.00866025403783832,-6.01,-2.07346096908265,       207P    311
3.60866025403785,-6.01,-4.1619219381653,-0.00866025403783832,        207P    312
-3.99,-2.07346096908265,3.60866025403785,-3.99,-0.001,               207P    313
0.416692193816531,-0.601,-0.399;                                     207P    314
128,1,1,1,1,0,0,1,0,0,-0.41669219381653,-0.41669219381653,           209P    315
0.41669219381653,0.41669219381653,-0.361,-0.361,0.361,0.361,1.,      209P    316
1.,1.,1.,4.1669219381653,3.61000000000001,-6.,-4.16692193816529,     209P    317
3.61000000000001,-6.,4.1669219381653,-3.60999999999999,-6.,          209P    318
-4.16692193816529,-3.60999999999999,-6.,-0.41669219381653,           209P    319
0.41669219381653,-0.361,0.361;                                       209P    320
128,1,1,1,1,0,0,1,0,0,-0.001,-0.001,0.41669219381653,                211P    321
0.41669219381653,-0.601,-0.601,0.601,0.601,1.,1.,1.,1.,              211P    322
-2.07346096908265,-3.60866025403783,-6.01,-4.16192193816529,         211P    323
0.00866025403786591,-6.01,-2.07346096908265,-3.60866025403783,       211P    324
6.01,-4.16192193816529,0.00866025403786591,6.01,-0.001,              211P    325
0.41669219381653,-0.601,0.601;                                       211P    326
128,1,1,1,1,0,0,1,0,0,-0.001,-0.001,0.41669219381653,                213P    327
0.41669219381653,-0.601,-0.601,0.601,0.601,1.,1.,1.,1.,              213P    328
4.1619219381653,0.00866025403784776,-6.01,2.07346096908265,          213P    329
-3.60866025403783,-6.01,4.1619219381653,0.00866025403784776,         213P    330
6.01,2.07346096908265,-3.60866025403783,6.01,-0.001,                 213P    331
0.41669219381653,-0.601,0.601;                                       213P    332
128,1,1,1,1,0,0,1,0,0,-0.001,-0.001,0.41669219381653,                215P    333
0.41669219381653,-0.601,-0.601,0.601,0.601,1.,1.,1.,1.,              215P    334
2.08846096908265,-3.59999999999999,-6.01,-2.08846096908265,          215P    335
-3.59999999999998,-6.01,2.08846096908265,-3.59999999999999,6.01,     215P    336
-2.08846096908265,-3.59999999999998,6.01,-0.001,                     215P    337
0.41669219381653,-0.601,0.601;                                       215P    338
128,1,1,1,1,0,0,1,0,0,-0.41669219381653,-0.41669219381653,           217P    339
0.41669219381653,0.41669219381653,-0.361,-0.361,0.361,0.361,1.,      217P    340
1.,1.,1.,-4.16692193816529,3.61000000000001,6.,4.1669219381653,      217P    341
3.61000000000001,6.,-4.16692193816529,-3.60999999999999,6.,          217P    342
4.1669219381653,-3.60999999999999,6.,-0.41669219381653,              217P    343
0.41669219381653,-0.361,0.361;                                       217P    344
128,1,8,1,2,0,1,0,0,1,2.66666666666667,2.66666666666667,             219P    345
4.44444444444444,4.44444444444444,-3.14159265358979,                 219P    346
-3.14159265358979,-3.14159265358979,-1.5707963267949,                219P    347
-1.5707963267949,0.,0.,1.5707963267949,1.5707963267949,              219P    348
3.14159265358979,3.14159265358979,3.14159265358979,1.,1.,            219P    349
0.707106781186548,0.707106781186548,1.,1.,0.707106781186548,         219P    350
0.707106781186548,1.,1.,0.707106781186548,0.707106781186548,1.,      219P    351
1.,0.707106781186548,0.707106781186548,1.,1.,2.25,                   219P    352
7.63278329429795D-15,6.,2.25,7.63278329429795D-15,10.,2.25,          219P    353
2.25000000000001,6.,2.25,2.25000000000001,10.,                       219P    354
-4.0766001685455D-16,2.25000000000001,6.,-4.0766001685455D-16,       219P    355
2.25000000000001,10.,-2.25,2.25000000000001,6.,-2.25,                219P    356
2.25000000000001,10.,-2.25,7.63278329429795D-15,6.,-2.25,            219P    357
7.63278329429795D-15,10.,-2.25,-2.24999999999999,6.,-2.25,           219P    358
-2.24999999999999,10.,-4.0766001685455D-16,-2.24999999999999,6.,     219P    359
-4.0766001685455D-16,-2.24999999999999,10.,2.25,                     219P    360
-2.24999999999999,6.,2.25,-2.24999999999999,10.,2.25,                219P    361
7.63278329429795D-15,6.,2.25,7.63278329429795D-15,10.,               219P    362
2.66666666666667,4.44444444444444,-3.14159265358979,                 219P    363
3.14159265358979;                                                    219P    364
128,1,1,1,1,0,0,1,0,0,-0.751,-0.751,0.751,0.751,-0.751,-0.751,       221P    365
0.751,0.751,1.,1.,1.,1.,-7.51,7.51000000000001,-10.,7.51,            221P    366
7.51000000000001,-10.,-7.51,-7.50999999999999,-10.,7.51,             221P    367
-7.50999999999999,-10.,-0.751,0.751,-0.751,0.751;                    221P    368
128,1,8,1,2,0,1,0,0,1,-4.44444444444444,-4.44444444444444,           223P    369
-2.66666666666667,-2.66666666666667,-3.14159265358979,               223P    370
-3.14159265358979,-3.14159265358979,-1.5707963267949,                223P    371
-1.5707963267949,0.,0.,1.5707963267949,1.5707963267949,              223P    372
3.14159265358979,3.14159265358979,3.14159265358979,1.,1.,            223P    373
0.707106781186548,0.707106781186548,1.,1.,0.707106781186548,         223P    374
0.707106781186548,1.,1.,0.707106781186548,0.707106781186548,1.,      223P    375
1.,0.707106781186548,0.707106781186548,1.,1.,2.25,                   223P    376
7.63278329429795D-15,-10.,2.25,7.63278329429795D-15,-6.,2.25,        223P    377
2.25000000000001,-10.,2.25,2.25000000000001,-6.,                     223P    378
-4.0766001685455D-16,2.25000000000001,-10.,-4.0766001685455D-16,     223P    379
2.25000000000001,-6.,-2.25,2.25000000000001,-10.,-2.25,              223P    380
2.25000000000001,-6.,-2.25,7.63278329429795D-15,-10.,-2.25,          223P    381
7.63278329429795D-15,-6.,-2.25,-2.24999999999999,-10.,-2.25,         223P    382
-2.24999999999999,-6.,-4.0766001685455D-16,-2.24999999999999,        223P    383
-10.,-4.0766001685455D-16,-2.24999999999999,-6.,2.25,                223P    384
-2.24999999999999,-10.,2.25,-2.24999999999999,-6.,2.25,              223P    385
7.63278329429795D-15,-10.,2.25,7.63278329429795D-15,-6.,             223P    386
-4.44444444444444,-2.66666666666667,-3.14159265358979,               223P    387
3.14159265358979;                                                    223P    388
128,1,8,1,2,0,1,0,0,1,-1.33333333333333,-1.33333333333333,           225P    389
1.33333333333333,1.33333333333333,-3.14159265358979,                 225P    390
-3.14159265358979,-3.14159265358979,-1.5707963267949,                225P    391
-1.5707963267949,0.,0.,1.5707963267949,1.5707963267949,              225P    392
3.14159265358979,3.14159265358979,3.14159265358979,1.,1.,            225P    393
0.707106781186548,0.707106781186548,1.,1.,0.707106781186548,         225P    394
0.707106781186548,1.,1.,0.707106781186548,0.707106781186548,1.,      225P    395
1.,0.707106781186548,0.707106781186548,1.,1.,7.5,                    225P    396
7.63278329429795D-15,10.,7.5,7.63278329429795D-15,-10.,7.5,          225P    397
7.50000000000001,10.,7.5,7.50000000000001,-10.,                      225P    398
-4.0766001685455D-16,7.50000000000001,10.,-4.0766001685455D-16,      225P    399
7.50000000000001,-10.,-7.5,7.50000000000001,10.,-7.5,                225P    400
7.50000000000001,-10.,-7.5,7.63278329429795D-15,10.,-7.5,            225P    401
7.63278329429795D-15,-10.,-7.5,-7.49999999999999,10.,-7.5,           225P    402
-7.49999999999999,-10.,-4.0766001685455D-16,-7.49999999999999,       225P    403
10.,-4.0766001685455D-16,-7.49999999999999,-10.,7.5,                 225P    404
-7.49999999999999,10.,7.5,-7.49999999999999,-10.,7.5,                225P    405
7.63278329429795D-15,10.,7.5,7.63278329429795D-15,-10.,              225P    406
-1.33333333333333,1.33333333333333,-3.14159265358979,                225P    407
3.14159265358979;                                                    225P    408
128,1,1,1,1,0,0,1,0,0,-0.751,-0.751,0.751,0.751,-0.751,-0.751,       227P    409
0.751,0.751,1.,1.,1.,1.,7.51,7.51000000000001,10.,-7.51,             227P    410
7.51000000000001,10.,7.51,-7.50999999999999,10.,-7.51,               227P    411
-7.50999999999999,10.,-0.751,0.751,-0.751,0.751;                     227P    412
502,30,4.1569219381653,6.24259561400546,-4.,4.1569219381653,         229P    413
6.24259561400546,4.,4.1569219381653,0.,-4.,4.1569219381653,0.,       229P    414
4.,2.07846096908265,3.6,-4.,-4.15692193816529,6.24259561400546,      229P    415
-4.,-4.15692193816529,0.,-4.,-2.07846096908265,3.60000000000001,     229P    416
-4.,-4.15692193816529,6.24259561400546,4.,-4.15692193816529,0.,      229P    417
4.,2.07846096908265,3.6,4.,-2.07846096908265,3.60000000000001,       229P    418
4.,4.1569219381653,3.19189119579733D-15,6.,2.07846096908265,3.6,     229P    419
6.,2.07846096908265,3.6,-6.,4.1569219381653,                         229P    420
3.19189119579733D-15,-6.,-2.07846096908265,3.60000000000001,6.,      229P    421
-2.07846096908265,3.60000000000001,-6.,-4.15692193816529,            229P    422
2.15105711021124D-14,6.,-4.15692193816529,2.15105711021124D-14,      229P    423
-6.,2.07846096908265,-3.59999999999999,-6.,-2.07846096908265,        229P    424
-3.59999999999998,-6.,2.25,7.90832882410611D-15,-6.,                 229P    425
-2.07846096908265,-3.59999999999998,6.,2.07846096908265,             229P    426
-3.59999999999999,6.,2.25,7.90832882410611D-15,6.,2.25,              229P    427
7.90832882410611D-15,10.,7.5,8.55126839365847D-15,-10.,2.25,         229P    428
7.90832882410611D-15,-10.,7.5,8.55126839365847D-15,10.;              229P    429
504,47,95,229,1,229,2,97,229,3,229,1,99,229,3,229,4,101,229,4,       231P    430
229,2,103,229,3,229,5,105,229,6,229,1,107,229,7,229,6,109,229,8,     231P    431
229,7,111,229,5,229,8,113,229,9,229,6,115,229,10,229,9,117,229,      231P    432
7,229,10,119,229,11,229,4,121,229,12,229,11,123,229,10,229,12,       231P    433
125,229,2,229,9,127,229,4,229,13,129,229,13,229,14,131,229,11,       231P    434
229,14,133,229,15,229,5,135,229,15,229,16,137,229,16,229,3,139,      231P    435
229,14,229,17,141,229,12,229,17,143,229,18,229,8,145,229,18,229,     231P    436
15,147,229,17,229,19,149,229,10,229,19,151,229,20,229,7,153,229,     231P    437
20,229,18,155,229,21,229,22,157,229,16,229,21,159,229,22,229,20,     231P    438
161,229,23,229,23,163,229,24,229,22,165,229,19,229,24,167,229,       231P    439
21,229,25,169,229,25,229,13,171,229,24,229,25,173,229,26,229,26,     231P    440
175,229,27,229,27,177,229,27,229,26,179,229,28,229,28,181,229,       231P    441
29,229,29,183,229,23,229,29,185,229,30,229,30,187,229,30,229,28;     231P    442
406,1,5HBody2;                                                       233P    443
314,62.7450980392157,62.7450980392157,62.7450980392157,13HSteel      235P    444
- Satin;                                                             235P    445
S      1G      3D    236P    445                                        T      1
