                                                                        S      1
,,10HTigeFilte4,10HTigeFilte4,7Hunknown,7Hunknown,32,38,7,99,15,,1.,2,2HG      1
MM,1,0.08,15H20201211.162418,0.01,10000.,7Hunknown,7Hunknown,11,0,;     G      2
     186       1                                                00000000D      1
     186             -35       1       0                               0D      2
     514       2                                                00010000D      3
     514                       1       1                               0D      4
     510       3                                                00010000D      5
     510             -35       1       1                               0D      6
     510       4                                                00010000D      7
     510             -35       1       1                               0D      8
     510       5                                                00010000D      9
     510             -35       1       1                               0D     10
     508       6                                                00010000D     11
     508                       1       1                               0D     12
     508       7                                                00010000D     13
     508                       1       1                               0D     14
     508       8                                                00010000D     15
     508                       1       1                               0D     16
     126       9                                                00010000D     17
     126       0               9       0                               0D     18
     126      18                                                00010000D     19
     126       0               2       0                               0D     20
     126      20                                                00010000D     21
     126       0               9       0                               0D     22
     128      29                                                00010000D     23
     128       0     -35      11       0                               0D     24
     128      40                                                00010000D     25
     128       0     -35       3       0                               0D     26
     128      43                                                00010000D     27
     128       0     -35       3       0                               0D     28
     502      46                                                00010000D     29
     502                       2       1                               0D     30
     504      48                                                00010001D     31
     504                       1       1                               0D     32
     406      49                                                00000000D     33
     406                       1      15                               0D     34
     314      50                                                00000200D     35
     314                       2       0                               0D     36
     314      52                                                00000200D     37
     314                       2       0                               0D     38
186,3,1,0,0,1,33;                                                      1P      1
514,3,5,1,7,1,9,1;                                                     3P      2
510,23,1,1,11;                                                         5P      3
510,25,1,1,13;                                                         7P      4
510,27,1,1,15;                                                         9P      5
508,4,0,31,1,0,0,0,31,2,1,0,0,31,3,1,0,0,31,2,0,0;                    11P      6
508,1,0,31,1,1,0;                                                     13P      7
508,1,0,31,3,0,0;                                                     15P      8
126,8,2,0,1,0,0,-3.14159265358979,-3.14159265358979,                  17P      9
-3.14159265358979,-1.5707963267949,-1.5707963267949,0.,0.,            17P     10
1.5707963267949,1.5707963267949,3.14159265358979,                     17P     11
3.14159265358979,3.14159265358979,1.,0.707106781186542,1.,            17P     12
0.707106781186542,1.,0.707106781186542,1.,0.707106781186542,1.,       17P     13
-57.,-2.44929359829471D-16,90.,-57.,-2.,90.,-55.,-2.,90.,-53.,        17P     14
-2.,90.,-53.,0.,90.,-53.,2.,90.,-55.,2.,90.,-57.,2.,90.,-57.,         17P     15
2.44929359829471D-16,90.,-3.14159265358979,3.14159265358979,0.,       17P     16
0.,0.;                                                                17P     17
126,1,1,0,0,1,0,-45.,-45.,0.,0.,1.,1.,-57.,0.,90.,-57.,0.,0.,         19P     18
-45.,0.,0.,0.,0.;                                                     19P     19
126,8,2,0,1,0,0,-3.14159265358979,-3.14159265358979,                  21P     20
-3.14159265358979,-1.5707963267949,-1.5707963267949,0.,0.,            21P     21
1.5707963267949,1.5707963267949,3.14159265358979,                     21P     22
3.14159265358979,3.14159265358979,1.,0.707106781186542,1.,            21P     23
0.707106781186542,1.,0.707106781186542,1.,0.707106781186542,1.,       21P     24
-57.,-2.44929359829471D-16,0.,-57.,-2.,0.,-55.,-2.,0.,-53.,-2.,       21P     25
0.,-53.,0.,0.,-53.,2.,0.,-55.,2.,0.,-57.,2.,0.,-57.,                  21P     26
2.44929359829471D-16,0.,-3.14159265358979,3.14159265358979,0.,        21P     27
0.,0.;                                                                21P     28
128,1,8,1,2,0,1,0,0,1,0.,0.,45.,45.,-3.14159265358979,                23P     29
-3.14159265358979,-3.14159265358979,-1.5707963267949,                 23P     30
-1.5707963267949,0.,0.,1.5707963267949,1.5707963267949,               23P     31
3.14159265358979,3.14159265358979,3.14159265358979,1.,1.,             23P     32
0.707106781186548,0.707106781186548,1.,1.,0.707106781186548,          23P     33
0.707106781186548,1.,1.,0.707106781186548,0.707106781186548,1.,       23P     34
1.,0.707106781186548,0.707106781186548,1.,1.,-57.,0.,90.,-57.,        23P     35
0.,0.,-57.,-2.,90.,-57.,-2.,0.,-55.,-2.,90.,-55.,-2.,0.,-53.,         23P     36
-2.,90.,-53.,-2.,0.,-53.,0.,90.,-53.,0.,0.,-53.,2.,90.,-53.,2.,       23P     37
0.,-55.,2.,90.,-55.,2.,0.,-57.,2.,90.,-57.,2.,0.,-57.,0.,90.,         23P     38
-57.,0.,0.,0.,45.,-3.14159265358979,3.14159265358979;                 23P     39
128,1,1,1,1,0,0,1,0,0,-5.701,-5.701,-5.299,-5.299,-0.201,-0.201,      25P     40
0.201,0.201,1.,1.,1.,1.,-57.01,-2.01,90.,-52.99,-2.01,90.,            25P     41
-57.01,2.01,90.,-52.99,2.01,90.,-5.701,-5.299,-0.201,0.201;           25P     42
128,1,1,1,1,0,0,1,0,0,-5.701,-5.701,-5.299,-5.299,-0.201,-0.201,      27P     43
0.201,0.201,1.,1.,1.,1.,-52.99,-2.01,0.,-57.01,-2.01,0.,-52.99,       27P     44
2.01,0.,-57.01,2.01,0.,-5.701,-5.299,-0.201,0.201;                    27P     45
502,2,-57.,-2.44929359829471D-16,90.,-57.,-2.44929359829471D-16,      29P     46
0.;                                                                   29P     47
504,3,17,29,1,29,1,19,29,1,29,2,21,29,2,29,2;                         31P     48
406,1,5HBody1;                                                        33P     49
314,95.6862745098039,89.8039215686275,65.4901960784314,15HGold -      35P     50
 Polished;                                                            35P     51
314,62.7450980392157,62.7450980392157,62.7450980392157,13HSteel       37P     52
- Satin;                                                              37P     53
S      1G      2D     38P     53                                        T      1
