                                                                        S      1
,,28HAluminium Profiles 20x20 v12,28HAluminium Profiles 20x20 v12,7HunknG      1
own,7Hunknown,32,38,7,99,15,,1.,2,2HMM,1,0.08,15H20201205.181515,0.01,  G      2
10000.,7Hunknown,7Hunknown,11,0,15H20200615.123731;                     G      3
     408       1                                      19        00000001D      1
     408       0               1       0                               0D      2
     408       2                                      21        00000001D      3
     408       0               1       0                               0D      4
     408       3                                      23        00000001D      5
     408       0               1       0                               0D      6
     408       4                                      25        00000001D      7
     408       0               1       0                               0D      8
     408       5                                      27        00000001D      9
     408       0               1       0                               0D     10
     408       6                                      29        00000001D     11
     408       0               1       0                               0D     12
     408       7                                      31        00000001D     13
     408       0               1       0                               0D     14
     408       8                                      33        00000001D     15
     408       0               1       0                               0D     16
     408       9                                      35        00000001D     17
     408       0               1       0                               0D     18
     124      10                                                00000000D     19
     124                       4       0                               0D     20
     124      14                                                00000000D     21
     124                       4       0                               0D     22
     124      18                                                00000000D     23
     124                       4       0                               0D     24
     124      22                                                00000000D     25
     124                       4       0                               0D     26
     124      26                                                00000000D     27
     124                       4       0                               0D     28
     124      30                                                00000000D     29
     124                       4       0                               0D     30
     124      34                                                00000000D     31
     124                       4       0                               0D     32
     124      38                                                00000000D     33
     124                       4       0                               0D     34
     124      42                                                00000000D     35
     124                       4       0                               0D     36
     308      46                                                00010200D     37
     308       0               1       0                               0D     38
     308      47                                                00010200D     39
     308       0               1       0                               0D     40
     308      48                                                00010200D     41
     308       0               1       0                               0D     42
     186      49                                                00010000D     43
     186            -287       1       0                               0D     44
     186      50                                                00010000D     45
     186            -287       1       0                               0D     46
     186      51                                                00010000D     47
     186            -287       1       0                               0D     48
     514      52                                                00010000D     49
     514                       1       1                               0D     50
     514      53                                                00010000D     51
     514                       1       1                               0D     52
     514      54                                                00010000D     53
     514                       1       1                               0D     54
     510      55                                                00010000D     55
     510            -287       1       1                               0D     56
     510      56                                                00010000D     57
     510            -287       1       1                               0D     58
     510      57                                                00010000D     59
     510            -287       1       1                               0D     60
     510      58                                                00010000D     61
     510            -287       1       1                               0D     62
     510      59                                                00010000D     63
     510            -287       1       1                               0D     64
     510      60                                                00010000D     65
     510            -287       1       1                               0D     66
     510      61                                                00010000D     67
     510            -287       1       1                               0D     68
     510      62                                                00010000D     69
     510            -287       1       1                               0D     70
     510      63                                                00010000D     71
     510            -287       1       1                               0D     72
     510      64                                                00010000D     73
     510            -287       1       1                               0D     74
     510      65                                                00010000D     75
     510            -287       1       1                               0D     76
     510      66                                                00010000D     77
     510            -287       1       1                               0D     78
     510      67                                                00010000D     79
     510            -287       1       1                               0D     80
     510      68                                                00010000D     81
     510            -287       1       1                               0D     82
     510      69                                                00010000D     83
     510            -287       1       1                               0D     84
     510      70                                                00010000D     85
     510            -287       1       1                               0D     86
     510      71                                                00010000D     87
     510            -287       1       1                               0D     88
     510      72                                                00010000D     89
     510            -287       1       1                               0D     90
     510      73                                                00010000D     91
     510            -287       1       1                               0D     92
     508      74                                                00010000D     93
     508                       1       1                               0D     94
     508      75                                                00010000D     95
     508                       1       1                               0D     96
     508      76                                                00010000D     97
     508                       1       1                               0D     98
     508      77                                                00010000D     99
     508                       1       1                               0D    100
     508      78                                                00010000D    101
     508                       1       1                               0D    102
     508      79                                                00010000D    103
     508                       1       1                               0D    104
     508      80                                                00010000D    105
     508                       1       1                               0D    106
     508      81                                                00010000D    107
     508                       1       1                               0D    108
     508      82                                                00010000D    109
     508                       1       1                               0D    110
     508      83                                                00010000D    111
     508                       1       1                               0D    112
     508      84                                                00010000D    113
     508                       1       1                               0D    114
     508      85                                                00010000D    115
     508                       1       1                               0D    116
     508      86                                                00010000D    117
     508                       1       1                               0D    118
     508      87                                                00010000D    119
     508                       1       1                               0D    120
     508      88                                                00010000D    121
     508                       1       1                               0D    122
     508      89                                                00010000D    123
     508                       1       1                               0D    124
     508      90                                                00010000D    125
     508                       1       1                               0D    126
     508      91                                                00010000D    127
     508                       1       1                               0D    128
     508      92                                                00010000D    129
     508                       1       1                               0D    130
     508      93                                                00010000D    131
     508                       1       1                               0D    132
     508      94                                                00010000D    133
     508                       1       1                               0D    134
     126      95                                                00010000D    135
     126       0               2       0                               0D    136
     126      97                                                00010000D    137
     126       0               2       0                               0D    138
     126      99                                                00010000D    139
     126       0               2       0                               0D    140
     126     101                                                00010000D    141
     126       0               2       0                               0D    142
     126     103                                                00010000D    143
     126       0               2       0                               0D    144
     126     105                                                00010000D    145
     126       0               2       0                               0D    146
     126     107                                                00010000D    147
     126       0               2       0                               0D    148
     126     109                                                00010000D    149
     126       0               2       0                               0D    150
     126     111                                                00010000D    151
     126       0               2       0                               0D    152
     126     113                                                00010000D    153
     126       0               2       0                               0D    154
     126     115                                                00010000D    155
     126       0               2       0                               0D    156
     126     117                                                00010000D    157
     126       0               2       0                               0D    158
     126     119                                                00010000D    159
     126       0               2       0                               0D    160
     126     121                                                00010000D    161
     126       0               2       0                               0D    162
     126     123                                                00010000D    163
     126       0               2       0                               0D    164
     126     125                                                00010000D    165
     126       0               2       0                               0D    166
     126     127                                                00010000D    167
     126       0               2       0                               0D    168
     126     129                                                00010000D    169
     126       0               2       0                               0D    170
     126     131                                                00010000D    171
     126       0               2       0                               0D    172
     126     133                                                00010000D    173
     126       0               2       0                               0D    174
     126     135                                                00010000D    175
     126       0               2       0                               0D    176
     126     137                                                00010000D    177
     126       0               2       0                               0D    178
     126     139                                                00010000D    179
     126       0               2       0                               0D    180
     126     141                                                00010000D    181
     126       0               2       0                               0D    182
     126     143                                                00010000D    183
     126       0               8       0                               0D    184
     126     151                                                00010000D    185
     126       0               3       0                               0D    186
     126     154                                                00010000D    187
     126       0               8       0                               0D    188
     126     162                                                00010000D    189
     126       0               2       0                               0D    190
     126     164                                                00010000D    191
     126       0               2       0                               0D    192
     126     166                                                00010000D    193
     126       0               2       0                               0D    194
     126     168                                                00010000D    195
     126       0               2       0                               0D    196
     126     170                                                00010000D    197
     126       0               2       0                               0D    198
     126     172                                                00010000D    199
     126       0               2       0                               0D    200
     126     174                                                00010000D    201
     126       0               2       0                               0D    202
     126     176                                                00010000D    203
     126       0               2       0                               0D    204
     126     178                                                00010000D    205
     126       0               2       0                               0D    206
     126     180                                                00010000D    207
     126       0               2       0                               0D    208
     126     182                                                00010000D    209
     126       0               2       0                               0D    210
     126     184                                                00010000D    211
     126       0               2       0                               0D    212
     128     186                                                00010000D    213
     128       0    -287       3       0                               0D    214
     128     189                                                00010000D    215
     128       0    -287       3       0                               0D    216
     128     192                                                00010000D    217
     128       0    -287       3       0                               0D    218
     128     195                                                00010000D    219
     128       0    -287       3       0                               0D    220
     128     198                                                00010000D    221
     128       0    -287       3       0                               0D    222
     128     201                                                00010000D    223
     128       0    -287       3       0                               0D    224
     128     204                                                00010000D    225
     128       0    -287       3       0                               0D    226
     128     207                                                00010000D    227
     128       0    -287       3       0                               0D    228
     128     210                                                00010000D    229
     128       0    -287       3       0                               0D    230
     128     213                                                00010000D    231
     128       0    -287       3       0                               0D    232
     128     216                                                00010000D    233
     128       0    -287       3       0                               0D    234
     128     219                                                00010000D    235
     128       0    -287       3       0                               0D    236
     128     222                                                00010000D    237
     128       0    -287      14       0                               0D    238
     128     236                                                00010000D    239
     128       0    -287       3       0                               0D    240
     128     239                                                00010000D    241
     128       0    -287       3       0                               0D    242
     128     242                                                00010000D    243
     128       0    -287       3       0                               0D    244
     128     245                                                00010000D    245
     128       0    -287       3       0                               0D    246
     128     248                                                00010000D    247
     128       0    -287       3       0                               0D    248
     128     251                                                00010000D    249
     128       0    -287       3       0                               0D    250
     502     254                                                00010000D    251
     502                       2       1                               0D    252
     502     256                                                00010000D    253
     502                       2       1                               0D    254
     502     258                                                00010000D    255
     502                       3       1                               0D    256
     504     261                                                00010001D    257
     504                       4       1                               0D    258
     504     265                                                00010001D    259
     504                       4       1                               0D    260
     504     269                                                00010001D    261
     504                       4       1                               0D    262
     406     273                                                00000000D    263
     406                       1      15                               0D    264
     406     274                                                00000000D    265
     406                       1      15                               0D    266
     406     275                                                00000000D    267
     406                       1      15                               0D    268
     406     276                                                00000000D    269
     406                       1      15                               0D    270
     406     277                                                00000000D    271
     406                       1      15                               0D    272
     406     278                                                00000000D    273
     406                       1      15                               0D    274
     406     279                                                00000000D    275
     406                       1      15                               0D    276
     406     280                                                00000000D    277
     406                       1      15                               0D    278
     406     281                                                00000000D    279
     406                       1      15                               0D    280
     406     282                                                00000000D    281
     406                       1      15                               0D    282
     406     283                                                00000000D    283
     406                       1      15                               0D    284
     406     284                                                00000000D    285
     406                       1      15                               0D    286
     314     285                                                00000200D    287
     314                       2       0                               0D    288
     314     287                                                00000200D    289
     314                       2       0                               0D    290
408,37,0.,0.,0.,1.,0,1,265;                                            1P      1
408,39,0.,0.,0.,1.,0,1,269;                                            3P      2
408,41,0.,0.,0.,1.,0,1,273;                                            5P      3
408,37,0.,0.,0.,1.,0,1,275;                                            7P      4
408,39,0.,0.,0.,1.,0,1,277;                                            9P      5
408,37,0.,0.,0.,1.,0,1,279;                                           11P      6
408,39,0.,0.,0.,1.,0,1,281;                                           13P      7
408,37,0.,0.,0.,1.,0,1,283;                                           15P      8
408,39,0.,0.,0.,1.,0,1,285;                                           17P      9
124,0.999999999999999,-3.46944695195361D-18,                          19P     10
-6.50397764895845D-19,-29.817966139247,3.12250225675825D-17,1.,       19P     11
1.26772912923978D-20,-15.67505434297,-2.16840434497101D-19,0.,        19P     12
1.,14.142911796277;                                                   19P     13
124,-3.12250225675825D-17,-1.,2.16840434497101D-19,                   21P     14
369.182033860753,1.,-3.12250225675825D-17,-1.2266884305794D-16,       21P     15
-35.67505434297,1.2266884305794D-16,2.16840434497101D-19,1.,          21P     16
14.1429117962769;                                                     21P     17
124,1.,-1.32306274275984D-35,-6.10154995228706D-17,                   23P     18
28.6820338607531,1.13905388819922D-67,1.,-2.16840434497131D-19,       23P     19
4.32494565702982,6.10154995228706D-17,2.16840434497131D-19,1.,        23P     20
116.142911796277;                                                     23P     21
124,-0.999999999999999,3.46944695195363D-18,                          25P     22
1.08407863389004D-18,379.182033860753,-3.12250225675825D-17,-1.,      25P     23
-2.04163143204689D-19,301.32494565703,2.16840434497101D-19,           25P     24
-1.91485851912302D-19,1.,14.142911796277;                             25P     25
124,-3.12250225675825D-17,-1.,2.16840434497101D-19,                   27P     26
369.182033860753,1.,-3.12250225675825D-17,1.2677291292387D-20,        27P     27
261.32494565703,-1.2677291292387D-20,2.16840434497101D-19,1.,         27P     28
14.142911796277;                                                      27P     29
124,0.999999999999999,-1.53689702482318D-16,                          29P     30
-6.50397764895843D-19,-29.8179661392469,1.81445278097947D-16,1.,      29P     31
-2.16840434497127D-19,-15.6750543429702,-2.16840434497104D-19,        29P     32
2.29517725789524D-19,1.,116.142911796277;                             29P     33
124,-1.20212938140579D-16,-1.,2.16840434497102D-19,                   31P     34
369.182033860753,1.,-1.20212938140579D-16,-2.16840434497125D-19,      31P     35
-35.6750543429702,2.16840434497125D-19,2.16840434497108D-19,1.,       31P     36
116.142911796277;                                                     31P     37
124,-0.999999999999999,3.46944695195363D-18,                          33P     38
1.08407863389004D-18,379.182033860753,-3.12250225675825D-17,-1.,      33P     39
-2.16840434497126D-19,301.32494565703,2.16840434497101D-19,           33P     40
-2.04163143204739D-19,1.,116.142911796277;                            33P     41
124,-9.24573625249502D-17,-1.,2.16840434497102D-19,                   35P     42
369.182033860753,1.,-9.24573625249502D-17,-2.16840434497126D-19,      35P     43
261.32494565703,2.16840434497126D-19,2.16840434497104D-19,1.,         35P     44
116.142911796277;                                                     35P     45
308,0,15HProfil20x20_317,1,43;                                        37P     46
308,0,15HProfil20x20_389,1,45;                                        39P     47
308,0,15HProfil20x20_277,1,47;                                        41P     48
186,49,1,0,0,1,263;                                                   43P     49
186,51,1,0,0,1,267;                                                   45P     50
186,53,1,0,0,1,271;                                                   47P     51
514,6,55,1,57,1,59,1,61,1,63,1,65,1;                                  49P     52
514,6,67,1,69,1,71,1,73,1,75,1,77,1;                                  51P     53
514,7,79,1,81,1,83,1,85,1,87,1,89,1,91,1;                             53P     54
510,213,1,1,93;                                                       55P     55
510,215,1,1,95;                                                       57P     56
510,217,1,1,97;                                                       59P     57
510,219,1,1,99;                                                       61P     58
510,221,1,1,101;                                                      63P     59
510,223,1,1,103;                                                      65P     60
510,225,1,1,105;                                                      67P     61
510,227,1,1,107;                                                      69P     62
510,229,1,1,109;                                                      71P     63
510,231,1,1,111;                                                      73P     64
510,233,1,1,113;                                                      75P     65
510,235,1,1,115;                                                      77P     66
510,237,1,1,117;                                                      79P     67
510,239,2,1,119,121;                                                  81P     68
510,241,1,1,123;                                                      83P     69
510,243,2,1,125,127;                                                  85P     70
510,245,1,1,129;                                                      87P     71
510,247,1,1,131;                                                      89P     72
510,249,1,1,133;                                                      91P     73
508,4,0,257,1,1,0,0,257,2,1,0,0,257,3,0,0,0,257,4,0,0;                93P     74
508,4,0,257,5,1,0,0,257,4,1,0,0,257,6,0,0,0,257,7,0,0;                95P     75
508,4,0,257,8,1,0,0,257,7,1,0,0,257,9,0,0,0,257,10,0,0;               97P     76
508,4,0,257,11,1,0,0,257,10,1,0,0,257,12,0,0,0,257,2,0,0;             99P     77
508,4,0,257,12,1,0,0,257,9,1,0,0,257,6,1,0,0,257,3,1,0;              101P     78
508,4,0,257,11,0,0,0,257,1,0,0,0,257,5,0,0,0,257,8,0,0;              103P     79
508,4,0,259,1,1,0,0,259,2,1,0,0,259,3,0,0,0,259,4,0,0;               105P     80
508,4,0,259,5,1,0,0,259,4,1,0,0,259,6,0,0,0,259,7,0,0;               107P     81
508,4,0,259,8,1,0,0,259,7,1,0,0,259,9,0,0,0,259,10,0,0;              109P     82
508,4,0,259,11,1,0,0,259,10,1,0,0,259,12,0,0,0,259,2,0,0;            111P     83
508,4,0,259,12,1,0,0,259,9,1,0,0,259,6,1,0,0,259,3,1,0;              113P     84
508,4,0,259,11,0,0,0,259,1,0,0,0,259,5,0,0,0,259,8,0,0;              115P     85
508,4,0,261,1,0,0,0,261,2,1,0,0,261,3,0,0,0,261,2,0,0;               117P     86
508,4,0,261,4,1,0,0,261,5,1,0,0,261,6,0,0,0,261,7,0,0;               119P     87
508,1,0,261,1,1,0;                                                   121P     88
508,4,0,261,8,1,0,0,261,7,1,0,0,261,9,0,0,0,261,10,0,0;              123P     89
508,4,0,261,11,1,0,0,261,10,1,0,0,261,12,0,0,0,261,13,0,0;           125P     90
508,1,0,261,3,1,0;                                                   127P     91
508,4,0,261,14,1,0,0,261,13,1,0,0,261,15,0,0,0,261,5,0,0;            129P     92
508,4,0,261,15,1,0,0,261,12,1,0,0,261,9,1,0,0,261,6,1,0;             131P     93
508,4,0,261,14,0,0,0,261,4,0,0,0,261,8,0,0,0,261,11,0,0;             133P     94
126,1,1,0,0,1,0,0.,0.,2.,2.,1.,1.,-10.,0.,10.,10.,0.,10.,0.,2.,      135P     95
0.,0.,0.;                                                            135P     96
126,1,1,0,0,1,0,0.,0.,31.7,31.7,1.,1.,10.,0.,10.,10.,317.,10.,       137P     97
0.,31.7,0.,0.,0.;                                                    137P     98
126,1,1,0,0,1,0,0.,0.,2.,2.,1.,1.,-10.,317.,10.,10.,317.,10.,0.,     139P     99
2.,0.,0.,0.;                                                         139P    100
126,1,1,0,0,1,0,0.,0.,31.7,31.7,1.,1.,-10.,0.,10.,-10.,317.,10.,     141P    101
0.,31.7,0.,0.,0.;                                                    141P    102
126,1,1,0,0,1,0,0.,0.,2.,2.,1.,1.,-10.,0.,-10.,-10.,0.,10.,0.,       143P    103
2.,0.,0.,0.;                                                         143P    104
126,1,1,0,0,1,0,0.,0.,2.,2.,1.,1.,-10.,317.,-10.,-10.,317.,10.,      145P    105
0.,2.,0.,0.,0.;                                                      145P    106
126,1,1,0,0,1,0,0.,0.,31.7,31.7,1.,1.,-10.,0.,-10.,-10.,317.,        147P    107
-10.,0.,31.7,0.,0.,0.;                                               147P    108
126,1,1,0,0,1,0,0.,0.,2.,2.,1.,1.,10.,0.,-10.,-10.,0.,-10.,0.,       149P    109
2.,0.,0.,0.;                                                         149P    110
126,1,1,0,0,1,0,0.,0.,2.,2.,1.,1.,10.,317.,-10.,-10.,317.,-10.,      151P    111
0.,2.,0.,0.,0.;                                                      151P    112
126,1,1,0,0,1,0,0.,0.,31.7,31.7,1.,1.,10.,0.,-10.,10.,317.,-10.,     153P    113
0.,31.7,0.,0.,0.;                                                    153P    114
126,1,1,0,0,1,0,0.,0.,2.,2.,1.,1.,10.,0.,10.,10.,0.,-10.,0.,2.,      155P    115
0.,0.,0.;                                                            155P    116
126,1,1,0,0,1,0,0.,0.,2.,2.,1.,1.,10.,317.,10.,10.,317.,-10.,0.,     157P    117
2.,0.,0.,0.;                                                         157P    118
126,1,1,0,0,1,0,0.,0.,2.,2.,1.,1.,40.,0.,10.,40.,0.,-10.,0.,2.,      159P    119
0.,0.,0.;                                                            159P    120
126,1,1,0,0,1,0,0.,0.,38.9,38.9,1.,1.,40.,0.,-10.,40.,389.,-10.,     161P    121
0.,38.9,0.,0.,0.;                                                    161P    122
126,1,1,0,0,1,0,0.,0.,2.,2.,1.,1.,40.,389.,10.,40.,389.,-10.,0.,     163P    123
2.,0.,0.,0.;                                                         163P    124
126,1,1,0,0,1,0,0.,0.,38.9,38.9,1.,1.,40.,0.,10.,40.,389.,10.,       165P    125
0.,38.9,0.,0.,0.;                                                    165P    126
126,1,1,0,0,1,0,0.,0.,2.,2.,1.,1.,20.,0.,10.,40.,0.,10.,0.,2.,       167P    127
0.,0.,0.;                                                            167P    128
126,1,1,0,0,1,0,0.,0.,2.,2.,1.,1.,20.,389.,10.,40.,389.,10.,0.,      169P    129
2.,0.,0.,0.;                                                         169P    130
126,1,1,0,0,1,0,0.,0.,38.9,38.9,1.,1.,20.,0.,10.,20.,389.,10.,       171P    131
0.,38.9,0.,0.,0.;                                                    171P    132
126,1,1,0,0,1,0,0.,0.,2.,2.,1.,1.,20.,0.,-10.,20.,0.,10.,0.,2.,      173P    133
0.,0.,0.;                                                            173P    134
126,1,1,0,0,1,0,0.,0.,2.,2.,1.,1.,20.,389.,-10.,20.,389.,10.,0.,     175P    135
2.,0.,0.,0.;                                                         175P    136
126,1,1,0,0,1,0,0.,0.,38.9,38.9,1.,1.,20.,0.,-10.,20.,389.,-10.,     177P    137
0.,38.9,0.,0.,0.;                                                    177P    138
126,1,1,0,0,1,0,0.,0.,2.,2.,1.,1.,40.,0.,-10.,20.,0.,-10.,0.,2.,     179P    139
0.,0.,0.;                                                            179P    140
126,1,1,0,0,1,0,0.,0.,2.,2.,1.,1.,40.,389.,-10.,20.,389.,-10.,       181P    141
0.,2.,0.,0.,0.;                                                      181P    142
126,8,2,0,1,0,0,-3.14159265358979,-3.14159265358979,                 183P    143
-3.14159265358979,-1.5707963267949,-1.5707963267949,0.,0.,           183P    144
1.5707963267949,1.5707963267949,3.14159265358979,                    183P    145
3.14159265358979,3.14159265358979,1.,0.707106781186548,1.,           183P    146
0.707106781186548,1.,0.707106781186548,1.,0.707106781186548,1.,      183P    147
94.1,138.5,10.,94.1,134.4,10.,90.,134.4,10.,85.9,134.4,10.,85.9,     183P    148
138.5,10.,85.9,142.6,10.,90.,142.6,10.,94.1,142.6,10.,94.1,          183P    149
138.5,10.,-3.14159265358979,3.14159265358979,0.,0.,0.;               183P    150
126,1,1,0,0,1,0,-8.12358310701334D-16,-8.12358310701334D-16,         185P    151
4.8780487804878,4.8780487804878,1.,1.,94.1,138.5,10.,94.1,138.5,     185P    152
-10.,-8.12358310701334D-16,4.8780487804878,0.,0.,0.;                 185P    153
126,8,2,0,1,0,0,-3.14159265358979,-3.14159265358979,                 187P    154
-3.14159265358979,-1.5707963267949,-1.5707963267949,0.,0.,           187P    155
1.5707963267949,1.5707963267949,3.14159265358979,                    187P    156
3.14159265358979,3.14159265358979,1.,0.707106781186548,1.,           187P    157
0.707106781186548,1.,0.707106781186548,1.,0.707106781186548,1.,      187P    158
94.1,138.5,-10.,94.1,142.6,-10.,90.,142.6,-10.,85.9,142.6,-10.,      187P    159
85.9,138.5,-10.,85.9,134.4,-10.,90.,134.4,-10.,94.1,134.4,-10.,      187P    160
94.1,138.5,-10.,-3.14159265358979,3.14159265358979,0.,0.,0.;         187P    161
126,1,1,0,0,1,0,0.,0.,2.,2.,1.,1.,80.,0.,10.,100.,0.,10.,0.,2.,      189P    162
0.,0.,0.;                                                            189P    163
126,1,1,0,0,1,0,0.,0.,27.7,27.7,1.,1.,100.,0.,10.,100.,277.,10.,     191P    164
0.,27.7,0.,0.,0.;                                                    191P    165
126,1,1,0,0,1,0,0.,0.,2.,2.,1.,1.,80.,277.,10.,100.,277.,10.,0.,     193P    166
2.,0.,0.,0.;                                                         193P    167
126,1,1,0,0,1,0,0.,0.,27.7,27.7,1.,1.,80.,0.,10.,80.,277.,10.,       195P    168
0.,27.7,0.,0.,0.;                                                    195P    169
126,1,1,0,0,1,0,0.,0.,2.,2.,1.,1.,80.,0.,-10.,80.,0.,10.,0.,2.,      197P    170
0.,0.,0.;                                                            197P    171
126,1,1,0,0,1,0,0.,0.,2.,2.,1.,1.,80.,277.,-10.,80.,277.,10.,0.,     199P    172
2.,0.,0.,0.;                                                         199P    173
126,1,1,0,0,1,0,0.,0.,27.7,27.7,1.,1.,80.,0.,-10.,80.,277.,-10.,     201P    174
0.,27.7,0.,0.,0.;                                                    201P    175
126,1,1,0,0,1,0,0.,0.,2.,2.,1.,1.,100.,0.,-10.,80.,0.,-10.,0.,       203P    176
2.,0.,0.,0.;                                                         203P    177
126,1,1,0,0,1,0,0.,0.,2.,2.,1.,1.,100.,277.,-10.,80.,277.,-10.,      205P    178
0.,2.,0.,0.,0.;                                                      205P    179
126,1,1,0,0,1,0,0.,0.,27.7,27.7,1.,1.,100.,0.,-10.,100.,277.,        207P    180
-10.,0.,27.7,0.,0.,0.;                                               207P    181
126,1,1,0,0,1,0,0.,0.,2.,2.,1.,1.,100.,0.,10.,100.,0.,-10.,0.,       209P    182
2.,0.,0.,0.;                                                         209P    183
126,1,1,0,0,1,0,0.,0.,2.,2.,1.,1.,100.,277.,10.,100.,277.,-10.,      211P    184
0.,2.,0.,0.,0.;                                                      211P    185
128,1,1,1,1,0,0,1,0,0,-0.001,-0.001,2.001,2.001,-0.001,-0.001,       213P    186
31.701,31.701,1.,1.,1.,1.,-10.01,-0.01,10.,10.01,-0.01,10.,          213P    187
-10.01,317.01,10.,10.01,317.01,10.,-0.001,2.001,-0.001,31.701;       213P    188
128,1,1,1,1,0,0,1,0,0,-0.001,-0.001,2.001,2.001,-0.001,-0.001,       215P    189
31.701,31.701,1.,1.,1.,1.,-10.,-0.01,-10.01,-10.,-0.01,10.01,        215P    190
-10.,317.01,-10.01,-10.,317.01,10.01,-0.001,2.001,-0.001,31.701;     215P    191
128,1,1,1,1,0,0,1,0,0,-0.001,-0.001,2.001,2.001,-0.001,-0.001,       217P    192
31.701,31.701,1.,1.,1.,1.,10.01,-0.01,-10.,-10.01,-0.01,-10.,        217P    193
10.01,317.01,-10.,-10.01,317.01,-10.,-0.001,2.001,-0.001,31.701;     217P    194
128,1,1,1,1,0,0,1,0,0,-0.001,-0.001,2.001,2.001,-0.001,-0.001,       219P    195
31.701,31.701,1.,1.,1.,1.,10.,-0.01,10.01,10.,-0.01,-10.01,10.,      219P    196
317.01,10.01,10.,317.01,-10.01,-0.001,2.001,-0.001,31.701;           219P    197
128,1,1,1,1,0,0,1,0,0,-1.001,-1.001,1.001,1.001,-1.001,-1.001,       221P    198
1.001,1.001,1.,1.,1.,1.,-10.01,317.,-10.01,-10.01,317.,10.01,        221P    199
10.01,317.,-10.01,10.01,317.,10.01,-1.001,1.001,-1.001,1.001;        221P    200
128,1,1,1,1,0,0,1,0,0,-1.001,-1.001,1.001,1.001,-1.001,-1.001,       223P    201
1.001,1.001,1.,1.,1.,1.,10.01,0.,10.01,-10.01,0.,10.01,10.01,0.,     223P    202
-10.01,-10.01,0.,-10.01,-1.001,1.001,-1.001,1.001;                   223P    203
128,1,1,1,1,0,0,1,0,0,-0.001,-0.001,2.001,2.001,-0.001,-0.001,       225P    204
38.901,38.901,1.,1.,1.,1.,40.,-0.01,10.01,40.,-0.01,-10.01,40.,      225P    205
389.01,10.01,40.,389.01,-10.01,-0.001,2.001,-0.001,38.901;           225P    206
128,1,1,1,1,0,0,1,0,0,-0.001,-0.001,2.001,2.001,-0.001,-0.001,       227P    207
38.901,38.901,1.,1.,1.,1.,19.99,-0.01,10.,40.01,-0.01,10.,19.99,     227P    208
389.01,10.,40.01,389.01,10.,-0.001,2.001,-0.001,38.901;              227P    209
128,1,1,1,1,0,0,1,0,0,-0.001,-0.001,2.001,2.001,-0.001,-0.001,       229P    210
38.901,38.901,1.,1.,1.,1.,20.,-0.01,-10.01,20.,-0.01,10.01,20.,      229P    211
389.01,-10.01,20.,389.01,10.01,-0.001,2.001,-0.001,38.901;           229P    212
128,1,1,1,1,0,0,1,0,0,-0.001,-0.001,2.001,2.001,-0.001,-0.001,       231P    213
38.901,38.901,1.,1.,1.,1.,40.01,-0.01,-10.,19.99,-0.01,-10.,         231P    214
40.01,389.01,-10.,19.99,389.01,-10.,-0.001,2.001,-0.001,38.901;      231P    215
128,1,1,1,1,0,0,1,0,0,-1.001,-1.001,1.001,1.001,-1.001,-1.001,       233P    216
1.001,1.001,1.,1.,1.,1.,19.99,389.,-10.01,19.99,389.,10.01,          233P    217
40.01,389.,-10.01,40.01,389.,10.01,-1.001,1.001,-1.001,1.001;        233P    218
128,1,1,1,1,0,0,1,0,0,-1.001,-1.001,1.001,1.001,-1.001,-1.001,       235P    219
1.001,1.001,1.,1.,1.,1.,40.01,0.,10.01,19.99,0.,10.01,40.01,0.,      235P    220
-10.01,19.99,0.,-10.01,-1.001,1.001,-1.001,1.001;                    235P    221
128,1,8,1,2,0,1,0,0,1,-8.12358310701334D-16,                         237P    222
-8.12358310701334D-16,4.8780487804878,4.8780487804878,               237P    223
-3.14159265358979,-3.14159265358979,-3.14159265358979,               237P    224
-1.5707963267949,-1.5707963267949,0.,0.,1.5707963267949,             237P    225
1.5707963267949,3.14159265358979,3.14159265358979,                   237P    226
3.14159265358979,1.,1.,0.707106781186548,0.707106781186548,1.,       237P    227
1.,0.707106781186548,0.707106781186548,1.,1.,0.707106781186548,      237P    228
0.707106781186548,1.,1.,0.707106781186548,0.707106781186548,1.,      237P    229
1.,94.1,138.5,10.,94.1,138.5,-10.,94.1,134.4,10.,94.1,134.4,         237P    230
-10.,90.,134.4,10.,90.,134.4,-10.,85.9,134.4,10.,85.9,134.4,         237P    231
-10.,85.9,138.5,10.,85.9,138.5,-10.,85.9,142.6,10.,85.9,142.6,       237P    232
-10.,90.,142.6,10.,90.,142.6,-10.,94.1,142.6,10.,94.1,142.6,         237P    233
-10.,94.1,138.5,10.,94.1,138.5,-10.,-8.12358310701334D-16,           237P    234
4.8780487804878,-3.14159265358979,3.14159265358979;                  237P    235
128,1,1,1,1,0,0,1,0,0,-0.001,-0.001,2.001,2.001,-0.001,-0.001,       239P    236
27.701,27.701,1.,1.,1.,1.,79.99,-0.01,10.,100.01,-0.01,10.,          239P    237
79.99,277.01,10.,100.01,277.01,10.,-0.001,2.001,-0.001,27.701;       239P    238
128,1,1,1,1,0,0,1,0,0,-0.001,-0.001,2.001,2.001,-0.001,-0.001,       241P    239
27.701,27.701,1.,1.,1.,1.,80.,-0.01,-10.01,80.,-0.01,10.01,80.,      241P    240
277.01,-10.01,80.,277.01,10.01,-0.001,2.001,-0.001,27.701;           241P    241
128,1,1,1,1,0,0,1,0,0,-0.001,-0.001,2.001,2.001,-0.001,-0.001,       243P    242
27.701,27.701,1.,1.,1.,1.,100.01,-0.01,-10.,79.99,-0.01,-10.,        243P    243
100.01,277.01,-10.,79.99,277.01,-10.,-0.001,2.001,-0.001,27.701;     243P    244
128,1,1,1,1,0,0,1,0,0,-0.001,-0.001,2.001,2.001,-0.001,-0.001,       245P    245
27.701,27.701,1.,1.,1.,1.,100.,-0.01,10.01,100.,-0.01,-10.01,        245P    246
100.,277.01,10.01,100.,277.01,-10.01,-0.001,2.001,-0.001,27.701;     245P    247
128,1,1,1,1,0,0,1,0,0,-1.001,-1.001,1.001,1.001,-1.001,-1.001,       247P    248
1.001,1.001,1.,1.,1.,1.,79.99,277.,-10.01,79.99,277.,10.01,          247P    249
100.01,277.,-10.01,100.01,277.,10.01,-1.001,1.001,-1.001,1.001;      247P    250
128,1,1,1,1,0,0,1,0,0,-1.001,-1.001,1.001,1.001,-1.001,-1.001,       249P    251
1.001,1.001,1.,1.,1.,1.,100.01,0.,10.01,79.99,0.,10.01,100.01,       249P    252
0.,-10.01,79.99,0.,-10.01,-1.001,1.001,-1.001,1.001;                 249P    253
502,8,-10.,0.,10.,10.,0.,10.,10.,317.,10.,-10.,317.,10.,-10.,0.,     251P    254
-10.,-10.,317.,-10.,10.,0.,-10.,10.,317.,-10.;                       251P    255
502,8,40.,0.,10.,40.,0.,-10.,40.,389.,-10.,40.,389.,10.,20.,0.,      253P    256
10.,20.,389.,10.,20.,0.,-10.,20.,389.,-10.;                          253P    257
502,10,94.1,138.5,10.,94.1,138.5,-10.,80.,0.,10.,100.,0.,10.,        255P    258
100.,277.,10.,80.,277.,10.,80.,0.,-10.,80.,277.,-10.,100.,0.,        255P    259
-10.,100.,277.,-10.;                                                 255P    260
504,12,135,251,1,251,2,137,251,2,251,3,139,251,4,251,3,141,251,      257P    261
1,251,4,143,251,5,251,1,145,251,6,251,4,147,251,5,251,6,149,251,     257P    262
7,251,5,151,251,8,251,6,153,251,7,251,8,155,251,2,251,7,157,251,     257P    263
3,251,8;                                                             257P    264
504,12,159,253,1,253,2,161,253,2,253,3,163,253,4,253,3,165,253,      259P    265
1,253,4,167,253,5,253,1,169,253,6,253,4,171,253,5,253,6,173,253,     259P    266
7,253,5,175,253,8,253,6,177,253,7,253,8,179,253,2,253,7,181,253,     259P    267
3,253,8;                                                             259P    268
504,15,183,255,1,255,1,185,255,1,255,2,187,255,2,255,2,189,255,      261P    269
3,255,4,191,255,4,255,5,193,255,6,255,5,195,255,3,255,6,197,255,     261P    270
7,255,3,199,255,8,255,6,201,255,7,255,8,203,255,9,255,7,205,255,     261P    271
10,255,8,207,255,9,255,10,209,255,4,255,9,211,255,5,255,10;          261P    272
406,1,15HProfil20x20_317;                                            263P    273
406,1,17HProfil20x20_317:1;                                          265P    274
406,1,15HProfil20x20_389;                                            267P    275
406,1,17HProfil20x20_389:1;                                          269P    276
406,1,15HProfil20x20_277;                                            271P    277
406,1,17HProfil20x20_277:1;                                          273P    278
406,1,17HProfil20x20_317:2;                                          275P    279
406,1,17HProfil20x20_389:2;                                          277P    280
406,1,17HProfil20x20_317:3;                                          279P    281
406,1,17HProfil20x20_389:3;                                          281P    282
406,1,17HProfil20x20_317:4;                                          283P    283
406,1,17HProfil20x20_389:4;                                          285P    284
314,96.078431372549,96.078431372549,96.4705882352941,23HAluminum     287P    285
 - Bead Blasted;                                                     287P    286
314,62.7450980392157,62.7450980392157,62.7450980392157,13HSteel      289P    287
- Satin;                                                             289P    288
S      1G      3D    290P    288                                        T      1
