                                                                        S      1
,,16HBallJoint 6mm v2,16HBallJoint 6mm v2,7Hunknown,7Hunknown,32,38,7,  G      1
99,15,,1.,2,2HMM,1,0.08,15H20201205.181740,0.01,10000.,7Hunknown,7HunknoG      2
wn,11,0,15H20200407.154546;                                             G      3
     186       1                                                00000000D      1
     186            -159       1       0                               0D      2
     514       2                                                00010000D      3
     514                       2       1                               0D      4
     510       4                                                00010000D      5
     510            -159       1       1                               0D      6
     510       5                                                00010000D      7
     510            -159       1       1                               0D      8
     510       6                                                00010000D      9
     510            -159       1       1                               0D     10
     510       7                                                00010000D     11
     510            -159       1       1                               0D     12
     510       8                                                00010000D     13
     510            -159       1       1                               0D     14
     510       9                                                00010000D     15
     510            -159       1       1                               0D     16
     510      10                                                00010000D     17
     510            -159       1       1                               0D     18
     510      11                                                00010000D     19
     510            -159       1       1                               0D     20
     510      12                                                00010000D     21
     510            -159       1       1                               0D     22
     510      13                                                00010000D     23
     510            -159       1       1                               0D     24
     510      14                                                00010000D     25
     510            -159       1       1                               0D     26
     510      15                                                00010000D     27
     510            -159       1       1                               0D     28
     510      16                                                00010000D     29
     510            -159       1       1                               0D     30
     508      17                                                00010000D     31
     508                       1       1                               0D     32
     508      18                                                00010000D     33
     508                       2       1                               0D     34
     508      20                                                00010000D     35
     508                       1       1                               0D     36
     508      21                                                00010000D     37
     508                       1       1                               0D     38
     508      22                                                00010000D     39
     508                       1       1                               0D     40
     508      23                                                00010000D     41
     508                       1       1                               0D     42
     508      24                                                00010000D     43
     508                       1       1                               0D     44
     508      25                                                00010000D     45
     508                       1       1                               0D     46
     508      26                                                00010000D     47
     508                       1       1                               0D     48
     508      27                                                00010000D     49
     508                       2       1                               0D     50
     508      29                                                00010000D     51
     508                       2       1                               0D     52
     508      31                                                00010000D     53
     508                       2       1                               0D     54
     508      33                                                00010000D     55
     508                       2       1                               0D     56
     508      35                                                00010000D     57
     508                       2       1                               0D     58
     508      37                                                00010000D     59
     508                       1       1                               0D     60
     508      38                                                00010000D     61
     508                       1       1                               0D     62
     126      39                                                00010000D     63
     126       0              23       0                               0D     64
     126      62                                                00010000D     65
     126       0              12       0                               0D     66
     126      74                                                00010000D     67
     126       0              23       0                               0D     68
     126      97                                                00010000D     69
     126       0              10       0                               0D     70
     126     107                                                00010000D     71
     126       0               8       0                               0D     72
     126     115                                                00010000D     73
     126       0               8       0                               0D     74
     126     123                                                00010000D     75
     126       0               3       0                               0D     76
     126     126                                                00010000D     77
     126       0               3       0                               0D     78
     126     129                                                00010000D     79
     126       0               9       0                               0D     80
     126     138                                                00010000D     81
     126       0              23       0                               0D     82
     126     161                                                00010000D     83
     126       0              10       0                               0D     84
     126     171                                                00010000D     85
     126       0              20       0                               0D     86
     126     191                                                00010000D     87
     126       0              12       0                               0D     88
     126     203                                                00010000D     89
     126       0               2       0                               0D     90
     126     205                                                00010000D     91
     126       0               2       0                               0D     92
     126     207                                                00010000D     93
     126       0               9       0                               0D     94
     126     216                                                00010000D     95
     126       0               2       0                               0D     96
     126     218                                                00010000D     97
     126       0               9       0                               0D     98
     126     227                                                00010000D     99
     126       0               8       0                               0D    100
     126     235                                                00010000D    101
     126       0               5       0                               0D    102
     126     240                                                00010000D    103
     126       0               8       0                               0D    104
     126     248                                                00010000D    105
     126       0               5       0                               0D    106
     126     253                                                00010000D    107
     126       0               3       0                               0D    108
     126     256                                                00010000D    109
     126       0               2       0                               0D    110
     126     258                                                00010000D    111
     126       0               2       0                               0D    112
     126     260                                                00010000D    113
     126       0               3       0                               0D    114
     126     263                                                00010000D    115
     126       0               7       0                               0D    116
     126     270                                                00010000D    117
     126       0               2       0                               0D    118
     126     272                                                00010000D    119
     126       0               2       0                               0D    120
     126     274                                                00010000D    121
     126       0               7       0                               0D    122
     126     281                                                00010000D    123
     126       0               9       0                               0D    124
     126     290                                                00010000D    125
     126       0               2       0                               0D    126
     128     292                                                00010000D    127
     128       0    -159      29       0                               0D    128
     128     321                                                00010000D    129
     128       0    -159       6       0                               0D    130
     128     327                                                00010000D    131
     128       0    -159      27       0                               0D    132
     128     354                                                00010000D    133
     128       0    -159      17       0                               0D    134
     128     371                                                00010000D    135
     128       0    -159      14       0                               0D    136
     128     385                                                00010000D    137
     128       0    -159       4       0                               0D    138
     128     389                                                00010000D    139
     128       0    -159       6       0                               0D    140
     128     395                                                00010000D    141
     128       0    -159      22       0                               0D    142
     128     417                                                00010000D    143
     128       0    -159      25       0                               0D    144
     128     442                                                00010000D    145
     128       0    -159      22       0                               0D    146
     128     464                                                00010000D    147
     128       0    -159      25       0                               0D    148
     128     489                                                00010000D    149
     128       0    -159       6       0                               0D    150
     128     495                                                00010000D    151
     128       0    -159      11       0                               0D    152
     502     506                                                00010000D    153
     502                       9       1                               0D    154
     504     515                                                00010001D    155
     504                       9       1                               0D    156
     406     524                                                00000000D    157
     406                       1      15                               0D    158
     314     525                                                00000200D    159
     314                       2       0                               0D    160
     314     527                                                00000200D    161
     314                       2       0                               0D    162
186,3,1,0,0,1,157;                                                     1P      1
514,13,5,1,7,1,9,1,11,1,13,1,15,1,17,1,19,1,21,1,23,1,25,1,27,1,       3P      2
29,1;                                                                  3P      3
510,127,1,1,31;                                                        5P      4
510,129,2,1,33,35;                                                     7P      5
510,131,1,1,37;                                                        9P      6
510,133,1,1,39;                                                       11P      7
510,135,1,1,41;                                                       13P      8
510,137,1,1,43;                                                       15P      9
510,139,2,1,45,47;                                                    17P     10
510,141,1,1,49;                                                       19P     11
510,143,1,1,51;                                                       21P     12
510,145,1,1,53;                                                       23P     13
510,147,1,1,55;                                                       25P     14
510,149,2,1,57,59;                                                    27P     15
510,151,1,1,61;                                                       29P     16
508,4,0,155,1,1,0,0,155,2,1,0,0,155,3,0,0,0,155,4,1,0;                31P     17
508,5,0,155,5,0,0,0,155,4,0,0,0,155,6,0,0,0,155,7,0,0,0,155,8,0,      33P     18
0;                                                                    33P     19
508,1,0,155,9,0,0;                                                    35P     20
508,4,0,155,10,0,0,0,155,11,1,0,0,155,12,1,0,0,155,13,1,0;            37P     21
508,4,0,155,2,0,0,0,155,14,0,0,0,155,13,0,0,0,155,15,0,0;             39P     22
508,4,0,155,16,0,0,0,155,17,1,0,0,155,18,1,0,0,155,17,0,0;            41P     23
508,1,0,155,18,0,0;                                                   43P     24
508,4,0,155,19,0,0,0,155,20,0,0,0,155,21,0,0,0,155,22,0,0;            45P     25
508,1,0,155,16,1,0;                                                   47P     26
508,5,0,155,23,1,0,0,155,24,1,0,0,155,19,1,0,0,155,25,0,0,0,155,      49P     27
26,1,0;                                                               49P     28
508,8,0,155,15,1,0,0,155,12,0,0,0,155,27,1,0,0,155,25,1,0,0,155,      51P     29
22,1,0,0,155,28,0,0,0,155,6,1,0,0,155,3,1,0;                          51P     30
508,5,0,155,7,1,0,0,155,28,1,0,0,155,21,1,0,0,155,29,0,0,0,155,       53P     31
8,1,0;                                                                53P     32
508,8,0,155,14,1,0,0,155,1,0,0,0,155,5,1,0,0,155,29,1,0,0,155,        55P     33
20,1,0,0,155,24,0,0,0,155,30,1,0,0,155,10,1,0;                        55P     34
508,5,0,155,30,0,0,0,155,23,0,0,0,155,26,0,0,0,155,27,0,0,0,155,      57P     35
11,0,0;                                                               57P     36
508,1,0,155,31,1,0;                                                   59P     37
508,4,0,155,31,0,0,0,155,32,1,0,0,155,9,1,0,0,155,32,0,0;             61P     38
126,15,3,0,0,1,0,1.03304618772583,1.03304618772583,                   63P     39
1.03304618772583,1.03304618772583,1.051221687534,1.051221687534,      63P     40
1.10254599025783,1.10254599025783,1.1501725097589,                    63P     41
1.1501725097589,1.20909826042909,1.20909826042909,                    63P     42
1.2672885785422,1.2672885785422,1.31594113015233,                     63P     43
1.31594113015233,1.33121852429549,1.33121852429549,                   63P     44
1.33121852429549,1.33121852429549,1.,1.,1.,1.,1.,1.,1.,1.,1.,1.,      63P     45
1.,1.,1.,1.,1.,1.,5.74051458280469,-6.268691436385,                   63P     46
-1.0842021724855D-17,5.80195332008125,-6.26153011228942,              63P     47
-1.75683171726782D-17,5.86344007689097,-6.25431191792408,             63P     48
0.00131086119680524,6.09837126231636,-6.22656103613145,               63P     49
0.0117056854815278,6.27346281963988,-6.20551300724793,                63P     50
0.0306748396647135,6.60712544214578,-6.16505526416572,                63P     51
0.0948939991949496,6.76737061025363,-6.14547054345281,                63P     52
0.138424341514662,7.11444007629467,-6.10314772779845,                 63P     53
0.270915461398067,7.30009430730181,-6.08059854595255,                 63P     54
0.368792617949841,7.62681538891643,-6.04174815838836,                 63P     55
0.623605647131736,7.75426862291726,-6.02706990188938,                 63P     56
0.769027705666054,7.91940531498868,-6.00855803812215,                 63P     57
1.05861387041326,7.97047476644496,-6.00309901739997,                  63P     58
1.20276801894351,7.99684876856661,-6.00032464480293,                  63P     59
1.40356667357619,8.,-6.,1.45177026763473,8.,-6.,1.5,                  63P     60
1.03304618772583,1.33121852429549,0.,0.,0.;                           63P     61
126,8,2,0,0,0,0,-2.49809154479651,-2.49809154479651,                  65P     62
-2.49809154479651,-1.24904577239825,-1.24904577239825,                65P     63
2.22044604925031D-16,2.22044604925031D-16,1.24904577239825,           65P     64
1.24904577239825,2.49809154479651,2.49809154479651,                   65P     65
2.49809154479651,1.,0.811242185175561,1.,0.811242185175561,1.,        65P     66
0.811242185175561,1.,0.81124218517556,1.,8.,-6.,1.5,                  65P     67
3.67544467966325,-11.766073760449,1.5,-3.16227766016838,              65P     68
-9.48683298050514,1.5,-10.,-7.20759220056126,1.5,-10.,                65P     69
9.9579925010296D-16,1.5,-10.,7.20759220056127,1.5,                    65P     70
-3.16227766016838,9.48683298050514,1.5,3.67544467966325,              65P     71
11.766073760449,1.5,8.,6.,1.5,-2.49809154479651,                      65P     72
2.49809154479651,0.,0.,0.;                                            65P     73
126,15,3,0,0,1,0,-0.51149298505704,-0.51149298505704,                 67P     74
-0.51149298505704,-0.51149298505704,-0.486026841869207,               67P     75
-0.486026841869207,-0.429085167000279,-0.429085167000279,             67P     76
-0.373591592912859,-0.373591592912859,-0.304059719746318,             67P     77
-0.304059719746318,-0.239768151795211,-0.239768151795211,             67P     78
-0.187183761431773,-0.187183761431773,-0.173484216549408,             67P     79
-0.173484216549408,-0.173484216549408,-0.173484216549408,1.,1.,       67P     80
1.,1.,1.,1.,1.,1.,1.,1.,1.,1.,1.,1.,1.,1.,5.7405145828047,            67P     81
6.268691436385,-1.20346441145891D-16,5.81838586122491,                67P     82
6.25961472863962,-3.43491285023366D-17,5.89605337763268,              67P     83
6.2504793416645,0.00210635397545169,6.14605439955029,                 67P     84
6.22085464871237,0.0162150922587303,6.31805052213045,                 67P     85
6.20012807757616,0.0373171861060363,6.64931813221395,                 67P     86
6.15991258857898,0.105410054812497,6.81012818826906,                  67P     87
6.14024794863001,0.152013610790255,7.15565040275573,                  67P     88
6.09813595537343,0.291013269216456,7.33808858310851,                  67P     89
6.07602828540385,0.392848731735687,7.64333082988916,                  67P     90
6.03984395603326,0.642836403110799,7.76832522882861,                  67P     91
6.02546097722838,0.786020268985896,7.93073843945647,                  67P     92
6.00731959414091,1.08585807606344,7.9775588135668,                    67P     93
6.0023479158315,1.23110091955927,7.99792285912264,                    67P     94
6.0002139763617,1.42153181155763,8.,6.,1.46083961576223,8.,6.,        67P     95
1.5,-0.51149298505704,-0.173484216549408,0.,0.,0.;                    67P     96
126,6,2,0,0,0,0,-2.31224181824518,-2.31224181824518,                  69P     97
-2.31224181824518,-0.770747272748394,-0.770747272748394,              69P     98
0.770747272748393,0.770747272748393,2.31224181824518,                 69P     99
2.31224181824518,2.31224181824518,1.,0.717390266319742,1.,            69P    100
0.717390266319742,1.,0.717390266319741,1.,5.7405145828047,            69P    101
6.268691436385,0.,-0.347132534781666,11.8434158279282,0.,             69P    102
-6.0978172637178,5.9217079139641,0.,-11.8485019926539,                69P    103
1.66533453693773D-15,0.,-6.09781726371781,-5.9217079139641,0.,        69P    104
-0.347132534781675,-11.8434158279282,0.,5.74051458280469,             69P    105
-6.268691436385,0.,-2.31224181824518,2.31224181824518,0.,0.,0.;       69P    106
126,3,3,0,0,1,0,1.96974824945271,1.96974824945271,                    71P    107
1.96974824945271,1.96974824945271,2.22758060293734,                   71P    108
2.22758060293734,2.22758060293734,2.22758060293734,1.,1.,1.,1.,       71P    109
5.74051458280469,-6.26869312070314,-1.56619460338348D-6,              71P    110
6.5081656734885,-6.17921551173968,-4.33193623761813D-6,               71P    111
7.26203207154598,-6.08962429710209,-3.40260828401675D-6,8.,-6.,       71P    112
-1.55072821697492D-17,1.96974824945271,2.22758060293734,0.,0.,        71P    113
0.;                                                                   71P    114
126,3,3,0,0,1,0,0.521044175594637,0.521044175594637,                  73P    115
0.521044175594637,0.521044175594637,0.713925561580414,                73P    116
0.713925561580414,0.713925561580414,0.713925561580414,1.,1.,1.,       73P    117
1.,8.,6.,0.,7.26203256570177,6.08962423708834,                        73P    118
-3.40260645106865D-6,6.50816557310233,6.17921552344122,               73P    119
-4.33193707220318D-6,5.74051458280469,6.26869312070408,               73P    120
-1.56619695435012D-6,0.521044175594637,0.713925561580414,0.,0.,       73P    121
0.;                                                                   73P    122
126,1,1,0,0,1,0,1.94066984704477D-13,1.94066984704477D-13,0.6,        75P    123
0.6,1.,1.,8.,1.94066984704477D-12,0.,8.,6.,0.,                        75P    124
1.94066984704477D-13,0.6,0.,0.,0.;                                    75P    125
126,1,1,0,0,1,0,-0.6,-0.6,1.94066984704477D-13,                       77P    126
1.94066984704477D-13,1.,1.,8.,-6.,0.,8.,1.94066984704477D-12,0.,      77P    127
-0.6,1.94066984704477D-13,0.,0.,0.;                                   77P    128
126,8,2,0,1,0,0,-3.14159265358979,-3.14159265358979,                  79P    129
-3.14159265358979,-1.5707963267949,-1.5707963267949,0.,0.,            79P    130
1.5707963267949,1.5707963267949,3.14159265358979,                     79P    131
3.14159265358979,3.14159265358979,1.,0.707106781186548,1.,            79P    132
0.707106781186548,1.,0.707106781186548,1.,0.707106781186548,1.,       79P    133
-3.,3.67394039744206D-16,0.,-3.,3.,0.,1.83697019872103D-16,3.,        79P    134
0.,3.,3.,0.,3.,0.,0.,3.,-3.,0.,1.83697019872103D-16,-3.,0.,-3.,       79P    135
-3.,0.,-3.,-3.67394039744206D-16,0.,-3.14159265358979,                79P    136
3.14159265358979,0.,0.,0.;                                            79P    137
126,15,3,0,0,1,0,-0.742598563242731,-0.742598563242731,               81P    138
-0.742598563242731,-0.742598563242731,-0.732583527713487,             81P    139
-0.732583527713487,-0.69147780486044,-0.69147780486044,               81P    140
-0.654418354721582,-0.654418354721582,-0.61207373288914,              81P    141
-0.61207373288914,-0.573525143077348,-0.573525143077348,              81P    142
-0.54099444308726,-0.54099444308726,-0.534742238635587,               81P    143
-0.534742238635587,-0.534742238635587,-0.534742238635587,1.,1.,       81P    144
1.,1.,1.,1.,1.,1.,1.,1.,1.,1.,1.,1.,1.,1.,5.74051458280469,           81P    145
-6.268691436385,8.,5.79113977339848,-6.26279054366953,8.,             81P    146
5.84162846003676,-6.25687078580323,7.99910971065954,                  81P    147
6.09837835741507,-6.2266103311431,7.98984194074026,                   81P    148
6.30369945560367,-6.20188104926335,7.96669546585359,                  81P    149
6.68128781602972,-6.15602090629002,7.8869732072338,                   81P    150
6.85645289250282,-6.13458403455219,7.83354501047751,                  81P    151
7.21009497608392,-6.09152832108903,7.68040144930579,                  81P    152
7.38725883963309,-6.07013036550017,7.57434101767815,                  81P    153
7.67745882477855,-6.03588231780139,7.3201587681878,                   81P    154
7.79329154147681,-6.02263303972212,7.17787125130092,                  81P    155
7.94329502121653,-6.00595845765474,6.88046486842852,                  81P    156
7.98503977173902,-6.0015590829498,6.73531517979701,                   81P    157
7.99889787798843,-6.00011354874667,6.55716501498187,8.,-6.,           81P    158
6.52852498733936,8.,-6.,6.5,-0.742598563242731,                       81P    159
-0.534742238635587,0.,0.,0.;                                          81P    160
126,6,2,0,0,0,0,-2.31224181824518,-2.31224181824518,                  83P    161
-2.31224181824518,-0.770747272748393,-0.770747272748393,              83P    162
0.770747272748394,0.770747272748394,2.31224181824518,                 83P    163
2.31224181824518,2.31224181824518,1.,0.717390266319741,1.,            83P    164
0.717390266319742,1.,0.717390266319742,1.,5.74051458280469,           83P    165
-6.268691436385,8.,-0.347132534781675,-11.8434158279282,8.,           83P    166
-6.09781726371781,-5.9217079139641,8.,-11.8485019926539,              83P    167
1.66533453693773D-15,8.,-6.0978172637178,5.9217079139641,8.,          83P    168
-0.347132534781666,11.8434158279282,8.,5.7405145828047,               83P    169
6.268691436385,8.,-2.31224181824518,2.31224181824518,0.,0.,0.;        83P    170
126,13,3,0,0,1,0,1.08488274182425,1.08488274182425,                   85P    171
1.08488274182425,1.08488274182425,1.11083854036348,                   85P    172
1.11083854036348,1.1625244808055,1.1625244808055,                     85P    173
1.21060924789587,1.21060924789587,1.27423551720071,                   85P    174
1.27423551720071,1.32728417334391,1.32728417334391,                   85P    175
1.36711401326041,1.36711401326041,1.36711401326041,                   85P    176
1.36711401326041,1.,1.,1.,1.,1.,1.,1.,1.,1.,1.,1.,1.,1.,1.,           85P    177
5.7405145828047,6.268691436385,8.,5.83820266083682,                   85P    178
6.25730487445236,8.,5.93590408350087,6.24578673854602,                85P    179
7.99668698317775,6.22699166822708,6.21116475272086,                   85P    180
7.97576431789789,6.42172474054186,6.18758715515313,                   85P    181
7.94706791065923,6.78862845723238,6.14291086524527,                   85P    182
7.85532942088705,6.96325301468349,6.12153883380337,                   85P    183
7.79434761677641,7.34609333314168,6.07506840988112,                   85P    184
7.60461323408416,7.52582584774685,6.05362672064645,                   85P    185
7.47076459025955,7.78075849697234,6.02402533543618,                   85P    186
7.19126077898988,7.87399016884218,6.01359328633328,                   85P    187
7.04501482710521,7.97683238203699,6.00238899753444,                   85P    188
6.75918275292002,8.,6.,6.63082981896759,8.,6.,6.5,                    85P    189
1.08488274182425,1.36711401326041,0.,0.,0.;                           85P    190
126,8,2,0,0,0,0,-2.49809154479651,-2.49809154479651,                  87P    191
-2.49809154479651,-1.24904577239825,-1.24904577239825,                87P    192
-2.22044604925031D-16,-2.22044604925031D-16,1.24904577239825,         87P    193
1.24904577239825,2.49809154479651,2.49809154479651,                   87P    194
2.49809154479651,1.,0.81124218517556,1.,0.811242185175561,1.,         87P    195
0.811242185175561,1.,0.811242185175561,1.,8.,6.,6.5,                  87P    196
3.67544467966325,11.766073760449,6.5,-3.16227766016838,               87P    197
9.48683298050514,6.5,-10.,7.20759220056127,6.5,-10.,                  87P    198
9.9579925010296D-16,6.5,-10.,-7.20759220056126,6.5,                   87P    199
-3.16227766016838,-9.48683298050514,6.5,3.67544467966325,             87P    200
-11.766073760449,6.5,8.,-6.,6.5,-2.49809154479651,                    87P    201
2.49809154479651,0.,0.,0.;                                            87P    202
126,1,1,0,0,1,0,-0.65,-0.65,-0.15,-0.15,1.,1.,8.,-6.,6.5,8.,-6.,      89P    203
1.5,-0.65,-0.15,0.,0.,0.;                                             89P    204
126,1,1,0,0,1,0,0.15,0.15,0.65,0.65,1.,1.,8.,6.,1.5,8.,6.,6.5,        91P    205
0.15,0.65,0.,0.,0.;                                                   91P    206
126,8,2,0,1,0,0,-3.14159265358979,-3.14159265358979,                  93P    207
-3.14159265358979,-1.5707963267949,-1.5707963267949,0.,0.,            93P    208
1.5707963267949,1.5707963267949,3.14159265358979,                     93P    209
3.14159265358979,3.14159265358979,1.,0.707106781186547,1.,            93P    210
0.707106781186548,1.,0.707106781186548,1.,0.707106781186548,1.,       93P    211
30.,-3.,4.,30.,-3.,7.,30.,4.61252776028392D-16,7.,30.,3.,7.,30.,      93P    212
3.,4.,30.,3.,0.999999999999998,30.,4.61252776028392D-16,              93P    213
0.999999999999998,30.,-3.,0.999999999999998,30.,-3.,4.,               93P    214
-3.14159265358979,3.14159265358979,0.,0.,0.;                          93P    215
126,1,1,0,0,1,0,0.,0.,5.66666666666667,5.66666666666667,1.,1.,        95P    216
30.,-3.,4.,13.,-3.,4.,0.,5.66666666666667,0.,0.,0.;                   95P    217
126,8,2,0,1,0,0,-3.14159265358979,-3.14159265358979,                  97P    218
-3.14159265358979,-1.5707963267949,-1.5707963267949,0.,0.,            97P    219
1.5707963267949,1.5707963267949,3.14159265358979,                     97P    220
3.14159265358979,3.14159265358979,1.,0.707106781186547,1.,            97P    221
0.707106781186548,1.,0.707106781186548,1.,0.707106781186548,1.,       97P    222
13.,-3.,4.,13.,-3.,7.,13.,4.61252776028392D-16,7.,13.,3.,7.,13.,      97P    223
3.,4.,13.,3.,0.999999999999998,13.,4.61252776028392D-16,              97P    224
0.999999999999998,13.,-3.,0.999999999999998,13.,-3.,4.,               97P    225
-3.14159265358979,3.14159265358979,0.,0.,0.;                          97P    226
126,4,2,0,0,0,0,-2.55359005004223,-2.55359005004223,                  99P    227
-2.55359005004223,-1.5707963267949,-1.5707963267949,                  99P    228
-0.588002603547568,-0.588002603547568,-0.588002603547568,1.,          99P    229
0.881674598767944,1.,0.881674598767944,1.,30.,-3.32820117735138,      99P    230
6.21880078490092,30.,-2.14073503395199,8.,30.,                        99P    231
-1.53142747957078D-15,8.,30.,2.14073503395199,8.,30.,                 99P    232
3.32820117735137,6.21880078490092,-2.55359005004223,                  99P    233
-0.588002603547568,0.,0.,0.;                                          99P    234
126,2,2,0,0,0,0,-3.72959525713736,-3.72959525713736,                 101P    235
-3.72959525713736,-2.55359005004223,-2.55359005004223,               101P    236
-2.55359005004223,1.,0.832050294337843,1.,30.,-3.32820117735137,     101P    237
1.78119921509908,30.,-4.80740170061865,4.,30.,-3.32820117735138,     101P    238
6.21880078490092,-3.72959525713736,-2.55359005004223,0.,0.,0.;       101P    239
126,4,2,0,0,0,0,0.588002603547568,0.588002603547568,                 103P    240
0.588002603547568,1.5707963267949,1.5707963267949,                   103P    241
2.55359005004223,2.55359005004223,2.55359005004223,1.,               103P    242
0.881674598767943,1.,0.881674598767944,1.,30.,3.32820117735137,      103P    243
1.78119921509908,30.,2.14073503395199,6.55411076787975D-17,30.,      103P    244
2.44929359829471D-16,0.,30.,-2.14073503395198,                       103P    245
-4.81874741913231D-16,30.,-3.32820117735137,1.78119921509908,        103P    246
0.588002603547568,2.55359005004223,0.,0.,0.;                         103P    247
126,2,2,0,0,0,0,-0.588002603547568,-0.588002603547568,               105P    248
-0.588002603547568,0.588002603547568,0.588002603547568,              105P    249
0.588002603547568,1.,0.832050294337843,1.,30.,3.32820117735137,      105P    250
6.21880078490092,30.,4.80740170061865,4.,30.,3.32820117735137,       105P    251
1.78119921509908,-0.588002603547568,0.588002603547568,0.,0.,0.;      105P    252
126,1,1,0,0,1,0,1.93844940099552D-13,1.93844940099552D-13,0.6,       107P    253
0.6,1.,1.,8.,-1.93844940099552D-12,8.,8.,-6.,8.,                     107P    254
1.93844940099552D-13,0.6,0.,0.,0.;                                   107P    255
126,1,1,0,0,1,0,0.,0.,1.,1.,1.,1.,8.,-6.,8.,30.,                     109P    256
-3.32820117735138,6.21880078490091,0.,1.,0.,0.,0.;                   109P    257
126,1,1,0,0,1,0,0.,0.,1.,1.,1.,1.,8.,6.,8.,30.,3.32820117735137,     111P    258
6.21880078490092,0.,1.,0.,0.,0.;                                     111P    259
126,1,1,0,0,1,0,-0.6,-0.6,1.93844940099552D-13,                      113P    260
1.93844940099552D-13,1.,1.,8.,6.,8.,8.,-1.93844940099552D-12,8.,     113P    261
-0.6,1.93844940099552D-13,0.,0.,0.;                                  113P    262
126,3,3,0,0,1,0,0.437268110346734,0.437268110346734,                 115P    263
0.437268110346734,0.437268110346734,0.648229740227879,               115P    264
0.648229740227879,0.648229740227879,0.648229740227879,1.,1.,1.,      115P    265
1.,5.7405145828047,6.26869623617181,8.00000167027383,                115P    266
6.49006342801702,6.18133897465962,8.00000477723818,                  115P    267
7.24531186721397,6.0916659210758,8.00000389598975,8.,6.,8.,          115P    268
0.437268110346734,0.648229740227879,0.,0.,0.;                        115P    269
126,1,1,0,0,1,0,0.,0.,1.,1.,1.,1.,8.,6.,0.,30.,3.32820117735137,     117P    270
1.78119921509908,0.,1.,0.,0.,0.;                                     117P    271
126,1,1,0,0,1,0,0.,0.,1.,1.,1.,1.,8.,-6.,0.,30.,                     119P    272
-3.32820117735137,1.78119921509908,0.,1.,0.,0.,0.;                   119P    273
126,3,3,0,0,1,0,0.543291352454532,0.543291352454532,                 121P    274
0.543291352454532,0.543291352454532,0.759023170422343,               121P    275
0.759023170422343,0.759023170422343,0.759023170422343,1.,1.,1.,      121P    276
1.,8.,-6.,8.,7.24531190815019,-6.09166591610196,                     121P    277
8.00000389598903,6.4900635616733,-6.18133895907805,                  121P    278
8.00000477723737,5.74051458280469,-6.26869623616336,                 121P    279
8.0000016702712,0.543291352454532,0.759023170422343,0.,0.,0.;        121P    280
126,8,2,0,1,0,0,-3.14159265358979,-3.14159265358979,                 123P    281
-3.14159265358979,-1.5707963267949,-1.5707963267949,0.,0.,           123P    282
1.5707963267949,1.5707963267949,3.14159265358979,                    123P    283
3.14159265358979,3.14159265358979,1.,0.707106781186548,1.,           123P    284
0.707106781186548,1.,0.707106781186548,1.,0.707106781186548,1.,      123P    285
-3.,3.67394039744206D-16,8.,-3.,3.,8.,1.83697019872103D-16,3.,       123P    286
8.,3.,3.,8.,3.,0.,8.,3.,-3.,8.,1.83697019872103D-16,-3.,8.,-3.,      123P    287
-3.,8.,-3.,-3.67394039744206D-16,8.,-3.14159265358979,               123P    288
3.14159265358979,0.,0.,0.;                                           123P    289
126,1,1,0,0,1,0,-2.66666666666667,-2.66666666666667,0.,0.,1.,1.,     125P    290
-3.,0.,8.,-3.,0.,0.,-2.66666666666667,0.,0.,0.,0.;                   125P    291
128,2,8,2,2,0,0,0,0,0,-1.5707963267949,-1.5707963267949,             127P    292
-1.5707963267949,5.55111512312578D-16,5.55111512312578D-16,          127P    293
5.55111512312578D-16,-5.6396841983863,-5.6396841983863,              127P    294
-5.6396841983863,-4.39063842598805,-4.39063842598805,                127P    295
-3.14159265358979,-3.14159265358979,-1.89254688119154,               127P    296
-1.89254688119154,-0.643501108793284,-0.643501108793284,             127P    297
-0.643501108793284,1.,0.707106781186548,1.,0.811242185175561,        127P    298
0.573634850322232,0.811242185175561,1.,0.707106781186548,1.,         127P    299
0.811242185175561,0.573634850322232,0.811242185175561,1.,            127P    300
0.707106781186548,1.,0.811242185175561,0.573634850322232,            127P    301
0.811242185175561,1.,0.707106781186548,1.,0.811242185175561,         127P    302
0.573634850322232,0.811242185175561,1.,0.707106781186548,1.,8.,      127P    303
6.,1.5,8.,6.,-1.62859513296332D-15,6.8,5.1,0.,3.67544467966324,      127P    304
11.766073760449,1.5,3.67544467966324,11.766073760449,                127P    305
-1.64845533107876D-15,3.12412797771375,10.0011626963817,0.,          127P    306
-3.16227766016838,9.48683298050514,1.5,-3.16227766016838,            127P    307
9.48683298050514,-1.67985706149226D-15,-2.68793601114312,            127P    308
8.06380803342937,0.,-10.,7.20759220056126,1.5,-10.,                  127P    309
7.20759220056126,-1.71125879190576D-15,-8.5,6.12645337047707,0.,     127P    310
-10.,0.,1.5,-10.,0.,-1.71125879190576D-15,-8.5,0.,0.,-10.,           127P    311
-7.20759220056127,1.5,-10.,-7.20759220056127,                        127P    312
-1.71125879190576D-15,-8.5,-6.12645337047708,0.,                     127P    313
-3.16227766016838,-9.48683298050514,1.5,-3.16227766016838,           127P    314
-9.48683298050514,-1.67985706149226D-15,-2.68793601114312,           127P    315
-8.06380803342937,0.,3.67544467966324,-11.766073760449,1.5,          127P    316
3.67544467966324,-11.766073760449,-1.64845533107876D-15,             127P    317
3.12412797771376,-10.0011626963817,0.,8.,-6.,1.5,8.,-6.,             127P    318
-1.62859513296332D-15,6.8,-5.1,0.,-1.5707963267949,                  127P    319
5.55111512312578D-16,-5.6396841983863,-0.643501108793284;            127P    320
128,1,1,1,1,0,0,1,0,0,-1.18585019926539,-1.18585019926539,0.801,     129P    321
0.801,-1.18534158279282,-1.18534158279282,1.18534158279282,          129P    322
1.18534158279282,1.,1.,1.,1.,8.01,-11.8534158279282,0.,              129P    323
-11.8585019926539,-11.8534158279282,0.,8.01,11.8534158279282,0.,     129P    324
-11.8585019926539,11.8534158279282,0.,-1.18585019926539,0.801,       129P    325
-1.18534158279282,1.18534158279282;                                  129P    326
128,2,8,2,2,0,0,0,0,0,-1.48029736616688D-15,                         131P    327
-1.48029736616688D-15,-1.48029736616688D-15,1.5707963267949,         131P    328
1.5707963267949,1.5707963267949,-5.6396841983863,                    131P    329
-5.6396841983863,-5.6396841983863,-4.39063842598805,                 131P    330
-4.39063842598805,-3.14159265358979,-3.14159265358979,               131P    331
-1.89254688119154,-1.89254688119154,-0.643501108793284,              131P    332
-0.643501108793284,-0.643501108793284,1.,0.707106781186546,1.,       131P    333
0.811242185175561,0.57363485032223,0.811242185175561,1.,             131P    334
0.707106781186546,1.,0.811242185175561,0.57363485032223,             131P    335
0.811242185175561,1.,0.707106781186546,1.,0.811242185175561,         131P    336
0.57363485032223,0.811242185175561,1.,0.707106781186546,1.,          131P    337
0.811242185175561,0.57363485032223,0.811242185175561,1.,             131P    338
0.707106781186546,1.,6.8,5.1,8.,8.,6.,8.,8.,6.,6.5,                  131P    339
3.12412797771375,10.0011626963817,8.,3.67544467966324,               131P    340
11.766073760449,8.,3.67544467966324,11.766073760449,6.5,             131P    341
-2.68793601114312,8.06380803342937,8.,-3.16227766016838,             131P    342
9.48683298050514,8.,-3.16227766016838,9.48683298050514,6.5,-8.5,     131P    343
6.12645337047707,8.,-10.,7.20759220056127,8.,-10.,                   131P    344
7.20759220056126,6.5,-8.5,0.,8.,-10.,0.,8.,-10.,0.,6.5,-8.5,         131P    345
-6.12645337047708,8.,-10.,-7.20759220056127,8.,-10.,                 131P    346
-7.20759220056127,6.5,-2.68793601114312,-8.06380803342937,8.,        131P    347
-3.16227766016838,-9.48683298050514,8.,-3.16227766016838,            131P    348
-9.48683298050514,6.5,3.12412797771376,-10.0011626963817,8.,         131P    349
3.67544467966324,-11.766073760449,8.,3.67544467966324,               131P    350
-11.766073760449,6.5,6.8,-5.1,8.,8.,-6.,8.,8.,-6.,6.5,               131P    351
-1.48029736616688D-15,1.5707963267949,-5.6396841983863,              131P    352
-0.643501108793284;                                                  131P    353
128,1,8,1,2,0,0,0,0,0,0.15,0.15,0.65,0.65,0.643501108793284,         133P    354
0.643501108793284,0.643501108793284,1.89254688119154,                133P    355
1.89254688119154,3.14159265358979,3.14159265358979,                  133P    356
4.39063842598805,4.39063842598805,5.6396841983863,                   133P    357
5.6396841983863,5.6396841983863,1.,1.,0.811242185175561,             133P    358
0.811242185175561,1.,1.,0.811242185175561,0.811242185175561,1.,      133P    359
1.,0.811242185175561,0.811242185175561,1.,1.,0.811242185175561,      133P    360
0.811242185175561,1.,1.,8.,6.,6.5,8.,6.,1.5,3.67544467966324,        133P    361
11.766073760449,6.5,3.67544467966324,11.766073760449,1.5,            133P    362
-3.16227766016838,9.48683298050514,6.5,-3.16227766016838,            133P    363
9.48683298050514,1.5,-10.,7.20759220056127,6.5,-10.,                 133P    364
7.20759220056127,1.5,-10.,0.,6.5,-10.,0.,1.5,-10.,                   133P    365
-7.20759220056126,6.5,-10.,-7.20759220056126,1.5,                    133P    366
-3.16227766016838,-9.48683298050514,6.5,-3.16227766016838,           133P    367
-9.48683298050514,1.5,3.67544467966324,-11.766073760449,6.5,         133P    368
3.67544467966324,-11.766073760449,1.5,8.,-6.,6.5,8.,-6.,1.5,         133P    369
0.15,0.65,0.643501108793284,5.6396841983863;                         133P    370
128,1,8,1,2,0,1,0,0,1,0.,0.,5.66666666666667,5.66666666666667,       135P    371
-3.14159265358979,-3.14159265358979,-3.14159265358979,               135P    372
-1.5707963267949,-1.5707963267949,0.,0.,1.5707963267949,             135P    373
1.5707963267949,3.14159265358979,3.14159265358979,                   135P    374
3.14159265358979,1.,1.,0.707106781186548,0.707106781186548,1.,       135P    375
1.,0.707106781186548,0.707106781186548,1.,1.,0.707106781186548,      135P    376
0.707106781186548,1.,1.,0.707106781186548,0.707106781186548,1.,      135P    377
1.,30.,-3.,4.,13.,-3.,4.,30.,-3.,7.,13.,-3.,7.,30.,                  135P    378
2.77555756156289D-16,7.,13.,2.77555756156289D-16,7.,30.,3.,7.,       135P    379
13.,3.,7.,30.,3.,4.,13.,3.,4.,30.,3.,0.999999999999998,13.,3.,       135P    380
0.999999999999998,30.,2.77555756156289D-16,0.999999999999998,        135P    381
13.,2.77555756156289D-16,0.999999999999998,30.,-3.,                  135P    382
0.999999999999998,13.,-3.,0.999999999999998,30.,-3.,4.,13.,-3.,      135P    383
4.,0.,5.66666666666667,-3.14159265358979,3.14159265358979;           135P    384
128,1,1,1,1,0,0,1,0,0,-0.301,-0.301,0.301,0.301,-0.301,-0.301,       137P    385
0.301,0.301,1.,1.,1.,1.,13.,-3.01,0.989999999999998,13.,3.01,        137P    386
0.989999999999998,13.,-3.01,7.01,13.,3.01,7.01,-0.301,0.301,         137P    387
-0.301,0.301;                                                        137P    388
128,1,1,1,1,0,0,1,0,0,-0.401,-0.401,0.401,0.401,                     139P    389
-0.481740170061865,-0.481740170061865,0.481740170061865,             139P    390
0.481740170061865,1.,1.,1.,1.,30.,-4.81740170061865,8.01,30.,        139P    391
-4.81740170061865,-0.0100000000000006,30.,4.81740170061865,8.01,     139P    392
30.,4.81740170061865,-0.0100000000000011,-0.401,0.401,               139P    393
-0.481740170061865,0.481740170061865;                                139P    394
128,5,3,3,3,0,0,1,0,0,0.,0.,0.,0.,0.428571428571429,                 141P    395
0.714285714285714,1.,1.,1.,1.,0.,0.,0.,0.,1.,1.,1.,1.,1.,1.,1.,      141P    396
1.,1.,1.,1.,1.,1.,1.,1.,1.,1.,1.,1.,1.,1.,1.,1.,1.,1.,1.,1.,1.,      141P    397
8.,6.,8.,8.,4.28571428571428,8.,8.,1.42857142857143,8.,8.,           141P    398
-2.57142857142857,8.,8.,-4.85714285714286,8.,8.,-6.,8.,              141P    399
15.3333333333333,5.10940039245046,7.40626692830031,                  141P    400
15.3333333333333,3.76097789229509,7.7205777782356,                   141P    401
15.3333333333333,1.27837292286054,8.07743334025277,                  141P    402
15.3333333333333,-2.28931421843358,7.94866607937432,                 141P    403
15.3333333333333,-4.20916315907701,7.61447928617181,                 141P    404
15.3333333333333,-5.10940039245046,7.40626692830031,                 141P    405
22.6666666666667,4.21880078490092,6.81253385660061,                  141P    406
22.6666666666667,3.22990228947432,7.43277592860969,                  141P    407
22.6666666666667,1.12911697741339,8.15575350505657,                  141P    408
22.6666666666667,-2.00938248616347,7.89342827428862,                 141P    409
22.6666666666667,-3.56082402121972,7.22735678002536,                 141P    410
22.6666666666667,-4.21880078490092,6.81253385660061,30.,             141P    411
3.32820117735138,6.21880078490092,30.,2.70516589605513,              141P    412
7.15335370684529,30.,0.97891847170251,8.23318684530934,30.,          141P    413
-1.72726813316848,7.84209435366294,30.,-2.91284432315388,            141P    414
6.84183606619716,30.,-3.32820117735138,6.21880078490092,0.,1.,       141P    415
0.,1.;                                                               141P    416
128,4,3,3,3,0,0,1,0,0,-2.73480263162218D-17,                         143P    417
-2.73480263162218D-17,-2.73480263162218D-17,                         143P    418
-2.73480263162218D-17,0.428571428571429,1.,1.,1.,1.,                 143P    419
-0.102703901846953,-0.102703901846953,-0.102703901846953,            143P    420
-0.102703901846953,1.,1.,1.,1.,1.,1.,1.,1.,1.,1.,1.,1.,1.,1.,1.,     143P    421
1.,1.,1.,1.,1.,1.,1.,1.,1.,5.74051415936703,6.27440416403611,        143P    422
-0.182936109357409,5.74051415936703,6.23612023885411,                143P    423
1.01987103355183,5.74051415936703,6.18113314467735,                  143P    424
3.80339194401882,5.74051415936703,6.22335893046011,                  143P    425
6.57919325214509,5.74051415936703,6.27440416403611,                  143P    426
8.18293610935741,13.827009439578,5.29233650180786,                   143P    427
0.471775665461422,13.827009439578,5.3912051399569,                   143P    428
1.45971153261904,13.827009439578,5.5323861653266,                    143P    429
3.82524036546849,13.827009439578,5.42549160778187,                   143P    430
6.21102686170022,13.827009439578,5.29233650180786,                   143P    431
7.52822433453858,21.913504719789,4.31026883957962,                   143P    432
1.12648744028025,21.913504719789,4.5458764586129,                    143P    433
1.90049898957836,21.913504719789,4.88510274169293,                   143P    434
3.84737969720665,21.913504719789,4.62308207651537,                   143P    435
5.84144681061714,21.913504719789,4.31026883957962,                   143P    436
6.87351255971975,30.,3.32820117735137,1.78119921509908,30.,          143P    437
3.7009613597157,2.34033948864557,30.,4.23635576234218,               143P    438
3.86922811865632,30.,3.82521475383714,5.47328042017227,30.,          143P    439
3.32820117735137,6.21880078490092,-2.73480263162218D-17,1.,          143P    440
-0.102703901846953,1.;                                               143P    441
128,5,3,3,3,0,0,1,0,0,0.,0.,0.,0.,0.428571428571429,                 145P    442
0.714285714285714,1.,1.,1.,1.,0.,0.,0.,0.,1.,1.,1.,1.,1.,1.,1.,      145P    443
1.,1.,1.,1.,1.,1.,1.,1.,1.,1.,1.,1.,1.,1.,1.,1.,1.,1.,1.,1.,1.,      145P    444
8.,-6.,0.,8.,-4.28571428571428,0.,8.,-1.42857142857143,0.,8.,        145P    445
2.57142857142857,0.,8.,4.85714285714286,0.,8.,6.,0.,                 145P    446
15.3333333333333,-5.10940039245046,0.593733071699694,                145P    447
15.3333333333333,-3.76097789229509,0.279422221764403,                145P    448
15.3333333333333,-1.27837292286054,-0.0774333402527727,              145P    449
15.3333333333333,2.28931421843358,0.0513339206256824,                145P    450
15.3333333333333,4.20916315907701,0.385520713828195,                 145P    451
15.3333333333333,5.10940039245046,0.593733071699694,                 145P    452
22.6666666666667,-4.21880078490092,1.18746614339939,                 145P    453
22.6666666666667,-3.22990228947432,0.567224071390308,                145P    454
22.6666666666667,-1.1292248517781,-0.15591851953795,                 145P    455
22.6666666666667,2.00935063176328,0.106485301636344,                 145P    456
22.6666666666667,3.56082402121972,0.772643219974641,                 145P    457
22.6666666666667,4.21880078490092,1.18746614339939,30.,              145P    458
-3.32820117735137,1.78119921509908,30.,-2.70516589605513,            145P    459
0.84664629315471,30.,-0.979026346067212,-0.233351859790723,30.,      145P    460
1.72723627876829,0.157819222262026,30.,2.91284432315388,             145P    461
1.15816393380284,30.,3.32820117735137,1.78119921509908,0.,1.,0.,     145P    462
1.;                                                                  145P    463
128,4,3,3,3,0,0,1,0,0,-1.66515911744832D-17,                         147P    464
-1.66515911744832D-17,-1.66515911744832D-17,                         147P    465
-1.66515911744832D-17,0.571428571428572,1.,1.,1.,1.,                 147P    466
-0.102703882599787,-0.102703882599787,-0.102703882599787,            147P    467
-0.102703882599787,1.,1.,1.,1.,1.,1.,1.,1.,1.,1.,1.,1.,1.,1.,1.,     147P    468
1.,1.,1.,1.,1.,1.,1.,1.,1.,5.74051458280469,-6.27440411261155,       147P    469
8.18293607507438,5.74051458280469,-6.22335888860166,                 147P    470
6.57919323284192,5.74051458280469,-6.1811331107322,                  147P    471
3.80339194516797,5.74051458280469,-6.23612019460413,                 147P    472
1.01987105659997,5.74051458280469,-6.27440411261155,                 147P    473
-0.182936075074369,13.8270097218698,-5.29233646752483,               147P    474
7.52822431168322,13.8270097218698,-5.42549157984981,                 147P    475
6.21102684882322,13.8270097218698,-5.53238614270501,                 147P    476
3.82524036623628,13.8270097218698,-5.39120511045451,                 147P    477
1.45971154798998,13.8270097218698,-5.29233646752482,                 147P    478
0.471775688316782,21.9135048609349,-4.3102688224381,                 147P    479
6.87351254829207,21.9135048609349,-4.62308206258898,                 147P    480
5.84144680419098,21.9135048609349,-4.88510273036937,                 147P    481
3.84737969758801,21.9135048609349,-4.54587644386532,                 147P    482
1.90049899725556,21.9135048609349,-4.3102688224381,                  147P    483
1.12648745170793,30.,-3.32820117735138,6.21880078490092,30.,         147P    484
-3.82521475383714,5.47328042017227,30.,-4.23635576234218,            147P    485
3.86922811865632,30.,-3.7009613597157,2.34033948864557,30.,          147P    486
-3.32820117735137,1.78119921509908,-1.66515911744832D-17,1.,         147P    487
-0.102703882599787,1.;                                               147P    488
128,1,1,1,1,0,0,1,0,0,-1.18585019926539,-1.18585019926539,0.801,     149P    489
0.801,-1.18534158279282,-1.18534158279282,1.18534158279282,          149P    490
1.18534158279282,1.,1.,1.,1.,-11.8585019926539,                      149P    491
-11.8534158279282,8.,8.01,-11.8534158279282,8.,                      149P    492
-11.8585019926539,11.8534158279282,8.,8.01,11.8534158279282,8.,      149P    493
-1.18585019926539,0.801,-1.18534158279282,1.18534158279282;          149P    494
128,1,8,1,2,0,1,0,0,1,0.,0.,2.66666666666667,2.66666666666667,       151P    495
-3.14159265358979,-3.14159265358979,-3.14159265358979,               151P    496
-1.5707963267949,-1.5707963267949,0.,0.,1.5707963267949,             151P    497
1.5707963267949,3.14159265358979,3.14159265358979,                   151P    498
3.14159265358979,1.,1.,0.707106781186548,0.707106781186548,1.,       151P    499
1.,0.707106781186548,0.707106781186548,1.,1.,0.707106781186548,      151P    500
0.707106781186548,1.,1.,0.707106781186548,0.707106781186548,1.,      151P    501
1.,-3.,0.,0.,-3.,0.,8.,-3.,-3.,0.,-3.,-3.,8.,0.,-3.,0.,0.,-3.,       151P    502
8.,3.,-3.,0.,3.,-3.,8.,3.,0.,0.,3.,0.,8.,3.,3.,0.,3.,3.,8.,0.,       151P    503
3.,0.,0.,3.,8.,-3.,3.,0.,-3.,3.,8.,-3.,0.,0.,-3.,0.,8.,0.,           151P    504
2.66666666666667,-3.14159265358979,3.14159265358979;                 151P    505
502,22,5.74051458280469,-6.268691436385,0.,8.,-6.,1.5,8.,6.,1.5,     153P    506
5.7405145828047,6.268691436385,0.,8.,-6.,0.,8.,6.,0.,8.,             153P    507
1.94066984704477D-12,0.,-3.,-3.67394039744206D-16,0.,                153P    508
5.74051458280469,-6.268691436385,8.,8.,-6.,6.5,5.7405145828047,      153P    509
6.268691436385,8.,8.,6.,6.5,30.,-3.,4.,13.,-3.,4.,30.,               153P    510
-3.32820117735138,6.21880078490091,30.,3.32820117735137,             153P    511
6.21880078490092,30.,-3.32820117735137,1.78119921509908,30.,         153P    512
3.32820117735137,1.78119921509908,8.,-1.93844940099552D-12,8.,       153P    513
8.,-6.,8.,8.,6.,8.,-3.,-3.67394039744206D-16,8.;                     153P    514
504,32,63,153,1,153,2,65,153,2,153,3,67,153,4,153,3,69,153,4,        155P    515
153,1,71,153,1,153,5,73,153,6,153,4,75,153,7,153,6,77,153,5,153,     155P    516
7,79,153,8,153,8,81,153,9,153,10,83,153,9,153,11,85,153,11,153,      155P    517
12,87,153,12,153,10,89,153,10,153,2,91,153,3,153,12,93,153,13,       155P    518
153,13,95,153,13,153,14,97,153,14,153,14,99,153,15,153,16,101,       155P    519
153,17,153,15,103,153,18,153,17,105,153,16,153,18,107,153,19,        155P    520
153,20,109,153,20,153,15,111,153,21,153,16,113,153,21,153,19,        155P    521
115,153,11,153,21,117,153,6,153,18,119,153,5,153,17,121,153,20,      155P    522
153,9,123,153,22,153,22,125,153,22,153,8;                            155P    523
406,1,5HBody1;                                                       157P    524
314,96.078431372549,96.078431372549,96.4705882352941,19HAluminum     159P    525
 - Polished;                                                         159P    526
314,62.7450980392157,62.7450980392157,62.7450980392157,13HSteel      161P    527
- Satin;                                                             161P    528
S      1G      3D    162P    528                                        T      1
