                                                                        S      1
,,11HTube 125 v4,11HTube 125 v4,7Hunknown,7Hunknown,32,38,7,99,15,,1.,2,G      1
2HMM,1,0.08,15H20201205.181600,0.01,10000.,7Hunknown,7Hunknown,11,0,15H2G      2
0200210.141030;                                                         G      3
     186       1                                                00000000D      1
     186             -51       1       0                               0D      2
     514       2                                                00010000D      3
     514                       1       1                               0D      4
     510       3                                                00010000D      5
     510             -51       1       1                               0D      6
     510       4                                                00010000D      7
     510             -51       1       1                               0D      8
     510       5                                                00010000D      9
     510             -51       1       1                               0D     10
     510       6                                                00010000D     11
     510             -51       1       1                               0D     12
     508       7                                                00010000D     13
     508                       1       1                               0D     14
     508       8                                                00010000D     15
     508                       1       1                               0D     16
     508       9                                                00010000D     17
     508                       1       1                               0D     18
     508      10                                                00010000D     19
     508                       1       1                               0D     20
     508      11                                                00010000D     21
     508                       1       1                               0D     22
     508      12                                                00010000D     23
     508                       1       1                               0D     24
     126      13                                                00010000D     25
     126       0              10       0                               0D     26
     126      23                                                00010000D     27
     126       0               2       0                               0D     28
     126      25                                                00010000D     29
     126       0               9       0                               0D     30
     126      34                                                00010000D     31
     126       0              10       0                               0D     32
     126      44                                                00010000D     33
     126       0               2       0                               0D     34
     126      46                                                00010000D     35
     126       0               9       0                               0D     36
     128      55                                                00010000D     37
     128       0     -51      12       0                               0D     38
     128      67                                                00010000D     39
     128       0     -51      11       0                               0D     40
     128      78                                                00010000D     41
     128       0     -51       3       0                               0D     42
     128      81                                                00010000D     43
     128       0     -51       3       0                               0D     44
     502      84                                                00010000D     45
     502                       3       1                               0D     46
     504      87                                                00010001D     47
     504                       2       1                               0D     48
     406      89                                                00000000D     49
     406                       1      15                               0D     50
     314      90                                                00000200D     51
     314                       2       0                               0D     52
     314      92                                                00000200D     53
     314                       2       0                               0D     54
186,3,1,0,0,1,49;                                                      1P      1
514,4,5,1,7,1,9,1,11,1;                                                3P      2
510,37,1,1,13;                                                         5P      3
510,39,1,1,15;                                                         7P      4
510,41,2,1,17,19;                                                      9P      5
510,43,2,1,21,23;                                                     11P      6
508,4,0,47,1,0,0,0,47,2,1,0,0,47,3,1,0,0,47,2,0,0;                    13P      7
508,4,0,47,4,0,0,0,47,5,1,0,0,47,6,1,0,0,47,5,0,0;                    15P      8
508,1,0,47,4,1,0;                                                     17P      9
508,1,0,47,1,1,0;                                                     19P     10
508,1,0,47,6,0,0;                                                     21P     11
508,1,0,47,3,0,0;                                                     23P     12
126,8,2,0,1,0,0,-3.14159265358979,-3.14159265358979,                  25P     13
-3.14159265358979,-1.5707963267949,-1.5707963267949,0.,0.,            25P     14
1.5707963267949,1.5707963267949,3.14159265358979,                     25P     15
3.14159265358979,3.14159265358979,1.,0.707106781186547,1.,            25P     16
0.707106781186548,1.,0.707106781186548,1.,0.707106781186547,1.,       25P     17
-8.5,1.04094977927525D-15,125.,-8.5,8.5,125.,                         25P     18
5.20474889637625D-16,8.5,125.,8.5,8.5,125.,8.5,0.,125.,8.5,-8.5,      25P     19
125.,5.20474889637625D-16,-8.5,125.,-8.5,-8.5,125.,-8.5,              25P     20
-1.04094977927525D-15,125.,-3.14159265358979,3.14159265358979,        25P     21
0.,0.,0.;                                                             25P     22
126,1,1,0,0,1,0,-14.7058823529412,-14.7058823529412,0.,0.,1.,1.,      27P     23
-8.5,0.,125.,-8.5,0.,0.,-14.7058823529412,0.,0.,0.,0.;                27P     24
126,8,2,0,1,0,0,-3.14159265358979,-3.14159265358979,                  29P     25
-3.14159265358979,-1.5707963267949,-1.5707963267949,0.,0.,            29P     26
1.5707963267949,1.5707963267949,3.14159265358979,                     29P     27
3.14159265358979,3.14159265358979,1.,0.707106781186547,1.,            29P     28
0.707106781186548,1.,0.707106781186548,1.,0.707106781186547,1.,       29P     29
-8.5,1.04094977927525D-15,0.,-8.5,8.5,0.,5.20474889637625D-16,        29P     30
8.5,0.,8.5,8.5,0.,8.5,0.,0.,8.5,-8.5,0.,5.20474889637625D-16,         29P     31
-8.5,0.,-8.5,-8.5,0.,-8.5,-1.04094977927525D-15,0.,                   29P     32
-3.14159265358979,3.14159265358979,0.,0.,0.;                          29P     33
126,8,2,0,1,0,0,-3.14159265358979,-3.14159265358979,                  31P     34
-3.14159265358979,-1.5707963267949,-1.5707963267949,0.,0.,            31P     35
1.5707963267949,1.5707963267949,3.14159265358979,                     31P     36
3.14159265358979,3.14159265358979,1.,0.707106781186547,1.,            31P     37
0.707106781186548,1.,0.707106781186548,1.,0.707106781186547,1.,       31P     38
-10.,-1.22464679914735D-15,125.,-10.,-10.,125.,                       31P     39
6.12323399573677D-16,-10.,125.,10.,-10.,125.,10.,0.,125.,10.,         31P     40
10.,125.,6.12323399573677D-16,10.,125.,-10.,10.,125.,-10.,            31P     41
1.22464679914735D-15,125.,-3.14159265358979,3.14159265358979,0.,      31P     42
0.,0.;                                                                31P     43
126,1,1,0,0,1,0,-12.5,-12.5,0.,0.,1.,1.,-10.,0.,125.,-10.,0.,0.,      33P     44
-12.5,0.,0.,0.,0.;                                                    33P     45
126,8,2,0,1,0,0,-3.14159265358979,-3.14159265358979,                  35P     46
-3.14159265358979,-1.5707963267949,-1.5707963267949,0.,0.,            35P     47
1.5707963267949,1.5707963267949,3.14159265358979,                     35P     48
3.14159265358979,3.14159265358979,1.,0.707106781186547,1.,            35P     49
0.707106781186548,1.,0.707106781186548,1.,0.707106781186547,1.,       35P     50
-10.,-1.22464679914735D-15,0.,-10.,-10.,0.,6.12323399573677D-16,      35P     51
-10.,0.,10.,-10.,0.,10.,0.,0.,10.,10.,0.,6.12323399573677D-16,        35P     52
10.,0.,-10.,10.,0.,-10.,1.22464679914735D-15,0.,                      35P     53
-3.14159265358979,3.14159265358979,0.,0.,0.;                          35P     54
128,1,8,1,2,0,1,0,0,1,0.,0.,14.7058823529412,14.7058823529412,        37P     55
-3.14159265358979,-3.14159265358979,-3.14159265358979,                37P     56
-1.5707963267949,-1.5707963267949,0.,0.,1.5707963267949,              37P     57
1.5707963267949,3.14159265358979,3.14159265358979,                    37P     58
3.14159265358979,1.,1.,0.707106781186548,0.707106781186548,1.,        37P     59
1.,0.707106781186548,0.707106781186548,1.,1.,0.707106781186548,       37P     60
0.707106781186548,1.,1.,0.707106781186548,0.707106781186548,1.,       37P     61
1.,-8.5,0.,0.,-8.5,0.,125.,-8.5,-8.5,0.,-8.5,-8.5,125.,0.,-8.5,       37P     62
0.,0.,-8.5,125.,8.5,-8.5,0.,8.5,-8.5,125.,8.5,0.,0.,8.5,0.,125.,      37P     63
8.5,8.5,0.,8.5,8.5,125.,0.,8.5,0.,0.,8.5,125.,-8.5,8.5,0.,-8.5,       37P     64
8.5,125.,-8.5,0.,0.,-8.5,0.,125.,0.,14.7058823529412,                 37P     65
-3.14159265358979,3.14159265358979;                                   37P     66
128,1,8,1,2,0,1,0,0,1,0.,0.,12.5,12.5,-3.14159265358979,              39P     67
-3.14159265358979,-3.14159265358979,-1.5707963267949,                 39P     68
-1.5707963267949,0.,0.,1.5707963267949,1.5707963267949,               39P     69
3.14159265358979,3.14159265358979,3.14159265358979,1.,1.,             39P     70
0.707106781186548,0.707106781186548,1.,1.,0.707106781186548,          39P     71
0.707106781186548,1.,1.,0.707106781186548,0.707106781186548,1.,       39P     72
1.,0.707106781186548,0.707106781186548,1.,1.,-10.,0.,125.,-10.,       39P     73
0.,0.,-10.,-10.,125.,-10.,-10.,0.,0.,-10.,125.,0.,-10.,0.,10.,        39P     74
-10.,125.,10.,-10.,0.,10.,0.,125.,10.,0.,0.,10.,10.,125.,10.,         39P     75
10.,0.,0.,10.,125.,0.,10.,0.,-10.,10.,125.,-10.,10.,0.,-10.,0.,       39P     76
125.,-10.,0.,0.,0.,12.5,-3.14159265358979,3.14159265358979;           39P     77
128,1,1,1,1,0,0,1,0,0,-1.001,-1.001,1.001,1.001,-1.001,-1.001,        41P     78
1.001,1.001,1.,1.,1.,1.,-10.01,-10.01,125.,10.01,-10.01,125.,         41P     79
-10.01,10.01,125.,10.01,10.01,125.,-1.001,1.001,-1.001,1.001;         41P     80
128,1,1,1,1,0,0,1,0,0,-1.001,-1.001,1.001,1.001,-1.001,-1.001,        43P     81
1.001,1.001,1.,1.,1.,1.,10.01,-10.01,0.,-10.01,-10.01,0.,10.01,       43P     82
10.01,0.,-10.01,10.01,0.,-1.001,1.001,-1.001,1.001;                   43P     83
502,4,-8.5,-1.04094977927525D-15,125.,-8.5,                           45P     84
-1.04094977927525D-15,0.,-10.,-1.22464679914735D-15,125.,-10.,        45P     85
-1.22464679914735D-15,0.;                                             45P     86
504,6,25,45,1,45,1,27,45,1,45,2,29,45,2,45,2,31,45,3,45,3,33,45,      47P     87
3,45,4,35,45,4,45,4;                                                  47P     88
406,1,5HBody1;                                                        49P     89
314,96.078431372549,96.078431372549,96.4705882352941,19HAluminum      51P     90
 - Polished;                                                          51P     91
314,62.7450980392157,62.7450980392157,62.7450980392157,13HSteel       53P     92
- Satin;                                                              53P     93
S      1G      3D     54P     93                                        T      1
