0
SECTION
2
HEADER
9
$INSUNITS
70
4
9
$ACADVER
1
AC1014
9
$HANDSEED
5
FFFF
0
ENDSEC
0
SECTION
2
TABLES
0
TABLE
2
VPORT
5
8
100
AcDbSymbolTable
0
ENDTAB
0
TABLE
2
LTYPE
5
5
100
AcDbSymbolTable
0
LTYPE
5
14
100
AcDbSymbolTableRecord
100
AcDbLinetypeTableRecord
2
BYBLOCK
70
0
0
LTYPE
5
15
100
AcDbSymbolTableRecord
100
AcDbLinetypeTableRecord
2
BYLAYER
70
0
0
ENDTAB
0
TABLE
2
LAYER
5
2
100
AcDbSymbolTable
70
2
0
LAYER
5
50
100
AcDbSymbolTableRecord
100
AcDbLayerTableRecord
2
0
70
0
6
CONTINUOUS
0
ENDTAB
0
TABLE
2
STYLE
5
3
100
AcDbSymbolTable
70
1
0
STYLE
5
11
100
AcDbSymbolTableRecord
100
AcDbTextStyleTableRecord
2
STANDARD
70
0
0
ENDTAB
0
TABLE
2
VIEW
5
6
100
AcDbSymbolTable
70
0
0
ENDTAB
0
TABLE
2
UCS
5
7
100
AcDbSymbolTable
70
0
0
ENDTAB
0
TABLE
2
APPID
5
9
100
AcDbSymbolTable
70
2
0
APPID
5
12
100
AcDbSymbolTableRecord
100
AcDbRegAppTableRecord
2
ACAD
70
0
0
ENDTAB
0
TABLE
2
DIMSTYLE
5
A
100
AcDbSymbolTable
70
1
0
ENDTAB
0
TABLE
2
BLOCK_RECORD
5
1
100
AcDbSymbolTable
70
1
0
BLOCK_RECORD
5
1F
100
AcDbSymbolTableRecord
100
AcDbBlockTableRecord
2
*MODEL_SPACE
0
BLOCK_RECORD
5
1B
100
AcDbSymbolTableRecord
100
AcDbBlockTableRecord
2
*PAPER_SPACE
0
ENDTAB
0
ENDSEC
0
SECTION
2
BLOCKS
0
BLOCK
5
20
100
AcDbEntity
100
AcDbBlockBegin
2
*MODEL_SPACE
0
ENDBLK
5
21
100
AcDbEntity
100
AcDbBlockEnd
0
BLOCK
5
1C
100
AcDbEntity
100
AcDbBlockBegin
2
*PAPER_SPACE
0
ENDBLK
5
1D
100
AcDbEntity
100
AcDbBlockEnd
0
ENDSEC
0
SECTION
2
ENTITIES
0
LINE
5
100
100
AcDbEntity
8
0
100
AcDbLine
10
-79.25
20
60.89999999999884
30
0
11
79.250000000000014
21
60.900000000001164
31
0
0
LINE
5
101
100
AcDbEntity
8
0
100
AcDbLine
10
79.250000000000014
20
60.900000000001164
30
0
11
79.249999999999986
21
-60.899999999998833
31
0
0
LINE
5
102
100
AcDbEntity
8
0
100
AcDbLine
10
79.249999999999986
20
-60.899999999998833
30
0
11
-79.25
21
-60.900000000001164
31
0
0
LINE
5
103
100
AcDbEntity
8
0
100
AcDbLine
10
-79.25
20
-60.900000000001164
30
0
11
-79.25
21
60.89999999999884
31
0
0
LINE
5
104
100
AcDbEntity
8
0
100
AcDbLine
10
-79.25
20
60.89999999999884
30
0
11
79.249999999999986
21
-60.899999999998833
31
0
0
LINE
5
105
100
AcDbEntity
8
0
100
AcDbLine
10
79.250000000000014
20
60.900000000001164
30
0
11
-79.25
21
-60.900000000001164
31
0
0
LINE
5
106
100
AcDbEntity
8
0
100
AcDbLine
10
79.25
20
-40.899999999999999
30
0
11
-79.249999999999957
21
-40.899999999999999
31
0
0
LINE
5
107
100
AcDbEntity
8
0
100
AcDbLine
10
-79.249999999999957
20
-40.899999999999999
30
0
11
-79.25
21
40.899999999999999
31
0
0
LINE
5
108
100
AcDbEntity
8
0
100
AcDbLine
10
-79.25
20
40.899999999999999
30
0
11
79.249999999999972
21
40.899999999999999
31
0
0
LINE
5
109
100
AcDbEntity
8
0
100
AcDbLine
10
79.249999999999972
20
40.899999999999999
30
0
11
79.25
21
-40.899999999999999
31
0
0
LINE
5
110
100
AcDbEntity
8
0
100
AcDbLine
10
79.25
20
-40.899999999999999
30
0
11
-79.25
21
40.899999999999999
31
0
0
LINE
5
111
100
AcDbEntity
8
0
100
AcDbLine
10
-79.249999999999957
20
-40.899999999999999
30
0
11
79.249999999999972
21
40.899999999999999
31
0
0
LINE
5
112
100
AcDbEntity
8
0
100
AcDbLine
10
0
20
0
30
0
11
6.7723604502134549e-14
21
60.899999999999878
31
0
0
LINE
5
113
100
AcDbEntity
8
0
100
AcDbLine
10
-79.25
20
60.89999999999884
30
0
11
79.249999999999972
21
40.899999999999999
31
0
0
LINE
5
114
100
AcDbEntity
8
0
100
AcDbLine
10
-2.0539125955565396e-14
20
50.900000000000006
30
0
11
-79.250000000000128
21
50.900000000000333
31
0
0
LINE
5
115
100
AcDbEntity
8
0
100
AcDbLine
10
-2.0539125955565396e-14
20
50.900000000000006
30
0
11
79.250000000000028
21
50.899999999999153
31
0
0
LWPOLYLINE
5
116
100
AcDbEntity
8
0
100
AcDbPolyline
90
4
70
1
43
0.0
10
-2.1000000000000179
20
49.649999999999451
10
-2.1000000000000036
20
52.149999999999437
42
-0.99999999999999989
10
2.1000000000000947
20
52.149999999999437
10
2.1000000000000751
20
49.64999999999943
42
-0.99999999999999989
0
LINE
5
117
100
AcDbEntity
8
0
100
AcDbLine
10
4.5633994667350726e-14
20
52.149999999999437
30
0
11
2.8517368756049683e-14
21
49.649999999999437
31
0
0
LWPOLYLINE
5
118
100
AcDbEntity
8
0
100
AcDbPolyline
90
4
70
1
43
0.0
10
-54.933333333333337
20
52.149999999999437
42
-0.99999999999999989
10
-50.733333333333249
20
52.149999999999437
10
-50.73333333333327
20
49.64999999999943
42
-0.99999999999999989
10
-54.933333333333358
20
49.649999999999451
0
LWPOLYLINE
5
119
100
AcDbEntity
8
0
100
AcDbPolyline
90
4
70
1
43
0.0
10
50.733333333333341
20
52.149999999999437
42
-0.99999999999999989
10
54.933333333333429
20
52.149999999999437
10
54.933333333333408
20
49.64999999999943
42
-0.99999999999999989
10
50.73333333333332
20
49.649999999999451
0
LINE
5
120
100
AcDbEntity
8
0
100
AcDbLine
10
-79.250000000000938
20
1.7763568394002505e-14
30
0
11
79.250000000000028
21
1.7763568394002505e-14
31
0
0
LWPOLYLINE
5
121
100
AcDbEntity
8
0
100
AcDbPolyline
90
4
70
1
43
0.0
10
-50.733333333331778
20
-52.15000000000088
42
-0.99999999999999989
10
-54.933333333331866
20
-52.150000000001057
10
-54.933333333333394
20
-49.650000000001
42
-0.99999999999999989
10
-50.733333333333249
20
-49.650000000000915
0
LWPOLYLINE
5
122
100
AcDbEntity
8
0
100
AcDbPolyline
90
4
70
1
43
0.0
10
2.1000000000001022
20
-52.149999999999402
42
-0.99999999999999989
10
-2.1000000000000076
20
-52.149999999999544
10
-2.1000000000000294
20
-49.64999999999953
42
-0.99999999999999989
10
2.1000000000000711
20
-49.649999999999423
0
LWPOLYLINE
5
123
100
AcDbEntity
8
0
100
AcDbPolyline
90
4
70
1
43
0.0
10
54.933333333333429
20
-52.14999999999791
42
-0.99999999999999989
10
50.733333333333341
20
-52.149999999998052
10
50.733333333333292
20
-49.649999999998052
42
-0.99999999999999989
10
54.933333333333429
20
-49.64999999999791
0
LINE
5
124
100
AcDbEntity
8
0
100
AcDbLine
10
-2.1000000000001453
20
50.899999999999956
30
0
11
2.0999999999999868
21
50.900000000000048
31
0
0
LINE
5
125
100
AcDbEntity
8
0
100
AcDbLine
10
-37.25
20
40.899999999999999
30
0
11
-37.25
21
-40.899999999999999
31
0
0
LINE
5
126
100
AcDbEntity
8
0
100
AcDbLine
10
-40.25
20
15.000000000000018
30
0
11
-76.25
21
15.000000000000018
31
0
0
LINE
5
127
100
AcDbEntity
8
0
100
AcDbLine
10
-76.25
20
15.000000000000018
30
0
11
-76.25
21
-14.999999999999982
31
0
0
LINE
5
128
100
AcDbEntity
8
0
100
AcDbLine
10
-76.25
20
-14.999999999999982
30
0
11
-40.25
21
-14.999999999999982
31
0
0
LINE
5
129
100
AcDbEntity
8
0
100
AcDbLine
10
-40.25
20
-14.999999999999982
30
0
11
-40.25
21
15.000000000000018
31
0
0
LINE
5
130
100
AcDbEntity
8
0
100
AcDbLine
10
-40.25
20
15.000000000000018
30
0
11
-76.25
21
-14.999999999999982
31
0
0
LINE
5
131
100
AcDbEntity
8
0
100
AcDbLine
10
-76.25
20
15.000000000000018
30
0
11
-40.25
21
-14.999999999999982
31
0
0
LINE
5
132
100
AcDbEntity
8
0
100
AcDbLine
10
-43.249999999999993
20
-29.999999999999982
30
0
11
-73.25
21
-29.999999999999982
31
0
0
LINE
5
133
100
AcDbEntity
8
0
100
AcDbLine
10
-73.25
20
-29.999999999999982
30
0
11
-73.25
21
30
31
0
0
LINE
5
134
100
AcDbEntity
8
0
100
AcDbLine
10
-73.25
20
30
30
0
11
-43.249999999999993
21
30
31
0
0
LINE
5
135
100
AcDbEntity
8
0
100
AcDbLine
10
-43.249999999999993
20
30
30
0
11
-43.249999999999993
21
-29.999999999999982
31
0
0
LINE
5
136
100
AcDbEntity
8
0
100
AcDbLine
10
-43.249999999999993
20
-29.999999999999982
30
0
11
-73.25
21
30
31
0
0
LINE
5
137
100
AcDbEntity
8
0
100
AcDbLine
10
-73.25
20
-29.999999999999982
30
0
11
-43.249999999999993
21
30
31
0
0
CIRCLE
5
138
100
AcDbEntity
8
0
100
AcDbCircle
10
-73.25
20
-29.999999999999982
30
0
40
2.1000000000000005
210
0
220
0
230
1
0
CIRCLE
5
139
100
AcDbEntity
8
0
100
AcDbCircle
10
-43.249999999999993
20
-29.999999999999982
30
0
40
2.0999999999999996
210
0
220
0
230
1
0
CIRCLE
5
140
100
AcDbEntity
8
0
100
AcDbCircle
10
-73.25
20
30
30
0
40
2.1000000000000019
210
0
220
0
230
1
0
CIRCLE
5
141
100
AcDbEntity
8
0
100
AcDbCircle
10
-43.249999999999993
20
30
30
0
40
2.0999999999999979
210
0
220
0
230
1
0
LINE
5
142
100
AcDbEntity
8
0
100
AcDbLine
10
-79.25
20
60.89999999999884
30
0
11
-82.250000000000014
21
60.89999999999884
31
0
0
LINE
5
143
100
AcDbEntity
8
0
100
AcDbLine
10
-82.250000000000014
20
60.89999999999884
30
0
11
-82.250000000000014
21
-60.900000000001164
31
0
0
LINE
5
144
100
AcDbEntity
8
0
100
AcDbLine
10
-82.250000000000014
20
-60.900000000001164
30
0
11
-79.25
21
-60.900000000001164
31
0
0
LINE
5
145
100
AcDbEntity
8
0
100
AcDbLine
10
-79.25
20
-60.900000000001164
30
0
11
-79.25
21
60.89999999999884
31
0
0
ENDSEC
0
SECTION
2
OBJECTS
0
DICTIONARY
5
C
100
AcDbDictionary
3
ACAD_GROUP
350
D
3
ACAD_MLINESTYLE
350
17
0
DICTIONARY
5
D
100
AcDbDictionary
0
DICTIONARY
5
1A
330
C
100
AcDbDictionary
0
DICTIONARY
5
17
100
AcDbDictionary
0
ENDSEC
0
EOF
