                                                                        S      1
,,9HTige 56.3,9HTige 56.3,7Hunknown,7Hunknown,32,38,7,99,15,,1.,2,2HMM, G      1
1,0.08,15H20201205.180043,0.01,10000.,7Hunknown,7Hunknown,11,0,;        G      2
     186       1                                                00000000D      1
     186             -35       1       0                               0D      2
     514       2                                                00010000D      3
     514                       1       1                               0D      4
     510       3                                                00010000D      5
     510             -35       1       1                               0D      6
     510       4                                                00010000D      7
     510             -35       1       1                               0D      8
     510       5                                                00010000D      9
     510             -35       1       1                               0D     10
     508       6                                                00010000D     11
     508                       1       1                               0D     12
     508       7                                                00010000D     13
     508                       1       1                               0D     14
     508       8                                                00010000D     15
     508                       1       1                               0D     16
     126       9                                                00010000D     17
     126       0              15       0                               0D     18
     126      24                                                00010000D     19
     126       0               5       0                               0D     20
     126      29                                                00010000D     21
     126       0              15       0                               0D     22
     128      44                                                00010000D     23
     128       0     -35      28       0                               0D     24
     128      72                                                00010000D     25
     128       0     -35       9       0                               0D     26
     128      81                                                00010000D     27
     128       0     -35       9       0                               0D     28
     502      90                                                00010000D     29
     502                       2       1                               0D     30
     504      92                                                00010001D     31
     504                       1       1                               0D     32
     406      93                                                00000000D     33
     406                       1      15                               0D     34
     314      94                                                00000200D     35
     314                       2       0                               0D     36
186,3,1,0,0,1,33;                                                      1P      1
514,3,5,1,7,1,9,1;                                                     3P      2
510,23,1,1,11;                                                         5P      3
510,25,1,1,13;                                                         7P      4
510,27,1,1,15;                                                         9P      5
508,4,0,31,1,0,0,0,31,2,1,0,0,31,3,1,0,0,31,2,0,0;                    11P      6
508,1,0,31,1,1,0;                                                     13P      7
508,1,0,31,3,0,0;                                                     15P      8
126,8,2,0,1,0,0,-3.14159265358979,-3.14159265358979,                  17P      9
-3.14159265358979,-1.5707963267949,-1.5707963267949,0.,0.,            17P     10
1.5707963267949,1.5707963267949,3.14159265358979,                     17P     11
3.14159265358979,3.14159265358979,1.,0.707106781186529,1.,            17P     12
0.707106781186541,1.,0.707106781186545,1.,0.707106781186541,1.,       17P     13
79.8580098178865,-39.7459214277818,35.5301048338179,                  17P     14
81.6003353367612,-38.8982826673162,34.7202836695881,                  17P     15
80.6816389747665,-37.0098979092603,34.7202836695881,                  17P     16
79.7629426127718,-35.1215131512044,34.7202836695881,                  17P     17
78.0206170938971,-35.9691519116701,35.5301048338179,                  17P     18
76.2782915750224,-36.8167906721357,36.3399259980476,                  17P     19
77.1969879370171,-38.7051754301916,36.3399259980476,                  17P     20
78.1156842990118,-40.5935601882475,36.3399259980476,                  17P     21
79.8580098178865,-39.7459214277818,35.5301048338179,                  17P     22
-3.14159265358979,3.14159265358979,0.,0.,0.;                          17P     23
126,1,1,0,0,1,0,-26.8095238095237,-26.8095238095237,                  19P     24
4.28050911076433D-16,4.28050911076433D-16,1.,1.,                      19P     25
79.8580098178865,-39.7459214277818,35.5301048338179,                  19P     26
60.3348812449152,-49.2438942949262,-16.4153084587744,                 19P     27
-26.8095238095237,4.28050911076433D-16,0.,0.,0.;                      19P     28
126,8,2,0,1,0,0,-3.14159265358979,-3.14159265358979,                  21P     29
-3.14159265358979,-1.5707963267949,-1.5707963267949,0.,0.,            21P     30
1.5707963267949,1.5707963267949,3.14159265358979,                     21P     31
3.14159265358979,3.14159265358979,1.,0.707106781186546,1.,            21P     32
0.707106781186558,1.,0.707106781186546,1.,0.707106781186558,1.,       21P     33
60.3348812449152,-49.2438942949262,-16.4153084587744,                 21P     34
62.0772067637898,-48.3962555344606,-17.2251296230041,                 21P     35
61.1585104017951,-46.5078707764047,-17.2251296230041,                 21P     36
60.2398140398004,-44.6194860183489,-17.2251296230041,                 21P     37
58.4974885209257,-45.4671247788145,-16.4153084587744,                 21P     38
56.7551630020511,-46.3147635392802,-15.6054872945446,                 21P     39
57.6738593640458,-48.203148297336,-15.6054872945446,                  21P     40
58.5925557260405,-50.0915330553919,-15.6054872945446,                 21P     41
60.3348812449152,-49.2438942949262,-16.4153084587744,                 21P     42
-3.14159265358979,3.14159265358979,0.,0.,0.;                          21P     43
128,1,8,1,2,0,1,0,0,1,-4.28050911076433D-16,                          23P     44
-4.28050911076433D-16,26.8095238095237,26.8095238095237,              23P     45
-3.14159265358979,-3.14159265358979,-3.14159265358979,                23P     46
-1.5707963267949,-1.5707963267949,0.,0.,1.5707963267949,              23P     47
1.5707963267949,3.14159265358979,3.14159265358979,                    23P     48
3.14159265358979,1.,1.,0.707106781186548,0.707106781186548,1.,        23P     49
1.,0.707106781186548,0.707106781186548,1.,1.,0.707106781186548,       23P     50
0.707106781186548,1.,1.,0.707106781186548,0.707106781186548,1.,       23P     51
1.,79.8580098178865,-39.7459214277818,35.5301048338179,               23P     52
60.3348812449152,-49.2438942949262,-16.4153084587744,                 23P     53
81.6003353367612,-38.8982826673162,34.7202836695882,                  23P     54
62.0772067637898,-48.3962555344606,-17.2251296230041,                 23P     55
80.6816389747665,-37.0098979092603,34.7202836695882,                  23P     56
61.1585104017951,-46.5078707764047,-17.2251296230041,                 23P     57
79.7629426127718,-35.1215131512045,34.7202836695882,                  23P     58
60.2398140398004,-44.6194860183489,-17.2251296230041,                 23P     59
78.0206170938971,-35.9691519116701,35.5301048338179,                  23P     60
58.4974885209257,-45.4671247788145,-16.4153084587744,                 23P     61
76.2782915750224,-36.8167906721357,36.3399259980476,                  23P     62
56.7551630020511,-46.3147635392802,-15.6054872945446,                 23P     63
77.1969879370171,-38.7051754301916,36.3399259980476,                  23P     64
57.6738593640458,-48.203148297336,-15.6054872945446,                  23P     65
78.1156842990118,-40.5935601882475,36.3399259980476,                  23P     66
58.5925557260405,-50.0915330553919,-15.6054872945446,                 23P     67
79.8580098178865,-39.7459214277818,35.5301048338179,                  23P     68
60.3348812449152,-49.2438942949262,-16.4153084587744,                 23P     69
-4.28050911076433D-16,26.8095238095237,-3.14159265358979,             23P     70
3.14159265358979;                                                     23P     71
128,1,1,1,1,0,0,1,0,0,-0.211000000000001,-0.211000000000001,          25P     72
0.211000000000001,0.211000000000001,-0.211000000000002,               25P     73
-0.211000000000002,0.211000000000001,0.211000000000001,1.,1.,1.,      25P     74
1.,81.6130068695272,-38.903238600638,34.7164273783299,                25P     75
79.766864656376,-35.1084844677829,34.7164273783299,                   25P     76
78.1117622554076,-40.606588871669,36.3437822893058,                   25P     77
76.2656200422563,-36.8118347388139,36.3437822893058,                  25P     78
-0.211000000000001,0.211000000000001,-0.211000000000002,              25P     79
0.211000000000001;                                                    25P     80
128,1,1,1,1,0,0,1,0,0,-0.211000000000001,-0.211000000000001,          27P     81
0.211000000000001,0.211000000000001,-0.211000000000001,               27P     82
-0.211000000000001,0.211000000000001,0.211000000000001,1.,1.,1.,      27P     83
1.,60.2437360834046,-44.6064573349273,-17.2289859142624,              27P     84
62.0898782965559,-48.4012114677825,-17.2289859142624,                 27P     85
56.742491469285,-46.3098076059583,-15.6016310032864,                  27P     86
58.5886336824363,-50.1045617388134,-15.6016310032864,                 27P     87
-0.211000000000001,0.211000000000001,-0.211000000000001,              27P     88
0.211000000000001;                                                    27P     89
502,2,79.8580098178865,-39.7459214277818,35.5301048338179,            29P     90
60.3348812449152,-49.2438942949262,-16.4153084587744;                 29P     91
504,3,17,29,1,29,1,19,29,1,29,2,21,29,2,29,2;                         31P     92
406,1,5HBody1;                                                        33P     93
314,62.7450980392157,62.7450980392157,62.7450980392157,13HSteel       35P     94
- Satin;                                                              35P     95
S      1G      2D     36P     95                                        T      1
