                                                                        S      1
,,8HAxe 2 v7,8HAxe 2 v7,7Hunknown,7Hunknown,32,38,7,99,15,,1.,2,2HMM,1, G      1
0.08,15H20201205.181713,0.01,10000.,7Hunknown,7Hunknown,11,0,15H20200616G      2
.160547;                                                                G      3
     186       1                                                00000000D      1
     186            -151       1       0                               0D      2
     514       2                                                00010000D      3
     514                       2       1                               0D      4
     510       4                                                00010000D      5
     510            -151       1       1                               0D      6
     510       5                                                00010000D      7
     510            -151       1       1                               0D      8
     510       6                                                00010000D      9
     510            -151       1       1                               0D     10
     510       7                                                00010000D     11
     510            -151       1       1                               0D     12
     510       8                                                00010000D     13
     510            -151       1       1                               0D     14
     510       9                                                00010000D     15
     510            -151       1       1                               0D     16
     510      10                                                00010000D     17
     510            -151       1       1                               0D     18
     510      11                                                00010000D     19
     510            -151       1       1                               0D     20
     510      12                                                00010000D     21
     510            -151       1       1                               0D     22
     510      13                                                00010000D     23
     510            -151       1       1                               0D     24
     510      14                                                00010000D     25
     510            -151       1       1                               0D     26
     510      15                                                00010000D     27
     510            -151       1       1                               0D     28
     510      16                                                00010000D     29
     510            -151       1       1                               0D     30
     508      17                                                00010000D     31
     508                       1       1                               0D     32
     508      18                                                00010000D     33
     508                       1       1                               0D     34
     508      19                                                00010000D     35
     508                       2       1                               0D     36
     508      21                                                00010000D     37
     508                       1       1                               0D     38
     508      22                                                00010000D     39
     508                       1       1                               0D     40
     508      23                                                00010000D     41
     508                       1       1                               0D     42
     508      24                                                00010000D     43
     508                       1       1                               0D     44
     508      25                                                00010000D     45
     508                       1       1                               0D     46
     508      26                                                00010000D     47
     508                       1       1                               0D     48
     508      27                                                00010000D     49
     508                       1       1                               0D     50
     508      28                                                00010000D     51
     508                       1       1                               0D     52
     508      29                                                00010000D     53
     508                       1       1                               0D     54
     508      30                                                00010000D     55
     508                       1       1                               0D     56
     508      31                                                00010000D     57
     508                       1       1                               0D     58
     508      32                                                00010000D     59
     508                       1       1                               0D     60
     508      33                                                00010000D     61
     508                       1       1                               0D     62
     508      34                                                00010000D     63
     508                       2       1                               0D     64
     126      36                                                00010000D     65
     126       0               9       0                               0D     66
     126      45                                                00010000D     67
     126       0               2       0                               0D     68
     126      47                                                00010000D     69
     126       0               9       0                               0D     70
     126      56                                                00010000D     71
     126       0               3       0                               0D     72
     126      59                                                00010000D     73
     126       0               3       0                               0D     74
     126      62                                                00010000D     75
     126       0               3       0                               0D     76
     126      65                                                00010000D     77
     126       0               3       0                               0D     78
     126      68                                                00010000D     79
     126       0               3       0                               0D     80
     126      71                                                00010000D     81
     126       0               3       0                               0D     82
     126      74                                                00010000D     83
     126       0               9       0                               0D     84
     126      83                                                00010000D     85
     126       0               2       0                               0D     86
     126      85                                                00010000D     87
     126       0               9       0                               0D     88
     126      94                                                00010000D     89
     126       0               3       0                               0D     90
     126      97                                                00010000D     91
     126       0               3       0                               0D     92
     126     100                                                00010000D     93
     126       0               2       0                               0D     94
     126     102                                                00010000D     95
     126       0               3       0                               0D     96
     126     105                                                00010000D     97
     126       0               2       0                               0D     98
     126     107                                                00010000D     99
     126       0               3       0                               0D    100
     126     110                                                00010000D    101
     126       0               3       0                               0D    102
     126     113                                                00010000D    103
     126       0               3       0                               0D    104
     126     116                                                00010000D    105
     126       0               2       0                               0D    106
     126     118                                                00010000D    107
     126       0               3       0                               0D    108
     126     121                                                00010000D    109
     126       0               2       0                               0D    110
     126     123                                                00010000D    111
     126       0               3       0                               0D    112
     126     126                                                00010000D    113
     126       0               9       0                               0D    114
     126     135                                                00010000D    115
     126       0               2       0                               0D    116
     126     137                                                00010000D    117
     126       0               9       0                               0D    118
     128     146                                                00010000D    119
     128       0    -151      11       0                               0D    120
     128     157                                                00010000D    121
     128       0    -151       3       0                               0D    122
     128     160                                                00010000D    123
     128       0    -151      11       0                               0D    124
     128     171                                                00010000D    125
     128       0    -151       3       0                               0D    126
     128     174                                                00010000D    127
     128       0    -151       6       0                               0D    128
     128     180                                                00010000D    129
     128       0    -151       5       0                               0D    130
     128     185                                                00010000D    131
     128       0    -151       6       0                               0D    132
     128     191                                                00010000D    133
     128       0    -151       6       0                               0D    134
     128     197                                                00010000D    135
     128       0    -151       5       0                               0D    136
     128     202                                                00010000D    137
     128       0    -151       6       0                               0D    138
     128     208                                                00010000D    139
     128       0    -151      11       0                               0D    140
     128     219                                                00010000D    141
     128       0    -151       3       0                               0D    142
     128     222                                                00010000D    143
     128       0    -151       3       0                               0D    144
     502     225                                                00010000D    145
     502                      10       1                               0D    146
     504     235                                                00010001D    147
     504                       8       1                               0D    148
     406     243                                                00000000D    149
     406                       1      15                               0D    150
     314     244                                                00000200D    151
     314                       2       0                               0D    152
     314     246                                                00000200D    153
     314                       2       0                               0D    154
186,3,1,0,0,1,149;                                                     1P      1
514,13,5,1,7,1,9,1,11,1,13,1,15,1,17,1,19,1,21,1,23,1,25,1,27,1,       3P      2
29,1;                                                                  3P      3
510,119,1,1,31;                                                        5P      4
510,121,2,1,33,35;                                                     7P      5
510,123,1,1,37;                                                        9P      6
510,125,2,1,39,41;                                                    11P      7
510,127,1,1,43;                                                       13P      8
510,129,1,1,45;                                                       15P      9
510,131,1,1,47;                                                       17P     10
510,133,1,1,49;                                                       19P     11
510,135,1,1,51;                                                       21P     12
510,137,1,1,53;                                                       23P     13
510,139,1,1,55;                                                       25P     14
510,141,2,1,57,59;                                                    27P     15
510,143,2,1,61,63;                                                    29P     16
508,4,0,147,1,0,0,0,147,2,1,0,0,147,3,0,0,0,147,2,0,0;                31P     17
508,1,0,147,1,1,0;                                                    33P     18
508,6,0,147,4,1,0,0,147,5,1,0,0,147,6,1,0,0,147,7,1,0,0,147,8,1,      35P     19
0,0,147,9,1,0;                                                        35P     20
508,4,0,147,10,0,0,0,147,11,1,0,0,147,12,0,0,0,147,11,0,0;            37P     21
508,1,0,147,10,1,0;                                                   39P     22
508,1,0,147,3,1,0;                                                    41P     23
508,4,0,147,13,1,0,0,147,14,1,0,0,147,7,0,0,0,147,15,0,0;             43P     24
508,4,0,147,16,1,0,0,147,15,1,0,0,147,6,0,0,0,147,17,0,0;             45P     25
508,4,0,147,18,1,0,0,147,17,1,0,0,147,5,0,0,0,147,19,0,0;             47P     26
508,4,0,147,20,1,0,0,147,19,1,0,0,147,4,0,0,0,147,21,0,0;             49P     27
508,4,0,147,22,1,0,0,147,21,1,0,0,147,9,0,0,0,147,23,0,0;             51P     28
508,4,0,147,24,1,0,0,147,23,1,0,0,147,8,0,0,0,147,14,0,0;             53P     29
508,4,0,147,25,0,0,0,147,26,1,0,0,147,27,1,0,0,147,26,0,0;            55P     30
508,1,0,147,25,1,0;                                                   57P     31
508,1,0,147,12,1,0;                                                   59P     32
508,1,0,147,27,0,0;                                                   61P     33
508,6,0,147,24,0,0,0,147,13,0,0,0,147,16,0,0,0,147,18,0,0,0,147,      63P     34
20,0,0,0,147,22,0,0;                                                  63P     35
126,8,2,0,1,0,0,-3.14159265358979,-3.14159265358979,                  65P     36
-3.14159265358979,-1.5707963267949,-1.5707963267949,0.,0.,            65P     37
1.5707963267949,1.5707963267949,3.14159265358979,                     65P     38
3.14159265358979,3.14159265358979,1.,0.707106781186548,1.,            65P     39
0.707106781186548,1.,0.707106781186548,1.,0.707106781186548,1.,       65P     40
6.,7.34788079488412D-16,5.8,6.,6.,5.8,-3.67394039744206D-16,6.,       65P     41
5.8,-6.,6.,5.8,-6.,0.,5.8,-6.,-6.,5.8,-3.67394039744206D-16,-6.,      65P     42
5.8,6.,-6.,5.8,6.,-7.34788079488412D-16,5.8,-3.14159265358979,        65P     43
3.14159265358979,0.,0.,0.;                                            65P     44
126,1,1,0,0,1,0,-0.583333333333333,-0.583333333333333,0.,0.,1.,       67P     45
1.,6.,0.,5.8,6.,0.,2.3,-0.583333333333333,0.,0.,0.,0.;                67P     46
126,8,2,0,1,0,0,-3.14159265358979,-3.14159265358979,                  69P     47
-3.14159265358979,-1.5707963267949,-1.5707963267949,0.,0.,            69P     48
1.5707963267949,1.5707963267949,3.14159265358979,                     69P     49
3.14159265358979,3.14159265358979,1.,0.707106781186548,1.,            69P     50
0.707106781186548,1.,0.707106781186548,1.,0.707106781186548,1.,       69P     51
6.,-7.34788079488412D-16,2.3,6.,-6.,2.3,-3.67394039744206D-16,        69P     52
-6.,2.3,-6.,-6.,2.3,-6.,0.,2.3,-6.,6.,2.3,-3.67394039744206D-16,      69P     53
6.,2.3,6.,6.,2.3,6.,7.34788079488412D-16,2.3,-3.14159265358979,       69P     54
3.14159265358979,0.,0.,0.;                                            69P     55
126,1,1,0,0,1,0,0.,0.,0.404145188432738,0.404145188432738,1.,1.,      71P     56
-2.02072594216369,-3.5,5.8,-4.04145188432738,0.,5.8,0.,               71P     57
0.404145188432738,0.,0.,0.;                                           71P     58
126,1,1,0,0,1,0,0.,0.,0.404145188432738,0.404145188432738,1.,1.,      73P     59
-4.04145188432738,0.,5.8,-2.02072594216369,3.5,5.8,0.,                73P     60
0.404145188432738,0.,0.,0.;                                           73P     61
126,1,1,0,0,1,0,0.,0.,0.404145188432738,0.404145188432738,1.,1.,      75P     62
-2.02072594216369,3.5,5.8,2.02072594216369,3.5,5.8,0.,                75P     63
0.404145188432738,0.,0.,0.;                                           75P     64
126,1,1,0,0,1,0,0.,0.,0.404145188432738,0.404145188432738,1.,1.,      77P     65
2.02072594216369,3.5,5.8,4.04145188432738,5.55111512312578D-16,       77P     66
5.8,0.,0.404145188432738,0.,0.,0.;                                    77P     67
126,1,1,0,0,1,0,0.,0.,0.404145188432738,0.404145188432738,1.,1.,      79P     68
4.04145188432738,5.55111512312578D-16,5.8,2.02072594216369,-3.5,      79P     69
5.8,0.,0.404145188432738,0.,0.,0.;                                    79P     70
126,1,1,0,0,1,0,0.,0.,0.404145188432738,0.404145188432738,1.,1.,      81P     71
2.02072594216369,-3.5,5.8,-2.02072594216369,-3.5,5.8,0.,              81P     72
0.404145188432738,0.,0.,0.;                                           81P     73
126,8,2,0,1,0,0,-3.14159265358979,-3.14159265358979,                  83P     74
-3.14159265358979,-1.5707963267949,-1.5707963267949,0.,0.,            83P     75
1.5707963267949,1.5707963267949,3.14159265358979,                     83P     76
3.14159265358979,3.14159265358979,1.,0.707106781186548,1.,            83P     77
0.707106781186548,1.,0.707106781186548,1.,0.707106781186548,1.,       83P     78
8.,9.79717439317883D-16,2.3,8.,8.,2.3,-4.89858719658941D-16,8.,       83P     79
2.3,-8.,8.,2.3,-8.,0.,2.3,-8.,-8.,2.3,-4.89858719658941D-16,-8.,      83P     80
2.3,8.,-8.,2.3,8.,-9.79717439317883D-16,2.3,-3.14159265358979,        83P     81
3.14159265358979,0.,0.,0.;                                            83P     82
126,1,1,0,0,1,0,-0.0375,-0.0375,0.,0.,1.,1.,8.,0.,2.3,8.,0.,2.,       85P     83
-0.0375,0.,0.,0.,0.;                                                  85P     84
126,8,2,0,1,0,0,-3.14159265358979,-3.14159265358979,                  87P     85
-3.14159265358979,-1.5707963267949,-1.5707963267949,0.,0.,            87P     86
1.5707963267949,1.5707963267949,3.14159265358979,                     87P     87
3.14159265358979,3.14159265358979,1.,0.707106781186548,1.,            87P     88
0.707106781186548,1.,0.707106781186548,1.,0.707106781186548,1.,       87P     89
8.,-9.79717439317883D-16,2.,8.,-8.,2.,-4.89858719658941D-16,-8.,      87P     90
2.,-8.,-8.,2.,-8.,0.,2.,-8.,8.,2.,-4.89858719658941D-16,8.,2.,        87P     91
8.,8.,2.,8.,9.79717439317883D-16,2.,-3.14159265358979,                87P     92
3.14159265358979,0.,0.,0.;                                            87P     93
126,1,1,0,0,1,0,-0.404145188432738,-0.404145188432738,0.,0.,1.,       89P     94
1.,2.02072594216369,3.5,0.,4.04145188432738,                          89P     95
6.01291064926787D-16,0.,-0.404145188432738,0.,0.,0.,0.;               89P     96
126,1,1,0,0,1,0,0.,0.,0.58,0.58,1.,1.,4.04145188432738,               91P     97
5.55111512312578D-16,0.,4.04145188432738,5.55111512312578D-16,        91P     98
5.8,0.,0.58,0.,0.,0.;                                                 91P     99
126,1,1,0,0,1,0,0.,0.,0.58,0.58,1.,1.,2.02072594216369,3.5,0.,        93P    100
2.02072594216369,3.5,5.8,0.,0.58,0.,0.,0.;                            93P    101
126,1,1,0,0,1,0,-0.404145188432738,-0.404145188432738,0.,0.,1.,       95P    102
1.,-2.02072594216369,3.5,0.,2.02072594216369,3.5,0.,                  95P    103
-0.404145188432738,0.,0.,0.,0.;                                       95P    104
126,1,1,0,0,1,0,0.,0.,0.58,0.58,1.,1.,-2.02072594216369,3.5,0.,       97P    105
-2.02072594216369,3.5,5.8,0.,0.58,0.,0.,0.;                           97P    106
126,1,1,0,0,1,0,-0.404145188432738,-0.404145188432738,0.,0.,1.,       99P    107
1.,-4.04145188432738,0.,0.,-2.02072594216369,3.5,0.,                  99P    108
-0.404145188432738,0.,0.,0.,0.;                                       99P    109
126,1,1,0,0,1,0,0.,0.,0.58,0.58,1.,1.,-4.04145188432738,             101P    110
-1.03964618507818D-16,0.,-4.04145188432738,                          101P    111
-1.03964618507818D-16,5.8,0.,0.58,0.,0.,0.;                          101P    112
126,1,1,0,0,1,0,-0.404145188432738,-0.404145188432738,0.,0.,1.,      103P    113
1.,-2.02072594216369,-3.5,0.,-4.04145188432738,                      103P    114
-1.03964618507818D-16,0.,-0.404145188432738,0.,0.,0.,0.;             103P    115
126,1,1,0,0,1,0,0.,0.,0.58,0.58,1.,1.,-2.02072594216369,-3.5,0.,     105P    116
-2.02072594216369,-3.5,5.8,0.,0.58,0.,0.,0.;                         105P    117
126,1,1,0,0,1,0,-0.404145188432738,-0.404145188432738,0.,0.,1.,      107P    118
1.,2.02072594216369,-3.5,0.,-2.02072594216369,-3.5,0.,               107P    119
-0.404145188432738,0.,0.,0.,0.;                                      107P    120
126,1,1,0,0,1,0,0.,0.,0.58,0.58,1.,1.,2.02072594216369,-3.5,0.,      109P    121
2.02072594216369,-3.5,5.8,0.,0.58,0.,0.,0.;                          109P    122
126,1,1,0,0,1,0,-0.404145188432738,-0.404145188432738,0.,0.,1.,      111P    123
1.,4.04145188432738,5.55111512312578D-16,0.,2.02072594216369,        111P    124
-3.5,0.,-0.404145188432738,0.,0.,0.,0.;                              111P    125
126,8,2,0,1,0,0,-3.14159265358979,-3.14159265358979,                 113P    126
-3.14159265358979,-1.5707963267949,-1.5707963267949,0.,0.,           113P    127
1.5707963267949,1.5707963267949,3.14159265358979,                    113P    128
3.14159265358979,3.14159265358979,1.,0.707106781186548,1.,           113P    129
0.707106781186548,1.,0.707106781186548,1.,0.707106781186548,1.,      113P    130
-20.,-2.44929359829471D-15,2.,-20.,-20.,2.,1.22464679914735D-15,     113P    131
-20.,2.,20.,-20.,2.,20.,0.,2.,20.,20.,2.,1.22464679914735D-15,       113P    132
20.,2.,-20.,20.,2.,-20.,2.44929359829471D-15,2.,                     113P    133
-3.14159265358979,3.14159265358979,0.,0.,0.;                         113P    134
126,1,1,0,0,1,0,-0.1,-0.1,0.,0.,1.,1.,-20.,0.,2.,-20.,0.,0.,         115P    135
-0.1,0.,0.,0.,0.;                                                    115P    136
126,8,2,0,1,0,0,-3.14159265358979,-3.14159265358979,                 117P    137
-3.14159265358979,-1.5707963267949,-1.5707963267949,0.,0.,           117P    138
1.5707963267949,1.5707963267949,3.14159265358979,                    117P    139
3.14159265358979,3.14159265358979,1.,0.707106781186548,1.,           117P    140
0.707106781186548,1.,0.707106781186548,1.,0.707106781186548,1.,      117P    141
-20.,-2.44929359829471D-15,0.,-20.,-20.,0.,1.22464679914735D-15,     117P    142
-20.,0.,20.,-20.,0.,20.,0.,0.,20.,20.,0.,1.22464679914735D-15,       117P    143
20.,0.,-20.,20.,0.,-20.,2.44929359829471D-15,0.,                     117P    144
-3.14159265358979,3.14159265358979,0.,0.,0.;                         117P    145
128,1,8,1,2,0,1,0,0,1,0.,0.,0.583333333333333,0.583333333333333,     119P    146
-3.14159265358979,-3.14159265358979,-3.14159265358979,               119P    147
-1.5707963267949,-1.5707963267949,0.,0.,1.5707963267949,             119P    148
1.5707963267949,3.14159265358979,3.14159265358979,                   119P    149
3.14159265358979,1.,1.,0.707106781186548,0.707106781186548,1.,       119P    150
1.,0.707106781186548,0.707106781186548,1.,1.,0.707106781186548,      119P    151
0.707106781186548,1.,1.,0.707106781186548,0.707106781186548,1.,      119P    152
1.,6.,0.,5.8,6.,0.,2.3,6.,6.,5.8,6.,6.,2.3,0.,6.,5.8,0.,6.,2.3,      119P    153
-6.,6.,5.8,-6.,6.,2.3,-6.,0.,5.8,-6.,0.,2.3,-6.,-6.,5.8,-6.,-6.,     119P    154
2.3,0.,-6.,5.8,0.,-6.,2.3,6.,-6.,5.8,6.,-6.,2.3,6.,0.,5.8,6.,0.,     119P    155
2.3,0.,0.583333333333333,-3.14159265358979,3.14159265358979;         119P    156
128,1,1,1,1,0,0,1,0,0,-0.601,-0.601,0.601,0.601,-0.601,-0.601,       121P    157
0.601,0.601,1.,1.,1.,1.,6.01,6.01,5.8,-6.01,6.01,5.8,6.01,-6.01,     121P    158
5.8,-6.01,-6.01,5.8,-0.601,0.601,-0.601,0.601;                       121P    159
128,1,8,1,2,0,1,0,0,1,0.,0.,0.0375,0.0375,-3.14159265358979,         123P    160
-3.14159265358979,-3.14159265358979,-1.5707963267949,                123P    161
-1.5707963267949,0.,0.,1.5707963267949,1.5707963267949,              123P    162
3.14159265358979,3.14159265358979,3.14159265358979,1.,1.,            123P    163
0.707106781186548,0.707106781186548,1.,1.,0.707106781186548,         123P    164
0.707106781186548,1.,1.,0.707106781186548,0.707106781186548,1.,      123P    165
1.,0.707106781186548,0.707106781186548,1.,1.,8.,0.,2.3,8.,0.,2.,     123P    166
8.,8.,2.3,8.,8.,2.,0.,8.,2.3,0.,8.,2.,-8.,8.,2.3,-8.,8.,2.,-8.,      123P    167
0.,2.3,-8.,0.,2.,-8.,-8.,2.3,-8.,-8.,2.,0.,-8.,2.3,0.,-8.,2.,8.,     123P    168
-8.,2.3,8.,-8.,2.,8.,0.,2.3,8.,0.,2.,0.,0.0375,                      123P    169
-3.14159265358979,3.14159265358979;                                  123P    170
128,1,1,1,1,0,0,1,0,0,-0.801,-0.801,0.801,0.801,-0.801,-0.801,       125P    171
0.801,0.801,1.,1.,1.,1.,8.01,8.01,2.3,-8.01,8.01,2.3,8.01,-8.01,     125P    172
2.3,-8.01,-8.01,2.3,-0.801,0.801,-0.801,0.801;                       125P    173
128,1,1,1,1,0,0,1,0,0,-0.001,-0.001,0.405145188432738,               127P    174
0.405145188432738,-0.001,-0.001,0.581,0.581,1.,1.,1.,1.,             127P    175
2.01572594216369,3.50866025403785,-0.01,4.04645188432738,            127P    176
-0.00866025403784443,-0.01,2.01572594216369,3.50866025403785,        127P    177
5.81,4.04645188432738,-0.00866025403784443,5.81,-0.001,              127P    178
0.405145188432738,-0.001,0.581;                                      127P    179
128,1,1,1,1,0,0,1,0,0,-0.001,-0.001,0.405145188432738,               129P    180
0.405145188432738,-0.001,-0.001,0.581,0.581,1.,1.,1.,1.,             129P    181
-2.03072594216369,3.5,-0.01,2.03072594216369,3.5,-0.01,              129P    182
-2.03072594216369,3.5,5.81,2.03072594216369,3.5,5.81,-0.001,         129P    183
0.405145188432738,-0.001,0.581;                                      129P    184
128,1,1,1,1,0,0,1,0,0,-0.00100000000000001,-0.00100000000000001,     131P    185
0.405145188432738,0.405145188432738,-0.001,-0.001,0.581,0.581,       131P    186
1.,1.,1.,1.,-4.04645188432738,-0.00866025403784444,-0.01,            131P    187
-2.01572594216369,3.50866025403784,-0.01,-4.04645188432738,          131P    188
-0.00866025403784444,5.81,-2.01572594216369,3.50866025403784,        131P    189
5.81,-0.00100000000000001,0.405145188432738,-0.001,0.581;            131P    190
128,1,1,1,1,0,0,1,0,0,-0.00100000000000003,-0.00100000000000003,     133P    191
0.405145188432738,0.405145188432738,-0.001,-0.001,0.581,0.581,       133P    192
1.,1.,1.,1.,-2.01572594216369,-3.50866025403784,-0.01,               133P    193
-4.04645188432738,0.00866025403784443,-0.01,-2.01572594216369,       133P    194
-3.50866025403784,5.81,-4.04645188432738,0.00866025403784443,        133P    195
5.81,-0.00100000000000003,0.405145188432738,-0.001,0.581;            133P    196
128,1,1,1,1,0,0,1,0,0,-0.00100000000000003,-0.00100000000000003,     135P    197
0.405145188432738,0.405145188432738,-0.001,-0.001,0.581,0.581,       135P    198
1.,1.,1.,1.,2.03072594216369,-3.5,-0.01,-2.03072594216369,-3.5,      135P    199
-0.01,2.03072594216369,-3.5,5.81,-2.03072594216369,-3.5,5.81,        135P    200
-0.00100000000000003,0.405145188432738,-0.001,0.581;                 135P    201
128,1,1,1,1,0,0,1,0,0,-0.001,-0.001,0.405145188432738,               137P    202
0.405145188432738,-0.001,-0.001,0.581,0.581,1.,1.,1.,1.,             137P    203
4.04645188432738,0.00866025403784494,-0.01,2.01572594216369,         137P    204
-3.50866025403785,-0.01,4.04645188432738,0.00866025403784494,        137P    205
5.81,2.01572594216369,-3.50866025403785,5.81,-0.001,                 137P    206
0.405145188432738,-0.001,0.581;                                      137P    207
128,1,8,1,2,0,1,0,0,1,0.,0.,0.1,0.1,-3.14159265358979,               139P    208
-3.14159265358979,-3.14159265358979,-1.5707963267949,                139P    209
-1.5707963267949,0.,0.,1.5707963267949,1.5707963267949,              139P    210
3.14159265358979,3.14159265358979,3.14159265358979,1.,1.,            139P    211
0.707106781186548,0.707106781186548,1.,1.,0.707106781186548,         139P    212
0.707106781186548,1.,1.,0.707106781186548,0.707106781186548,1.,      139P    213
1.,0.707106781186548,0.707106781186548,1.,1.,-20.,0.,2.,-20.,0.,     139P    214
0.,-20.,-20.,2.,-20.,-20.,0.,0.,-20.,2.,0.,-20.,0.,20.,-20.,2.,      139P    215
20.,-20.,0.,20.,0.,2.,20.,0.,0.,20.,20.,2.,20.,20.,0.,0.,20.,2.,     139P    216
0.,20.,0.,-20.,20.,2.,-20.,20.,0.,-20.,0.,2.,-20.,0.,0.,0.,0.1,      139P    217
-3.14159265358979,3.14159265358979;                                  139P    218
128,1,1,1,1,0,0,1,0,0,-2.001,-2.001,2.001,2.001,-2.001,-2.001,       141P    219
2.001,2.001,1.,1.,1.,1.,-20.01,-20.01,2.,20.01,-20.01,2.,-20.01,     141P    220
20.01,2.,20.01,20.01,2.,-2.001,2.001,-2.001,2.001;                   141P    221
128,1,1,1,1,0,0,1,0,0,-2.001,-2.001,2.001,2.001,-2.001,-2.001,       143P    222
2.001,2.001,1.,1.,1.,1.,20.01,-20.01,0.,-20.01,-20.01,0.,20.01,      143P    223
20.01,0.,-20.01,20.01,0.,-2.001,2.001,-2.001,2.001;                  143P    224
502,18,6.,5.55111512312578D-16,5.8,6.,7.34788079488412D-16,2.3,      145P    225
-2.02072594216369,-3.5,5.8,-4.04145188432738,0.,5.8,                 145P    226
-2.02072594216369,3.5,5.8,2.02072594216369,3.5,5.8,                  145P    227
4.04145188432738,5.55111512312578D-16,5.8,2.02072594216369,-3.5,     145P    228
5.8,8.,1.11022302462516D-15,2.3,8.,9.79717439317883D-16,2.,          145P    229
2.02072594216369,3.5,0.,4.04145188432738,5.55111512312578D-16,       145P    230
0.,-2.02072594216369,3.5,0.,-4.04145188432738,                       145P    231
-1.03964618507818D-16,0.,-2.02072594216369,-3.5,0.,                  145P    232
2.02072594216369,-3.5,0.,-20.,-2.44929359829471D-15,2.,-20.,         145P    233
-2.44929359829471D-15,0.;                                            145P    234
504,27,65,145,1,145,1,67,145,1,145,2,69,145,2,145,2,71,145,3,        147P    235
145,4,73,145,4,145,5,75,145,5,145,6,77,145,6,145,7,79,145,7,145,     147P    236
8,81,145,8,145,3,83,145,9,145,9,85,145,9,145,10,87,145,10,145,       147P    237
10,89,145,11,145,12,91,145,12,145,7,93,145,11,145,6,95,145,13,       147P    238
145,11,97,145,13,145,5,99,145,14,145,13,101,145,14,145,4,103,        147P    239
145,15,145,14,105,145,15,145,3,107,145,16,145,15,109,145,16,145,     147P    240
8,111,145,12,145,16,113,145,17,145,17,115,145,17,145,18,117,145,     147P    241
18,145,18;                                                           147P    242
406,1,4HAxe2;                                                        149P    243
314,76.8627450980392,20.7843137254902,15.2941176470588,27HPaint      151P    244
- Enamel Glossy (Red);                                               151P    245
314,62.7450980392157,62.7450980392157,62.7450980392157,13HSteel      153P    246
- Satin;                                                             153P    247
S      1G      3D    154P    247                                        T      1
