0
SECTION
2
HEADER
9
$INSUNITS
70
4
9
$ACADVER
1
AC1014
9
$HANDSEED
5
FFFF
0
ENDSEC
0
SECTION
2
TABLES
0
TABLE
2
VPORT
5
8
100
AcDbSymbolTable
0
ENDTAB
0
TABLE
2
LTYPE
5
5
100
AcDbSymbolTable
0
LTYPE
5
14
100
AcDbSymbolTableRecord
100
AcDbLinetypeTableRecord
2
BYBLOCK
70
0
0
LTYPE
5
15
100
AcDbSymbolTableRecord
100
AcDbLinetypeTableRecord
2
BYLAYER
70
0
0
ENDTAB
0
TABLE
2
LAYER
5
2
100
AcDbSymbolTable
70
2
0
LAYER
5
50
100
AcDbSymbolTableRecord
100
AcDbLayerTableRecord
2
0
70
0
6
CONTINUOUS
0
ENDTAB
0
TABLE
2
STYLE
5
3
100
AcDbSymbolTable
70
1
0
STYLE
5
11
100
AcDbSymbolTableRecord
100
AcDbTextStyleTableRecord
2
STANDARD
70
0
0
ENDTAB
0
TABLE
2
VIEW
5
6
100
AcDbSymbolTable
70
0
0
ENDTAB
0
TABLE
2
UCS
5
7
100
AcDbSymbolTable
70
0
0
ENDTAB
0
TABLE
2
APPID
5
9
100
AcDbSymbolTable
70
2
0
APPID
5
12
100
AcDbSymbolTableRecord
100
AcDbRegAppTableRecord
2
ACAD
70
0
0
ENDTAB
0
TABLE
2
DIMSTYLE
5
A
100
AcDbSymbolTable
70
1
0
ENDTAB
0
TABLE
2
BLOCK_RECORD
5
1
100
AcDbSymbolTable
70
1
0
BLOCK_RECORD
5
1F
100
AcDbSymbolTableRecord
100
AcDbBlockTableRecord
2
*MODEL_SPACE
0
BLOCK_RECORD
5
1B
100
AcDbSymbolTableRecord
100
AcDbBlockTableRecord
2
*PAPER_SPACE
0
ENDTAB
0
ENDSEC
0
SECTION
2
BLOCKS
0
BLOCK
5
20
100
AcDbEntity
100
AcDbBlockBegin
2
*MODEL_SPACE
0
ENDBLK
5
21
100
AcDbEntity
100
AcDbBlockEnd
0
BLOCK
5
1C
100
AcDbEntity
100
AcDbBlockBegin
2
*PAPER_SPACE
0
ENDBLK
5
1D
100
AcDbEntity
100
AcDbBlockEnd
0
ENDSEC
0
SECTION
2
ENTITIES
0
LINE
5
100
100
AcDbEntity
8
0
100
AcDbLine
10
8.6761956214904767
20
-12.300000000000001
30
0
11
8.6761956214904767
21
12.300000000000001
31
0
0
LINE
5
101
100
AcDbEntity
8
0
100
AcDbLine
10
8.6761956214904767
20
0
30
0
11
-6.3238043785095233
21
0
31
0
0
CIRCLE
5
102
100
AcDbEntity
8
0
100
AcDbCircle
10
-6.3238043785095233
20
0
30
0
40
2.1000000000000001
210
0
220
0
230
1
0
SPLINE
5
103
100
AcDbEntity
8
0
100
AcDbSpline
70
0
71
3
72
16
73
12
74
0
42
0.000000001
43
0.0000000001
44
0.0000000001
40
4.2080610270133185
40
4.2080610270133185
40
4.2080610270133185
40
4.2080610270133185
40
4.40263432274494
40
4.40263432274494
40
4.8958993350584867
40
4.8958993350584867
40
5.3799766503527877
40
5.3799766503527877
40
5.6220153079999386
40
5.6220153079999386
40
5.8640539656470896
40
5.8640539656470896
40
5.8640539656470896
40
5.8640539656470896
10
-26.323804378509521
20
-2.9647934160747091
30
-2.2204460492503131e-15
10
-26.165008797765239
20
-3.5941283517329459
30
0
10
-25.962376976348665
20
-4.2081996715613474
30
-2.2204460492503131e-15
10
-25.152491214621307
20
-6.2914613765840937
30
0
10
-24.407892728241119
20
-7.6291879853413223
30
-2.2204460492503131e-15
10
-23.121925517380806
20
-9.7457417556471135
30
0
10
-22.477579152638523
20
-10.685265284942336
30
0
10
-21.80087300226797
20
-11.644186769322824
30
0
10
-21.621920156869461
20
-11.891368896869848
30
0
10
-21.383320161425296
20
-12.219346267308666
30
0
10
-21.323834066489411
20
-12.299959767875396
30
0
10
-21.323804378509521
20
-12.300000000000001
30
0
0
SPLINE
5
104
100
AcDbEntity
8
0
100
AcDbSpline
70
0
71
3
72
16
73
12
74
0
42
0.000000001
43
0.0000000001
44
0.0000000001
40
1.9546846552156962
40
1.9546846552156962
40
1.9546846552156962
40
1.9546846552156962
40
2.1967233128628467
40
2.1967233128628467
40
2.4387619705099972
40
2.4387619705099972
40
2.9228392858042986
40
2.9228392858042986
40
3.4161042981178458
40
3.4161042981178458
40
3.6106775938494673
40
3.6106775938494673
40
3.6106775938494673
40
3.6106775938494673
10
-21.323804378509521
20
12.300000000000001
30
0
10
-21.323834066489411
20
12.299959767875395
30
0
10
-21.383320161425292
20
12.219346267308664
30
0
10
-21.62192015686945
20
11.891368896869849
30
0
10
-21.800873002267966
20
11.644186769322831
30
0
10
-22.477579152638512
20
10.685265284942339
30
0
10
-23.121925517380806
20
9.745741755647126
30
0
10
-24.407892728241119
20
7.6291879853413302
30
0
10
-25.152491214621307
20
6.2914613765840999
30
-2.2204460492503131e-15
10
-25.962376976348665
20
4.2081996715613501
30
0
10
-26.165008797765239
20
3.5941283517329436
30
0
10
-26.323804378509521
20
2.9647934160747091
30
-2.2204460492503131e-15
0
LINE
5
105
100
AcDbEntity
8
0
100
AcDbLine
10
-26.323804378509518
20
2.9647934160747087
30
-2.2204460492503127e-15
11
-26.323804378509521
21
-2.9647934160747091
31
-2.2204460492503131e-15
0
SPLINE
5
106
100
AcDbEntity
8
0
100
AcDbSpline
70
0
71
3
72
16
73
12
74
0
42
0.000000001
43
0.0000000001
44
0.0000000001
40
0.29869171658192556
40
0.29869171658192556
40
0.29869171658192556
40
0.29869171658192556
40
0.4932650123135468
40
0.4932650123135468
40
0.9865300246270936
40
0.9865300246270936
40
1.4706073399213948
40
1.4706073399213948
40
1.7126459975685455
40
1.7126459975685455
40
1.9546846552156962
40
1.9546846552156962
40
1.9546846552156962
40
1.9546846552156962
10
-26.323804378509521
20
2.9647934160747091
30
0
10
-26.165008797765239
20
3.5941283517329414
30
0
10
-25.962376976348676
20
4.2081996715613457
30
0
10
-25.152491214621314
20
6.291461376584091
30
0
10
-24.407892728241119
20
7.6291879853413214
30
0
10
-23.121925517380806
20
9.7457417556471171
30
0
10
-22.477579152638519
20
10.685265284942336
30
0
10
-21.800873002267966
20
11.644186769322822
30
0
10
-21.621920156869457
20
11.891368896869846
30
0
10
-21.383320161425292
20
12.219346267308669
30
0
10
-21.323834066489411
20
12.299959767875395
30
0
10
-21.323804378509521
20
12.300000000000001
30
0
0
LINE
5
107
100
AcDbEntity
8
0
100
AcDbLine
10
-26.323804378509518
20
2.9647934160747087
30
-2.2204460492503127e-15
11
-26.323804378509521
21
-2.9647934160747091
31
-2.2204460492503131e-15
0
SPLINE
5
108
100
AcDbEntity
8
0
100
AcDbSpline
70
0
71
3
72
16
73
12
74
0
42
0.000000001
43
0.0000000001
44
0.0000000001
40
5.8640539656470896
40
5.8640539656470896
40
5.8640539656470896
40
5.8640539656470896
40
6.1060926232942396
40
6.1060926232942396
40
6.3481312809413897
40
6.3481312809413897
40
6.8322085962356907
40
6.8322085962356907
40
7.3254736085492382
40
7.3254736085492382
40
7.5200469042808606
40
7.5200469042808606
40
7.5200469042808606
40
7.5200469042808606
10
-21.323804378509521
20
-12.300000000000001
30
0
10
-21.323834066489411
20
-12.299959767875396
30
0
10
-21.383320161425292
20
-12.219346267308669
30
0
10
-21.62192015686945
20
-11.891368896869853
30
0
10
-21.800873002267966
20
-11.644186769322832
30
0
10
-22.477579152638512
20
-10.68526528494235
30
0
10
-23.121925517380802
20
-9.745741755647126
30
0
10
-24.407892728241116
20
-7.6291879853413347
30
0
10
-25.152491214621303
20
-6.2914613765841052
30
0
10
-25.962376976348665
20
-4.2081996715613563
30
0
10
-26.165008797765239
20
-3.5941283517329459
30
0
10
-26.323804378509521
20
-2.9647934160747091
30
0
0
ENDSEC
0
SECTION
2
OBJECTS
0
DICTIONARY
5
C
100
AcDbDictionary
3
ACAD_GROUP
350
D
3
ACAD_MLINESTYLE
350
17
0
DICTIONARY
5
D
100
AcDbDictionary
0
DICTIONARY
5
1A
330
C
100
AcDbDictionary
0
DICTIONARY
5
17
100
AcDbDictionary
0
ENDSEC
0
EOF
