                                                                        S      1
,,16HProfile20x20x389,16HProfile20x20x389,7Hunknown,7Hunknown,32,38,7,  G      1
99,15,,1.,2,2HMM,1,0.08,15H20201205.180003,0.01,10000.,7Hunknown,7HunknoG      2
wn,11,0,;                                                               G      3
     186       1                                                00000000D      1
     186             -71       1       0                               0D      2
     514       2                                                00010000D      3
     514                       1       1                               0D      4
     510       3                                                00010000D      5
     510             -71       1       1                               0D      6
     510       4                                                00010000D      7
     510             -71       1       1                               0D      8
     510       5                                                00010000D      9
     510             -71       1       1                               0D     10
     510       6                                                00010000D     11
     510             -71       1       1                               0D     12
     510       7                                                00010000D     13
     510             -71       1       1                               0D     14
     510       8                                                00010000D     15
     510             -71       1       1                               0D     16
     508       9                                                00010000D     17
     508                       1       1                               0D     18
     508      10                                                00010000D     19
     508                       1       1                               0D     20
     508      11                                                00010000D     21
     508                       1       1                               0D     22
     508      12                                                00010000D     23
     508                       1       1                               0D     24
     508      13                                                00010000D     25
     508                       1       1                               0D     26
     508      14                                                00010000D     27
     508                       1       1                               0D     28
     126      15                                                00010000D     29
     126       0               2       0                               0D     30
     126      17                                                00010000D     31
     126       0               2       0                               0D     32
     126      19                                                00010000D     33
     126       0               2       0                               0D     34
     126      21                                                00010000D     35
     126       0               2       0                               0D     36
     126      23                                                00010000D     37
     126       0               2       0                               0D     38
     126      25                                                00010000D     39
     126       0               2       0                               0D     40
     126      27                                                00010000D     41
     126       0               2       0                               0D     42
     126      29                                                00010000D     43
     126       0               2       0                               0D     44
     126      31                                                00010000D     45
     126       0               2       0                               0D     46
     126      33                                                00010000D     47
     126       0               2       0                               0D     48
     126      35                                                00010000D     49
     126       0               2       0                               0D     50
     126      37                                                00010000D     51
     126       0               2       0                               0D     52
     128      39                                                00010000D     53
     128       0     -71       3       0                               0D     54
     128      42                                                00010000D     55
     128       0     -71       3       0                               0D     56
     128      45                                                00010000D     57
     128       0     -71       3       0                               0D     58
     128      48                                                00010000D     59
     128       0     -71       3       0                               0D     60
     128      51                                                00010000D     61
     128       0     -71       3       0                               0D     62
     128      54                                                00010000D     63
     128       0     -71       3       0                               0D     64
     502      57                                                00010000D     65
     502                       2       1                               0D     66
     504      59                                                00010001D     67
     504                       3       1                               0D     68
     406      62                                                00000000D     69
     406                       1      15                               0D     70
     314      63                                                00000200D     71
     314                       2       0                               0D     72
     314      65                                                00000200D     73
     314                       2       0                               0D     74
186,3,1,0,0,1,69;                                                      1P      1
514,6,5,1,7,1,9,1,11,1,13,1,15,1;                                      3P      2
510,53,1,1,17;                                                         5P      3
510,55,1,1,19;                                                         7P      4
510,57,1,1,21;                                                         9P      5
510,59,1,1,23;                                                        11P      6
510,61,1,1,25;                                                        13P      7
510,63,1,1,27;                                                        15P      8
508,4,0,67,1,1,0,0,67,2,1,0,0,67,3,0,0,0,67,4,0,0;                    17P      9
508,4,0,67,5,1,0,0,67,4,1,0,0,67,6,0,0,0,67,7,0,0;                    19P     10
508,4,0,67,8,1,0,0,67,7,1,0,0,67,9,0,0,0,67,10,0,0;                   21P     11
508,4,0,67,11,1,0,0,67,10,1,0,0,67,12,0,0,0,67,2,0,0;                 23P     12
508,4,0,67,12,1,0,0,67,9,1,0,0,67,6,1,0,0,67,3,1,0;                   25P     13
508,4,0,67,11,0,0,0,67,1,0,0,0,67,5,0,0,0,67,8,0,0;                   27P     14
126,1,1,0,0,1,0,0.,0.,2.,2.,1.,1.,40.,0.,10.,40.,0.,-10.,0.,2.,       29P     15
0.,0.,0.;                                                             29P     16
126,1,1,0,0,1,0,0.,0.,38.9,38.9,1.,1.,40.,0.,-10.,40.,389.,-10.,      31P     17
0.,38.9,0.,0.,0.;                                                     31P     18
126,1,1,0,0,1,0,0.,0.,2.,2.,1.,1.,40.,389.,10.,40.,389.,-10.,0.,      33P     19
2.,0.,0.,0.;                                                          33P     20
126,1,1,0,0,1,0,0.,0.,38.9,38.9,1.,1.,40.,0.,10.,40.,389.,10.,        35P     21
0.,38.9,0.,0.,0.;                                                     35P     22
126,1,1,0,0,1,0,0.,0.,2.,2.,1.,1.,20.,0.,10.,40.,0.,10.,0.,2.,        37P     23
0.,0.,0.;                                                             37P     24
126,1,1,0,0,1,0,0.,0.,2.,2.,1.,1.,20.,389.,10.,40.,389.,10.,0.,       39P     25
2.,0.,0.,0.;                                                          39P     26
126,1,1,0,0,1,0,0.,0.,38.9,38.9,1.,1.,20.,0.,10.,20.,389.,10.,        41P     27
0.,38.9,0.,0.,0.;                                                     41P     28
126,1,1,0,0,1,0,0.,0.,2.,2.,1.,1.,20.,0.,-10.,20.,0.,10.,0.,2.,       43P     29
0.,0.,0.;                                                             43P     30
126,1,1,0,0,1,0,0.,0.,2.,2.,1.,1.,20.,389.,-10.,20.,389.,10.,0.,      45P     31
2.,0.,0.,0.;                                                          45P     32
126,1,1,0,0,1,0,0.,0.,38.9,38.9,1.,1.,20.,0.,-10.,20.,389.,-10.,      47P     33
0.,38.9,0.,0.,0.;                                                     47P     34
126,1,1,0,0,1,0,0.,0.,2.,2.,1.,1.,40.,0.,-10.,20.,0.,-10.,0.,2.,      49P     35
0.,0.,0.;                                                             49P     36
126,1,1,0,0,1,0,0.,0.,2.,2.,1.,1.,40.,389.,-10.,20.,389.,-10.,        51P     37
0.,2.,0.,0.,0.;                                                       51P     38
128,1,1,1,1,0,0,1,0,0,-0.001,-0.001,2.001,2.001,-0.001,-0.001,        53P     39
38.901,38.901,1.,1.,1.,1.,40.,-0.01,10.01,40.,-0.01,-10.01,40.,       53P     40
389.01,10.01,40.,389.01,-10.01,-0.001,2.001,-0.001,38.901;            53P     41
128,1,1,1,1,0,0,1,0,0,-0.001,-0.001,2.001,2.001,-0.001,-0.001,        55P     42
38.901,38.901,1.,1.,1.,1.,19.99,-0.01,10.,40.01,-0.01,10.,19.99,      55P     43
389.01,10.,40.01,389.01,10.,-0.001,2.001,-0.001,38.901;               55P     44
128,1,1,1,1,0,0,1,0,0,-0.001,-0.001,2.001,2.001,-0.001,-0.001,        57P     45
38.901,38.901,1.,1.,1.,1.,20.,-0.01,-10.01,20.,-0.01,10.01,20.,       57P     46
389.01,-10.01,20.,389.01,10.01,-0.001,2.001,-0.001,38.901;            57P     47
128,1,1,1,1,0,0,1,0,0,-0.001,-0.001,2.001,2.001,-0.001,-0.001,        59P     48
38.901,38.901,1.,1.,1.,1.,40.01,-0.01,-10.,19.99,-0.01,-10.,          59P     49
40.01,389.01,-10.,19.99,389.01,-10.,-0.001,2.001,-0.001,38.901;       59P     50
128,1,1,1,1,0,0,1,0,0,-1.001,-1.001,1.001,1.001,-1.001,-1.001,        61P     51
1.001,1.001,1.,1.,1.,1.,19.99,389.,-10.01,19.99,389.,10.01,           61P     52
40.01,389.,-10.01,40.01,389.,10.01,-1.001,1.001,-1.001,1.001;         61P     53
128,1,1,1,1,0,0,1,0,0,-1.001,-1.001,1.001,1.001,-1.001,-1.001,        63P     54
1.001,1.001,1.,1.,1.,1.,40.01,0.,10.01,19.99,0.,10.01,40.01,0.,       63P     55
-10.01,19.99,0.,-10.01,-1.001,1.001,-1.001,1.001;                     63P     56
502,8,40.,0.,10.,40.,0.,-10.,40.,389.,-10.,40.,389.,10.,20.,0.,       65P     57
10.,20.,389.,10.,20.,0.,-10.,20.,389.,-10.;                           65P     58
504,12,29,65,1,65,2,31,65,2,65,3,33,65,4,65,3,35,65,1,65,4,37,        67P     59
65,5,65,1,39,65,6,65,4,41,65,5,65,6,43,65,7,65,5,45,65,8,65,6,        67P     60
47,65,7,65,8,49,65,2,65,7,51,65,3,65,8;                               67P     61
406,1,15HProfil20x20_389;                                             69P     62
314,96.078431372549,96.078431372549,96.4705882352941,16HAluminum      71P     63
 - Satin;                                                             71P     64
314,62.7450980392157,62.7450980392157,62.7450980392157,13HSteel       73P     65
- Satin;                                                              73P     66
S      1G      3D     74P     66                                        T      1
