                                                                        S      1
,,7HRoue v6,7HRoue v6,7Hunknown,7Hunknown,32,38,7,99,15,,1.,2,2HMM,1,   G      1
0.08,15H20201211.162909,0.01,10000.,7Hunknown,7Hunknown,11,0,15H20191004G      2
.111003;                                                                G      3
     186       1                                                00000000D      1
     186            -211       1       0                               0D      2
     514       2                                                00010000D      3
     514                       2       1                               0D      4
     510       4                                                00010000D      5
     510            -211       1       1                               0D      6
     510       5                                                00010000D      7
     510            -211       1       1                               0D      8
     510       6                                                00010000D      9
     510            -211       1       1                               0D     10
     510       7                                                00010000D     11
     510            -211       1       1                               0D     12
     510       8                                                00010000D     13
     510            -211       1       1                               0D     14
     510       9                                                00010000D     15
     510            -211       1       1                               0D     16
     510      10                                                00010000D     17
     510            -211       1       1                               0D     18
     510      11                                                00010000D     19
     510            -213       1       1                               0D     20
     510      12                                                00010000D     21
     510            -215       1       1                               0D     22
     510      13                                                00010000D     23
     510            -211       1       1                               0D     24
     510      14                                                00010000D     25
     510            -211       1       1                               0D     26
     510      15                                                00010000D     27
     510            -211       1       1                               0D     28
     510      16                                                00010000D     29
     510            -211       1       1                               0D     30
     510      17                                                00010000D     31
     510            -211       1       1                               0D     32
     510      18                                                00010000D     33
     510            -211       1       1                               0D     34
     510      19                                                00010000D     35
     510            -217       1       1                               0D     36
     510      20                                                00010000D     37
     510            -211       1       1                               0D     38
     510      21                                                00010000D     39
     510            -211       1       1                               0D     40
     510      22                                                00010000D     41
     510            -211       1       1                               0D     42
     508      23                                                00010000D     43
     508                       1       1                               0D     44
     508      24                                                00010000D     45
     508                       1       1                               0D     46
     508      25                                                00010000D     47
     508                       1       1                               0D     48
     508      26                                                00010000D     49
     508                       1       1                               0D     50
     508      27                                                00010000D     51
     508                       1       1                               0D     52
     508      28                                                00010000D     53
     508                       1       1                               0D     54
     508      29                                                00010000D     55
     508                       1       1                               0D     56
     508      30                                                00010000D     57
     508                       1       1                               0D     58
     508      31                                                00010000D     59
     508                       1       1                               0D     60
     508      32                                                00010000D     61
     508                       1       1                               0D     62
     508      33                                                00010000D     63
     508                       1       1                               0D     64
     508      34                                                00010000D     65
     508                       1       1                               0D     66
     508      35                                                00010000D     67
     508                       2       1                               0D     68
     508      37                                                00010000D     69
     508                       1       1                               0D     70
     508      38                                                00010000D     71
     508                       1       1                               0D     72
     508      39                                                00010000D     73
     508                       1       1                               0D     74
     508      40                                                00010000D     75
     508                       1       1                               0D     76
     508      41                                                00010000D     77
     508                       1       1                               0D     78
     508      42                                                00010000D     79
     508                       1       1                               0D     80
     508      43                                                00010000D     81
     508                       2       1                               0D     82
     508      45                                                00010000D     83
     508                       1       1                               0D     84
     508      46                                                00010000D     85
     508                       1       1                               0D     86
     508      47                                                00010000D     87
     508                       1       1                               0D     88
     508      48                                                00010000D     89
     508                       1       1                               0D     90
     126      49                                                00010000D     91
     126       0               9       0                               0D     92
     126      58                                                00010000D     93
     126       0               2       0                               0D     94
     126      60                                                00010000D     95
     126       0               9       0                               0D     96
     126      69                                                00010000D     97
     126       0              10       0                               0D     98
     126      79                                                00010000D     99
     126       0               5       0                               0D    100
     126      84                                                00010000D    101
     126       0              10       0                               0D    102
     126      94                                                00010000D    103
     126       0               3       0                               0D    104
     126      97                                                00010000D    105
     126       0              10       0                               0D    106
     126     107                                                00010000D    107
     126       0               9       0                               0D    108
     126     116                                                00010000D    109
     126       0              10       0                               0D    110
     126     126                                                00010000D    111
     126       0               4       0                               0D    112
     126     130                                                00010000D    113
     126       0              10       0                               0D    114
     126     140                                                00010000D    115
     126       0               3       0                               0D    116
     126     143                                                00010000D    117
     126       0              10       0                               0D    118
     126     153                                                00010000D    119
     126       0              10       0                               0D    120
     126     163                                                00010000D    121
     126       0               4       0                               0D    122
     126     167                                                00010000D    123
     126       0               4       0                               0D    124
     126     171                                                00010000D    125
     126       0               4       0                               0D    126
     126     175                                                00010000D    127
     126       0               4       0                               0D    128
     126     179                                                00010000D    129
     126       0               4       0                               0D    130
     126     183                                                00010000D    131
     126       0               4       0                               0D    132
     126     187                                                00010000D    133
     126       0               3       0                               0D    134
     126     190                                                00010000D    135
     126       0               3       0                               0D    136
     126     193                                                00010000D    137
     126       0               3       0                               0D    138
     126     196                                                00010000D    139
     126       0               3       0                               0D    140
     126     199                                                00010000D    141
     126       0               3       0                               0D    142
     126     202                                                00010000D    143
     126       0               3       0                               0D    144
     126     205                                                00010000D    145
     126       0               3       0                               0D    146
     126     208                                                00010000D    147
     126       0               3       0                               0D    148
     126     211                                                00010000D    149
     126       0               3       0                               0D    150
     126     214                                                00010000D    151
     126       0               3       0                               0D    152
     126     217                                                00010000D    153
     126       0               3       0                               0D    154
     126     220                                                00010000D    155
     126       0               3       0                               0D    156
     126     223                                                00010000D    157
     126       0               9       0                               0D    158
     126     232                                                00010000D    159
     126       0               3       0                               0D    160
     126     235                                                00010000D    161
     126       0              10       0                               0D    162
     126     245                                                00010000D    163
     126       0               3       0                               0D    164
     126     248                                                00010000D    165
     126       0               3       0                               0D    166
     128     251                                                00010000D    167
     128       0    -211      11       0                               0D    168
     128     262                                                00010000D    169
     128       0    -211      22       0                               0D    170
     128     284                                                00010000D    171
     128       0    -211      14       0                               0D    172
     128     298                                                00010000D    173
     128       0    -211       3       0                               0D    174
     128     301                                                00010000D    175
     128       0    -211      20       0                               0D    176
     128     321                                                00010000D    177
     128       0    -211      14       0                               0D    178
     128     335                                                00010000D    179
     128       0    -211       3       0                               0D    180
     128     338                                                00010000D    181
     128       0    -213       3       0                               0D    182
     128     341                                                00010000D    183
     128       0    -215       3       0                               0D    184
     128     344                                                00010000D    185
     128       0    -211       6       0                               0D    186
     128     350                                                00010000D    187
     128       0    -211       6       0                               0D    188
     128     356                                                00010000D    189
     128       0    -211       6       0                               0D    190
     128     362                                                00010000D    191
     128       0    -211       6       0                               0D    192
     128     368                                                00010000D    193
     128       0    -211       6       0                               0D    194
     128     374                                                00010000D    195
     128       0    -211       6       0                               0D    196
     128     380                                                00010000D    197
     128       0    -217       7       0                               0D    198
     128     387                                                00010000D    199
     128       0    -211      20       0                               0D    200
     128     407                                                00010000D    201
     128       0    -211      13       0                               0D    202
     128     420                                                00010000D    203
     128       0    -211      17       0                               0D    204
     502     437                                                00010000D    205
     502                      14       1                               0D    206
     504     451                                                00010001D    207
     504                      11       1                               0D    208
     406     462                                                00000000D    209
     406                       1      15                               0D    210
     314     463                                                00000200D    211
     314                       2       0                               0D    212
     314     465                                                00000200D    213
     314                       2       0                               0D    214
     314     467                                                00000200D    215
     314                       2       0                               0D    216
     314     469                                                00000200D    217
     314                       2       0                               0D    218
     314     471                                                00000200D    219
     314                       2       0                               0D    220
186,3,1,0,0,1,209;                                                     1P      1
514,19,5,1,7,1,9,1,11,1,13,1,15,1,17,1,19,1,21,1,23,1,25,1,27,1,       3P      2
29,1,31,1,33,1,35,1,37,1,39,1,41,1;                                    3P      3
510,167,1,1,43;                                                        5P      4
510,169,1,1,45;                                                        7P      5
510,171,1,1,47;                                                        9P      6
510,173,2,1,49,51;                                                    11P      7
510,175,1,1,53;                                                       13P      8
510,177,1,1,55;                                                       15P      9
510,179,2,1,57,59;                                                    17P     10
510,181,2,1,61,63;                                                    19P     11
510,183,2,1,65,67;                                                    21P     12
510,185,1,1,69;                                                       23P     13
510,187,1,1,71;                                                       25P     14
510,189,1,1,73;                                                       27P     15
510,191,1,1,75;                                                       29P     16
510,193,1,1,77;                                                       31P     17
510,195,1,1,79;                                                       33P     18
510,197,2,1,81,83;                                                    35P     19
510,199,1,1,85;                                                       37P     20
510,201,1,1,87;                                                       39P     21
510,203,1,1,89;                                                       41P     22
508,4,0,207,1,0,0,0,207,2,1,0,0,207,3,0,0,0,207,2,0,0;                43P     23
508,4,0,207,4,1,0,0,207,5,1,0,0,207,6,1,0,0,207,5,0,0;                45P     24
508,4,0,207,6,0,0,0,207,7,1,0,0,207,8,1,0,0,207,7,0,0;                47P     25
508,1,0,207,9,0,0;                                                    49P     26
508,1,0,207,4,0,0;                                                    51P     27
508,4,0,207,10,1,0,0,207,11,1,0,0,207,12,1,0,0,207,11,0,0;            53P     28
508,4,0,207,12,0,0,0,207,13,1,0,0,207,14,1,0,0,207,13,0,0;            55P     29
508,1,0,207,15,0,0;                                                   57P     30
508,1,0,207,10,0,0;                                                   59P     31
508,1,0,207,14,0,0;                                                   61P     32
508,1,0,207,3,1,0;                                                    63P     33
508,1,0,207,8,0,0;                                                    65P     34
508,6,0,207,16,0,0,0,207,17,0,0,0,207,18,0,0,0,207,19,0,0,0,207,      67P     35
20,0,0,0,207,21,0,0;                                                  67P     36
508,4,0,207,19,1,0,0,207,22,1,0,0,207,23,1,0,0,207,24,0,0;            69P     37
508,4,0,207,18,1,0,0,207,25,1,0,0,207,26,1,0,0,207,22,0,0;            71P     38
508,4,0,207,17,1,0,0,207,27,1,0,0,207,28,1,0,0,207,25,0,0;            73P     39
508,4,0,207,16,1,0,0,207,29,1,0,0,207,30,1,0,0,207,27,0,0;            75P     40
508,4,0,207,21,1,0,0,207,31,1,0,0,207,32,1,0,0,207,29,0,0;            77P     41
508,4,0,207,20,1,0,0,207,24,1,0,0,207,33,1,0,0,207,31,0,0;            79P     42
508,6,0,207,28,0,0,0,207,30,0,0,0,207,32,0,0,0,207,33,0,0,0,207,      81P     43
23,0,0,0,207,26,0,0;                                                  81P     44
508,1,0,207,1,1,0;                                                    83P     45
508,4,0,207,34,1,0,0,207,35,1,0,0,207,9,1,0,0,207,35,0,0;             85P     46
508,4,0,207,36,0,0,0,207,37,1,0,0,207,34,0,0,0,207,37,0,0;            87P     47
508,4,0,207,15,1,0,0,207,38,1,0,0,207,36,1,0,0,207,38,0,0;            89P     48
126,8,2,0,1,0,0,-3.14159265358979,-3.14159265358979,                  91P     49
-3.14159265358979,-1.5707963267949,-1.5707963267949,0.,0.,            91P     50
1.5707963267949,1.5707963267949,3.14159265358979,                     91P     51
3.14159265358979,3.14159265358979,1.,0.707106781186548,1.,            91P     52
0.707106781186548,1.,0.707106781186548,1.,0.707106781186548,1.,       91P     53
-3.,-3.67394039744206D-16,22.,-3.,-3.,22.,1.83697019872103D-16,       91P     54
-3.,22.,3.,-3.,22.,3.,0.,22.,3.,3.,22.,1.83697019872103D-16,3.,       91P     55
22.,-3.,3.,22.,-3.,3.67394039744206D-16,22.,-3.14159265358979,        91P     56
3.14159265358979,0.,0.,0.;                                            91P     57
126,1,1,0,0,1,0,7.33333333333333,7.33333333333333,20.,20.,1.,1.,      93P     58
-3.,0.,22.,-3.,0.,60.,7.33333333333333,20.,0.,0.,0.;                  93P     59
126,8,2,0,1,0,0,-3.14159265358979,-3.14159265358979,                  95P     60
-3.14159265358979,-1.5707963267949,-1.5707963267949,0.,0.,            95P     61
1.5707963267949,1.5707963267949,3.14159265358979,                     95P     62
3.14159265358979,3.14159265358979,1.,0.707106781186548,1.,            95P     63
0.707106781186548,1.,0.707106781186548,1.,0.707106781186548,1.,       95P     64
-3.,3.67394039744206D-16,60.,-3.,3.,60.,1.83697019872103D-16,3.,      95P     65
60.,3.,3.,60.,3.,0.,60.,3.,-3.,60.,1.83697019872103D-16,-3.,60.,      95P     66
-3.,-3.,60.,-3.,-3.67394039744206D-16,60.,-3.14159265358979,          95P     67
3.14159265358979,0.,0.,0.;                                            95P     68
126,8,2,0,1,0,0,-3.14159265358979,-3.14159265358979,                  97P     69
-3.14159265358979,-1.5707963267949,-1.5707963267949,0.,0.,            97P     70
1.5707963267949,1.5707963267949,3.14159265358979,                     97P     71
3.14159265358979,3.14159265358979,1.,0.707106781186547,1.,            97P     72
0.707106781186547,1.,0.707106781186547,1.,0.707106781186547,1.,       97P     73
-30.44,3.72782485660454D-15,0.,-30.44,30.44,0.,                       97P     74
1.86391242830227D-15,30.44,0.,30.44,30.44,0.,30.44,0.,0.,30.44,       97P     75
-30.44,0.,1.86391242830227D-15,-30.44,0.,-30.44,-30.44,0.,            97P     76
-30.44,-3.72782485660454D-15,0.,-3.14159265358979,                    97P     77
3.14159265358979,0.,0.,0.;                                            97P     78
126,2,2,0,0,0,0,1.5707963267949,1.5707963267949,1.5707963267949,      99P     79
3.14159265358979,3.14159265358979,3.14159265358979,1.,                99P     80
0.707106781186548,1.,-30.44,0.,0.,-27.94,0.,                          99P     81
2.15318303024854D-16,-27.94,0.,2.5,1.5707963267949,                   99P     82
3.14159265358979,0.,0.,0.;                                            99P     83
126,8,2,0,1,0,0,-3.14159265358979,-3.14159265358979,                 101P     84
-3.14159265358979,-1.5707963267949,-1.5707963267949,0.,0.,           101P     85
1.5707963267949,1.5707963267949,3.14159265358979,                    101P     86
3.14159265358979,3.14159265358979,1.,0.707106781186548,1.,           101P     87
0.707106781186548,1.,0.707106781186548,1.,0.707106781186548,1.,      101P     88
-27.94,-3.42166315681771D-15,2.5,-27.94,-27.94,2.5,                  101P     89
1.71083157840885D-15,-27.94,2.5,27.94,-27.94,2.5,27.94,0.,2.5,       101P     90
27.94,27.94,2.5,1.71083157840885D-15,27.94,2.5,-27.94,27.94,2.5,     101P     91
-27.94,3.42166315681771D-15,2.5,-3.14159265358979,                   101P     92
3.14159265358979,0.,0.,0.;                                           101P     93
126,1,1,0,0,1,0,0.0894774516821761,0.0894774516821761,               103P     94
0.178954903364352,0.178954903364352,1.,1.,-27.94,0.,2.5,-27.94,      103P     95
0.,5.,0.0894774516821761,0.178954903364352,0.,0.,0.;                 103P     96
126,8,2,0,1,0,0,-3.14159265358979,-3.14159265358979,                 105P     97
-3.14159265358979,-1.5707963267949,-1.5707963267949,0.,0.,           105P     98
1.5707963267949,1.5707963267949,3.14159265358979,                    105P     99
3.14159265358979,3.14159265358979,1.,0.707106781186548,1.,           105P    100
0.707106781186548,1.,0.707106781186548,1.,0.707106781186548,1.,      105P    101
-27.94,-3.42166315681771D-15,5.,-27.94,-27.94,5.,                    105P    102
1.71083157840885D-15,-27.94,5.,27.94,-27.94,5.,27.94,0.,5.,          105P    103
27.94,27.94,5.,1.71083157840885D-15,27.94,5.,-27.94,27.94,5.,        105P    104
-27.94,3.42166315681771D-15,5.,-3.14159265358979,                    105P    105
3.14159265358979,0.,0.,0.;                                           105P    106
126,8,2,0,1,0,0,-3.14159265358979,-3.14159265358979,                 107P    107
-3.14159265358979,-1.5707963267949,-1.5707963267949,0.,0.,           107P    108
1.5707963267949,1.5707963267949,3.14159265358979,                    107P    109
3.14159265358979,3.14159265358979,1.,0.707106781186548,1.,           107P    110
0.707106781186548,1.,0.707106781186548,1.,0.707106781186548,1.,      107P    111
-52.,-6.36816335556624D-15,0.,-52.,-52.,0.,3.18408167778312D-15,     107P    112
-52.,0.,52.,-52.,0.,52.,0.,0.,52.,52.,0.,3.18408167778312D-15,       107P    113
52.,0.,-52.,52.,0.,-52.,6.36816335556624D-15,0.,                     107P    114
-3.14159265358979,3.14159265358979,0.,0.,0.;                         107P    115
126,8,2,0,1,0,0,-3.14159265358979,-3.14159265358979,                 109P    116
-3.14159265358979,-1.5707963267949,-1.5707963267949,0.,0.,           109P    117
1.5707963267949,1.5707963267949,3.14159265358979,                    109P    118
3.14159265358979,3.14159265358979,1.,0.707106781186548,1.,           109P    119
0.707106781186548,1.,0.707106781186548,1.,0.707106781186548,1.,      109P    120
30.44,3.72782485660454D-15,65.,30.44,30.44,65.,                      109P    121
-1.86391242830227D-15,30.44,65.,-30.44,30.44,65.,-30.44,0.,65.,      109P    122
-30.44,-30.44,65.,-1.86391242830227D-15,-30.44,65.,30.44,-30.44,     109P    123
65.,30.44,-3.72782485660454D-15,65.,-3.14159265358979,               109P    124
3.14159265358979,0.,0.,0.;                                           109P    125
126,2,2,0,0,0,0,1.5707963267949,1.5707963267949,1.5707963267949,     111P    126
3.14159265358979,3.14159265358979,3.14159265358979,1.,               111P    127
0.707106781186545,1.,30.44,0.,65.,27.94,0.,65.,27.94,0.,62.5,        111P    128
1.5707963267949,3.14159265358979,0.,0.,0.;                           111P    129
126,8,2,0,1,0,0,-3.14159265358979,-3.14159265358979,                 113P    130
-3.14159265358979,-1.5707963267949,-1.5707963267949,0.,0.,           113P    131
1.5707963267949,1.5707963267949,3.14159265358979,                    113P    132
3.14159265358979,3.14159265358979,1.,0.707106781186547,1.,           113P    133
0.707106781186548,1.,0.707106781186548,1.,0.707106781186547,1.,      113P    134
27.94,-3.42166315681771D-15,62.5,27.94,-27.94,62.5,                  113P    135
-1.71083157840885D-15,-27.94,62.5,-27.94,-27.94,62.5,-27.94,0.,      113P    136
62.5,-27.94,27.94,62.5,-1.71083157840885D-15,27.94,62.5,27.94,       113P    137
27.94,62.5,27.94,3.42166315681771D-15,62.5,-3.14159265358979,        113P    138
3.14159265358979,0.,0.,0.;                                           113P    139
126,1,1,0,0,1,0,0.0894774516821761,0.0894774516821761,               115P    140
0.178954903364352,0.178954903364352,1.,1.,27.94,0.,62.5,27.94,       115P    141
0.,60.,0.0894774516821761,0.178954903364352,0.,0.,0.;                115P    142
126,8,2,0,1,0,0,-3.14159265358979,-3.14159265358979,                 117P    143
-3.14159265358979,-1.5707963267949,-1.5707963267949,0.,0.,           117P    144
1.5707963267949,1.5707963267949,3.14159265358979,                    117P    145
3.14159265358979,3.14159265358979,1.,0.707106781186547,1.,           117P    146
0.707106781186548,1.,0.707106781186548,1.,0.707106781186547,1.,      117P    147
27.94,-3.42166315681771D-15,60.,27.94,-27.94,60.,                    117P    148
-1.71083157840885D-15,-27.94,60.,-27.94,-27.94,60.,-27.94,0.,        117P    149
60.,-27.94,27.94,60.,-1.71083157840885D-15,27.94,60.,27.94,          117P    150
27.94,60.,27.94,3.42166315681771D-15,60.,-3.14159265358979,          117P    151
3.14159265358979,0.,0.,0.;                                           117P    152
126,8,2,0,1,0,0,-3.14159265358979,-3.14159265358979,                 119P    153
-3.14159265358979,-1.5707963267949,-1.5707963267949,0.,0.,           119P    154
1.5707963267949,1.5707963267949,3.14159265358979,                    119P    155
3.14159265358979,3.14159265358979,1.,0.707106781186548,1.,           119P    156
0.707106781186548,1.,0.707106781186548,1.,0.707106781186548,1.,      119P    157
-52.,6.36816335556624D-15,65.,-52.,52.,65.,3.18408167778312D-15,     119P    158
52.,65.,52.,52.,65.,52.,0.,65.,52.,-52.,65.,                         119P    159
3.18408167778312D-15,-52.,65.,-52.,-52.,65.,-52.,                    119P    160
-6.36816335556624D-15,65.,-3.14159265358979,3.14159265358979,0.,     119P    161
0.,0.;                                                               119P    162
126,1,1,0,0,1,0,-0.536935750346352,-0.536935750346352,               121P    163
0.178978583448784,0.178978583448784,1.,1.,6.91520144423255,          121P    164
1.85292264248064,5.,5.06227880175191,-5.0622788017519,5.,            121P    165
-0.536935750346352,0.178978583448784,0.,0.,0.;                       121P    166
126,1,1,0,0,1,0,-0.536935750346353,-0.536935750346353,               123P    167
0.178978583448784,0.178978583448784,1.,1.,1.85292264248064,          123P    168
6.91520144423255,5.,6.91520144423255,1.85292264248064,5.,            123P    169
-0.536935750346353,0.178978583448784,0.,0.,0.;                       123P    170
126,1,1,0,0,1,0,-0.536935750346352,-0.536935750346352,               125P    171
0.178978583448784,0.178978583448784,1.,1.,-5.06227880175191,         125P    172
5.0622788017519,5.,1.85292264248063,6.91520144423255,5.,             125P    173
-0.536935750346352,0.178978583448784,0.,0.,0.;                       125P    174
126,1,1,0,0,1,0,-0.536935750346352,-0.536935750346352,               127P    175
0.178978583448784,0.178978583448784,1.,1.,-6.91520144423255,         127P    176
-1.85292264248065,5.,-5.06227880175191,5.0622788017519,5.,           127P    177
-0.536935750346352,0.178978583448784,0.,0.,0.;                       127P    178
126,1,1,0,0,1,0,-0.536935750346353,-0.536935750346353,               129P    179
0.178978583448784,0.178978583448784,1.,1.,-1.85292264248064,         129P    180
-6.91520144423255,5.,-6.91520144423255,-1.85292264248065,5.,         129P    181
-0.536935750346353,0.178978583448784,0.,0.,0.;                       129P    182
126,1,1,0,0,1,0,-0.536935750346352,-0.536935750346352,               131P    183
0.178978583448784,0.178978583448784,1.,1.,5.06227880175191,          131P    184
-5.0622788017519,5.,-1.85292264248064,-6.91520144423255,5.,          131P    185
-0.536935750346352,0.178978583448784,0.,0.,0.;                       131P    186
126,1,1,0,0,1,0,0.5,0.5,2.2,2.2,1.,1.,-5.06227880175191,             133P    187
5.0622788017519,5.,-5.06227880175191,5.0622788017519,22.,0.5,        133P    188
2.2,0.,0.,0.;                                                        133P    189
126,1,1,0,0,1,0,-0.715914333795136,-0.715914333795136,0.,0.,1.,      135P    190
1.,-5.06227880175191,5.0622788017519,22.,-6.91520144423255,          135P    191
-1.85292264248065,22.,-0.715914333795136,0.,0.,0.,0.;                135P    192
126,1,1,0,0,1,0,0.5,0.5,2.2,2.2,1.,1.,-6.91520144423255,             137P    193
-1.85292264248065,5.,-6.91520144423255,-1.85292264248065,22.,        137P    194
0.5,2.2,0.,0.,0.;                                                    137P    195
126,1,1,0,0,1,0,0.5,0.5,2.2,2.2,1.,1.,1.85292264248064,              139P    196
6.91520144423255,5.,1.85292264248064,6.91520144423255,22.,0.5,       139P    197
2.2,0.,0.,0.;                                                        139P    198
126,1,1,0,0,1,0,-0.715914333795136,-0.715914333795136,0.,0.,1.,      141P    199
1.,1.85292264248063,6.91520144423255,22.,-5.06227880175191,          141P    200
5.0622788017519,22.,-0.715914333795136,0.,0.,0.,0.;                  141P    201
126,1,1,0,0,1,0,0.5,0.5,2.2,2.2,1.,1.,6.91520144423255,              143P    202
1.85292264248064,5.,6.91520144423255,1.85292264248064,22.,0.5,       143P    203
2.2,0.,0.,0.;                                                        143P    204
126,1,1,0,0,1,0,-0.715914333795137,-0.715914333795137,0.,0.,1.,      145P    205
1.,6.91520144423255,1.85292264248064,22.,1.85292264248064,           145P    206
6.91520144423255,22.,-0.715914333795137,0.,0.,0.,0.;                 145P    207
126,1,1,0,0,1,0,0.5,0.5,2.2,2.2,1.,1.,5.06227880175191,              147P    208
-5.0622788017519,5.,5.06227880175191,-5.0622788017519,22.,0.5,       147P    209
2.2,0.,0.,0.;                                                        147P    210
126,1,1,0,0,1,0,-0.715914333795136,-0.715914333795136,0.,0.,1.,      149P    211
1.,5.06227880175191,-5.0622788017519,22.,6.91520144423255,           149P    212
1.85292264248064,22.,-0.715914333795136,0.,0.,0.,0.;                 149P    213
126,1,1,0,0,1,0,0.5,0.5,2.2,2.2,1.,1.,-1.85292264248064,             151P    214
-6.91520144423255,5.,-1.85292264248064,-6.91520144423255,22.,        151P    215
0.5,2.2,0.,0.,0.;                                                    151P    216
126,1,1,0,0,1,0,-0.715914333795136,-0.715914333795136,0.,0.,1.,      153P    217
1.,-1.85292264248064,-6.91520144423255,22.,5.06227880175191,         153P    218
-5.0622788017519,22.,-0.715914333795136,0.,0.,0.,0.;                 153P    219
126,1,1,0,0,1,0,-0.715914333795137,-0.715914333795137,0.,0.,1.,      155P    220
1.,-6.91520144423255,-1.85292264248065,22.,-1.85292264248064,        155P    221
-6.91520144423255,22.,-0.715914333795137,0.,0.,0.,0.;                155P    222
126,8,2,0,1,0,0,-3.14159265358979,-3.14159265358979,                 157P    223
-3.14159265358979,-1.5707963267949,-1.5707963267949,0.,0.,           157P    224
1.5707963267949,1.5707963267949,3.14159265358979,                    157P    225
3.14159265358979,3.14159265358979,1.,0.707106781186547,1.,           157P    226
0.707106781186548,1.,0.707106781186548,1.,0.707106781186547,1.,      157P    227
-62.,7.59281015471359D-15,10.,-62.,62.,10.,3.7964050773568D-15,      157P    228
62.,10.,62.,62.,10.,62.,0.,10.,62.,-62.,10.,3.7964050773568D-15,     157P    229
-62.,10.,-62.,-62.,10.,-62.,-7.59281015471359D-15,10.,               157P    230
-3.14159265358979,3.14159265358979,0.,0.,0.;                         157P    231
126,2,2,0,0,0,0,0.,0.,0.,1.5707963267949,1.5707963267949,            159P    232
1.5707963267949,1.,0.707106781186549,1.,-62.,0.,10.,-62.,0.,         159P    233
1.3591728371509D-15,-52.,0.,0.,0.,1.5707963267949,0.,0.,0.;          159P    234
126,8,2,0,1,0,0,-3.14159265358979,-3.14159265358979,                 161P    235
-3.14159265358979,-1.5707963267949,-1.5707963267949,0.,0.,           161P    236
1.5707963267949,1.5707963267949,3.14159265358979,                    161P    237
3.14159265358979,3.14159265358979,1.,0.707106781186547,1.,           161P    238
0.707106781186548,1.,0.707106781186548,1.,0.707106781186547,1.,      161P    239
-62.,-7.59281015471359D-15,55.,-62.,-62.,55.,                        161P    240
3.7964050773568D-15,-62.,55.,62.,-62.,55.,62.,0.,55.,62.,62.,        161P    241
55.,3.7964050773568D-15,62.,55.,-62.,62.,55.,-62.,                   161P    242
7.59281015471359D-15,55.,-3.14159265358979,3.14159265358979,0.,      161P    243
0.,0.;                                                               161P    244
126,1,1,0,0,1,0,-0.887096774193548,-0.887096774193548,               163P    245
-0.161290322580645,-0.161290322580645,1.,1.,-62.,0.,55.,-62.,0.,     163P    246
10.,-0.887096774193548,-0.161290322580645,0.,0.,0.;                  163P    247
126,2,2,0,0,0,0,-1.5707963267949,-1.5707963267949,                   165P    248
-1.5707963267949,0.,0.,0.,1.,0.70710678118655,1.,-52.,0.,65.,        165P    249
-62.,0.,65.,-62.,0.,55.,-1.5707963267949,0.,0.,0.,0.;                165P    250
128,1,8,1,2,0,1,0,0,1,7.33333333333333,7.33333333333333,20.,20.,     167P    251
-3.14159265358979,-3.14159265358979,-3.14159265358979,               167P    252
-1.5707963267949,-1.5707963267949,0.,0.,1.5707963267949,             167P    253
1.5707963267949,3.14159265358979,3.14159265358979,                   167P    254
3.14159265358979,1.,1.,0.707106781186548,0.707106781186548,1.,       167P    255
1.,0.707106781186548,0.707106781186548,1.,1.,0.707106781186548,      167P    256
0.707106781186548,1.,1.,0.707106781186548,0.707106781186548,1.,      167P    257
1.,-3.,0.,22.,-3.,0.,60.,-3.,-3.,22.,-3.,-3.,60.,0.,-3.,22.,0.,      167P    258
-3.,60.,3.,-3.,22.,3.,-3.,60.,3.,0.,22.,3.,0.,60.,3.,3.,22.,3.,      167P    259
3.,60.,0.,3.,22.,0.,3.,60.,-3.,3.,22.,-3.,3.,60.,-3.,0.,22.,-3.,     167P    260
0.,60.,7.33333333333333,20.,-3.14159265358979,3.14159265358979;      167P    261
128,2,8,2,2,0,1,0,0,1,-3.14159265358979,-3.14159265358979,           169P    262
-3.14159265358979,-1.5707963267949,-1.5707963267949,                 169P    263
-1.5707963267949,-3.14159265358979,-3.14159265358979,                169P    264
-3.14159265358979,-1.5707963267949,-1.5707963267949,0.,0.,           169P    265
1.5707963267949,1.5707963267949,3.14159265358979,                    169P    266
3.14159265358979,3.14159265358979,1.,0.707106781186548,1.,           169P    267
0.707106781186548,0.500000000000001,0.707106781186548,1.,            169P    268
0.707106781186548,1.,0.707106781186548,0.500000000000001,            169P    269
0.707106781186548,1.,0.707106781186548,1.,0.707106781186548,         169P    270
0.500000000000001,0.707106781186548,1.,0.707106781186548,1.,         169P    271
0.707106781186548,0.500000000000001,0.707106781186548,1.,            169P    272
0.707106781186548,1.,-30.44,0.,0.,-27.94,0.,                         169P    273
2.15318303024854D-16,-27.94,0.,2.5,-30.44,-30.44,0.,-27.94,          169P    274
-27.94,2.15318303024854D-16,-27.94,-27.94,2.5,0.,-30.44,0.,0.,       169P    275
-27.94,0.,0.,-27.94,2.5,30.44,-30.44,0.,27.94,-27.94,                169P    276
-2.15318303024854D-16,27.94,-27.94,2.5,30.44,0.,0.,27.94,0.,         169P    277
-2.15318303024854D-16,27.94,0.,2.5,30.44,30.44,0.,27.94,27.94,       169P    278
-2.15318303024854D-16,27.94,27.94,2.5,0.,30.44,0.,0.,27.94,0.,       169P    279
0.,27.94,2.5,-30.44,30.44,0.,-27.94,27.94,2.15318303024854D-16,      169P    280
-27.94,27.94,2.5,-30.44,0.,0.,-27.94,0.,2.15318303024854D-16,        169P    281
-27.94,0.,2.5,-3.14159265358979,-1.5707963267949,                    169P    282
-3.14159265358979,3.14159265358979;                                  169P    283
128,1,8,1,2,0,1,0,0,1,0.0894774516821761,0.0894774516821761,         171P    284
0.178954903364352,0.178954903364352,-3.14159265358979,               171P    285
-3.14159265358979,-3.14159265358979,-1.5707963267949,                171P    286
-1.5707963267949,0.,0.,1.5707963267949,1.5707963267949,              171P    287
3.14159265358979,3.14159265358979,3.14159265358979,1.,1.,            171P    288
0.707106781186548,0.707106781186548,1.,1.,0.707106781186548,         171P    289
0.707106781186548,1.,1.,0.707106781186548,0.707106781186548,1.,      171P    290
1.,0.707106781186548,0.707106781186548,1.,1.,-27.94,0.,2.5,          171P    291
-27.94,0.,5.,-27.94,-27.94,2.5,-27.94,-27.94,5.,0.,-27.94,2.5,       171P    292
0.,-27.94,5.,27.94,-27.94,2.5,27.94,-27.94,5.,27.94,0.,2.5,          171P    293
27.94,0.,5.,27.94,27.94,2.5,27.94,27.94,5.,0.,27.94,2.5,0.,          171P    294
27.94,5.,-27.94,27.94,2.5,-27.94,27.94,5.,-27.94,0.,2.5,-27.94,      171P    295
0.,5.,0.0894774516821761,0.178954903364352,-3.14159265358979,        171P    296
3.14159265358979;                                                    171P    297
128,1,1,1,1,0,0,1,0,0,-5.201,-5.201,5.201,5.201,-5.201,-5.201,       173P    298
5.201,5.201,1.,1.,1.,1.,52.01,-52.01,0.,-52.01,-52.01,0.,52.01,      173P    299
52.01,0.,-52.01,52.01,0.,-5.201,5.201,-5.201,5.201;                  173P    300
128,2,8,2,2,0,1,0,0,1,-3.14159265358979,-3.14159265358979,           175P    301
-3.14159265358979,-1.5707963267949,-1.5707963267949,                 175P    302
-1.5707963267949,-3.14159265358979,-3.14159265358979,                175P    303
-3.14159265358979,-1.5707963267949,-1.5707963267949,0.,0.,           175P    304
1.5707963267949,1.5707963267949,3.14159265358979,                    175P    305
3.14159265358979,3.14159265358979,1.,0.707106781186545,1.,           175P    306
0.707106781186548,0.499999999999998,0.707106781186548,1.,            175P    307
0.707106781186545,1.,0.707106781186548,0.499999999999998,            175P    308
0.707106781186548,1.,0.707106781186545,1.,0.707106781186548,         175P    309
0.499999999999998,0.707106781186548,1.,0.707106781186545,1.,         175P    310
0.707106781186548,0.499999999999998,0.707106781186548,1.,            175P    311
0.707106781186545,1.,30.44,0.,65.,27.94,0.,65.,27.94,0.,62.5,        175P    312
30.44,-30.44,65.,27.94,-27.94,65.,27.94,-27.94,62.5,0.,-30.44,       175P    313
65.,0.,-27.94,65.,0.,-27.94,62.5,-30.44,-30.44,65.,-27.94,           175P    314
-27.94,65.,-27.94,-27.94,62.5,-30.44,0.,65.,-27.94,0.,65.,           175P    315
-27.94,0.,62.5,-30.44,30.44,65.,-27.94,27.94,65.,-27.94,27.94,       175P    316
62.5,0.,30.44,65.,0.,27.94,65.,0.,27.94,62.5,30.44,30.44,65.,        175P    317
27.94,27.94,65.,27.94,27.94,62.5,30.44,0.,65.,27.94,0.,65.,          175P    318
27.94,0.,62.5,-3.14159265358979,-1.5707963267949,                    175P    319
-3.14159265358979,3.14159265358979;                                  175P    320
128,1,8,1,2,0,1,0,0,1,0.0894774516821761,0.0894774516821761,         177P    321
0.178954903364352,0.178954903364352,-3.14159265358979,               177P    322
-3.14159265358979,-3.14159265358979,-1.5707963267949,                177P    323
-1.5707963267949,0.,0.,1.5707963267949,1.5707963267949,              177P    324
3.14159265358979,3.14159265358979,3.14159265358979,1.,1.,            177P    325
0.707106781186548,0.707106781186548,1.,1.,0.707106781186548,         177P    326
0.707106781186548,1.,1.,0.707106781186548,0.707106781186548,1.,      177P    327
1.,0.707106781186548,0.707106781186548,1.,1.,27.94,0.,62.5,          177P    328
27.94,0.,60.,27.94,-27.94,62.5,27.94,-27.94,60.,0.,-27.94,62.5,      177P    329
0.,-27.94,60.,-27.94,-27.94,62.5,-27.94,-27.94,60.,-27.94,0.,        177P    330
62.5,-27.94,0.,60.,-27.94,27.94,62.5,-27.94,27.94,60.,0.,27.94,      177P    331
62.5,0.,27.94,60.,27.94,27.94,62.5,27.94,27.94,60.,27.94,0.,         177P    332
62.5,27.94,0.,60.,0.0894774516821761,0.178954903364352,              177P    333
-3.14159265358979,3.14159265358979;                                  177P    334
128,1,1,1,1,0,0,1,0,0,-5.201,-5.201,5.201,5.201,-5.201,-5.201,       179P    335
5.201,5.201,1.,1.,1.,1.,-52.01,-52.01,65.,52.01,-52.01,65.,          179P    336
-52.01,52.01,65.,52.01,52.01,65.,-5.201,5.201,-5.201,5.201;          179P    337
128,1,1,1,1,0,0,1,0,0,-2.795,-2.795,2.795,2.795,-2.795,-2.795,       181P    338
2.795,2.795,1.,1.,1.,1.,27.95,27.95,60.,-27.95,27.95,60.,27.95,      181P    339
-27.95,60.,-27.95,-27.95,60.,-2.795,2.795,-2.795,2.795;              181P    340
128,1,1,1,1,0,0,1,0,0,-2.795,-2.795,2.795,2.795,-2.795,-2.795,       183P    341
2.795,2.795,1.,1.,1.,1.,27.95,-27.95,5.,-27.95,-27.95,5.,27.95,      183P    342
27.95,5.,-27.95,27.95,5.,-2.795,2.795,-2.795,2.795;                  183P    343
128,1,1,1,1,0,0,1,0,0,-0.001,-0.001,0.716914333795136,               185P    344
0.716914333795136,0.499,0.499,2.201,2.201,1.,1.,1.,1.,               185P    345
-6.91778963468357,-1.86258190074354,4.99,-5.05969061130088,          185P    346
5.07193806001479,4.99,-6.91778963468357,-1.86258190074354,22.01,     185P    347
-5.05969061130088,5.07193806001479,22.01,-0.001,                     185P    348
0.716914333795136,0.499,2.201;                                       185P    349
128,1,1,1,1,0,0,1,0,0,-0.00100000000000008,-0.00100000000000008,     187P    350
0.716914333795136,0.716914333795136,0.499,0.499,2.201,2.201,1.,      187P    351
1.,1.,1.,-5.0719380600148,5.05969061130087,4.99,                     187P    352
1.86258190074353,6.91778963468358,4.99,-5.0719380600148,             187P    353
5.05969061130087,22.01,1.86258190074353,6.91778963468358,22.01,      187P    354
-0.00100000000000008,0.716914333795136,0.499,2.201;                  187P    355
128,1,1,1,1,0,0,1,0,0,-0.001,-0.001,0.716914333795137,               189P    356
0.716914333795137,0.499,0.499,2.201,2.201,1.,1.,1.,1.,               189P    357
1.84585157466877,6.92227251204442,4.99,6.92227251204442,             189P    358
1.84585157466878,4.99,1.84585157466877,6.92227251204442,22.01,       189P    359
6.92227251204442,1.84585157466878,22.01,-0.001,                      189P    360
0.716914333795137,0.499,2.201;                                       189P    361
128,1,1,1,1,0,0,1,0,0,-0.00100000000000011,-0.00100000000000011,     191P    362
0.716914333795136,0.716914333795136,0.499,0.499,2.201,2.201,1.,      191P    363
1.,1.,1.,6.91778963468358,1.86258190074353,4.99,                     191P    364
5.05969061130088,-5.07193806001479,4.99,6.91778963468358,            191P    365
1.86258190074353,22.01,5.05969061130088,-5.07193806001479,22.01,     191P    366
-0.00100000000000011,0.716914333795136,0.499,2.201;                  191P    367
128,1,1,1,1,0,0,1,0,0,-0.001,-0.001,0.716914333795136,               193P    368
0.716914333795136,0.499,0.499,2.201,2.201,1.,1.,1.,1.,               193P    369
5.0719380600148,-5.05969061130088,4.99,-1.86258190074353,            193P    370
-6.91778963468358,4.99,5.0719380600148,-5.05969061130088,22.01,      193P    371
-1.86258190074353,-6.91778963468358,22.01,-0.001,                    193P    372
0.716914333795136,0.499,2.201;                                       193P    373
128,1,1,1,1,0,0,1,0,0,-0.00100000000000016,-0.00100000000000016,     195P    374
0.716914333795137,0.716914333795137,0.499,0.499,2.201,2.201,1.,      195P    375
1.,1.,1.,-1.84585157466877,-6.92227251204442,4.99,                   195P    376
-6.92227251204441,-1.84585157466878,4.99,-1.84585157466877,          195P    377
-6.92227251204442,22.01,-6.92227251204441,-1.84585157466878,         195P    378
22.01,-0.00100000000000016,0.716914333795137,0.499,2.201;            195P    379
128,1,1,1,1,0,0,1,0,0,-0.692520144423255,-0.692520144423255,         197P    380
0.692520144423255,0.692520144423255,-0.692520144423255,              197P    381
-0.692520144423255,0.692520144423255,0.692520144423255,1.,1.,1.,     197P    382
1.,6.92520144423255,-6.92520144423255,22.,-6.92520144423255,         197P    383
-6.92520144423255,22.,6.92520144423255,6.92520144423255,22.,         197P    384
-6.92520144423255,6.92520144423255,22.,-0.692520144423255,           197P    385
0.692520144423255,-0.692520144423255,0.692520144423255;              197P    386
128,2,8,2,2,0,1,0,0,1,-1.5707963267949,-1.5707963267949,             199P    387
-1.5707963267949,0.,0.,0.,-3.14159265358979,-3.14159265358979,       199P    388
-3.14159265358979,-1.5707963267949,-1.5707963267949,0.,0.,           199P    389
1.5707963267949,1.5707963267949,3.14159265358979,                    199P    390
3.14159265358979,3.14159265358979,1.,0.707106781186549,1.,           199P    391
0.707106781186548,0.500000000000001,0.707106781186548,1.,            199P    392
0.707106781186549,1.,0.707106781186548,0.500000000000001,            199P    393
0.707106781186548,1.,0.707106781186549,1.,0.707106781186548,         199P    394
0.500000000000001,0.707106781186548,1.,0.707106781186549,1.,         199P    395
0.707106781186548,0.500000000000001,0.707106781186548,1.,            199P    396
0.707106781186549,1.,-62.,0.,10.,-62.,0.,1.3591728371509D-15,        199P    397
-52.,0.,0.,-62.,-62.,10.,-62.,-62.,1.3591728371509D-15,-52.,         199P    398
-52.,0.,0.,-62.,10.,0.,-62.,1.11022302462516D-15,0.,-52.,0.,62.,     199P    399
-62.,10.,62.,-62.,8.61273212099417D-16,52.,-52.,0.,62.,0.,10.,       199P    400
62.,0.,8.61273212099417D-16,52.,0.,0.,62.,62.,10.,62.,62.,           199P    401
8.61273212099417D-16,52.,52.,0.,0.,62.,10.,0.,62.,                   199P    402
1.11022302462516D-15,0.,52.,0.,-62.,62.,10.,-62.,62.,                199P    403
1.3591728371509D-15,-52.,52.,0.,-62.,0.,10.,-62.,0.,                 199P    404
1.3591728371509D-15,-52.,0.,0.,-1.5707963267949,0.,                  199P    405
-3.14159265358979,3.14159265358979;                                  199P    406
128,1,8,1,2,0,1,0,0,1,0.161290322580645,0.161290322580645,           201P    407
0.887096774193548,0.887096774193548,-3.14159265358979,               201P    408
-3.14159265358979,-3.14159265358979,-1.5707963267949,                201P    409
-1.5707963267949,0.,0.,1.5707963267949,1.5707963267949,              201P    410
3.14159265358979,3.14159265358979,3.14159265358979,1.,1.,            201P    411
0.707106781186548,0.707106781186548,1.,1.,0.707106781186548,         201P    412
0.707106781186548,1.,1.,0.707106781186548,0.707106781186548,1.,      201P    413
1.,0.707106781186548,0.707106781186548,1.,1.,-62.,0.,55.,-62.,       201P    414
0.,10.,-62.,-62.,55.,-62.,-62.,10.,0.,-62.,55.,0.,-62.,10.,62.,      201P    415
-62.,55.,62.,-62.,10.,62.,0.,55.,62.,0.,10.,62.,62.,55.,62.,62.,     201P    416
10.,0.,62.,55.,0.,62.,10.,-62.,62.,55.,-62.,62.,10.,-62.,0.,55.,     201P    417
-62.,0.,10.,0.161290322580645,0.887096774193548,                     201P    418
-3.14159265358979,3.14159265358979;                                  201P    419
128,2,8,2,2,0,1,0,0,1,0.,0.,0.,1.5707963267949,1.5707963267949,      203P    420
1.5707963267949,-3.14159265358979,-3.14159265358979,                 203P    421
-3.14159265358979,-1.5707963267949,-1.5707963267949,0.,0.,           203P    422
1.5707963267949,1.5707963267949,3.14159265358979,                    203P    423
3.14159265358979,3.14159265358979,1.,0.70710678118655,1.,            203P    424
0.707106781186548,0.500000000000002,0.707106781186548,1.,            203P    425
0.70710678118655,1.,0.707106781186548,0.500000000000002,             203P    426
0.707106781186548,1.,0.70710678118655,1.,0.707106781186548,          203P    427
0.500000000000002,0.707106781186548,1.,0.70710678118655,1.,          203P    428
0.707106781186548,0.500000000000002,0.707106781186548,1.,            203P    429
0.70710678118655,1.,-52.,0.,65.,-62.,0.,65.,-62.,0.,55.,-52.,        203P    430
-52.,65.,-62.,-62.,65.,-62.,-62.,55.,0.,-52.,65.,0.,-62.,65.,0.,     203P    431
-62.,55.,52.,-52.,65.,62.,-62.,65.,62.,-62.,55.,52.,0.,65.,62.,      203P    432
0.,65.,62.,0.,55.,52.,52.,65.,62.,62.,65.,62.,62.,55.,0.,52.,        203P    433
65.,0.,62.,65.,0.,62.,55.,-52.,52.,65.,-62.,62.,65.,-62.,62.,        203P    434
55.,-52.,0.,65.,-62.,0.,65.,-62.,0.,55.,0.,1.5707963267949,          203P    435
-3.14159265358979,3.14159265358979;                                  203P    436
502,24,-3.,-3.67394039744206D-16,22.,-3.,3.67394039744206D-16,       205P    437
60.,-30.44,3.72782485660454D-15,0.,-27.94,-3.42166315681771D-15,     205P    438
2.5,-27.94,-3.42166315681771D-15,5.,-52.,-6.36816335556624D-15,      205P    439
0.,30.44,3.72782485660454D-15,65.,27.94,-3.42166315681771D-15,       205P    440
62.5,27.94,3.42166315681771D-15,60.,-52.,6.36816335556624D-15,       205P    441
65.,6.91520144423255,1.85292264248064,5.,5.06227880175191,           205P    442
-5.0622788017519,5.,1.85292264248064,6.91520144423255,5.,            205P    443
-5.06227880175191,5.0622788017519,5.,-6.91520144423255,              205P    444
-1.85292264248065,5.,-1.85292264248064,-6.91520144423255,5.,         205P    445
-5.06227880175191,5.0622788017519,22.,-6.91520144423255,             205P    446
-1.85292264248065,22.,1.85292264248064,6.91520144423255,22.,         205P    447
6.91520144423255,1.85292264248064,22.,5.06227880175191,              205P    448
-5.0622788017519,22.,-1.85292264248064,-6.91520144423255,22.,        205P    449
-62.,7.59281015471359D-15,10.,-62.,-7.59281015471359D-15,55.;        205P    450
504,38,91,205,1,205,1,93,205,1,205,2,95,205,2,205,2,97,205,3,        207P    451
205,3,99,205,3,205,4,101,205,4,205,4,103,205,4,205,5,105,205,5,      207P    452
205,5,107,205,6,205,6,109,205,7,205,7,111,205,7,205,8,113,205,8,     207P    453
205,8,115,205,8,205,9,117,205,9,205,9,119,205,10,205,10,121,205,     207P    454
11,205,12,123,205,13,205,11,125,205,14,205,13,127,205,15,205,14,     207P    455
129,205,16,205,15,131,205,12,205,16,133,205,14,205,17,135,205,       207P    456
17,205,18,137,205,15,205,18,139,205,13,205,19,141,205,19,205,17,     207P    457
143,205,11,205,20,145,205,20,205,19,147,205,12,205,21,149,205,       207P    458
21,205,20,151,205,16,205,22,153,205,22,205,21,155,205,18,205,22,     207P    459
157,205,23,205,23,159,205,23,205,6,161,205,24,205,24,163,205,24,     207P    460
205,23,165,205,10,205,24;                                            207P    461
406,1,5HBody1;                                                       209P    462
314,9.80392156862745,9.80392156862745,9.80392156862745,29HPaint      211P    463
- Enamel Glossy (Black);                                             211P    464
314,76.8627450980392,20.7843137254902,15.2941176470588,27HPaint      213P    465
- Enamel Glossy (Red);                                               213P    466
314,34.9019607843137,34.9019607843137,34.9019607843137,33HPaint      215P    467
- Enamel Glossy (Dark Grey);                                         215P    468
314,70.1960784313725,70.1960784313725,70.1960784313725,28HPaint      217P    469
- Enamel Glossy (Grey);                                              217P    470
314,62.7450980392157,62.7450980392157,62.7450980392157,13HSteel      219P    471
- Satin;                                                             219P    472
S      1G      3D    220P    472                                        T      1
