0
SECTION
2
HEADER
9
$INSUNITS
70
4
9
$ACADVER
1
AC1014
9
$HANDSEED
5
FFFF
0
ENDSEC
0
SECTION
2
TABLES
0
TABLE
2
VPORT
5
8
100
AcDbSymbolTable
0
ENDTAB
0
TABLE
2
LTYPE
5
5
100
AcDbSymbolTable
0
LTYPE
5
14
100
AcDbSymbolTableRecord
100
AcDbLinetypeTableRecord
2
BYBLOCK
70
0
0
LTYPE
5
15
100
AcDbSymbolTableRecord
100
AcDbLinetypeTableRecord
2
BYLAYER
70
0
0
ENDTAB
0
TABLE
2
LAYER
5
2
100
AcDbSymbolTable
70
2
0
LAYER
5
50
100
AcDbSymbolTableRecord
100
AcDbLayerTableRecord
2
0
70
0
6
CONTINUOUS
0
ENDTAB
0
TABLE
2
STYLE
5
3
100
AcDbSymbolTable
70
1
0
STYLE
5
11
100
AcDbSymbolTableRecord
100
AcDbTextStyleTableRecord
2
STANDARD
70
0
0
ENDTAB
0
TABLE
2
VIEW
5
6
100
AcDbSymbolTable
70
0
0
ENDTAB
0
TABLE
2
UCS
5
7
100
AcDbSymbolTable
70
0
0
ENDTAB
0
TABLE
2
APPID
5
9
100
AcDbSymbolTable
70
2
0
APPID
5
12
100
AcDbSymbolTableRecord
100
AcDbRegAppTableRecord
2
ACAD
70
0
0
ENDTAB
0
TABLE
2
DIMSTYLE
5
A
100
AcDbSymbolTable
70
1
0
ENDTAB
0
TABLE
2
BLOCK_RECORD
5
1
100
AcDbSymbolTable
70
1
0
BLOCK_RECORD
5
1F
100
AcDbSymbolTableRecord
100
AcDbBlockTableRecord
2
*MODEL_SPACE
0
BLOCK_RECORD
5
1B
100
AcDbSymbolTableRecord
100
AcDbBlockTableRecord
2
*PAPER_SPACE
0
ENDTAB
0
ENDSEC
0
SECTION
2
BLOCKS
0
BLOCK
5
20
100
AcDbEntity
100
AcDbBlockBegin
2
*MODEL_SPACE
0
ENDBLK
5
21
100
AcDbEntity
100
AcDbBlockEnd
0
BLOCK
5
1C
100
AcDbEntity
100
AcDbBlockBegin
2
*PAPER_SPACE
0
ENDBLK
5
1D
100
AcDbEntity
100
AcDbBlockEnd
0
ENDSEC
0
SECTION
2
ENTITIES
0
LWPOLYLINE
5
100
100
AcDbEntity
8
0
100
AcDbPolyline
90
4
70
1
43
0.0
10
-266.57665202185115
20
66.16141913178879
10
-376.57665202185115
20
66.16141913178879
10
-376.57665202185115
20
-58.83858086821121
10
-266.57665202185115
20
-58.83858086821121
0
LWPOLYLINE
5
101
100
AcDbEntity
8
0
100
AcDbPolyline
90
4
70
1
43
0.0
10
293.42334797814885
20
66.161419131788719
10
293.42334797814885
20
-58.838580868211281
10
403.42334797814885
20
-58.838580868211281
10
403.42334797814885
20
66.161419131788719
0
LINE
5
102
100
AcDbEntity
8
0
100
AcDbLine
10
-376.57665202185115
20
3.6614191317887901
30
0
11
403.42334797814885
21
3.661419131788719
31
0
0
LINE
5
103
100
AcDbEntity
8
0
100
AcDbLine
10
-341.57665202185115
20
366.16141913178876
30
0
11
-231.57665202185115
21
366.16141913178876
31
0
0
LINE
5
104
100
AcDbEntity
8
0
100
AcDbLine
10
-231.57665202185115
20
366.16141913178876
30
0
11
-231.57665202185115
21
241.16141913178879
31
0
0
LINE
5
105
100
AcDbEntity
8
0
100
AcDbLine
10
-231.57665202185115
20
241.16141913178879
30
0
11
-341.57665202185115
21
241.16141913178879
31
0
0
LINE
5
106
100
AcDbEntity
8
0
100
AcDbLine
10
-341.57665202185115
20
241.16141913178879
30
0
11
-341.57665202185115
21
366.16141913178876
31
0
0
LINE
5
107
100
AcDbEntity
8
0
100
AcDbLine
10
-341.57665202185115
20
-393.83858086821124
30
0
11
-341.57665202185115
21
-268.83858086821124
31
0
0
LINE
5
108
100
AcDbEntity
8
0
100
AcDbLine
10
-341.57665202185115
20
-268.83858086821124
30
0
11
-231.57665202185115
21
-268.83858086821124
31
0
0
LINE
5
109
100
AcDbEntity
8
0
100
AcDbLine
10
-231.57665202185115
20
-268.83858086821124
30
0
11
-231.57665202185115
21
-393.83858086821124
31
0
0
LINE
5
110
100
AcDbEntity
8
0
100
AcDbLine
10
-231.57665202185115
20
-393.83858086821124
30
0
11
-341.57665202185115
21
-393.83858086821124
31
0
0
LWPOLYLINE
5
111
100
AcDbEntity
8
0
100
AcDbPolyline
90
4
70
1
43
0.0
10
258.42334797814891
20
366.16141913178876
10
258.42334797814891
20
241.16141913178879
10
368.42334797814885
20
241.16141913178879
10
368.42334797814885
20
366.16141913178876
0
LWPOLYLINE
5
112
100
AcDbEntity
8
0
100
AcDbPolyline
90
4
70
1
43
0.0
10
258.42334797814885
20
-268.83858086821124
10
258.42334797814885
20
-393.83858086821124
10
368.42334797814885
20
-393.83858086821124
10
368.42334797814885
20
-268.83858086821124
0
LINE
5
113
100
AcDbEntity
8
0
100
AcDbLine
10
-341.57665202185115
20
303.66141913178876
30
0
11
368.42334797814885
21
303.66141913178876
31
0
0
LINE
5
114
100
AcDbEntity
8
0
100
AcDbLine
10
-341.57665202185115
20
-331.33858086821124
30
0
11
368.42334797814885
21
-331.33858086821124
31
0
0
LINE
5
115
100
AcDbEntity
8
0
100
AcDbLine
10
-266.57665202185115
20
66.16141913178879
30
0
11
-266.57665202185115
21
-58.83858086821121
31
0
0
LINE
5
116
100
AcDbEntity
8
0
100
AcDbLine
10
-231.57665202185115
20
241.16141913178879
30
0
11
-231.57665202185115
21
-268.83858086821124
31
0
0
LINE
5
117
100
AcDbEntity
8
0
100
AcDbLine
10
-321.57665202185115
20
66.16141913178879
30
0
11
-321.57665202185115
21
-58.83858086821121
31
0
0
LINE
5
118
100
AcDbEntity
8
0
100
AcDbLine
10
348.42334797814885
20
66.161419131788719
30
0
11
348.42334797814885
21
-58.838580868211281
31
0
0
LINE
5
119
100
AcDbEntity
8
0
100
AcDbLine
10
-286.57665202185115
20
366.16141913178876
30
0
11
-286.57665202185115
21
241.16141913178879
31
0
0
LINE
5
120
100
AcDbEntity
8
0
100
AcDbLine
10
313.42334797814891
20
366.16141913178876
30
0
11
313.42334797814908
21
241.16141913178839
31
0
0
ENDSEC
0
SECTION
2
OBJECTS
0
DICTIONARY
5
C
100
AcDbDictionary
3
ACAD_GROUP
350
D
3
ACAD_MLINESTYLE
350
17
0
DICTIONARY
5
D
100
AcDbDictionary
0
DICTIONARY
5
1A
330
C
100
AcDbDictionary
0
DICTIONARY
5
17
100
AcDbDictionary
0
ENDSEC
0
EOF
