                                                                        S      1
,,13HMoyeu 18mm v3,13HMoyeu 18mm v3,7Hunknown,7Hunknown,32,38,7,99,15,, G      1
1.,2,2HMM,1,0.08,15H20201205.181606,0.01,10000.,7Hunknown,7Hunknown,11, G      2
0,15H20191010.123104;                                                   G      3
     186       1                                                00000000D      1
     186            -123       1       0                               0D      2
     514       2                                                00010000D      3
     514                       1       1                               0D      4
     510       3                                                00010000D      5
     510            -123       1       1                               0D      6
     510       4                                                00010000D      7
     510            -123       1       1                               0D      8
     510       5                                                00010000D      9
     510            -123       1       1                               0D     10
     510       6                                                00010000D     11
     510            -123       1       1                               0D     12
     510       7                                                00010000D     13
     510            -123       1       1                               0D     14
     510       8                                                00010000D     15
     510            -123       1       1                               0D     16
     510       9                                                00010000D     17
     510            -123       1       1                               0D     18
     510      10                                                00010000D     19
     510            -123       1       1                               0D     20
     510      11                                                00010000D     21
     510            -123       1       1                               0D     22
     510      12                                                00010000D     23
     510            -123       1       1                               0D     24
     508      13                                                00010000D     25
     508                       1       1                               0D     26
     508      14                                                00010000D     27
     508                       1       1                               0D     28
     508      15                                                00010000D     29
     508                       1       1                               0D     30
     508      16                                                00010000D     31
     508                       1       1                               0D     32
     508      17                                                00010000D     33
     508                       1       1                               0D     34
     508      18                                                00010000D     35
     508                       1       1                               0D     36
     508      19                                                00010000D     37
     508                       1       1                               0D     38
     508      20                                                00010000D     39
     508                       1       1                               0D     40
     508      21                                                00010000D     41
     508                       2       1                               0D     42
     508      23                                                00010000D     43
     508                       1       1                               0D     44
     508      24                                                00010000D     45
     508                       2       1                               0D     46
     508      26                                                00010000D     47
     508                       1       1                               0D     48
     126      27                                                00010000D     49
     126       0               3       0                               0D     50
     126      30                                                00010000D     51
     126       0               3       0                               0D     52
     126      33                                                00010000D     53
     126       0               3       0                               0D     54
     126      36                                                00010000D     55
     126       0               3       0                               0D     56
     126      39                                                00010000D     57
     126       0               3       0                               0D     58
     126      42                                                00010000D     59
     126       0               3       0                               0D     60
     126      45                                                00010000D     61
     126       0               3       0                               0D     62
     126      48                                                00010000D     63
     126       0               3       0                               0D     64
     126      51                                                00010000D     65
     126       0               3       0                               0D     66
     126      54                                                00010000D     67
     126       0               3       0                               0D     68
     126      57                                                00010000D     69
     126       0               3       0                               0D     70
     126      60                                                00010000D     71
     126       0               3       0                               0D     72
     126      63                                                00010000D     73
     126       0               3       0                               0D     74
     126      66                                                00010000D     75
     126       0               3       0                               0D     76
     126      69                                                00010000D     77
     126       0               3       0                               0D     78
     126      72                                                00010000D     79
     126       0               3       0                               0D     80
     126      75                                                00010000D     81
     126       0               3       0                               0D     82
     126      78                                                00010000D     83
     126       0               3       0                               0D     84
     126      81                                                00010000D     85
     126       0               3       0                               0D     86
     126      84                                                00010000D     87
     126       0               2       0                               0D     88
     126      86                                                00010000D     89
     126       0               3       0                               0D     90
     126      89                                                00010000D     91
     126       0               2       0                               0D     92
     126      91                                                00010000D     93
     126       0              12       0                               0D     94
     126     103                                                00010000D     95
     126       0              12       0                               0D     96
     128     115                                                00010000D     97
     128       0    -123       6       0                               0D     98
     128     121                                                00010000D     99
     128       0    -123       6       0                               0D    100
     128     127                                                00010000D    101
     128       0    -123       6       0                               0D    102
     128     133                                                00010000D    103
     128       0    -123       6       0                               0D    104
     128     139                                                00010000D    105
     128       0    -123       6       0                               0D    106
     128     145                                                00010000D    107
     128       0    -123       6       0                               0D    108
     128     151                                                00010000D    109
     128       0    -123       5       0                               0D    110
     128     156                                                00010000D    111
     128       0    -123      18       0                               0D    112
     128     174                                                00010000D    113
     128       0    -123       7       0                               0D    114
     128     181                                                00010000D    115
     128       0    -123       7       0                               0D    116
     502     188                                                00010000D    117
     502                      10       1                               0D    118
     504     198                                                00010001D    119
     504                       7       1                               0D    120
     406     205                                                00000000D    121
     406                       1      15                               0D    122
     314     206                                                00000200D    123
     314                       2       0                               0D    124
186,3,1,0,0,1,121;                                                     1P      1
514,10,5,1,7,1,9,1,11,1,13,1,15,1,17,1,19,1,21,1,23,1;                 3P      2
510,97,1,1,25;                                                         5P      3
510,99,1,1,27;                                                         7P      4
510,101,1,1,29;                                                        9P      5
510,103,1,1,31;                                                       11P      6
510,105,1,1,33;                                                       13P      7
510,107,1,1,35;                                                       15P      8
510,109,1,1,37;                                                       17P      9
510,111,1,1,39;                                                       19P     10
510,113,2,1,41,43;                                                    21P     11
510,115,2,1,45,47;                                                    23P     12
508,4,0,119,1,1,0,0,119,2,1,0,0,119,3,0,0,0,119,4,0,0;                25P     13
508,4,0,119,5,1,0,0,119,4,1,0,0,119,6,0,0,0,119,7,0,0;                27P     14
508,4,0,119,8,1,0,0,119,7,1,0,0,119,9,0,0,0,119,10,0,0;               29P     15
508,4,0,119,11,1,0,0,119,10,1,0,0,119,12,0,0,0,119,13,0,0;            31P     16
508,4,0,119,14,1,0,0,119,13,1,0,0,119,15,0,0,0,119,16,0,0;            33P     17
508,4,0,119,17,1,0,0,119,16,1,0,0,119,18,0,0,0,119,2,0,0;             35P     18
508,4,0,119,19,1,0,0,119,20,1,0,0,119,21,0,0,0,119,22,0,0;            37P     19
508,4,0,119,23,1,0,0,119,22,1,0,0,119,24,0,0,0,119,20,0,0;            39P     20
508,6,0,119,18,1,0,0,119,15,1,0,0,119,12,1,0,0,119,9,1,0,0,119,       41P     21
6,1,0,0,119,3,1,0;                                                    41P     22
508,2,0,119,24,1,0,0,119,21,1,0;                                      43P     23
508,6,0,119,17,0,0,0,119,1,0,0,0,119,5,0,0,0,119,8,0,0,0,119,11,      45P     24
0,0,0,119,14,0,0;                                                     45P     25
508,2,0,119,23,0,0,0,119,19,0,0;                                      47P     26
126,1,1,0,0,1,0,0.,0.,0.681273317643759,0.681273317643759,1.,1.,      49P     27
-4.88663303475427,-4.747014948047,0.,1.66771901977604,                49P     28
-6.60545582109294,0.,0.,0.681273317643759,0.,0.,0.;                   49P     29
126,1,1,0,0,1,0,0.,0.,2.,2.,1.,1.,1.66771901977604,                   51P     30
-6.60545582109294,0.,1.66771901977604,-6.60545582109294,20.,0.,       51P     31
2.,0.,0.,0.;                                                          51P     32
126,1,1,0,0,1,0,0.,0.,0.681273317643759,0.681273317643759,1.,1.,      53P     33
-4.88663303475427,-4.747014948047,20.,1.66771901977604,               53P     34
-6.60545582109294,20.,0.,0.681273317643759,0.,0.,0.;                  53P     35
126,1,1,0,0,1,0,0.,0.,2.,2.,1.,1.,-4.88663303475427,                  55P     36
-4.747014948047,0.,-4.88663303475427,-4.747014948047,20.,0.,2.,       55P     37
0.,0.,0.;                                                             55P     38
126,1,1,0,0,1,0,0.,0.,0.681273317643758,0.681273317643758,1.,1.,      57P     39
-6.55435205453031,1.85844087304593,0.,-4.88663303475427,              57P     40
-4.747014948047,0.,0.,0.681273317643758,0.,0.,0.;                     57P     41
126,1,1,0,0,1,0,0.,0.,0.681273317643758,0.681273317643758,1.,1.,      59P     42
-6.55435205453031,1.85844087304593,20.,-4.88663303475427,             59P     43
-4.747014948047,20.,0.,0.681273317643758,0.,0.,0.;                    59P     44
126,1,1,0,0,1,0,0.,0.,2.,2.,1.,1.,-6.55435205453031,                  61P     45
1.85844087304593,0.,-6.55435205453031,1.85844087304593,20.,0.,        61P     46
2.,0.,0.,0.;                                                          61P     47
126,1,1,0,0,1,0,0.,0.,0.681273317643759,0.681273317643759,1.,1.,      63P     48
-1.66771901977604,6.60545582109294,0.,-6.55435205453031,              63P     49
1.85844087304593,0.,0.,0.681273317643759,0.,0.,0.;                    63P     50
126,1,1,0,0,1,0,0.,0.,0.681273317643759,0.681273317643759,1.,1.,      65P     51
-1.66771901977604,6.60545582109294,20.,-6.55435205453031,             65P     52
1.85844087304593,20.,0.,0.681273317643759,0.,0.,0.;                   65P     53
126,1,1,0,0,1,0,0.,0.,2.,2.,1.,1.,-1.66771901977604,                  67P     54
6.60545582109294,0.,-1.66771901977604,6.60545582109294,20.,0.,        67P     55
2.,0.,0.,0.;                                                          67P     56
126,1,1,0,0,1,0,0.,0.,0.681273317643759,0.681273317643759,1.,1.,      69P     57
4.88663303475427,4.74701494804701,0.,-1.66771901977604,               69P     58
6.60545582109294,0.,0.,0.681273317643759,0.,0.,0.;                    69P     59
126,1,1,0,0,1,0,0.,0.,0.681273317643759,0.681273317643759,1.,1.,      71P     60
4.88663303475427,4.74701494804701,20.,-1.66771901977604,              71P     61
6.60545582109294,20.,0.,0.681273317643759,0.,0.,0.;                   71P     62
126,1,1,0,0,1,0,0.,0.,2.,2.,1.,1.,4.88663303475427,                   73P     63
4.74701494804701,0.,4.88663303475427,4.74701494804701,20.,0.,2.,      73P     64
0.,0.,0.;                                                             73P     65
126,1,1,0,0,1,0,0.,0.,0.681273317643759,0.681273317643759,1.,1.,      75P     66
6.5543520545303,-1.85844087304594,0.,4.88663303475427,                75P     67
4.747014948047,0.,0.,0.681273317643759,0.,0.,0.;                      75P     68
126,1,1,0,0,1,0,0.,0.,0.681273317643759,0.681273317643759,1.,1.,      77P     69
6.5543520545303,-1.85844087304594,20.,4.88663303475427,               77P     70
4.747014948047,20.,0.,0.681273317643759,0.,0.,0.;                     77P     71
126,1,1,0,0,1,0,0.,0.,2.,2.,1.,1.,6.5543520545303,                    79P     72
-1.85844087304594,0.,6.5543520545303,-1.85844087304594,20.,0.,        79P     73
2.,0.,0.,0.;                                                          79P     74
126,1,1,0,0,1,0,0.,0.,0.681273317643759,0.681273317643759,1.,1.,      81P     75
1.66771901977604,-6.60545582109294,0.,6.5543520545303,                81P     76
-1.85844087304594,0.,0.,0.681273317643759,0.,0.,0.;                   81P     77
126,1,1,0,0,1,0,0.,0.,0.681273317643759,0.681273317643759,1.,1.,      83P     78
1.66771901977604,-6.60545582109294,20.,6.5543520545303,               83P     79
-1.85844087304594,20.,0.,0.681273317643759,0.,0.,0.;                  83P     80
126,1,1,0,0,1,0,0.,0.,0.423320209770335,0.423320209770335,1.,1.,      85P     81
-2.11660104885167,2.4,0.,2.11660104885167,2.4,0.,0.,                  85P     82
0.423320209770335,0.,0.,0.;                                           85P     83
126,1,1,0,0,1,0,0.,0.,2.,2.,1.,1.,2.11660104885167,2.4,0.,            87P     84
2.11660104885167,2.4,20.,0.,2.,0.,0.,0.;                              87P     85
126,1,1,0,0,1,0,0.,0.,0.423320209770335,0.423320209770335,1.,1.,      89P     86
-2.11660104885167,2.4,20.,2.11660104885167,2.4,20.,0.,                89P     87
0.423320209770335,0.,0.,0.;                                           89P     88
126,1,1,0,0,1,0,0.,0.,2.,2.,1.,1.,-2.11660104885167,2.4,0.,           91P     89
-2.11660104885167,2.4,20.,0.,2.,0.,0.,0.;                             91P     90
126,8,2,0,0,0,0,-7.13124738616107,-7.13124738616107,                  93P     91
-7.13124738616107,-5.92181818327288,-5.92181818327288,                93P     92
-4.71238898038469,-4.71238898038469,-3.5029597774965,                 93P     93
-3.5029597774965,-2.29353057460831,-2.29353057460831,                 93P     94
-2.29353057460831,1.,0.822664388008036,1.,0.822664388008035,1.,       93P     95
0.822664388008035,1.,0.822664388008036,1.,2.11660104885168,2.4,       93P     96
0.,3.7751942359888,0.937258300203043,0.,2.99332590941915,             93P     97
-1.13137084989848,0.,2.2114575828495,-3.2,0.,                         93P     98
-5.8783046359073D-16,-3.2,0.,-2.21145758284951,-3.2,0.,               93P     99
-2.99332590941915,-1.13137084989848,0.,-3.7751942359888,              93P    100
0.937258300203047,0.,-2.11660104885167,2.4,0.,-7.13124738616107,      93P    101
-2.29353057460831,0.,0.,0.;                                           93P    102
126,8,2,0,0,0,0,-7.13124738616107,-7.13124738616107,                  95P    103
-7.13124738616107,-5.92181818327288,-5.92181818327288,                95P    104
-4.71238898038469,-4.71238898038469,-3.5029597774965,                 95P    105
-3.5029597774965,-2.29353057460831,-2.29353057460831,                 95P    106
-2.29353057460831,1.,0.822664388008036,1.,0.822664388008035,1.,       95P    107
0.822664388008035,1.,0.822664388008036,1.,2.11660104885168,2.4,       95P    108
20.,3.7751942359888,0.937258300203043,20.,2.99332590941915,           95P    109
-1.13137084989848,20.,2.2114575828495,-3.2,20.,                       95P    110
-5.8783046359073D-16,-3.2,20.,-2.21145758284951,-3.2,20.,             95P    111
-2.99332590941915,-1.13137084989848,20.,-3.7751942359888,             95P    112
0.937258300203047,20.,-2.11660104885167,2.4,20.,                      95P    113
-7.13124738616107,-2.29353057460831,0.,0.,0.;                         95P    114
128,1,1,1,1,0,0,1,0,0,-0.001,-0.001,0.682273317643759,                97P    115
0.682273317643759,-0.001,-0.001,2.001,2.001,1.,1.,1.,1.,              97P    116
-4.89625377269422,-4.74428705481397,-0.01,1.67733975771599,           97P    117
-6.60818371432597,-0.01,-4.89625377269422,-4.74428705481397,          97P    118
20.01,1.67733975771599,-6.60818371432597,20.01,-0.001,                97P    119
0.682273317643759,-0.001,2.001;                                       97P    120
128,1,1,1,1,0,0,1,0,0,-0.001,-0.001,0.682273317643758,                99P    121
0.682273317643758,-0.001,-0.001,2.001,2.001,1.,1.,1.,1.,              99P    122
-6.55679999866166,1.8681366231216,-0.01,-4.88418509062291,            99P    123
-4.75671069812267,-0.01,-6.55679999866166,1.8681366231216,20.01,      99P    124
-4.88418509062291,-4.75671069812267,20.01,-0.001,                     99P    125
0.682273317643758,-0.001,2.001;                                       99P    126
128,1,1,1,1,0,0,1,0,0,-0.001,-0.001,0.682273317643759,               101P    127
0.682273317643759,-0.001,-0.001,2.001,2.001,1.,1.,1.,1.,             101P    128
-1.66054622596745,6.61242367793557,-0.01,-6.5615248483389,           101P    129
1.8514730162033,-0.01,-1.66054622596745,6.61242367793557,20.01,      101P    130
-6.5615248483389,1.8514730162033,20.01,-0.001,0.682273317643759,     101P    131
-0.001,2.001;                                                        101P    132
128,1,1,1,1,0,0,1,0,0,-0.001,-0.001,0.682273317643759,               103P    133
0.682273317643759,-0.001,-0.001,2.001,2.001,1.,1.,1.,1.,             103P    134
4.89625377269421,4.74428705481397,-0.01,-1.67733975771599,           103P    135
6.60818371432597,-0.01,4.89625377269421,4.74428705481397,20.01,      103P    136
-1.67733975771599,6.60818371432597,20.01,-0.001,                     103P    137
0.682273317643759,-0.001,2.001;                                      103P    138
128,1,1,1,1,0,0,1,0,0,-0.001,-0.001,0.682273317643759,               105P    139
0.682273317643759,-0.001,-0.001,2.001,2.001,1.,1.,1.,1.,             105P    140
6.55679999866166,-1.86813662312161,-0.01,4.88418509062291,           105P    141
4.75671069812267,-0.01,6.55679999866166,-1.86813662312161,20.01,     105P    142
4.88418509062291,4.75671069812267,20.01,-0.001,                      105P    143
0.682273317643759,-0.001,2.001;                                      105P    144
128,1,1,1,1,0,0,1,0,0,-0.001,-0.001,0.682273317643759,               107P    145
0.682273317643759,-0.001,-0.001,2.001,2.001,1.,1.,1.,1.,             107P    146
1.66054622596745,-6.61242367793557,-0.01,6.5615248483389,            107P    147
-1.85147301620331,-0.01,1.66054622596745,-6.61242367793557,          107P    148
20.01,6.5615248483389,-1.85147301620331,20.01,-0.001,                107P    149
0.682273317643759,-0.001,2.001;                                      107P    150
128,1,1,1,1,0,0,1,0,0,-0.001,-0.001,0.424320209770335,               109P    151
0.424320209770335,-0.001,-0.001,2.001,2.001,1.,1.,1.,1.,             109P    152
-2.12660104885168,2.4,-0.01,2.12660104885168,2.4,-0.01,              109P    153
-2.12660104885168,2.4,20.01,2.12660104885168,2.4,20.01,-0.001,       109P    154
0.424320209770335,-0.001,2.001;                                      109P    155
128,1,8,1,2,0,0,0,0,0,0.,0.,6.25,6.25,2.29353057460831,              111P    156
2.29353057460831,2.29353057460831,3.5029597774965,                   111P    157
3.5029597774965,4.71238898038469,4.71238898038469,                   111P    158
5.92181818327288,5.92181818327288,7.13124738616107,                  111P    159
7.13124738616107,7.13124738616107,1.,1.,0.822664388008036,           111P    160
0.822664388008036,1.,1.,0.822664388008036,0.822664388008036,1.,      111P    161
1.,0.822664388008036,0.822664388008036,1.,1.,0.822664388008036,      111P    162
0.822664388008036,1.,1.,-2.11660104885167,2.4,0.,                    111P    163
-2.11660104885167,2.4,20.,-3.7751942359888,0.937258300203046,0.,     111P    164
-3.7751942359888,0.937258300203046,20.,-2.99332590941915,            111P    165
-1.13137084989848,0.,-2.99332590941915,-1.13137084989848,20.,        111P    166
-2.2114575828495,-3.2,0.,-2.2114575828495,-3.2,20.,0.,-3.2,0.,       111P    167
0.,-3.2,20.,2.2114575828495,-3.2,0.,2.2114575828495,-3.2,20.,        111P    168
2.99332590941915,-1.13137084989848,0.,2.99332590941915,              111P    169
-1.13137084989848,20.,3.7751942359888,0.937258300203043,0.,          111P    170
3.7751942359888,0.937258300203043,20.,2.11660104885168,2.4,0.,       111P    171
2.11660104885168,2.4,20.,0.,6.25,2.29353057460831,                   111P    172
7.13124738616107;                                                    111P    173
128,1,1,1,1,0,0,1,0,0,-0.656435205453031,-0.656435205453031,         113P    174
0.65643520545303,0.65643520545303,-0.661545582109294,                113P    175
-0.661545582109294,0.661545582109294,0.661545582109294,1.,1.,1.,     113P    176
1.,-6.56435205453031,-6.61545582109294,20.,6.56435205453031,         113P    177
-6.61545582109294,20.,-6.56435205453031,6.61545582109294,20.,        113P    178
6.56435205453031,6.61545582109294,20.,-0.656435205453031,            113P    179
0.65643520545303,-0.661545582109294,0.661545582109294;               113P    180
128,1,1,1,1,0,0,1,0,0,-0.656435205453031,-0.656435205453031,         115P    181
0.65643520545303,0.65643520545303,-0.661545582109294,                115P    182
-0.661545582109294,0.661545582109294,0.661545582109294,1.,1.,1.,     115P    183
1.,6.56435205453031,-6.61545582109294,0.,-6.56435205453031,          115P    184
-6.61545582109294,0.,6.56435205453031,6.61545582109294,0.,           115P    185
-6.56435205453031,6.61545582109294,0.,-0.656435205453031,            115P    186
0.65643520545303,-0.661545582109294,0.661545582109294;               115P    187
502,16,-4.88663303475427,-4.747014948047,0.,1.66771901977604,        117P    188
-6.60545582109294,0.,1.66771901977604,-6.60545582109294,20.,         117P    189
-4.88663303475427,-4.747014948047,20.,-6.55435205453031,             117P    190
1.85844087304593,0.,-6.55435205453031,1.85844087304593,20.,          117P    191
-1.66771901977604,6.60545582109294,0.,-1.66771901977604,             117P    192
6.60545582109294,20.,4.88663303475427,4.74701494804701,0.,           117P    193
4.88663303475427,4.74701494804701,20.,6.5543520545303,               117P    194
-1.85844087304594,0.,6.5543520545303,-1.85844087304594,20.,          117P    195
-2.11660104885167,2.4,0.,2.11660104885167,2.4,0.,                    117P    196
2.11660104885167,2.4,20.,-2.11660104885167,2.4,20.;                  117P    197
504,24,49,117,1,117,2,51,117,2,117,3,53,117,4,117,3,55,117,1,        119P    198
117,4,57,117,5,117,1,59,117,6,117,4,61,117,5,117,6,63,117,7,117,     119P    199
5,65,117,8,117,6,67,117,7,117,8,69,117,9,117,7,71,117,10,117,8,      119P    200
73,117,9,117,10,75,117,11,117,9,77,117,12,117,10,79,117,11,117,      119P    201
12,81,117,2,117,11,83,117,3,117,12,85,117,13,117,14,87,117,14,       119P    202
117,15,89,117,16,117,15,91,117,13,117,16,93,117,14,117,13,95,        119P    203
117,15,117,16;                                                       119P    204
406,1,5HBody1;                                                       121P    205
314,62.7450980392157,62.7450980392157,62.7450980392157,13HSteel      123P    206
- Satin;                                                             123P    207
S      1G      3D    124P    207                                        T      1
