0
SECTION
2
HEADER
9
$INSUNITS
70
4
9
$ACADVER
1
AC1014
9
$HANDSEED
5
FFFF
0
ENDSEC
0
SECTION
2
TABLES
0
TABLE
2
VPORT
5
8
100
AcDbSymbolTable
0
ENDTAB
0
TABLE
2
LTYPE
5
5
100
AcDbSymbolTable
0
LTYPE
5
14
100
AcDbSymbolTableRecord
100
AcDbLinetypeTableRecord
2
BYBLOCK
70
0
0
LTYPE
5
15
100
AcDbSymbolTableRecord
100
AcDbLinetypeTableRecord
2
BYLAYER
70
0
0
ENDTAB
0
TABLE
2
LAYER
5
2
100
AcDbSymbolTable
70
2
0
LAYER
5
50
100
AcDbSymbolTableRecord
100
AcDbLayerTableRecord
2
0
70
0
6
CONTINUOUS
0
ENDTAB
0
TABLE
2
STYLE
5
3
100
AcDbSymbolTable
70
1
0
STYLE
5
11
100
AcDbSymbolTableRecord
100
AcDbTextStyleTableRecord
2
STANDARD
70
0
0
ENDTAB
0
TABLE
2
VIEW
5
6
100
AcDbSymbolTable
70
0
0
ENDTAB
0
TABLE
2
UCS
5
7
100
AcDbSymbolTable
70
0
0
ENDTAB
0
TABLE
2
APPID
5
9
100
AcDbSymbolTable
70
2
0
APPID
5
12
100
AcDbSymbolTableRecord
100
AcDbRegAppTableRecord
2
ACAD
70
0
0
ENDTAB
0
TABLE
2
DIMSTYLE
5
A
100
AcDbSymbolTable
70
1
0
ENDTAB
0
TABLE
2
BLOCK_RECORD
5
1
100
AcDbSymbolTable
70
1
0
BLOCK_RECORD
5
1F
100
AcDbSymbolTableRecord
100
AcDbBlockTableRecord
2
*MODEL_SPACE
0
BLOCK_RECORD
5
1B
100
AcDbSymbolTableRecord
100
AcDbBlockTableRecord
2
*PAPER_SPACE
0
ENDTAB
0
ENDSEC
0
SECTION
2
BLOCKS
0
BLOCK
5
20
100
AcDbEntity
100
AcDbBlockBegin
2
*MODEL_SPACE
0
ENDBLK
5
21
100
AcDbEntity
100
AcDbBlockEnd
0
BLOCK
5
1C
100
AcDbEntity
100
AcDbBlockBegin
2
*PAPER_SPACE
0
ENDBLK
5
1D
100
AcDbEntity
100
AcDbBlockEnd
0
ENDSEC
0
SECTION
2
ENTITIES
0
SPLINE
5
100
100
AcDbEntity
8
0
100
AcDbSpline
70
0
71
3
72
8
73
4
74
0
42
0.000000001
43
0.0000000001
44
0.0000000001
40
-1
40
-1
40
-1
40
-1
40
0
40
0
40
0
40
0
10
37.299760095736076
20
-65.067103030644702
30
0
10
37.009705504341724
20
-65.233377018109323
30
0
10
36.718539078164881
20
-65.397711478844386
30
0
10
36.426286853471908
20
-65.560091717969541
30
0
0
SPLINE
5
101
100
AcDbEntity
8
0
100
AcDbSpline
70
0
71
3
72
8
73
4
74
0
42
0.000000001
43
0.0000000001
44
0.0000000001
40
-1
40
-1
40
-1
40
-1
40
0
40
0
40
0
40
0
10
36.426286853471922
20
-65.560091717969527
30
0
10
36.141134905201213
20
-65.718526924393871
30
0
10
35.854949277562973
20
-65.875101712647265
30
0
10
35.567754333111694
20
-66.029802753752136
30
0
0
SPLINE
5
102
100
AcDbEntity
8
0
100
AcDbSpline
70
0
71
3
72
8
73
4
74
0
42
0.000000001
43
0.0000000001
44
0.0000000001
40
-1
40
-1
40
-1
40
-1
40
0
40
0
40
0
40
0
10
35.567754333111694
20
-66.029802753752136
30
0
10
33.567784672247917
20
-67.107110675397223
30
0
10
31.518837935713631
20
-68.093489602051022
30
0
10
29.429362484347831
20
-68.984872426966618
30
0
0
SPLINE
5
103
100
AcDbEntity
8
0
100
AcDbSpline
70
0
71
3
72
8
73
4
74
0
42
0.000000001
43
0.0000000001
44
0.0000000001
40
-1
40
-1
40
-1
40
-1
40
0
40
0
40
0
40
0
10
29.429362484347831
20
-68.984872426966618
30
0
10
29.129355818666582
20
-69.112857079274278
30
0
10
28.828514257186995
20
-69.238884666015835
30
0
10
28.526863403055319
20
-69.362944461602993
30
0
0
SPLINE
5
104
100
AcDbEntity
8
0
100
AcDbSpline
70
0
71
3
72
8
73
4
74
0
42
0.000000001
43
0.0000000001
44
0.0000000001
40
-1
40
-1
40
-1
40
-1
40
0
40
0
40
0
40
0
10
28.526863403055319
20
-69.362944461602993
30
0
10
28.219144424306023
20
-69.489499891760204
30
0
10
27.910583265151509
20
-69.614007563462607
30
0
10
27.601207252830811
20
-69.736456449881928
30
0
0
SPLINE
5
105
100
AcDbEntity
8
0
100
AcDbSpline
70
0
71
3
72
8
73
4
74
0
42
0.000000001
43
0.0000000001
44
0.0000000001
40
-1
40
-1
40
-1
40
-1
40
0
40
0
40
0
40
0
10
27.601207252830811
20
-69.736456449881928
30
0
10
27.297890312584251
20
-69.856507197471274
30
0
10
26.993790124870397
20
-69.974579012972171
30
0
10
26.688932577283456
20
-70.090661845107562
30
0
0
SPLINE
5
106
100
AcDbEntity
8
0
100
AcDbSpline
70
0
71
3
72
8
73
4
74
0
42
0.000000001
43
0.0000000001
44
0.0000000001
40
-1
40
-1
40
-1
40
-1
40
0
40
0
40
0
40
0
10
26.688932577283474
20
-70.090661845107547
30
0
10
24.565963988041176
20
-70.899040080530554
30
0
10
22.406245236819441
20
-71.610897532358308
30
0
10
20.218681427394628
20
-72.223299020035952
30
0
0
SPLINE
5
107
100
AcDbEntity
8
0
100
AcDbSpline
70
0
71
3
72
8
73
4
74
0
42
0.000000001
43
0.0000000001
44
0.0000000001
40
-1
40
-1
40
-1
40
-1
40
0
40
0
40
0
40
0
10
20.218681427394593
20
-72.223299020035967
30
0
10
19.904591245573378
20
-72.311227561266875
30
0
10
19.589927470265508
20
-72.397107164446936
30
0
10
19.274716880957889
20
-72.480930520785364
30
0
0
SPLINE
5
108
100
AcDbEntity
8
0
100
AcDbSpline
70
0
71
3
72
8
73
4
74
0
42
0.000000001
43
0.0000000001
44
0.0000000001
40
-1
40
-1
40
-1
40
-1
40
0
40
0
40
0
40
0
10
19.274716880957904
20
-72.480930520785364
30
0
10
18.953165394184104
20
-72.566440100004115
30
0
10
18.631044872288975
20
-72.649809870456906
30
0
10
18.30838384337541
20
-72.731032448629719
30
0
0
SPLINE
5
109
100
AcDbEntity
8
0
100
AcDbSpline
70
0
71
3
72
8
73
4
74
0
42
0.000000001
43
0.0000000001
44
0.0000000001
40
-1
40
-1
40
-1
40
-1
40
0
40
0
40
0
40
0
10
18.30838384337541
20
-72.731032448629719
30
0
10
17.992042071132548
20
-72.810664297607062
30
0
10
17.675180756624435
20
-72.888232236547566
30
0
10
17.357826873780894
20
-72.963729662208536
30
0
0
SPLINE
5
110
100
AcDbEntity
8
0
100
AcDbSpline
70
0
71
3
72
8
73
4
74
0
42
0.000000001
43
0.0000000001
44
0.0000000001
40
-1
40
-1
40
-1
40
-1
40
0
40
0
40
0
40
0
10
17.357826873780894
20
-72.963729662208536
30
0
10
15.147836239520046
20
-73.489479031104153
30
0
10
12.913945143524382
20
-73.91475151708525
30
0
10
10.665364522182575
20
-74.2377936068211
30
0
0
SPLINE
5
111
100
AcDbEntity
8
0
100
AcDbSpline
70
0
71
3
72
8
73
4
74
0
42
0.000000001
43
0.0000000001
44
0.0000000001
40
-1
40
-1
40
-1
40
-1
40
0
40
0
40
0
40
0
10
10.665364522182541
20
-74.2377936068211
30
0
10
10.342513552919787
20
-74.284175956110246
30
0
10
10.01936001288305
20
-74.328452217188797
30
0
10
9.6959314040813798
20
-74.370618621921835
30
0
0
SPLINE
5
112
100
AcDbEntity
8
0
100
AcDbSpline
70
0
71
3
72
8
73
4
74
0
42
0.000000001
43
0.0000000001
44
0.0000000001
40
-1
40
-1
40
-1
40
-1
40
0
40
0
40
0
40
0
10
9.6959314040814313
20
-74.370618621921835
30
0
10
9.3659965809719274
20
-74.413633262272626
30
0
10
9.0357755111776257
20
-74.454452305811685
30
0
10
8.7052974402138545
20
-74.493072137463926
30
0
0
SPLINE
5
113
100
AcDbEntity
8
0
100
AcDbSpline
70
0
71
3
72
8
73
4
74
0
42
0.000000001
43
0.0000000001
44
0.0000000001
40
-1
40
-1
40
-1
40
-1
40
0
40
0
40
0
40
0
10
8.7052974402138368
20
-74.493072137463926
30
0
10
8.3812917212461642
20
-74.530935606844537
30
0
10
8.0570389696373219
20
-74.566685164287549
30
0
10
7.7325667885391249
20
-74.600317766486626
30
0
0
SPLINE
5
114
100
AcDbEntity
8
0
100
AcDbSpline
70
0
71
3
72
8
73
4
74
0
42
0.000000001
43
0.0000000001
44
0.0000000001
40
-1
40
-1
40
-1
40
-1
40
0
40
0
40
0
40
0
10
7.7325667885391418
20
-74.600317766486626
30
0
10
5.4730057115481401
20
-74.834528658125294
30
0
10
3.2027989021985279
20
-74.966009298844824
30
0
10
0.93130703637443824
20
-74.994217558449122
30
0
0
SPLINE
5
115
100
AcDbEntity
8
0
100
AcDbSpline
70
0
71
3
72
8
73
4
74
0
42
0.000000001
43
0.0000000001
44
0.0000000001
40
-1
40
-1
40
-1
40
-1
40
0
40
0
40
0
40
0
10
0.93130703637445489
20
-74.994217558449122
30
0
10
0.60516647303712379
20
-74.99826769739812
30
0
10
0.27899948915357548
20
-75.000190288796801
30
0
10
-0.047166156807750423
20
-74.999985169022864
30
0
0
SPLINE
5
116
100
AcDbEntity
8
0
100
AcDbSpline
70
0
71
3
72
8
73
4
74
0
42
0.000000001
43
0.0000000001
44
0.0000000001
40
-1
40
-1
40
-1
40
-1
40
0
40
0
40
0
40
0
10
-0.04716615680773377
20
-74.999985169022864
30
0
10
-0.3798930763686903
20
-74.99977592298066
30
0
10
-0.71261860329900117
20
-74.997352499758392
30
0
10
-1.0453132702799883
20
-74.99271511398274
30
0
0
SPLINE
5
117
100
AcDbEntity
8
0
100
AcDbSpline
70
0
71
3
72
8
73
4
74
0
42
0.000000001
43
0.0000000001
44
0.0000000001
40
-1
40
-1
40
-1
40
-1
40
0
40
0
40
0
40
0
10
-1.0453132702800216
20
-74.99271511398274
30
0
10
-1.3714921736417298
20
-74.988168550551194
30
0
10
-1.6976414136823177
20
-74.981493896686175
30
0
10
-2.0237332258047434
20
-74.972691720590987
30
0
0
SPLINE
5
118
100
AcDbEntity
8
0
100
AcDbSpline
70
0
71
3
72
8
73
4
74
0
42
0.000000001
43
0.0000000001
44
0.0000000001
40
-1
40
-1
40
-1
40
-1
40
0
40
0
40
0
40
0
10
-2.02373322580471
20
-74.972691720590987
30
0
10
-4.2945730978192662
20
-74.911395080520961
30
0
10
-6.5626235649320455
20
-74.746855739538717
30
0
10
-8.8185328424404101
20
-74.47975213779111
30
0
0
SPLINE
5
119
100
AcDbEntity
8
0
100
AcDbSpline
70
0
71
3
72
8
73
4
74
0
42
0.000000001
43
0.0000000001
44
0.0000000001
40
-1
40
-1
40
-1
40
-1
40
0
40
0
40
0
40
0
10
-8.8185328424404101
20
-74.47975213779111
30
0
10
-9.1424360593852487
20
-74.441401430727581
30
0
10
-9.4660890989128212
20
-74.400937771254746
30
0
10
-9.7894644165041349
20
-74.358364603035739
30
0
0
ARC
5
120
100
AcDbEntity
8
0
100
AcDbCircle
10
-1.0413891970983968e-11
20
-7.7076123261576868e-11
30
0
40
74.999999999922238
210
0
220
0
230
1
100
AcDbArc
50
261.55728446042389
51
262.5
0
SPLINE
5
121
100
AcDbEntity
8
0
100
AcDbSpline
70
0
71
3
72
8
73
4
74
0
42
0.000000001
43
0.0000000001
44
0.0000000001
40
-1
40
-1
40
-1
40
-1
40
0
40
0
40
0
40
0
10
-11.011538770565377
20
-74.187236192651994
30
0
10
-11.32727439224745
20
-74.140371863721185
30
0
10
-11.64271083282955
20
-74.091491884772026
30
0
10
-11.957822382284336
20
-74.040600239826119
30
0
0
SPLINE
5
122
100
AcDbEntity
8
0
100
AcDbSpline
70
0
71
3
72
8
73
4
74
0
42
0.000000001
43
0.0000000001
44
0.0000000001
40
-1
40
-1
40
-1
40
-1
40
0
40
0
40
0
40
0
10
-11.957822382284352
20
-74.040600239826105
30
0
10
-14.152197843528899
20
-73.686200735761972
30
0
10
-16.330805396232964
20
-73.234183806360264
30
0
10
-18.485043844285318
20
-72.686334025557017
30
0
0
SPLINE
5
123
100
AcDbEntity
8
0
100
AcDbSpline
70
0
71
3
72
8
73
4
74
0
42
0.000000001
43
0.0000000001
44
0.0000000001
40
-1
40
-1
40
-1
40
-1
40
0
40
0
40
0
40
0
10
-18.485043844285318
20
-72.686334025557017
30
0
10
-18.794349174223544
20
-72.607673811614063
30
0
10
-19.103152407843247
20
-72.527039270185966
30
0
10
-19.411428382689305
20
-72.444436971680048
30
0
0
ARC
5
124
100
AcDbEntity
8
0
100
AcDbCircle
10
-1.0413891970983968e-11
20
-7.7076123261576868e-11
30
0
40
74.999999999923006
210
0
220
0
230
1
100
AcDbArc
50
254.0572844604161
51
254.99999999999221
0
SPLINE
5
125
100
AcDbEntity
8
0
100
AcDbSpline
70
0
71
3
72
8
73
4
74
0
42
0.000000001
43
0.0000000001
44
0.0000000001
40
-1
40
-1
40
-1
40
-1
40
0
40
0
40
0
40
0
10
-20.600710981452011
20
-72.115259876524618
30
0
10
-20.90762841871507
20
-72.027584709978044
30
0
10
-21.21398613929221
20
-71.9379501885482
30
0
10
-21.519759173128104
20
-71.84636361800483
30
0
0
SPLINE
5
126
100
AcDbEntity
8
0
100
AcDbSpline
70
0
71
3
72
8
73
4
74
0
42
0.000000001
43
0.0000000001
44
0.0000000001
40
-1
40
-1
40
-1
40
-1
40
0
40
0
40
0
40
0
10
-21.51975917312814
20
-71.846363618004816
30
0
10
-23.64910303031365
20
-71.208572577569626
30
0
10
-25.750072244778444
20
-70.476057367464051
30
0
10
-27.814372138477005
20
-69.651709975723591
30
0
0
SPLINE
5
127
100
AcDbEntity
8
0
100
AcDbSpline
70
0
71
3
72
8
73
4
74
0
42
0.000000001
43
0.0000000001
44
0.0000000001
40
-1
40
-1
40
-1
40
-1
40
0
40
0
40
0
40
0
10
-27.814372138476958
20
-69.651709975723605
30
0
10
-28.110764100234583
20
-69.533350263865088
30
0
10
-28.406400559728439
20
-69.413098651887339
30
0
10
-28.701257427381957
20
-69.290964938346406
30
0
0
ARC
5
128
100
AcDbEntity
8
0
100
AcDbCircle
10
-1.0413891970983968e-11
20
-7.7076123261576868e-11
30
0
40
74.999999999925137
210
0
220
0
230
1
100
AcDbArc
50
246.55728446040848
51
247.4999999999846
0
SPLINE
5
129
100
AcDbEntity
8
0
100
AcDbSpline
70
0
71
3
72
8
73
4
74
0
42
0.000000001
43
0.0000000001
44
0.0000000001
40
-1
40
-1
40
-1
40
-1
40
0
40
0
40
0
40
0
10
-29.837399315849904
20
-68.809371469782505
30
0
10
-30.130247126248801
20
-68.682385612027915
30
0
10
-30.422284261283494
20
-68.55353021963046
30
0
10
-30.713486918115251
20
-68.422815795104214
30
0
0
SPLINE
5
130
100
AcDbEntity
8
0
100
AcDbSpline
70
0
71
3
72
8
73
4
74
0
42
0.000000001
43
0.0000000001
44
0.0000000001
40
-1
40
-1
40
-1
40
-1
40
0
40
0
40
0
40
0
10
-30.713486918115219
20
-68.422815795104228
30
0
10
-32.741365507479671
20
-67.512545999828887
30
0
10
-34.728748217947057
20
-66.512066047355887
30
0
10
-36.6677888137786
20
-65.425325857103161
30
0
0
SPLINE
5
131
100
AcDbEntity
8
0
100
AcDbSpline
70
0
71
3
72
8
73
4
74
0
42
0.000000001
43
0.0000000001
44
0.0000000001
40
-1
40
-1
40
-1
40
-1
40
0
40
0
40
0
40
0
10
-36.6677888137786
20
-65.425325857103161
30
0
10
-36.94619605871452
20
-65.269291814814508
30
0
10
-37.223607322294669
20
-65.111480670708119
30
0
10
-37.500000000000334
20
-64.951905283832701
30
0
0
ARC
5
132
100
AcDbEntity
8
0
100
AcDbCircle
10
-1.0413891970983968e-11
20
-7.7076123261576868e-11
30
0
40
74.999999999928548
210
0
220
0
230
1
100
AcDbArc
50
239.05728446040104
51
239.99999999997715
0
SPLINE
5
133
100
AcDbEntity
8
0
100
AcDbSpline
70
0
71
3
72
8
73
4
74
0
42
0.000000001
43
0.0000000001
44
0.0000000001
40
-1
40
-1
40
-1
40
-1
40
0
40
0
40
0
40
0
10
-38.563561475463672
20
-64.326135639630436
30
0
10
-38.83732895176977
20
-64.162011853901134
30
0
10
-39.110048664913613
20
-63.996140342025413
30
0
10
-39.381698386546226
20
-63.828534623560806
30
0
0
SPLINE
5
134
100
AcDbEntity
8
0
100
AcDbSpline
70
0
71
3
72
8
73
4
74
0
42
0.000000001
43
0.0000000001
44
0.0000000001
40
-1
40
-1
40
-1
40
-1
40
0
40
0
40
0
40
0
10
-39.381698386546226
20
-63.828534623560806
30
0
10
-41.273414143191395
20
-62.661361042016956
30
0
10
-43.113205680478671
20
-61.410034836548775
30
0
10
-44.893809456244924
20
-60.079496273740283
30
0
0
SPLINE
5
135
100
AcDbEntity
8
0
100
AcDbSpline
70
0
71
3
72
8
73
4
74
0
42
0.000000001
43
0.0000000001
44
0.0000000001
40
-1
40
-1
40
-1
40
-1
40
0
40
0
40
0
40
0
10
-44.893809456244952
20
-60.079496273740261
30
0
10
-45.149468359209251
20
-59.888457686745838
30
0
10
-45.403907843242905
20
-59.695787202939954
30
0
10
-45.657107175654659
20
-59.501500521842161
30
0
0
ARC
5
136
100
AcDbEntity
8
0
100
AcDbCircle
10
-1.0413891970983968e-11
20
-7.7076123261576868e-11
30
0
40
74.999999999933152
210
0
220
0
230
1
100
AcDbArc
50
231.55728446039419
51
232.49999999996987
0
SPLINE
5
137
100
AcDbEntity
8
0
100
AcDbSpline
70
0
71
3
72
8
73
4
74
0
42
0.000000001
43
0.0000000001
44
0.0000000001
40
-1
40
-1
40
-1
40
-1
40
0
40
0
40
0
40
0
10
-46.629890406392974
20
-58.742261794110206
30
0
10
-46.879893311183878
20
-58.543808283883799
30
0
10
-47.128629292532722
20
-58.343758760086352
30
0
10
-47.376078076913473
20
-58.142129527995436
30
0
0
SPLINE
5
138
100
AcDbEntity
8
0
100
AcDbSpline
70
0
71
3
72
8
73
4
74
0
42
0.000000001
43
0.0000000001
44
0.0000000001
40
-1
40
-1
40
-1
40
-1
40
0
40
0
40
0
40
0
10
-47.376078076913444
20
-58.142129527995451
30
0
10
-49.099263219760189
20
-56.738022823765164
30
0
10
-50.759984240577523
20
-55.257260903610792
30
0
10
-52.351684571998248
20
-53.705689851951455
30
0
0
SPLINE
5
139
100
AcDbEntity
8
0
100
AcDbSpline
70
0
71
3
72
8
73
4
74
0
42
0.000000001
43
0.0000000001
44
0.0000000001
40
-1
40
-1
40
-1
40
-1
40
0
40
0
40
0
40
0
10
-52.351684571998248
20
-53.705689851951455
30
0
10
-52.580220738279174
20
-53.482915443440653
30
0
10
-52.807334912650525
20
-53.258682265331593
30
0
10
-53.033008588990633
20
-53.033008588991486
30
0
0
ARC
5
140
100
AcDbEntity
8
0
100
AcDbCircle
10
-1.0413891970983968e-11
20
-7.7076123261576868e-11
30
0
40
74.999999999938908
210
0
220
0
230
1
100
AcDbArc
50
224.05728446038779
51
224.99999999996447
0
SPLINE
5
141
100
AcDbEntity
8
0
100
AcDbSpline
70
0
71
3
72
8
73
4
74
0
42
0.000000001
43
0.0000000001
44
0.0000000001
40
-1
40
-1
40
-1
40
-1
40
0
40
0
40
0
40
0
10
-53.898368984220895
20
-52.153291562860858
30
0
10
-54.120329698481811
20
-51.923903922718978
30
0
10
-54.34082600643216
20
-51.693099289816132
30
0
10
-54.559839936254576
20
-51.460896476162162
30
0
0
SPLINE
5
142
100
AcDbEntity
8
0
100
AcDbSpline
70
0
71
3
72
8
73
4
74
0
42
0.000000001
43
0.0000000001
44
0.0000000001
40
-1
40
-1
40
-1
40
-1
40
0
40
0
40
0
40
0
10
-54.559839936254576
20
-51.460896476162162
30
0
10
-56.085010289751821
20
-49.843881304246608
30
0
10
-57.538245396994427
20
-48.159019916404453
30
0
10
-58.913807850096525
20
-46.412964186764718
30
0
0
SPLINE
5
143
100
AcDbEntity
8
0
100
AcDbSpline
70
0
71
3
72
8
73
4
74
0
42
0.000000001
43
0.0000000001
44
0.0000000001
40
-1
40
-1
40
-1
40
-1
40
0
40
0
40
0
40
0
10
-58.913807850096504
20
-46.412964186764746
30
0
10
-59.111310962526815
20
-46.162265688631898
30
0
10
-59.307213840744481
20
-45.910306508066263
30
0
10
-59.501500521842239
20
-45.657107175654559
30
0
0
ARC
5
144
100
AcDbEntity
8
0
100
AcDbCircle
10
-1.0413891970983968e-11
20
-7.7076123261576868e-11
30
0
40
74.999999999945729
210
0
220
0
230
1
100
AcDbArc
50
216.55728446038196
51
217.49999999995862
0
SPLINE
5
145
100
AcDbEntity
8
0
100
AcDbSpline
70
0
71
3
72
8
73
4
74
0
42
0.000000001
43
0.0000000001
44
0.0000000001
40
-1
40
-1
40
-1
40
-1
40
0
40
0
40
0
40
0
10
-60.244631525277732
20
-44.671964053346827
30
0
10
-60.434752239648546
20
-44.415567169410537
30
0
10
-60.623236121238293
20
-44.15795655866237
30
0
10
-60.810067807440987
20
-43.89915321796569
30
0
0
SPLINE
5
146
100
AcDbEntity
8
0
100
AcDbSpline
70
0
71
3
72
8
73
4
74
0
42
0.000000001
43
0.0000000001
44
0.0000000001
40
-1
40
-1
40
-1
40
-1
40
0
40
0
40
0
40
0
10
-60.810067807440973
20
-43.899153217965718
30
0
10
-62.111127283983478
20
-42.096897156277393
30
0
10
-63.332011222053694
20
-40.236764746225035
30
0
10
-64.467899541886766
20
-38.326099836236864
30
0
0
SPLINE
5
147
100
AcDbEntity
8
0
100
AcDbSpline
70
0
71
3
72
8
73
4
74
0
42
0.000000001
43
0.0000000001
44
0.0000000001
40
-1
40
-1
40
-1
40
-1
40
0
40
0
40
0
40
0
10
-64.467899541886766
20
-38.326099836236864
30
0
10
-64.630990267454578
20
-38.05176676929176
30
0
10
-64.792329896957725
20
-37.776392677705253
30
0
10
-64.951905283833142
20
-37.499999999999581
30
0
0
ARC
5
148
100
AcDbEntity
8
0
100
AcDbCircle
10
-1.0413891970983968e-11
20
-7.7076123261576868e-11
30
0
40
74.999999999953474
210
0
220
0
230
1
100
AcDbArc
50
209.05728446037688
51
209.99999999995259
0
SPLINE
5
149
100
AcDbEntity
8
0
100
AcDbSpline
70
0
71
3
72
8
73
4
74
0
42
0.000000001
43
0.0000000001
44
0.0000000001
40
-1
40
-1
40
-1
40
-1
40
0
40
0
40
0
40
0
10
-65.560091717969684
20
-36.426286853471659
30
0
10
-65.71511941431605
20
-36.147267747511791
30
0
10
-65.86836585807356
20
-35.867258947891386
30
0
10
-66.019818558706064
20
-35.586283277065199
30
0
0
SPLINE
5
150
100
AcDbEntity
8
0
100
AcDbSpline
70
0
71
3
72
8
73
4
74
0
42
0.000000001
43
0.0000000001
44
0.0000000001
40
-1
40
-1
40
-1
40
-1
40
0
40
0
40
0
40
0
10
-66.019818558706092
20
-35.586283277065142
30
0
10
-67.074505669928143
20
-33.629623426499592
30
0
10
-68.04214877615243
20
-31.626047375499375
30
0
10
-68.91892759863623
20
-29.583465291509306
30
0
0
SPLINE
5
151
100
AcDbEntity
8
0
100
AcDbSpline
70
0
71
3
72
8
73
4
74
0
42
0.000000001
43
0.0000000001
44
0.0000000001
40
-1
40
-1
40
-1
40
-1
40
0
40
0
40
0
40
0
10
-68.918927598636202
20
-29.583465291509402
30
0
10
-69.044815409809758
20
-29.290191570586931
30
0
10
-69.168831224805771
20
-28.996114295034751
30
0
10
-69.290964938346704
20
-28.701257427381236
30
0
0
ARC
5
152
100
AcDbEntity
8
0
100
AcDbCircle
10
-1.0413891970983968e-11
20
-7.7076123261576868e-11
30
0
40
74.999999999962
210
0
220
0
230
1
100
AcDbArc
50
201.55728446037261
51
202.49999999994824
0
SPLINE
5
153
100
AcDbEntity
8
0
100
AcDbSpline
70
0
71
3
72
8
73
4
74
0
42
0.000000001
43
0.0000000001
44
0.0000000001
40
-1
40
-1
40
-1
40
-1
40
0
40
0
40
0
40
0
10
-69.753800564675771
20
-27.557345786258828
30
0
10
-69.871082676131408
20
-27.260478552537094
30
0
10
-69.986469592916023
20
-26.962862592239084
30
0
10
-70.099951910279884
20
-26.664522162912405
30
0
0
SPLINE
5
154
100
AcDbEntity
8
0
100
AcDbSpline
70
0
71
3
72
8
73
4
74
0
42
0.000000001
43
0.0000000001
44
0.0000000001
40
-1
40
-1
40
-1
40
-1
40
0
40
0
40
0
40
0
10
-70.099951910279898
20
-26.664522162912373
30
0
10
-70.890220667294003
20
-24.586937516001342
30
0
10
-71.588066299843518
20
-22.474199565782133
30
0
10
-72.190733696236336
20
-20.334649453558011
30
0
0
SPLINE
5
155
100
AcDbEntity
8
0
100
AcDbSpline
70
0
71
3
72
8
73
4
74
0
42
0.000000001
43
0.0000000001
44
0.0000000001
40
-1
40
-1
40
-1
40
-1
40
0
40
0
40
0
40
0
10
-72.190733696236322
20
-20.334649453558072
30
0
10
-72.277264617663718
20
-20.027453073334144
30
0
10
-72.361834673174329
20
-19.719704357534653
30
0
10
-72.444436971680247
20
-19.411428382688619
30
0
0
ARC
5
156
100
AcDbEntity
8
0
100
AcDbCircle
10
-1.0413891970983968e-11
20
-7.7076123261576868e-11
30
0
40
74.999999999971166
210
0
220
0
230
1
100
AcDbArc
50
194.05728446036932
51
194.99999999994483
0
SPLINE
5
157
100
AcDbEntity
8
0
100
AcDbSpline
70
0
71
3
72
8
73
4
74
0
42
0.000000001
43
0.0000000001
44
0.0000000001
40
-1
40
-1
40
-1
40
-1
40
0
40
0
40
0
40
0
10
-72.754002544313025
20
-18.216890892303635
30
0
10
-72.831532341434183
20
-17.907255011496101
30
0
10
-72.907085429108463
20
-17.597124182115877
30
0
10
-72.980655649290341
20
-17.286523681750062
30
0
0
SPLINE
5
158
100
AcDbEntity
8
0
100
AcDbSpline
70
0
71
3
72
8
73
4
74
0
42
0.000000001
43
0.0000000001
44
0.0000000001
40
-1
40
-1
40
-1
40
-1
40
0
40
0
40
0
40
0
10
-72.980655649290341
20
-17.286523681750094
30
0
10
-73.49298433456012
20
-15.123562287817441
30
0
10
-73.909092161182585
20
-12.937811970469046
30
0
10
-74.227336325241183
20
-10.737902125626331
30
0
0
SPLINE
5
159
100
AcDbEntity
8
0
100
AcDbSpline
70
0
71
3
72
8
73
4
74
0
42
0.000000001
43
0.0000000001
44
0.0000000001
40
-1
40
-1
40
-1
40
-1
40
0
40
0
40
0
40
0
10
-74.227336325241183
20
-10.737902125626331
30
0
10
-74.273029788865898
20
-10.422039301337488
30
0
10
-74.316707067794084
20
-10.105884811142056
30
0
10
-74.358364603035852
20
-9.7894644165033302
30
0
0
ARC
5
160
100
AcDbEntity
8
0
100
AcDbCircle
10
-1.0413891970983968e-11
20
-7.7076123261576868e-11
30
0
40
74.999999999980844
210
0
220
0
230
1
100
AcDbArc
50
186.55728446036679
51
187.49999999994222
0
SPLINE
5
161
100
AcDbEntity
8
0
100
AcDbSpline
70
0
71
3
72
8
73
4
74
0
42
0.000000001
43
0.0000000001
44
0.0000000001
40
-1
40
-1
40
-1
40
-1
40
0
40
0
40
0
40
0
10
-74.509363369196805
20
-8.5647399445046286
30
0
10
-74.545814295659426
20
-8.247633372379271
30
0
10
-74.580240819945956
20
-7.9302940983921033
30
0
10
-74.612640136081026
20
-7.6127479876631945
30
0
0
SPLINE
5
162
100
AcDbEntity
8
0
100
AcDbSpline
70
0
71
3
72
8
73
4
74
0
42
0.000000001
43
0.0000000001
44
0.0000000001
40
-1
40
-1
40
-1
40
-1
40
0
40
0
40
0
40
0
10
-74.612640136081026
20
-7.6127479876631945
30
0
10
-74.838262663757121
20
-5.4014187158457023
30
0
10
-74.96551296417212
20
-3.180054825302804
30
0
10
-74.993888650015535
20
-0.95742631521733668
30
0
0
SPLINE
5
163
100
AcDbEntity
8
0
100
AcDbSpline
70
0
71
3
72
8
73
4
74
0
42
0.000000001
43
0.0000000001
44
0.0000000001
40
-1
40
-1
40
-1
40
-1
40
0
40
0
40
0
40
0
10
-74.993888650015535
20
-0.95742631521733668
30
0
10
-74.997962828006351
20
-0.63830154736091005
30
0
10
-75
20
-0.31915077375140904
30
0
10
-75
20
-6.3313019083294309e-13
30
0
0
ARC
5
164
100
AcDbEntity
8
0
100
AcDbCircle
10
-1.0413891970983968e-11
20
-7.7076123261576868e-11
30
0
40
74.999999999990848
210
0
220
0
230
1
100
AcDbArc
50
179.05728446036568
51
180
0
SPLINE
5
165
100
AcDbEntity
8
0
100
AcDbSpline
70
0
71
3
72
8
73
4
74
0
42
0.000000001
43
0.0000000001
44
0.0000000001
40
-1
40
-1
40
-1
40
-1
40
0
40
0
40
0
40
0
10
-74.989848328935352
20
1.2339560783392332
30
0
10
-74.984596699281553
20
1.5531075604148401
30
0
10
-74.977307612804978
20
1.872225516048005
30
0
10
-74.967981663611397
20
2.1912839351450661
30
0
0
SPLINE
5
166
100
AcDbEntity
8
0
100
AcDbSpline
70
0
71
3
72
8
73
4
74
0
42
0.000000001
43
0.0000000001
44
0.0000000001
40
-1
40
-1
40
-1
40
-1
40
0
40
0
40
0
40
0
10
-74.967981663611397
20
2.1912839351450994
30
0
10
-74.903037569690966
20
4.4131446279106772
30
0
10
-74.739253055978011
20
6.632113939602819
30
0
10
-74.477274747754223
20
8.8394313248947896
30
0
0
SPLINE
5
167
100
AcDbEntity
8
0
100
AcDbSpline
70
0
71
3
72
8
73
4
74
0
42
0.000000001
43
0.0000000001
44
0.0000000001
40
-1
40
-1
40
-1
40
-1
40
0
40
0
40
0
40
0
10
-74.477274747754223
20
8.8394313248947896
30
0
10
-74.439659929796136
20
9.1563577230627207
30
0
10
-74.400022138277635
20
9.4730440218645668
30
0
10
-74.358364603035866
20
9.7894644165032485
30
0
0
ARC
5
168
100
AcDbEntity
8
0
100
AcDbCircle
10
-1.0413891970983968e-11
20
-7.7076123261576868e-11
30
0
40
75.000000000001023
210
0
220
0
230
1
100
AcDbArc
50
171.55728446036514
51
172.49999999994105
0
SPLINE
5
169
100
AcDbEntity
8
0
100
AcDbSpline
70
0
71
3
72
8
73
4
74
0
42
0.000000001
43
0.0000000001
44
0.0000000001
40
-1
40
-1
40
-1
40
-1
40
0
40
0
40
0
40
0
10
-74.187236192651966
20
11.011538770565632
30
0
10
-74.140371863721143
20
11.327274392247679
30
0
10
-74.091491884771997
20
11.642710832829767
30
0
10
-74.040600239826091
20
11.957822382284558
30
0
0
SPLINE
5
170
100
AcDbEntity
8
0
100
AcDbSpline
70
0
71
3
72
8
73
4
74
0
42
0.000000001
43
0.0000000001
44
0.0000000001
40
-1
40
-1
40
-1
40
-1
40
0
40
0
40
0
40
0
10
-74.040600239826105
20
11.957822382284458
30
0
10
-73.686200735761943
20
14.152197843529077
30
0
10
-73.234183806360221
20
16.330805396233174
30
0
10
-72.686334025556974
20
18.485043844285521
30
0
0
SPLINE
5
171
100
AcDbEntity
8
0
100
AcDbSpline
70
0
71
3
72
8
73
4
74
0
42
0.000000001
43
0.0000000001
44
0.0000000001
40
-1
40
-1
40
-1
40
-1
40
0
40
0
40
0
40
0
10
-72.686334025556974
20
18.485043844285553
30
0
10
-72.607673811614035
20
18.794349174223751
30
0
10
-72.527039270185938
20
19.103152407843428
30
0
10
-72.44443697168002
20
19.411428382689472
30
0
0
ARC
5
172
100
AcDbEntity
8
0
100
AcDbCircle
10
-1.0413891970983968e-11
20
-7.7076123261576868e-11
30
0
40
75.00000000001117
210
0
220
0
230
1
100
AcDbArc
50
164.05728446036576
51
164.99999999994074
0
SPLINE
5
173
100
AcDbEntity
8
0
100
AcDbSpline
70
0
71
3
72
8
73
4
74
0
42
0.000000001
43
0.0000000001
44
0.0000000001
40
-1
40
-1
40
-1
40
-1
40
0
40
0
40
0
40
0
10
-72.115259876524604
20
20.600710981452099
30
0
10
-72.027584709978001
20
20.90762841871523
30
0
10
-71.937950188548157
20
21.213986139292402
30
0
10
-71.846363618004787
20
21.519759173128286
30
0
0
SPLINE
5
174
100
AcDbEntity
8
0
100
AcDbSpline
70
0
71
3
72
8
73
4
74
0
42
0.000000001
43
0.0000000001
44
0.0000000001
40
-1
40
-1
40
-1
40
-1
40
0
40
0
40
0
40
0
10
-71.846363618004787
20
21.519759173128286
30
0
10
-71.208572577569583
20
23.649103030313828
30
0
10
-70.47605736746398
20
25.750072244778647
30
0
10
-69.65170997572352
20
27.814372138477211
30
0
0
SPLINE
5
175
100
AcDbEntity
8
0
100
AcDbSpline
70
0
71
3
72
8
73
4
74
0
42
0.000000001
43
0.0000000001
44
0.0000000001
40
-1
40
-1
40
-1
40
-1
40
0
40
0
40
0
40
0
10
-69.65170997572352
20
27.814372138477211
30
0
10
-69.533350263865003
20
28.110764100234814
30
0
10
-69.413098651887267
20
28.406400559728656
30
0
10
-69.29096493834632
20
28.701257427382178
30
0
0
ARC
5
176
100
AcDbEntity
8
0
100
AcDbCircle
10
-1.0413891970983968e-11
20
-7.7076123261576868e-11
30
0
40
75.000000000021089
210
0
220
0
230
1
100
AcDbArc
50
156.5572844603673
51
157.49999999994222
0
SPLINE
5
177
100
AcDbEntity
8
0
100
AcDbSpline
70
0
71
3
72
8
73
4
74
0
42
0.000000001
43
0.0000000001
44
0.0000000001
40
-1
40
-1
40
-1
40
-1
40
0
40
0
40
0
40
0
10
-68.809371469782462
20
29.837399315850021
30
0
10
-68.682385612027886
20
30.130247126248932
30
0
10
-68.553530219630403
20
30.422284261283629
30
0
10
-68.422815795104157
20
30.713486918115393
30
0
0
SPLINE
5
178
100
AcDbEntity
8
0
100
AcDbSpline
70
0
71
3
72
8
73
4
74
0
42
0.000000001
43
0.0000000001
44
0.0000000001
40
-1
40
-1
40
-1
40
-1
40
0
40
0
40
0
40
0
10
-68.422815795104142
20
30.713486918115422
30
0
10
-67.512545999828859
20
32.74136550747977
30
0
10
-66.512066047355887
20
34.728748217947071
30
0
10
-65.425325857103203
20
36.667788813778557
30
0
0
SPLINE
5
179
100
AcDbEntity
8
0
100
AcDbSpline
70
0
71
3
72
8
73
4
74
0
42
0.000000001
43
0.0000000001
44
0.0000000001
40
-1
40
-1
40
-1
40
-1
40
0
40
0
40
0
40
0
10
-65.425325857103218
20
36.667788813778529
30
0
10
-65.269291814814551
20
36.946196058714477
30
0
10
-65.111480670708147
20
37.223607322294647
30
0
10
-64.95190528383273
20
37.500000000000327
30
0
0
ARC
5
180
100
AcDbEntity
8
0
100
AcDbCircle
10
-1.0413891970983968e-11
20
-7.7076123261576868e-11
30
0
40
75.000000000030724
210
0
220
0
230
1
100
AcDbArc
50
149.05728446037
51
149.99999999994478
0
SPLINE
5
181
100
AcDbEntity
8
0
100
AcDbSpline
70
0
71
3
72
8
73
4
74
0
42
0.000000001
43
0.0000000001
44
0.0000000001
40
-1
40
-1
40
-1
40
-1
40
0
40
0
40
0
40
0
10
-64.326135639630436
20
38.563561475463693
30
0
10
-64.162011853901163
20
38.837328951769749
30
0
10
-63.996140342025456
20
39.110048664913577
30
0
10
-63.828534623560849
20
39.381698386546191
30
0
0
SPLINE
5
182
100
AcDbEntity
8
0
100
AcDbSpline
70
0
71
3
72
8
73
4
74
0
42
0.000000001
43
0.0000000001
44
0.0000000001
40
-1
40
-1
40
-1
40
-1
40
0
40
0
40
0
40
0
10
-63.82853462356087
20
39.381698386546162
30
0
10
-62.661361042016978
20
41.273414143191403
30
0
10
-61.410034836548746
20
43.113205680478728
30
0
10
-60.079496273740219
20
44.893809456245023
30
0
0
SPLINE
5
183
100
AcDbEntity
8
0
100
AcDbSpline
70
0
71
3
72
8
73
4
74
0
42
0.000000001
43
0.0000000001
44
0.0000000001
40
-1
40
-1
40
-1
40
-1
40
0
40
0
40
0
40
0
10
-60.079496273740212
20
44.893809456245044
30
0
10
-59.888457686745788
20
45.149468359209351
30
0
10
-59.69578720293989
20
45.403907843243005
30
0
10
-59.501500521842097
20
45.657107175654758
30
0
0
ARC
5
184
100
AcDbEntity
8
0
100
AcDbCircle
10
-1.0413891970983968e-11
20
-7.7076123261576868e-11
30
0
40
75.000000000039762
210
0
220
0
230
1
100
AcDbArc
50
141.55728446037352
51
142.49999999994779
0
SPLINE
5
185
100
AcDbEntity
8
0
100
AcDbSpline
70
0
71
3
72
8
73
4
74
0
42
0.000000001
43
0.0000000001
44
0.0000000001
40
-1
40
-1
40
-1
40
-1
40
0
40
0
40
0
40
0
10
-58.74226179411022
20
46.629890406392967
30
0
10
-58.543808283883777
20
46.87989331118392
30
0
10
-58.343758760086288
20
47.128629292532793
30
0
10
-58.142129527995365
20
47.376078076913558
30
0
0
SPLINE
5
186
100
AcDbEntity
8
0
100
AcDbSpline
70
0
71
3
72
8
73
4
74
0
42
0.000000001
43
0.0000000001
44
0.0000000001
40
-1
40
-1
40
-1
40
-1
40
0
40
0
40
0
40
0
10
-58.142129527995337
20
47.376078076913586
30
0
10
-56.738022823764908
20
49.099263219760502
30
0
10
-55.257260903610359
20
50.759984240578014
30
0
10
-53.705689851950815
20
52.351684571998902
30
0
0
SPLINE
5
187
100
AcDbEntity
8
0
100
AcDbSpline
70
0
71
3
72
8
73
4
74
0
42
0.000000001
43
0.0000000001
44
0.0000000001
40
-1
40
-1
40
-1
40
-1
40
0
40
0
40
0
40
0
10
-53.705689851950844
20
52.351684571998874
30
0
10
-53.482915443439992
20
52.580220738279863
30
0
10
-53.258682265330883
20
52.807334912651271
30
0
10
-53.033008588990725
20
53.033008588991414
30
0
0
ARC
5
188
100
AcDbEntity
8
0
100
AcDbCircle
10
-1.0413891970983968e-11
20
-7.7076123261576868e-11
30
0
40
75.000000000048146
210
0
220
0
230
1
100
AcDbArc
50
134.05728446037787
51
134.99999999995239
0
SPLINE
5
189
100
AcDbEntity
8
0
100
AcDbSpline
70
0
71
3
72
8
73
4
74
0
42
0.000000001
43
0.0000000001
44
0.0000000001
40
-1
40
-1
40
-1
40
-1
40
0
40
0
40
0
40
0
10
-52.153291562860858
20
53.898368984220909
30
0
10
-51.923903922718949
20
54.120329698481854
30
0
10
-51.693099289816075
20
54.340826006432252
30
0
10
-51.46089647616207
20
54.55983993625469
30
0
0
SPLINE
5
190
100
AcDbEntity
8
0
100
AcDbSpline
70
0
71
3
72
8
73
4
74
0
42
0.000000001
43
0.0000000001
44
0.0000000001
40
-1
40
-1
40
-1
40
-1
40
0
40
0
40
0
40
0
10
-51.460896476162041
20
54.559839936254718
30
0
10
-49.843881304246324
20
56.085010289752105
30
0
10
-48.159019916404006
20
57.538245396994832
30
0
10
-46.412964186764057
20
58.913807850097058
30
0
0
SPLINE
5
191
100
AcDbEntity
8
0
100
AcDbSpline
70
0
71
3
72
8
73
4
74
0
42
0.000000001
43
0.0000000001
44
0.0000000001
40
-1
40
-1
40
-1
40
-1
40
0
40
0
40
0
40
0
10
-46.412964186764086
20
58.913807850097029
30
0
10
-46.162265688631187
20
59.111310962527384
30
0
10
-45.910306508065489
20
59.307213840745092
30
0
10
-45.657107175653735
20
59.501500521842885
30
0
0
ARC
5
192
100
AcDbEntity
8
0
100
AcDbCircle
10
-1.0413891970983968e-11
20
-7.7076123261576868e-11
30
0
40
75.000000000055707
210
0
220
0
230
1
100
AcDbArc
50
126.5572844603831
51
127.49999999995754
0
SPLINE
5
193
100
AcDbEntity
8
0
100
AcDbSpline
70
0
71
3
72
8
73
4
74
0
42
0.000000001
43
0.0000000001
44
0.0000000001
40
-1
40
-1
40
-1
40
-1
40
0
40
0
40
0
40
0
10
-44.671964053346827
20
60.244631525277754
30
0
10
-44.415567169410537
20
60.43475223964856
30
0
10
-44.15795655866237
20
60.623236121238307
30
0
10
-43.89915321796569
20
60.810067807441008
30
0
0
SPLINE
5
194
100
AcDbEntity
8
0
100
AcDbSpline
70
0
71
3
72
8
73
4
74
0
42
0.000000001
43
0.0000000001
44
0.0000000001
40
-1
40
-1
40
-1
40
-1
40
0
40
0
40
0
40
0
10
-43.89915321796569
20
60.810067807441008
30
0
10
-42.096897156277393
20
62.111127283983485
30
0
10
-40.236764746225049
20
63.332011222053701
30
0
10
-38.326099836236892
20
64.467899541886766
30
0
0
SPLINE
5
195
100
AcDbEntity
8
0
100
AcDbSpline
70
0
71
3
72
8
73
4
74
0
42
0.000000001
43
0.0000000001
44
0.0000000001
40
-1
40
-1
40
-1
40
-1
40
0
40
0
40
0
40
0
10
-38.326099836236892
20
64.467899541886766
30
0
10
-38.051766769291781
20
64.630990267454578
30
0
10
-37.776392677705282
20
64.792329896957725
30
0
10
-37.499999999999609
20
64.951905283833128
30
0
0
ARC
5
196
100
AcDbEntity
8
0
100
AcDbCircle
10
-1.0413891970983968e-11
20
-7.7076123261576868e-11
30
0
40
75.000000000062343
210
0
220
0
230
1
100
AcDbArc
50
119.057284460389
51
119.99999999996334
0
SPLINE
5
197
100
AcDbEntity
8
0
100
AcDbSpline
70
0
71
3
72
8
73
4
74
0
42
0.000000001
43
0.0000000001
44
0.0000000001
40
-1
40
-1
40
-1
40
-1
40
0
40
0
40
0
40
0
10
-36.426286853471744
20
65.560091717969655
30
0
10
-36.147267747511862
20
65.715119414316035
30
0
10
-35.867258947891457
20
65.868365858073517
30
0
10
-35.586283277065284
20
66.019818558706021
30
0
0
SPLINE
5
198
100
AcDbEntity
8
0
100
AcDbSpline
70
0
71
3
72
8
73
4
74
0
42
0.000000001
43
0.0000000001
44
0.0000000001
40
-1
40
-1
40
-1
40
-1
40
0
40
0
40
0
40
0
10
-35.586283277065249
20
66.019818558706035
30
0
10
-33.629623426499712
20
67.074505669928087
30
0
10
-31.626047375499525
20
68.042148776152374
30
0
10
-29.583465291509491
20
68.918927598636174
30
0
0
SPLINE
5
199
100
AcDbEntity
8
0
100
AcDbSpline
70
0
71
3
72
8
73
4
74
0
42
0.000000001
43
0.0000000001
44
0.0000000001
40
-1
40
-1
40
-1
40
-1
40
0
40
0
40
0
40
0
10
-29.583465291509491
20
68.918927598636174
30
0
10
-29.290191570587073
20
69.044815409809701
30
0
10
-28.996114295034911
20
69.168831224805729
30
0
10
-28.701257427381389
20
69.290964938346661
30
0
0
ARC
5
200
100
AcDbEntity
8
0
100
AcDbCircle
10
-1.0413891970983968e-11
20
-7.7076123261576868e-11
30
0
40
75.000000000067871
210
0
220
0
230
1
100
AcDbArc
50
111.55728446039558
51
112.49999999996983
0
SPLINE
5
201
100
AcDbEntity
8
0
100
AcDbSpline
70
0
71
3
72
8
73
4
74
0
42
0.000000001
43
0.0000000001
44
0.0000000001
40
-1
40
-1
40
-1
40
-1
40
0
40
0
40
0
40
0
10
-27.557345786259042
20
69.7538005646757
30
0
10
-27.26047855253729
20
69.871082676131337
30
0
10
-26.962862592239269
20
69.986469592915967
30
0
10
-26.664522162912586
20
70.099951910279827
30
0
0
SPLINE
5
202
100
AcDbEntity
8
0
100
AcDbSpline
70
0
71
3
72
8
73
4
74
0
42
0.000000001
43
0.0000000001
44
0.0000000001
40
-1
40
-1
40
-1
40
-1
40
0
40
0
40
0
40
0
10
-26.664522162912554
20
70.099951910279842
30
0
10
-24.586937516001377
20
70.890220667294017
30
0
10
-22.474199565782026
20
71.588066299843561
30
0
10
-20.334649453557752
20
72.190733696236421
30
0
0
SPLINE
5
203
100
AcDbEntity
8
0
100
AcDbSpline
70
0
71
3
72
8
73
4
74
0
42
0.000000001
43
0.0000000001
44
0.0000000001
40
-1
40
-1
40
-1
40
-1
40
0
40
0
40
0
40
0
10
-20.334649453557816
20
72.190733696236407
30
0
10
-20.027453073333842
20
72.277264617663818
30
0
10
-19.719704357534308
20
72.361834673174428
30
0
10
-19.411428382688229
20
72.444436971680346
30
0
0
ARC
5
204
100
AcDbEntity
8
0
100
AcDbCircle
10
-1.0413891970983968e-11
20
-7.7076123261576868e-11
30
0
40
75.000000000072248
210
0
220
0
230
1
100
AcDbArc
50
104.05728446040258
51
104.99999999997642
0
SPLINE
5
205
100
AcDbEntity
8
0
100
AcDbSpline
70
0
71
3
72
8
73
4
74
0
42
0.000000001
43
0.0000000001
44
0.0000000001
40
-1
40
-1
40
-1
40
-1
40
0
40
0
40
0
40
0
10
-18.216890892303791
20
72.754002544312982
30
0
10
-17.907255011496279
20
72.831532341434141
30
0
10
-17.597124182116076
20
72.907085429108406
30
0
10
-17.286523681750282
20
72.980655649290298
30
0
0
SPLINE
5
206
100
AcDbEntity
8
0
100
AcDbSpline
70
0
71
3
72
8
73
4
74
0
42
0.000000001
43
0.0000000001
44
0.0000000001
40
-1
40
-1
40
-1
40
-1
40
0
40
0
40
0
40
0
10
-17.286523681750253
20
72.980655649290313
30
0
10
-15.123562287817641
20
73.492984334560091
30
0
10
-12.937811970469273
20
73.909092161182571
30
0
10
-10.737902125626558
20
74.227336325241168
30
0
0
SPLINE
5
207
100
AcDbEntity
8
0
100
AcDbSpline
70
0
71
3
72
8
73
4
74
0
42
0.000000001
43
0.0000000001
44
0.0000000001
40
-1
40
-1
40
-1
40
-1
40
0
40
0
40
0
40
0
10
-10.737902125626588
20
74.227336325241154
30
0
10
-10.422039301337714
20
74.273029788865884
30
0
10
-10.105884811142261
20
74.316707067794056
30
0
10
-9.7894644165035221
20
74.358364603035838
30
0
0
ARC
5
208
100
AcDbEntity
8
0
100
AcDbCircle
10
-1.0413891970983968e-11
20
-7.7076123261576868e-11
30
0
40
75.000000000075389
210
0
220
0
230
1
100
AcDbArc
50
96.557284460410017
51
97.499999999984169
0
SPLINE
5
209
100
AcDbEntity
8
0
100
AcDbSpline
70
0
71
3
72
8
73
4
74
0
42
0.000000001
43
0.0000000001
44
0.0000000001
40
-1
40
-1
40
-1
40
-1
40
0
40
0
40
0
40
0
10
-8.564739944504872
20
74.509363369196791
30
0
10
-8.2476333723794983
20
74.545814295659412
30
0
10
-7.9302940983923182
20
74.580240819945928
30
0
10
-7.612747987663405
20
74.612640136081012
30
0
0
SPLINE
5
210
100
AcDbEntity
8
0
100
AcDbSpline
70
0
71
3
72
8
73
4
74
0
42
0.000000001
43
0.0000000001
44
0.0000000001
40
-1
40
-1
40
-1
40
-1
40
0
40
0
40
0
40
0
10
-7.612747987663405
20
74.612640136081012
30
0
10
-5.4014187158455833
20
74.838262663757149
30
0
10
-3.1800548253023497
20
74.965512964172177
30
0
10
-0.9574263152165492
20
74.993888650015549
30
0
0
SPLINE
5
211
100
AcDbEntity
8
0
100
AcDbSpline
70
0
71
3
72
8
73
4
74
0
42
0.000000001
43
0.0000000001
44
0.0000000001
40
-1
40
-1
40
-1
40
-1
40
0
40
0
40
0
40
0
10
-0.95742631521656585
20
74.993888650015549
30
0
10
-0.63830154736007827
20
74.997962828006365
30
0
10
-0.31915077375052159
20
75.000000000000014
30
0
10
3.0435264214559482e-13
20
75.000000000000014
30
0
0
ARC
5
212
100
AcDbEntity
8
0
100
AcDbCircle
10
-1.0413891970983968e-11
20
-7.7076123261576868e-11
30
0
40
75.000000000077236
210
0
220
-0
230
1
100
AcDbArc
50
89.057284460417634
51
89.999999999991829
0
SPLINE
5
213
100
AcDbEntity
8
0
100
AcDbSpline
70
0
71
3
72
8
73
4
74
0
42
0.000000001
43
0.0000000001
44
0.0000000001
40
-1
40
-1
40
-1
40
-1
40
0
40
0
40
0
40
0
10
1.2339560783391028
20
74.989848328935366
30
0
10
1.5531075604146487
20
74.984596699281568
30
0
10
1.8722255160477586
20
74.977307612804992
30
0
10
2.1912839351447695
20
74.967981663611425
30
0
0
SPLINE
5
214
100
AcDbEntity
8
0
100
AcDbSpline
70
0
71
3
72
8
73
4
74
0
42
0.000000001
43
0.0000000001
44
0.0000000001
40
-1
40
-1
40
-1
40
-1
40
0
40
0
40
0
40
0
10
2.1912839351447362
20
74.967981663611425
30
0
10
4.4131446279104249
20
74.90303756969098
30
0
10
6.6321139396026574
20
74.73925305597804
30
0
10
8.8394313248946936
20
74.477274747754251
30
0
0
SPLINE
5
215
100
AcDbEntity
8
0
100
AcDbSpline
70
0
71
3
72
8
73
4
74
0
42
0.000000001
43
0.0000000001
44
0.0000000001
40
-1
40
-1
40
-1
40
-1
40
0
40
0
40
0
40
0
10
8.8394313248946776
20
74.477274747754251
30
0
10
9.1563577230626265
20
74.43965992979615
30
0
10
9.4730440218644816
20
74.400022138277649
30
0
10
9.7894644165031686
20
74.358364603035881
30
0
0
ARC
5
216
100
AcDbEntity
8
0
100
AcDbCircle
10
-1.0413891970983968e-11
20
-7.7076123261576868e-11
30
0
40
75.000000000077776
210
0
220
-0
230
1
100
AcDbArc
50
81.557284460425464
51
82.500000000000341
0
SPLINE
5
217
100
AcDbEntity
8
0
100
AcDbSpline
70
0
71
3
72
8
73
4
74
0
42
0.000000001
43
0.0000000001
44
0.0000000001
40
-1
40
-1
40
-1
40
-1
40
0
40
0
40
0
40
0
10
11.011538770565373
20
74.187236192652023
30
0
10
11.327274392247402
20
74.140371863721214
30
0
10
11.642710832829458
20
74.09149188477204
30
0
10
11.957822382284197
20
74.040600239826148
30
0
0
SPLINE
5
218
100
AcDbEntity
8
0
100
AcDbSpline
70
0
71
3
72
8
73
4
74
0
42
0.000000001
43
0.0000000001
44
0.0000000001
40
-1
40
-1
40
-1
40
-1
40
0
40
0
40
0
40
0
10
11.957822382284213
20
74.040600239826148
30
0
10
14.152197843528807
20
73.686200735762014
30
0
10
16.330805396232915
20
73.234183806360306
30
0
10
18.485043844285315
20
72.686334025557045
30
0
0
SPLINE
5
219
100
AcDbEntity
8
0
100
AcDbSpline
70
0
71
3
72
8
73
4
74
0
42
0.000000001
43
0.0000000001
44
0.0000000001
40
-1
40
-1
40
-1
40
-1
40
0
40
0
40
0
40
0
10
18.485043844285315
20
72.686334025557045
30
0
10
18.794349174223541
20
72.607673811614092
30
0
10
19.10315240784324
20
72.527039270185981
30
0
10
19.411428382689298
20
72.444436971680062
30
0
0
ARC
5
220
100
AcDbEntity
8
0
100
AcDbCircle
10
-1.0413891970983968e-11
20
-7.7076123261576868e-11
30
0
40
75.000000000076994
210
0
220
-0
230
1
100
AcDbArc
50
74.057284460433195
51
75.000000000007375
0
SPLINE
5
221
100
AcDbEntity
8
0
100
AcDbSpline
70
0
71
3
72
8
73
4
74
0
42
0.000000001
43
0.0000000001
44
0.0000000001
40
-1
40
-1
40
-1
40
-1
40
0
40
0
40
0
40
0
10
20.600710981452025
20
72.115259876524632
30
0
10
20.907628418715028
20
72.027584709978072
30
0
10
21.213986139292111
20
71.937950188548243
30
0
10
21.519759173127952
20
71.846363618004887
30
0
0
SPLINE
5
222
100
AcDbEntity
8
0
100
AcDbSpline
70
0
71
3
72
8
73
4
74
0
42
0.000000001
43
0.0000000001
44
0.0000000001
40
-1
40
-1
40
-1
40
-1
40
0
40
0
40
0
40
0
10
21.519759173127966
20
71.846363618004887
30
0
10
23.649103030313547
20
71.208572577569683
30
0
10
25.750072244778409
20
70.47605736746408
30
0
10
27.814372138477026
20
69.651709975723605
30
0
0
SPLINE
5
223
100
AcDbEntity
8
0
100
AcDbSpline
70
0
71
3
72
8
73
4
74
0
42
0.000000001
43
0.0000000001
44
0.0000000001
40
-1
40
-1
40
-1
40
-1
40
0
40
0
40
0
40
0
10
27.814372138477012
20
69.651709975723605
30
0
10
28.110764100234626
20
69.533350263865088
30
0
10
28.406400559728485
20
69.413098651887339
30
0
10
28.701257427382014
20
69.290964938346391
30
0
0
ARC
5
224
100
AcDbEntity
8
0
100
AcDbCircle
10
-1.0413891970983968e-11
20
-7.7076123261576868e-11
30
0
40
75.000000000074863
210
0
220
-0
230
1
100
AcDbArc
50
66.557284460440783
51
67.50000000001495
0
SPLINE
5
225
100
AcDbEntity
8
0
100
AcDbSpline
70
0
71
3
72
8
73
4
74
0
42
0.000000001
43
0.0000000001
44
0.0000000001
40
-1
40
-1
40
-1
40
-1
40
0
40
0
40
0
40
0
10
29.837399315849819
20
68.809371469782562
30
0
10
30.130247126248669
20
68.682385612028
30
0
10
30.422284261283316
20
68.553530219630559
30
0
10
30.713486918115013
20
68.422815795104327
30
0
0
SPLINE
5
226
100
AcDbEntity
8
0
100
AcDbSpline
70
0
71
3
72
8
73
4
74
0
42
0.000000001
43
0.0000000001
44
0.0000000001
40
-1
40
-1
40
-1
40
-1
40
0
40
0
40
0
40
0
10
30.713486918115027
20
68.422815795104327
30
0
10
32.7413655074795
20
67.512545999828987
30
0
10
34.728748217946915
20
66.512066047355972
30
0
10
36.6677888137785
20
65.425325857103232
30
0
0
SPLINE
5
227
100
AcDbEntity
8
0
100
AcDbSpline
70
0
71
3
72
8
73
4
74
0
42
0.000000001
43
0.0000000001
44
0.0000000001
40
-1
40
-1
40
-1
40
-1
40
0
40
0
40
0
40
0
10
36.667788813778486
20
65.425325857103246
30
0
10
36.94619605871442
20
65.269291814814594
30
0
10
37.223607322294576
20
65.111480670708175
30
0
10
37.500000000000249
20
64.951905283832758
30
0
0
ARC
5
228
100
AcDbEntity
8
0
100
AcDbCircle
10
-1.0413891970983968e-11
20
-7.7076123261576868e-11
30
0
40
75.000000000071452
210
0
220
-0
230
1
100
AcDbArc
50
59.05728446044813
51
60.000000000022325
0
SPLINE
5
229
100
AcDbEntity
8
0
100
AcDbSpline
70
0
71
3
72
8
73
4
74
0
42
0.000000001
43
0.0000000001
44
0.0000000001
40
-1
40
-1
40
-1
40
-1
40
0
40
0
40
0
40
0
10
38.56356147546353
20
64.32613563963055
30
0
10
38.837328951769521
20
64.162011853901305
30
0
10
39.110048664913279
20
63.996140342025633
30
0
10
39.381698386545821
20
63.828534623561069
30
0
0
SPLINE
5
230
100
AcDbEntity
8
0
100
AcDbSpline
70
0
71
3
72
8
73
4
74
0
42
0.000000001
43
0.0000000001
44
0.0000000001
40
-1
40
-1
40
-1
40
-1
40
0
40
0
40
0
40
0
10
39.381698386545814
20
63.82853462356109
30
0
10
41.273414143190969
20
62.661361042017269
30
0
10
43.113205680478231
20
61.410034836549094
30
0
10
44.893809456244469
20
60.079496273740638
30
0
0
SPLINE
5
231
100
AcDbEntity
8
0
100
AcDbSpline
70
0
71
3
72
8
73
4
74
0
42
0.000000001
43
0.0000000001
44
0.0000000001
40
-1
40
-1
40
-1
40
-1
40
0
40
0
40
0
40
0
10
44.893809456244476
20
60.079496273740638
30
0
10
45.149468359208804
20
59.888457686746207
30
0
10
45.40390784324245
20
59.695787202940323
30
0
10
45.657107175654204
20
59.50150052184253
30
0
0
ARC
5
232
100
AcDbEntity
8
0
100
AcDbCircle
10
-1.0413891970983968e-11
20
-7.7076123261576868e-11
30
0
40
75.00000000006689
210
0
220
-0
230
1
100
AcDbArc
50
51.55728446045508
51
52.500000000029388
0
SPLINE
5
233
100
AcDbEntity
8
0
100
AcDbSpline
70
0
71
3
72
8
73
4
74
0
42
0.000000001
43
0.0000000001
44
0.0000000001
40
-1
40
-1
40
-1
40
-1
40
0
40
0
40
0
40
0
10
46.629890406392846
20
58.742261794110327
30
0
10
46.8798933111837
20
58.543808283883962
30
0
10
47.12862929253248
20
58.343758760086544
30
0
10
47.376078076913181
20
58.142129527995685
30
0
0
SPLINE
5
234
100
AcDbEntity
8
0
100
AcDbSpline
70
0
71
3
72
8
73
4
74
0
42
0.000000001
43
0.0000000001
44
0.0000000001
40
-1
40
-1
40
-1
40
-1
40
0
40
0
40
0
40
0
10
47.376078076913181
20
58.142129527995685
30
0
10
49.099263219759933
20
56.738022823765405
30
0
10
50.759984240577296
20
55.257260903611005
30
0
10
52.351684571998042
20
53.705689851951647
30
0
0
SPLINE
5
235
100
AcDbEntity
8
0
100
AcDbSpline
70
0
71
3
72
8
73
4
74
0
42
0.000000001
43
0.0000000001
44
0.0000000001
40
-1
40
-1
40
-1
40
-1
40
0
40
0
40
0
40
0
10
52.351684571998021
20
53.705689851951668
30
0
10
52.580220738278967
20
53.482915443440852
30
0
10
52.807334912650354
20
53.258682265331778
30
0
10
53.033008588990484
20
53.033008588991663
30
0
0
ARC
5
236
100
AcDbEntity
8
0
100
AcDbCircle
10
-1.0413891970983968e-11
20
-7.7076123261576868e-11
30
0
40
75.000000000061092
210
0
220
-0
230
1
100
AcDbArc
50
44.057284460461496
51
45.00000000003665
0
SPLINE
5
237
100
AcDbEntity
8
0
100
AcDbSpline
70
0
71
3
72
8
73
4
74
0
42
0.000000001
43
0.0000000001
44
0.0000000001
40
-1
40
-1
40
-1
40
-1
40
0
40
0
40
0
40
0
10
53.898368984220753
20
52.153291562861035
30
0
10
54.12032969848164
20
51.923903922719184
30
0
10
54.340826006431975
20
51.693099289816359
30
0
10
54.559839936254363
20
51.460896476162404
30
0
0
SPLINE
5
238
100
AcDbEntity
8
0
100
AcDbSpline
70
0
71
3
72
8
73
4
74
0
42
0.000000001
43
0.0000000001
44
0.0000000001
40
-1
40
-1
40
-1
40
-1
40
0
40
0
40
0
40
0
10
54.559839936254363
20
51.460896476162404
30
0
10
56.085010289751835
20
49.843881304246608
30
0
10
57.538245396994661
20
48.159019916404205
30
0
10
58.913807850096951
20
46.412964186764192
30
0
0
SPLINE
5
239
100
AcDbEntity
8
0
100
AcDbSpline
70
0
71
3
72
8
73
4
74
0
42
0.000000001
43
0.0000000001
44
0.0000000001
40
-1
40
-1
40
-1
40
-1
40
0
40
0
40
0
40
0
10
58.913807850096951
20
46.412964186764192
30
0
10
59.111310962527284
20
46.162265688631322
30
0
10
59.307213840744978
20
45.910306508065631
30
0
10
59.501500521842772
20
45.657107175653877
30
0
0
ARC
5
240
100
AcDbEntity
8
0
100
AcDbCircle
10
-1.0413891970983968e-11
20
-7.7076123261576868e-11
30
0
40
75.0000000000543
210
0
220
-0
230
1
100
AcDbArc
50
36.557284460467237
51
37.500000000041709
0
SPLINE
5
241
100
AcDbEntity
8
0
100
AcDbSpline
70
0
71
3
72
8
73
4
74
0
42
0.000000001
43
0.0000000001
44
0.0000000001
40
-1
40
-1
40
-1
40
-1
40
0
40
0
40
0
40
0
10
60.244631525277626
20
44.671964053346997
30
0
10
60.434752239648368
20
44.415567169410799
30
0
10
60.623236121238051
20
44.157956558662725
30
0
10
60.810067807440682
20
43.899153217966152
30
0
0
SPLINE
5
242
100
AcDbEntity
8
0
100
AcDbSpline
70
0
71
3
72
8
73
4
74
0
42
0.000000001
43
0.0000000001
44
0.0000000001
40
-1
40
-1
40
-1
40
-1
40
0
40
0
40
0
40
0
10
60.810067807440682
20
43.899153217966152
30
0
10
62.111127283983052
20
42.096897156278033
30
0
10
63.332011222053161
20
40.236764746225887
30
0
10
64.46789954188614
20
38.32609983623793
30
0
0
SPLINE
5
243
100
AcDbEntity
8
0
100
AcDbSpline
70
0
71
3
72
8
73
4
74
0
42
0.000000001
43
0.0000000001
44
0.0000000001
40
-1
40
-1
40
-1
40
-1
40
0
40
0
40
0
40
0
10
64.46789954188614
20
38.32609983623793
30
0
10
64.630990267453953
20
38.051766769292847
30
0
10
64.792329896957085
20
37.776392677706383
30
0
10
64.951905283832474
20
37.500000000000739
30
0
0
ARC
5
244
100
AcDbEntity
8
0
100
AcDbCircle
10
-1.0413891970983968e-11
20
-7.7076123261576868e-11
30
0
40
75.000000000046555
210
0
220
-0
230
1
100
AcDbArc
50
29.057284460472296
51
30.00000000004766
0
SPLINE
5
245
100
AcDbEntity
8
0
100
AcDbSpline
70
0
71
3
72
8
73
4
74
0
42
0.000000001
43
0.0000000001
44
0.0000000001
40
-1
40
-1
40
-1
40
-1
40
0
40
0
40
0
40
0
10
65.560091717969556
20
36.426286853471893
30
0
10
65.715119414315893
20
36.147267747512103
30
0
10
65.868365858073361
20
35.86725894789177
30
0
10
66.019818558705822
20
35.586283277065654
30
0
0
SPLINE
5
246
100
AcDbEntity
8
0
100
AcDbSpline
70
0
71
3
72
8
73
4
74
0
42
0.000000001
43
0.0000000001
44
0.0000000001
40
-1
40
-1
40
-1
40
-1
40
0
40
0
40
0
40
0
10
66.019818558705822
20
35.586283277065661
30
0
10
67.074505669927916
20
33.629623426500061
30
0
10
68.042148776152231
20
31.626047375499809
30
0
10
68.91892759863606
20
29.583465291509729
30
0
0
SPLINE
5
247
100
AcDbEntity
8
0
100
AcDbSpline
70
0
71
3
72
8
73
4
74
0
42
0.000000001
43
0.0000000001
44
0.0000000001
40
-1
40
-1
40
-1
40
-1
40
0
40
0
40
0
40
0
10
68.91892759863606
20
29.583465291509739
30
0
10
69.044815409809615
20
29.290191570587307
30
0
10
69.168831224805615
20
28.996114295035142
30
0
10
69.290964938346562
20
28.701257427381609
30
0
0
ARC
5
248
100
AcDbEntity
8
0
100
AcDbCircle
10
-1.0413891970983968e-11
20
-7.7076123261576868e-11
30
0
40
75.000000000038
210
0
220
-0
230
1
100
AcDbArc
50
21.557284460476573
51
22.500000000051251
0
SPLINE
5
249
100
AcDbEntity
8
0
100
AcDbSpline
70
0
71
3
72
8
73
4
74
0
42
0.000000001
43
0.0000000001
44
0.0000000001
40
-1
40
-1
40
-1
40
-1
40
0
40
0
40
0
40
0
10
69.753800564675629
20
27.557345786259209
30
0
10
69.871082676131223
20
27.260478552537563
30
0
10
69.986469592915796
20
26.962862592239645
30
0
10
70.099951910279628
20
26.66452216291308
30
0
0
SPLINE
5
250
100
AcDbEntity
8
0
100
AcDbSpline
70
0
71
3
72
8
73
4
74
0
42
0.000000001
43
0.0000000001
44
0.0000000001
40
-1
40
-1
40
-1
40
-1
40
0
40
0
40
0
40
0
10
70.099951910279628
20
26.664522162913077
30
0
10
70.89022066729369
20
24.586937516002219
30
0
10
71.588066299843177
20
22.474199565783202
30
0
10
72.190733696235981
20
20.33464945355928
30
0
0
SPLINE
5
251
100
AcDbEntity
8
0
100
AcDbSpline
70
0
71
3
72
8
73
4
74
0
42
0.000000001
43
0.0000000001
44
0.0000000001
40
-1
40
-1
40
-1
40
-1
40
0
40
0
40
0
40
0
10
72.190733696235981
20
20.33464945355928
30
0
10
72.277264617663377
20
20.027453073335405
30
0
10
72.361834673173988
20
19.719704357535939
30
0
10
72.444436971679892
20
19.411428382689913
30
0
0
ARC
5
252
100
AcDbEntity
8
0
100
AcDbCircle
10
-1.0413891970983968e-11
20
-7.7076123261576868e-11
30
0
40
75.00000000002882
210
0
220
-0
230
1
100
AcDbArc
50
14.057284460479954
51
15.00000000005549
0
SPLINE
5
253
100
AcDbEntity
8
0
100
AcDbSpline
70
0
71
3
72
8
73
4
74
0
42
0.000000001
43
0.0000000001
44
0.0000000001
40
-1
40
-1
40
-1
40
-1
40
0
40
0
40
0
40
0
10
72.754002544312925
20
18.216890892303955
30
0
10
72.83153234143407
20
17.907255011496538
30
0
10
72.907085429108321
20
17.597124182116438
30
0
10
72.980655649290185
20
17.286523681750744
30
0
0
SPLINE
5
254
100
AcDbEntity
8
0
100
AcDbSpline
70
0
71
3
72
8
73
4
74
0
42
0.000000001
43
0.0000000001
44
0.0000000001
40
-1
40
-1
40
-1
40
-1
40
0
40
0
40
0
40
0
10
72.980655649290185
20
17.286523681750744
30
0
10
73.492984334559935
20
15.123562287818341
30
0
10
73.909092161182386
20
12.937811970470195
30
0
10
74.227336325240984
20
10.737902125627715
30
0
0
SPLINE
5
255
100
AcDbEntity
8
0
100
AcDbSpline
70
0
71
3
72
8
73
4
74
0
42
0.000000001
43
0.0000000001
44
0.0000000001
40
-1
40
-1
40
-1
40
-1
40
0
40
0
40
0
40
0
10
74.227336325240984
20
10.737902125627713
30
0
10
74.273029788865713
20
10.422039301338902
30
0
10
74.316707067793885
20
10.105884811143497
30
0
10
74.358364603035653
20
9.7894644165047993
30
0
0
ARC
5
256
100
AcDbEntity
8
0
100
AcDbCircle
10
-1.0413891970983968e-11
20
-7.7076123261576868e-11
30
0
40
75.000000000019156
210
0
220
-0
230
1
100
AcDbArc
50
6.5572844604823359
51
7.500000000058006
0
SPLINE
5
257
100
AcDbEntity
8
0
100
AcDbSpline
70
0
71
3
72
8
73
4
74
0
42
0.000000001
43
0.0000000001
44
0.0000000001
40
-1
40
-1
40
-1
40
-1
40
0
40
0
40
0
40
0
10
74.509363369196763
20
8.5647399445050336
30
0
10
74.545814295659383
20
8.247633372379708
30
0
10
74.580240819945914
20
7.9302940983925732
30
0
10
74.612640136080984
20
7.6127479876636963
30
0
0
SPLINE
5
258
100
AcDbEntity
8
0
100
AcDbSpline
70
0
71
3
72
8
73
4
74
0
42
0.000000001
43
0.0000000001
44
0.0000000001
40
-1
40
-1
40
-1
40
-1
40
0
40
0
40
0
40
0
10
74.612640136080984
20
7.6127479876636963
30
0
10
74.838262663757135
20
5.4014187158458702
30
0
10
74.965512964172149
20
3.1800548253026339
30
0
10
74.993888650015549
20
0.95742631521682942
30
0
0
SPLINE
5
259
100
AcDbEntity
8
0
100
AcDbSpline
70
0
71
3
72
8
73
4
74
0
42
0.000000001
43
0.0000000001
44
0.0000000001
40
-1
40
-1
40
-1
40
-1
40
0
40
0
40
0
40
0
10
74.993888650015549
20
0.95742631521682942
30
0
10
74.997962828006351
20
0.63830154736035571
30
0
10
75
20
0.31915077375080714
30
0
10
75
20
-1.609823385706477e-14
30
0
0
ARC
5
260
100
AcDbEntity
8
0
100
AcDbCircle
10
-1.0413891970983968e-11
20
-7.7076123261576868e-11
30
0
40
75.000000000009138
210
0
220
0
230
1
100
AcDbArc
50
-0.94271553951603027
51
0
0
SPLINE
5
261
100
AcDbEntity
8
0
100
AcDbSpline
70
0
71
3
72
8
73
4
74
0
42
0.000000001
43
0.0000000001
44
0.0000000001
40
-1
40
-1
40
-1
40
-1
40
0
40
0
40
0
40
0
10
74.989848328935366
20
-1.2339560783388401
30
0
10
74.984596699281568
20
-1.5531075604144169
30
0
10
74.977307612804992
20
-1.8722255160475521
30
0
10
74.967981663611425
20
-2.191283935144583
30
0
0
SPLINE
5
262
100
AcDbEntity
8
0
100
AcDbSpline
70
0
71
3
72
8
73
4
74
0
42
0.000000001
43
0.0000000001
44
0.0000000001
40
-1
40
-1
40
-1
40
-1
40
0
40
0
40
0
40
0
10
74.967981663611425
20
-2.1912839351445825
30
0
10
74.90303756969098
20
-4.4131446279105191
30
0
10
74.739253055977997
20
-6.6321139396030091
30
0
10
74.477274747754166
20
-8.8394313248953118
30
0
0
SPLINE
5
263
100
AcDbEntity
8
0
100
AcDbSpline
70
0
71
3
72
8
73
4
74
0
42
0.000000001
43
0.0000000001
44
0.0000000001
40
-1
40
-1
40
-1
40
-1
40
0
40
0
40
0
40
0
10
74.477274747754166
20
-8.83943132489531
30
0
10
74.439659929796051
20
-9.1563577230632909
30
0
10
74.400022138277549
20
-9.473044021865185
30
0
10
74.358364603035767
20
-9.7894644165039164
30
0
0
ARC
5
264
100
AcDbEntity
8
0
100
AcDbCircle
10
-1.0413891970983968e-11
20
-7.7076123261576868e-11
30
0
40
74.999999999998991
210
0
220
0
230
1
100
AcDbArc
50
351.55728446048425
51
352.50000000005934
0
SPLINE
5
265
100
AcDbEntity
8
0
100
AcDbSpline
70
0
71
3
72
8
73
4
74
0
42
0.000000001
43
0.0000000001
44
0.0000000001
40
-1
40
-1
40
-1
40
-1
40
0
40
0
40
0
40
0
10
74.187236192652037
20
-11.011538770565215
30
0
10
74.140371863721228
20
-11.327274392247222
30
0
10
74.091491884772068
20
-11.642710832829263
30
0
10
74.040600239826176
20
-11.95782238228399
30
0
0
SPLINE
5
266
100
AcDbEntity
8
0
100
AcDbSpline
70
0
71
3
72
8
73
4
74
0
42
0.000000001
43
0.0000000001
44
0.0000000001
40
-1
40
-1
40
-1
40
-1
40
0
40
0
40
0
40
0
10
74.040600239826176
20
-11.957822382283991
30
0
10
73.686200735762043
20
-14.15219784352859
30
0
10
73.234183806360335
20
-16.330805396232702
30
0
10
72.686334025557088
20
-18.485043844285098
30
0
0
SPLINE
5
267
100
AcDbEntity
8
0
100
AcDbSpline
70
0
71
3
72
8
73
4
74
0
42
0.000000001
43
0.0000000001
44
0.0000000001
40
-1
40
-1
40
-1
40
-1
40
0
40
0
40
0
40
0
10
72.686334025557088
20
-18.485043844285098
30
0
10
72.607673811614134
20
-18.794349174223328
30
0
10
72.527039270186037
20
-19.103152407843027
30
0
10
72.444436971680119
20
-19.411428382689085
30
0
0
ARC
5
268
100
AcDbEntity
8
0
100
AcDbCircle
10
-1.0413891970983968e-11
20
-7.7076123261576868e-11
30
0
40
74.999999999988844
210
0
220
0
230
1
100
AcDbArc
50
344.05728446048357
51
345.00000000005889
0
SPLINE
5
269
100
AcDbEntity
8
0
100
AcDbSpline
70
0
71
3
72
8
73
4
74
0
42
0.000000001
43
0.0000000001
44
0.0000000001
40
-1
40
-1
40
-1
40
-1
40
0
40
0
40
0
40
0
10
72.115259876524675
20
-20.600710981451805
30
0
10
72.027584709978115
20
-20.907628418714829
30
0
10
71.937950188548299
20
-21.213986139291919
30
0
10
71.846363618004943
20
-21.51975917312776
30
0
0
SPLINE
5
270
100
AcDbEntity
8
0
100
AcDbSpline
70
0
71
3
72
8
73
4
74
0
42
0.000000001
43
0.0000000001
44
0.0000000001
40
-1
40
-1
40
-1
40
-1
40
0
40
0
40
0
40
0
10
71.846363618004943
20
-21.519759173127756
30
0
10
71.208572577569754
20
-23.649103030313327
30
0
10
70.476057367464151
20
-25.750072244778174
30
0
10
69.651709975723691
20
-27.81437213847677
30
0
0
SPLINE
5
271
100
AcDbEntity
8
0
100
AcDbSpline
70
0
71
3
72
8
73
4
74
0
42
0.000000001
43
0.0000000001
44
0.0000000001
40
-1
40
-1
40
-1
40
-1
40
0
40
0
40
0
40
0
10
69.651709975723691
20
-27.814372138476774
30
0
10
69.533350263865174
20
-28.11076410023437
30
0
10
69.413098651887438
20
-28.406400559728219
30
0
10
69.290964938346505
20
-28.701257427381748
30
0
0
ARC
5
272
100
AcDbEntity
8
0
100
AcDbCircle
10
-1.0413891970983968e-11
20
-7.7076123261576868e-11
30
0
40
74.999999999978883
210
0
220
0
230
1
100
AcDbArc
50
336.55728446048204
51
337.50000000005741
0
SPLINE
5
273
100
AcDbEntity
8
0
100
AcDbSpline
70
0
71
3
72
8
73
4
74
0
42
0.000000001
43
0.0000000001
44
0.0000000001
40
-1
40
-1
40
-1
40
-1
40
0
40
0
40
0
40
0
10
68.809371469782633
20
-29.837399315849641
30
0
10
68.678967963504462
20
-30.138128719557763
30
0
10
68.546592935071303
20
-30.438003223640287
30
0
10
68.412257762432262
20
-30.736997053169123
30
0
0
SPLINE
5
274
100
AcDbEntity
8
0
100
AcDbSpline
70
0
71
3
72
8
73
4
74
0
42
0.000000001
43
0.0000000001
44
0.0000000001
40
-1
40
-1
40
-1
40
-1
40
0
40
0
40
0
40
0
10
68.412257762432262
20
-30.736997053169127
30
0
10
67.476773782453549
20
-32.819131851836175
30
0
10
66.446169891911467
20
-34.858527253626981
30
0
10
65.324736625197545
20
-36.846692997453296
30
0
0
SPLINE
5
275
100
AcDbEntity
8
0
100
AcDbSpline
70
0
71
3
72
8
73
4
74
0
42
0.000000001
43
0.0000000001
44
0.0000000001
40
-1
40
-1
40
-1
40
-1
40
0
40
0
40
0
40
0
10
65.324736625197545
20
-36.846692997453296
30
0
10
65.163721354637204
20
-37.132153625974745
30
0
10
65.000834918461166
20
-37.416558815459609
30
0
10
64.836091313294887
20
-37.699884127329717
30
0
0
SPLINE
5
276
100
AcDbEntity
8
0
100
AcDbSpline
70
0
71
3
72
8
73
4
74
0
42
0.000000001
43
0.0000000001
44
0.0000000001
40
-1
40
-1
40
-1
40
-1
40
0
40
0
40
0
40
0
10
64.836091313294887
20
-37.69988412732971
30
0
10
64.668033662395501
20
-37.98890892015956
30
0
10
64.498043370964893
20
-38.276809950961535
30
0
10
64.326135639630991
20
-38.56356147546277
30
0
0
SPLINE
5
277
100
AcDbEntity
8
0
100
AcDbSpline
70
0
71
3
72
8
73
4
74
0
42
0.000000001
43
0.0000000001
44
0.0000000001
40
-1
40
-1
40
-1
40
-1
40
0
40
0
40
0
40
0
10
64.326135639630976
20
-38.56356147546277
30
0
10
64.157594689471736
20
-38.844697024306562
30
0
10
63.987210670595715
20
-39.124727652029819
30
0
10
63.814998227915268
20
-39.403629289332862
30
0
0
SPLINE
5
278
100
AcDbEntity
8
0
100
AcDbSpline
70
0
71
3
72
8
73
4
74
0
42
0.000000001
43
0.0000000001
44
0.0000000001
40
-1
40
-1
40
-1
40
-1
40
0
40
0
40
0
40
0
10
63.814998227915261
20
-39.403629289332862
30
0
10
62.615744316108987
20
-41.345845974369425
30
0
10
61.327762868492364
20
-43.23327326426471
30
0
10
59.956415914791222
20
-45.0580535604077
30
0
0
SPLINE
5
279
100
AcDbEntity
8
0
100
AcDbSpline
70
0
71
3
72
8
73
4
74
0
42
0.000000001
43
0.0000000001
44
0.0000000001
40
-1
40
-1
40
-1
40
-1
40
0
40
0
40
0
40
0
10
59.956415914791236
20
-45.058053560407686
30
0
10
59.759518063321821
20
-45.320055323524286
30
0
10
59.560902816756531
20
-45.580766440908747
30
0
10
59.360587241852265
20
-45.840164509984533
30
0
0
SPLINE
5
280
100
AcDbEntity
8
0
100
AcDbSpline
70
0
71
3
72
8
73
4
74
0
42
0.000000001
43
0.0000000001
44
0.0000000001
40
-1
40
-1
40
-1
40
-1
40
0
40
0
40
0
40
0
10
59.360587241852265
20
-45.840164509984533
30
0
10
59.156242041788083
20
-46.104780730400179
30
0
10
58.950127415578805
20
-46.368030542518412
30
0
10
58.74226179411076
20
-46.629890406392278
30
0
0
SPLINE
5
281
100
AcDbEntity
8
0
100
AcDbSpline
70
0
71
3
72
8
73
4
74
0
42
0.000000001
43
0.0000000001
44
0.0000000001
40
-1
40
-1
40
-1
40
-1
40
0
40
0
40
0
40
0
10
58.74226179411076
20
-46.629890406392278
30
0
10
58.538467182456031
20
-46.886621793185554
30
0
10
58.33298949093944
20
-47.142017142870017
30
0
10
58.125846380858164
20
-47.396054503606905
30
0
0
SPLINE
5
282
100
AcDbEntity
8
0
100
AcDbSpline
70
0
71
3
72
8
73
4
74
0
42
0.000000001
43
0.0000000001
44
0.0000000001
40
-1
40
-1
40
-1
40
-1
40
0
40
0
40
0
40
0
10
58.125846380858164
20
-47.396054503606905
30
0
10
56.683342104151308
20
-49.165121209047811
30
0
10
55.16002081912476
20
-50.868285982823721
30
0
10
53.562224305023406
20
-52.498458334491687
30
0
0
SPLINE
5
283
100
AcDbEntity
8
0
100
AcDbSpline
70
0
71
3
72
8
73
4
74
0
42
0.000000001
43
0.0000000001
44
0.0000000001
40
-1
40
-1
40
-1
40
-1
40
0
40
0
40
0
40
0
10
53.562224305023406
20
-52.498458334491687
30
0
10
53.332812849473953
20
-52.732518309395914
30
0
10
53.101867154454673
20
-52.965074515178749
30
0
10
52.869407064836984
20
-53.196106968579613
30
0
0
SPLINE
5
284
100
AcDbEntity
8
0
100
AcDbSpline
70
0
71
3
72
8
73
4
74
0
42
0.000000001
43
0.0000000001
44
0.0000000001
40
-1
40
-1
40
-1
40
-1
40
0
40
0
40
0
40
0
10
52.869407064836984
20
-53.196106968579613
30
0
10
52.632270718636235
20
-53.431786959684246
30
0
10
52.393558436048423
20
-53.665881275846708
30
0
10
52.153291562860744
20
-53.898368984221008
30
0
0
SPLINE
5
285
100
AcDbEntity
8
0
100
AcDbSpline
70
0
71
3
72
8
73
4
74
0
42
0.000000001
43
0.0000000001
44
0.0000000001
40
-1
40
-1
40
-1
40
-1
40
0
40
0
40
0
40
0
10
52.15329156286073
20
-53.89836898422103
30
0
10
51.917730272018474
20
-54.126303463756322
30
0
10
51.680674688132385
20
-54.352693650159921
30
0
10
51.442145186694688
20
-54.577520084655937
30
0
0
SPLINE
5
286
100
AcDbEntity
8
0
100
AcDbSpline
70
0
71
3
72
8
73
4
74
0
42
0.000000001
43
0.0000000001
44
0.0000000001
40
-1
40
-1
40
-1
40
-1
40
0
40
0
40
0
40
0
10
51.442145186694702
20
-54.577520084655937
30
0
10
49.781072193199449
20
-56.143167588693103
30
0
10
48.048475520294232
20
-57.63292822486379
30
0
10
46.251568187141821
20
-59.04059993115051
30
0
0
SPLINE
5
287
100
AcDbEntity
8
0
100
AcDbSpline
70
0
71
3
72
8
73
4
74
0
42
0.000000001
43
0.0000000001
44
0.0000000001
40
-1
40
-1
40
-1
40
-1
40
0
40
0
40
0
40
0
10
46.251568187141828
20
-59.04059993115051
30
0
10
45.993568421121665
20
-59.242713286778049
30
0
10
45.734243822520419
20
-59.443135479801555
30
0
10
45.473616674772799
20
-59.641849288195488
30
0
0
SPLINE
5
288
100
AcDbEntity
8
0
100
AcDbSpline
70
0
71
3
72
8
73
4
74
0
42
0.000000001
43
0.0000000001
44
0.0000000001
40
-1
40
-1
40
-1
40
-1
40
0
40
0
40
0
40
0
10
45.473616674772799
20
-59.641849288195488
30
0
10
45.207746651066188
20
-59.844560499997897
30
0
10
44.940521145439085
20
-60.045493901551332
30
0
10
44.671964053347182
20
-60.244631525277477
30
0
0
SPLINE
5
289
100
AcDbEntity
8
0
100
AcDbSpline
70
0
71
3
72
8
73
4
74
0
42
0.000000001
43
0.0000000001
44
0.0000000001
40
-1
40
-1
40
-1
40
-1
40
0
40
0
40
0
40
0
10
44.671964053347168
20
-60.244631525277484
30
0
10
44.40866660231363
20
-60.439869075414592
30
0
10
44.14408921282255
20
-60.633380499680754
30
0
10
43.878254625930914
20
-60.825149165308019
30
0
0
SPLINE
5
290
100
AcDbEntity
8
0
100
AcDbSpline
70
0
71
3
72
8
73
4
74
0
42
0.000000001
43
0.0000000001
44
0.0000000001
40
-1
40
-1
40
-1
40
-1
40
0
40
0
40
0
40
0
10
43.878254625930914
20
-60.825149165308019
30
0
10
42.027034335102456
20
-62.160588805067917
30
0
10
40.11480748375854
20
-63.411455086108894
30
0
10
38.149534914222173
20
-64.572540493839497
30
0
0
SPLINE
5
291
100
AcDbEntity
8
0
100
AcDbSpline
70
0
71
3
72
8
73
4
74
0
42
0.000000001
43
0.0000000001
44
0.0000000001
40
-1
40
-1
40
-1
40
-1
40
0
40
0
40
0
40
0
10
38.149534914222187
20
-64.572540493839497
30
0
10
37.867361285258973
20
-64.739249014639157
30
0
10
37.584094898856179
20
-64.904107915613181
30
0
10
37.29976009573609
20
-65.067103030644688
30
0
0
LWPOLYLINE
5
292
100
AcDbEntity
8
0
100
AcDbPolyline
90
4
70
1
43
0.0
10
77.5
20
77.500000000000014
10
77.5
20
-77.499999999999986
10
-77.5
20
-77.499999999999986
10
-77.5
20
77.500000000000014
0
LINE
5
293
100
AcDbEntity
8
0
100
AcDbLine
10
54.999999999989583
20
-65.00000000007708
30
0
11
-55.000000000010417
21
-65.00000000007708
31
0
0
LINE
5
294
100
AcDbEntity
8
0
100
AcDbLine
10
-55.000000000010417
20
-65.00000000007708
30
0
11
-55.000000000010417
21
64.99999999992292
31
0
0
LINE
5
295
100
AcDbEntity
8
0
100
AcDbLine
10
-55.000000000010417
20
64.99999999992292
30
0
11
54.999999999989583
21
64.99999999992292
31
0
0
LINE
5
296
100
AcDbEntity
8
0
100
AcDbLine
10
54.999999999989583
20
64.99999999992292
30
0
11
54.999999999989583
21
-65.00000000007708
31
0
0
LINE
5
297
100
AcDbEntity
8
0
100
AcDbLine
10
54.999999999989583
20
-65.00000000007708
30
0
11
-55.000000000010417
21
64.99999999992292
31
0
0
LINE
5
298
100
AcDbEntity
8
0
100
AcDbLine
10
-55.000000000010417
20
-65.00000000007708
30
0
11
54.999999999989583
21
64.99999999992292
31
0
0
CIRCLE
5
299
100
AcDbEntity
8
0
100
AcDbCircle
10
-55.000000000010417
20
64.99999999992292
30
0
40
3.1000000000000041
210
0
220
0
230
1
0
CIRCLE
5
300
100
AcDbEntity
8
0
100
AcDbCircle
10
54.999999999989583
20
64.99999999992292
30
0
40
3.100000000000005
210
0
220
0
230
1
0
CIRCLE
5
301
100
AcDbEntity
8
0
100
AcDbCircle
10
-55.000000000010417
20
-65.00000000007708
30
0
40
3.0999999999999961
210
0
220
0
230
1
0
CIRCLE
5
302
100
AcDbEntity
8
0
100
AcDbCircle
10
54.999999999989583
20
-65.00000000007708
30
0
40
3.1000000000000041
210
0
220
0
230
1
0
ENDSEC
0
SECTION
2
OBJECTS
0
DICTIONARY
5
C
100
AcDbDictionary
3
ACAD_GROUP
350
D
3
ACAD_MLINESTYLE
350
17
0
DICTIONARY
5
D
100
AcDbDictionary
0
DICTIONARY
5
1A
330
C
100
AcDbDictionary
0
DICTIONARY
5
17
100
AcDbDictionary
0
ENDSEC
0
EOF
