0
SECTION
2
HEADER
9
$INSUNITS
70
4
9
$ACADVER
1
AC1014
9
$HANDSEED
5
FFFF
0
ENDSEC
0
SECTION
2
TABLES
0
TABLE
2
VPORT
5
8
100
AcDbSymbolTable
0
ENDTAB
0
TABLE
2
LTYPE
5
5
100
AcDbSymbolTable
0
LTYPE
5
14
100
AcDbSymbolTableRecord
100
AcDbLinetypeTableRecord
2
BYBLOCK
70
0
0
LTYPE
5
15
100
AcDbSymbolTableRecord
100
AcDbLinetypeTableRecord
2
BYLAYER
70
0
0
ENDTAB
0
TABLE
2
LAYER
5
2
100
AcDbSymbolTable
70
2
0
LAYER
5
50
100
AcDbSymbolTableRecord
100
AcDbLayerTableRecord
2
0
70
0
6
CONTINUOUS
0
ENDTAB
0
TABLE
2
STYLE
5
3
100
AcDbSymbolTable
70
1
0
STYLE
5
11
100
AcDbSymbolTableRecord
100
AcDbTextStyleTableRecord
2
STANDARD
70
0
0
ENDTAB
0
TABLE
2
VIEW
5
6
100
AcDbSymbolTable
70
0
0
ENDTAB
0
TABLE
2
UCS
5
7
100
AcDbSymbolTable
70
0
0
ENDTAB
0
TABLE
2
APPID
5
9
100
AcDbSymbolTable
70
2
0
APPID
5
12
100
AcDbSymbolTableRecord
100
AcDbRegAppTableRecord
2
ACAD
70
0
0
ENDTAB
0
TABLE
2
DIMSTYLE
5
A
100
AcDbSymbolTable
70
1
0
ENDTAB
0
TABLE
2
BLOCK_RECORD
5
1
100
AcDbSymbolTable
70
1
0
BLOCK_RECORD
5
1F
100
AcDbSymbolTableRecord
100
AcDbBlockTableRecord
2
*MODEL_SPACE
0
BLOCK_RECORD
5
1B
100
AcDbSymbolTableRecord
100
AcDbBlockTableRecord
2
*PAPER_SPACE
0
ENDTAB
0
ENDSEC
0
SECTION
2
BLOCKS
0
BLOCK
5
20
100
AcDbEntity
100
AcDbBlockBegin
2
*MODEL_SPACE
0
ENDBLK
5
21
100
AcDbEntity
100
AcDbBlockEnd
0
BLOCK
5
1C
100
AcDbEntity
100
AcDbBlockBegin
2
*PAPER_SPACE
0
ENDBLK
5
1D
100
AcDbEntity
100
AcDbBlockEnd
0
ENDSEC
0
SECTION
2
ENTITIES
0
LINE
5
100
100
AcDbEntity
8
0
100
AcDbLine
10
-198.74463409573582
20
-257.08663005658696
30
0
11
-125.80537418065278
21
-257.08663005658696
31
0
0
LINE
5
101
100
AcDbEntity
8
0
100
AcDbLine
10
-125.80537418065278
20
-257.08663005658696
30
0
11
-125.80537418065278
21
-260.99510335794821
31
0
0
LINE
5
102
100
AcDbEntity
8
0
100
AcDbLine
10
-125.80537418065278
20
-260.99510335794821
30
0
11
-120.45445536766861
21
-260.99510335794821
31
0
0
LINE
5
103
100
AcDbEntity
8
0
100
AcDbLine
10
-120.45445536766861
20
-260.99510335794821
30
0
11
-120.45445536766861
21
-255.10264577352953
31
0
0
LINE
5
104
100
AcDbEntity
8
0
100
AcDbLine
10
-120.45445536766861
20
-255.10264577352953
30
0
11
-80.939591943041506
21
-255.10264577352953
31
0
0
LINE
5
105
100
AcDbEntity
8
0
100
AcDbLine
10
-80.939591943041506
20
-255.10264577352953
30
0
11
-80.939591943041506
21
-260.73215272293885
31
0
0
LINE
5
106
100
AcDbEntity
8
0
100
AcDbLine
10
-80.939591943041506
20
-260.73215272293885
30
0
11
-75.047382222798191
21
-260.73215272293885
31
0
0
LINE
5
107
100
AcDbEntity
8
0
100
AcDbLine
10
-75.047382222798191
20
-260.73215272293885
30
0
11
-75.047382222798191
21
-257.07784957913412
31
0
0
LINE
5
108
100
AcDbEntity
8
0
100
AcDbLine
10
-75.047382222798191
20
-257.07784957913412
30
0
11
-62.951355537491011
21
-257.07784957913412
31
0
0
LINE
5
109
100
AcDbEntity
8
0
100
AcDbLine
10
-62.951355537491011
20
-257.07784957913412
30
0
11
-62.951355537491011
21
-254.55666368922232
31
0
0
LINE
5
110
100
AcDbEntity
8
0
100
AcDbLine
10
-62.951355537491011
20
-254.55666368922232
30
0
11
-58.192263071140644
21
-250.61908123194434
31
0
0
LINE
5
111
100
AcDbEntity
8
0
100
AcDbLine
10
-58.192263071140644
20
-250.61908123194434
30
0
11
-53.971401300389424
21
-250.61908123194434
31
0
0
LINE
5
112
100
AcDbEntity
8
0
100
AcDbLine
10
-53.971401300389424
20
-250.61908123194434
30
0
11
-53.971401300389424
21
-241.06447570218617
31
0
0
LINE
5
113
100
AcDbEntity
8
0
100
AcDbLine
10
-53.971401300389424
20
-241.06447570218617
30
0
11
-58.456002647099879
21
-236.61302446012499
31
0
0
LINE
5
114
100
AcDbEntity
8
0
100
AcDbLine
10
-58.456002647099879
20
-236.61302446012499
30
0
11
-58.456002647099879
21
-217.78657785991268
31
0
0
LINE
5
115
100
AcDbEntity
8
0
100
AcDbLine
10
-58.456002647099879
20
-217.78657785991268
30
0
11
-53.971401300389424
21
-217.78657785991268
31
0
0
LINE
5
116
100
AcDbEntity
8
0
100
AcDbLine
10
-53.971401300389424
20
-217.78657785991268
30
0
11
-53.971401300389424
21
-193.39269248074703
31
0
0
LINE
5
117
100
AcDbEntity
8
0
100
AcDbLine
10
-53.971401300389424
20
-193.39269248074703
30
0
11
-60.121341141807221
21
-193.39269248074703
31
0
0
LINE
5
118
100
AcDbEntity
8
0
100
AcDbLine
10
-60.121341141807221
20
-193.39269248074703
30
0
11
-60.121341141807221
21
-191.70085361544906
31
0
0
LINE
5
119
100
AcDbEntity
8
0
100
AcDbLine
10
-60.121341141807221
20
-191.70085361544906
30
0
11
-53.971401300389424
21
-191.70085361544906
31
0
0
LINE
5
120
100
AcDbEntity
8
0
100
AcDbLine
10
-53.971401300389424
20
-191.70085361544906
30
0
11
-53.971401300389424
21
-181.60269038820184
31
0
0
LINE
5
121
100
AcDbEntity
8
0
100
AcDbLine
10
-53.971401300389424
20
-181.60269038820184
30
0
11
-199.51712723573766
21
-181.60269038820184
31
0
0
LINE
5
122
100
AcDbEntity
8
0
100
AcDbLine
10
-199.51712723573766
20
-181.60269038820184
30
0
11
-199.51712723573766
21
-214.50821563516183
31
0
0
LINE
5
123
100
AcDbEntity
8
0
100
AcDbLine
10
-199.51712723573766
20
-214.50821563516183
30
0
11
-202.44658357564444
21
-214.50821563516183
31
0
0
LINE
5
124
100
AcDbEntity
8
0
100
AcDbLine
10
-202.44658357564444
20
-214.50821563516183
30
0
11
-202.44658357564444
21
-235.01441001450934
31
0
0
LINE
5
125
100
AcDbEntity
8
0
100
AcDbLine
10
-202.44658357564444
20
-235.01441001450934
30
0
11
-208.30549625545802
21
-241.74130975799898
31
0
0
LINE
5
126
100
AcDbEntity
8
0
100
AcDbLine
10
-208.30549625545802
20
-241.74130975799898
30
0
11
-208.30549625545802
21
-250.42118039475983
31
0
0
LINE
5
127
100
AcDbEntity
8
0
100
AcDbLine
10
-208.30549625545802
20
-250.42118039475983
30
0
11
-202.44658357564444
21
-250.42118039475983
31
0
0
LINE
5
128
100
AcDbEntity
8
0
100
AcDbLine
10
-202.44658357564444
20
-250.42118039475983
30
0
11
-198.74463409573582
21
-257.08663005658696
31
0
0
LINE
5
129
100
AcDbEntity
8
0
100
AcDbLine
10
-202.44658357564444
20
-214.50821563516183
30
0
11
-178.94658357564441
21
-214.50821563516183
31
0
0
LINE
5
130
100
AcDbEntity
8
0
100
AcDbLine
10
-178.94658357564441
20
-214.50821563516183
30
0
11
-178.94658357564441
21
-253.5082156351618
31
0
0
LINE
5
131
100
AcDbEntity
8
0
100
AcDbLine
10
-178.94658357564441
20
-253.5082156351618
30
0
11
-202.44658357564444
21
-253.5082156351618
31
0
0
LINE
5
132
100
AcDbEntity
8
0
100
AcDbLine
10
-202.44658357564444
20
-253.5082156351618
30
0
11
-202.44658357564444
21
-214.50821563516183
31
0
0
LWPOLYLINE
5
133
100
AcDbEntity
8
0
100
AcDbPolyline
90
4
70
1
43
0.0
10
-59.912760729466896
20
-214.47601734896699
10
-83.41276072946691
20
-214.47601734896699
10
-83.41276072946691
20
-253.47601734896699
10
-59.912760729466896
20
-253.47601734896699
0
LWPOLYLINE
5
134
100
AcDbEntity
8
0
100
AcDbPolyline
90
4
70
1
43
0.0
10
-154.76759748861747
20
-200.36825801357986
10
-176.76759748861744
20
-200.36825801357986
10
-176.76759748861744
20
-185.36825801357986
10
-154.76759748861747
20
-185.36825801357986
0
LWPOLYLINE
5
135
100
AcDbEntity
8
0
100
AcDbPolyline
90
4
70
1
43
0.0
10
-107.76759748861744
20
-200.36825801357986
10
-107.76759748861744
20
-185.36825801357986
10
-85.767597488617454
20
-185.36825801357986
10
-85.767597488617454
20
-200.36825801357986
0
LINE
5
136
100
AcDbEntity
8
0
100
AcDbLine
10
-190.69658357564441
20
-253.5082156351618
30
0
11
-190.69658357564441
21
-214.50821563516183
31
0
0
CIRCLE
5
137
100
AcDbEntity
8
0
100
AcDbCircle
10
-190.69658357564441
20
-238.5082156351618
30
0
40
1.1000000000000001
210
0
220
0
230
1
0
CIRCLE
5
138
100
AcDbEntity
8
0
100
AcDbCircle
10
-190.69658357564441
20
-224.50821563516183
30
0
40
1.1000000000000001
210
0
220
0
230
1
0
LINE
5
139
100
AcDbEntity
8
0
100
AcDbLine
10
-71.662760729466896
20
-253.47601734896699
30
0
11
-71.662760729466896
21
-214.47601734896699
31
0
0
CIRCLE
5
140
100
AcDbEntity
8
0
100
AcDbCircle
10
-71.662760729466896
20
-238.47601734896699
30
0
40
1.1000000000000001
210
0
220
0
230
1
0
CIRCLE
5
141
100
AcDbEntity
8
0
100
AcDbCircle
10
-71.662760729466896
20
-224.47601734896699
30
0
40
1.1000000000000001
210
0
220
0
230
1
0
LINE
5
142
100
AcDbEntity
8
0
100
AcDbLine
10
-176.76759748861744
20
-192.86825801357986
30
0
11
-154.76759748861747
21
-192.86825801357986
31
0
0
LINE
5
143
100
AcDbEntity
8
0
100
AcDbLine
10
-107.76759748861744
20
-192.86825801357986
30
0
11
-85.767597488617454
21
-192.86825801357986
31
0
0
CIRCLE
5
144
100
AcDbEntity
8
0
100
AcDbCircle
10
-171.76759748861744
20
-192.86825801357986
30
0
40
1.1000000000000001
210
0
220
0
230
1
0
CIRCLE
5
145
100
AcDbEntity
8
0
100
AcDbCircle
10
-159.76759748861747
20
-192.86825801357986
30
0
40
1.1000000000000001
210
0
220
0
230
1
0
CIRCLE
5
146
100
AcDbEntity
8
0
100
AcDbCircle
10
-102.76759748861744
20
-192.86825801357986
30
0
40
1.1000000000000001
210
0
220
0
230
1
0
CIRCLE
5
147
100
AcDbEntity
8
0
100
AcDbCircle
10
-90.767597488617454
20
-192.86825801357986
30
0
40
1.1000000000000001
210
0
220
0
230
1
0
LWPOLYLINE
5
148
100
AcDbEntity
8
0
100
AcDbPolyline
90
4
70
1
43
0.0
10
-141.60354997297134
20
-212.40872536464693
10
-141.60354997297134
20
-233.9087253646469
10
-113.60354997297134
20
-233.9087253646469
10
-113.60354997297134
20
-212.40872536464693
0
LWPOLYLINE
5
149
100
AcDbEntity
8
0
100
AcDbPolyline
90
4
70
1
43
0.0
10
-136.60354997297134
20
-228.9087253646469
10
-118.60354997297134
20
-228.9087253646469
10
-118.60354997297134
20
-217.40872536464693
10
-136.60354997297134
20
-217.40872536464693
0
CIRCLE
5
150
100
AcDbEntity
8
0
100
AcDbCircle
10
-136.60354997297134
20
-228.9087253646469
30
0
40
1.1000000000000001
210
0
220
0
230
1
0
CIRCLE
5
151
100
AcDbEntity
8
0
100
AcDbCircle
10
-118.60354997297134
20
-228.9087253646469
30
0
40
1.1000000000000001
210
0
220
0
230
1
0
CIRCLE
5
152
100
AcDbEntity
8
0
100
AcDbCircle
10
-118.60354997297134
20
-217.40872536464693
30
0
40
1.1000000000000001
210
0
220
0
230
1
0
CIRCLE
5
153
100
AcDbEntity
8
0
100
AcDbCircle
10
-136.60354997297134
20
-217.40872536464693
30
0
40
1.1000000000000001
210
0
220
0
230
1
0
CIRCLE
5
154
100
AcDbEntity
8
0
100
AcDbCircle
10
-188.72589377933653
20
-245.82524527072465
30
0
40
2.6000000000000001
210
0
220
0
230
1
0
CIRCLE
5
155
100
AcDbEntity
8
0
100
AcDbCircle
10
-188.72589377933653
20
-190.32524527072462
30
0
40
2.6000000000000001
210
0
220
0
230
1
0
CIRCLE
5
156
100
AcDbEntity
8
0
100
AcDbCircle
10
-69.225893779336516
20
-190.32524527072457
30
0
40
2.6000000000000001
210
0
220
0
230
1
0
CIRCLE
5
157
100
AcDbEntity
8
0
100
AcDbCircle
10
-69.225893779336587
20
-245.82524527072479
30
0
40
2.6000000000000001
210
0
220
0
230
1
0
LINE
5
158
100
AcDbEntity
8
0
100
AcDbLine
10
-154.76759748861747
20
-192.86825801357986
30
0
11
-107.76759748861744
21
-192.86825801357986
31
0
0
LWPOLYLINE
5
159
100
AcDbEntity
8
0
100
AcDbPolyline
90
4
70
1
43
0.0
10
-121.26759748861744
20
-197.86825801357986
10
-141.26759748861744
20
-197.86825801357986
42
-0.99999999999999989
10
-141.26759748861744
20
-187.86825801357986
10
-121.26759748861744
20
-187.86825801357986
42
-0.99999999999999989
0
LINE
5
160
100
AcDbEntity
8
0
100
AcDbLine
10
-141.26759748861744
20
-192.86825801357986
30
0
11
-121.26759748861744
21
-192.86825801357986
31
0
0
LWPOLYLINE
5
161
100
AcDbEntity
8
0
100
AcDbPolyline
90
4
70
1
43
0.0
10
-74.225893779336531
20
-250.82524527072465
10
-183.72589377933653
20
-250.82524527072465
10
-183.72589377933653
20
-185.32524527072462
10
-74.225893779336531
20
-185.32524527072462
0
LWPOLYLINE
5
162
100
AcDbEntity
8
0
100
AcDbPolyline
90
4
70
1
43
0.0
10
-183.57589377933652
20
-250.67524527072464
10
-183.57589377933652
20
-185.4752452707246
10
-74.375893779336522
20
-185.4752452707246
10
-74.375893779336508
20
-250.67524527072464
0
CIRCLE
5
163
100
AcDbEntity
8
0
100
AcDbCircle
10
-136.60354997297134
20
-217.40872536464693
30
0
40
2.5000000000000044
210
0
220
0
230
1
0
CIRCLE
5
164
100
AcDbEntity
8
0
100
AcDbCircle
10
-118.60354997297134
20
-217.40872536464693
30
0
40
2.4999999999999982
210
0
220
0
230
1
0
CIRCLE
5
165
100
AcDbEntity
8
0
100
AcDbCircle
10
-136.60354997297134
20
-228.9087253646469
30
0
40
2.5000000000000067
210
0
220
0
230
1
0
CIRCLE
5
166
100
AcDbEntity
8
0
100
AcDbCircle
10
-118.60354997297134
20
-228.9087253646469
30
0
40
2.4999999999999951
210
0
220
0
230
1
0
CIRCLE
5
167
100
AcDbEntity
8
0
100
AcDbCircle
10
-71.662760729466896
20
-224.47601734896699
30
0
40
2.4999999999999845
210
0
220
0
230
1
0
CIRCLE
5
168
100
AcDbEntity
8
0
100
AcDbCircle
10
-71.662760729466896
20
-238.47601734896699
30
0
40
2.5000000000000027
210
0
220
0
230
1
0
CIRCLE
5
169
100
AcDbEntity
8
0
100
AcDbCircle
10
-190.69658357564441
20
-224.50821563516183
30
0
40
2.5000000000000151
210
0
220
0
230
1
0
CIRCLE
5
170
100
AcDbEntity
8
0
100
AcDbCircle
10
-190.69658357564441
20
-238.5082156351618
30
0
40
2.5000000000000053
210
0
220
0
230
1
0
CIRCLE
5
171
100
AcDbEntity
8
0
100
AcDbCircle
10
-171.76759748861744
20
-192.86825801357986
30
0
40
2.4999999999999916
210
0
220
0
230
1
0
CIRCLE
5
172
100
AcDbEntity
8
0
100
AcDbCircle
10
-159.76759748861747
20
-192.86825801357986
30
0
40
2.5
210
0
220
0
230
1
0
CIRCLE
5
173
100
AcDbEntity
8
0
100
AcDbCircle
10
-102.76759748861744
20
-192.86825801357986
30
0
40
2.4999999999999982
210
0
220
0
230
1
0
CIRCLE
5
174
100
AcDbEntity
8
0
100
AcDbCircle
10
-90.767597488617454
20
-192.86825801357986
30
0
40
2.4999999999999885
210
0
220
0
230
1
0
LINE
5
175
100
AcDbEntity
8
0
100
AcDbLine
10
-176.76759748861744
20
-243.32524527072465
30
0
11
-154.76759748861747
21
-243.32524527072465
31
0
0
CIRCLE
5
176
100
AcDbEntity
8
0
100
AcDbCircle
10
-171.76759748861744
20
-243.32524527072465
30
0
40
1.1000000000000001
210
0
220
0
230
1
0
CIRCLE
5
177
100
AcDbEntity
8
0
100
AcDbCircle
10
-159.76759748861747
20
-243.32524527072465
30
0
40
1.1000000000000001
210
0
220
0
230
1
0
CIRCLE
5
178
100
AcDbEntity
8
0
100
AcDbCircle
10
-171.76759748861744
20
-243.32524527072465
30
0
40
2.4999999999999916
210
0
220
0
230
1
0
CIRCLE
5
179
100
AcDbEntity
8
0
100
AcDbCircle
10
-159.76759748861747
20
-243.32524527072465
30
0
40
2.5
210
0
220
0
230
1
0
CIRCLE
5
180
100
AcDbEntity
8
0
100
AcDbCircle
10
-90.767597488617454
20
-243.32524527072465
30
0
40
2.4999999999999885
210
0
220
0
230
1
0
CIRCLE
5
181
100
AcDbEntity
8
0
100
AcDbCircle
10
-102.76759748861744
20
-243.32524527072465
30
0
40
2.4999999999999982
210
0
220
0
230
1
0
CIRCLE
5
182
100
AcDbEntity
8
0
100
AcDbCircle
10
-90.767597488617454
20
-243.32524527072465
30
0
40
1.1000000000000001
210
0
220
0
230
1
0
LINE
5
183
100
AcDbEntity
8
0
100
AcDbLine
10
-107.76759748861744
20
-243.32524527072465
30
0
11
-85.767597488617454
21
-243.32524527072465
31
0
0
CIRCLE
5
184
100
AcDbEntity
8
0
100
AcDbCircle
10
-102.76759748861744
20
-243.32524527072465
30
0
40
1.1000000000000001
210
0
220
0
230
1
0
ENDSEC
0
SECTION
2
OBJECTS
0
DICTIONARY
5
C
100
AcDbDictionary
3
ACAD_GROUP
350
D
3
ACAD_MLINESTYLE
350
17
0
DICTIONARY
5
D
100
AcDbDictionary
0
DICTIONARY
5
1A
330
C
100
AcDbDictionary
0
DICTIONARY
5
17
100
AcDbDictionary
0
ENDSEC
0
EOF
