                                                                        S      1
,,11HAxe 3 v2 v1,11HAxe 3 v2 v1,7Hunknown,7Hunknown,32,38,7,99,15,,1.,2,G      1
2HMM,1,0.08,15H20201205.181016,0.01,10000.,7Hunknown,7Hunknown,11,0,15H2G      2
0201028.085629;                                                         G      3
     186       1                                                00000000D      1
     186            -151       1       0                               0D      2
     514       2                                                00010000D      3
     514                       2       1                               0D      4
     510       4                                                00010000D      5
     510            -151       1       1                               0D      6
     510       5                                                00010000D      7
     510            -151       1       1                               0D      8
     510       6                                                00010000D      9
     510            -151       1       1                               0D     10
     510       7                                                00010000D     11
     510            -151       1       1                               0D     12
     510       8                                                00010000D     13
     510            -151       1       1                               0D     14
     510       9                                                00010000D     15
     510            -151       1       1                               0D     16
     510      10                                                00010000D     17
     510            -151       1       1                               0D     18
     510      11                                                00010000D     19
     510            -151       1       1                               0D     20
     510      12                                                00010000D     21
     510            -151       1       1                               0D     22
     510      13                                                00010000D     23
     510            -151       1       1                               0D     24
     510      14                                                00010000D     25
     510            -151       1       1                               0D     26
     510      15                                                00010000D     27
     510            -151       1       1                               0D     28
     510      16                                                00010000D     29
     510            -151       1       1                               0D     30
     508      17                                                00010000D     31
     508                       1       1                               0D     32
     508      18                                                00010000D     33
     508                       1       1                               0D     34
     508      19                                                00010000D     35
     508                       1       1                               0D     36
     508      20                                                00010000D     37
     508                       1       1                               0D     38
     508      21                                                00010000D     39
     508                       1       1                               0D     40
     508      22                                                00010000D     41
     508                       1       1                               0D     42
     508      23                                                00010000D     43
     508                       2       1                               0D     44
     508      25                                                00010000D     45
     508                       1       1                               0D     46
     508      26                                                00010000D     47
     508                       1       1                               0D     48
     508      27                                                00010000D     49
     508                       1       1                               0D     50
     508      28                                                00010000D     51
     508                       2       1                               0D     52
     508      30                                                00010000D     53
     508                       1       1                               0D     54
     508      31                                                00010000D     55
     508                       1       1                               0D     56
     508      32                                                00010000D     57
     508                       1       1                               0D     58
     508      33                                                00010000D     59
     508                       1       1                               0D     60
     508      34                                                00010000D     61
     508                       1       1                               0D     62
     508      35                                                00010000D     63
     508                       1       1                               0D     64
     126      36                                                00010000D     65
     126       0               4       0                               0D     66
     126      40                                                00010000D     67
     126       0               2       0                               0D     68
     126      42                                                00010000D     69
     126       0               3       0                               0D     70
     126      45                                                00010000D     71
     126       0               3       0                               0D     72
     126      48                                                00010000D     73
     126       0               4       0                               0D     74
     126      52                                                00010000D     75
     126       0               3       0                               0D     76
     126      55                                                00010000D     77
     126       0               2       0                               0D     78
     126      57                                                00010000D     79
     126       0               4       0                               0D     80
     126      61                                                00010000D     81
     126       0               3       0                               0D     82
     126      64                                                00010000D     83
     126       0               2       0                               0D     84
     126      66                                                00010000D     85
     126       0               4       0                               0D     86
     126      70                                                00010000D     87
     126       0               3       0                               0D     88
     126      73                                                00010000D     89
     126       0               3       0                               0D     90
     126      76                                                00010000D     91
     126       0               4       0                               0D     92
     126      80                                                00010000D     93
     126       0               3       0                               0D     94
     126      83                                                00010000D     95
     126       0               2       0                               0D     96
     126      85                                                00010000D     97
     126       0               4       0                               0D     98
     126      89                                                00010000D     99
     126       0               3       0                               0D    100
     126      92                                                00010000D    101
     126       0              10       0                               0D    102
     126     102                                                00010000D    103
     126       0              10       0                               0D    104
     126     112                                                00010000D    105
     126       0               2       0                               0D    106
     126     114                                                00010000D    107
     126       0              10       0                               0D    108
     126     124                                                00010000D    109
     126       0               2       0                               0D    110
     126     126                                                00010000D    111
     126       0               9       0                               0D    112
     126     135                                                00010000D    113
     126       0               9       0                               0D    114
     126     144                                                00010000D    115
     126       0               2       0                               0D    116
     126     146                                                00010000D    117
     126       0               9       0                               0D    118
     128     155                                                00010000D    119
     128       0    -151       6       0                               0D    120
     128     161                                                00010000D    121
     128       0    -151       6       0                               0D    122
     128     167                                                00010000D    123
     128       0    -151       5       0                               0D    124
     128     172                                                00010000D    125
     128       0    -151       6       0                               0D    126
     128     178                                                00010000D    127
     128       0    -151       6       0                               0D    128
     128     184                                                00010000D    129
     128       0    -151       5       0                               0D    130
     128     189                                                00010000D    131
     128       0    -151       5       0                               0D    132
     128     194                                                00010000D    133
     128       0    -151      12       0                               0D    134
     128     206                                                00010000D    135
     128       0    -151       3       0                               0D    136
     128     209                                                00010000D    137
     128       0    -151      12       0                               0D    138
     128     221                                                00010000D    139
     128       0    -151      11       0                               0D    140
     128     232                                                00010000D    141
     128       0    -151       3       0                               0D    142
     128     235                                                00010000D    143
     128       0    -151       3       0                               0D    144
     502     238                                                00010000D    145
     502                      10       1                               0D    146
     504     248                                                00010001D    147
     504                       8       1                               0D    148
     406     256                                                00000000D    149
     406                       1      15                               0D    150
     314     257                                                00000200D    151
     314                       2       0                               0D    152
     314     259                                                00000200D    153
     314                       2       0                               0D    154
186,3,1,0,0,1,149;                                                     1P      1
514,13,5,1,7,1,9,1,11,1,13,1,15,1,17,1,19,1,21,1,23,1,25,1,27,1,       3P      2
29,1;                                                                  3P      3
510,119,1,1,31;                                                        5P      4
510,121,1,1,33;                                                        7P      5
510,123,1,1,35;                                                        9P      6
510,125,1,1,37;                                                       11P      7
510,127,1,1,39;                                                       13P      8
510,129,1,1,41;                                                       15P      9
510,131,2,1,43,45;                                                    17P     10
510,133,1,1,47;                                                       19P     11
510,135,2,1,49,51;                                                    21P     12
510,137,1,1,53;                                                       23P     13
510,139,1,1,55;                                                       25P     14
510,141,2,1,57,59;                                                    27P     15
510,143,2,1,61,63;                                                    29P     16
508,4,0,147,1,0,0,0,147,2,1,0,0,147,3,0,0,0,147,4,0,0;                31P     17
508,4,0,147,5,0,0,0,147,4,1,0,0,147,6,0,0,0,147,7,0,0;                33P     18
508,4,0,147,8,0,0,0,147,7,1,0,0,147,9,0,0,0,147,10,0,0;               35P     19
508,4,0,147,11,0,0,0,147,10,1,0,0,147,12,0,0,0,147,13,0,0;            37P     20
508,4,0,147,14,0,0,0,147,13,1,0,0,147,15,0,0,0,147,16,0,0;            39P     21
508,4,0,147,17,0,0,0,147,16,1,0,0,147,18,0,0,0,147,2,0,0;             41P     22
508,6,0,147,18,1,0,0,147,15,1,0,0,147,12,1,0,0,147,9,1,0,0,147,       43P     23
6,1,0,0,147,3,1,0;                                                    43P     24
508,1,0,147,19,1,0;                                                   45P     25
508,4,0,147,20,0,0,0,147,21,1,0,0,147,22,0,0,0,147,21,0,0;            47P     26
508,1,0,147,20,1,0;                                                   49P     27
508,6,0,147,1,1,0,0,147,5,1,0,0,147,8,1,0,0,147,11,1,0,0,147,14,      51P     28
1,0,0,147,17,1,0;                                                     51P     29
508,4,0,147,19,0,0,0,147,23,1,0,0,147,24,1,0,0,147,23,0,0;            53P     30
508,4,0,147,25,0,0,0,147,26,1,0,0,147,27,1,0,0,147,26,0,0;            55P     31
508,1,0,147,25,1,0;                                                   57P     32
508,1,0,147,22,1,0;                                                   59P     33
508,1,0,147,27,0,0;                                                   61P     34
508,1,0,147,24,0,0;                                                   63P     35
126,1,1,0,0,1,0,-0.294448637286709,-0.294448637286709,                65P     36
0.0981495457622364,0.0981495457622364,1.,1.,1.96299091524473,         65P     37
3.4,8.2,3.92598183048946,-2.22044604925031D-15,8.2,                   65P     38
-0.294448637286709,0.0981495457622364,0.,0.,0.;                       65P     39
126,1,1,0,0,1,0,0.,0.,1.,1.,1.,1.,1.96299091524473,3.4,8.2,           67P     40
1.96299091524473,3.4,18.2,0.,1.,0.,0.,0.;                             67P     41
126,1,1,0,0,1,0,0.,0.,0.392598183048945,0.392598183048945,1.,1.,      69P     42
3.92598183048946,-2.18141477104083D-15,18.2,1.96299091524473,         69P     43
3.4,18.2,0.,0.392598183048945,0.,0.,0.;                               69P     44
126,1,1,0,0,1,0,0.,0.,1.,1.,1.,1.,3.92598183048946,                   71P     45
-2.18141477104083D-15,8.2,3.92598183048946,                           71P     46
-2.18141477104083D-15,18.2,0.,1.,0.,0.,0.;                            71P     47
126,1,1,0,0,1,0,-0.294448637286709,-0.294448637286709,                73P     48
0.0981495457622363,0.0981495457622363,1.,1.,3.92598183048946,         73P     49
-1.66533453693773D-15,8.2,1.96299091524473,-3.4,8.2,                  73P     50
-0.294448637286709,0.0981495457622363,0.,0.,0.;                       73P     51
126,1,1,0,0,1,0,0.,0.,0.392598183048945,0.392598183048945,1.,1.,      75P     52
1.96299091524473,-3.4,18.2,3.92598183048946,                          75P     53
-2.22044604925031D-15,18.2,0.,0.392598183048945,0.,0.,0.;             75P     54
126,1,1,0,0,1,0,0.,0.,1.,1.,1.,1.,1.96299091524473,-3.4,8.2,          77P     55
1.96299091524473,-3.4,18.2,0.,1.,0.,0.,0.;                            77P     56
126,1,1,0,0,1,0,-0.294448637286709,-0.294448637286709,                79P     57
0.0981495457622364,0.0981495457622364,1.,1.,1.96299091524473,         79P     58
-3.4,8.2,-1.96299091524473,-3.4,8.2,-0.294448637286709,               79P     59
0.0981495457622364,0.,0.,0.;                                          79P     60
126,1,1,0,0,1,0,0.,0.,0.392598183048946,0.392598183048946,1.,1.,      81P     61
-1.96299091524473,-3.4,18.2,1.96299091524473,-3.4,18.2,0.,            81P     62
0.392598183048946,0.,0.,0.;                                           81P     63
126,1,1,0,0,1,0,0.,0.,1.,1.,1.,1.,-1.96299091524473,-3.4,8.2,         83P     64
-1.96299091524473,-3.4,18.2,0.,1.,0.,0.,0.;                           83P     65
126,1,1,0,0,1,0,-0.294448637286709,-0.294448637286709,                85P     66
0.0981495457622363,0.0981495457622363,1.,1.,-1.96299091524473,        85P     67
-3.4,8.2,-3.92598183048945,8.32667268468867D-16,8.2,                  85P     68
-0.294448637286709,0.0981495457622363,0.,0.,0.;                       85P     69
126,1,1,0,0,1,0,0.,0.,0.392598183048946,0.392598183048946,1.,1.,      87P     70
-3.92598183048945,8.95550994473027D-16,18.2,-1.96299091524473,        87P     71
-3.4,18.2,0.,0.392598183048946,0.,0.,0.;                              87P     72
126,1,1,0,0,1,0,0.,0.,1.,1.,1.,1.,-3.92598183048945,                  89P     73
8.95550994473027D-16,8.2,-3.92598183048945,8.95550994473027D-16,      89P     74
18.2,0.,1.,0.,0.,0.;                                                  89P     75
126,1,1,0,0,1,0,-0.294448637286709,-0.294448637286709,                91P     76
0.0981495457622364,0.0981495457622364,1.,1.,-3.92598183048945,        91P     77
1.11022302462516D-15,8.2,-1.96299091524473,3.4,8.2,                   91P     78
-0.294448637286709,0.0981495457622364,0.,0.,0.;                       91P     79
126,1,1,0,0,1,0,0.,0.,0.392598183048945,0.392598183048945,1.,1.,      93P     80
-1.96299091524473,3.4,18.2,-3.92598183048945,                         93P     81
1.11022302462516D-15,18.2,0.,0.392598183048945,0.,0.,0.;              93P     82
126,1,1,0,0,1,0,0.,0.,1.,1.,1.,1.,-1.96299091524473,3.4,8.2,          95P     83
-1.96299091524473,3.4,18.2,0.,1.,0.,0.,0.;                            95P     84
126,1,1,0,0,1,0,-0.294448637286709,-0.294448637286709,                97P     85
0.0981495457622364,0.0981495457622364,1.,1.,-1.96299091524473,        97P     86
3.4,8.2,1.96299091524473,3.4,8.2,-0.294448637286709,                  97P     87
0.0981495457622364,0.,0.,0.;                                          97P     88
126,1,1,0,0,1,0,0.,0.,0.392598183048946,0.392598183048946,1.,1.,      99P     89
1.96299091524473,3.4,18.2,-1.96299091524473,3.4,18.2,0.,              99P     90
0.392598183048946,0.,0.,0.;                                           99P     91
126,8,2,0,1,0,0,-3.14159265358979,-3.14159265358979,                 101P     92
-3.14159265358979,-1.5707963267949,-1.5707963267949,0.,0.,           101P     93
1.5707963267949,1.5707963267949,3.14159265358979,                    101P     94
3.14159265358979,3.14159265358979,1.,0.707106781186548,1.,           101P     95
0.707106781186548,1.,0.707106781186548,1.,0.707106781186548,1.,      101P     96
-2.1,2.57175827820944D-16,18.2,-2.1,2.1,18.2,                        101P     97
1.28587913910472D-16,2.1,18.2,2.1,2.1,18.2,2.1,0.,18.2,2.1,-2.1,     101P     98
18.2,1.28587913910472D-16,-2.1,18.2,-2.1,-2.1,18.2,-2.1,             101P     99
-2.57175827820944D-16,18.2,-3.14159265358979,3.14159265358979,       101P    100
0.,0.,0.;                                                            101P    101
126,8,2,0,1,0,0,-3.14159265358979,-3.14159265358979,                 103P    102
-3.14159265358979,-1.5707963267949,-1.5707963267949,0.,0.,           103P    103
1.5707963267949,1.5707963267949,3.14159265358979,                    103P    104
3.14159265358979,3.14159265358979,1.,0.707106781186548,1.,           103P    105
0.707106781186548,1.,0.707106781186548,1.,0.707106781186548,1.,      103P    106
-6.05,-7.40911313484149D-16,8.2,-6.05,-6.05,8.2,                     103P    107
3.70455656742074D-16,-6.05,8.2,6.05,-6.05,8.2,6.05,0.,8.2,6.05,      103P    108
6.05,8.2,3.70455656742074D-16,6.05,8.2,-6.05,6.05,8.2,-6.05,         103P    109
7.40911313484149D-16,8.2,-3.14159265358979,3.14159265358979,0.,      103P    110
0.,0.;                                                               103P    111
126,1,1,0,0,1,0,-1.32231404958678,-1.32231404958678,0.,0.,1.,1.,     105P    112
-6.05,0.,8.2,-6.05,0.,0.2,-1.32231404958678,0.,0.,0.,0.;             105P    113
126,8,2,0,1,0,0,-3.14159265358979,-3.14159265358979,                 107P    114
-3.14159265358979,-1.5707963267949,-1.5707963267949,0.,0.,           107P    115
1.5707963267949,1.5707963267949,3.14159265358979,                    107P    116
3.14159265358979,3.14159265358979,1.,0.707106781186548,1.,           107P    117
0.707106781186548,1.,0.707106781186548,1.,0.707106781186548,1.,      107P    118
-6.05,7.40911313484149D-16,0.2,-6.05,6.05,0.2,                       107P    119
3.70455656742074D-16,6.05,0.2,6.05,6.05,0.2,6.05,0.,0.2,6.05,        107P    120
-6.05,0.2,3.70455656742074D-16,-6.05,0.2,-6.05,-6.05,0.2,-6.05,      107P    121
-7.40911313484149D-16,0.2,-3.14159265358979,3.14159265358979,0.,     107P    122
0.,0.;                                                               107P    123
126,1,1,0,0,1,0,-8.66666666666667,-8.66666666666667,0.,0.,1.,1.,     109P    124
-2.1,0.,18.2,-2.1,0.,0.,-8.66666666666667,0.,0.,0.,0.;               109P    125
126,8,2,0,1,0,0,-3.14159265358979,-3.14159265358979,                 111P    126
-3.14159265358979,-1.5707963267949,-1.5707963267949,0.,0.,           111P    127
1.5707963267949,1.5707963267949,3.14159265358979,                    111P    128
3.14159265358979,3.14159265358979,1.,0.707106781186548,1.,           111P    129
0.707106781186548,1.,0.707106781186548,1.,0.707106781186548,1.,      111P    130
-2.1,2.57175827820944D-16,0.,-2.1,2.1,0.,1.28587913910472D-16,       111P    131
2.1,0.,2.1,2.1,0.,2.1,0.,0.,2.1,-2.1,0.,1.28587913910472D-16,        111P    132
-2.1,0.,-2.1,-2.1,0.,-2.1,-2.57175827820944D-16,0.,                  111P    133
-3.14159265358979,3.14159265358979,0.,0.,0.;                         111P    134
126,8,2,0,1,0,0,-3.14159265358979,-3.14159265358979,                 113P    135
-3.14159265358979,-1.5707963267949,-1.5707963267949,0.,0.,           113P    136
1.5707963267949,1.5707963267949,3.14159265358979,                    113P    137
3.14159265358979,3.14159265358979,1.,0.707106781186548,1.,           113P    138
0.707106781186548,1.,0.707106781186548,1.,0.707106781186548,1.,      113P    139
-8.,-9.79717439317883D-16,0.2,-8.,-8.,0.2,4.89858719658941D-16,      113P    140
-8.,0.2,8.,-8.,0.2,8.,0.,0.2,8.,8.,0.2,4.89858719658941D-16,8.,      113P    141
0.2,-8.,8.,0.2,-8.,9.79717439317883D-16,0.2,-3.14159265358979,       113P    142
3.14159265358979,0.,0.,0.;                                           113P    143
126,1,1,0,0,1,0,-0.025,-0.025,0.,0.,1.,1.,-8.,0.,0.2,-8.,0.,0.,      115P    144
-0.025,0.,0.,0.,0.;                                                  115P    145
126,8,2,0,1,0,0,-3.14159265358979,-3.14159265358979,                 117P    146
-3.14159265358979,-1.5707963267949,-1.5707963267949,0.,0.,           117P    147
1.5707963267949,1.5707963267949,3.14159265358979,                    117P    148
3.14159265358979,3.14159265358979,1.,0.707106781186548,1.,           117P    149
0.707106781186548,1.,0.707106781186548,1.,0.707106781186548,1.,      117P    150
-8.,-9.79717439317883D-16,0.,-8.,-8.,0.,4.89858719658941D-16,        117P    151
-8.,0.,8.,-8.,0.,8.,0.,0.,8.,8.,0.,4.89858719658941D-16,8.,0.,       117P    152
-8.,8.,0.,-8.,9.79717439317883D-16,0.,-3.14159265358979,             117P    153
3.14159265358979,0.,0.,0.;                                           117P    154
128,1,1,1,1,0,0,1,0,0,-0.001,-0.001,0.393598183048946,               119P    155
0.393598183048946,-0.001,-0.001,1.001,1.001,1.,1.,1.,1.,             119P    156
3.93098183048946,-0.00866025403784659,8.19,1.95799091524473,         119P    157
3.40866025403784,8.19,3.93098183048946,-0.00866025403784659,         119P    158
18.21,1.95799091524473,3.40866025403784,18.21,-0.001,                119P    159
0.393598183048946,-0.001,1.001;                                      119P    160
128,1,1,1,1,0,0,1,0,0,-0.001,-0.001,0.393598183048946,               121P    161
0.393598183048946,-0.001,-0.001,1.001,1.001,1.,1.,1.,1.,             121P    162
1.95799091524473,-3.40866025403785,8.19,3.93098183048946,            121P    163
0.00866025403784332,8.19,1.95799091524473,-3.40866025403785,         121P    164
18.21,3.93098183048946,0.00866025403784332,18.21,-0.001,             121P    165
0.393598183048946,-0.001,1.001;                                      121P    166
128,1,1,1,1,0,0,1,0,0,-0.001,-0.001,0.393598183048946,               123P    167
0.393598183048946,-0.001,-0.001,1.001,1.001,1.,1.,1.,1.,             123P    168
-1.97299091524473,-3.4,8.19,1.97299091524473,-3.4,8.19,              123P    169
-1.97299091524473,-3.4,18.21,1.97299091524473,-3.4,18.21,-0.001,     123P    170
0.393598183048946,-0.001,1.001;                                      123P    171
128,1,1,1,1,0,0,1,0,0,-0.001,-0.001,0.393598183048946,               125P    172
0.393598183048946,-0.001,-0.001,1.001,1.001,1.,1.,1.,1.,             125P    173
-3.93098183048945,0.00866025403784529,8.19,-1.95799091524473,        125P    174
-3.40866025403785,8.19,-3.93098183048945,0.00866025403784529,        125P    175
18.21,-1.95799091524473,-3.40866025403785,18.21,-0.001,              125P    176
0.393598183048946,-0.001,1.001;                                      125P    177
128,1,1,1,1,0,0,1,0,0,-0.00100000000000003,-0.00100000000000003,     127P    178
0.393598183048945,0.393598183048945,-0.001,-0.001,1.001,1.001,       127P    179
1.,1.,1.,1.,-1.95799091524473,3.40866025403785,8.19,                 127P    180
-3.93098183048945,-0.00866025403784332,8.19,-1.95799091524473,       127P    181
3.40866025403785,18.21,-3.93098183048946,-0.00866025403784332,       127P    182
18.21,-0.00100000000000003,0.393598183048945,-0.001,1.001;           127P    183
128,1,1,1,1,0,0,1,0,0,-0.001,-0.001,0.393598183048946,               129P    184
0.393598183048946,-0.001,-0.001,1.001,1.001,1.,1.,1.,1.,             129P    185
1.97299091524473,3.4,8.19,-1.97299091524473,3.4,8.19,                129P    186
1.97299091524473,3.4,18.21,-1.97299091524473,3.4,18.21,-0.001,       129P    187
0.393598183048946,-0.001,1.001;                                      129P    188
128,1,1,1,1,0,0,1,0,0,-0.393598183048946,-0.393598183048946,         131P    189
0.393598183048946,0.393598183048946,-0.341,-0.341,0.341,0.341,       131P    190
1.,1.,1.,1.,-3.93598183048945,-3.41,18.2,3.93598183048946,-3.41,     131P    191
18.2,-3.93598183048945,3.41,18.2,3.93598183048946,3.41,18.2,         131P    192
-0.393598183048946,0.393598183048946,-0.341,0.341;                   131P    193
128,1,8,1,2,0,1,0,0,1,0.,0.,1.32231404958678,1.32231404958678,       133P    194
-3.14159265358979,-3.14159265358979,-3.14159265358979,               133P    195
-1.5707963267949,-1.5707963267949,0.,0.,1.5707963267949,             133P    196
1.5707963267949,3.14159265358979,3.14159265358979,                   133P    197
3.14159265358979,1.,1.,0.707106781186548,0.707106781186548,1.,       133P    198
1.,0.707106781186548,0.707106781186548,1.,1.,0.707106781186548,      133P    199
0.707106781186548,1.,1.,0.707106781186548,0.707106781186548,1.,      133P    200
1.,-6.05,0.,8.2,-6.05,0.,0.2,-6.05,-6.05,8.2,-6.05,-6.05,0.2,0.,     133P    201
-6.05,8.2,0.,-6.05,0.2,6.05,-6.05,8.2,6.05,-6.05,0.2,6.05,0.,        133P    202
8.2,6.05,0.,0.2,6.05,6.05,8.2,6.05,6.05,0.2,0.,6.05,8.2,0.,6.05,     133P    203
0.2,-6.05,6.05,8.2,-6.05,6.05,0.2,-6.05,0.,8.2,-6.05,0.,0.2,0.,      133P    204
1.32231404958678,-3.14159265358979,3.14159265358979;                 133P    205
128,1,1,1,1,0,0,1,0,0,-0.606,-0.606,0.606,0.606,-0.606,-0.606,       135P    206
0.606,0.606,1.,1.,1.,1.,-6.06,-6.06,8.2,6.06,-6.06,8.2,-6.06,        135P    207
6.06,8.2,6.06,6.06,8.2,-0.606,0.606,-0.606,0.606;                    135P    208
128,1,8,1,2,0,1,0,0,1,0.,0.,8.66666666666667,8.66666666666667,       137P    209
-3.14159265358979,-3.14159265358979,-3.14159265358979,               137P    210
-1.5707963267949,-1.5707963267949,0.,0.,1.5707963267949,             137P    211
1.5707963267949,3.14159265358979,3.14159265358979,                   137P    212
3.14159265358979,1.,1.,0.707106781186548,0.707106781186548,1.,       137P    213
1.,0.707106781186548,0.707106781186548,1.,1.,0.707106781186548,      137P    214
0.707106781186548,1.,1.,0.707106781186548,0.707106781186548,1.,      137P    215
1.,-2.1,0.,0.,-2.1,0.,18.2,-2.1,-2.1,0.,-2.1,-2.1,18.2,0.,-2.1,      137P    216
0.,0.,-2.1,18.2,2.1,-2.1,0.,2.1,-2.1,18.2,2.1,0.,0.,2.1,0.,18.2,     137P    217
2.1,2.1,0.,2.1,2.1,18.2,0.,2.1,0.,0.,2.1,18.2,-2.1,2.1,0.,-2.1,      137P    218
2.1,18.2,-2.1,0.,0.,-2.1,0.,18.2,0.,8.66666666666667,                137P    219
-3.14159265358979,3.14159265358979;                                  137P    220
128,1,8,1,2,0,1,0,0,1,0.,0.,0.025,0.025,-3.14159265358979,           139P    221
-3.14159265358979,-3.14159265358979,-1.5707963267949,                139P    222
-1.5707963267949,0.,0.,1.5707963267949,1.5707963267949,              139P    223
3.14159265358979,3.14159265358979,3.14159265358979,1.,1.,            139P    224
0.707106781186548,0.707106781186548,1.,1.,0.707106781186548,         139P    225
0.707106781186548,1.,1.,0.707106781186548,0.707106781186548,1.,      139P    226
1.,0.707106781186548,0.707106781186548,1.,1.,-8.,0.,0.2,-8.,0.,      139P    227
0.,-8.,-8.,0.2,-8.,-8.,0.,0.,-8.,0.2,0.,-8.,0.,8.,-8.,0.2,8.,        139P    228
-8.,0.,8.,0.,0.2,8.,0.,0.,8.,8.,0.2,8.,8.,0.,0.,8.,0.2,0.,8.,0.,     139P    229
-8.,8.,0.2,-8.,8.,0.,-8.,0.,0.2,-8.,0.,0.,0.,0.025,                  139P    230
-3.14159265358979,3.14159265358979;                                  139P    231
128,1,1,1,1,0,0,1,0,0,-0.801,-0.801,0.801,0.801,-0.801,-0.801,       141P    232
0.801,0.801,1.,1.,1.,1.,-8.01,-8.01,0.2,8.01,-8.01,0.2,-8.01,        141P    233
8.01,0.2,8.01,8.01,0.2,-0.801,0.801,-0.801,0.801;                    141P    234
128,1,1,1,1,0,0,1,0,0,-0.801,-0.801,0.801,0.801,-0.801,-0.801,       143P    235
0.801,0.801,1.,1.,1.,1.,8.01,-8.01,0.,-8.01,-8.01,0.,8.01,8.01,      143P    236
0.,-8.01,8.01,0.,-0.801,0.801,-0.801,0.801;                          143P    237
502,18,1.96299091524473,3.4,8.2,3.92598183048946,                    145P    238
-2.18141477104083D-15,8.2,1.96299091524473,3.4,18.2,                 145P    239
3.92598183048946,-2.18141477104083D-15,18.2,1.96299091524473,        145P    240
-3.4,8.2,1.96299091524473,-3.4,18.2,-1.96299091524473,-3.4,8.2,      145P    241
-1.96299091524473,-3.4,18.2,-3.92598183048945,                       145P    242
8.95550994473027D-16,8.2,-3.92598183048945,8.95550994473026D-16,     145P    243
18.2,-1.96299091524473,3.4,8.2,-1.96299091524473,3.4,18.2,-2.1,      145P    244
-2.57175827820944D-16,18.2,-6.05,-7.40911313484149D-16,8.2,          145P    245
-6.05,-7.40911313484149D-16,0.2,-2.1,-2.57175827820944D-16,0.,       145P    246
-8.,-9.79717439317883D-16,0.2,-8.,-9.79717439317883D-16,0.;          145P    247
504,27,65,145,1,145,2,67,145,1,145,3,69,145,4,145,3,71,145,2,        147P    248
145,4,73,145,2,145,5,75,145,6,145,4,77,145,5,145,6,79,145,5,145,     147P    249
7,81,145,8,145,6,83,145,7,145,8,85,145,7,145,9,87,145,10,145,8,      147P    250
89,145,9,145,10,91,145,9,145,11,93,145,12,145,10,95,145,11,145,      147P    251
12,97,145,11,145,1,99,145,3,145,12,101,145,13,145,13,103,145,14,     147P    252
145,14,105,145,14,145,15,107,145,15,145,15,109,145,13,145,16,        147P    253
111,145,16,145,16,113,145,17,145,17,115,145,17,145,18,117,145,       147P    254
18,145,18;                                                           147P    255
406,1,5HAxe 3;                                                       149P    256
314,90.9803921568627,67.843137254902,13.7254901960784,30HPaint -     151P    257
 Enamel Glossy (Yellow);                                             151P    258
314,62.7450980392157,62.7450980392157,62.7450980392157,13HSteel      153P    259
- Satin;                                                             153P    260
S      1G      3D    154P    260                                        T      1
