0
SECTION
2
HEADER
9
$INSUNITS
70
4
9
$ACADVER
1
AC1014
9
$HANDSEED
5
FFFF
0
ENDSEC
0
SECTION
2
TABLES
0
TABLE
2
VPORT
5
8
100
AcDbSymbolTable
0
ENDTAB
0
TABLE
2
LTYPE
5
5
100
AcDbSymbolTable
0
LTYPE
5
14
100
AcDbSymbolTableRecord
100
AcDbLinetypeTableRecord
2
BYBLOCK
70
0
0
LTYPE
5
15
100
AcDbSymbolTableRecord
100
AcDbLinetypeTableRecord
2
BYLAYER
70
0
0
ENDTAB
0
TABLE
2
LAYER
5
2
100
AcDbSymbolTable
70
2
0
LAYER
5
50
100
AcDbSymbolTableRecord
100
AcDbLayerTableRecord
2
0
70
0
6
CONTINUOUS
0
ENDTAB
0
TABLE
2
STYLE
5
3
100
AcDbSymbolTable
70
1
0
STYLE
5
11
100
AcDbSymbolTableRecord
100
AcDbTextStyleTableRecord
2
STANDARD
70
0
0
ENDTAB
0
TABLE
2
VIEW
5
6
100
AcDbSymbolTable
70
0
0
ENDTAB
0
TABLE
2
UCS
5
7
100
AcDbSymbolTable
70
0
0
ENDTAB
0
TABLE
2
APPID
5
9
100
AcDbSymbolTable
70
2
0
APPID
5
12
100
AcDbSymbolTableRecord
100
AcDbRegAppTableRecord
2
ACAD
70
0
0
ENDTAB
0
TABLE
2
DIMSTYLE
5
A
100
AcDbSymbolTable
70
1
0
ENDTAB
0
TABLE
2
BLOCK_RECORD
5
1
100
AcDbSymbolTable
70
1
0
BLOCK_RECORD
5
1F
100
AcDbSymbolTableRecord
100
AcDbBlockTableRecord
2
*MODEL_SPACE
0
BLOCK_RECORD
5
1B
100
AcDbSymbolTableRecord
100
AcDbBlockTableRecord
2
*PAPER_SPACE
0
ENDTAB
0
ENDSEC
0
SECTION
2
BLOCKS
0
BLOCK
5
20
100
AcDbEntity
100
AcDbBlockBegin
2
*MODEL_SPACE
0
ENDBLK
5
21
100
AcDbEntity
100
AcDbBlockEnd
0
BLOCK
5
1C
100
AcDbEntity
100
AcDbBlockBegin
2
*PAPER_SPACE
0
ENDBLK
5
1D
100
AcDbEntity
100
AcDbBlockEnd
0
ENDSEC
0
SECTION
2
ENTITIES
0
CIRCLE
5
100
100
AcDbEntity
8
0
100
AcDbCircle
10
36.999999999999979
20
-5.5193956678110379
30
0
40
2.1000000000000045
210
0
220
0
230
1
0
CIRCLE
5
101
100
AcDbEntity
8
0
100
AcDbCircle
10
1.2746843539071293e-14
20
-42.519395667811054
30
0
40
2.1000000000000041
210
9.8607613152626476e-32
220
1.2075949781892247e-47
230
1
0
CIRCLE
5
102
100
AcDbEntity
8
0
100
AcDbCircle
10
3.6844572253810108e-15
20
31.480604332189102
30
0
40
2.1000000000000041
210
9.8607613152626476e-32
220
1.2075949781892247e-47
230
1
0
CIRCLE
5
103
100
AcDbEntity
8
0
100
AcDbCircle
10
-36.999999999999979
20
-5.5193956678109179
30
1.7763568394002505e-14
40
2.1000000000000045
210
0
220
0
230
1
0
LWPOLYLINE
5
104
100
AcDbEntity
8
0
100
AcDbPolyline
90
64
70
1
43
0.0
10
83.42852718455795
20
-39.264828966208555
10
82.854502036010842
20
-40.6506482649757
10
34.545053078539311
20
-20.640219316042341
42
0.37796447300924424
10
29.539127838650874
20
-22.355069890480117
42
-0.13448776301377627
10
16.835674222693587
20
-35.058523506447919
42
0.37796447300922864
10
15.120823648260085
20
-40.064448746337675
10
35.13125259723207
20
-88.373897703793517
10
33.745433298465372
20
-88.947922852341677
10
13.735004349494123
20
-40.638473894885706
42
0.37796447300923586
10
8.9826981963496166
20
-38.311332681554219
42
-0.015002615191862649
10
7.0000000000000195
20
-38.791005187039325
10
7.0000000000000071
20
-45.519395667811089
10
-6.9999999999999831
20
-45.519395667811047
10
-7.0000000000000266
20
-38.791005187039289
42
-0.015002615191653881
10
-8.982698196322243
20
-38.31133268156168
42
0.37796447300922592
10
-13.735004349464738
20
-40.638473894897025
10
-33.745433298397344
20
-88.947922852369103
10
-35.131252597164476
20
-88.373897703821967
10
-15.120823648231262
20
-40.064448746350372
42
0.3779644730092297
10
-16.835674222668775
20
-35.058523506461945
42
-0.13448776301377866
10
-29.539127838636837
20
-22.355069890504549
42
0.37796447300922581
10
-34.545053078526557
20
-20.640219316071025
10
-82.854502035982222
20
-40.650648265042975
10
-83.428527184530424
20
-39.264828966276283
10
-35.11907822707461
20
-19.25440001730508
42
0.37796447300923702
10
-32.79193701374313
20
-14.502093864160553
42
-0.015002615191862649
10
-33.271609519228235
20
-12.51939566781096
10
-39.999999999999979
20
-12.519395667810933
10
-39.999999999999979
20
1.4806043321891036
10
-33.271609519228235
20
1.4806043321891182
42
-0.015002615191653881
10
-32.791937013750626
20
3.4633025285113312
42
0.37796447300922847
10
-35.119078227085943
20
8.2156086816538654
10
-83.42852718455795
20
28.226037630586628
10
-82.854502036010842
20
29.611856929353749
10
-34.545053078539304
20
9.6014279804203877
42
0.37796447300924513
10
-29.539127838650863
20
11.316278554858172
42
-0.13448776301377605
10
-16.835674222693584
20
24.019732170825954
42
0.3779644730092287
10
-15.120823648260075
20
29.025657410715702
10
-35.131252597232063
20
77.335106368171552
10
-33.745433298465358
20
77.909131516719711
10
-13.735004349494117
20
29.599682559263734
42
0.37796447300923958
10
-8.9826981963496042
20
27.272541345932261
42
-0.015002615191862649
10
-7.0000000000000062
20
27.752213851417366
10
-6.9999999999999938
20
34.480604332189117
10
7.0000000000000009
20
34.480604332189102
10
6.999999999999968
20
27.752213851417334
42
-0.015002615191654325
10
8.9826981963222465
20
27.272541345939715
42
0.37796447300922581
10
13.735004349464749
20
29.59968255927506
10
33.745433298397352
20
77.909131516747152
10
35.13125259716449
20
77.335106368200002
10
15.120823648231278
20
29.025657410728417
42
0.37796447300923097
10
16.835674222668789
20
24.019732170839973
42
-0.13448776301377841
10
29.539127838636826
20
11.316278554882599
42
0.37796447300922714
10
34.545053078526557
20
9.6014279804490812
10
82.854502035982236
20
29.61185692942103
10
83.428527184530424
20
28.226037630654339
10
35.119078227074624
20
8.2156086816831237
42
0.37796447300922936
10
32.79193701374308
20
3.4633025285387724
42
-0.015002615191864093
10
33.271609519228235
20
1.4806043321889915
10
39.999999999999979
20
1.4806043321889728
10
39.999999999999979
20
-12.519395667811056
10
33.271609519228228
20
-12.519395667811137
42
-0.015002615191653437
10
32.791937013750626
20
-14.50209386413329
42
0.37796447300922853
10
35.11907822708595
20
-19.25440001727582
0
CIRCLE
5
105
100
AcDbEntity
8
0
100
AcDbCircle
10
-9.9888022329742793e-31
20
-5.5193956678109846
30
0
40
39.999999999999979
210
0
220
0
230
1
0
CIRCLE
5
106
100
AcDbEntity
8
0
100
AcDbCircle
10
-9.9888022329742793e-31
20
-5.5193956678109846
30
0
40
34
210
0
220
0
230
1
0
CIRCLE
5
107
100
AcDbEntity
8
0
100
AcDbCircle
10
3.6844572253810108e-15
20
31.480604332189102
30
0
40
2.100000000000005
210
0
220
0
230
1
0
CIRCLE
5
108
100
AcDbEntity
8
0
100
AcDbCircle
10
36.999999999999979
20
-5.5193956678110379
30
0
40
2.1000000000000041
210
0
220
0
230
1
0
CIRCLE
5
109
100
AcDbEntity
8
0
100
AcDbCircle
10
-36.999999999999979
20
-5.5193956678109179
30
1.7763568394002505e-14
40
2.1000000000000041
210
0
220
0
230
1
0
CIRCLE
5
110
100
AcDbEntity
8
0
100
AcDbCircle
10
1.2746843539071293e-14
20
-42.519395667811054
30
0
40
2.1000000000000041
210
0
220
0
230
1
0
ENDSEC
0
SECTION
2
OBJECTS
0
DICTIONARY
5
C
100
AcDbDictionary
3
ACAD_GROUP
350
D
3
ACAD_MLINESTYLE
350
17
0
DICTIONARY
5
D
100
AcDbDictionary
0
DICTIONARY
5
1A
330
C
100
AcDbDictionary
0
DICTIONARY
5
17
100
AcDbDictionary
0
ENDSEC
0
EOF
