                                                                        S      1
,,21HTest diametre tube v1,21HTest diametre tube v1,7Hunknown,7Hunknown,G      1
32,38,7,99,15,,1.,2,2HMM,1,0.08,15H20201205.181811,0.01,10000.,7HunknownG      2
,7Hunknown,11,0,15H20200324.125654;                                     G      3
     186       1                                                00000000D      1
     186             -73       1       0                               0D      2
     514       2                                                00010000D      3
     514                       1       1                               0D      4
     510       3                                                00010000D      5
     510             -73       1       1                               0D      6
     510       4                                                00010000D      7
     510             -73       1       1                               0D      8
     510       5                                                00010000D      9
     510             -73       1       1                               0D     10
     510       6                                                00010000D     11
     510             -73       1       1                               0D     12
     510       7                                                00010000D     13
     510             -73       1       1                               0D     14
     510       8                                                00010000D     15
     510             -73       1       1                               0D     16
     508       9                                                00010000D     17
     508                       1       1                               0D     18
     508      10                                                00010000D     19
     508                       1       1                               0D     20
     508      11                                                00010000D     21
     508                       1       1                               0D     22
     508      12                                                00010000D     23
     508                       1       1                               0D     24
     508      13                                                00010000D     25
     508                       1       1                               0D     26
     508      14                                                00010000D     27
     508                       1       1                               0D     28
     508      15                                                00010000D     29
     508                       1       1                               0D     30
     508      16                                                00010000D     31
     508                       1       1                               0D     32
     508      17                                                00010000D     33
     508                       1       1                               0D     34
     126      18                                                00010000D     35
     126       0              10       0                               0D     36
     126      28                                                00010000D     37
     126       0               2       0                               0D     38
     126      30                                                00010000D     39
     126       0              10       0                               0D     40
     126      40                                                00010000D     41
     126       0               6       0                               0D     42
     126      46                                                00010000D     43
     126       0               5       0                               0D     44
     126      51                                                00010000D     45
     126       0              10       0                               0D     46
     126      61                                                00010000D     47
     126       0               2       0                               0D     48
     126      63                                                00010000D     49
     126       0              10       0                               0D     50
     126      73                                                00010000D     51
     126       0               2       0                               0D     52
     126      75                                                00010000D     53
     126       0              10       0                               0D     54
     128      85                                                00010000D     55
     128       0     -73      12       0                               0D     56
     128      97                                                00010000D     57
     128       0     -73       3       0                               0D     58
     128     100                                                00010000D     59
     128       0     -73      12       0                               0D     60
     128     112                                                00010000D     61
     128       0     -73      12       0                               0D     62
     128     124                                                00010000D     63
     128       0     -73       3       0                               0D     64
     128     127                                                00010000D     65
     128       0     -73       3       0                               0D     66
     502     130                                                00010000D     67
     502                       4       1                               0D     68
     504     134                                                00010001D     69
     504                       3       1                               0D     70
     406     137                                                00000000D     71
     406                       1      15                               0D     72
     314     138                                                00000200D     73
     314                       2       0                               0D     74
186,3,1,0,0,1,71;                                                      1P      1
514,6,5,1,7,1,9,1,11,1,13,1,15,1;                                      3P      2
510,55,1,1,17;                                                         5P      3
510,57,2,1,19,21;                                                      7P      4
510,59,1,1,23;                                                         9P      5
510,61,1,1,25;                                                        11P      6
510,63,2,1,27,29;                                                     13P      7
510,65,2,1,31,33;                                                     15P      8
508,4,0,69,1,0,0,0,69,2,1,0,0,69,3,0,0,0,69,2,0,0;                    17P      9
508,2,0,69,4,1,0,0,69,5,1,0;                                          19P     10
508,1,0,69,1,1,0;                                                     21P     11
508,4,0,69,6,0,0,0,69,7,1,0,0,69,8,1,0,0,69,7,0,0;                    23P     12
508,5,0,69,4,0,0,0,69,5,0,0,0,69,9,1,0,0,69,10,1,0,0,69,9,0,0;        25P     13
508,1,0,69,3,1,0;                                                     27P     14
508,1,0,69,6,1,0;                                                     29P     15
508,1,0,69,10,0,0;                                                    31P     16
508,1,0,69,8,0,0;                                                     33P     17
126,8,2,0,1,0,0,-3.14159265358979,-3.14159265358979,                  35P     18
-3.14159265358979,-1.5707963267949,-1.5707963267949,0.,0.,            35P     19
1.5707963267949,1.5707963267949,3.14159265358979,                     35P     20
3.14159265358979,3.14159265358979,1.,0.707106781186548,1.,            35P     21
0.707106781186548,1.,0.707106781186548,1.,0.707106781186548,1.,       35P     22
5.5,-6.73555739531044D-16,20.,5.5,-5.5,20.,                           35P     23
-3.36777869765522D-16,-5.5,20.,-5.5,-5.5,20.,-5.5,0.,20.,-5.5,        35P     24
5.5,20.,-3.36777869765522D-16,5.5,20.,5.5,5.5,20.,5.5,                35P     25
6.73555739531044D-16,20.,-3.14159265358979,3.14159265358979,0.,       35P     26
0.,0.;                                                                35P     27
126,1,1,0,0,1,0,-1.81818181818182,-1.81818181818182,0.,0.,1.,1.,      37P     28
5.5,0.,20.,5.5,0.,10.,-1.81818181818182,0.,0.,0.,0.;                  37P     29
126,8,2,0,1,0,0,-3.14159265358979,-3.14159265358979,                  39P     30
-3.14159265358979,-1.5707963267949,-1.5707963267949,0.,0.,            39P     31
1.5707963267949,1.5707963267949,3.14159265358979,                     39P     32
3.14159265358979,3.14159265358979,1.,0.707106781186548,1.,            39P     33
0.707106781186548,1.,0.707106781186548,1.,0.707106781186548,1.,       39P     34
5.5,6.73555739531044D-16,10.,5.5,5.5,10.,-3.36777869765522D-16,       39P     35
5.5,10.,-5.5,5.5,10.,-5.5,0.,10.,-5.5,-5.5,10.,                       39P     36
-3.36777869765522D-16,-5.5,10.,5.5,-5.5,10.,5.5,                      39P     37
-6.73555739531044D-16,10.,-3.14159265358979,3.14159265358979,0.,      39P     38
0.,0.;                                                                39P     39
126,4,2,0,0,0,0,-3.14159265358979,-3.14159265358979,                  41P     40
-3.14159265358979,-1.5707963267949,-1.5707963267949,0.,0.,0.,1.,      41P     41
0.707106781186547,1.,0.707106781186548,1.,8.25,                       41P     42
1.01033360929657D-15,20.,8.25,8.25,20.,-5.05166804648283D-16,         41P     43
8.25,20.,-8.25,8.25,20.,-8.25,0.,20.,-3.14159265358979,0.,0.,0.,      41P     44
0.;                                                                   41P     45
126,4,2,0,0,0,0,0.,0.,0.,1.5707963267949,1.5707963267949,             43P     46
3.14159265358979,3.14159265358979,3.14159265358979,1.,                43P     47
0.707106781186548,1.,0.707106781186547,1.,-8.25,0.,20.,-8.25,         43P     48
-8.25,20.,-5.05166804648283D-16,-8.25,20.,8.25,-8.25,20.,8.25,        43P     49
-1.01033360929657D-15,20.,0.,3.14159265358979,0.,0.,0.;               43P     50
126,8,2,0,1,0,0,-3.14159265358979,-3.14159265358979,                  45P     51
-3.14159265358979,-1.5707963267949,-1.5707963267949,0.,0.,            45P     52
1.5707963267949,1.5707963267949,3.14159265358979,                     45P     53
3.14159265358979,3.14159265358979,1.,0.707106781186548,1.,            45P     54
0.707106781186548,1.,0.707106781186548,1.,0.707106781186548,1.,       45P     55
-5.25,6.42939569552361D-16,10.,-5.25,5.25,10.,                        45P     56
3.2146978477618D-16,5.25,10.,5.25,5.25,10.,5.25,0.,10.,5.25,          45P     57
-5.25,10.,3.2146978477618D-16,-5.25,10.,-5.25,-5.25,10.,-5.25,        45P     58
-6.42939569552361D-16,10.,-3.14159265358979,3.14159265358979,0.,      45P     59
0.,0.;                                                                45P     60
126,1,1,0,0,1,0,-1.9047619047619,-1.9047619047619,0.,0.,1.,1.,        47P     61
-5.25,0.,10.,-5.25,0.,0.,-1.9047619047619,0.,0.,0.,0.;                47P     62
126,8,2,0,1,0,0,-3.14159265358979,-3.14159265358979,                  49P     63
-3.14159265358979,-1.5707963267949,-1.5707963267949,0.,0.,            49P     64
1.5707963267949,1.5707963267949,3.14159265358979,                     49P     65
3.14159265358979,3.14159265358979,1.,0.707106781186548,1.,            49P     66
0.707106781186548,1.,0.707106781186548,1.,0.707106781186548,1.,       49P     67
-5.25,6.42939569552361D-16,0.,-5.25,5.25,0.,3.2146978477618D-16,      49P     68
5.25,0.,5.25,5.25,0.,5.25,0.,0.,5.25,-5.25,0.,                        49P     69
3.2146978477618D-16,-5.25,0.,-5.25,-5.25,0.,-5.25,                    49P     70
-6.42939569552361D-16,0.,-3.14159265358979,3.14159265358979,0.,       49P     71
0.,0.;                                                                49P     72
126,1,1,0,0,1,0,-2.42424242424242,-2.42424242424242,0.,0.,1.,1.,      51P     73
-8.25,0.,20.,-8.25,0.,0.,-2.42424242424242,0.,0.,0.,0.;               51P     74
126,8,2,0,1,0,0,-3.14159265358979,-3.14159265358979,                  53P     75
-3.14159265358979,-1.5707963267949,-1.5707963267949,0.,0.,            53P     76
1.5707963267949,1.5707963267949,3.14159265358979,                     53P     77
3.14159265358979,3.14159265358979,1.,0.707106781186548,1.,            53P     78
0.707106781186548,1.,0.707106781186548,1.,0.707106781186548,1.,       53P     79
-8.25,-1.01033360929657D-15,0.,-8.25,-8.25,0.,                        53P     80
5.05166804648283D-16,-8.25,0.,8.25,-8.25,0.,8.25,0.,0.,8.25,          53P     81
8.25,0.,5.05166804648283D-16,8.25,0.,-8.25,8.25,0.,-8.25,             53P     82
1.01033360929657D-15,0.,-3.14159265358979,3.14159265358979,0.,        53P     83
0.,0.;                                                                53P     84
128,1,8,1,2,0,1,0,0,1,0.,0.,1.81818181818182,1.81818181818182,        55P     85
-3.14159265358979,-3.14159265358979,-3.14159265358979,                55P     86
-1.5707963267949,-1.5707963267949,0.,0.,1.5707963267949,              55P     87
1.5707963267949,3.14159265358979,3.14159265358979,                    55P     88
3.14159265358979,1.,1.,0.707106781186548,0.707106781186548,1.,        55P     89
1.,0.707106781186548,0.707106781186548,1.,1.,0.707106781186548,       55P     90
0.707106781186548,1.,1.,0.707106781186548,0.707106781186548,1.,       55P     91
1.,5.5,0.,10.,5.5,0.,20.,5.5,5.5,10.,5.5,5.5,20.,0.,5.5,10.,0.,       55P     92
5.5,20.,-5.5,5.5,10.,-5.5,5.5,20.,-5.5,0.,10.,-5.5,0.,20.,-5.5,       55P     93
-5.5,10.,-5.5,-5.5,20.,0.,-5.5,10.,0.,-5.5,20.,5.5,-5.5,10.,5.5,      55P     94
-5.5,20.,5.5,0.,10.,5.5,0.,20.,0.,1.81818181818182,                   55P     95
-3.14159265358979,3.14159265358979;                                   55P     96
128,1,1,1,1,0,0,1,0,0,-0.826,-0.826,0.826,0.826,-0.826,-0.826,        57P     97
0.826,0.826,1.,1.,1.,1.,8.26,8.26,20.,-8.26,8.26,20.,8.26,-8.26,      57P     98
20.,-8.26,-8.26,20.,-0.826,0.826,-0.826,0.826;                        57P     99
128,1,8,1,2,0,1,0,0,1,0.,0.,1.9047619047619,1.9047619047619,          59P    100
-3.14159265358979,-3.14159265358979,-3.14159265358979,                59P    101
-1.5707963267949,-1.5707963267949,0.,0.,1.5707963267949,              59P    102
1.5707963267949,3.14159265358979,3.14159265358979,                    59P    103
3.14159265358979,1.,1.,0.707106781186548,0.707106781186548,1.,        59P    104
1.,0.707106781186548,0.707106781186548,1.,1.,0.707106781186548,       59P    105
0.707106781186548,1.,1.,0.707106781186548,0.707106781186548,1.,       59P    106
1.,-5.25,0.,0.,-5.25,0.,10.,-5.25,-5.25,0.,-5.25,-5.25,10.,0.,        59P    107
-5.25,0.,0.,-5.25,10.,5.25,-5.25,0.,5.25,-5.25,10.,5.25,0.,0.,        59P    108
5.25,0.,10.,5.25,5.25,0.,5.25,5.25,10.,0.,5.25,0.,0.,5.25,10.,        59P    109
-5.25,5.25,0.,-5.25,5.25,10.,-5.25,0.,0.,-5.25,0.,10.,0.,             59P    110
1.9047619047619,-3.14159265358979,3.14159265358979;                   59P    111
128,1,8,1,2,0,1,0,0,1,0.,0.,2.42424242424242,2.42424242424242,        61P    112
-3.14159265358979,-3.14159265358979,-3.14159265358979,                61P    113
-1.5707963267949,-1.5707963267949,0.,0.,1.5707963267949,              61P    114
1.5707963267949,3.14159265358979,3.14159265358979,                    61P    115
3.14159265358979,1.,1.,0.707106781186548,0.707106781186548,1.,        61P    116
1.,0.707106781186548,0.707106781186548,1.,1.,0.707106781186548,       61P    117
0.707106781186548,1.,1.,0.707106781186548,0.707106781186548,1.,       61P    118
1.,-8.25,0.,20.,-8.25,0.,0.,-8.25,-8.25,20.,-8.25,-8.25,0.,0.,        61P    119
-8.25,20.,0.,-8.25,0.,8.25,-8.25,20.,8.25,-8.25,0.,8.25,0.,20.,       61P    120
8.25,0.,0.,8.25,8.25,20.,8.25,8.25,0.,0.,8.25,20.,0.,8.25,0.,         61P    121
-8.25,8.25,20.,-8.25,8.25,0.,-8.25,0.,20.,-8.25,0.,0.,0.,             61P    122
2.42424242424242,-3.14159265358979,3.14159265358979;                  61P    123
128,1,1,1,1,0,0,1,0,0,-0.551,-0.551,0.551,0.551,-0.551,-0.551,        63P    124
0.551,0.551,1.,1.,1.,1.,-5.51,-5.51,10.,5.51,-5.51,10.,-5.51,         63P    125
5.51,10.,5.51,5.51,10.,-0.551,0.551,-0.551,0.551;                     63P    126
128,1,1,1,1,0,0,1,0,0,-0.826,-0.826,0.826,0.826,-0.826,-0.826,        65P    127
0.826,0.826,1.,1.,1.,1.,8.26,-8.26,0.,-8.26,-8.26,0.,8.26,8.26,       65P    128
0.,-8.26,8.26,0.,-0.826,0.826,-0.826,0.826;                           65P    129
502,7,5.5,6.73555739531044D-16,20.,5.5,6.73555739531044D-16,10.,      67P    130
8.25,1.01033360929657D-15,20.,-8.25,0.,20.,-5.25,                     67P    131
-6.42939569552361D-16,10.,-5.25,-6.42939569552361D-16,0.,-8.25,       67P    132
-1.01033360929657D-15,0.;                                             67P    133
504,10,35,67,1,67,1,37,67,1,67,2,39,67,2,67,2,41,67,3,67,4,43,        69P    134
67,4,67,3,45,67,5,67,5,47,67,5,67,6,49,67,6,67,6,51,67,4,67,7,        69P    135
53,67,7,67,7;                                                         69P    136
406,1,5HBody1;                                                        71P    137
314,62.7450980392157,62.7450980392157,62.7450980392157,13HSteel       73P    138
- Satin;                                                              73P    139
S      1G      3D     74P    139                                        T      1
