                                                                        S      1
,,7HCale v1,7HCale v1,7Hunknown,7Hunknown,32,38,7,99,15,,1.,2,2HMM,1,   G      1
0.08,15H20201205.181801,0.01,10000.,7Hunknown,7Hunknown,11,0,15H20200710G      2
.133055;                                                                G      3
     186       1                                                00000000D      1
     186             -35       1       0                               0D      2
     514       2                                                00010000D      3
     514                       1       1                               0D      4
     510       3                                                00010000D      5
     510             -35       1       1                               0D      6
     510       4                                                00010000D      7
     510             -35       1       1                               0D      8
     510       5                                                00010000D      9
     510             -35       1       1                               0D     10
     508       6                                                00010000D     11
     508                       1       1                               0D     12
     508       7                                                00010000D     13
     508                       1       1                               0D     14
     508       8                                                00010000D     15
     508                       1       1                               0D     16
     126       9                                                00010000D     17
     126       0               9       0                               0D     18
     126      18                                                00010000D     19
     126       0               2       0                               0D     20
     126      20                                                00010000D     21
     126       0               9       0                               0D     22
     128      29                                                00010000D     23
     128       0     -35      11       0                               0D     24
     128      40                                                00010000D     25
     128       0     -35       3       0                               0D     26
     128      43                                                00010000D     27
     128       0     -35       3       0                               0D     28
     502      46                                                00010000D     29
     502                       2       1                               0D     30
     504      48                                                00010001D     31
     504                       1       1                               0D     32
     406      49                                                00000000D     33
     406                       1      15                               0D     34
     314      50                                                00000200D     35
     314                       2       0                               0D     36
186,3,1,0,0,1,33;                                                      1P      1
514,3,5,1,7,1,9,1;                                                     3P      2
510,23,1,1,11;                                                         5P      3
510,25,1,1,13;                                                         7P      4
510,27,1,1,15;                                                         9P      5
508,4,0,31,1,0,0,0,31,2,1,0,0,31,3,1,0,0,31,2,0,0;                    11P      6
508,1,0,31,1,1,0;                                                     13P      7
508,1,0,31,3,0,0;                                                     15P      8
126,8,2,0,1,0,0,-3.14159265358979,-3.14159265358979,                  17P      9
-3.14159265358979,-1.5707963267949,-1.5707963267949,0.,0.,            17P     10
1.5707963267949,1.5707963267949,3.14159265358979,                     17P     11
3.14159265358979,3.14159265358979,1.,0.707106781186548,1.,            17P     12
0.707106781186548,1.,0.707106781186548,1.,0.707106781186548,1.,       17P     13
-50.,-6.12323399573677D-15,4.,-50.,-50.,4.,3.06161699786838D-15,      17P     14
-50.,4.,50.,-50.,4.,50.,0.,4.,50.,50.,4.,3.06161699786838D-15,        17P     15
50.,4.,-50.,50.,4.,-50.,6.12323399573677D-15,4.,                      17P     16
-3.14159265358979,3.14159265358979,0.,0.,0.;                          17P     17
126,1,1,0,0,1,0,-0.08,-0.08,0.,0.,1.,1.,-50.,0.,4.,-50.,0.,0.,        19P     18
-0.08,0.,0.,0.,0.;                                                    19P     19
126,8,2,0,1,0,0,-3.14159265358979,-3.14159265358979,                  21P     20
-3.14159265358979,-1.5707963267949,-1.5707963267949,0.,0.,            21P     21
1.5707963267949,1.5707963267949,3.14159265358979,                     21P     22
3.14159265358979,3.14159265358979,1.,0.707106781186548,1.,            21P     23
0.707106781186548,1.,0.707106781186548,1.,0.707106781186548,1.,       21P     24
-50.,-6.12323399573677D-15,0.,-50.,-50.,0.,3.06161699786838D-15,      21P     25
-50.,0.,50.,-50.,0.,50.,0.,0.,50.,50.,0.,3.06161699786838D-15,        21P     26
50.,0.,-50.,50.,0.,-50.,6.12323399573677D-15,0.,                      21P     27
-3.14159265358979,3.14159265358979,0.,0.,0.;                          21P     28
128,1,8,1,2,0,1,0,0,1,0.,0.,0.08,0.08,-3.14159265358979,              23P     29
-3.14159265358979,-3.14159265358979,-1.5707963267949,                 23P     30
-1.5707963267949,0.,0.,1.5707963267949,1.5707963267949,               23P     31
3.14159265358979,3.14159265358979,3.14159265358979,1.,1.,             23P     32
0.707106781186548,0.707106781186548,1.,1.,0.707106781186548,          23P     33
0.707106781186548,1.,1.,0.707106781186548,0.707106781186548,1.,       23P     34
1.,0.707106781186548,0.707106781186548,1.,1.,-50.,0.,4.,-50.,0.,      23P     35
0.,-50.,-50.,4.,-50.,-50.,0.,0.,-50.,4.,0.,-50.,0.,50.,-50.,4.,       23P     36
50.,-50.,0.,50.,0.,4.,50.,0.,0.,50.,50.,4.,50.,50.,0.,0.,50.,4.,      23P     37
0.,50.,0.,-50.,50.,4.,-50.,50.,0.,-50.,0.,4.,-50.,0.,0.,0.,0.08,      23P     38
-3.14159265358979,3.14159265358979;                                   23P     39
128,1,1,1,1,0,0,1,0,0,-5.001,-5.001,5.001,5.001,-5.001,-5.001,        25P     40
5.001,5.001,1.,1.,1.,1.,-50.01,-50.01,4.,50.01,-50.01,4.,-50.01,      25P     41
50.01,4.,50.01,50.01,4.,-5.001,5.001,-5.001,5.001;                    25P     42
128,1,1,1,1,0,0,1,0,0,-5.001,-5.001,5.001,5.001,-5.001,-5.001,        27P     43
5.001,5.001,1.,1.,1.,1.,50.01,-50.01,0.,-50.01,-50.01,0.,50.01,       27P     44
50.01,0.,-50.01,50.01,0.,-5.001,5.001,-5.001,5.001;                   27P     45
502,2,-50.,-6.12323399573677D-15,4.,-50.,-6.12323399573677D-15,       29P     46
0.;                                                                   29P     47
504,3,17,29,1,29,1,19,29,1,29,2,21,29,2,29,2;                         31P     48
406,1,5HBody1;                                                        33P     49
314,62.7450980392157,62.7450980392157,62.7450980392157,13HSteel       35P     50
- Satin;                                                              35P     51
S      1G      3D     36P     51                                        T      1
