0
SECTION
2
HEADER
9
$INSUNITS
70
4
9
$ACADVER
1
AC1014
9
$HANDSEED
5
FFFF
0
ENDSEC
0
SECTION
2
TABLES
0
TABLE
2
VPORT
5
8
100
AcDbSymbolTable
0
ENDTAB
0
TABLE
2
LTYPE
5
5
100
AcDbSymbolTable
0
LTYPE
5
14
100
AcDbSymbolTableRecord
100
AcDbLinetypeTableRecord
2
BYBLOCK
70
0
0
LTYPE
5
15
100
AcDbSymbolTableRecord
100
AcDbLinetypeTableRecord
2
BYLAYER
70
0
0
ENDTAB
0
TABLE
2
LAYER
5
2
100
AcDbSymbolTable
70
2
0
LAYER
5
50
100
AcDbSymbolTableRecord
100
AcDbLayerTableRecord
2
0
70
0
6
CONTINUOUS
0
ENDTAB
0
TABLE
2
STYLE
5
3
100
AcDbSymbolTable
70
1
0
STYLE
5
11
100
AcDbSymbolTableRecord
100
AcDbTextStyleTableRecord
2
STANDARD
70
0
0
ENDTAB
0
TABLE
2
VIEW
5
6
100
AcDbSymbolTable
70
0
0
ENDTAB
0
TABLE
2
UCS
5
7
100
AcDbSymbolTable
70
0
0
ENDTAB
0
TABLE
2
APPID
5
9
100
AcDbSymbolTable
70
2
0
APPID
5
12
100
AcDbSymbolTableRecord
100
AcDbRegAppTableRecord
2
ACAD
70
0
0
ENDTAB
0
TABLE
2
DIMSTYLE
5
A
100
AcDbSymbolTable
70
1
0
ENDTAB
0
TABLE
2
BLOCK_RECORD
5
1
100
AcDbSymbolTable
70
1
0
BLOCK_RECORD
5
1F
100
AcDbSymbolTableRecord
100
AcDbBlockTableRecord
2
*MODEL_SPACE
0
BLOCK_RECORD
5
1B
100
AcDbSymbolTableRecord
100
AcDbBlockTableRecord
2
*PAPER_SPACE
0
ENDTAB
0
ENDSEC
0
SECTION
2
BLOCKS
0
BLOCK
5
20
100
AcDbEntity
100
AcDbBlockBegin
2
*MODEL_SPACE
0
ENDBLK
5
21
100
AcDbEntity
100
AcDbBlockEnd
0
BLOCK
5
1C
100
AcDbEntity
100
AcDbBlockBegin
2
*PAPER_SPACE
0
ENDBLK
5
1D
100
AcDbEntity
100
AcDbBlockEnd
0
ENDSEC
0
SECTION
2
ENTITIES
0
LINE
5
100
100
AcDbEntity
8
0
100
AcDbLine
10
-74.999999999999972
20
60.899999999999238
30
0
11
75.000000000000028
21
60.899999999999281
31
0
0
LINE
5
101
100
AcDbEntity
8
0
100
AcDbLine
10
75.000000000000028
20
60.899999999999281
30
0
11
74.999999999999957
21
-60.899999999999253
31
0
0
LINE
5
102
100
AcDbEntity
8
0
100
AcDbLine
10
74.999999999999957
20
-60.899999999999253
30
0
11
-75.000000000001776
21
-60.900000000000759
31
0
0
LINE
5
103
100
AcDbEntity
8
0
100
AcDbLine
10
-75.000000000001776
20
-60.900000000000759
30
0
11
-74.999999999999972
21
60.899999999999238
31
0
0
LINE
5
104
100
AcDbEntity
8
0
100
AcDbLine
10
-74.999999999999972
20
60.899999999999238
30
0
11
74.999999999999957
21
-60.899999999999253
31
0
0
LINE
5
105
100
AcDbEntity
8
0
100
AcDbLine
10
75.000000000000028
20
60.899999999999281
30
0
11
-75.000000000001776
21
-60.900000000000759
31
0
0
LINE
5
106
100
AcDbEntity
8
0
100
AcDbLine
10
74.999999999999957
20
-40.899999999999977
30
0
11
-74.999999999999886
21
-40.899999999999977
31
0
0
LINE
5
107
100
AcDbEntity
8
0
100
AcDbLine
10
-74.999999999999886
20
-40.899999999999977
30
0
11
-74.999999999999929
21
40.90000000000002
31
0
0
LINE
5
108
100
AcDbEntity
8
0
100
AcDbLine
10
-74.999999999999929
20
40.90000000000002
30
0
11
74.999999999999915
21
40.90000000000002
31
0
0
LINE
5
109
100
AcDbEntity
8
0
100
AcDbLine
10
74.999999999999915
20
40.90000000000002
30
0
11
74.999999999999957
21
-40.899999999999977
31
0
0
LINE
5
110
100
AcDbEntity
8
0
100
AcDbLine
10
74.999999999999957
20
-40.899999999999977
30
0
11
-74.999999999999929
21
40.90000000000002
31
0
0
LINE
5
111
100
AcDbEntity
8
0
100
AcDbLine
10
-74.999999999999886
20
-40.899999999999977
30
0
11
74.999999999999915
21
40.90000000000002
31
0
0
LINE
5
112
100
AcDbEntity
8
0
100
AcDbLine
10
0
20
0
30
0
11
6.7723604502134549e-14
21
60.899999999999878
31
0
0
LINE
5
113
100
AcDbEntity
8
0
100
AcDbLine
10
-74.999999999999972
20
60.899999999999238
30
0
11
74.999999999999915
21
40.90000000000002
31
0
0
LINE
5
114
100
AcDbEntity
8
0
100
AcDbLine
10
-2.0539125955565396e-14
20
50.900000000000006
30
0
11
-75.000000000000114
21
50.900000000000873
31
0
0
LINE
5
115
100
AcDbEntity
8
0
100
AcDbLine
10
-2.0539125955565396e-14
20
50.900000000000006
30
0
11
75.000000000000028
21
50.899999999999736
31
0
0
LWPOLYLINE
5
116
100
AcDbEntity
8
0
100
AcDbPolyline
90
4
70
1
43
0.0
10
-2.0999999999999552
20
48.40000000000002
10
-2.0999999999999419
20
53.400000000000041
42
-0.99999999999999989
10
2.1000000000000618
20
53.400000000000006
10
2.1000000000000574
20
48.400000000000034
42
-0.99999999999999989
0
LINE
5
117
100
AcDbEntity
8
0
100
AcDbLine
10
5.9952043329758453e-14
20
53.400000000000027
30
0
11
5.1070259132757201e-14
21
48.400000000000027
31
0
0
LWPOLYLINE
5
118
100
AcDbEntity
8
0
100
AcDbPolyline
90
4
70
1
43
0.0
10
-62.099999999999937
20
53.400000000000041
42
-0.99999999999999989
10
-57.899999999999935
20
53.400000000000006
10
-57.899999999999935
20
48.400000000000034
42
-0.99999999999999989
10
-62.099999999999952
20
48.40000000000002
0
LWPOLYLINE
5
119
100
AcDbEntity
8
0
100
AcDbPolyline
90
4
70
1
43
0.0
10
57.900000000000063
20
53.400000000000041
42
-0.99999999999999989
10
62.100000000000065
20
53.400000000000006
10
62.100000000000065
20
48.400000000000034
42
-0.99999999999999989
10
57.900000000000048
20
48.40000000000002
0
LINE
5
120
100
AcDbEntity
8
0
100
AcDbLine
10
-75.000000000000881
20
1.7763568394002505e-14
30
0
11
74.999999999999986
21
1.7763568394002505e-14
31
0
0
LWPOLYLINE
5
121
100
AcDbEntity
8
0
100
AcDbPolyline
90
4
70
1
43
0.0
10
-57.899999999999928
20
-53.400000000000006
42
-0.99999999999999989
10
-62.099999999999945
20
-53.39999999999997
10
-62.099999999999945
20
-48.399999999999999
42
-0.99999999999999989
10
-57.899999999999949
20
-48.399999999999977
0
LWPOLYLINE
5
122
100
AcDbEntity
8
0
100
AcDbPolyline
90
4
70
1
43
0.0
10
2.1000000000000707
20
-53.400000000000006
42
-0.99999999999999989
10
-2.0999999999999464
20
-53.39999999999997
10
-2.0999999999999464
20
-48.399999999999999
42
-0.99999999999999989
10
2.1000000000000529
20
-48.399999999999977
0
LWPOLYLINE
5
123
100
AcDbEntity
8
0
100
AcDbPolyline
90
4
70
1
43
0.0
10
62.100000000000072
20
-53.400000000000006
42
-0.99999999999999989
10
57.900000000000055
20
-53.39999999999997
10
57.900000000000055
20
-48.399999999999999
42
-0.99999999999999989
10
62.100000000000051
20
-48.399999999999977
0
LWPOLYLINE
5
124
100
AcDbEntity
8
0
100
AcDbPolyline
90
4
70
1
43
0.0
10
40
20
-20
10
-40
20
-19.999999999999996
42
-0.99999999999999989
10
-40
20
19.999999999999996
10
40
20
20
42
-0.99999999999999989
0
LINE
5
125
100
AcDbEntity
8
0
100
AcDbLine
10
-40
20
0
30
0
11
40
21
0
31
0
0
ENDSEC
0
SECTION
2
OBJECTS
0
DICTIONARY
5
C
100
AcDbDictionary
3
ACAD_GROUP
350
D
3
ACAD_MLINESTYLE
350
17
0
DICTIONARY
5
D
100
AcDbDictionary
0
DICTIONARY
5
1A
330
C
100
AcDbDictionary
0
DICTIONARY
5
17
100
AcDbDictionary
0
ENDSEC
0
EOF
